<svg xmlns="http://www.w3.org/2000/svg" viewBox="0 0 318 318"><defs><style>.cls-1{fill:#ffebe8;stroke:#fff;stroke-miterlimit:10;stroke-width:13px;opacity:0.82;}.cls-2{fill:#58afdb;}.cls-3{fill:#f3c20e;}.cls-4{fill:#fff;}</style></defs><g id="圖層_2" data-name="圖層 2"><g id="圖層_1-2" data-name="圖層 1"><rect class="cls-1" x="6.5" y="6.5" width="305" height="305"/><path class="cls-2" d="M5.5,311.5,66.12,211.34q8.31,9.63,16.77,20.91a433.71,433.71,0,0,1,46.48,79.22"/><circle class="cls-3" cx="103.5" cy="158.5" r="21"/><path class="cls-2" d="M311.5,310.34l-98-189.84q-9.11,16.71-18.24,33.77Q184.72,174,174.51,193.55a65.32,65.32,0,0,0-12.77-20.42,47.72,47.72,0,0,0-6.92-6q-14.55,21.14-29.27,44.25C104,245.27,84.7,278.71,67.45,311Z"/><path class="cls-4" d="M212.5,117.5l-30,59,17-11,7,13,10-14,9,13,4-12,15,14Z"/><path class="cls-4" d="M66.15,211.68,42.5,249.5l12.53-7,6,8.35q4.27-4.5,8.54-9l7.7,8.35,3.42-7.71,12.82,5a141.28,141.28,0,0,0-13-20A141.36,141.36,0,0,0,66.15,211.68Z"/><path class="cls-4" d="M154.63,165.67,140.5,188.5l11-7,5,5,4-6,10,5a51.94,51.94,0,0,0-15.87-19.83Z"/></g></g></svg>