<svg xmlns="http://www.w3.org/2000/svg" viewBox="0 0 45.95 41.52"><defs><style>.cls-1{fill:#005f96;}.cls-2{fill:#fdd600;}</style></defs><g id="圖層_2" data-name="圖層 2"><g id="圖層_1-2" data-name="圖層 1"><path class="cls-1" d="M25,40.64C22.08,38.88-2.2,23.86.16,8.86.33,7.77,1,3.61,4,2,8.34-.28,16.18,3.74,23.64,12.56,27.79,4,34-.84,39.09.12c3.8.72,5.84,4.49,5.92,4.65C50.94,16.11,26.88,38.87,25,40.64Z"/><path class="cls-2" d="M25,41.52a80.6,80.6,0,0,1-11-8.39,80.15,80.15,0,0,1-10-11c5.27.13,10.82.11,16.65-.12,7.5-.29,14.55-.89,21.09-1.67A64.63,64.63,0,0,1,36,29.76,65.24,65.24,0,0,1,25,41.52Z"/></g></g></svg>