<svg xmlns="http://www.w3.org/2000/svg" viewBox="0 0 144.1 167.88"><defs><style>.cls-1{fill:#ff5563;}.cls-2{fill:#1b1b1b;}.cls-3{fill:#646b40;}</style></defs><g id="圖層_2" data-name="圖層 2"><g id="圖層_1-2" data-name="圖層 1"><path class="cls-1" d="M70,71.74c-25.86-31.91-60.19-19-67,9.87-10.39,30.28,8.14,71.2,35.55,79.94,7.33,3.64,34,4.88,42.35-11.27,11.38,14.3,34.92,5.45,43.67-5.32,12.42-13.2,18-64.27,5.92-77.5C119,48.6,82.11,34.8,70,71.74Z"/><path class="cls-2" d="M74.82,73.13c.1.72.16-.18.41-.94Z"/><path class="cls-2" d="M75.23,72.19l.29-.66A2.55,2.55,0,0,0,75.23,72.19Z"/><path class="cls-2" d="M78.05,66.14c-.26.72-.61,1.48-.93,2.18a5,5,0,0,0-.59,1.85C77.36,68.85,78.21,66.66,78.05,66.14Z"/><polygon class="cls-2" points="76.83 68.11 76.94 68.37 77.19 66.99 76.83 68.11"/><polygon class="cls-2" points="76.25 68.91 76.4 68.76 77.06 66.73 76.25 68.91"/><path class="cls-2" d="M80.84,61.79c-.27.43-.52.88-.78,1.32-1,1,.18-1-.51-.32-1,1.64.11.85-1.1,2.91.18,0,.59-.88,1.07-1.61s1-1.39,1-1.11C81.75,61.4,80.39,62.75,80.84,61.79Z"/><path class="cls-2" d="M143.49,95.73c0,.08,0,.15,0,.22C143.5,95.87,143.53,95.78,143.49,95.73Z"/><path class="cls-2" d="M141.29,121.61c-.11.34-.21.69-.29,1a2.29,2.29,0,0,0,.2-.39Z"/><path class="cls-2" d="M141,79.63c0-.38-.1-.72-.16-1A4.31,4.31,0,0,0,141,79.63Z"/><path class="cls-2" d="M45.89,163.15a.26.26,0,0,0,.16-.09l0,0-.3,0Z"/><path class="cls-2" d="M130.26,149.12c-.3.32-.59.65-.84.95A7.59,7.59,0,0,0,130.26,149.12Z"/><path class="cls-2" d="M137.56,70.78l.21.34a4.91,4.91,0,0,0-.23-.44v.1Z"/><path class="cls-2" d="M143.28,113.3c-.07.35-.14.66-.18.93A6.35,6.35,0,0,0,143.28,113.3Z"/><path class="cls-2" d="M100.23,51.08a8,8,0,0,0,1.08-.09A1.84,1.84,0,0,0,100.23,51.08Z"/><path class="cls-2" d="M109,51.76H109C109,51.81,109,51.81,109,51.76Z"/><path class="cls-2" d="M114.43,53.47l-.1,0C114.38,53.5,114.41,53.52,114.43,53.47Z"/><path class="cls-2" d="M101.31,51c.74.18.94.69,1.89.12L103,51a9.51,9.51,0,0,0,2.07,0,.76.76,0,0,0-.22-.17c-.34,0-.77-.07-1.45-.15S102.08,50.86,101.31,51Z"/><path class="cls-2" d="M143.38,95.63c.11-.09,0-.71,0,0Z"/><path class="cls-2" d="M142.49,87.66l0,.78A4.25,4.25,0,0,0,142.49,87.66Z"/><path class="cls-2" d="M130,60.54l.09.12C130.16,60.64,130.06,60.57,130,60.54Z"/><path class="cls-2" d="M142.6,89.17l-.06-.73A3.17,3.17,0,0,0,142.6,89.17Z"/><path class="cls-2" d="M135.6,67.83l.05.11A.48.48,0,0,0,135.6,67.83Z"/><path class="cls-2" d="M21.23,64.66a12.7,12.7,0,0,1-1.13.84c-.29.55.15.13.53-.25s.75-.67.23,0a13,13,0,0,0,.92-.94l-.82.19C20.27,65.29,21.57,64.17,21.23,64.66Z"/><path class="cls-2" d="M39.38,159.8l.21.13c-.08-.23.08-.22-.74-.68-.83-.14.12.81-1.28.41a7.72,7.72,0,0,1,1,.51C38.1,159.7,38.73,159.74,39.38,159.8Z"/><path class="cls-2" d="M38.53,160.17l0,0a1.25,1.25,0,0,0,.16.17,3.87,3.87,0,0,1,.5.27A2.94,2.94,0,0,0,38.53,160.17Z"/><path class="cls-2" d="M11.06,79.88c-.09.21-.17.4-.24.58A1.3,1.3,0,0,0,11.06,79.88Z"/><path class="cls-2" d="M127.85,144.46c.13-.22.26-.44.37-.61A1.93,1.93,0,0,0,127.85,144.46Z"/><path class="cls-2" d="M52.39,163.86l.68.11h.44Z"/><path class="cls-2" d="M13,140.06c.63.23-.23-.33-.54-1.36l-.68-.72A23,23,0,0,0,13,140.06Z"/><path class="cls-2" d="M21.84,64.32a.05.05,0,0,1,0,0l0,0Z"/><path class="cls-2" d="M3.05,113.37c0-.17,0-.32,0-.47A2.6,2.6,0,0,0,3.05,113.37Z"/><path class="cls-2" d="M43.59,162.4a17.53,17.53,0,0,0,3.25,1.11l-1-.36C45.35,163.23,44.09,162.39,43.59,162.4Z"/><path class="cls-2" d="M22.4,152.77l.05.43a21.24,21.24,0,0,1,2.21,1.85c.74.63,1.46,1.29,2.17,1.93s1.48,1.19,2.2,1.7a10,10,0,0,0,2.2,1.13c3.39,3.24,2.9.93,6.24,3.55l-.07-.18,2.37,1.07,2.46.92c-.1,0,0,0,0,0l.34.16c.23.11.46.21.68.29.45.19.9.35,1.34.49.88.29,1.75.51,2.63.71a48.21,48.21,0,0,0,10.45,1.06c6.92-.06,13.92-1.41,19.7-4.79l.06.18a26.68,26.68,0,0,0,6.09-4.3l1.32-1.36,1-1.22.11-.15.11.12s0,0,0,0l.57.47a12.17,12.17,0,0,0,1.29,1,21.92,21.92,0,0,0,5.75,2.86,28,28,0,0,0,12.32.94,40.52,40.52,0,0,0,11.5-3.36,42.66,42.66,0,0,0,10.17-6.38c1.36-1.43.2-1,1.27-2.25l1-1c.35-.37.67-.66.76-.59-.85,1.17-.17.7-.43,1.13l1-1.13-.13.15a18.2,18.2,0,0,0,3.59-5.11l-1.16,1.36c.32-.76,1.06-1.81,1.39-2.46,0,.35.77-.45.53.15,1.29-4.24,1.79-3,2.87-6.45-.3-.89.63-5.28.9-8.2l.53-1.43c-.5,2,.46.07-.2,2.5a23.6,23.6,0,0,0,.79-3c.19-1,.37-2,.64-2.91-.24.35-.41.21-.33-.58.32-1.18.66-1.22,1-2.58,0,.46-.05.92-.07,1.38a7.35,7.35,0,0,0,.36-2.56c.31-.23.7-2.28.92-1.87-.07-1.91.23-2.54.25-4.58-.54,2-.28-.57-.52-.36l-.19,2.35c.59-3.28-.09,1.08.36.89-.43,1.52-.41-2.23-.73.37a61.17,61.17,0,0,0,.45-7c-.11,1.92-.25-.4-.49.62.22-2.43.21-.59.57-1.31a9.54,9.54,0,0,0,.14-3c.25-2.15.32.34.56-.74.3.83-.85,6,.17,5.47-.1,1.13.11,2.55-.12,4.17.15-.7.37-1.55.55-2.45a13.45,13.45,0,0,0,.26-2.74l-.54-.13c.1-1.34-.26-1.64-.13-2.6.11.52.44-.38.44-1.46-.09.3-.1.73-.19.61.06-2-.27-2.29-.31-4.66a36,36,0,0,1-.73,4.14c-.36-.51,0-1.28,0-2.35,0,.17,0,.39.14.08l-.15-1.14c.23-2.42.55.32.79-1.68.35-1.38-.17-1.9,0-3l-.1.21c0-.23,0-.4,0-.53l0,0c-.09-1.29-.09-2.68-.39-3a4,4,0,0,0-.22-1.54,8,8,0,0,1-.26-3.5v.08c-.1-1.61-.14-2.88.07-2.55-.06-.87-.19-1.74-.29-2.61l.42.22a9.79,9.79,0,0,0-1.45-3.6,17.1,17.1,0,0,0-1.91-5.56,4.37,4.37,0,0,0-.39-.89c.12.32.18.66.27,1a6.23,6.23,0,0,0-.79-1.51,8.49,8.49,0,0,1-.65-1c.11.24.11.28-.21-.34-.11-.18-.22-.38-.36-.63a2.06,2.06,0,0,1,.34.53v-.26a4.08,4.08,0,0,0-.45-1,5.35,5.35,0,0,0-.65-.69l-.34-.32-.18-.16-.09-.07a5.39,5.39,0,0,1-.57-.85,5.55,5.55,0,0,1,.35.46c-.21-.4-.37-1-.56-1.42s-.41-.82-.65-.88a2,2,0,0,0-.58-.6c-.12-.19-.24-.38-.37-.56a4.18,4.18,0,0,1,.36.55c-.33-.27-.69-.48-.66-.57-.48-.59-.94-1.21-1.45-1.77a7.67,7.67,0,0,0-1.07-1.06l-.17-.39c-.62-.55-.56-.63-.46-.59-1.77-2.41-3.54-2.78-5.85-4.93-.64-.12.37.7.37.87-.52-.11-2.08-1-2.93-1.27a24.49,24.49,0,0,0-2.57-2c-1-.68-1.69-1.24-1.27-1.33-2.35-1.13.61.62-.65.25l-.26-.15a6.59,6.59,0,0,1,1.7,1.28c0,.34-2-.57-2.62-.88l.61-.18c-2.25-.75-2,0-3.5-.11-1.69-.74-.58-.75-.85-1.21l-1.92-.43.07-.29a9,9,0,0,0-1.5-.14,11.93,11.93,0,0,1-1.84-.29c1.33-.1-2.62-.63-.8-.77-1-.24-1.32.33-1.8-.1-.72.29.88.18,1.37.39.35.47-2.19,0-3.38.13-.1-.24.8-.29-.61-.43a3.65,3.65,0,0,1-2,.18c0,.32-1.59.16-2.38.34.9-.15,2.21,0,1.65.31a25.65,25.65,0,0,1-2.78.58l1.08-.06c-1.24.65-2.26.13-4,.84.67-.47,1.17-.53,1.77-1-.41.2-1,.42-1.65.74l-1.91,1-1.6.29c-.09.24-1.57.85-1.41,1.11-1.77.87,1.13-1.17,1.27-1.38a4.7,4.7,0,0,0-1.24.67c-.27.2-.46.38-.64.54a3.24,3.24,0,0,1-.65.49,7.56,7.56,0,0,1-1.17.67l.48-.7c-.66.46-1.86,1.54-2,1.54.07.08.33-.24.74-.53a5.27,5.27,0,0,1-1.16,1.69,6.92,6.92,0,0,0-.65.84c-.12.24-.14.42,0,.48a8.73,8.73,0,0,1,.79-.71A11.53,11.53,0,0,0,83,58.62a9.91,9.91,0,0,1-1.19,1.44c-.73.65,0-.83.35-1.33-1.06,1.14-.26,1.41-1.43,2.79.66-.7.72-.41.51.13.33-.4.85-1,1.23-1.5s.68-.82.45-.77l-.3.24c-.06-.18.28-.64.42-.9,1-1.06.65-.3.93-.43,1.75-1.57-.31-.58,1.31-2l.29-.1c.71-.8,2-1.78,2.06-2.25a4,4,0,0,0,1.56-.83,4.78,4.78,0,0,1,1.62-.85c.29.37-.59.69-1.57,1.21-.5.27-1,.54-1.5.82a3.49,3.49,0,0,0-1,.91c1-.54-.27.73-.52,1.16A26.55,26.55,0,0,1,89,54a3.47,3.47,0,0,0,1.85-.74l-.26.1c1.24-.68.72-.92,1.93-1.24.2,0-.1.27-.16.36,1.08-.32.81-.52,1.5-.86,1.1-.27-.43.5.5.32,1.16-.67,2-.49,3.11-.68-.28-.18.79-.62,1.67-.82s1.53-.47.25-.57a26.14,26.14,0,0,1,2.81-.47c.87.25-1.93.73-1.13,1.13-.73,0-1.45.11-2.18.15.11.15.44.17.91.13s1-.15,1.69-.18a6.66,6.66,0,0,1,3.4.27,10.87,10.87,0,0,1,3,.69l-.27-.62c1.11.35,1.4.72,1.43.83a11.39,11.39,0,0,1,1.83.47,2.36,2.36,0,0,1-.82,0c.74.52,1,.47,1.34.39a6.64,6.64,0,0,1,1.81.47h-.67c.43.09,1,.2,1,.12.28.09.54.2.8.26a3.57,3.57,0,0,0-1.4-1.1c2.45,1.07,4.43,1.82,6.2,3.32-.15.1-1.07-.17-.83,0a6,6,0,0,0,1.44.65c.42.15.73.18.74.05l.55.31a1.94,1.94,0,0,0,.71.79,2.67,2.67,0,0,0,.53.49c.28-.08.83.23,1.39.58a7.49,7.49,0,0,0,1.3.83,10.79,10.79,0,0,0-1.41-1.08,4,4,0,0,1,2.2,1.15c-1.53-.81,1.15,1.45-1,0,1.08,1.52,1,.27,2.33,1.64.27.31.5.66.75,1-.17.05-.55-.26-.89-.54s-.62-.52-.55-.38l.67.52A21.64,21.64,0,0,1,125,60.13c-.46-.33-1-.68-1.45-1a12.18,12.18,0,0,0-1.45-.77c1,.76,2,1.6,3,2.44a29.58,29.58,0,0,1,5.71,5.35c.84,1,1.63,2,2.33,3l.27.37.11.16a1.55,1.55,0,0,0,.13.17l.24.27c.19.2.38.39.56.59.4.35.7.8,1,1.16l-.1-.14c.07,0,.13,0,.27,0l0,.19a5.67,5.67,0,0,1,.61.59c.17,1,.84,2.55,1.07,4-.1-1-.12-.95.07-1.12.38,0,.56.15.88,1.54-.21.08-.47-.74-.32.29-.06-.54.24-.14.46.45.06.81.37,2.1.15,2.17a2.75,2.75,0,0,1-.18-.89c-.16-.34.18,1.48-.28.48.15.45.27.91.38,1.38,0,.85-.4-.48-.45-.13.32,1.13.67,2,1,2.82a14.86,14.86,0,0,1,.81,2.74c-.13-.09-.64,0-.49,0,.06,1.67.92,3.52,1.06,5.45a7,7,0,0,1-.25-1.57,79.06,79.06,0,0,1-.87,16.19c.13.49.28,1,.4,1.47l-.5,1.41c-.94,5.73-1.38,10.16-2.48,15.58-.39,1.67-.6.91-1,1.65a38.53,38.53,0,0,0-.9,4.08c-.1.57-.21,1.13-.33,1.77s-.34,1.33-.61,2.18c0-.52-.13-1.45-.66,0a1.77,1.77,0,0,1-.26,1.43l0-.51a5.19,5.19,0,0,0-.63,1.27c-.21.5-.46,1.1-.88,1.9-1.19,2.46-2.29,4.77-3.48,6.7l-.07.08-.53,1c-2,2-.21-.59-.66-.27a5.32,5.32,0,0,0,.87-.95l.09-.1c.17-.28,0-.28,0-.55l-.24.38-.1.11c-.48.75-1.13,1.47-1.67,1.56-1,1-1.46,1.41-2.41,2.49.49-.53,1.06-.79.67-.22-.5.32-1.32,1-2.06,1.45s-1.39.79-1.45.56c-5.63,3.78-13.3,6.41-20.39,6-1.21.13.9.17.23.28-1.77.17-1.35-.29-2.76-.24l.61-.17a30.31,30.31,0,0,1-6.12-1.3c.42-.09-1.29-1,.21-.35a2.72,2.72,0,0,1-1-1.26c-.24-.52-.47-1-.82-1.08,0,.54.09,1,.16,1.59-.12.08-1.19-.78-1.12-.66l-.4-.56-.1-.14s-.08-.08-.12-.13l-.1-.12-.37-.51a19.74,19.74,0,0,0-1.4-1.74c-.15-.4.26,0,.86.57l1,1a3.54,3.54,0,0,0,.53.5,2.25,2.25,0,0,0,.24.21c.1-.08,0-.24-.09-.42-.39-.4-.74-.92-1.15-1.39-.76-1-1.4-1.76-.42-1-1.37-1.43-1.24-1.23-1-.88s.5.84-.23.14L85,146.92l-.28.45L85,147l1.27,1.67c-.49-.5-.87-.85-1.22-1.16a18.74,18.74,0,0,1-2.48,4.4c-.25.55-.5,1.17-.73,1.56l-.36.83c-.4-.11-.9.91-1.62,1.46a5.65,5.65,0,0,0,.23-.57,6.37,6.37,0,0,1-1.92,1.41c.31-.67.88-.6.87-1.05a12.32,12.32,0,0,1-1,.73c.15.17-.4.82.42.36a6.74,6.74,0,0,1-1.13,1.49,5.85,5.85,0,0,1-1,.83,10.87,10.87,0,0,1-1.71,1c-1.43.31,1.21-1,.5-1.07a14.88,14.88,0,0,0-1.76,1c-.47.31-.84.61-1.19.88A5.75,5.75,0,0,1,70,162a18,18,0,0,0-2.35.68,12.7,12.7,0,0,1-2.4.7c.76-.4-1.82,0-2.32-.2.32-.13.64-.25,1-.4-.75.19-1.5.17-1.3,0,.2.37-3.23.68-5,.85l.32.29a23.12,23.12,0,0,1-4.79.1c-2.19-.09-1.72.22-3.46.32-.89-.41-.72-.73-.36-1a16.64,16.64,0,0,0,2.48.49c2.79,0,4.92-.59,7.63-.58,1.14-.81-1.82.2-3.15-.11a.42.42,0,0,1,.23-.06l-.33,0c1-.08,2.55-.25,2.79-.64-1.6.13-1.15.8-3.16.46-1.51.19-2.68-.5-3.55-.63-1,.16-1.13.8-3.51.28.38-.08.74-.14,1.11-.23a4,4,0,0,0-2-.07A2.78,2.78,0,0,1,46,162c.82.29-1,.17.68.62a6.06,6.06,0,0,1-1.79-.33,7.61,7.61,0,0,1-1-.41l-.34-.16-.34-.14-.5-.22c-.37-.06-.12.11-.23.22a4.81,4.81,0,0,0,.5.26l.24.1.16.06a.76.76,0,0,1,.16.06,5.33,5.33,0,0,0,.87.3A5.18,5.18,0,0,1,46,163l1.15-.16c1.36.47,1.46.83.54.83a5.27,5.27,0,0,1,1.06.2c.12.72-1.69-.55-2.3-.15.34.08.69.13,1,.19.36.54-2.52-.14-3.75-.75-1.35-.82-2.68-1.29-2.65-1.64l2,.56c-.91-.6-2.51-.72-3.58-1.25a1.06,1.06,0,0,0-.27-.22s.07.09,0,.12a2.42,2.42,0,0,1-.55-.39,24,24,0,0,1-3.17-1.58l0,.31.19-.07c.83.48,1.91,1.21,1.17,1.07A4.31,4.31,0,0,1,35,158.93a5.47,5.47,0,0,1-.57-.88c.65-.11,1.79,1.11,2.85,1.45-.19-.35-.68-.59-1.32-.95a15.82,15.82,0,0,1-2.3-1.54c1,.09,2.17,1.34,2.8,1.21-1.45-1-2.06-.88-3.51-2.06.31,0,1.82,1,1.88.63a11,11,0,0,1-.91-.75c2.43,1.53-.12-.73,1.83.33-.79-.68-1.44-.44-2.5-1.54.22.4,1,1.4-.29.72-.43-.34-.85-.69-1.25-1.07-.4-.58,1.66.62.92-.16l-1.43-.92c0,.15.56.71,0,.54a2.42,2.42,0,0,0-1.19-.63,6.11,6.11,0,0,1-1.44-.58,5,5,0,0,1-1.37-1.51c-2-1.3-4-3.59-5.75-5,1.2,1,.3-.33-.06-1.19,1.11,1.32,1.49,1,1.62.76-.72-.75-1.47-1-1.26-.52-.93-1.5-1-.77-1.68-2.17-.45-.91.63.15.57-.23-1.06-1.55-.73-.11-1.82-1.85.12.06.24.2.21,0a5.29,5.29,0,0,0-1.66-1.95c-.17-1.28-1.74-2.84-1.15-2.91-1.45-2.26-.08.5-.5.13A12.12,12.12,0,0,1,14,132.93a12.71,12.71,0,0,1,1,1.66l.08-.68a5.53,5.53,0,0,0-1.47-2.3,4.13,4.13,0,0,1-1.31-2.29c.84,1.45.47.39,1.07,1-.31-.41-1.17-2.78-.86-1.26a23.69,23.69,0,0,1-.92-2.73,21.1,21.1,0,0,0-1.46-2.53,16.08,16.08,0,0,1-.51-2.17c-.08-.63-.12-1.16-.15-1.57C8.22,116.72,8,113.41,7.2,109.75l0,.28c-.27-2.91-.38,1.35-.7-1.67.52.35.1-1.84.33-2.84,0-3.68-.56-6.4.08-9.76.09,0,.19.26.15.91.08-.64.16-1.25.23-1.84s.17-1.15.24-1.71c.13-1.12.35-2.2.57-3.33l0,.11c.57-1.78,1-3.48,1.45-5.19.11-.46.2-.76.38-1.53l.27-1.31A22.68,22.68,0,0,1,11,79.19c-.05.31.1.44.08.69.64-1.8,2-4.48,2.24-5.87,1.56-1.7.57-1.42,2.58-3.56.16-.09-.1.29-.19.45l1.22-1.47A18.63,18.63,0,0,1,18.15,68c.47-.62.81-1.18,1.15-1.65L20.25,65a9,9,0,0,1,1.17-1.27c.23-.22.49-.45.78-.7l1-.71c.27.2-.16.57-.63.94s-.92.8-.79,1c.24-.28.46-.54.73-.81a5.36,5.36,0,0,1,1.07-.7c-.34.55,0,.2-.21.63a5.53,5.53,0,0,0,1.32-1.26c.47-.51.86-1,.87-1,0-.13-.28,0-.89.35.51-.8,3.07-1.92,4.67-2.68a10.91,10.91,0,0,1-1.27.43c-.43.12-.73.17-.49-.13a11,11,0,0,0,2.43-1.3A19.34,19.34,0,0,1,32,56.65c1.15-.15.77.09.19.4s-1.33.8-1.06.94,1.34.09.54.56c1.87-.53,3.15-1.19,4.87-1.59l0,.14c2.39-.42,5.06-1,7.13-.59l-1.09-.2c.2,0,.62,0,1.08,0a5.43,5.43,0,0,0,1.3-.06c-.09.2,1.49.59.8.68a3.09,3.09,0,0,1,1.41-.11,13.25,13.25,0,0,1,2,.28c.71.15,1.43.3,2.06.41a5.14,5.14,0,0,0,1.51.18c.58.4,0,.47-.28.54a6.26,6.26,0,0,0-2.84-.83,8.51,8.51,0,0,1,1.52.54c.34.19.49.33.37.37,1.39,0,4.37,1.11,5.16,1.07.77.65,1.54,1.19,1.07,1.34.93.42,1.29.56,1.42.51s0-.3-.15-.52c-.26-.43-.47-.85,1.53.42,1.64,1.42-2-.72.42.94l-.49-.24c.66.93,1,1,1.52,1a3,3,0,0,1,2.05.7c0,.58-1.58-.7-.44.55,1.77,1.28,3,1.31,4.55,3l-.4-.08c1.11.9,2.94,3,3.93,4,0,.12-.15,0-.36-.23,1.58,2.11.91.67,2.05,2.52l.59.31a13.38,13.38,0,0,0-2.89-3.5c1.16.8-1-2-.27-1.79l-.31-.08a36.2,36.2,0,0,0-9.43-9,27.91,27.91,0,0,1-3.59-1.86c-.56-.32-1.15-.61-1.77-.91l-1-.42c-.35-.12-.72-.22-1.11-.32a.79.79,0,0,1-.87,0l-.83-.37c-.37-.13-.87-.27-1.54-.43,1.42.32.3-.38-.58-.71-.55,0-1.22-.06-1.87-.15-.47-.34-3.91-1.36-5.23-.93-1.69-.27.4-.17.78-.27-.68-.33-1.4.16-2-.06,0,0,0-.06.2-.08a39.46,39.46,0,0,0-6.9.37c-.06.31-.71.45-1.48.64a16.3,16.3,0,0,0-2.21.67c.32-.31-1.51.29-2.28.45-.4.3-.79.64-1.18,1-1.17.87-1.91.61-3.47,1.65l.45-.12c-.56.38-1.61,1-2.69,1.58s-2.15,1.21-2.74,1.55a56,56,0,0,0-5.65,6.36c-.83,1-1.5,2.06-2.24,3S10,71.89,9.38,73a39.88,39.88,0,0,0-3.19,6.94l-.61,2-.07.25,0,.13s0,.1,0,0l0-.06,0,.07,0,.12-.09.26c-.11.34-.22.68-.34,1a42.64,42.64,0,0,0-1.17,4.5c0,.87.41-.55.52.16-.19,1.31-.26,1.6-.48,2.77.35-1,.13-.87.26-.71l.19-1.84c0-.08,0,.13.14,0a15.19,15.19,0,0,1,.37-2.11,10.91,10.91,0,0,1-.26,3,2.27,2.27,0,0,1,0-.73C4.3,90,4.49,90.11,4.2,91c-.3,1.14-.1.88-.31,1-.22,1.2-.5,2.39-.65,3.6A15.47,15.47,0,0,1,3,100.28c-.35-.4-.07-2.42-.34-3.35-.14.44-.25.88-.35,1.32l.29.09-.14,1.89-.05-.11a1.26,1.26,0,0,1,.11.94c0,.08-.12.27-.14,0l.19,1.35c-.32-.78-.07,1.19-.44,1a25.62,25.62,0,0,0,.46,4.92c.11.66.21,1.3.28,2A22.63,22.63,0,0,1,3,112.9c.06-.65.74,1.11.93,2.28,0,.68,0,.87-.22.47.16.5.31,1,.5,1.49a10.15,10.15,0,0,0,.39,3c.31,1,.63,2.18,1,3.57l-.19-.09a21.8,21.8,0,0,1,1.49,3.5L6.54,127c.49,1.91,1.1,1.18,1.75,3.22.32-.14-.06-1.44.18-1.76-.15.6.71,2.72.73,2.14,1,1.89.59,1.34.57,1.55l.72,1c.62,1.36-.19.63-.61.21a19.31,19.31,0,0,1,2.08,4l-.43-.5c.3.64.63,1.25,1,1.86a27.31,27.31,0,0,1,2.77,4.22l-1-.78c.47,1.18.47.45.71.69a7.21,7.21,0,0,1,1.68,3C18.86,148.07,20,151.25,22.4,152.77Zm108-91.57a2.26,2.26,0,0,1,.16.26C130,61.05,129.7,60.86,130.38,61.2Zm9.42,14.16c-.9-1.87-.49-1.33-.42-1.52.35,1,.6,1.72.83,2.44a12.87,12.87,0,0,1,.59,2.32,1,1,0,0,1,.17-.5,2.9,2.9,0,0,1,.07,1.71,10.46,10.46,0,0,1-.81-2.85C140,75.83,139.78,74.89,139.8,75.36ZM111.52,52.55l.24,0h0Zm9,3.54a1.58,1.58,0,0,0,.48.51A.93.93,0,0,0,120.52,56.09Zm13.53,13.68a1.45,1.45,0,0,1,.11.22,1,1,0,0,0,.11.2c.08.13.18.27.29.42a8.07,8.07,0,0,1,.68.89,6.93,6.93,0,0,0-.35-.63l-.34-.46ZM90.49,154.61c.48.29,1.51.59.75,0-.47-.11-1-.83-1.48-.87l-.06-.08A5.79,5.79,0,0,0,90.49,154.61Zm-52.57,6.52c.18-.11.67-.12.47-.36l.14.08c-.11-.12-.2-.21-.08-.2A7.41,7.41,0,0,0,37.3,160C36.89,160.49,35.94,160.11,37.92,161.13Z"/><path class="cls-2" d="M57,163l-.53,0Z"/><path class="cls-2" d="M37.39,160.08a4.42,4.42,0,0,0,1,.69A4.19,4.19,0,0,0,37.39,160.08Z"/><path class="cls-2" d="M81.75,58.33l.36-.48-1,.77c-1.06,1.71-.91,1.94-1,2.5a15.55,15.55,0,0,1,1.29-2c.49-.59,1.09-1.19,1.82-2.05Z"/><path class="cls-2" d="M83.89,59a3.45,3.45,0,0,0,.85-.47,1.5,1.5,0,0,1,.07-.32C84.48,58.4,84.2,58.69,83.89,59Z"/><path class="cls-2" d="M103.54,52a12.42,12.42,0,0,0-1.71-.19C101.3,52,103.26,52.22,103.54,52Z"/><path class="cls-2" d="M95.28,49.61l-.91.46a8,8,0,0,0,1.39-.27c.42-.12.75-.22.83-.35C95.43,49.79,96.26,49.36,95.28,49.61Z"/><path class="cls-2" d="M108.13,52.63a1.78,1.78,0,0,1,1.11.13c.39.15.75.29,1,.17a7.57,7.57,0,0,1-1.15-.31C108.61,52.52,108.21,52.46,108.13,52.63Z"/><path class="cls-2" d="M107.49,49c-.55-.4-1.59-.29-2.79-.46C105.72,48.62,107.06,49.22,107.49,49Z"/><path class="cls-2" d="M117.39,54.72c-.19.2-.86-.14-1.61-.55a3.33,3.33,0,0,1,.87.14c-1.36-.43-1.46-.44-2.54-.77.49.29,1.11.62,1.58.91s.74.57.59.68C117.12,55.26,118.23,55.38,117.39,54.72Z"/><path class="cls-2" d="M110.35,49.57a14.83,14.83,0,0,0-2.71-.9c.18.22.53.56,1.91.8l-.55.19C110.22,50.14,108.59,49.14,110.35,49.57Z"/><path class="cls-2" d="M121.56,57.84l-.41-.41c-1.22-.5-2.64-1.39-3.46-1.39C119.09,56.73,120.83,57.6,121.56,57.84Z"/><path class="cls-2" d="M114.84,51.57l.33-.32c-1.28-.57,0,.17-.46.07a3.53,3.53,0,0,0-1.2-.44C115,51.34,113.5,51.21,114.84,51.57Z"/><path class="cls-2" d="M119.2,53l1.66.69-1-1.07C117.88,51.79,119.64,52.79,119.2,53Z"/><path class="cls-2" d="M121,54.27l.13.18c.85.29,1.74.54,2.6.88A16.7,16.7,0,0,0,121,54.27Z"/><path class="cls-2" d="M138.18,79.48c.24.24.08-1.25,0-.59C138,78.66,138.29,80.61,138.18,79.48Z"/><path class="cls-2" d="M139.3,72.49a19.74,19.74,0,0,0,.85,1.94c.38.8.72,1.65,1,2.16C140.68,75.34,139.51,72.2,139.3,72.49Z"/><path class="cls-2" d="M141.3,77c0-.08-.11-.23-.18-.42C141.19,76.78,141.26,76.92,141.3,77Z"/><path class="cls-2" d="M141.9,122.57a1.25,1.25,0,0,0,0,.33C141.88,122.79,141.89,122.69,141.9,122.57Z"/><path class="cls-2" d="M142,121.47a6.09,6.09,0,0,0,.22-2.46c-.1,1.16-.27,2.18-.33,3.56C142,122.06,142.23,121.47,142,121.47Z"/><path class="cls-2" d="M139.35,131.7c.06-.56.31-1.27.1-1.14C139.3,130.84,139.12,132,139.35,131.7Z"/><path class="cls-2" d="M82.7,151c-.54.78-.91,1.44-1.18,1.86-.09.11-.06.08-.07.12l0,0a.34.34,0,0,0,0,.09c0,.05.07.08.16.07l.16-.2.16-.24c.09-.14.15-.26.2-.35a2.12,2.12,0,0,0,.16-.39A3.69,3.69,0,0,1,82.7,151Z"/><polygon class="cls-2" points="80.91 154.14 80.73 154.14 80.19 154.42 80.91 154.14"/><path class="cls-2" d="M76,157.72a1,1,0,0,1,.26-.29C76,157.64,75.75,157.82,76,157.72Z"/><path class="cls-2" d="M76.4,157.32l-.13.11Z"/><path class="cls-2" d="M76.77,157.16l0-.15-.35.31A.58.58,0,0,1,76.77,157.16Z"/><path class="cls-2" d="M74.38,158.58c.41-.06.83-.12,1.23-.22,1-.79-1.3.53-.47-.45C74.9,158.15,74.64,158.36,74.38,158.58Z"/><path class="cls-2" d="M70.62,160.31c-1.11.26-2.57,1.32-3.33,1-1.58.51-1.37.62-1.2.79s.29.35-1.6.77c1.82-.2,2.23-.54,2.58-.85s.65-.58,2.2-.91C67.72,161.26,70.19,160.61,70.62,160.31Z"/><path class="cls-2" d="M71.41,160.87c.11-.27-1.31.18-1.7.48C70.12,161.24,71,161.32,71.41,160.87Z"/><path class="cls-2" d="M64.43,162.08l-1,0-.25.19C63.58,162.21,64,162.14,64.43,162.08Z"/><path class="cls-2" d="M60.58,162.47l1-.37C61.23,162.24,59.74,162.34,60.58,162.47Z"/><path class="cls-2" d="M55.19,162.25c-.92-.12-1.81.47.18.41l-.45,0C55,162.53,54,162.27,55.19,162.25Z"/><path class="cls-2" d="M42.9,160.78l.47.16.22.06.39.13h0l.06,0h.05l.07,0h.11c.06,0,.09,0,.08-.06l-.18-.07-.34-.13-.24-.08-.11,0-.21-.05-.85-.24Z"/><path class="cls-2" d="M42.66,162.33a2.78,2.78,0,0,0,1.14.61c.48.16,1,.29,1.61.53-.66-.24-.92-.39-1.24-.52-.16-.06-.32-.15-.54-.25A7.21,7.21,0,0,0,42.66,162.33Z"/><path class="cls-2" d="M41.22,159.57a6,6,0,0,1,1.54.54A2.49,2.49,0,0,0,41.22,159.57Z"/><path class="cls-2" d="M38.62,158.54c-.44-.41.21-.14-.12-.43a13.55,13.55,0,0,0-1.54-.94,5.61,5.61,0,0,0-1.29-.57c.18.3.34.92-.2.82a9.49,9.49,0,0,0,2.26.81,2.22,2.22,0,0,1,1.37.82l1.78,0C39.51,158.36,39.57,159.08,38.62,158.54Z"/><path class="cls-2" d="M41.82,161.3c-.32-.19-.64-.37-.94-.58.12.29-.65,0-1.21-.18C39.74,161.11,41.22,161.16,41.82,161.3Z"/><path class="cls-2" d="M29.34,152.66c-.59-.48-1.21-.92-1.78-1.43.18.18.34.36.53.53Z"/><path class="cls-2" d="M28.35,151.59l0-.15c-.5-.31-1-.67-1.44-1C27.43,150.82,27.87,151.23,28.35,151.59Z"/><polygon class="cls-2" points="26.74 149.82 26.92 150.03 27.96 150.87 26.74 149.82"/><path class="cls-2" d="M23.6,146.28l.11.46c.4.41,1,1.41,1.16,1.14A4.45,4.45,0,0,1,23.6,146.28Z"/><path class="cls-2" d="M10.24,135.54c.32.33.31,0,.3-.25l-.64-.47A2.48,2.48,0,0,1,10.24,135.54Z"/><path class="cls-2" d="M9.47,132.63c-.39-.48-.75-1-1.1-1.49.76,2,1.22,2.06,2,3.68-.21-.75-.93-1.6-1.25-2.53Z"/><path class="cls-2" d="M2.82,97.42c.26.17.22-.24.35,1.11a19.59,19.59,0,0,1,.05-2.66c0-.44.07-.89.11-1.36s.11-1,.18-1.49c-.21.34-.28-1.27-.32-.45s-.13,1.57-.14,2.36l-.14-.37C2.57,96.2,3.11,95.66,2.82,97.42Z"/><path class="cls-2" d="M67.06,66.25c-.24,0-.11.22,0,.49C68.14,67.55,66.85,66.09,67.06,66.25Z"/><path class="cls-2" d="M24.6,106.76c.34,0,.1-.05,0-.15Z"/><path class="cls-2" d="M24.65,106.61l0-.1A.07.07,0,0,0,24.65,106.61Z"/><path class="cls-2" d="M24.74,105.68c.29.16,0,.46.38.53C25.33,106,25.18,105.66,24.74,105.68Z"/><polygon class="cls-2" points="24.53 106.03 24.75 106.02 24.39 105.89 24.53 106.03"/><polygon class="cls-2" points="24.35 106.19 24.43 106.15 24.17 105.9 24.35 106.19"/><path class="cls-2" d="M24.79,105l.09.19c-.26.24-.41-.07-.59.09,0,.26.63,0,.58.34.27-.07-.08-.52.36-.53C25.33,104.76,25,105.07,24.79,105Z"/><path class="cls-2" d="M21.63,92.37l0,0C21.62,92.35,21.59,92.36,21.63,92.37Z"/><path class="cls-2" d="M21.5,88.78a.33.33,0,0,0,.1-.14.33.33,0,0,0-.12,0Z"/><path class="cls-2" d="M22.44,94.59a1.1,1.1,0,0,0-.11.14C22.39,94.7,22.44,94.66,22.44,94.59Z"/><path class="cls-2" d="M28.54,73.61l.1.08h0l-.09-.1Z"/><path class="cls-2" d="M21.29,84.67a.47.47,0,0,0,0-.17C21.25,84.59,21.26,84.64,21.29,84.67Z"/><path class="cls-2" d="M22.5,95.86V95.8a.43.43,0,0,0,0,.07Z"/><path class="cls-2" d="M20.82,89.92a.24.24,0,0,0,.07-.13A.24.24,0,0,0,20.82,89.92Z"/><path class="cls-2" d="M24.89,101.73c0-.06,0-.1-.05-.14S24.77,101.68,24.89,101.73Z"/><path class="cls-2" d="M24.73,100.52h0Z"/><path class="cls-2" d="M24.7,99.73v0S24.76,99.73,24.7,99.73Z"/><path class="cls-2" d="M24.84,101.59c.16-.12.71-.21.09-.28l-.08,0c.13-.09-.12-.19-.14-.28l-.15.05a.73.73,0,0,1,0,.21C24.4,101.45,24.69,101.49,24.84,101.59Z"/><path class="cls-2" d="M21.74,92.39c-.11,0-.06.09,0,0Z"/><path class="cls-2" d="M22.19,93.48a.36.36,0,0,1,0-.1S22.16,93.44,22.19,93.48Z"/><path class="cls-2" d="M22.11,97.59l0,0C22.07,97.56,22.08,97.58,22.11,97.59Z"/><path class="cls-2" d="M22.21,93.28v.1A.08.08,0,0,0,22.21,93.28Z"/><path class="cls-2" d="M22.4,96.35v0Z"/><path class="cls-2" d="M41.6,69.21c-.08,0-.09-.12-.15-.18-.2.38.29,0,0,.38a.26.26,0,0,0,.18-.09l0-.39C41.48,69.06,41.69,69.07,41.6,69.21Z"/><path class="cls-2" d="M29.73,73.25h-.05c.16.08.19.12.34.08-.16-.24-.58-.33-.71-.66a.13.13,0,0,1-.1.11A1,1,0,0,1,29.73,73.25Z"/><path class="cls-2" d="M29.21,72.79h0l-.09,0-.08,0A.31.31,0,0,0,29.21,72.79Z"/><path class="cls-2" d="M39.35,68.87l-.08,0C39.31,68.9,39.33,68.9,39.35,68.87Z"/><path class="cls-2" d="M26.06,85.64a.63.63,0,0,0,.1.12A.17.17,0,0,0,26.06,85.64Z"/><path class="cls-2" d="M28.45,74.56a.31.31,0,0,0-.1,0,.13.13,0,0,1,0,.06Z"/><path class="cls-2" d="M29.93,67.12c.21.39,0-.07.31,0l0-.27C30.07,66.91,30,67,29.93,67.12Z"/><polygon class="cls-2" points="41.66 69.35 41.67 69.31 41.66 69.32 41.66 69.35"/><path class="cls-2" d="M33.79,64.77l.09,0Z"/><path class="cls-2" d="M28.65,73.28l-.27.39.16-.06C28.4,73.44,28.83,73.48,28.65,73.28Z"/><path class="cls-2" d="M28,68.59l-.23-.14c.05.8-1,.77-.66,1.61-1.14,0,.41.85-.62.85l.12.06c-1.27,1.53-2.67,3.23-2.92,5.08L23.48,76c-1.38,2.62-1.67,5.45-2.27,8.17.13.28.56.19.73.45,0,.09,0,.31-.26.27-.1-.2-.31-.13-.39-.2,0,.31-.34.67-.11,1l.33-.19c.1.12,0,.28,0,.37-.15-.06-.49,0-.55,0,.65.67-.36.41-.13.94.61.17,1.05.84,1.46,1.27l-.19.19c0-.27-.45,0-.39-.38-.21.28,0,.57-.08.83a.4.4,0,0,1,.43.11c-.1.16-.42.15-.46.34l-.18-.21c-.25.11.06.24.08.37-.26,0-.33.3-.61.23.33.28.13.36.33.65.3-.27.34.1.56.08l-.08-.33c-.2.44,0-.15-.48-.15.22-.2.71.34.67,0,.2.44,0,.52.33,1-.07-.27.29.06.43-.07,0,.33-.16.07-.45.16,0,.18-.25.24.08.42-.15.29-.34-.06-.52.08-.31-.12.4-.8-.58-.77,0-.16-.36-.37-.33-.59-.14.18-.48.45-.26.71l.55,0c0,.18.38.24.32.37-.15-.08-.39,0-.35.19.08,0,.06-.1.16-.08,0,.28.41.33.5.65.15-.26.32-.31.57-.55.38.09.05.18.09.33,0,0-.06-.06-.14,0l.18.17c-.18.32-.56-.06-.75.2-.34.19.17.27,0,.41l.1,0a.34.34,0,0,1,0,.08h0c.05.18,0,.37.3.42-.13,0,0,.16.13.22s.45.33,0,.47h0c-.06.22-.21.39-.36.34l-.12.36-.37,0c.1.33.32.29.71.51-.23.23,0,.64.11.78a.14.14,0,0,0,0,.13l.15-.14c0,.25.19.22.19.38,0,0,.06,0,0,.06a.29.29,0,0,1,0,.09s0,0,0-.08l-.13,0c-.39.22.24.3.11.52a.13.13,0,0,1,0-.07c-.1.12-.63.31-.3.35,0,0,0,.07.11.11l-.05.09a.19.19,0,0,1,.05-.09c.11,0,.24.1.16.11l-.05.31c-.06.06,0,.13.05.19l-.15.06c0,.11-.06.12-.11.11-.52.42.32.58-.13,1,.27.06.38-.12.51-.14a2,2,0,0,1,.55.39c-.35.21-.63.81-1.15.75,0,.35.31-.13.5,0l0,0a.8.8,0,0,1,.42-.31.27.27,0,0,1,.31.35l-.41,0c.17.31.76.2,1.18.36-.14.26-.51.15-.86.23l.12.26-.3,0c.1.17.38.18.28.43-.29-.15-.24.38-.64.18-.09.14.49.12.1.23.33.06.15-.13.24-.21.45-.1.25.27.38.42-.23,0-.29-.08-.43.12.18,0,.33.13.13.25.29,0,.08.21.07.32a.47.47,0,0,1,.51-.27.33.33,0,0,1,.19.36l.12-.16c.46.14-.28.34-.11.57-.19-.08-.2-.15-.43-.21a4.37,4.37,0,0,1,.56.46l-.41.26c.22,0,0,.24.3.21-.16.28-.38-.17-.6-.17-.16.35.53.2.11.57l-.29-.07c0,.11.18.3,0,.33.1,0,.05-.06.05-.12.6,0,.47.43,1.08.31l0-.15c.14.2.59.3.4.5s-.43,0-.6-.09c0,.22.69.08.67.33.08-.14.3-.15.47-.09,0-.15.1-.46-.15-.37l-.06.06a.67.67,0,0,1-.31-.09c0-.2.26-.13.37-.19.06-.33-.61.06-.63-.24l.12-.05c-.18-.13-.23-.35-.61-.34.38-.18-.2-.32,0-.49.87-.13,0,.51.5.63.16-.18.43,0,.63.07l-.43-.44c.11-.06.53-.25.2-.3v0c-.13-.18-.48-.09-.38-.27s.22,0,.28,0c.06-.16-.21-.1-.3-.2s.36,0,.45-.1c-.36-.14,0-.3,0-.45-.49.12-.74-.55-1.14-.16l-.38-.35c.25-.14.72.19,1.13,0v.3c.61-.11-.46-.58.21-.85,0-.16-.07-.11.21-.44l-.55.1a.83.83,0,0,1,.51-.26.46.46,0,0,1,0-.26.31.31,0,0,1,.2.09c.29-.14.17-.16,0-.19s-.14-.15-.14-.25L25,100a.32.32,0,0,0-.22-.12.14.14,0,0,0-.06-.11,1.36,1.36,0,0,0-.54.27c.18-.38,0-.65.49-1,.16,0,.36.12.38.08s-.22-.31-.46-.28a.41.41,0,0,1,0-.08c.14,0,.28-.09.3-.16a.15.15,0,0,0,.11-.11c-.44,0-.24-.33-.44-.39a.31.31,0,0,0,0,.25c-.3-.11-.64-.2-.41-.31.3.21.44-.28.59.07.54-.28-.41-.11-.23-.38l.21-.18c.32,0,.18.26.29.22l0-.12c.24.11.11.55.49.8l.14-.55c-.43-.66,0-1.52-.73-2.07v0l-.21,0,.08,0-.25-.11c.3-.14.35-.39.58-.6a.52.52,0,0,1-.43.15c-.32,0-.46,0-.35-.23.23,0,.23.11.41,0-.11.07-.28,0-.3-.08.14-.11.17-.29.4-.29.06.05,0,.09-.05.12s.21-.2.39-.06L25,94.47c.19-.12.3.07.42,0-.15-.32-.68-.48-.83-.78h.48c.15-.22-.55-.49-.59-.75.15,0,.09.14.16.22A5.48,5.48,0,0,1,25.42,91l-.52-.22.36-.18c.38-.75.09-1.36,0-2.11,0-.23.38-.1.54-.2.11-.48-.46-.67-.53-1.16.16.09.59.25.63,0-.14-.06-.37-.11-.27-.23l.15.09c.25-.09,0-.23.17-.46a1.7,1.7,0,0,0-.77-1.33c.1-.37.54.13.67.07-.23.24.06.2.23.28-.12-.16-.19-.34.19-.36a.52.52,0,0,0-.18-.52c.11.12-.1.17-.26,0,.15-.14.09-.56.55-.46a11.09,11.09,0,0,1,.24-1.44c.12-.48.26-1,.37-1.45-.2-.22-.12.1-.26,0-.25-.32.2-.15,0-.4l.23.14c.11-.26-.25-.68-.4-1,.27.12.3-.16.4.12,0-.15,1.28.07,1-.11L26.8,80c-.12,0,0-.21-.07-.21.26,0,.57-.11.59-.18.3.05.18.23.14.33.48.17.42-.26.82,0,0-.26-.26,0-.4-.24.05-.06.11-.11.17-.17l-.21.1c-.1-.21-.44-.39-.09-.52l-.39-.39c.39.11.13-.14.26-.23l.22.16c0-.16.13-.2.3-.24.3.21-.13.11.17.26l.17-.12c-.22-.08-.34-.25-.52-.18-.33-.3-.65-.53-.44-.91.44,0,.24.32.63.39.32-.34-.73-.88-.58-1.11s-.06-.37.06-.7c.19.21.35-.09.61,0l.19.23c0-.12.11-.16.27,0-.33-.14-.11-.53-.15-.81l-.29-.11c0-.21-.06-.53.09-.66.07-.3-.2-.37-.37-.74a1.81,1.81,0,0,1,.84.42c-.17,0-.16.14-.31.2,0,.45.5,1,.21,1.24.59.47,0-.25.33-.28,0,0,.05,0,.05.06l0,0a.67.67,0,0,0,.36.59c0-.21-.59-.47-.19-.55-.1-.27.48-.13.58-.2-.17-.24-.68-.54-.42-.75l.28.33c.19-.29-.43-.46-.24-.73-.11.08-.29-.31-.42-.13a.38.38,0,0,1,.16-.54c0-.07-.11-.08-.22-.17-.35,0,.06.43-.37.36l.3.36a.59.59,0,0,1-.64-.29c0,.06,0,.13-.08.13-.59-.32.33-.08-.12-.44l0,.15c-.41-.17-.16-.49,0-.63s.44-.18.71,0l0,.31c.28,0,.07-.37.17-.5l.11,0-.08,0a.21.21,0,0,1,.16,0c.09-.1.06-.38.21-.43l-.23-.15.11.11a.29.29,0,0,1-.44-.07c0-.36.49-.08.73,0,.3.31-.17.22-.14.42.4.19.21-.2.6-.26.31.37-.2.26.11.57.2-.13,0-.38.2-.51.16.16,0,.36.27.52l.19,0c-.18.31.5.31.43.6.23,0-.2-.38.14-.34-.18-.09-.57-.2-.6-.46l.24-.06c.22.08.25.46.48.49v-.25c-.11-.09-.23-.06-.34-.23.2,0-.28-.49-.34-.74a.23.23,0,0,1,.32-.06c-.12-.51.16-.78.1-1.25.06.34.34.34.57.42-.12.19.19.5.4.7.05-.12-.2-.5-.35-.57.28,0-.1-.32.24-.23s.25.36.39.45c.17-.13-.31-.44-.06-.53a.21.21,0,0,0,.09.13c.15,0,.13-.26,0-.45.47.36.28-.29.6.17.16-.31-.22-.21-.29-.41s.28-.26.39-.24c-.06.06,0,.23-.14.21l.28.27c.46,0-.31-.89.21-.8-.06.27.11.28.17.55,0-.11.31-.16,0-.32a.84.84,0,0,1,.38,0,1.52,1.52,0,0,0,0-.62c.19-.07.45.11.61.23.27-.41.78-.18,1.1-.57h0c.35,0-.32-.44,0-.54.11.47.31.24.49.45.46.08.65-.53,1.11-.3,0,.1,0,.22-.06.25.32.1.53-.07.81-.06v.06c.47.36.8-.16,1.28-.27a1.63,1.63,0,0,0-.07.3.51.51,0,0,0,.77-.23c.25.47.19-.14.51.32,0,.09,0,.08-.06.09.16.18.28.15.45.23.42-.25.61-.84,1-.6-.08.64-.31.12-.4.63.11-.1.21-.22.31-.06a2.57,2.57,0,0,0-.14.38c.06.17.5-.58.49-.52,0-.12,0-.2-.08-.2.18-.37.46.07.72,0a.35.35,0,0,1-.13-.49c.28.21.52-.37.82-.57.22.35-.35.48-.4.93,0,.17,0,.54-.12.69.22.15.49-.2.74-.22l0,.13c.32,0,.82-.39,1-.06l-.1-.18c.08-.06.23,0,.4-.19-.08.2.06.44-.08.58.37-.61.85-.14,1.24-.67a1.1,1.1,0,0,1-.22.56c-.18-.14-.2-.29-.4-.08a.28.28,0,0,1,.15.4c.31-.33.76-.32,1-.68a.84.84,0,0,1-.06.7c.59,0,.16-1.1.74-.86.13.42-.44.32-.12.57l-.09,0c-.1.94.44-.52.73-.35-.16.47-.35.23-.29.65.31,0,.74-.6.94-.33l-.13.17c.19.05.48.3.67.35,0,.09-.05.07-.1.07.23.32.25-.16.35.27l.19-.18c0-.21-.2-.55-.49-.38.29-.17,0-.68.28-1l-.11.13a2.92,2.92,0,0,0-1.17-1.73c-.57.31-.57-.45-1.1-.29-.27.52-.12.08-.51.05.21,0,.18-.4.09-.52a.71.71,0,0,1-.33.16c0-.21-.32-.8-.61-.48-.17-.25.11-.16.19-.26,0-.31-.25.17-.26,0a.19.19,0,0,1,.05-.08c-.35-.08-.51-.29-.86-.47-.17.53-.41.12-.63.27.1-.16-.15-.25-.23-.38l-.3.37c-.27.31-.21-.31-.5-.18l0,.12c-.22.12-.63-.31-.78-.63a2.64,2.64,0,0,1-2.3-.08,8.51,8.51,0,0,0-1.11-.4,3,3,0,0,0-1.33,0c-.11.18.12.28,0,.54a1.53,1.53,0,0,1-.4.09c.17.12.12,0,.12.1l.25-.18s0,.06,0,.14.17-.18.29-.16c-.15.16-.15.58-.39.44,0-.06,0-.08.09-.12-.19,0-.17.17-.32.09s-.12,0-.17-.12L36.69,65c-.17.54-.58.13-.69.11,0-.38.33-.19.39-.57l-.25-.23,0,.29-.3,0V64.5c0,.12,0,.24-.11.15s-.07-.11,0-.13a1.66,1.66,0,0,0-.16.21c0-.33-.2,0-.27-.39-.72,0-.69.72-1.43.45.15.12,0,.61-.16.62a.21.21,0,0,1-.18-.25l-.15.26c-.5-.38-.64.06-1.12.1l-.06-.15c-.06.25-.14.47-.38.54l-.12-.29c-.38,0,.13.69-.26.69.19.28.45.33.65.59-.25-.26-.57-.12-.37,0-.2.28-.2.11-.26,0a2.74,2.74,0,0,0,0,.28c-.18.12-.31-.32-.35-.54,0,.43-.29.36-.52.46V67l-.3.14a.58.58,0,0,1-.52.59l-.14-.46c-.3-.06,0,.18,0,.27-.08.37-.32.19-.61.11C29,68.33,27.75,67.8,28,68.59ZM22.32,97.48l.06,0C22.47,97.52,22.54,97.57,22.32,97.48Zm.05-2.3c.18.28,0,.19-.15.22.11-.28,0-.43.11-.67a1.09,1.09,0,0,1-.28.06c0-.09.12-.19.34-.23C22.84,94.68,22.11,95.31,22.37,95.18Zm2.47,5-.1,0h0Zm-.5-1.3a.28.28,0,0,0,.18-.11C24.41,98.78,24.31,98.81,24.34,98.85Zm.43-2.67c.18-.06.12-.2.07-.3A.8.8,0,0,0,24.77,96.18Zm1.59-16.35c.05.1.18.29.35.2-.13-.11.17-.14-.05-.27h0A1,1,0,0,0,26.36,79.83Zm1.94-7.71c.14.12.27.29.41.34h0c.07,0,.12,0,.14.08s.15-.06.13-.13C28.47,72,28.48,71.87,28.3,72.12Z"/><path class="cls-2" d="M29.08,75.58a.25.25,0,0,0,0-.07A.64.64,0,0,0,29.08,75.58Z"/><path class="cls-2" d="M28.94,72.42s-.12,0-.23,0A.25.25,0,0,0,28.94,72.42Z"/><path class="cls-2" d="M23.3,104.71l-.07-.07-.15.18a1,1,0,0,0,.8.24c-.31-.2-.2-.36-.32-.65Z"/><path class="cls-2" d="M25.26,104.31c.08,0,.27-.12.28-.17h-.18Z"/><path class="cls-2" d="M25.78,101.18l-.13.25C25.81,101.5,26.07,101.19,25.78,101.18Z"/><path class="cls-2" d="M22.76,102.6l.21.11c.15-.14.11-.29-.11-.3C23,102.56,22.74,102.47,22.76,102.6Z"/><path class="cls-2" d="M25.76,100.52c-.36,0,.14-.25-.2-.28C25.66,100.3,25.4,100.54,25.76,100.52Z"/><path class="cls-2" d="M22.37,101c-.33.12,0,.22-.08.39C22.28,101.25,22.62,101,22.37,101Z"/><path class="cls-2" d="M24.63,99.3c.26,0,.25.09.2.22-.09,0-.21,0-.25-.1a1.79,1.79,0,0,1,.31.34c.16-.17.26-.41.59-.41A1,1,0,0,0,24.63,99.3Z"/><path class="cls-2" d="M22.3,100.62c-.09.14-.32.25-.29.4.18,0,.44-.12.38-.3l.3,0C22.89,100.57,22.3,100.86,22.3,100.62Z"/><path class="cls-2" d="M25.28,98.54l-.13.09c.25.16.15.4.53.47A.83.83,0,0,0,25.28,98.54Z"/><path class="cls-2" d="M22.79,99.93h-.42c0,.19.14,0,.25,0-.06,0-.09.14,0,.17C22.53,99.93,23,100.1,22.79,99.93Z"/><path class="cls-2" d="M22.29,99.35l-.2-.23-.44.22C21.83,99.61,21.91,99.34,22.29,99.35Z"/><path class="cls-2" d="M22.55,99l.08,0L22,98.69A1.77,1.77,0,0,0,22.55,99Z"/><path class="cls-2" d="M25.1,94.67c-.18,0-.4.17-.2.08S25.28,94.52,25.1,94.67Z"/><path class="cls-2" d="M21.76,95.57c.13-.1-.14-.44-.26-.58C21.59,95.16,21.51,95.6,21.76,95.57Z"/><path class="cls-2" d="M21.45,94.93l.05.06S21.47,94.94,21.45,94.93Z"/><path class="cls-2" d="M20.73,88.61a.08.08,0,0,0-.05,0Z"/><path class="cls-2" d="M20.82,88.77c-.06.09,0,.3.22.35a1.61,1.61,0,0,0-.31-.51C20.75,88.68,20.6,88.75,20.82,88.77Z"/><path class="cls-2" d="M21.05,87.32c.11.09,0,.18.21.17S21.18,87.28,21.05,87.32Z"/><path class="cls-2" d="M28.05,79.26c.13-.09.09-.18-.17-.23C27.83,79.16,28,79.14,28.05,79.26Z"/><polygon class="cls-2" points="27.88 78.86 28.01 78.89 28.22 78.88 27.88 78.86"/><path class="cls-2" d="M28.52,78.19a.26.26,0,0,1,.09.09C28.59,78.22,28.57,78.17,28.52,78.19Z"/><path class="cls-2" d="M28.62,78.31s0,0,0,0Z"/><path class="cls-2" d="M28.52,78.33l.13.06s0,0,0-.08S28.59,78.35,28.52,78.33Z"/><path class="cls-2" d="M28.66,78h-.43c.12.22.26-.1.59.21Z"/><path class="cls-2" d="M28.78,77.43c.17-.09-.31-.54.15-.43-.05-.5-.76-.23-.72-.77-.41.34.73.6.33.88C28.88,77,28.7,77.32,28.78,77.43Z"/><path class="cls-2" d="M28,77.19c.2.11.3-.06.18-.18C28.15,77.05,27.81,77,28,77.19Z"/><polygon class="cls-2" points="28.91 76.57 29.14 76.53 29.02 76.44 28.91 76.57"/><path class="cls-2" d="M29.23,76.17l.18.23C29.34,76.32,29.44,76.16,29.23,76.17Z"/><path class="cls-2" d="M29.84,75.72c.13-.06-.37-.46-.37-.17l.05,0C29.6,75.57,29.86,75.56,29.84,75.72Z"/><path class="cls-2" d="M29.79,73.85a.16.16,0,0,0,.08.25v-.26Z"/><path class="cls-2" d="M28.48,73c-.36-.14-.09.22-.29.29C28.36,73.21,28.39,73.25,28.48,73Z"/><path class="cls-2" d="M30.39,74c.09.14-.05.15-.1.18C30.49,74.23,30.53,74.08,30.39,74Z"/><path class="cls-2" d="M30.48,73.59c.17,0,.17.14.29.16s.3-.16.18-.36a2.19,2.19,0,0,1-.66-.46c0,.29.47.81-.05.59l.43.55C30.87,74,30.37,73.68,30.48,73.59Z"/><path class="cls-2" d="M29.13,73.29h.27c-.2-.1-.17-.21-.18-.31C28.79,72.74,29.15,73.21,29.13,73.29Z"/><polygon class="cls-2" points="31.09 72.33 31.19 72.05 31.11 72.1 31.09 72.33"/><polygon class="cls-2" points="31.33 72.3 31.44 72.39 31.39 72.06 31.33 72.3"/><polygon class="cls-2" points="31.64 72.2 31.6 72.21 31.59 72.41 31.64 72.2"/><path class="cls-2" d="M32.1,71.86l-.18-.11c0,.08-.28,0-.07.2C31.83,71.84,32,71.77,32.1,71.86Z"/><path class="cls-2" d="M30.44,66.4a.46.46,0,0,0,.23.31l-.11-.36S30.51,66.45,30.44,66.4Z"/><path class="cls-2" d="M31.14,66.6l0-.48c-.32.12-.18.41-.37.63.17,0,.14-.31.33-.29Z"/><path class="cls-2" d="M36.37,64.76c0,.26.08.21-.08.41.24-.21.48-.19.78-.29-.08-.15.11-.47,0-.38l-.32.22,0-.19C36.48,64.39,36.66,64.85,36.37,64.76Z"/><path class="cls-2" d="M48.48,69.48a.68.68,0,0,0-.11.34C48.59,69.77,48.44,69.49,48.48,69.48Z"/><path class="cls-3" d="M75.05,39.65C64.21,16.48,40.09,12.25,15.88.51,11.83,32.06,53.65,45.27,75.05,39.65Z"/><path class="cls-2" d="M74.48,72.45c.34,0,.09-.06,0-.17Z"/><path class="cls-2" d="M74.51,72.28l0-.11C74.49,72.21,74.49,72.25,74.51,72.28Z"/><path class="cls-2" d="M74.52,71.27c.31.17,0,.51.43.55C75.14,71.55,75,71.24,74.52,71.27Z"/><polygon class="cls-2" points="74.34 71.66 74.56 71.64 74.19 71.51 74.34 71.66"/><polygon class="cls-2" points="74.18 71.84 74.25 71.79 73.97 71.53 74.18 71.84"/><path class="cls-2" d="M74.55,70.5l.09.21c-.26.26-.41-.07-.59.1,0,.28.62,0,.59.35.26-.07-.09-.55.35-.57C75.08,70.28,74.73,70.62,74.55,70.5Z"/><path class="cls-2" d="M72.66,56.47l0,0S72.62,56.46,72.66,56.47Z"/><path class="cls-2" d="M73.11,52.58a.55.55,0,0,0,.13-.14.4.4,0,0,0-.13,0Z"/><path class="cls-2" d="M73.11,59a.79.79,0,0,0-.13.14A.19.19,0,0,0,73.11,59Z"/><path class="cls-2" d="M81.73,36.34l.11.07h0l-.09-.09Z"/><path class="cls-2" d="M73.55,48.15a.41.41,0,0,0,0-.19C73.52,48.06,73.52,48.11,73.55,48.15Z"/><path class="cls-2" d="M73,60.39v-.06a.18.18,0,0,0,0,.07h0Z"/><path class="cls-2" d="M72.26,53.71c0-.05.08-.09.08-.13A.35.35,0,0,0,72.26,53.71Z"/><path class="cls-2" d="M74.71,67c0-.06,0-.11,0-.16S74.59,67,74.71,67Z"/><path class="cls-2" d="M74.64,65.72h0C74.7,65.72,74.69,65.72,74.64,65.72Z"/><path class="cls-2" d="M74.68,64.88h0S74.74,64.88,74.68,64.88Z"/><path class="cls-2" d="M74.67,66.88c.17-.11.72-.16.1-.28l-.08,0c.14-.09-.11-.21-.12-.31l-.15,0s0,.12-.06.22S74.53,66.77,74.67,66.88Z"/><path class="cls-2" d="M72.76,56.51c-.11,0-.07.09,0,0Z"/><path class="cls-2" d="M73,57.76l0-.11S73,57.72,73,57.76Z"/><path class="cls-2" d="M72.36,62.24l0,0C72.33,62.21,72.33,62.22,72.36,62.24Z"/><path class="cls-2" d="M73.08,57.54a.43.43,0,0,1,0,.11A.08.08,0,0,0,73.08,57.54Z"/><path class="cls-2" d="M72.8,60.91a0,0,0,0,0,0,0Z"/><path class="cls-2" d="M93.23,22.91c0,.1-.17,0-.26,0,.17.41.26-.25.34.18a.33.33,0,0,0,.06-.22L93,22.73C93,22.94,93.18,22.74,93.23,22.91Z"/><path class="cls-2" d="M82.93,35.72l-.05,0c.17,0,.2.1.35,0-.18-.23-.62-.24-.79-.56,0,.05,0,.1-.09.13A.92.92,0,0,1,82.93,35.72Z"/><path class="cls-2" d="M82.35,35.32h0l-.1,0a.11.11,0,0,1-.07.06A.3.3,0,0,0,82.35,35.32Z"/><path class="cls-2" d="M91.23,24.86l-.09.05C91.22,24.92,91.24,24.9,91.23,24.86Z"/><path class="cls-2" d="M78.15,49.75a.64.64,0,0,0,.08.14A.17.17,0,0,0,78.15,49.75Z"/><path class="cls-2" d="M81.67,37.4a.22.22,0,0,0-.09.07.15.15,0,0,0,0,.07Z"/><path class="cls-2" d="M81.78,29.43c.33.29,0-.07.3-.07L82,29.11C81.83,29.19,81.82,29.33,81.78,29.43Z"/><path class="cls-2" d="M93.39,22.92l0,0h0Z"/><path class="cls-2" d="M84,25.78l.09,0A.16.16,0,0,0,84,25.78Z"/><path class="cls-2" d="M81.82,36l-.26.46.17-.09C81.57,36.18,82,36.15,81.82,36Z"/><path class="cls-2" d="M80.38,31.33l-.26-.08c.24.75-.77.92-.28,1.68-1.14.16.52.76-.49.93l.13,0c-1,1.7-2.38,3.45-2.69,5.35l-.17-.07c-1.46,2.67-2.08,5.59-3.06,8.41.08.32.52.27.65.56,0,.09-.09.32-.31.26-.06-.23-.29-.17-.35-.26-.08.32-.44.68-.25,1l.35-.16c.09.14,0,.29-.08.39-.14-.08-.49,0-.53-.12.54.8-.43.4-.29,1,.57.25.91,1,1.25,1.55l-.21.18c.07-.29-.45-.1-.33-.46-.25.27-.06.61-.22.88.16,0,.36,0,.4.17-.12.16-.44.11-.51.3L73,52.67c-.26.08,0,.27,0,.4-.26,0-.37.29-.65.17.29.35.08.41.24.75.33-.25.32.15.54.16l0-.37c-.28.46,0-.17-.46-.22.25-.19.65.47.67.07.12.5-.09.56.17,1.1,0-.3.27.11.44,0-.06.36-.17.05-.48.11,0,.2-.29.22,0,.46-.18.3-.32-.11-.52,0-.29-.18.54-.81-.44-.92,0-.17-.3-.45-.23-.68-.17.18-.54.42-.38.73l.54.12c0,.2.33.31.26.44-.15-.1-.4,0-.39.16.09,0,.08-.1.18-.06,0,.3.35.41.39.78.19-.27.36-.3.64-.52.37.14,0,.2,0,.37,0,0-.05-.07-.13,0l.15.2c-.23.33-.54-.14-.78.12s.13.31-.08.44l.1,0a.15.15,0,0,1,0,.08h0c0,.2,0,.4.23.5-.13,0,0,.17.09.25s.4.43-.08.52v0c-.09.23-.26.4-.41.32l-.17.37-.37-.09c0,.37.28.36.63.65-.26.23-.13.69,0,.87a.2.2,0,0,0,0,.14l.16-.13c0,.28.16.26.14.44,0,0,.06,0,0,.06l0,.1s0-.05,0-.09l-.13,0c-.42.18.19.36,0,.58a.24.24,0,0,1,0-.09c-.11.12-.66.26-.34.35,0,0,0,.08.1.13l-.07.09.07-.09c.1.07.23.14.15.14l-.1.33c0,.06,0,.15,0,.23l-.16,0c0,.13-.08.12-.12.11-.57.39.22.68-.26,1.12.26.1.38-.09.52-.09s.37.35.5.49c-.36.18-.71.81-1.22.69-.06.39.32-.11.49.09l0,0a.76.76,0,0,1,.45-.29.29.29,0,0,1,.27.41l-.4-.08c.13.36.74.29,1.13.51-.15.27-.52.11-.87.17l.1.29h-.3c.08.19.36.24.24.5-.28-.19-.28.4-.66.14-.1.15.48.18.08.27.32.09.16-.14.26-.22.46-.06.22.32.35.49-.24,0-.28-.11-.43.11.18,0,.33.16.11.29.3,0,.07.23.06.35a.45.45,0,0,1,.52-.26.36.36,0,0,1,.16.41l.14-.16c.44.17-.31.35-.15.62-.19-.11-.19-.18-.42-.27a4.72,4.72,0,0,1,.54.55l-.41.26c.22,0,0,.27.3.24-.17.31-.38-.2-.6-.21-.16.39.52.25.1.65l-.29-.09c0,.12.18.34,0,.37.1,0,0-.07,0-.14.59,0,.47.49,1.08.37l0-.16c.16.22.6.33.41.54s-.43,0-.6-.1c0,.24.7.09.68.36.08-.15.3-.16.47-.1,0-.16.08-.49-.16-.4l-.06.07a.56.56,0,0,1-.31-.1c0-.21.26-.13.37-.19,0-.36-.62,0-.64-.28l.12,0c-.18-.14-.22-.38-.6-.39.38-.18-.2-.36,0-.54.88-.1,0,.57.49.71.17-.19.43,0,.64.1l-.43-.5c.11,0,.53-.24.21-.31l0,0c-.12-.2-.47-.12-.37-.31a.64.64,0,0,1,.28,0c.07-.17-.21-.12-.3-.23.07-.18.37.06.46-.09-.35-.17.06-.31,0-.48-.49.1-.71-.65-1.13-.26L73,66.8c.26-.13.71.27,1.13.14v.32c.62-.07-.45-.67.25-.9,0-.17-.06-.13.25-.46l-.56.06a.86.86,0,0,1,.53-.24.53.53,0,0,1,0-.28c.09,0,.16.06.19.12.31-.13.19-.16,0-.21s-.12-.17-.12-.28l.21.1a.33.33,0,0,0-.21-.15.17.17,0,0,0,0-.13,1.37,1.37,0,0,0-.56.24c.21-.39.12-.7.58-1,.16,0,.36.17.38.13s-.19-.36-.43-.35a.44.44,0,0,1,0-.1c.14,0,.29-.06.32-.14a.14.14,0,0,0,.11-.1c-.43-.07-.2-.39-.4-.47a.48.48,0,0,0,0,.27c-.29-.16-.62-.3-.38-.39.26.27.48-.24.57.15.58-.24-.39-.17-.17-.44l.24-.17c.31,0,.13.31.26.27l0-.12c.22.14,0,.6.38.91.07-.19.13-.38.21-.57-.32-.76.17-1.63-.44-2.33v0a.59.59,0,0,0-.2,0l.08,0-.23-.15c.32-.11.4-.37.67-.56a.63.63,0,0,1-.46.1c-.31-.07-.44-.1-.3-.3.22,0,.2.15.4,0A.2.2,0,0,1,75,59.6c.16-.1.22-.29.44-.27.06.07,0,.1-.06.13s.23-.19.39,0l0-.22c.21-.1.28.12.41.09-.1-.37-.59-.62-.7-1,.12,0,.62.11.48.09.18-.22-.47-.61-.47-.9.14.06.06.16.12.26a6.53,6.53,0,0,1,1.09-2.23l-.47-.31.39-.14c.5-.77.29-1.48.34-2.3,0-.26.39-.07.56-.15.19-.52-.37-.8-.34-1.34.14.11.54.34.62.13-.13-.08-.36-.17-.23-.28l.14.11c.26-.07.08-.25.24-.48a1.88,1.88,0,0,0-.57-1.55c.18-.4.53.2.66.15-.27.23,0,.22.19.34-.1-.2-.13-.41.25-.38a.6.6,0,0,0-.09-.59c.09.14-.13.18-.26,0,.17-.14.17-.62.61-.46a29.81,29.81,0,0,1,1-3.17c-.16-.26-.14.11-.26,0-.2-.36.22-.15.07-.44l.2.17c.15-.29-.17-.78-.29-1.16.26.15.32-.16.39.14,0-.16,1.28.12,1.08-.08l-1.19-.27c-.11-.05,0-.22-.05-.23.28,0,.6-.1.63-.19.3.07.15.26.1.38.47.2.46-.28.83.06,0-.29-.26-.06-.37-.28l.19-.18-.23.11c-.07-.24-.4-.45,0-.6l-.36-.44c.38.12.14-.16.28-.26l.2.18c.06-.18.15-.22.33-.28.29.23-.14.13.15.3l.19-.15c-.21-.09-.33-.28-.51-.19-.32-.34-.6-.57-.38-1,.45-.05.23.35.62.41.35-.39-.69-1-.53-1.21s0-.41.08-.78c.2.22.38-.13.64-.09l.18.25c0-.14.12-.2.28-.09-.34-.13-.1-.59-.14-.9l-.3-.09c0-.23-.06-.57.11-.74,0-.34-.23-.39-.42-.76a1.54,1.54,0,0,1,.88.34c-.18,0-.17.18-.31.27.06.49.51,1,.21,1.36.6.47,0-.28.35-.36,0,0,0,0,0,.06l0,0a.72.72,0,0,0,.36.63c0-.25-.6-.47-.19-.61-.09-.3.51-.22.62-.32-.19-.25-.73-.51-.46-.8l.3.33c.2-.37-.46-.44-.26-.78-.11.1-.31-.3-.44-.07a.45.45,0,0,1,.15-.62c0-.08-.12-.08-.24-.15-.36.08.09.46-.37.45l.33.34a.54.54,0,0,1-.68-.21c0,.07,0,.14-.07.15-.62-.26.33-.13-.15-.45l0,.16c-.43-.13-.18-.5-.06-.67.28-.11.44-.26.73-.13v.33c.29,0,0-.42.13-.57h.11a.16.16,0,0,1-.09,0,.23.23,0,0,1,.16,0c.09-.13,0-.42.18-.5l-.26-.12.13.09a.28.28,0,0,1-.46,0c0-.38.49-.18.75-.13.35.26-.16.27-.1.48.42.11.19-.26.6-.42.35.33-.19.33.16.59.2-.19-.06-.41.18-.6.17.14.06.38.32.5l.2-.1c-.18.4.55.21.49.56.25-.05-.23-.37.14-.43-.21,0-.63-.06-.68-.34l.23-.15c.25,0,.32.46.57.41l0-.3c-.13-.06-.25,0-.38-.14.2-.06-.36-.47-.46-.73.08-.12.16-.2.32-.17-.2-.51,0-.9-.13-1.38.13.34.42.23.67.22-.08.26.3.48.56.6,0-.16-.31-.47-.47-.48.28-.13-.18-.3.19-.35.21,0,.34.28.51.32.16-.23-.42-.34-.18-.55,0,0,0,.08.13.1s.07-.35-.1-.5c.58.15.2-.45.66-.13.08-.42-.29-.11-.42-.28s.21-.42.34-.45c0,.09,0,.25-.09.28l.38.13c.49-.26-.58-.72,0-1,0,.32.21.23.37.47,0-.11.25-.37-.12-.33a1.09,1.09,0,0,1,.37-.27,1.33,1.33,0,0,0-.2-.64,1,1,0,0,1,.72-.19c.06-.59.73-.72.8-1.35l0,0c.32-.31-.53-.15-.25-.5.35.33.42,0,.71,0,.52-.29.28-1,.84-1.18.07.07.15.17.1.25a3.31,3.31,0,0,0,.7-.76l0,0c.65-.18.58-.88.88-1.38,0,.08.14.2.17.27a.69.69,0,0,0,.43-.88c.57.06,0-.26.66-.28.08,0,0,.08,0,.11.25,0,.32-.19.51-.31.11-.54-.25-1.05.27-1.33.48.43-.12.36.24.73,0-.16,0-.32.18-.33.11.25.1.13.22.34.2,0-.15-.81-.11-.77s-.16-.11-.22,0c-.2-.37.36-.41.45-.7a.34.34,0,0,1-.5-.14c.36-.15,0-.68,0-1.05.45,0,.19.57.55.85.15.08.5.26.52.48.28-.13.17-.56.3-.82l.08.1c.22-.3.17-1,.57-1h-.22c0-.09.17-.19.08-.45.13.17.44.16.47.35-.31-.62.39-.86.13-1.48.19.07.3.33.37.47-.22.11-.37.06-.29.35a.28.28,0,0,1,.44,0c-.12-.45.16-.86,0-1.26.25.08.42.09.6.41.35-.54-.9-.69-.34-1.11.46.09,0,.56.45.4l0,.09c.79.54-.2-.66.11-.85.32.38,0,.44.4.58.19-.29-.1-1,.26-1l.08.2c.15-.14.55-.28.7-.43.06.08,0,.08,0,.13.42-.06,0-.31.44-.19l0-.25c-.22-.06-.61-.09-.63.25,0-.35-.6-.35-.75-.75l.06.16a3.22,3.22,0,0,0-2.22.22c0,.67-.73.3-.9.86.3.5,0,.15-.24.5.12-.2-.25-.36-.41-.33a.61.61,0,0,1-.05.37c-.18-.1-.88-.12-.77.3-.32,0-.08-.17-.12-.3-.27-.16,0,.31-.2.21a.22.22,0,0,1,0-.09,6,6,0,0,1-.89.53c.36.44-.15.43-.14.7-.08-.17-.31,0-.46,0l.13.45c.1.4-.39,0-.45.35l.12,0c0,.27-.62.4-1,.33a2.64,2.64,0,0,1-1.5,1.83A4.14,4.14,0,0,0,86.67,23c0,.21.28.11.41.34a1,1,0,0,1-.22.36c.22,0,0-.12.16,0l0-.31s0,.05.11.08,0-.26.1-.34c0,.23.3.53,0,.61,0-.05,0-.09,0-.16-.15.13,0,.26-.18.31s-.05.12-.21,0l-.51.28c.23.53-.34.5-.43.55-.27-.27.12-.36-.09-.69h-.34l.23.19-.23.18,0-.05c.07.1.15.2,0,.19s-.12,0-.12-.08l0,.27c-.18-.28-.18.08-.45-.15-.54.43-.12.95-.84,1.14.19,0,.36.48.21.59a.22.22,0,0,1-.29-.12l0,.29c-.63-.07-.49.37-.89.62L83.06,27a.61.61,0,0,1-.08.63l-.24-.21c-.35.13.44.55.09.71.29.18.55.11.83.25-.33-.12-.55.14-.3.21,0,.34-.13.18-.21.16l.07.27c-.13.17-.41-.18-.53-.35.2.37-.14.42-.32.59l-.08-.16-.21.24a.58.58,0,0,1-.26.72l-.29-.39c-.3,0,.08.16.12.24,0,.37-.25.27-.55.27C81.27,30.84,80,30.65,80.38,31.33Zm-7.8,30.81.07,0C72.72,62.21,72.79,62.27,72.58,62.14Zm.37-2.5c.14.32-.06.2-.18.21.15-.28,0-.47.21-.71a1.68,1.68,0,0,1-.29,0c0-.11.15-.2.37-.2C73.48,59.15,72.68,59.74,73,59.64Zm1.83,5.69-.1,0h0Zm-.36-1.45a.34.34,0,0,0,.19-.09C74.49,63.81,74.39,63.83,74.42,63.88Zm.75-2.83c.2,0,.16-.2.13-.32A.77.77,0,0,0,75.17,61.05Zm4.08-17.71c0,.11.16.33.33.23-.12-.12.19-.15,0-.3h0A1.11,1.11,0,0,0,79.25,43.34Zm2.11-8.55c.16.1.31.25.45.27l0,0a.26.26,0,0,1,.15.05c.07-.05.14-.09.11-.16C81.52,34.67,81.5,34.49,81.36,34.79Z"/><path class="cls-2" d="M82.32,38.46s0-.05,0-.08A.19.19,0,0,0,82.32,38.46Z"/><path class="cls-2" d="M82,35s-.13,0-.23.08A.23.23,0,0,0,82,35Z"/><path class="cls-2" d="M73.05,70.23,73,70.15l-.15.2c.24.27.5.24.81.27-.32-.22-.2-.4-.33-.72Z"/><path class="cls-2" d="M75,69.81a1.14,1.14,0,0,0,.28-.17l-.19,0Z"/><path class="cls-2" d="M75.63,66.52l-.14.26C75.65,66.86,75.92,66.55,75.63,66.52Z"/><path class="cls-2" d="M72.53,67.85l.21.13c.15-.14.13-.32-.1-.33C72.77,67.82,72.53,67.7,72.53,67.85Z"/><path class="cls-2" d="M75.67,65.82c-.36-.08.16-.26-.18-.31C75.59,65.57,75.31,65.81,75.67,65.82Z"/><path class="cls-2" d="M72.25,66c-.34.09,0,.24-.12.42C72.13,66.31,72.49,66.09,72.25,66Z"/><path class="cls-2" d="M74.67,64.4c.25,0,.23.13.16.25-.07,0-.19-.07-.23-.13a2.55,2.55,0,0,1,.27.4c.18-.16.31-.41.63-.38C75.26,64.42,74.91,64.25,74.67,64.4Z"/><path class="cls-2" d="M72.21,65.61c-.1.15-.34.24-.32.42.18,0,.44-.1.4-.3l.3.07C72.81,65.61,72.19,65.88,72.21,65.61Z"/><path class="cls-2" d="M75.39,63.65l-.14.08c.23.21.1.45.48.57A.93.93,0,0,0,75.39,63.65Z"/><path class="cls-2" d="M72.76,64.89l-.41,0c-.06.21.14,0,.24.06-.06.06-.1.15,0,.19C72.51,64.87,72.91,65.09,72.76,64.89Z"/><path class="cls-2" d="M72.33,64.2l-.17-.27-.47.19C71.84,64.44,72,64.14,72.33,64.2Z"/><path class="cls-2" d="M72.62,63.88l.08,0-.6-.43A1.88,1.88,0,0,0,72.62,63.88Z"/><path class="cls-2" d="M75.73,59.46c-.18-.06-.43.13-.22.06S75.93,59.32,75.73,59.46Z"/><path class="cls-2" d="M72.29,60c.14-.1-.07-.5-.17-.68C72.18,59.51,72,60,72.29,60Z"/><path class="cls-2" d="M72.08,59.23l0,.07A.16.16,0,0,0,72.08,59.23Z"/><path class="cls-2" d="M72.38,52.28s0,0,0-.06Z"/><path class="cls-2" d="M72.45,52.47c-.09.09,0,.33.15.41a2.12,2.12,0,0,0-.22-.6C72.38,52.36,72.23,52.43,72.45,52.47Z"/><path class="cls-2" d="M72.9,51c.1.1,0,.2.19.21S73,50.92,72.9,51Z"/><path class="cls-2" d="M81,42.73c.14-.1.1-.2-.16-.26C80.82,42.62,81,42.59,81,42.73Z"/><polygon class="cls-2" points="80.89 42.27 81.02 42.3 81.24 42.29 80.89 42.27"/><path class="cls-2" d="M81.61,41.51a.22.22,0,0,1,.09.1C81.68,41.54,81.67,41.48,81.61,41.51Z"/><path class="cls-2" d="M81.7,41.64v0Z"/><path class="cls-2" d="M81.6,41.66l.12.07a.24.24,0,0,1,0-.09S81.67,41.68,81.6,41.66Z"/><path class="cls-2" d="M81.77,41.26h-.44c.1.26.28-.12.59.22Z"/><path class="cls-2" d="M81.92,40.61c.19-.11-.28-.6.19-.5,0-.57-.77-.21-.7-.82-.44.41.72.63.29,1C82.06,40.16,81.85,40.5,81.92,40.61Z"/><path class="cls-2" d="M81.16,40.38c.21.12.32-.08.2-.21C81.31,40.22,81,40.2,81.16,40.38Z"/><polygon class="cls-2" points="82.12 39.62 82.35 39.55 82.23 39.45 82.12 39.62"/><path class="cls-2" d="M82.45,39.12l.19.25C82.56,39.29,82.68,39.09,82.45,39.12Z"/><path class="cls-2" d="M83.1,38.53c.15-.09-.37-.48-.37-.15l0-.05C82.86,38.39,83.13,38.34,83.1,38.53Z"/><path class="cls-2" d="M83,36.39a.18.18,0,0,0,.09.26v-.29Z"/><path class="cls-2" d="M81.64,35.74c-.39-.09-.09.24-.28.35C81.52,35.94,81.55,36,81.64,35.74Z"/><path class="cls-2" d="M83.66,36.36c.11.14,0,.19-.09.24C83.78,36.67,83.82,36.48,83.66,36.36Z"/><path class="cls-2" d="M83.73,35.92c.18,0,.18.12.31.11s.31-.27.17-.47a1.72,1.72,0,0,1-.73-.33c0,.32.55.79,0,.67l.49.53C84.16,36.26,83.62,36.05,83.73,35.92Z"/><path class="cls-2" d="M82.32,35.89l.28,0c-.21-.07-.19-.2-.22-.31C81.93,35.35,82.34,35.8,82.32,35.89Z"/><polygon class="cls-2" points="84.25 34.31 84.31 33.96 84.24 34.04 84.25 34.31"/><polygon class="cls-2" points="84.49 34.2 84.62 34.26 84.52 33.9 84.49 34.2"/><polygon class="cls-2" points="84.81 33.96 84.77 33.99 84.78 34.22 84.81 33.96"/><path class="cls-2" d="M85.24,33.39l-.21,0c0,.1-.28.13,0,.26C85,33.49,85.07,33.36,85.24,33.39Z"/><path class="cls-2" d="M82,28.62a.56.56,0,0,0,.33.19l-.24-.28S82.06,28.64,82,28.62Z"/><path class="cls-2" d="M82.69,28.55l-.19-.45c-.22.23,0,.44-.07.7.17,0,0-.32.18-.38Z"/><path class="cls-2" d="M86,24.26c.19.18.2.11.21.37a1.77,1.77,0,0,1,.39-.74c-.16-.06-.24-.41-.26-.28l-.1.37-.1-.15C85.85,23.91,86.29,24.14,86,24.26Z"/><path class="cls-2" d="M97.76,16.61a.55.55,0,0,0,.24.26C98.08,16.65,97.74,16.65,97.76,16.61Z"/><path class="cls-2" d="M74.28,42.08c.16-.29-.09,0-.36,0Z"/><path class="cls-2" d="M73.92,42.11l-.26,0A.39.39,0,0,0,73.92,42.11Z"/><path class="cls-2" d="M71.58,42.44c.5-.27,1.18-.16,1.44-.53C72.46,41.87,71.66,42.1,71.58,42.44Z"/><path class="cls-2" d="M72.42,42.48l0-.17c-.14.12-.27.23-.42.34Z"/><path class="cls-2" d="M72.78,42.55l-.08,0c-.23.11-.46.22-.7.31A8,8,0,0,0,72.78,42.55Z"/><path class="cls-2" d="M69.76,42.61l.53-.12c.53.13-.29.35.06.44.68-.11.17-.5,1-.56-.1-.2-1.33.22-1.25-.13C69.4,42.23,70.11,42.44,69.76,42.61Z"/><path class="cls-2" d="M37.14,39l-.06-.06S37.11,39,37.14,39Z"/><path class="cls-2" d="M29,34.62l-.27-.27a.43.43,0,0,0,.07.16Z"/><path class="cls-2" d="M42.7,40.54l.32.19A.6.6,0,0,0,42.7,40.54Z"/><path class="cls-2" d="M21.57,6.62l-.09.07,0,0,.12,0Z"/><path class="cls-2" d="M20.73,28c-.1-.11-.2-.22-.3-.31A1.4,1.4,0,0,0,20.73,28Z"/><path class="cls-2" d="M45.85,41.51l-.13,0,.15.08,0,0Z"/><path class="cls-2" d="M31.28,36.65a2.18,2.18,0,0,0-.26-.21A1.71,1.71,0,0,0,31.28,36.65Z"/><path class="cls-2" d="M61.5,42.58a.67.67,0,0,0-.4,0A.44.44,0,0,0,61.5,42.58Z"/><path class="cls-2" d="M58.32,42.41h0S58.31,42.38,58.32,42.41Z"/><path class="cls-2" d="M56.29,42.16h0S56.3,42.12,56.29,42.16Z"/><path class="cls-2" d="M61.1,42.6c-.26-.15-.31-.55-.67-.12l.06.06c-.2-.12-.51,0-.75,0a.83.83,0,0,0,.08.12,4.2,4.2,0,0,1,.52.08C60.62,42.9,60.82,42.68,61.1,42.6Z"/><path class="cls-2" d="M37.21,38.92c0,.09.21.13,0,0Z"/><path class="cls-2" d="M40,39.71l-.26-.11A.68.68,0,0,0,40,39.71Z"/><path class="cls-2" d="M50.07,43l0,0S50,43,50.07,43Z"/><path class="cls-2" d="M39.46,39.49l.23.11A.49.49,0,0,0,39.46,39.49Z"/><path class="cls-2" d="M47,41.94l0,0Z"/><path class="cls-2" d="M59.19,26.65c-.19-.09-.21-.25-.35-.4-.53,0,.72.53,0,.38a1.35,1.35,0,0,0,.44.21l0-.38C58.91,26.33,59.43,26.68,59.19,26.65Z"/><path class="cls-2" d="M23.74,8.23l-.08-.06c0,.14-.06.16.23.36.35-.07.05-.52.61-.53a.89.89,0,0,1-.35-.16C24.27,8.09,24,8.18,23.74,8.23Z"/><path class="cls-2" d="M24.15,7.84v0a.36.36,0,0,0,0-.09.57.57,0,0,1-.18-.12A.56.56,0,0,0,24.15,7.84Z"/><path class="cls-2" d="M53.64,22.74l-.18-.15C53.53,22.7,53.58,22.73,53.64,22.74Z"/><path class="cls-2" d="M23.89,26.11a1.57,1.57,0,0,0,.25.14A.53.53,0,0,0,23.89,26.11Z"/><path class="cls-2" d="M19.27,6a.8.8,0,0,0-.21-.15l-.15-.06Z"/><path class="cls-2" d="M35.65,9.9c-.29.23.14,0,.39.34l.37,0A3.81,3.81,0,0,0,35.65,9.9Z"/><path class="cls-2" d="M59.34,26.87l0,0h0Z"/><path class="cls-2" d="M44.7,13.74l.13.11A.38.38,0,0,0,44.7,13.74Z"/><path class="cls-2" d="M22.41,6.93,21.26,6.4l.31.22C21.79,6.55,22.17,7,22.41,6.93Z"/><path class="cls-2" d="M30.77,7.67l0-.22c-1.32-.09-2.4-1.2-3.54-1C26.08,5.18,26,6.6,25,5.48v.11L21.89,4.1l-1.57-.77-.77-.39-1-.5c-1-.48-2-1-3-1.42L14.11.35,13.38,0c-.08-.07-.06.05-.07.11v.2l0,.4c-.07,1.07-.15,2.13-.23,3.18l-.09,1.54a6,6,0,0,0,0,.73l0,.58h-.14A27.79,27.79,0,0,0,14.45,17.6a34.33,34.33,0,0,0,5.36,9.49c.54.44.51-.06,1,.28.15.2.53.62.4.74-.38-.32-.32,0-.48-.09a8.47,8.47,0,0,0,1.79,1.88l-.27-.59A3.06,3.06,0,0,1,23,30c-.16,0-.07.44-.26.32,1.47.67.71,1,1.81,1.7.49-.16,2,.54,3,.9l.35.44c-.57-.45-.19.28-.89-.3a13,13,0,0,0,1.74,1.29c-.05-.18.07-.28.33-.16.32.3.22.51.61.82l-.48-.16c.17.33.53.32.81.45,0,.22.59.64.36.76.72.12.84.38,1.54.61-.53-.57.3-.12.31-.3L31.41,36c.95.74-.34-.17-.44.16-.4-.43.94-.07.12-.51a12.11,12.11,0,0,0,2.29,1c-.63-.28.22-.13-.05-.39.76.4.13.2.26.52.41.22.48.47,1,.46.63.45-.21.17.06.47-.36.07-1.73-1.28-1.91-.53a8,8,0,0,1-1.43-.52,3.78,3.78,0,0,0,1.55,1.09l.23-.35c.42.23.64,0,.93.22-.22,0,0,.33.34.49-.07-.11-.21-.17-.14-.21.64.31.87.08,1.65.39a8.69,8.69,0,0,1-1.14-1c.29-.17.43.17.78.31-.07,0-.14,0-.07.08l.43,0c.71.49-.28.33.29.77.34.43.67.17.95.46l0-.1.17.1v0c.44.14.88.36,1.08.21,0,.11.38.13.54.13s.92,0,1.14.48h0c.51.24.88.5.73.57l.83.41-.19.23c.81.22.79,0,1.43-.06a5,5,0,0,0,2,.58,1.17,1.17,0,0,0,.32.09l-.3-.21c.62.21.59,0,1,.15-.08,0-.09-.07.13,0l.23.09s-.12,0-.21-.05l.05.11c.42.43.81.06,1.31.31a1.62,1.62,0,0,1-.2,0c.28.16.62.66.8.45a.41.41,0,0,0,.31,0l.21.09-.21-.09c.16,0,.31-.12.32,0l.76.23a1.08,1.08,0,0,0,.51.09l.11.15c.29,0,.27.12.23.14.91.6,1.58.1,2.58.66.24-.15-.19-.32-.2-.43A5.56,5.56,0,0,1,53.6,43c.43.34,1.87.8,1.58,1.15.89.15-.25-.27.22-.34l.1,0a1.37,1.37,0,0,1-.67-.43c0-.22.74-.15,1-.07l-.21.27c.83,0,.72-.47,1.26-.71.63.19.23.42.34.7h.69l0,.22c.45,0,.57-.22,1.18-.09-.46.18.92.28.27.52.35.1.47-.33.63,0,.26-.23-.3-.15-.47-.23-.12-.36.77-.11,1.18-.18,0,.18-.28.2.2.34a.56.56,0,0,1,.69-.06c0-.22.55,0,.83,0-.31-.05-.75-.23-.54-.42a2.1,2.1,0,0,1,1-.07l-.37-.12c.48-.31.78.26,1.44.14a4.36,4.36,0,0,0-.69.31c.31-.11.89-.28,1.37-.39l.56.32c.06-.16.62,0,.61-.23.69.11-.54.3-.61.45.88.13.68-.41,1.52-.1l-.26.22c.28,0,.83-.15.87-.05,0-.08-.14,0-.32,0,.14-.45,1.25-.39,1.11-.86h-.38c.57-.14.94-.51,1.4-.39s-.2.34-.39.48c.54,0,.38-.56,1-.58-.34,0-.3-.21-.11-.35-.37,0-1.15,0-1,.18l.14,0c0,.13-.21.19-.31.27-.51.05-.25-.19-.36-.27-.85,0,0,.48-.81.52l-.11-.09c-.36.15-.94.2-1,.49-.35-.27-.88.17-1.26,0-.09-.64,1.33,0,1.75-.4-.41-.11.22-.32.37-.48L65.72,43c-.11-.08-.49-.4-.72-.16h.11c-.51.09-.37.35-.81.27-.07-.06.06-.17.1-.21-.41-.06-.34.15-.61.22s.2-.28-.14-.35c-.47.27-.74-.05-1.15-.05.17.38-1.64.46-.76.82l-1,.22c-.29-.2.71-.5.45-.83L62,43c-.11-.47-1.65.26-2.14-.31a2.62,2.62,0,0,1-1.08-.27l.1.42c-.4-.12-.51-.36-.52-.44a2.49,2.49,0,0,1-.68-.07.49.49,0,0,1,.3-.1c-.28-.27-.37-.19-.49-.08a1.4,1.4,0,0,1-.68,0L57,42c-.15,0-.35,0-.37.11h-.31a1.22,1.22,0,0,0,.55.49,8.26,8.26,0,0,1-2.42-.75c0-.11.4-.21.3-.24-.38-.12-.85,0-.84.2h-.23a.47.47,0,0,0-.32-.29.43.43,0,0,0-.23-.12c-.2.3-.93,0-1.12.1a2.58,2.58,0,0,0,.62.14c-.36.16-.7.35-.91.12.63-.08-.57-.46.34-.37-.54-.54-.38.23-1-.05l-.39-.25c.11-.22.71,0,.63-.09L51,41c.33-.11,1.43.23,2.17.1l-1.36-.41c-1.8,0-3.85-.92-5.44-.84h.06a.5.5,0,0,0-.1.14l0-.08-.34.1a12.7,12.7,0,0,0-1.31-.89c.27.25.27.25.25.43s-.22.29-.67,0c0-.17.34-.06,0-.31.16.14,0,.2-.26.15s-.68-.36-.63-.53a.53.53,0,0,1,.3.14c.14,0-.46-.31,0-.32l-.51-.12c-.23-.22.27-.15.19-.27-.84-.18-1.38,0-2.15-.14a1.37,1.37,0,0,0,.17-.32c-.51-.31-1.34-.08-2-.33.13-.06.35.08.56.11A25.08,25.08,0,0,1,35,34.76l-.63.1-.31-.47c-1.63-1.22-3-1.85-4.68-2.88-.49-.33-.12-.43-.27-.69-1-.85-1.55-.66-2.53-1.44.21,0,.65,0,.26-.41a.41.41,0,0,1-.52-.17l.21,0c-.11-.34-.44-.41-.86-.89A9.41,9.41,0,0,0,23,26.15c-.61-.79.39-.19.33-.39.34.63.36.32.56.35-.32-.21-.66-.51-.57-.83a3.09,3.09,0,0,0-.95-.84c.24.14.26.4,0,.29-.2-.37-.89-1.2-.58-1.35a24.81,24.81,0,0,1-3.6-6.73c-.33-.34.05.33-.16.16-.44-.52-.08-.5-.4-.93l.23.14A8.65,8.65,0,0,0,16.76,14c.24.07,0-.63.31-.07-.13-.34.76-1,.51-1.19l-.81.58c-.1,0-.13-.51-.18-.45a2.78,2.78,0,0,0,.21-1c.2-.14.25.4.3.69.39,0,.06-1,.48-.66-.17-.6-.17.12-.38-.22,0-.19,0-.37,0-.55a3.41,3.41,0,0,0-.06.43c-.21-.42-.48-.56-.33-1.19l-.44-.61c.3-.09,0-.47.05-.8l.21.19a1.4,1.4,0,0,1,.12-.88c.26.23-.07.39.19.49L17,8.26c-.17,0-.3-.3-.41.05a3.07,3.07,0,0,1-.4-.65,1.47,1.47,0,0,1-.12-.47,1.51,1.51,0,0,1,0-.32c0-.11,0-.26,0-.32.15-.14.21,0,.28,0s.13.36.27.23,0-.13,0-.19a.17.17,0,0,0,0-.07.27.27,0,0,0-.07-.13l-.24-.28c-.19-.22-.38-.52-.34-.72a1,1,0,0,0,0-.56c0-.1,0-.21-.06-.34a1.68,1.68,0,0,0,0-.2,1,1,0,0,1,.17,0c0,.22.52.48.66.76a.76.76,0,0,0,0,.21c.07,0,.2.12.23.29-.14-.37.34-.12.66-.11a2.09,2.09,0,0,0,0-.25l.25,0,.43.13a4.3,4.3,0,0,1,.81.35c.75.26.67,0,1.33,0a.47.47,0,0,1-.11.71c-.15-.19-.5-.27-.8-.48a14.09,14.09,0,0,1-2.23-.41c-.11.57.09,0,.47.37,0,0-.06,0-.1,0l.1.07c-.07,0-.23-.07-.25-.06a.22.22,0,0,0-.11,0,.36.36,0,0,0-.12.27s.08-.15.14-.23.06-.08.09-.08a1,1,0,0,1,.33.22c.57.1.8.69,1.09.86.42,0,.62-.44,1.41,0l-.49.13c.94.42.63-.22,1.49.17-.29-.17.42-.15-.16-.41a2.86,2.86,0,0,1,1.44.51c.14,0,.06-.09.13-.17-.44-.43-.91-.17-1.21-.64l-.5.14c-.44-.32-.38-.59,0-.58-.14,0-.28-.06-.35-.15.12-.5.5.42.85.1l-.36-.12c0-.36.91.09,1.35.3s.87.61.81.85l-.71-.2c.27.32.9.27,1.28.45a.21.21,0,0,0,.08.11.09.09,0,0,1,0-.07.55.55,0,0,1,.18.19,7.3,7.3,0,0,1,1.19.44l0-.22-.09.1c-.31-.14-.68-.44-.38-.49.76.16.75.6.84.84-.29.23-.69-.29-1.09-.34.09.38.71.33,1.36.84-.43.2-.85-.37-1.14-.14.57.31.82.14,1.41.49-.14.12-.76-.13-.8.08l.36.27c-1-.4,0,.47-.8.23.31.28.62-.05,1.05.37-.08-.2-.39-.63.16-.55l.52.33c.16.25-.73.1-.42.38l.63.14c0-.11-.24-.27,0-.33.29.24.71-.14,1.17-.12.31.14.55.26.62.42.91,0,1.92.47,2.76.5-.58,0-.12.34.12.61-.59-.19-.72.11-.76.32.36.11.72-.11.59-.28.53.37.49,0,.92.37.29.25-.29.23-.22.4.62.27.32-.3,1,0-.06,0-.12,0-.09.09a1,1,0,0,0,.94.13c.23.56,1.13.42.89.77.94.27-.05-.27.19-.33a2.55,2.55,0,0,1,1.24.55c-.23-.08-.47-.06-.66-.21l.08.35c1,.66,1-.32,1.93.37-.61-.09-.27.13-.62.2.19,0,1,.44.58,0a7.41,7.41,0,0,1,.9.53,3,3,0,0,0,1.1.05,3.73,3.73,0,0,1,1.1.87c1.26.33,2.17,1.15,3.5,1.5l-.09,0c.93.48-.26-.54.73-.08-.28.26.49.48.72.81,1.11.75,2.17.79,3.16,1.54,0,.07-.16.11-.37,0,.79.5,1.46.83,2.19,1.24l-.06,0c1,.9,2.28,1.16,3.48,1.85-.12,0-.21.07-.31.07a4.38,4.38,0,0,0,2,1.05c.51.73.53.19,1.19,1.09,0,.09-.11,0-.18,0a8.51,8.51,0,0,0,1.07.92,9.41,9.41,0,0,0,1.32.45,2.54,2.54,0,0,1,1.23.79c-.25.43-.7-.44-1-.15a1.22,1.22,0,0,1,.7.5c-.29,0-.11.06-.34.1.13.28,1.18.34,1.15.38s0-.17-.18-.33c.43,0,1,.84,1.6,1.17-.16-.15-.6-.65-.26-.66.59.66,1.16.46,1.72.78.42.74-.7-.14-.83.23,0,.18.06.61-.27.47a7.81,7.81,0,0,0,1.52,1.12l-.08.06c.64.61,1.68,1,2,1.69L65.92,32c.14.08.4.45.71.51-.14.09.13.64-.12.54.64,0,1.53,1.38,2.2,1.44.06.27-.23.24-.37.25-.33-.46-.37-.68-.72-.78.3.36.42.71.28.72a3.33,3.33,0,0,1,.93.56,1.85,1.85,0,0,0,.77.48c.07.39.18.71-.1.76.94,1.12.27-1.07,1.19.32.2.77-.7-.42-.2.49l-.14-.13c-.16,1,.7.17,1.16.9-.25.29-.56-.35-.46.27.51.6,1.1.66,1.38,1.41l-.19,0c.26.43.65,1.33.91,1.75-.06.06-.08,0-.14-.09.3.88.35.26.47,1l.27.12a2.57,2.57,0,0,0-.67-1.46c.42.33.07-.89.46-.82l-.16,0A8.65,8.65,0,0,0,72.84,38c-.29-.74-.73-1.45-1.09-2.2-.9-.64-.82-1.59-1.72-2.31-.46.13-.2-.11-.88-.79.36.35.3-.16.14-.45a1.69,1.69,0,0,1-.56-.38c0-.24-.51-1.41-1-1.56-.3-.51.2,0,.33.06,0-.34-.44-.25-.47-.49a.12.12,0,0,1,.1,0c-.64-.63-.94-1.09-1.56-1.79-.35.24-.76-.54-1.16-.73.19,0-.26-.49-.42-.71L64,26.61c-.55-.11-.4-.58-1-.89l.06.16a4.75,4.75,0,0,1-1.42-1.67,16,16,0,0,1-2.53-1.49c-.72-.53-1.36-1.09-2-1.6a22.18,22.18,0,0,0-4.7-3.19c-.32,0,.08.29-.21.35a8.79,8.79,0,0,1-.87-.44c.26.28.28.12.18.21l.62.2s-.06,0,0,.1a2.94,2.94,0,0,1,.7.27c-.4-.1-.65.13-1.07-.24.06,0,.13,0,.27.05-.38-.24-.47-.11-.73-.35s-.28-.12-.26-.27c-.34-.25-.69-.51-1-.74a2.08,2.08,0,0,1-1.44-.74c.25-.19.79.3,1.19.19l-.31-.39-.13.19L48.66,16l.06,0a.26.26,0,0,1-.34-.06s0-.12,0-.1l-.47-.1c.34-.09-.34-.24-.16-.46-1.3-.8-1.89-.5-3-1.39.14.2-.56.21-.91,0-.19-.16-.22-.24,0-.27l-.55-.09c-.44-.67-1.15-.69-2-1.21l.09-.09a2.68,2.68,0,0,1-1.28-.32l.19-.18c-.55-.41-.67.26-1.29-.17-.09.23.28.54.25.79-.06-.31-.77-.66-.67-.42-.72-.19-.47-.2-.5-.28l-.46,0c-.47-.21,0-.37.21-.43-.55.07-1-.31-1.44-.56l.25,0L36,10.24a3.22,3.22,0,0,1-1.63-.56l.51-.15c-.33-.33-.25,0-.37,0-.68-.1-.73-.37-1-.68C32.44,8.79,31.81,7.56,30.77,7.67ZM49.86,42.74l-.09-.08C50,42.66,50.14,42.64,49.86,42.74Zm-5.72-1.66c.72.1.46.17.48.28-.64-.31-1-.33-1.6-.63a.45.45,0,0,1,.07.25c-.23-.1-.44-.24-.46-.43C43,40.33,44.38,41.36,44.14,41.08Zm13.25,1.13-.09.06h0ZM53.92,42a.42.42,0,0,0-.21-.18C53.76,42,53.8,42,53.92,42Zm-6.63-1.88c-.12-.18-.48-.23-.74-.28A4.71,4.71,0,0,0,47.29,40.16ZM16.43,13.35c.09.19.3.53.34.17-.15-.14,0-.5-.21-.6,0,0,0,0,0,0A2.41,2.41,0,0,0,16.43,13.35Zm8.09-6.27c-.09.11-.29.19-.24.33l-.05,0c0,.07.06.12,0,.13a1.07,1.07,0,0,0,.42.2C24.89,7.31,25.24,7.38,24.52,7.08Z"/><path class="cls-2" d="M17.49,6l.13,0Z"/><path class="cls-2" d="M24.63,7.69s-.14-.14-.35-.28C24.31,7.48,24.4,7.56,24.63,7.69Z"/><path class="cls-2" d="M68.73,43.81l-.2.06L69,44c.67-.22.68-.42.82-.66a6.73,6.73,0,0,1-1.76.36Z"/><path class="cls-2" d="M68.24,42.35a1,1,0,0,0-.36-.18l-.08.14Z"/><path class="cls-2" d="M60.32,41.82q.32.09.63.15C61.15,41.86,60.43,41.63,60.32,41.82Z"/><path class="cls-2" d="M63.11,44.29l.34-.16c-.31-.1-.72-.1-.79.06C63.07,44.11,62.76,44.28,63.11,44.29Z"/><path class="cls-2" d="M58.63,41.67c-.22.25-.62-.17-.77.06C58,41.68,58.58,41.93,58.63,41.67Z"/><path class="cls-2" d="M58.87,44.26c.19.27.55.07,1,.16C59.49,44.39,59,44.09,58.87,44.26Z"/><path class="cls-2" d="M55.15,42c.06-.19.32-.12.62,0-.11,0-.19.13-.33.13.53-.07.56,0,1-.09-.39-.18-1-.34-.88-.57C55.22,41.59,54.81,41.8,55.15,42Z"/><path class="cls-2" d="M57.86,44.21a3.09,3.09,0,0,0,1,.31c-.07-.14-.19-.34-.68-.35l.2-.21C57.9,43.76,58.49,44.27,57.86,44.21Z"/><path class="cls-2" d="M53.41,41.23l.18.13c.49-.1,1.07.08,1.37-.16A4.8,4.8,0,0,0,53.41,41.23Z"/><path class="cls-2" d="M56.22,43.6l-.1.3c.47.1,0-.11.16-.16a.64.64,0,0,0,.44.06C56.17,43.79,56.71,43.55,56.22,43.6Z"/><path class="cls-2" d="M54.6,43.73l-.63,0,.43.42C55.14,44.17,54.46,44,54.6,43.73Z"/><path class="cls-2" d="M53.88,43.4l-.06-.07-1,.31A4,4,0,0,0,53.88,43.4Z"/><path class="cls-2" d="M43.62,38.74c-.14.1.31.42.14.21C43.89,38.88,43.28,38.49,43.62,38.74Z"/><path class="cls-2" d="M44.93,41.82a4.58,4.58,0,0,0-1.5-.3C43.88,41.6,44.94,42,44.93,41.82Z"/><path class="cls-2" d="M43.27,41.51h.16A.48.48,0,0,0,43.27,41.51Z"/><path class="cls-2" d="M28.39,34.93l-.12,0Z"/><path class="cls-2" d="M28.75,35.1c.2.19.68.42.83.35a9.62,9.62,0,0,0-1.19-.52C28.55,35,28.67,35.24,28.75,35.1Z"/><path class="cls-2" d="M25.76,32.77c.21.06.39.26.42.11S25.71,32.62,25.76,32.77Z"/><path class="cls-2" d="M17.05,10.43c0-.34,0-.52-.22-.41C16.87,10.38,17,10.17,17.05,10.43Z"/><polygon class="cls-2" points="16.75 9.6 16.84 9.55 16.97 9.32 16.75 9.6"/><path class="cls-2" d="M17,7.34a.23.23,0,0,1,.09.13C17,7.34,17,7.24,17,7.34Z"/><path class="cls-2" d="M17.05,7.53v0Z"/><path class="cls-2" d="M17,7.68l.1,0a1.72,1.72,0,0,1,0-.18A.14.14,0,0,1,17,7.68Z"/><path class="cls-2" d="M17,6.66l-.29.43c.15.45.15-.51.47-.07Z"/><path class="cls-2" d="M16.91,6.4c.05,0,0-.1-.09-.21s-.08-.2.09,0a3.28,3.28,0,0,0-.34-.64c-.1-.14-.36-.53-.09-.45-.16-.12-.27-.19-.2,0a4,4,0,0,0,.19.43c.15.28.31.49.2.53C16.89,6.17,16.83,6.32,16.91,6.4Z"/><path class="cls-2" d="M16.33,6.07c.17.12.2,0,.09-.19C16.4,5.9,16.15,5.85,16.33,6.07Z"/><path class="cls-2" d="M16.88,5.94l.15.22L17,6Z"/><path class="cls-2" d="M17.16,6.15a.54.54,0,0,0,0,.22C17.14,6.28,17.21,6.33,17.16,6.15Z"/><path class="cls-2" d="M17.81,6.74c.29.21.78-.09.06-.31l.15.09C18,6.57,18.24,6.89,17.81,6.74Z"/><path class="cls-2" d="M22.39,8c-.22-.11-.51-.17-.5-.06l.64.18Z"/><path class="cls-2" d="M22.76,6.86c-.09-.35-.58-.22-.94-.49A3.89,3.89,0,0,0,22.76,6.86Z"/><path class="cls-2" d="M22.91,8.64c-.21,0-.43-.14-.57-.23C22.34,8.59,22.78,8.74,22.91,8.64Z"/><path class="cls-2" d="M23.92,9c.15.2-.11.14,0,.27a1.7,1.7,0,0,0,1.13.43c-.06-.16-.09-.53.15-.59-.72-.2-1.28.15-1.45-.37L23,8.92C23.51,9.23,23.55,8.78,23.92,9Z"/><path class="cls-2" d="M22.93,7.49l.29.32c0-.19.28-.09.49-.06C23.76,7.37,23.14,7.56,22.93,7.49Z"/><polygon class="cls-2" points="27.77 10.35 28.57 10.59 28.33 10.47 27.77 10.35"/><polygon class="cls-2" points="28.22 10.66 28.2 10.77 28.86 10.83 28.22 10.66"/><polygon class="cls-2" points="28.98 11.11 28.89 11.06 28.4 10.96 28.98 11.11"/><path class="cls-2" d="M30.56,11.84l-.08-.2c-.21,0-.54-.36-.58-.15A1,1,0,0,1,30.56,11.84Z"/><path class="cls-2" d="M37.4,10.41c-.18,0-.13.16-.09.28l.33-.15C37.57,10.52,37.43,10.49,37.4,10.41Z"/><path class="cls-2" d="M38.16,11.2l.69,0c-.64-.33-.82-.15-1.42-.34.21.19.63.12.91.33Z"/><path class="cls-2" d="M49.44,16.61c-.14.14,0,.18-.47.09a9.74,9.74,0,0,1,1.75.77c0-.17.53-.09.26-.18s-.51-.2-.78-.28l.17-.06C49.93,16.56,49.94,17,49.44,16.61Z"/><path class="cls-2" d="M72.12,39.35c-.12,0-.15.1-.18.23C72.25,40,72.06,39.27,72.12,39.35Z"/><path class="cls-2" d="M34.17,20.76c-.2.16,0,.08.06.1Z"/><path class="cls-2" d="M34.23,20.86l0,.07A.05.05,0,0,0,34.23,20.86Z"/><path class="cls-2" d="M34.71,21.4c-.25.07-.25-.26-.51-.08C34.23,21.56,34.48,21.65,34.71,21.4Z"/><polygon class="cls-2" points="34.62 21.11 34.51 21.23 34.78 21.1 34.62 21.11"/><polygon class="cls-2" points="34.63 20.93 34.61 20.99 34.89 20.98 34.63 20.93"/><path class="cls-2" d="M35.09,21.81l-.16,0c0-.27.26-.19.26-.37-.17-.11-.32.34-.49.13-.11.19.33.24.11.48C34.93,22.21,34.93,21.85,35.09,21.81Z"/><path class="cls-2" d="M44.35,25.14v0S44.37,25.12,44.35,25.14Z"/><path class="cls-2" d="M46.83,26.05a.26.26,0,0,0,.07.1.34.34,0,0,0,0-.1Z"/><path class="cls-2" d="M42.59,25a.33.33,0,0,0-.05-.12A.11.11,0,0,0,42.59,25Z"/><path class="cls-2" d="M57.67,32.8a.28.28,0,0,0-.05.08h0l.06-.07Z"/><path class="cls-2" d="M49.73,26.76l.12,0C49.79,26.74,49.76,26.74,49.73,26.76Z"/><path class="cls-2" d="M41.74,24.54l0,0a.09.09,0,0,0,0-.06v0Z"/><path class="cls-2" d="M46.23,25.29l.07.07A.16.16,0,0,0,46.23,25.29Z"/><path class="cls-2" d="M37,23.52c0,.05.07.05.12,0S37.06,23.47,37,23.52Z"/><path class="cls-2" d="M37.81,24h0S37.8,24,37.81,24Z"/><path class="cls-2" d="M38.32,24.34h0S38.3,24.38,38.32,24.34Z"/><path class="cls-2" d="M37.09,23.55c0,.16-.21.52.13.19v-.06c0,.12.17,0,.24,0a.76.76,0,0,0,0-.11.69.69,0,0,1-.11-.12C37.38,23.36,37.21,23.51,37.09,23.55Z"/><path class="cls-2" d="M44.3,25.21c0-.08,0-.06,0,0Z"/><path class="cls-2" d="M43.42,25.16l.07.05S43.46,25.16,43.42,25.16Z"/><path class="cls-2" d="M40.77,23.63v0S40.79,23.62,40.77,23.63Z"/><path class="cls-2" d="M43.55,25.25l-.06,0S43.52,25.26,43.55,25.25Z"/><path class="cls-2" d="M41.46,24.29v0S41.46,24.3,41.46,24.29Z"/><path class="cls-2" d="M68.07,39.79c-.07,0,0-.12-.06-.18-.27.18.21.15-.09.27a.25.25,0,0,0,.17,0l.09-.28C68,39.64,68.19,39.73,68.07,39.79Z"/><path class="cls-2" d="M58.14,33.65v0c0,.13-.07.16,0,.26.16-.15.16-.48.38-.62,0,0-.07,0-.1-.06A.69.69,0,0,1,58.14,33.65Z"/><path class="cls-2" d="M58.4,33.2h0v-.08a.1.1,0,0,1,0,0A.29.29,0,0,0,58.4,33.2Z"/><path class="cls-2" d="M66.47,38.62l0-.06C66.43,38.62,66.45,38.63,66.47,38.62Z"/><path class="cls-2" d="M48.12,30l-.11.05C48.06,30.1,48.09,30.07,48.12,30Z"/><path class="cls-2" d="M56.9,32.82a.18.18,0,0,0,0-.07H56.8Z"/><path class="cls-2" d="M62.53,32.28c-.19.27,0,0,.06.21l.17-.12C62.7,32.29,62.6,32.3,62.53,32.28Z"/><polygon class="cls-2" points="68.08 39.91 68.1 39.89 68.09 39.89 68.08 39.91"/><path class="cls-2" d="M65.22,33.52s0,0,0,.06A.07.07,0,0,0,65.22,33.52Z"/><path class="cls-2" d="M57.93,32.85l-.33-.17.07.12C57.78,32.67,57.81,33,57.93,32.85Z"/><path class="cls-2" d="M61.14,31.43l0-.19c-.52.23-.67-.49-1.18-.07-.14-.82-.52.45-.66-.29l0,.1a12.16,12.16,0,0,0-3.73-1.71l.06-.13c-1.81-1-3.76-1.46-5.56-2.34-.22,0-.23.37-.44.45-.06,0-.21-.09-.15-.24s.15-.21.22-.25c-.21-.07-.4-.37-.67-.25l.07.27c-.11,0-.2-.06-.26-.09s.08-.36.15-.38c-.6.33-.21-.35-.62-.29a2.61,2.61,0,0,1-1.22.76l-.09-.18c.19.09.14-.31.36-.19-.14-.21-.4-.1-.55-.26,0,.13-.09.26-.18.28s0-.33-.12-.41l.19-.08c0-.2-.18,0-.28,0,.06-.19-.12-.31,0-.49-.28.17-.28,0-.54.07.11.28-.16.21-.2.37l.25,0c-.26-.26.11,0,.23-.3.08.2-.43.41-.17.47-.36,0-.36-.14-.77,0,.21,0-.13.18-.07.31-.24-.09,0-.13,0-.35-.13-.05-.09-.24-.31-.07-.15-.19.14-.22.1-.39.16-.17.43.51.69-.18.1,0,.35-.15.49-.07-.09-.15-.17-.45-.4-.37l-.19.37c-.12-.05-.27.19-.34.12.1-.09.08-.28,0-.3s0,.08,0,.14-.34.18-.59.14a2.17,2.17,0,0,1,.21.56c-.17.24-.14,0-.25,0s.05,0,.05-.09l-.17.08c-.16-.23.21-.37.09-.58s-.23,0-.26-.14l0,.08,0-.05v0c-.14,0-.26-.1-.38.08,0-.1-.12,0-.19,0s-.37.19-.32-.17h0c-.12-.11-.19-.26-.11-.35l-.19-.19.15-.24c-.25,0-.3.12-.58.3-.08-.22-.41-.24-.55-.2s0,0-.09,0l0,.14c-.16-.1-.21,0-.32,0s0,.05,0,0a.13.13,0,0,1-.06-.05s0,0,.06,0l0-.09c0-.34-.28,0-.37-.13h.06c0-.11,0-.52-.12-.32,0,0-.05,0-.11,0l0-.06a.15.15,0,0,1,0,.07c-.07.05-.15.12-.13.06l-.18-.15c0-.06-.08-.06-.15-.05l0-.12c-.08,0,0-.08,0-.11-.05-.49-.49,0-.59-.49-.15.14-.08.28-.13.38a1.18,1.18,0,0,1-.47.18c0-.3-.23-.73,0-1-.2-.16-.05.25-.23.3v0a.63.63,0,0,1,0,.39.2.2,0,0,1-.35,0l.2-.24c-.26,0-.45.38-.73.56-.1-.2.13-.38.23-.63l-.21,0,.12-.19c-.14,0-.28.15-.38,0,.22-.12-.12-.32.18-.47,0-.12-.3.24-.18,0-.19.16,0,.14,0,.23-.15.32-.27,0-.42,0,.08-.15.18-.13.12-.31-.1.1-.23.14-.21,0-.12.19-.16,0-.22-.1a.35.35,0,0,1-.08.43.24.24,0,0,1-.3-.07l0,.15c-.3.2-.07-.32-.29-.33a2.52,2.52,0,0,0,.34-.15,2.17,2.17,0,0,1-.54.09l.05-.36c-.11.12-.14-.12-.27.07-.08-.24.28-.13.39-.26-.12-.27-.37.2-.38-.22l.18-.13c0-.06-.25-.05-.2-.14,0,.06,0,.06,0,.08-.29.35-.48,0-.72.45l.07.09c-.19,0-.47.17-.48,0s.24-.22.35-.29c-.11-.11-.39.35-.53.2,0,.12-.07.24-.19.31.08.09.22.29.3.11v-.06a.5.5,0,0,1,.21-.13c.13.09-.06.22-.08.31.16.2.28-.37.46-.23l0,.09c.16,0,.31.05.5-.17-.09.31.28,0,.27.27-.35.56-.3-.27-.61,0,0,.18-.23.22-.36.31h.48c0,.09-.11.43.08.27l0,0c.17,0,.28-.22.34-.07s-.11.12-.14.16.17-.07.27-.08-.2.2-.16.31c.26-.14.16.17.28.22.16-.34.69-.18.64-.59l.38-.06c0,.21-.45.33-.55.64l-.19-.13c-.22.41.58,0,.44.52.09.08.1,0,.18.33l.19-.37a.6.6,0,0,1-.07.42.37.37,0,0,1,.18.11.22.22,0,0,1-.15.08c0,.24,0,.18.12.1s.15,0,.22,0L38,24.4a.19.19,0,0,0,.17-.07l.1,0a1,1,0,0,0,.06-.46c.16.29.4.33.43.75-.06.1-.23.18-.21.21s.3,0,.38-.16a.08.08,0,0,1,.06,0c0,.1-.06.21,0,.25a.11.11,0,0,0,0,.11c.2-.27.33,0,.45-.12a.46.46,0,0,0-.16-.11c.19-.14.39-.32.37-.13-.26.1,0,.4-.28.34,0,.46.23-.21.34,0l0,.21c-.14.2-.25,0-.27.09l.1,0c-.17.11-.42-.16-.74,0l.31.33c.62,0,1.06.63,1.72.38h0l.09-.13V26l.16-.12c0,.25.14.39.2.62a.45.45,0,0,1,0-.34c.13-.21.19-.29.29-.14-.08.15-.16.11-.12.28a.15.15,0,0,1,.15-.17c0,.13.15.22.07.37s-.06,0-.07-.08.07.21-.1.28l.17,0c0,.17-.16.17-.17.27.29,0,.59-.28.85-.28a2.8,2.8,0,0,0-.17.32c.11.18.53-.2.73-.13-.08.08-.13,0-.21,0a5.38,5.38,0,0,1,1.34,1.23l.31-.29,0,.3c.46.48,1,.45,1.58.59.18.05,0,.29,0,.43.35.21.62-.15,1-.08-.09.09-.31.36-.17.44.08-.09.17-.25.23-.14l-.09.09c0,.2.17.08.32.23a1.34,1.34,0,0,0,1.17-.28c.27.15-.19.37-.17.47-.15-.21-.17,0-.27.11.15-.05.31-.06.25.22a.44.44,0,0,0,.44,0c-.11.05-.12-.11,0-.2.08.14.43.17.28.49.73.23,1.48.61,2.23.91.2-.12-.06-.11,0-.2.27-.14.1.18.32.06l-.13.16c.2.11.57-.12.85-.2-.12.19.1.24-.12.29.11,0-.13,1,0,.8l.22-.88c0-.08.17,0,.17,0,0,.2.06.44.12.46,0,.23-.19.12-.28.08-.15.35.2.34-.06.62.21,0,0-.19.21-.28l.13.14-.07-.17c.18,0,.33-.3.43,0l.33-.27c-.1.29.11.11.18.21l-.13.15c.13,0,.16.11.19.25-.17.21-.09-.11-.21.11l.1.14c.07-.16.21-.25.15-.38.25-.24.42-.46.73-.3,0,.33-.25.17-.3.46.29.26.69-.53.88-.42s.29,0,.55,0c-.16.15.09.27.07.46l-.18.15c.1,0,.14.08.07.2.08-.25.42-.09.64-.14l.06-.22c.17,0,.41-.07.53,0s.27-.19.54-.35a1.33,1.33,0,0,1-.22.67c0-.13-.14-.11-.21-.21-.34.07-.74.43-1,.21-.33.47.21,0,.27.25,0,0,0,0,0,0l0,0a.53.53,0,0,0-.45.29c.18,0,.33-.47.44-.16.21-.08.16.37.24.44.18-.15.35-.56.56-.38l-.22.25c.27.12.3-.37.55-.25-.07-.07.21-.25,0-.33a.31.31,0,0,1,.45.08c.06,0,0-.09.1-.19-.07-.26-.33.09-.33-.25l-.24.26a.41.41,0,0,1,.13-.51s-.1,0-.1,0c.17-.48.1.24.32-.14h-.12c.08-.32.35-.16.47-.08s.2.31.12.53H58c0,.22.3,0,.41.07a.11.11,0,0,0,0,.08.14.14,0,0,1,0-.06s0,0,0,.11.3,0,.37.1l.07-.2-.06.1a.2.2,0,0,1,0-.33c.27-.05.15.35.12.54s-.2-.09-.35,0c-.06.32.2.12.33.41-.23.29-.25-.11-.42.17.15.13.29-.08.44.08-.09.14-.27.07-.35.27l.08.15c-.29-.11-.13.42-.38.4.05.18.26-.2.32.07,0-.16,0-.47.21-.53l.12.16c0,.19-.32.28-.27.45l.21,0c0-.1,0-.19.09-.3.05.15.32-.3.5-.39s.15.1.14.22c.36-.18.64,0,1-.21-.23.12-.14.33-.12.51-.18,0-.32.27-.39.46.11,0,.31-.26.31-.38.11.2.21-.16.26.11s-.18.28-.2.4c.18.1.22-.34.38-.18,0,0,0,0-.06.11s.25,0,.35-.12c-.07.44.33.11.13.48.31,0,.06-.23.18-.34s.31.11.34.2-.17.06-.21,0l-.07.29c.23.33.49-.5.69-.13-.23.06-.15.17-.32.32.08,0,.29.14.24-.13a.8.8,0,0,1,.21.25.9.9,0,0,0,.44-.21c.15.11.17.35.19.5.42,0,.57.46,1,.44l0,0c.25.19.06-.4.34-.25-.21.3.05.3.06.52.26.33.71.08.9.47,0,.06-.1.13-.16.1a2.11,2.11,0,0,0,.6.42l0,0c.2.44.67.32,1.07.45-.05,0-.13.13-.18.16a.51.51,0,0,0,.68.18c0,.43.19,0,.26.45,0,.07-.06,0-.08,0,.06.18.17.21.28.32.4,0,.72-.34,1,0-.26.41-.27,0-.49.28.11,0,.22-.08.25.08-.16.12-.08.09-.22.21s.56-.23.53-.2.07-.13,0-.16c.25-.19.34.19.57.2a.23.23,0,0,1,0-.37c.15.22.48-.1.74-.14.07.32-.38.22-.54.52,0,.12-.12.4-.28.45.13.18.42,0,.61.1l-.06.07c.23.13.71,0,.77.25l0-.16c.07,0,.16.09.34,0-.11.12-.06.34-.19.4.4-.33.67.12,1.08-.17,0,.14-.2.26-.29.34-.11-.14-.09-.25-.29-.14a.19.19,0,0,1,0,.31c.32-.16.64,0,.9-.23a.61.61,0,0,1-.21.5c.43.16.37-.76.74-.43,0,.34-.39.11-.22.38h-.07c-.29.66.43-.26.61-.08-.22.3-.31.08-.36.4.23.08.68-.26.77,0l-.13.09c.13.08.29.33.42.4,0,.06,0,0-.09,0,.11.28.22-.06.2.27l.18-.09c0-.16,0-.44-.29-.38.26-.06.16-.49.43-.68l-.11.08a2.43,2.43,0,0,0-.46-1.52c-.48.09-.29-.47-.72-.48-.31.3-.1,0-.38-.08.15,0,.22-.24.18-.35a.39.39,0,0,1-.27,0c0-.15,0-.65-.31-.49,0-.22.12-.09.2-.14.08-.22-.22.05-.17-.1s0,0,.06,0c-.23-.15-.29-.34-.48-.55-.27.33-.31,0-.5,0,.12-.09,0-.22,0-.34l-.3.17c-.27.14-.06-.27-.3-.25v.09c-.19,0-.35-.38-.34-.65-1.52,0-1.4-1.5-2.71-2-.14.07,0,.22-.21.35a.59.59,0,0,1-.27-.11c0,.15.09,0,0,.12h.23s0,0,0,.09.18,0,.24,0c-.15,0-.34.3-.42.11,0,0,.06,0,.11,0-.1-.09-.18,0-.23-.08s-.09,0,0-.15L66.5,35c-.35.23-.38-.19-.42-.26.17-.22.26,0,.48-.14l0-.25-.12.19-.14-.15,0,0c-.06.06-.12.13-.13,0s0-.1,0-.1l-.19.05c.19-.17-.07-.12.07-.35-.34-.33-.68.06-.87-.45,0,.14-.31.32-.39.22a.17.17,0,0,1,.06-.22l-.2,0c0-.46-.29-.31-.49-.57l.06-.1c-.16.07-.31.12-.44,0l.13-.2c-.11-.24-.35.39-.49.15-.11.23,0,.41-.12.64.06-.26-.14-.39-.17-.2-.24,0-.13-.07-.12-.14l-.18.09c-.14-.08.09-.32.21-.43-.25.19-.31,0-.44-.16l.11-.08-.18-.13a.36.36,0,0,1-.51-.12l.25-.25c0-.21-.11.08-.16.11-.25.07-.2-.16-.21-.38C61.52,32,61.6,31.08,61.14,31.43ZM40.76,23.81v.06C40.68,23.88,40.62,23.91,40.76,23.81Zm1.46.91c-.24,0-.11-.1-.08-.19.13.19.28.14.4.32a1.08,1.08,0,0,1,.05-.21c.06.05.09.14,0,.3C42.39,25.21,42.23,24.5,42.22,24.72ZM38,24.24l.06-.06h0Zm1,.29a.2.2,0,0,0,0,.15C39.07,24.6,39.09,24.52,39.05,24.53Zm1.63,1.36c0,.15.09.16.18.17A.74.74,0,0,0,40.68,25.89Zm12,5.26c-.08,0-.24.12-.18.25.09-.09.11.14.22,0h0A1.11,1.11,0,0,0,52.67,31.15Zm6.08,1.28a1.17,1.17,0,0,0-.18.35h0s0,.09,0,.11.07.09.11.07C58.84,32.55,59,32.52,58.75,32.43Z"/><path class="cls-2" d="M56.16,33.35h0Z"/><path class="cls-2" d="M58.64,33s0-.09-.07-.17A.16.16,0,0,0,58.64,33Z"/><path class="cls-2" d="M36,21.12h.08l0-.18c-.24,0-.36.17-.53.32.26-.07.29.08.52.16Z"/><path class="cls-2" d="M35.22,22.42c0,.06-.06.21,0,.24l.1-.09Z"/><path class="cls-2" d="M36.91,24.31l-.11-.2C36.69,24.17,36.77,24.47,36.91,24.31Z"/><path class="cls-2" d="M37.45,21.86l-.17.08c0,.14.12.19.23.07C37.36,22,37.53,21.91,37.45,21.86Z"/><path class="cls-2" d="M37.35,24.61c.19-.2.1.21.27,0C37.54,24.66,37.49,24.39,37.35,24.61Z"/><path class="cls-2" d="M38.57,22.35c.08-.24-.12-.1-.19-.22C38.47,22.18,38.44,22.49,38.57,22.35Z"/><path class="cls-2" d="M38.63,24.51c-.1.16-.16.1-.22,0s.12-.1.17-.1a1.17,1.17,0,0,1-.35,0c0,.18.15.35,0,.55C38.41,24.89,38.64,24.72,38.63,24.51Z"/><path class="cls-2" d="M38.83,22.48c0-.12,0-.3-.11-.35,0,.13-.12.31,0,.36l-.16.16C38.6,22.86,38.69,22.37,38.83,22.48Z"/><path class="cls-2" d="M38.86,25.24v-.12c-.22.09-.33-.09-.55.12A.66.66,0,0,0,38.86,25.24Z"/><path class="cls-2" d="M39,23.09l.18-.26c-.1-.11-.05.1-.13.14s0-.12-.1-.08C39.14,22.93,38.86,23.11,39,23.09Z"/><path class="cls-2" d="M39.6,23l.22,0,0-.37C39.64,22.64,39.77,22.8,39.6,23Z"/><path class="cls-2" d="M39.68,23.33v.06l.46-.27A1.41,1.41,0,0,0,39.68,23.33Z"/><path class="cls-2" d="M41.61,26.7c.09-.1,0-.32,0-.16S41.66,26.88,41.61,26.7Z"/><path class="cls-2" d="M42.19,24.17c0,.12.33.08.47,0C42.51,24.21,42.26,24,42.19,24.17Z"/><path class="cls-2" d="M42.72,24.2h0Z"/><path class="cls-2" d="M47.14,25.55a.06.06,0,0,0,0,0Z"/><path class="cls-2" d="M47,25.58c0-.08-.22-.06-.3.06a1.27,1.27,0,0,0,.43-.09S47.07,25.42,47,25.58Z"/><path class="cls-2" d="M47.94,26.07c-.09.06-.14,0-.17.12S47.94,26.17,47.94,26.07Z"/><path class="cls-2" d="M53.07,32.48c.06.1.14.07.19-.12C53.15,32.32,53.17,32.45,53.07,32.48Z"/><polygon class="cls-2" points="53.4 32.37 53.37 32.47 53.38 32.63 53.4 32.37"/><path class="cls-2" d="M54,32.91a.24.24,0,0,1-.08.06C53.92,33,54,33,54,32.91Z"/><path class="cls-2" d="M53.85,33h0Z"/><path class="cls-2" d="M53.83,32.9l0,.09.07,0S53.82,33,53.83,32.9Z"/><path class="cls-2" d="M54.13,33v-.33c-.19.08.09.2-.16.45Z"/><path class="cls-2" d="M54.6,33.12c.08.14.43-.23.36.13.41,0,.15-.58.59-.54-.3-.32-.45.55-.7.24C54.93,33.21,54.68,33.06,54.6,33.12Z"/><path class="cls-2" d="M54.77,32.55c-.09.15,0,.23.15.14S54.9,32.39,54.77,32.55Z"/><polygon class="cls-2" points="55.32 33.24 55.37 33.41 55.44 33.32 55.32 33.24"/><path class="cls-2" d="M55.68,33.47l-.18.15C55.56,33.56,55.71,33.64,55.68,33.47Z"/><path class="cls-2" d="M56.12,33.93c.07.11.34-.3.1-.28l0,0C56.22,33.75,56.26,33.94,56.12,33.93Z"/><path class="cls-2" d="M57.66,33.77a.12.12,0,0,0-.18.08h.21Z"/><path class="cls-2" d="M58.09,32.7c0-.3-.18-.05-.26-.19C57.94,32.62,57.91,32.65,58.09,32.7Z"/><path class="cls-2" d="M57.7,34.23c-.09.09-.13,0-.17,0C57.49,34.34,57.62,34.36,57.7,34.23Z"/><path class="cls-2" d="M58,34.26c0,.14-.07.15-.06.24s.2.21.34.1a1.24,1.24,0,0,1,.21-.57c-.24,0-.55.46-.48,0l-.36.39C57.79,34.6,57.92,34.19,58,34.26Z"/><path class="cls-2" d="M58,33.21l0,.2c0-.16.13-.15.21-.17C58.37,32.89,58.07,33.22,58,33.21Z"/><polygon class="cls-2" points="59.2 34.53 59.46 34.55 59.39 34.5 59.2 34.53"/><polygon class="cls-2" points="59.3 34.7 59.26 34.8 59.51 34.7 59.3 34.7"/><polygon class="cls-2" points="59.48 34.92 59.46 34.89 59.29 34.92 59.48 34.92"/><path class="cls-2" d="M59.91,35.19l0-.16c-.07,0-.11-.2-.18,0C59.82,35,59.93,35.06,59.91,35.19Z"/><path class="cls-2" d="M63.11,32.33a.42.42,0,0,0-.12.26l.18-.2S63.1,32.39,63.11,32.33Z"/><path class="cls-2" d="M63.2,32.85l.3-.2c-.18-.13-.31.07-.5,0,0,.12.23,0,.28.08Z"/><path class="cls-2" d="M66.43,34.76c-.11.16-.06.16-.24.2.23,0,.35.11.55.19,0-.13.27-.23.18-.23l-.27,0,.09-.09C66.67,34.59,66.54,34.94,66.43,34.76Z"/><path class="cls-2" d="M73.13,42a.47.47,0,0,0-.16.21C73.15,42.2,73.09,42,73.13,42Z"/></g></g></svg>