<svg xmlns="http://www.w3.org/2000/svg" viewBox="0 0 70 70"><defs><style>.cls-1{fill:none;}.cls-2{fill:#fcf5ea;}.cls-3{fill:#030000;}.cls-4{fill:#211815;}.cls-5{fill:#e59635;}</style></defs><g id="圖層_2" data-name="圖層 2"><g id="圖層_1-2" data-name="圖層 1"><path class="cls-1" d="M70,35C69.22,81.67.77,81.66,0,35,.78-11.67,69.23-11.66,70,35Z"/><path class="cls-2" d="M17.82,25a3.16,3.16,0,0,1,1.24-1.15l9.23.1c.39-1.12.77-2.23,1.15-3.35l11.83.17c.32.9.63,1.8.95,2.71l8.45-.16A2.48,2.48,0,0,1,52,24.1a2.74,2.74,0,0,1,.43,2.76l-.1,17.69a1.92,1.92,0,0,1-.73,2.3,1.48,1.48,0,0,1-1,.09L42,47a12.12,12.12,0,0,1-14.52-.15c-4.12,0-7.17-.11-8.42-.11a1.25,1.25,0,0,1-.87-.28c-.57-.54-.26-1.74-.09-2.27l-.63-15.3c0-.59,0-1.18-.05-1.77A3.17,3.17,0,0,1,17.82,25Z"/><path class="cls-3" d="M17.65,41l0,0S17.65,41,17.65,41Z"/><path class="cls-3" d="M21.85,47.29h0Z"/><path class="cls-3" d="M17.5,35.39h0c0-.09,0-.2,0-.4Z"/><path class="cls-3" d="M41.29,48.31l-.11.07Z"/><path class="cls-3" d="M29.36,48.67l.16,0C29.45,48.69,29.39,48.66,29.36,48.67Z"/><path class="cls-3" d="M18,32.41l0,.16S18,32.51,18,32.41Z"/><path class="cls-3" d="M17.57,26.74a0,0,0,0,1,0,0S17.57,26.75,17.57,26.74Z"/><path class="cls-3" d="M17.5,29l0,.16C17.52,29.05,17.52,29,17.5,29Z"/><path class="cls-3" d="M17.54,29.2v-.08S17.53,29.2,17.54,29.2Z"/><path class="cls-3" d="M18.05,24a1.69,1.69,0,0,0-.32.41A3,3,0,0,1,18.05,24Z"/><path class="cls-3" d="M53.07,40v0S53.07,40,53.07,40Z"/><path class="cls-3" d="M18.12,24.39l-.08.09Z"/><path class="cls-3" d="M18.19,35.41c0,.16,0,.5,0,.5A1.39,1.39,0,0,0,18.19,35.41Z"/><path class="cls-3" d="M51.62,36.18v0Z"/><path class="cls-3" d="M18.12,24.39l.11-.09,0,0Z"/><path class="cls-3" d="M49.47,22.65h0Z"/><path class="cls-3" d="M48.47,22.6l.21,0A.84.84,0,0,0,48.47,22.6Z"/><path class="cls-3" d="M17.73,24.4a1.35,1.35,0,0,0-.15.26A1.74,1.74,0,0,1,17.73,24.4Z"/><path class="cls-3" d="M39.67,20.05h0Z"/><path class="cls-3" d="M28.67,48.29l-.08-.06S28.58,48.25,28.67,48.29Z"/><polygon class="cls-3" points="36.04 48.8 36.04 48.8 36.04 48.8 36.04 48.8"/><path class="cls-3" d="M35.66,48.88A1.12,1.12,0,0,0,36,48.8,1.52,1.52,0,0,0,35.66,48.88Z"/><path class="cls-3" d="M36.85,48.71h0Z"/><polygon class="cls-3" points="29.45 47.47 29.45 47.47 29.45 47.47 29.45 47.47"/><path class="cls-3" d="M30.83,48.08l.09.05Z"/><polygon class="cls-3" points="40.35 47.38 40.35 47.38 40.36 47.38 40.35 47.38"/><path class="cls-3" d="M51.46,43.51c0,.19,0,.38,0,.58v.56l.06.23a1.63,1.63,0,0,1,0,.82.72.72,0,0,1-.33.46.7.7,0,0,1-.27,0l-.21,0a.78.78,0,0,0-.26,0h-.14a7.18,7.18,0,0,1-1.26.12l0-.11-.39,0c-.16,0,.3,0,0-.06l-.14.06s-1,0-.36-.09H46.62c-.33,0-.19.09-.57.07-.07,0,.14,0,.11-.06-1.13-.07-1.3.21-2.35.17h.09c-.18,0-.51,0-.52,0s.19-.06.51,0c0,.09-.4.06-.38.12a3.82,3.82,0,0,0-.6,0,5.85,5.85,0,0,0-.62,0,3.84,3.84,0,0,0-.48,0,3.9,3.9,0,0,1-.36.22,2.27,2.27,0,0,1-.54.49c-.26.08,0-.08-.3.07l0,.08c-.26.13-.23.1-.23.07-.27.15-.2.19-.56.33l.17-.14a6,6,0,0,1-.74.34s.15-.09.26-.13c-.23,0-.33.17-.44.21s.3-.09.19,0-.37.23-.53.21l.19-.12a2.11,2.11,0,0,1-.66.27s0,0,0,0a3.71,3.71,0,0,1-1.12.29l.08,0a3.44,3.44,0,0,1-.36.13c.26,0,.19,0,.23.06-.35,0-.51.19-1.07.2,0,0,.13-.07.29-.07a1.43,1.43,0,0,1,.52-.28c-.2.06-.45.1-.4.06l-.06.09-.32,0c0,.06.27.07,0,.13s-.19-.07-.24,0c-.46.07-.18.1-.63.09l.17,0c-.32,0-.79,0-.88-.08a.25.25,0,0,1,.18,0v0c.35-.06-.29,0-.18-.08,0,.06-.42,0-.61,0l0,.07c-.68.12.05-.1-.61-.16-.41,0,.16,0-.1,0s-.37-.12-.78-.18c-.11,0-.33-.14-.33-.21-.25,0-.71-.23-.87-.21.39.18.42.07.88.27l-.15,0a6.58,6.58,0,0,1-1-.3s.06,0,0,0a4.65,4.65,0,0,1-1.07-.36c0-.08.22,0,.41.12-.27-.16-.3-.13-.72-.36,0-.06.29.15.36.12a5.27,5.27,0,0,1-.49-.22h0c-.11.05-.36-.19-.65-.34a5.43,5.43,0,0,0-.69-.38,2.06,2.06,0,0,1-.29-.13c-.11,0-.21-.14-.38-.09s-.22-.05-.14-.07a.57.57,0,0,0,.34,0c-.46,0-.73-.1-.58-.14-.43,0,.16,0-.11.07h-.59c.07,0,.28.06,0,.09s-.39,0-.72,0c0,0-.11-.07.14-.06a1.41,1.41,0,0,0-.51,0c.37.05-.61,0-.34.11l-.37-.05a1.27,1.27,0,0,1,.22,0c-.1-.07-.3,0-.43,0a2.77,2.77,0,0,1-.5,0,1,1,0,0,1-.45,0c-.18,0,0,0-.07.07h-.59s-.08-.15,0-.16c-.23,0-.08.11-.42.1.19-.07-.45-.06-.17-.14a4.29,4.29,0,0,0-1.05-.05c-.19.05.33,0,.31.1-.86,0-.91.17-1.54.13l.17,0a2.71,2.71,0,0,0-.58.07c.14-.1-.57-.14-.85-.28-.06,0,.18.15.1.18a.83.83,0,0,1-.27-.12s0,0,.06,0c-.22-.13-.16-.43-.25-.49a2,2,0,0,1,.08-.33l0,.13c-.05,0,0-.42,0-.5a1.72,1.72,0,0,1,.23-.81c-.07.11-.18.32-.1-.12.12-.05,0-.74.07-.74s0-.39,0-.4l.08,0c-.11,0-.12-.54-.16-.93.15.08,0-.42.1-.6-.1-.07-.07-.69-.15-.76,0-.3.07-.27.1-.35l0-.13c0-.16,0-.72,0-1.05l-.1-.31,0-.12s0-.31-.07-.14v-.17c-.09,0,0-.24-.09-.57,0-.08,0-.06.05,0,0-.17.05-.1.07-.19,0,.12-.19-.6-.21-.14,0,0-.08-.23-.07-.4l.08-.1L18,36.9a3.53,3.53,0,0,1,0-.58c0,.22.18.47.16-.08a3.34,3.34,0,0,0,.1.58c0-.11,0-.17,0,0,0-.44-.06-.15-.09-.57.08,0,.1-.1.11-.48l0,.28a.08.08,0,0,1,0-.05c0,.11,0,.14,0,.16s-.12-.49-.07-.56c-.1.43-.12-.75-.18-.47a.82.82,0,0,1,0-.38c.07.35.08-.27.13-.22,0-.13,0,.28-.08.11a2,2,0,0,1,0-.49v.08l0-.33s-.05.32-.08,0c0-.08,0-.38,0-.37s.12,0,.15.29c0-.21-.05-.9-.11-.62V33c0,.16-.06.61-.09.1h0l-.07-.35,0-.16s0,0,0-.18,0-.16.05-.15c0-.39-.05-.36-.08-.4,0-.22,0-.3.05-.2,0-.3,0-.81,0-1-.05-.39,0,.08-.07-.15a8.64,8.64,0,0,0,0-1.94c-.11.18,0-.17-.13-.29,0,.14.07-.61.12-.05l0-.34c.06-.24.06.56.14.21s-.13-.6-.14-1.12c.1.13-.05-.3.05-.21s0,.17.06.31V27c0-.72-.11-.21-.16-.6s.12-.34.16-.36a2.58,2.58,0,0,0,.1-.4c-.05.27-.19.47-.21.34a4.58,4.58,0,0,0,.28-.77,2.73,2.73,0,0,0-.47,1c0,.09.09.08.05.46,0-.24-.05,0-.06.09s0,.25.08.4-.12-.25-.12.19l.11.07c0,.17-.08-.06-.05.28-.06-.18-.09.06-.12-.41a4,4,0,0,0,.13,1.3s0-.05,0-.09a2.13,2.13,0,0,1,0,.39c0,.29-.05-.23-.08-.15l0,.47h0c0,.12,0,.24,0,.28,0-.14-.08-.19-.11-.28l.09.48c0-.05,0,.41-.09.06l0,.73-.07.06c0,.18,0,.18,0,0,0,.25.18,1.1,0,1,.08.57.07.78.13,1.47-.09-.53-.06.61-.12.05a2.83,2.83,0,0,0,.09.65c0,.25-.1.14-.14-.12l0,.31h0l.06.27c0,.29-.08.06-.07.36l.06.06,0,.2c0-.07.05.1.07.31h0l0,.26c0-.26,0,.23,0,.12a5.91,5.91,0,0,0,0,.63l0-.08c.07.53-.06,0,0,.45l0,0c-.06.62.09,1,.06,1.49,0-.26-.09-.19-.07-.19a13.87,13.87,0,0,0,.13,1.42,1.09,1.09,0,0,0-.11.6c0,.3,0,.35.07.44a5.23,5.23,0,0,1,0,.85c.05.07,0,.26.05.42l0,0,.05,0c-.1.52.1.87,0,1.39l0-.09,0,.22s0,0-.07-.06l0,1,0-.2c0,.2.08.39,0,.52,0-.13,0-.07,0,0s-.09.34-.13.36l0-.23c-.08.3-.07.31,0,.29-.07.41-.17.26-.15.66l0-.27c0-.08.06.12,0,.31,0,0,0,.17,0,0a2.07,2.07,0,0,0,.21,1c.11.2,0,.16,0,.06a1.34,1.34,0,0,0,.48.46,1.08,1.08,0,0,0,.6.17l0,0,.27,0,.32.07-.11,0a5.8,5.8,0,0,1,.59,0l-.1,0a11.09,11.09,0,0,0,1.28,0s-.05,0-.1,0c.53-.06.4.08.94,0,0,0,0,0,0,0l.25,0,0,.06.2-.09.14.07.1,0c.26.12.63,0,1,.13l-.06-.08c.9-.15,2,.11,3.14.06l0,.06.45-.07c.24,0-.15,0-.07.08.24,0,.28,0,.29-.05s.07-.07.17,0,.05.07,0,0-.07,0-.1,0,.35.22.62.38l.68.42s0,0,0,0c.32.16.74.39,1.11.56,0,0-.12,0-.21-.06a1.32,1.32,0,0,0,.43.18h-.16a7.71,7.71,0,0,1,.89.38s0-.07.26,0c.11.14.7.18,1.1.32a1,1,0,0,1-.27,0,1.77,1.77,0,0,0,.59.09l-.06,0c.32.06.66.09,1,.12.14.11.94.08.87.13.35,0-.3-.05.15-.05.12.05.41,0,.39.06H35l-.2.06c.28,0,.47-.08.49-.13.25,0,.61,0,.73,0l-.09,0a6.53,6.53,0,0,0,1.75-.2s0,0,0,0l.44-.11-.1.07.7-.26v0a11.17,11.17,0,0,0,1.75-.7l-.08,0c.6-.34.61-.26,1-.54l0,0,.39-.23-.07.08a2.33,2.33,0,0,1,.5-.31c.19-.11.12,0,.12-.07a.15.15,0,0,1,.1-.11c.47,0,.12,0,.41.06a7,7,0,0,1,.85,0v0l.65,0-.09,0c.49-.07.61.08,1-.06.21,0,.6,0,.58.07l1.68-.1c.1.1.13,0,.5.05l0-.06c.42,0,.88,0,1.35,0l.71,0h.61v.06l.24,0a2.12,2.12,0,0,0,1.2-.2,2.25,2.25,0,0,0,.91-.9,3.06,3.06,0,0,0,.28-2,1,1,0,0,0-.07-.19l0,0a.57.57,0,0,0,0-.12,5.9,5.9,0,0,1,0-.6v0c0-.73,0-1.5,0-2.3,0,.05,0,0,.06.06a2.29,2.29,0,0,1,0-.64l0,.2a1.56,1.56,0,0,1,0-.67L53,40.06s0-.06,0-.06l0-.07.07-.19A4.29,4.29,0,0,0,53,39s.05-.37.06-.11l0-1.31,0,.21s-.08-.37-.06-.58c0,.27.08,0,.12-.09s-.05.16-.08.06a4.7,4.7,0,0,1,0-.81l0,.13c0-.3.08-.44.08-.74s0-.47-.1-.41c0-.39.07-.15.08-.28a2.27,2.27,0,0,1,0-.8c-.13-.21.06-1-.06-1.12l.07-.32s-.1-.08-.11-.34.09-.18.12-.25L53,32.1c.13-1.4.06-3.26.16-4.8V27c0-.08,0,0,0-.07a4,4,0,0,0,.13-.69,3.93,3.93,0,0,0-.15-1.52l0,.1a3.24,3.24,0,0,0-.41-1,3.93,3.93,0,0,1,.31.7,5.79,5.79,0,0,0-.31-.54,3,3,0,0,0-1.42-1.26,3.08,3.08,0,0,0-.54-.18,1.5,1.5,0,0,0-.35,0h-.2c-.28,0-.55,0-.82,0-.7.14-.47-.11-1.14,0l.13,0c-.72.06-1.11.09-1.83.18.08-.13-.47,0-.4-.06l-.06.05c-.16,0-.54,0-.49-.07l-.31.07,0-.05a7.57,7.57,0,0,1-1.55,0l-.74.05h-.21s0,0,0,0h-.06c-.21-.62-.45-1.3-.65-1.9a6.44,6.44,0,0,1-.31-.76H41L40.55,20a4.82,4.82,0,0,1-.92.05.05.05,0,0,1,0,0,5.23,5.23,0,0,0-.89,0c-.34,0-.67,0-.57-.11,0,.11-.71,0-.71,0l-8.67-.19-1.15,3.36H25.22l-2.84,0-2.4.08a9.78,9.78,0,0,0-1.14.1,2.81,2.81,0,0,0-.49.34,2.12,2.12,0,0,0-.3.3c-.1.14-.36.51-.2.42-.21.27-.36.36-.35.44.28-.36,0,.19.33-.14,0,.08-.1.16-.14.24s.17-.34.19-.24l0-.12a.91.91,0,0,1,.34-.27,1.15,1.15,0,0,1,.64-.62l-.14.09c.43-.25.28-.08.38-.09a.16.16,0,0,0-.1,0,1.58,1.58,0,0,1,.38,0c-.3-.11-.68.25-.47.12.48-.16-.14,0,.23-.11s.18,0,.17.07h.38c0,.05-.25,0-.1.05l.49-.05c.09.12.52,0,.74.06-.34,0,0,0,0,.08h.85c.08,0-.22,0-.09,0a1.19,1.19,0,0,0,.35,0c.07,0,.63,0,.61.08.57.05.24-.1.78,0,.07,0-.43,0-.19.06h.56a.54.54,0,0,1-.32.06c1.51.07,2.32.32,3.7.28.2.05-.14,0-.28.07a4.89,4.89,0,0,1,.86,0l1.1.09.2-.51c.07-.17.13-.35.2-.54l0,0a12.24,12.24,0,0,0,.52-1.26l.33-.92.67,0-.16,0c.19,0,.49,0,.71-.06,0,0-.16.1.22.08-.08,0-.24,0-.19-.05,1.15.13,3.58.14,5.48.22l2.29,0,1.16,0h.64v0l0,.15.24.68.65,1.86h.7c-.73,0-.35-.11.15-.09s.51.06.71.06a4.47,4.47,0,0,0,.52,0,5.77,5.77,0,0,1,1.1,0c1.46-.08,2.77.05,4.13-.12l0,.06a2.53,2.53,0,0,0,.47,0v0c.25,0,.53,0,.78,0h.32l.06,0,0-.05c.21.07.09.07.3.13l0,0a1,1,0,0,1,.25.08c-.07,0,.42.38.43.58a1.71,1.71,0,0,1,.23,1.21,1.84,1.84,0,0,0-.14.38,1.51,1.51,0,0,0-.09.61c0,.13,0,.26,0,.38,0,.89,0,2.18,0,3.32l.07,0v.29s0,0,0,0c-.07.23,0,.69,0,.93.07-.15,0-.21,0-.38s.1,0,.06.32h0l0,.22c-.05,0-.08.23-.13.26,0,1,.09,1.64.06,2.66-.06-.11,0,.72-.09.52,0,.61.09-.1.16.18s0,.35,0,.38-.06.13-.07,0v.4s0,0,0-.09c0,.82-.08,1.46,0,2.2,0,.06,0-.29.05-.24.07.75-.07.66,0,1.36l0-.14a2,2,0,0,1,0,.69c-.06.06-.05-.32-.07-.49,0,.25,0,.89.06.7a2.69,2.69,0,0,1,0,.58s0-.29.07-.11c0,.41,0,1.05-.05,1.56,0,0,0,0,0,0C51.58,43,51.45,43,51.46,43.51Z"/><path class="cls-3" d="M29.28,47.37l.17.1s0,0,.11,0Z"/><path class="cls-3" d="M38.25,48.32l.06,0Z"/><path class="cls-3" d="M40.28,47.37c-.14.08,0,0,.07,0S40.34,47.35,40.28,47.37Z"/><path class="cls-3" d="M23.82,46.42s.06,0,.05,0S23.82,46.41,23.82,46.42Z"/><path class="cls-3" d="M18.26,37.09v.06S18.26,37.12,18.26,37.09Z"/><path class="cls-3" d="M18.2,37.93s0,.09,0,.17A.72.72,0,0,0,18.2,37.93Z"/><path class="cls-3" d="M27.64,46.46l.2.12A.58.58,0,0,0,27.64,46.46Z"/><polygon class="cls-3" points="18.24 38.28 18.24 38.49 18.25 38.49 18.24 38.28"/><path class="cls-3" d="M18.26,36.82v.27A1.21,1.21,0,0,0,18.26,36.82Z"/><path class="cls-3" d="M18.48,46.29h0C18.59,46.33,18.53,46.31,18.48,46.29Z"/><polygon class="cls-3" points="18.38 39.2 18.38 39.23 18.4 39.29 18.38 39.2"/><path class="cls-3" d="M18.24,35.91s0,.07,0,.1v-.12Z"/><path class="cls-3" d="M18.5,43.51c0-.06,0-.08-.06-.08S18.46,43.54,18.5,43.51Z"/><path class="cls-4" d="M22.26,37.8h0Z"/><path class="cls-4" d="M22.44,36.06l0,0Z"/><path class="cls-4" d="M22.32,38.85h0v0Z"/><path class="cls-4" d="M23.4,32.64v0S23.41,32.65,23.4,32.64Z"/><path class="cls-4" d="M22.66,34.61s0,0,0,0S22.64,34.6,22.66,34.61Z"/><path class="cls-4" d="M21.61,39.61l.05,0S21.61,39.59,21.61,39.61Z"/><path class="cls-4" d="M22.16,40.63h0A0,0,0,0,0,22.16,40.63Z"/><path class="cls-4" d="M22.24,40.14l0,0S22.22,40.15,22.24,40.14Z"/><path class="cls-4" d="M22.19,40.11h0Z"/><path class="cls-4" d="M33.44,25.48s.05,0,.08-.08Z"/><path class="cls-4" d="M25,29.93v0Z"/><path class="cls-4" d="M33.46,25l0,0Z"/><path class="cls-4" d="M21.32,39.05c-.06,0,0-.11-.06-.09S21.24,39.05,21.32,39.05Z"/><path class="cls-4" d="M23.89,28v0S23.89,28,23.89,28Z"/><path class="cls-4" d="M33.46,25h0v0Z"/><polygon class="cls-4" points="27.5 27.75 27.5 27.75 27.5 27.76 27.5 27.75"/><path class="cls-4" d="M27.7,27.74l0,0A0,0,0,0,0,27.7,27.74Z"/><path class="cls-4" d="M33.52,25.4l0,0Z"/><path class="cls-4" d="M29.35,26.79l0,0Z"/><path class="cls-4" d="M22.61,34.74h0S22.62,34.76,22.61,34.74Z"/><polygon class="cls-4" points="21.44 33.02 21.44 33.02 21.44 33.02 21.44 33.02"/><path class="cls-4" d="M21.48,33.12s0-.07,0-.1S21.44,33.07,21.48,33.12Z"/><path class="cls-4" d="M21.52,32.86h0Z"/><polygon class="cls-4" points="21.04 34.44 21.04 34.44 21.04 34.44 21.04 34.44"/><path class="cls-4" d="M21.09,34.12l0,0S21.09,34.11,21.09,34.12Z"/><polygon class="cls-4" points="21.63 32.03 21.63 32.04 21.63 32.03 21.63 32.03"/><path class="cls-4" d="M22.75,29.05a6,6,0,0,1-.48.95c.07.12,0,.2,0,.31l-.14-.07v.1c-.05,0,0-.07-.07-.05l.07.08c-.05,0-.13.17-.17,0l-.15.3c0,.06.1.09,0,.15s0,0-.07-.06c-.22.16.14.38,0,.55v0c0,.05,0,.12,0,.13s-.07-.08.05-.1,0,.11.12.14,0,.09,0,.13-.09.17-.21.18.13.14.11.21-.09-.05-.15,0l.06,0c0,.06-.05,0-.08,0s.08.09,0,.15l-.05-.07c0,.07,0,.09-.06.17s0,0,0-.07,0,.09,0,.11.07,0,.13,0,.07.12,0,.12l-.05-.07c0,.1.07.08,0,.17l0,0c.07.09,0,.15-.07.24l0,0s.08.09.07.11.07,0,.14,0c-.14,0,.11.14,0,.24s-.09-.06,0-.08c-.12-.07-.22-.11-.26-.2s0,.11,0,.09l.11,0a.14.14,0,0,1,0,.07c.07,0,.14,0,.17.06s-.13,0-.08,0,.11.08,0,.16,0,0,0,0,0,.16-.18.14-.07,0-.05,0h0c-.08-.1,0,.07-.11,0,.08,0,0,.1,0,.14h.09c.23.2-.17,0-.16.1s0,0,.08,0-.11.06-.09.16a.33.33,0,0,1-.2,0c0,.06-.07.16,0,.21s-.09-.12.06-.2l.09.05c0,.07,0,.18,0,.22h.06c0,.12.11.16.06.26s-.07-.06-.07-.1,0,.06-.06.16,0-.07-.06-.09a.49.49,0,0,0,0,.12h0c.13,0,0,.09,0,.17s.15.21.24.31a.12.12,0,0,1-.1,0c.06,0,0,0,0,0S21,35,21,35s.08,0,.11,0l0,.12c.07,0,.08,0,.13,0s0,.08,0,.15-.1,0-.09,0a.06.06,0,0,0,0,.11c.07-.07.05.13.16.08l-.07.07s0,0,0-.05,0,.07,0,.09,0,.1-.07.1a.06.06,0,0,1-.05.09s.06,0,.1,0l0,.12a.83.83,0,0,1-.23,0s.16,0,.16.09-.09.09-.22,0-.08.15-.06.21.06-.06.14-.06c0,.18.27.19.23.32l0,0a.23.23,0,0,0,.12.12c-.11,0-.3.09-.27.22s.1-.07.19-.05l0,.08s0,0,0,0-.14.15,0,.17l-.16.08.07,0c.05,0,.07.09.09.11s0,.12,0,.17.14-.06.16,0c-.17,0-.05.14-.14.15s-.05.08,0,.08h-.11c.15,0,.15.1.19.18-.21,0,0,.08-.17.13.14,0,.07.14.19.14s-.11.07-.16.09l.06,0c-.06,0,0,.15-.09.23l.13,0-.05,0s.06.06.1,0v0c.13,0,0,0,.11.1a.06.06,0,0,1-.07,0s-.07,0-.11.06.26.08.3,0,.11,0,.09.06l-.12,0,.14,0s-.05.08-.05.12-.26,0-.23.06c0,0-.1-.07-.13-.09s0,0-.07,0,.08,0,.11.09-.14.05-.16.13l.07-.07h0s0,0,.06,0,.16.07.09.1c.16-.12.16.12.25,0s.05.06,0,.08-.11.07-.19.08.07-.07.12-.05-.05.09-.08.12h0l0,.07s.07-.08.12,0,0,.08,0,.09-.18,0-.21,0,.07.17.15.1v.05c0-.05.1-.15.14-.06h0l.09.05,0,0s.05,0,.05,0,0,.05-.08.06.08,0,.11,0,0,.06-.06.06,0,.16,0,.21,0,0,.11,0c-.17.12,0,.28.06.39.15-.08,0,0,.18,0-.06,0-.08.15-.17.06l0,.06c-.07.08-.1-.09-.2,0s.22.07.19.17.07.06-.06.08-.05,0-.07-.06v0c0,.18.15,0,.25.06s0,.11-.11.13,0,.07.07.09,0-.14.1-.14c-.11.09.05.15.11.16.08-.2,0-.11.06-.29,0,0-.16,0-.14,0s.06,0,.08,0-.05,0-.09-.06.17,0,.17-.09l-.16,0s.12,0,.06-.08c.1,0,.13-.06.18,0,.1-.15-.12-.13-.21-.2h.05a.09.09,0,0,1-.07-.06c0-.07.08,0,.12,0l0-.09h0s-.05,0,0,0h.16L22.2,40c.06,0,.07-.11.13,0l-.06-.13.1,0s-.05,0-.05,0-.25-.15,0-.19c-.11-.08-.09-.13-.17-.24.12.07.1-.15.17-.05,0-.08-.09-.06-.12-.11a.17.17,0,0,1,.2,0l-.06,0h0l-.08,0c.05-.07.11,0,.11-.09h-.1l0-.05s-.06,0-.08,0h0l0,0c.06,0,0,0,.08,0s0,0,0-.11l-.06,0c-.08-.09.1,0,.09-.11l-.08,0c.11-.14-.11-.18,0-.28,0,.05.11,0,.09,0s0-.18-.13-.25c.1,0,.13-.05.17-.13s0-.07-.09-.08,0-.15,0-.16c-.07,0,0,0-.05-.08h0l-.08,0c.17-.12-.11-.16,0-.27l0,0,0,0h.1v-.19l-.05,0s-.09-.06-.05-.11,0-.06.09-.08l0,0s0,0-.09,0,.15-.06.06-.12v0c-.05,0-.11,0-.11,0s.05,0,.06,0,0-.14,0-.17a.08.08,0,0,1,.1,0c-.07-.12,0-.06-.05-.18h0l-.05,0,.09-.06-.06,0s0-.06,0-.11l.06,0c0-.11.1-.13,0-.23s0,0,0,0,.12-.08,0-.18h.07l0,0h.08l-.12,0,.09,0,0,0c.17,0,0-.11.17-.17h-.11c-.23-.18.15-.37.07-.57h.09l-.1-.09c.08,0,.07,0,.12,0s-.12,0-.14-.16.07,0,.09.06-.06-.25,0-.31h0c0-.07,0-.15,0-.22s.05,0,.05,0,.05,0,0-.08l.07,0s0-.17.07-.16-.1,0-.09-.06,0-.13.06-.19,0,.07,0,0,0-.07-.05-.11l.05,0,0-.18c.13,0,0-.17.11-.13s-.07,0-.07,0,0-.08.08-.05h0v-.06l.07.06c0-.05-.08-.1-.14-.12s0-.1.12-.1v0c0-.13.29-.13.18-.26s0,0,0,0l0-.07.06,0-.06-.15,0,0c0-.08.06-.2.09-.3v0c0-.13.08-.09.07-.18h0l0-.07,0,0c-.06-.09.18-.1.09-.1s-.05-.11-.1-.14.06,0,.11,0,0-.1,0-.16l0,0a.47.47,0,0,1,0-.12l0,0c0-.12.16,0,0-.19,0,0,0-.09.13,0a1.66,1.66,0,0,1,0-.32c.14.05,0,0,.11,0l-.07,0c.05-.14.3-.2.37-.35l.07,0-.06-.07a4.08,4.08,0,0,0,.36-.42c0-.07-.05-.18,0-.22h0a.55.55,0,0,1,.22-.34s0,0,0,.05.05-.06.07-.08H24.9c0-.08.06-.08.12-.06l0-.1h0l0,0,.1,0s0-.11,0-.19.08,0,.07,0l.17-.16h0c-.06-.05-.05-.13,0-.13s.08.07.14.1-.07,0-.09-.07,0-.14.06-.13v0c0-.06.13,0,.16,0s.06-.06-.05-.15.09.05.11,0,.08-.11.13-.07c-.11-.17.18-.08.07-.21l.11,0s-.1-.12-.07-.16S26,29,26,29l-.09-.14c.3,0,.47-.34.77-.4a.83.83,0,0,1,.28-.31v0l.14,0H27S27,28,27,28a.79.79,0,0,0,.5-.26c0-.22.16.1.18-.08a.19.19,0,0,0,0,.07,1.9,1.9,0,0,0,.17-.35c.08.17.06-.05.1,0l0-.07s.12,0,.14.06v-.11l0,.07c.07,0,.19-.16.29,0A1,1,0,0,1,29,27c0-.07.06-.1.11-.13l.09.06s0-.18.11-.14v0s.1,0,.12-.11a.12.12,0,0,1,.15.1c-.05-.15.12,0,.12,0l1.59-.4a4.46,4.46,0,0,0,2.11-.87c0-.08.09-.13.06-.22s.09.11.09,0,0-.2-.05-.29l0,0c0-.06-.06.06,0,0v.15a.16.16,0,0,1-.08-.1c0,.06,0,.25-.14.17h0c-.07,0,0-.09-.06-.11h0L33.21,25c0,.05.12-.07.08-.06s0,0,0,.05,0-.06,0-.11h-.07c0-.06,0,0,0-.06l-.08.08c0-.17-.1.09-.15-.07s0,0,0-.11l-.16,0s0-.06,0-.05,0,.05-.06.05-.13,0-.14-.09,0,.14-.14.09.08,0,0-.09l-.11,0s0-.11,0-.1c-.31,0-.53-.37-.79-.23-.05-.07,0-.06,0-.11-.18.14-.32-.12-.49-.07v.06c-.28-.15-.54.05-.83,0l0,0c0,.07-.07.09-.11.13s0-.15-.08-.1.07,0,.06.07a3.08,3.08,0,0,0-1.14.15,15.78,15.78,0,0,0-1.53.62c.07,0,.11.12,0,.11-.27-.17-.23.18-.47.09-.24.21-.59.17-.73.5l0-.07c-.06,0,0,.05-.07.08v0c-.11,0-.18.17-.25.17l.05.07c-.05,0-.07,0-.09,0l0,0v.11c-.08-.13-.15.1-.23.07s-.14.22-.26.27-.19,0-.29.07a4.23,4.23,0,0,1-.53.48l.07.07,0,.05s0,0,0,0-.08.12-.17.11c.09,0,0,0,.07,0s.1.1,0,.11v.05c-.06-.05-.11-.05-.17-.1-.14.16-.14.36-.32.49,0-.08-.09.12-.17,0,0,.13.11.07.14.18s0,.08-.06.05-.09,0-.08-.07l-.05.07s0,0,0,0c-.05.18-.29.15-.32.34s.05,0,.08,0c0,.2-.16.05-.19.22l0-.08c0,.07,0,.13-.05.16s0-.1,0-.16-.11.16,0,.18-.09,0-.13.05.08,0,.09.05A.74.74,0,0,0,23,29s0,0,0,0C23,29.07,22.8,28.94,22.75,29.05Z"/><path class="cls-4" d="M21,34.48v0a.11.11,0,0,1-.06,0Z"/><path class="cls-4" d="M21.54,32.54l0,0Z"/><path class="cls-4" d="M21.56,32s0,0,.07,0Z"/><path class="cls-4" d="M21.14,35.63h0Z"/><path class="cls-4" d="M21.26,38.71h0Z"/><path class="cls-4" d="M21.37,38.52s0,0,0,0Z"/><path class="cls-4" d="M21.17,34.88s0,0,0,0Z"/><polygon class="cls-4" points="21.32 38.45 21.33 38.41 21.31 38.41 21.32 38.45"/><path class="cls-4" d="M21.26,38.77s0,0,0-.06S21.24,38.75,21.26,38.77Z"/><path class="cls-4" d="M21.24,36.76h0S21.21,36.74,21.24,36.76Z"/><polygon class="cls-4" points="21.15 38.29 21.15 38.29 21.12 38.28 21.15 38.29"/><path class="cls-4" d="M21.26,39a0,0,0,0,0,0,0v0Z"/><path class="cls-4" d="M21.13,37.41h.08S21.19,37.4,21.13,37.41Z"/><path class="cls-4" d="M36.06,46.08v0Z"/><path class="cls-4" d="M37.81,46.05v0A0,0,0,0,0,37.81,46.05Z"/><path class="cls-4" d="M35,46H35Z"/><path class="cls-4" d="M41.37,44.71l0,0Z"/><path class="cls-4" d="M39.3,45.66s0,0,0,0S39.29,45.63,39.3,45.66Z"/><path class="cls-4" d="M34.57,45.1l0,.07A.08.08,0,0,0,34.57,45.1Z"/><path class="cls-4" d="M33.6,45.21h0Z"/><path class="cls-4" d="M33.94,45.51l0,0S33.94,45.48,33.94,45.51Z"/><path class="cls-4" d="M34,45.47h0Z"/><path class="cls-4" d="M43.46,32.25s-.07,0-.11,0Z"/><path class="cls-4" d="M43.81,42.18l0,0Z"/><path class="cls-4" d="M43,32.49v0Z"/><path class="cls-4" d="M35.08,45s.08,0,.08,0S35.09,44.9,35.08,45Z"/><path class="cls-4" d="M42.29,40.53v0Z"/><path class="cls-4" d="M43,32.49v0l0,0Z"/><polygon class="cls-4" points="45.16 38.76 45.16 38.76 45.16 38.77 45.16 38.76"/><path class="cls-4" d="M45.28,38.57v0A0,0,0,0,0,45.28,38.57Z"/><path class="cls-4" d="M43.35,32.22l-.06,0Z"/><path class="cls-4" d="M45.26,36.44v0Z"/><path class="cls-4" d="M39.15,45.68h0S39.14,45.7,39.15,45.68Z"/><polygon class="cls-4" points="39.65 43.75 39.65 43.75 39.65 43.75 39.65 43.75"/><path class="cls-4" d="M39.63,43.85s0-.05,0-.1A.16.16,0,0,0,39.63,43.85Z"/><path class="cls-4" d="M39.78,43.71h0Z"/><polygon class="cls-4" points="38.59 44.18 38.6 44.19 38.59 44.18 38.59 44.18"/><path class="cls-4" d="M38.82,44.07l0,0Z"/><polygon class="cls-4" points="40.22 43.23 40.22 43.23 40.22 43.23 40.22 43.23"/><path class="cls-4" d="M41.55,41.35a1.88,1.88,0,0,1-.38.64c.06.12,0,.17,0,.24l-.11-.1v.07c-.05,0,0-.05-.06-.06l0,.08s-.13.08-.14-.07l-.16.16s.06.12,0,.13,0,0-.05-.08c-.2,0,.05.36-.12.41v0s0,.08,0,.1,0-.08.07,0,0,.09.06.17,0,.06,0,.09-.13.06-.22,0,.05.17,0,.21,0-.09-.12-.08l0,.06s0,0-.07,0,0,.11-.06.11v-.08c0,.05,0,.05-.1.08s0-.05,0-.05,0,.08,0,.08.07,0,.1.09,0,.12-.07.06v-.08c0,.09,0,.1-.07.12s0,0,0,0-.09.07-.16.1v0s0,.1,0,.11.06,0,.11.1c-.12-.08,0,.17-.12.16s0-.1,0-.07c0-.13-.09-.23-.07-.31s0,.08-.06,0l.05.11-.05,0c0,.07.1.09.09.16s-.09-.09-.07,0,0,.13-.05.13,0,0,0,0-.1.08-.19,0,0-.07,0-.07v0c0-.12,0,0-.08-.08,0,.07,0,.09-.07.09l.05.08c0,.28-.07-.16-.15-.08s0,0,0,.08-.1,0-.14,0a.27.27,0,0,1-.14-.13s-.13,0-.11.1,0-.11.15,0L39,44s-.1.1-.15.08a.11.11,0,0,1,0,.06c-.06.06,0,.16-.13.17s0-.09,0-.11-.05,0-.14,0,.06,0,0-.09l-.07.06h0c0,.12-.07,0-.11.07s-.07.21-.11.34a.2.2,0,0,1-.05-.09c.05,0,0,0,0,0s-.13-.09-.13-.15.05.06,0,.11l-.09,0c0,.06.07.06,0,.13s-.06,0-.12,0,0-.09,0-.1-.08,0-.07.06-.08.08,0,.17l-.08,0s0,0,0,0,0,0-.05.06-.08,0-.1,0-.06,0-.08,0,0,.06,0,.1h-.09a.82.82,0,0,1-.06-.22c0,.06,0,.16,0,.17s-.09-.06-.08-.2a.11.11,0,0,0-.17,0c0,.09.06,0,.08.12-.13.06-.08.3-.19.28l0,0a.21.21,0,0,0-.07.13c0-.11-.13-.28-.23-.23s.08.09.08.18l-.07,0s0,0,0-.05-.14-.12-.13,0l-.09-.14,0,.06c0,.06-.06.08-.08.11s-.09,0-.14,0,.06.14,0,.16c0-.17-.13-.05-.14-.14s-.07-.05-.06,0V45c0,.15-.07.15-.14.19,0-.21-.06,0-.11-.17,0,.15-.11.07-.11.19s-.05-.12-.07-.17l0,.06c0-.07-.12-.08-.18-.12l0,.13,0-.06s-.05,0,0,.1h0c0,.14,0,0-.09.1s0,0,0-.07,0-.07,0-.12-.09.25,0,.31,0,.1-.06.08l0-.13,0,.13s-.07-.06-.1-.08.08-.23,0-.23.07-.08.1-.11,0,0,0-.07,0,.08-.1.09,0-.14-.07-.18l0,.08a0,0,0,0,1,0,0s0,0,0,.07-.08.13-.09.07c.06.17-.13.12-.09.23s-.06,0-.06,0,0-.13,0-.2,0,.08,0,.12-.06-.06-.08-.1l0,0-.05,0c0,.06.05.1,0,.12s-.06,0,0,0,0-.17.06-.19-.15,0-.11.12h0s.09.14,0,.15v0l-.06.08,0-.06s0,0,0,0,0-.05,0-.09-.06.06-.07.09,0,0,0-.09-.13,0-.15-.07,0,0,0,.09c0-.2-.21-.09-.31-.09,0,.17,0,0-.08.16,0-.05-.08-.15,0-.18h-.06c0-.1.11,0,.07-.19s-.14.17-.2.1-.06,0,0-.1,0,0,.06,0v0c-.12-.06-.06.13-.15.19s0-.1,0-.16-.05,0-.08,0,.08.09,0,.16c0-.14-.12,0-.16,0s.08,0,.17.19c0,0,0-.16.1-.09s0,.06,0,.09,0,0,.08-.05-.07.15,0,.19l0-.16s0,.12,0,.09,0,.14-.1.15c.07.15.16,0,.24-.1a.08.08,0,0,1,0,0s.05,0,.08,0-.05.06-.05.11H34s.05,0,.05,0l-.07.14.1-.1s.06.1,0,.13h.13v.11s0,0,0-.06.22-.17.17,0c.11-.07.14,0,.27-.08-.1.1.1.14,0,.18.06,0,.08-.07.13-.08a.16.16,0,0,1,0,.19l.06-.05v0l.05-.07c0,.07,0,.12.06.13V45.9l0,.05s0-.06.06-.07v0l.05,0c-.05.06,0,0,0,.09s0,0,.11,0V45.9c.1,0,0,.1.08.11v-.08c.11.14.18-.07.27,0s0,.11,0,.09.19,0,.26-.11c0,.11,0,.15.11.19s.07,0,.08-.08.15,0,.16,0,0,0,.07,0v0c.11.16.15-.12.26,0l0,0,0,0a.34.34,0,0,1,0,.1h.19L36.55,46s.06-.09.11,0,.06,0,.09.09l0,0s0,0,0-.09.07.15.12,0h0s0-.12,0-.12,0,0,0,.06S37,46,37,46s0,.07,0,.09.06,0,.17-.08v0l0-.06.08.09,0-.06s.05-.05.1,0V46c.1-.06.15.08.23,0s0,0,0,0,.1.1.16,0c0,0,0,0,0,.06l0,0,0,.09V46l.05.08v0c.09.15.13,0,.23.11l0-.1c.09-.26.4,0,.57-.16l0,.09,0-.13c.07.05,0,.08,0,.12s0-.14.08-.19,0,.06,0,.1.2-.17.28-.15,0,0,0,0,.14-.06.21-.1,0,.06,0,.07.07,0,.08,0v.08c.06,0,.13-.11.18,0s0-.09,0-.1.1-.1.2-.08-.05.07,0,.06,0-.06.07-.11v0L40,45.3c.08.1.14-.1.17,0s-.07,0,0-.08.06-.05.09,0v0l0,0v.1a.21.21,0,0,0,0-.19c.07,0,.11,0,.16,0v0c.09-.09.31.09.32-.09,0,0,0,0,0,0l.07,0,0,.06.06-.15,0,0a.94.94,0,0,0,.27-.2v0c.07-.13.13,0,.17-.13v0l.06-.05v.05c0-.12.22,0,.14-.05a.37.37,0,0,0,0-.18c.07-.06.05,0,.12,0s0-.11.11-.14l0,0s0-.07.07-.12v0c0-.13.18,0,.11-.17.05,0,.09-.07.15,0a3,3,0,0,1,.16-.31c.11.09,0,0,.12,0l-.06,0c.11-.12.38-.12.49-.28l.06,0,0-.09a3.11,3.11,0,0,0,.45-.43c0-.06,0-.18,0-.23h0a.85.85,0,0,1,.24-.39s0,0,.06.06.05-.08.07-.11h-.07c0-.07.06-.09.12-.08l0-.1h0l0,0,.11,0s0-.12,0-.19.09,0,.08,0l.16-.2H44c-.07,0-.07-.12,0-.14s.1.06.16.07-.08,0-.11-.05,0-.16,0-.16l0,0c0-.07.13,0,.15-.08s0-.09-.09-.14.1,0,.12,0,.05-.14.11-.12c-.15-.12.16-.16,0-.24l.11,0s-.12-.07-.12-.13.13,0,.18,0l-.14-.09c.27-.19.28-.57.51-.82a1.87,1.87,0,0,1,0-.47l0,0,.08-.15-.1.1s0-.07,0-.1a.76.76,0,0,0,.18-.59c-.16-.17.19-.07.07-.22l.06,0a1.24,1.24,0,0,0-.16-.38c.18,0,0-.09.1-.07l-.07,0s.07-.1.12-.08L45.18,38h.08c0-.09,0-.27.12-.3a1.77,1.77,0,0,1-.05-.8c-.07,0-.07-.11-.08-.17l.09-.07c0-.06-.16-.11-.1-.17h0s0-.12-.07-.16,0-.14.13-.13c-.16,0,0-.15,0-.15A6.06,6.06,0,0,0,45,34.19c-.31-.94-1-1.85-1.53-1.94-.08,0-.16,0-.22,0s0-.13,0-.09-.17.09-.21.2l0,0c-.05,0,.08,0,0,.07l.12-.07a.19.19,0,0,1,0,.12c.06,0,.24-.09.21,0l0,0c0,.06,0,.09-.07.11h0l0,.09c0-.07-.12-.07-.1,0s0,0,.07,0,0,.06-.08.08l0,0c-.06,0,0,0-.07,0l.11,0c-.14.1.12,0,0,.15s-.05,0-.1.05l.08.13s-.06,0,0,0,.05,0,.06,0,0,.09-.05.14.15,0,.13.09,0-.06-.09,0l.07.07s-.11,0-.11,0c0,.27-.24.54-.07.71-.06.06,0,0-.11,0,.16.11-.07.27,0,.39l.06,0c-.13.25.06.41,0,.64l0,0c.07,0,.08.06.12.08s-.14,0-.1.06,0,0,.07-.05c-.11.22,0,.57,0,.87a6.76,6.76,0,0,1,0,1.19c0-.06.16,0,.12,0-.28.11,0,.21-.15.32.06.23-.18.4,0,.63H43s0,0,0,.07h0c0,.07,0,.17,0,.21l.08,0s-.07,0,0,.07h0l.07.07c-.15,0,0,.12-.12.14s0,.18,0,.26-.11.1-.17.16a1.35,1.35,0,0,1-.15.47l.1,0,0,.05,0,0c-.12,0,0,.11-.08.11.09,0,0,0,0,0s.14.05.07.08h0l0,.05c-.08,0-.12,0-.19,0,0,.14,0,.29-.07.41-.07,0,0,.11-.15,0,0,.11.12.05.19.13s0,.07,0,0-.09,0-.09,0l0,.06s0,0,0,0c0,.16-.2.15-.18.29s0,0,.08,0-.13,0-.12.17L42,41s.07.1,0,.12,0-.08-.06-.13,0,.13,0,.15-.08,0-.11,0,.07,0,.09,0-.13.1-.18.16l0,0C41.73,41.39,41.58,41.27,41.55,41.35Z"/><path class="cls-4" d="M38.56,44.18h0s0,0,0-.06Z"/><path class="cls-4" d="M40,43.52v0Z"/><path class="cls-4" d="M40.17,43.18s0,0,0,0Z"/><path class="cls-4" d="M37.8,44.7v0S37.8,44.69,37.8,44.7Z"/><path class="cls-4" d="M35.35,45h0Z"/><path class="cls-4" d="M35.49,45.12h0S35.49,45.11,35.49,45.12Z"/><path class="cls-4" d="M38.36,44.48l0,0S38.36,44.46,38.36,44.48Z"/><polygon class="cls-4" points="35.54 45.09 35.58 45.09 35.58 45.08 35.54 45.09"/><path class="cls-4" d="M35.31,45l0,0S35.32,45,35.31,45Z"/><path class="cls-4" d="M36.93,45h0S36.94,45,36.93,45Z"/><polygon class="cls-4" points="35.69 44.93 35.7 44.93 35.7 44.91 35.69 44.93"/><path class="cls-4" d="M35.16,44.93h0Z"/><path class="cls-4" d="M36.4,45a.2.2,0,0,0,0,.07S36.41,45,36.4,45Z"/><path class="cls-5" d="M31.62,43.58c-4.36-1.24-7-6.22-6-10.89.91-4.4,5.45-6.47,8.58-6.89a9.3,9.3,0,0,1,10.93,9.28,9.91,9.91,0,0,1-3.75,7.39C37,45.73,31.86,43.68,31.62,43.58Z"/><path class="cls-4" d="M46.69,34.36h0Z"/><path class="cls-4" d="M46.75,35.65l0,0Z"/><path class="cls-4" d="M46.54,33.59h0v0Z"/><path class="cls-4" d="M46.61,38.27v0S46.6,38.26,46.61,38.27Z"/><path class="cls-4" d="M46.8,36.73h0S46.83,36.73,46.8,36.73Z"/><path class="cls-4" d="M47.18,32.87l0,.05S47.18,32.89,47.18,32.87Z"/><path class="cls-4" d="M46.6,32.21h0Z"/><path class="cls-4" d="M46.54,32.61h0S46.56,32.6,46.54,32.61Z"/><path class="cls-4" d="M46.59,32.62h0Z"/><path class="cls-4" d="M42,46.26s0,.06,0,.1Z"/><path class="cls-4" d="M46.11,40.54h0Z"/><path class="cls-4" d="M42.27,46.7h0Z"/><path class="cls-4" d="M47.49,33.23c.06,0,0,.07.07.05S47.57,33.21,47.49,33.23Z"/><path class="cls-4" d="M48,41.78v0Z"/><path class="cls-4" d="M42.27,46.7h0l0,0Z"/><polygon class="cls-4" points="45.05 42.71 45.06 42.71 45.05 42.7 45.05 42.71"/><path class="cls-4" d="M44.91,42.77v0S44.9,42.76,44.91,42.77Z"/><path class="cls-4" d="M42,46.36v0A.07.07,0,0,0,42,46.36Z"/><path class="cls-4" d="M44.14,43.92h0Z"/><path class="cls-4" d="M46.83,36.62h0S46.81,36.61,46.83,36.62Z"/><polygon class="cls-4" points="48.38 37.62 48.38 37.62 48.38 37.62 48.38 37.62"/><path class="cls-4" d="M48.31,37.56s0,0,.07.06S48.37,37.58,48.31,37.56Z"/><path class="cls-4" d="M48.35,37.75h0Z"/><polygon class="cls-4" points="48.42 36.52 48.42 36.53 48.42 36.53 48.42 36.52"/><path class="cls-4" d="M48.45,36.77h0Z"/><polygon class="cls-4" points="48.48 38.36 48.48 38.36 48.48 38.36 48.48 38.36"/><path class="cls-4" d="M48.49,40.73a4.15,4.15,0,0,1,.07-.79c-.1-.07-.09-.14-.1-.22l.15,0,0-.07s0,0,.09,0l-.09,0s.06-.15.16,0l0-.24c0-.05-.12-.05-.07-.1s0,0,.08,0c.14-.17-.27-.25-.18-.4h0s0-.08,0-.08.08,0,0,.07-.06-.07-.16-.08,0-.06,0-.09,0-.13.15-.17-.16-.07-.17-.13.1,0,.14,0l-.07,0s0,0,.07,0-.1,0,0-.11l.07,0s0-.07,0-.13,0,0,0,0,0-.06,0-.08-.05.05-.12,0-.1-.07,0-.09l.07,0c-.06-.07-.09,0-.06-.11h0c-.09,0,0-.11,0-.18h0l-.09-.06s-.07,0-.14,0c.13-.05-.15-.09-.07-.17s.1,0,0,0c.13,0,.24,0,.3.09s-.05-.08,0-.07h-.12s0,0,0-.05-.13,0-.18,0,.13,0,.07,0-.13,0-.09-.1l0,0s0-.12.13-.14.07,0,.06,0h0c.1.06,0,0,.1,0-.08,0-.06-.07,0-.1h-.09c-.26-.09.18,0,.15-.1s0,0-.09,0,.09-.07,0-.13a.35.35,0,0,1,.18-.07s0-.13-.06-.14.11.06,0,.15l-.1,0c0-.06,0-.12,0-.17l-.06,0c0-.08-.14-.1-.12-.17s.08,0,.09.06,0-.06,0-.13,0,0,.08,0l0-.08h0c-.14,0,0-.07,0-.12s-.19-.12-.3-.18a.12.12,0,0,1,.1,0c-.06,0,0,0,0,0s.12-.11.17-.09-.06,0-.11,0v-.09c-.06,0-.08,0-.13,0s0-.06,0-.11.09,0,.09,0,0-.07,0-.07-.07-.09-.17,0l.06-.06s0,0,0,0,0-.05-.05-.06,0-.08.06-.09,0-.06,0-.07-.07,0-.1,0v-.08a.79.79,0,0,1,.23,0s-.16,0-.17,0,.07-.08.21-.06a.12.12,0,0,0,0-.17c-.09,0,0,.06-.13.07s-.29-.08-.27-.18l0,0a.26.26,0,0,0-.13-.06c.11,0,.27-.13.23-.22s-.09.08-.18.08l0-.05h0s.12-.14,0-.13l.14-.09-.06,0s-.09-.06-.11-.06,0-.09,0-.14-.13.08-.16,0c.17,0,0-.12.12-.14s0-.07,0,0l.1,0c-.15,0-.16,0-.2-.09.21,0,0-.05.14-.13-.14,0-.08-.08-.2-.06s.1-.07.14-.1h-.05c.05,0,0-.13.07-.19h-.14l0,0s-.06,0-.1,0v0c-.13,0,0,0-.12,0a.11.11,0,0,1,.07,0s.06,0,.1-.06-.26,0-.3.08-.1,0-.08,0l.11-.06-.13,0s0-.07,0-.11.24,0,.21-.09.1,0,.14,0,0,0,.06,0-.08,0-.12,0,.14-.06.15-.13l-.06.07h0s0,0-.06.05-.15,0-.09-.05c-.14.12-.17-.06-.25,0s0,0,0-.06.1-.09.17-.11-.06.07-.11.06,0-.07.06-.1h0l0-.06c-.05,0-.06.08-.11.05s0-.05,0-.07.16-.06.19,0-.07-.12-.14,0l0,0s-.08.14-.12.07h-.08l0,0s-.05,0-.06,0l.08-.06c0-.05-.08,0-.11,0s0-.05.06-.06-.05-.11,0-.16,0,0-.1,0c.16-.13,0-.21-.08-.29-.14.1,0,0-.17,0,.06,0,.08-.14.16-.08l0,0c.06-.07.1,0,.19-.06s-.22,0-.19-.09-.06,0,.06-.07,0,0,.06,0l0,0c0-.13-.14,0-.25,0s.06-.1.1-.13,0-.05-.05-.05,0,.11-.1.13c.1-.1-.05-.11-.11-.1s0,.07-.05.23c0,0,.15-.07.13,0s-.06,0-.07.05,0,0,.08,0-.16,0-.16.11l.15-.06s-.11,0-.05.07-.11.07-.17,0c-.09.13.13.07.21.11s0,0,0,0a.08.08,0,0,1,.07,0c0,.06-.08,0-.11,0l0,.06h0s0,0,0,0l-.15,0h.13s-.06.09-.11.06l.06.09-.1,0s0,0,0,0,.24.06,0,.13c.12,0,.1.08.19.15-.12,0-.09.13-.16.07s.09,0,.12.05a.2.2,0,0,1-.19.06l.06,0h0c0,.06-.1,0-.1.1l.1,0,0,0a.05.05,0,0,1,.08,0h0l0,0c-.07,0,0,0-.08.05s0,0,.05.08l0,0c.08,0-.09,0-.07.1l.07,0c-.1.12.12.11.06.2s-.11,0-.09,0,.06.13.16.15c-.1.06-.13.07-.16.14s0,0,.1,0,.05.1,0,.13c.07,0,0,0,.06,0h0l.07,0c-.14.11.13.08,0,.2h0l0,0-.1,0,0,.14.05,0s.1,0,.06.07,0,0-.08.07l0,0s0,0,.09,0-.14.07,0,.09v0s.11,0,.12,0,0,0-.06,0,0,.1.05.11a.1.1,0,0,1-.1,0c.09.07,0,0,.08.11h0l.06,0-.08.06.05,0s0,0,0,.07h-.07c.06.07-.08.12,0,.17s0,0,0,0-.11.07,0,.12l-.07,0,0,0h0l-.08,0h0c-.16.06,0,.09-.14.15l.11,0c.25.08-.09.29,0,.41h-.09l.11,0c-.06,0-.07,0-.12,0s.14,0,.17.09-.07,0-.1,0,.11.16.07.21h0s0,.11,0,.16,0,0-.05,0,0,0,0,.06h-.08s.06.11,0,.12.1,0,.1,0,.07.09,0,.14,0,0,0,0,0,.05.08.07H46.8l.08.12c-.13,0,0,.12-.08.11s.06,0,.08,0,0,.05-.06.05h0v0l-.08,0a.24.24,0,0,0,.17.06s0,.08-.09.09h0c0,.09-.23.15-.09.22,0,0,0,0,0,0v.06l-.07,0,.1.1h0a.66.66,0,0,0,0,.24l0,0c.06.09-.05.08,0,.15h0v0h0c.09,0-.14.1-.06.08a.42.42,0,0,0,.14.09c0,.06-.06,0-.1,0s.07.06,0,.11h0s0,0,0,.09l0,0c.09.08-.14.06.05.14,0,0,0,.07-.11.06a.73.73,0,0,1,.09.23c-.15,0,0,0-.09,0h.08c0,.11-.22.2-.22.32h-.07l.08,0a3,3,0,0,0-.17.38s.11.11.07.16h0a.3.3,0,0,1-.05.29s0,0-.07,0,0,.06,0,.08h.06c.06.05,0,.06-.08.06l.07.07h0l0,0H46s0,.08.11.13-.07,0-.08,0l-.08.15h0c.07,0,.1.09.06.1s-.1,0-.16,0,.07,0,.11,0,0,.12,0,.12l0,0c0,.05-.12,0-.13.05s0,.06.11.1-.09,0-.11,0,0,.09-.08.07c.17.11-.12.1,0,.17h-.11s.13.06.13.1-.12,0-.16,0l.14.09c-.23.09-.24.35-.46.46,0,.1,0,.24-.07.31v0l-.09.07.1,0s0,.06,0,.08-.26.15-.26.31-.17,0-.11.11l0,0a1.2,1.2,0,0,0,0,.31c-.14-.12,0,.05-.1,0l0,0s-.09,0-.13,0l.06.09-.07,0s0,.18-.2.1c0,.18-.14.33-.27.44,0,.06,0,.1,0,.14l-.09,0c0,.05,0,.15,0,.14v0s-.08,0,0,.13-.09,0-.15,0c.11.11-.08.06-.08.06s-.44.35-.9.77-.94.92-.95,1.42c0,.07,0,.14.07.21s-.11-.06-.07,0,.09.18.18.23l0,0s0-.08.06,0l-.07-.12a.19.19,0,0,1,.1,0c0-.06-.1-.23,0-.2v0s.08.06.1.07h0l.08,0c-.06,0,0,.11,0,.09s0,0,0-.07.05,0,.08.09l0,0c0,.06,0,0,0,.06l0-.09c.11.13,0-.11.13,0s0,0,.06.09l.1-.08s0,.06,0,.05,0-.06,0-.06.07-.06.14,0-.06-.13,0-.13,0,.05,0,.09l0-.07s.05.1,0,.1c.23-.06.55.15.65-.06.07,0,0,.06,0,.11,0-.18.28,0,.38-.09l0-.05c.27,0,.36-.2.57-.28l0,0a.24.24,0,0,1,0-.15s.08.12.1.06-.06,0-.08,0c.25,0,.49-.29.75-.45.23-.33.61-.57.82-.92,0,.06-.15-.06-.09-.08.29.07.1-.19.32-.18.06-.24.37-.28.32-.57l.06,0c.05,0,0-.05,0-.08h0c.06-.05,0-.18.1-.2l-.07,0s.07,0,.05-.06l0,0,0-.09c.13.08.08-.11.16-.11a.41.41,0,0,1,.07-.26c.08,0,.13-.08.2-.13a2,2,0,0,1,.23-.47l-.1,0,0,0,0,0c.11,0,0-.11.09-.12-.09,0,0,0,0,.05s-.13-.06-.07-.09h0l0,0c.07,0,.12,0,.19,0,0-.15,0-.3.06-.43.07,0,0-.11.15,0,0-.11-.12,0-.2-.11s0-.06,0,0,.09,0,.1,0v-.06l0,0c0-.16.17-.19.13-.33s0,0-.08,0,.13-.06.09-.19l.06,0c0-.05-.09-.08,0-.12s.06.07.09.11,0-.14-.06-.13.07,0,.1-.07-.07,0-.1,0,.09-.15.12-.22l.06,0C48.3,40.76,48.49,40.82,48.49,40.73Z"/><path class="cls-4" d="M48.43,36.49v0a.06.06,0,0,1,.07,0Z"/><path class="cls-4" d="M48.41,38h0Z"/><path class="cls-4" d="M48.55,38.35s0,0-.07,0Z"/><path class="cls-4" d="M48.1,35.69s0,0,0,0Z"/><path class="cls-4" d="M47.58,33.47h0Z"/><path class="cls-4" d="M47.49,33.63l0,0Z"/><path class="cls-4" d="M48.2,36.24l0,0S48.22,36.24,48.2,36.24Z"/><polygon class="cls-4" points="47.54 33.67 47.54 33.7 47.56 33.7 47.54 33.67"/><path class="cls-4" d="M47.58,33.43v0S47.59,33.43,47.58,33.43Z"/><path class="cls-4" d="M47.82,34.9h0S47.85,34.9,47.82,34.9Z"/><polygon class="cls-4" points="47.73 33.75 47.73 33.76 47.75 33.76 47.73 33.75"/><path class="cls-4" d="M47.56,33.28h0v0Z"/><path class="cls-4" d="M47.84,34.4h-.08S47.78,34.42,47.84,34.4Z"/><path class="cls-4" d="M41.33,30.32h0Z"/><path class="cls-4" d="M43.56,34l0,0Z"/><path class="cls-4" d="M39.25,28.74h0l-.16-.09Z"/><path class="cls-4" d="M41.41,42.45l0,0Z"/><path class="cls-4" d="M43.83,37.69v.07S43.84,37.7,43.83,37.69Z"/><path class="cls-4" d="M38.09,27.91l.06,0S38.13,27.92,38.09,27.91Z"/><path class="cls-4" d="M35.39,27.5h0Z"/><path class="cls-4" d="M36.44,27.66h0Z"/><path class="cls-4" d="M36.55,27.67h0Z"/><path class="cls-4" d="M34.15,27.89a.72.72,0,0,0,.21-.05Z"/><path class="cls-4" d="M34,45.23h0Z"/><path class="cls-4" d="M34.23,27.71h0Z"/><path class="cls-4" d="M39.44,28.46c.08,0,.21.11.22.1S39.48,28.45,39.44,28.46Z"/><path class="cls-4" d="M32.06,45.47l-.05,0Z"/><path class="cls-4" d="M34.23,27.71h0Z"/><polygon class="cls-4" points="27.46 40.22 27.46 40.22 27.47 40.24 27.46 40.22"/><path class="cls-4" d="M27.3,39.79l0,.09Z"/><path class="cls-4" d="M34.36,27.84l.11,0Z"/><path class="cls-4" d="M26.81,35v0Z"/><path class="cls-4" d="M43.89,37.34v0S43.89,37.3,43.89,37.34Z"/><polygon class="cls-4" points="43.29 40.82 43.29 40.82 43.29 40.82 43.29 40.82"/><path class="cls-4" d="M43.36,40.64a.67.67,0,0,0-.07.18A.75.75,0,0,0,43.36,40.64Z"/><path class="cls-4" d="M43.08,41.18v0Z"/><polygon class="cls-4" points="44.41 37.55 44.41 37.55 44.41 37.55 44.41 37.55"/><path class="cls-4" d="M44.27,38.31v0A.43.43,0,0,0,44.27,38.31Z"/><polygon class="cls-4" points="41.98 42.74 41.98 42.74 41.98 42.74 41.98 42.74"/><path class="cls-4" d="M35.63,46.07A10.54,10.54,0,0,0,38,45.54a3.05,3.05,0,0,1,.57-.27l0,0,.17-.1c.08,0-.13.08,0,0l.06-.06s.45-.21.17,0a7.12,7.12,0,0,0,.67-.36c.15-.09.06-.09.23-.18s-.05,0,0,.06c.49-.27.49-.43.9-.74l0,0c.06-.07.19-.17.19-.18s-.06.08-.2.16.14-.14.11-.16a2.19,2.19,0,0,0,.22-.2c.16-.09.32-.29.44-.36a1.54,1.54,0,0,1,.22-.3c.12-.07,0,0,.14-.07v0c.1-.11.09-.09.1-.08a2.61,2.61,0,0,1,.2-.27l0,.11c.09-.12.13-.17.26-.32,0,0,0,.07-.08.11s.11-.15.15-.2-.12.12-.09,0,.11-.19.17-.23l0,.1a1.86,1.86,0,0,1,.19-.31s0,0,0,0a2.77,2.77,0,0,1,.33-.48l0,0a1.12,1.12,0,0,0,.08-.18c-.07.1-.07.07-.09.06s.08-.25.24-.48c0,0,0,.08-.06.14a.68.68,0,0,1,0,.29c0-.1.09-.21.1-.18l0,0c0-.05,0-.1.08-.14s-.1.09,0,0,.08-.06.07-.1c.1-.21,0-.1.13-.29a.3.3,0,0,1,0,.08c.1-.13.16-.36.23-.38a.12.12,0,0,1,0,.09h0c0,.18,0-.14.07-.07s.07-.2.11-.3l0,0c0-.34,0,0,.17-.27s0,.07,0-.06a2.23,2.23,0,0,0,.14-.38c0-.06.08-.17.11-.17a2.54,2.54,0,0,0,.12-.45,4,4,0,0,1-.15.46v-.08c.05-.17.11-.39.14-.51s0,0,0,0c0-.26,0-.33.07-.57,0,0,0,.11,0,.21a3.06,3.06,0,0,0,.08-.4s0,.16,0,.2l0-.27h0s0-.21,0-.38a2.72,2.72,0,0,0,0-.67c0-.06,0-.08,0,0s0,.08,0,.11c0-.13,0-.29.06-.22,0-.21,0,.08,0-.05V36s0,.14-.05,0,0-.19,0-.35c0,0,0-.06,0,.07,0-.08,0-.21,0-.25,0,.18-.06-.29-.08-.15v-.18s0,0,0,.1,0-.14,0-.21,0-.22,0-.24a1,1,0,0,1,0-.22c0-.08,0,0,0,0l-.07-.28s.05,0,.07,0-.06,0-.1-.19c.06.08,0-.22,0-.1a1.63,1.63,0,0,0-.16-.49c-.06-.07,0,.16,0,.16-.17-.38-.24-.38-.35-.66l0,.07a1.84,1.84,0,0,0-.15-.23c.05,0,0-.24-.16-.51,0,0,0,.17,0,.14a1,1,0,0,0-.1-.18s0,0,0,0c-.11-.15-.14-.32-.21-.34L43,31.75l0,.08s-.14-.19-.17-.22a1.11,1.11,0,0,1-.22-.34s0,.13-.07,0c.05,0-.19-.29-.16-.31s-.11-.15-.13-.14l0,0c-.05,0-.21-.16-.34-.3.08,0-.14-.15-.15-.25s-.26-.22-.31-.22-.06-.12-.08-.15l-.06,0a3,3,0,0,0-.36-.36l-.14-.06,0-.05s-.13-.08-.08,0l-.06-.05s-.1-.07-.24-.15,0,0,0,0,0-.05-.05-.09-.29-.09-.12.05c0,0-.11,0-.18-.09V29H40c-.1-.07-.13-.12-.22-.18.09.06.24.06,0-.08a1.73,1.73,0,0,0,.26.12c-.05,0-.07-.05,0,0-.18-.1-.07,0-.24-.12,0,0,0-.07-.17-.17l.1.09h0s0,0,0,.05-.23-.07-.25-.11c.15.15-.35-.13-.24,0s-.16-.07-.16-.09c.16.05-.1-.1-.06-.11s.11.09,0,.06l-.2-.13h.05l-.14-.08s.13.09,0,0-.18-.07-.17-.08,0-.05.16,0c-.09,0-.4-.16-.29-.07L38.35,28c.07,0,.26.15,0,.06h0l-.17,0L38.15,28s0,0-.09,0-.07,0-.06-.05c-.18-.05-.17,0-.19,0s-.14,0-.09-.05a3.5,3.5,0,0,1-.46-.16c-.19,0,0,0-.08,0a2.87,2.87,0,0,0-.92-.18c.08.06-.08,0-.14.05s-.29-.07,0-.07h-.17c-.11,0,.28,0,.11-.06a3.12,3.12,0,0,1-.53,0c.08,0-.17,0-.11,0a.48.48,0,0,1,.17,0h0c-.41,0-.12,0-.33.07s-.2,0-.22,0a1,1,0,0,0-.23,0c.16,0,.29,0,.22,0a1,1,0,0,0-.44,0c.36,0,.25,0,.58,0,0,0,0-.06.24,0-.13,0,0,0,0,0s.14,0,.2,0-.12.05.08.07l0-.05c.08,0,0,0,.13,0-.09,0,0,.05-.2,0a1.86,1.86,0,0,0,.62,0h0a.6.6,0,0,1,.19,0c.14,0-.11,0-.07,0a.93.93,0,0,1,.22,0h0a.21.21,0,0,1,.13,0c-.07,0-.09,0-.14,0h.24s.18.06,0,.05l.34,0,0,.05c.08,0,.09,0,0,0,.12,0,.52.08.44.13a3.2,3.2,0,0,1,.67.18c-.24-.06.25.15,0,.06.14.08.18.05.3.09s0,.08-.08,0l.14,0h0l.13,0c.11.07,0,0,.13.1l0,0,.07.07s.05,0,.14,0h0l.11.05c-.12,0,.09.06,0,0l.26.14v0c.22.1,0,0,.16.14v0c.22.19.42.25.58.38-.1-.06-.09,0-.09,0,.17.08.38.29.55.38s0,.09.18.22.12.11.17.12.29.26.27.29.09.09.16.12v0c.13.21.3.28.42.49l0,0L42,31s0,0,0,0a2.63,2.63,0,0,1,.29.37l0-.09a2.13,2.13,0,0,1,.18.22c-.14-.13.09.13.09.17l-.07-.08c.08.11.08.11.1.09.11.14,0,.13.14.25l-.06-.1s.06,0,.1.09,0,.07,0,0c.08.12.18.31.22.36s0,.06,0,0c.17.25.07.12.23.38h0l.06.09,0,.15v-.06c0,.09.08.14.12.25l0,0c.14.25.1.32.22.55l0,0c.12.22,0,.19.16.41,0,0,0,0,0,0l0,.1h0l.06.08v.07l0,0c0,.13.06.28.06.45l0,0a5.23,5.23,0,0,1,.18,1.43h0l.05.2c0,.11,0-.06,0,0,0,.22.06.09.05.35s0,0,0-.11a5.79,5.79,0,0,1,0,.76s0,0,0,0a2.61,2.61,0,0,1-.08.54s0-.05,0-.09a.71.71,0,0,0,0,.2v-.07a2,2,0,0,1-.09.42s0,0,0,.11-.07.31-.15.48c0,0,0-.15,0-.12a.85.85,0,0,0,0,.26v0c0,.14-.07.29-.12.42s-.16.39-.17.35c-.07.14.06-.12,0,.07,0,0-.06.17-.08.15v0l-.05.12V40c0,.12-.06.2,0,.22s-.13.24-.18.27v0c-.15.28-.3.43-.41.65,0,0,0,0,0,0l-.11.16v0l-.16.28h0a6,6,0,0,1-.5.65l0,0a4.21,4.21,0,0,1-.32.39v0l-.14.14,0,0c-.08.12-.33.26-.25.22a1,1,0,0,0-.14.21c-.15.15,0,0-.15.1s-.13.13-.3.26v0l-.22.2,0,0c-.16.16-.24.14-.35.29s-.23.14-.24.11a5.12,5.12,0,0,1-.64.43c-.06,0-.05,0-.22.08l0,0a7.94,7.94,0,0,1-1.19.45l0,0-.07.06a9,9,0,0,1-1.39.28,2.21,2.21,0,0,1-.48.1h0a7.2,7.2,0,0,1-1.05,0s0,0,0,0-.21,0-.29,0l.09,0a.54.54,0,0,1-.3-.05H34l-.08,0a1.62,1.62,0,0,0-.33,0s-.16-.06,0,0a4.12,4.12,0,0,1-.58-.15L33,45s-.17,0-.26-.05c.12,0,0,0,0-.07s.06.05,0,.05l-.35-.1h.06c-.14,0-.18-.1-.31-.16s-.19-.08-.19,0c-.16-.06-.05,0-.1-.08a.87.87,0,0,1-.32-.16c-.12,0-.41-.26-.47-.23L31,44.12s-.05,0-.15,0,0-.08-.07-.11h-.09A9.3,9.3,0,0,1,29,42.5a6.38,6.38,0,0,1-.7-.81l0,0-.2-.31.13.23-.14-.17c-.2-.34-.46-.81-.68-1.25-.2-.26-.05-.21-.2-.47l0,0c-.13-.3-.23-.45-.34-.76.07,0-.06-.21,0-.19l0,0c0-.07-.05-.24,0-.22l-.07-.13,0,0a2.79,2.79,0,0,1-.09-.7,6.06,6.06,0,0,1-.11-.86c0-.32,0-.66.05-1a1.42,1.42,0,0,1,0-.4l0-.14A1.44,1.44,0,0,1,26.8,35v0a3,3,0,0,0,.06-.4c0-.16.1-.29.11-.24s.11-.31.11-.31l.11-.33c.09-.19.19-.49.37-.84a9.33,9.33,0,0,1,1.68-2.37,8.8,8.8,0,0,1,2.66-1.88,12.54,12.54,0,0,1,2.24-.75c.06,0,.24-.07.17-.09.14,0,.21,0,.24,0-.2,0,0-.07-.14-.08l.12,0s-.16,0-.14,0l0,.05a.35.35,0,0,1-.19,0,.6.6,0,0,1-.36.11h.06c-.18,0-.11,0-.15,0h-.12c.12,0,.3-.06.2-.05s.06,0-.1,0-.07,0-.07,0l-.18.05s.12,0,0,0l-.22.08c-.05,0-.23.08-.35.05.16-.05,0,0,0,0a1.66,1.66,0,0,0-.38.11s.09-.05,0,0-.11.06-.15.07-.29.1-.29.06c-.27.08-.09.08-.34.16,0,0,.19-.09.07-.06l-.23.12a.21.21,0,0,1,.12-.1,6.54,6.54,0,0,0-1.62.76c-.09,0,0-.05.09-.11-.37.33-.6.35-.91.63v0A6.83,6.83,0,0,0,28,30.86L28,30.8c0,.09-.13.2-.18.3s0-.09-.1.06c0,0,.08-.08.08-.06a8.87,8.87,0,0,0-1.33,2.34,9.18,9.18,0,0,0-.56,3.81c0-.19,0-.11,0,0a5,5,0,0,0,.09,1.08,8,8,0,0,0,.63,1.94l0,0a2.12,2.12,0,0,0,.11.21h0c.11.23.25.49.32.62h0c.08.13,0,.08.12.2h0l.12.14c-.06,0,.2.36.26.46s.34.45.53.66a5.89,5.89,0,0,0,.39.51,13.86,13.86,0,0,0,1.22,1.09v0l.12.09s0,0,0,0,.29.18.37.26-.08-.06-.15-.11,0,0,.15.07h0l.1,0s.08.09.07.12a13,13,0,0,0,1.18.59c-.06,0,.33.14.22.14.29.11,0,0,.11,0s.16,0,.17.08,0,.05,0,0l.19.06h0a8,8,0,0,0,1,.3s-.14,0-.11,0c.37,0,.31.11.66.15h-.08a1.11,1.11,0,0,1,.35,0s-.16,0-.25,0c.13,0,.45.05.35,0a2.77,2.77,0,0,1,.29.05s-.14,0-.05,0a4.66,4.66,0,0,0,.77,0s0,0,0,0C35.37,46,35.35,46.08,35.63,46.07Z"/><path class="cls-4" d="M44.43,37.45s0,.07,0,.1,0,0,0,.05A.76.76,0,0,0,44.43,37.45Z"/><path class="cls-4" d="M42.69,41.8v0S42.69,41.81,42.69,41.8Z"/><path class="cls-4" d="M42,42.73c0-.06,0,0,0,0S42,42.75,42,42.73Z"/><path class="cls-4" d="M44.22,34.78s0,0,0,0Z"/><path class="cls-4" d="M40.14,28.87l0,0Z"/><path class="cls-4" d="M40.45,29.14l.07,0S40.47,29.14,40.45,29.14Z"/><path class="cls-4" d="M44.41,36.56a.22.22,0,0,0,0,.08S44.42,36.57,44.41,36.56Z"/><polygon class="cls-4" points="40.59 29.23 40.67 29.3 40.67 29.29 40.59 29.23"/><path class="cls-4" d="M40,28.8l.11.07Z"/><path class="cls-4" d="M43.24,32.28h0C43.3,32.35,43.27,32.31,43.24,32.28Z"/><polygon class="cls-4" points="40.97 29.47 40.98 29.48 41.01 29.49 40.97 29.47"/><path class="cls-4" d="M39.66,28.56l.05,0-.05,0Z"/><path class="cls-4" d="M42.42,31l0,0S42.41,31,42.42,31Z"/><path class="cls-4" d="M43.4,27.86h0A0,0,0,0,0,43.4,27.86Z"/><path class="cls-4" d="M46.51,33l0-.06S46.5,33,46.51,33Z"/><path class="cls-4" d="M40.51,25.68h0l-.23-.12Z"/><path class="cls-4" d="M43.51,44.69a.12.12,0,0,0,.05,0Z"/><path class="cls-4" d="M46.89,38.08a.34.34,0,0,1,0,.1A.19.19,0,0,0,46.89,38.08Z"/><path class="cls-4" d="M38.88,24.52l.09.06S38.94,24.54,38.88,24.52Z"/><path class="cls-4" d="M35.13,24h0S35.14,24,35.13,24Z"/><path class="cls-4" d="M36.59,24.18h.11C36.65,24.19,36.6,24.17,36.59,24.18Z"/><path class="cls-4" d="M36.75,24.2h0Z"/><path class="cls-4" d="M33.41,24.51a2.46,2.46,0,0,0,.29-.07Z"/><path class="cls-4" d="M33.19,48.54h0Z"/><path class="cls-4" d="M33.52,24.26h0Z"/><path class="cls-4" d="M40.76,25.28c.11,0,.29.16.31.14S40.82,25.27,40.76,25.28Z"/><path class="cls-4" d="M30.51,48.88l-.07,0Z"/><polygon class="cls-4" points="33.52 24.26 33.43 24.26 33.46 24.27 33.52 24.26"/><polygon class="cls-4" points="24.1 41.6 24.1 41.61 24.11 41.63 24.1 41.6"/><path class="cls-4" d="M23.88,41l.05.12A.87.87,0,0,0,23.88,41Z"/><path class="cls-4" d="M33.7,24.44l.16-.05Z"/><path class="cls-4" d="M23.18,34.37v0Z"/><path class="cls-4" d="M47,37.61v-.06S47,37.55,47,37.61Z"/><polygon class="cls-4" points="46.13 42.44 46.13 42.44 46.13 42.44 46.13 42.44"/><path class="cls-4" d="M46.23,42.19a.66.66,0,0,0-.1.25A1.45,1.45,0,0,0,46.23,42.19Z"/><path class="cls-4" d="M45.84,42.93l0,0Z"/><polygon class="cls-4" points="47.69 37.89 47.69 37.89 47.69 37.9 47.69 37.89"/><path class="cls-4" d="M47.51,39l0,.07Z"/><polygon class="cls-4" points="44.3 45.1 44.3 45.1 44.3 45.11 44.3 45.1"/><path class="cls-4" d="M35.48,49.71a13.78,13.78,0,0,0,3.3-.74,5.41,5.41,0,0,1,.79-.37l.06.06.23-.14c.11,0-.18.11,0,0l.07-.08s.63-.3.25,0a10.28,10.28,0,0,0,.93-.49c.2-.12.08-.12.31-.25.06,0-.07.07,0,.08.69-.38.68-.59,1.25-1l0,0c.09-.09.27-.23.26-.24s-.07.11-.27.21c0-.06.19-.2.15-.22a2.14,2.14,0,0,0,.31-.27c.22-.13.44-.4.61-.5a3.33,3.33,0,0,1,.31-.41c.17-.1,0,.06.2-.11v0c.14-.16.13-.13.13-.11.15-.17.09-.17.28-.37l-.07.14a3.93,3.93,0,0,1,.37-.44s-.06.1-.12.16c.14-.08.15-.22.21-.28s-.16.16-.13.06.16-.26.25-.32L45,44.2a1.83,1.83,0,0,1,.26-.43s0,0,0,0a4.7,4.7,0,0,1,.47-.68l0,.06c.06-.11.08-.19.11-.25-.11.15-.1.1-.13.09.17-.17.12-.35.34-.67a.26.26,0,0,1-.08.19.91.91,0,0,1-.07.42c.06-.14.14-.3.14-.25l0-.07.11-.2s-.14.13-.06-.07.11-.08.11-.12c.13-.29,0-.15.17-.41a.37.37,0,0,1-.05.11c.14-.18.22-.5.31-.53a.17.17,0,0,1,0,.13h0c0,.25.07-.2.1-.1s.09-.29.15-.41l-.06,0c.07-.48.07.06.23-.38.09-.28,0,.1,0-.08a2.37,2.37,0,0,0,.2-.53c0-.07.11-.23.16-.23a4.48,4.48,0,0,0,.16-.63,5.7,5.7,0,0,1-.2.64l0-.11c.07-.24.16-.54.19-.71,0,0,0,0,0,0a6.82,6.82,0,0,1,.09-.79c.05,0,0,.16,0,.3a2.88,2.88,0,0,0,.12-.56s0,.23,0,.28l0-.38h0c0-.06,0-.29,0-.52a3.65,3.65,0,0,0-.07-.94c0-.08,0-.1,0-.07s0,.11,0,.16c0-.18,0-.41.08-.3,0-.3,0,.1-.06-.08l0-.4s0,.19-.06,0,0-.26,0-.49c0,0,0-.08,0,.1a.89.89,0,0,0,0-.35c0,.25-.1-.4-.12-.21v-.25a.84.84,0,0,1,0,.14c0-.08-.05-.2-.07-.28a2.75,2.75,0,0,1,0-.34.94.94,0,0,1,0-.31c0-.11,0,0-.06,0l-.1-.38s.08-.08.1,0c-.06-.14-.09,0-.15-.25.09.11,0-.3.07-.14a2.42,2.42,0,0,0-.22-.68c-.09-.1.06.22,0,.22-.23-.53-.32-.53-.49-.92l0,.1a2,2,0,0,0-.22-.32c.08,0,0-.33-.21-.71,0,0,.07.24,0,.19a1.58,1.58,0,0,0-.15-.24s0,0,0,0c-.15-.21-.19-.45-.28-.48l-.07-.26,0,.1s-.19-.26-.23-.3a1.55,1.55,0,0,1-.32-.47c0,.06,0,.19-.09,0,.07-.05-.26-.41-.23-.43s-.15-.22-.18-.2l0,0c-.07,0-.29-.23-.47-.42.11,0-.2-.21-.21-.35s-.36-.31-.43-.3-.1-.16-.12-.22l-.08,0a3.31,3.31,0,0,0-.5-.51l-.2-.08-.05-.07s-.17-.11-.1,0l-.09-.07s-.13-.09-.33-.2c0,0,0,0,0,0s0-.06-.08-.11-.4-.13-.16.06c0,0-.16-.05-.24-.12l0-.08-.14,0a2,2,0,0,1-.31-.24c.13.08.33.09,0-.12a2.1,2.1,0,0,0,.35.17c-.06,0-.09-.07,0,0-.25-.14-.1,0-.34-.17,0,0,0-.1-.24-.23l.15.12h0c.06,0,.08.06.08.08s-.33-.1-.35-.15c.21.21-.48-.18-.34-.05a.59.59,0,0,1-.22-.12c.23.07-.13-.14-.08-.15s.15.12,0,.08L40,25H40l-.19-.1s.18.12,0,.05-.24-.09-.23-.11.06-.07.22,0c-.13-.05-.56-.22-.41-.1l-.16-.07c.1.06.36.21,0,.09h0l-.23-.06L39,24.58s0,0-.12,0-.1-.06-.09-.07c-.24-.07-.23,0-.27,0s-.19-.06-.11-.07c-.19-.06-.52-.16-.65-.22s.06,0-.1,0A4,4,0,0,0,36.35,24c.1.08-.12,0-.21.06.1,0-.4-.1,0-.09h-.23c-.16-.05.38,0,.15-.08a6.07,6.07,0,0,1-.74,0c.11,0-.23,0-.15,0a.43.43,0,0,1,.23,0l-.05,0c-.57,0-.17.06-.47.1s-.27,0-.29-.06a1.24,1.24,0,0,0-.32,0c.21,0,.39,0,.3.06a1.5,1.5,0,0,0-.61,0c.5.06.34,0,.81.06.06,0,0-.07.32-.06-.17,0,0,0,.06,0s.2,0,.28,0-.17.06.11.1l.06-.08c.1,0,0,.06.18.06-.13,0,0,.06-.28.05a2.5,2.5,0,0,0,.86,0h-.06a1.17,1.17,0,0,1,.26,0c.19,0-.15,0-.11,0a1.54,1.54,0,0,1,.31.05h0a.36.36,0,0,1,.18,0l-.2,0h.33s.25.1,0,.07l.48.08,0,.06c.12,0,.12,0,0,0,.16,0,.72.12.61.18a5.65,5.65,0,0,1,.93.25c-.34-.08.35.21,0,.09.19.11.26.07.42.13s0,.1-.12,0l.2.05h0l.18,0c.16.1,0,.06.18.15l.06,0,.1.08s.07,0,.2.07h0l.16.08c-.16-.06.13.08.05.07a3.84,3.84,0,0,0,.36.18l0,0c.31.13,0,0,.22.18v0c.3.27.58.34.81.54-.15-.09-.14,0-.13,0,.23.12.53.4.77.52,0,.1.05.13.24.31s.17.15.24.17.4.37.38.4.12.12.22.17v0c.18.3.42.39.59.69l0,0,.1.1s0,0-.06,0a5.08,5.08,0,0,1,.41.51l-.06-.12a2,2,0,0,1,.25.31c-.2-.18.13.18.12.23l-.1-.1c.12.15.12.15.14.12.16.2.05.17.2.35l-.08-.14c0-.06.08,0,.13.12s0,.1,0,0c.12.16.26.43.31.49s0,.08,0,0a4,4,0,0,1,.32.52h0l.09.11,0,.21v-.08a3.51,3.51,0,0,1,.18.34l-.06,0c.2.34.13.43.31.76,0,0,0,0,0,0,.17.3,0,.26.22.56,0,0,0,0,0,0a.94.94,0,0,1,.06.15h0l.09.1v.11l0,0c0,.18.09.39.1.62l0,0a7.55,7.55,0,0,1,.25,2h0l.06.28c0,.16,0-.09-.06,0,0,.3.09.13.08.48,0,.18,0-.06,0-.15,0,.33,0,.83,0,1.06,0,0,0,0,0,0a4.22,4.22,0,0,1-.11.76s0-.07,0-.14a1.57,1.57,0,0,0,0,.28l0-.09a3,3,0,0,1-.12.58s0,0,0,.15-.11.43-.21.67c0,0,0-.22,0-.16a1.17,1.17,0,0,0-.08.35v0a4,4,0,0,1-.17.59c-.09.06-.21.53-.24.48-.09.19.1-.16,0,.09-.06.06-.09.24-.12.21v0l-.08.18v-.13c-.05.16-.08.28-.05.3a3.4,3.4,0,0,1-.26.38l0-.06c-.2.39-.42.6-.57.91,0,0,0,0,0,0l-.15.23V43l-.22.39h0c-.16.24-.46.6-.7.9l0-.05c-.25.33-.27.29-.46.53l0,0-.2.2,0-.06a1.86,1.86,0,0,1-.34.3,1.92,1.92,0,0,0-.2.29c-.21.21-.07,0-.21.15s-.18.18-.42.35v0l-.31.27,0,0c-.22.23-.33.2-.49.4s-.32.2-.33.16a6,6,0,0,1-.89.6c-.08,0-.07,0-.3.11l0,0a11.5,11.5,0,0,1-1.65.62l0,0-.09.08a13.86,13.86,0,0,1-1.94.39,4.78,4.78,0,0,1-.67.14h0a11.54,11.54,0,0,1-1.45,0s0,0,0,0a1.26,1.26,0,0,1-.4,0l.12,0a1,1,0,0,1-.42-.07h-.23l0,0,0,0L33,48.5a2.08,2.08,0,0,0-.45,0s-.23-.08-.06,0a5.67,5.67,0,0,1-.81-.21l.12.06s-.24,0-.35-.07c.17,0,0-.05,0-.09s.09.06,0,.06A2,2,0,0,1,31,48h.08c-.19,0-.25-.14-.42-.21s-.27-.12-.27,0c-.23-.09-.07-.08-.14-.12a1.26,1.26,0,0,1-.45-.22c-.16,0-.56-.35-.64-.31L29,47s-.08,0-.22,0-.06-.12-.09-.16h-.13a13.34,13.34,0,0,1-2.26-2,8.56,8.56,0,0,1-1-1.13l0,0-.28-.42.19.32-.2-.24c-.28-.48-.64-1.12-.95-1.73-.27-.36-.07-.29-.28-.66l.06.06c-.18-.42-.32-.63-.48-1.06.1,0-.08-.29,0-.26l0,0c0-.1-.07-.33,0-.3l-.1-.19,0,0a5.1,5.1,0,0,1-.13-1A11.18,11.18,0,0,1,23,37c0-.45,0-.92.06-1.33a2.78,2.78,0,0,1,0-.55l.06-.19a1.78,1.78,0,0,1,.07-.57,0,0,0,0,1,0,0,2.75,2.75,0,0,0,.1-.56c0-.21.14-.4.15-.33s.15-.43.15-.43l.15-.45c.13-.28.28-.69.52-1.17a12.81,12.81,0,0,1,6.05-5.9,16.91,16.91,0,0,1,3.11-1c.09-.05.34-.1.24-.13.19,0,.29,0,.32,0-.26,0,.08-.1-.18-.11l.16,0s-.22.05-.19,0l0,.08a.83.83,0,0,1-.26,0,1,1,0,0,1-.51.14H33c-.25,0-.16,0-.22,0h-.16c.17,0,.42-.08.28-.07-.3,0,.08,0-.14.05s-.1,0-.1,0l-.25.06s.17,0,.06-.05l-.3.11c-.08-.07-.33.11-.49.07.22-.07,0,0,0,0a3.68,3.68,0,0,0-.54.16c-.05,0,.14-.07.06,0s-.16.08-.22.09-.4.14-.4.09c-.37.1-.13.1-.47.22-.06,0,.26-.12.1-.09l-.33.16a.38.38,0,0,1,.17-.13A8.65,8.65,0,0,0,27.84,26c-.13,0,.06-.08.12-.16-.51.45-.84.48-1.26.88v0A9.22,9.22,0,0,0,24.8,28.6l.08-.07a3.77,3.77,0,0,1-.25.41s0-.13-.14.09c0,0,.12-.12.11-.08a11.86,11.86,0,0,0-1.85,3.23,12.68,12.68,0,0,0-.79,5.3c0-.26.06-.15.06.05A5.83,5.83,0,0,0,22.16,39a10.17,10.17,0,0,0,.87,2.7l0,0a1.34,1.34,0,0,0,.15.29h0c.14.31.34.68.44.85h.05c.1.17,0,.1.15.27h0l.16.19c-.07,0,.29.5.38.64s.46.61.73.92a8.13,8.13,0,0,0,.54.7l.78.74c.3.26.63.52.93.77v-.05a.88.88,0,0,0,.17.12s0,0,0,0,.4.25.52.37c-.06-.1-.12-.09-.21-.15s0-.06.2.08h0l.15.06s.1.14.09.18a17.84,17.84,0,0,0,1.64.81c-.08,0,.47.19.31.19.4.15,0-.08.15-.05s.23.08.24.11.07.07,0,.05l.27.08h-.07a11.22,11.22,0,0,0,1.46.42s-.2-.05-.15-.07c.51.06.43.15.91.2l-.11,0a1.4,1.4,0,0,1,.48,0s-.22,0-.34,0c.17,0,.62.05.49,0a1.72,1.72,0,0,1,.39.08s-.19,0-.07,0a6.17,6.17,0,0,0,1.08,0s0,0,0,0C35.12,49.64,35.09,49.73,35.48,49.71Z"/><path class="cls-4" d="M47.72,37.75a.58.58,0,0,1,0,.14s0,0,0,.08A1.55,1.55,0,0,0,47.72,37.75Z"/><path class="cls-4" d="M45.29,43.8l0,.05A.1.1,0,0,0,45.29,43.8Z"/><path class="cls-4" d="M44.35,45.09c.07-.09,0,0-.05,0S44.32,45.12,44.35,45.09Z"/><path class="cls-4" d="M47.43,34.05s0,0,0,0S47.44,34,47.43,34.05Z"/><path class="cls-4" d="M41.73,25.86l0,0Z"/><path class="cls-4" d="M42.17,26.22l.09.06A.24.24,0,0,0,42.17,26.22Z"/><path class="cls-4" d="M47.7,36.52a.41.41,0,0,0,0,.11A1,1,0,0,0,47.7,36.52Z"/><polygon class="cls-4" points="42.36 26.35 42.47 26.44 42.48 26.44 42.36 26.35"/><path class="cls-4" d="M41.58,25.75l.15.11A.72.72,0,0,0,41.58,25.75Z"/><path class="cls-4" d="M46.05,30.58h0C46.14,30.68,46.09,30.62,46.05,30.58Z"/><polygon class="cls-4" points="42.9 26.68 42.91 26.69 42.95 26.71 42.9 26.68"/><path class="cls-4" d="M41.07,25.42l.06,0-.07,0A0,0,0,0,1,41.07,25.42Z"/><path class="cls-4" d="M44.91,28.77s0,0-.06,0S44.91,28.8,44.91,28.77Z"/><path class="cls-4" d="M39,39.92h0Z"/><polygon class="cls-4" points="38.94 39.91 38.95 39.91 38.91 39.9 38.94 39.91"/><path class="cls-4" d="M38.94,39.89c-.08,0,0,0,0,0h0Z"/><path class="cls-4" d="M39.1,39.88h0Z"/><path class="cls-4" d="M39.1,39.88Z"/><path class="cls-4" d="M39.08,39.88h0Z"/><path class="cls-4" d="M39,39.88h0Z"/><path class="cls-4" d="M39.06,39.88h0Z"/><path class="cls-4" d="M39.05,39.88h0Z"/><path class="cls-4" d="M38.86,39.89h0Z"/><path class="cls-4" d="M39.12,39.86h0Z"/><path class="cls-4" d="M39.06,39.87h0Z"/><polygon class="cls-4" points="38.94 39.88 39 39.88 38.94 39.87 38.94 39.88"/><polygon class="cls-4" points="39.12 39.86 39.16 39.86 39.1 39.85 39.12 39.86"/><path class="cls-4" d="M39.11,39.85h0Z"/><path class="cls-4" d="M39.09,39.84h0Z"/><path class="cls-4" d="M39,39.86h0Z"/><polygon class="cls-4" points="39.03 39.86 39.04 39.86 39.04 39.86 39.03 39.86"/><path class="cls-4" d="M39,39.86Z"/><path class="cls-4" d="M39,39.87h0Z"/><path class="cls-4" d="M39,39.86h0Z"/><polygon class="cls-4" points="38.97 39.86 38.98 39.86 38.98 39.86 38.97 39.86"/><path class="cls-4" d="M39.05,39.85h0Z"/><path class="cls-4" d="M39,39.85Z"/><polygon class="cls-4" points="39.03 39.83 39.02 39.83 39.03 39.83 39.03 39.83"/><path class="cls-4" d="M39,39.85h0Z"/><path class="cls-4" d="M39.07,39.84h0Z"/><path class="cls-4" d="M39.05,39.85Z"/><path class="cls-4" d="M39.05,39.85h0Z"/><path class="cls-4" d="M38.74,39.83h0a1.89,1.89,0,0,0,.24,0H39a.26.26,0,0,1-.09,0h-.13Z"/><path class="cls-4" d="M39,39.84Z"/><path class="cls-4" d="M39,39.84h0Z"/><path class="cls-4" d="M38.8,39.86h0Z"/><path class="cls-4" d="M38.82,39.86h0Z"/><path class="cls-4" d="M38.91,39.85h0Z"/><polygon class="cls-4" points="39.05 39.83 39.1 39.83 39.03 39.83 39.05 39.83"/><polygon class="cls-4" points="39.05 39.83 39.09 39.83 39.06 39.83 39.05 39.83"/><path class="cls-4" d="M38.54,39.55h0Z"/><path class="cls-4" d="M38.53,39.56h0S38.53,39.55,38.53,39.56Z"/><path class="cls-4" d="M39,39.7h0Z"/><path class="cls-4" d="M38.77,39.62h0Z"/><path class="cls-4" d="M38.59,39.62h0Z"/><path class="cls-4" d="M38.49,39.5h0Z"/><path class="cls-4" d="M39,39.78h0S39,39.78,39,39.78Z"/><path class="cls-4" d="M39,39.55h0Z"/><path class="cls-4" d="M39.06,39.77h0Z"/><path class="cls-4" d="M38.52,39.34h0Z"/><path class="cls-4" d="M39,39.3Z"/><path class="cls-4" d="M39.07,39.81Z"/><path class="cls-4" d="M38.89,39.81h0Z"/><path class="cls-4" d="M38.78,39.76Z"/><path class="cls-4" d="M39,39.81h0Z"/><path class="cls-4" d="M39.07,39.81h0Z"/><polygon class="cls-4" points="39.06 39.8 39.06 39.81 39.06 39.81 39.06 39.8"/><path class="cls-4" d="M38.65,39.43Z"/><polygon class="cls-4" points="38.57 39.68 38.58 39.68 38.58 39.68 38.57 39.68"/><path class="cls-4" d="M38.54,39.67h0Z"/><path class="cls-4" d="M38.52,39.53h0c-.07,0,.1,0,.08,0h0c-.14,0,0,0-.05,0h-.06s.08,0,.09,0,0,0,0,0h.06c.07,0-.11,0,0,0h.21a.34.34,0,0,1-.1,0h-.1c.07,0,0,0,0,0h0s0,0,0,0h0s0,0,.09,0h-.14s0,0,0,0h0s-.09,0,0,0h.11s-.06,0,0,0h.11c.06,0,0,0,0,0h.18s.15,0,.09,0h-.15s0,0,0,0h0s-.09,0,0,0h.17s0,0,0,0h0s-.08,0,0,0,0,0,0,0h0c.11,0,0,0,0,0H39s0,0,0,0h0c.11,0-.07,0,0,0H39c.09,0,0,0,.06,0h-.1s0,0,0,0h0c.08,0,0,0,.08,0h0s0,0,0,0h0s0,0,0,0h0s0,0,0,0h0c-.11,0,.06,0,0,0h.15c.07,0-.06,0-.08,0h.1s-.11,0,0,0H39s.1,0,0,0H38.9c.18,0-.08,0,.08,0h0s0,0-.05,0H39s.08,0,0,0h0c-.06,0,.14,0,0,0h0l0,0h-.11c.1,0,0,0,.07,0s-.05,0,0,0H39s0,0,0,0h-.07c.09,0-.07,0,.09,0h-.37c.09,0-.13,0,0,0h-.06s0,0,0,0h0c-.1,0,0,0-.12,0h0s0,0,0,0h0s0,0,.06,0h0s0,0,0,0h0c-.08,0,.09,0,0,0,.11,0,.06,0,.09,0h.06a.57.57,0,0,0-.13,0h0c.06,0,0,0,.07,0h0c-.09,0,0,0-.08,0s.06,0,0,0c.11,0,0,0,.07,0h0c.07,0-.13,0-.1,0h.07s.1,0,.07,0h-.09s0,0,0,0h-.12s.08,0,0,0h0s-.06,0,0,0h-.07a.48.48,0,0,1,.12,0h-.08s.11,0,.05,0Zm0,0s0,0,0,0S38.57,39.57,38.55,39.57Zm.13.06s0,0,0,0S38.69,39.63,38.68,39.63Zm.34.17Zm0,0h0Zm0-.38h0Z"/><path class="cls-4" d="M38.61,39.62h0Z"/><polygon class="cls-4" points="38.5 39.5 38.5 39.5 38.49 39.5 38.5 39.5"/><path class="cls-4" d="M38.58,39.74h0Z"/><path class="cls-4" d="M39.09,39.82h0Z"/><path class="cls-4" d="M38.78,39.84Z"/><path class="cls-4" d="M38.92,39.82h0Z"/><path class="cls-4" d="M38.9,39.82Z"/><path class="cls-4" d="M39,39.8h0S39,39.8,39,39.8Z"/><polygon class="cls-4" points="38.78 39.82 38.84 39.82 38.79 39.82 38.78 39.82"/><path class="cls-4" d="M38.82,39.81h0Z"/><path class="cls-4" d="M38.82,39.81h0Z"/><polygon class="cls-4" points="38.77 39.82 38.78 39.82 38.78 39.81 38.77 39.82"/><path class="cls-4" d="M38.83,39.78h0Z"/><path class="cls-4" d="M38.69,39.79h0Z"/><path class="cls-4" d="M38.67,39.78h0Z"/><polygon class="cls-4" points="38.76 39.74 38.76 39.74 38.86 39.74 38.76 39.74"/><path class="cls-4" d="M38.5,39.7s.07,0,0,0h0Z"/><path class="cls-4" d="M38.58,39.7h0Z"/><polygon class="cls-4" points="39.04 39.29 39.06 39.28 39.02 39.29 39.04 39.29"/><path class="cls-4" d="M39,39.28h0Z"/><path class="cls-4" d="M38.42,39.57h0Z"/><polygon class="cls-4" points="38.47 39.54 38.47 39.55 38.53 39.54 38.47 39.54"/><path class="cls-4" d="M38.39,39.52h0Z"/><path class="cls-4" d="M38.58,41.2h0Z"/><polygon class="cls-4" points="38.48 41.19 38.5 41.19 38.45 41.19 38.48 41.19"/><path class="cls-4" d="M38.48,41.18c-.07,0,0,0,0,0h0Z"/><path class="cls-4" d="M38.64,41.18h0Z"/><path class="cls-4" d="M38.64,41.18Z"/><path class="cls-4" d="M38.62,41.18h0Z"/><path class="cls-4" d="M38.57,41.17h0Z"/><path class="cls-4" d="M38.6,41.18h0s0,0,0,0Z"/><path class="cls-4" d="M38.59,41.18h0Z"/><path class="cls-4" d="M38.4,41.18h0Z"/><path class="cls-4" d="M38.66,41.17h0Z"/><path class="cls-4" d="M38.6,41.17h0Z"/><polygon class="cls-4" points="38.49 41.17 38.54 41.18 38.48 41.17 38.49 41.17"/><polygon class="cls-4" points="38.66 41.16 38.7 41.16 38.64 41.16 38.66 41.16"/><path class="cls-4" d="M38.66,41.16h0Z"/><path class="cls-4" d="M38.64,41.16h0Z"/><path class="cls-4" d="M38.58,41.17h0Z"/><polygon class="cls-4" points="38.58 41.16 38.58 41.16 38.58 41.16 38.58 41.16"/><path class="cls-4" d="M38.58,41.17Z"/><path class="cls-4" d="M38.53,41.17h0Z"/><path class="cls-4" d="M38.52,41.17h0Z"/><polygon class="cls-4" points="38.51 41.16 38.52 41.17 38.53 41.17 38.51 41.16"/><path class="cls-4" d="M38.6,41.16h0Z"/><path class="cls-4" d="M38.58,41.16Z"/><polygon class="cls-4" points="38.57 41.15 38.56 41.15 38.57 41.15 38.57 41.15"/><path class="cls-4" d="M38.55,41.16h0Z"/><path class="cls-4" d="M38.62,41.15h0Z"/><path class="cls-4" d="M38.59,41.16h0Z"/><path class="cls-4" d="M38.59,41.16h0Z"/><path class="cls-4" d="M38.29,41.15h0Z"/><path class="cls-4" d="M38.56,41.15h0Z"/><path class="cls-4" d="M38.57,41.16h0S38.56,41.15,38.57,41.16Z"/><path class="cls-4" d="M38.34,41.17h0Z"/><path class="cls-4" d="M38.37,41.17h0Z"/><path class="cls-4" d="M38.45,41.16h0Z"/><polygon class="cls-4" points="38.59 41.15 38.64 41.15 38.58 41.15 38.59 41.15"/><polygon class="cls-4" points="38.59 41.15 38.63 41.15 38.6 41.15 38.59 41.15"/><path class="cls-4" d="M38.08,41h0Z"/><path class="cls-4" d="M38.08,41h0Z"/><path class="cls-4" d="M38.58,41.08h0Z"/><path class="cls-4" d="M38.31,41h0Z"/><path class="cls-4" d="M38.13,41h0Z"/><path class="cls-4" d="M38,41h0Z"/><path class="cls-4" d="M38.57,41.12h0Z"/><path class="cls-4" d="M38.56,41h0Z"/><path class="cls-4" d="M38.6,41.11h0S38.63,41.11,38.6,41.11Z"/><path class="cls-4" d="M38.07,40.87Z"/><path class="cls-4" d="M38.52,40.84h0Z"/><path class="cls-4" d="M38.61,41.14Z"/><path class="cls-4" d="M38.43,41.14h0Z"/><path class="cls-4" d="M38.32,41.11Z"/><path class="cls-4" d="M38.59,41.14h0Z"/><path class="cls-4" d="M38.61,41.14h0Z"/><polygon class="cls-4" points="38.61 41.13 38.6 41.13 38.61 41.13 38.61 41.13"/><path class="cls-4" d="M38.19,40.92Z"/><polygon class="cls-4" points="38.12 41.06 38.12 41.06 38.12 41.06 38.12 41.06"/><path class="cls-4" d="M38.08,41.06h0Z"/><path class="cls-4" d="M38.07,41h0c-.06,0,.11,0,.09,0h0c-.14,0,0,0-.05,0h.15s-.07,0-.06,0,.12,0,0,0h0s0,0,.08,0h-.1a.86.86,0,0,0,.16,0h.11s.15,0,.09,0h-.15s0,0,0,0h0s0,0,0,0h.13s.1,0,.08,0,0,0,.07,0h0s0,0,0,0h0s-.08,0,0,0h0c.11,0,0,0,0,0h-.1c.1,0-.08,0,0,0h-.11s0,0,0,0h0l.09,0h0s0,0,0,0h0c.06,0,0,0,0,0h.14s-.11,0,0,0H38.5s.08,0,0,0h0c-.06,0,.14,0,0,0h0a.4.4,0,0,1-.11,0h.15l.06,0h-.07a.26.26,0,0,1,.09,0h0s-.07,0-.07,0h-.06c.1,0,0,0,.07,0s0,0,0,0h.06c-.05,0,0,0,0,0h-.07c.09,0-.07,0,.1,0h-.38c.09,0-.13,0,0,0h-.1s0,0,0,0h0c-.08,0,.09,0,0,0h0s0,0,0,0h0s-.05,0,0,0h.07c-.06,0,0,0,0,0h-.09s0,0,0,0a.31.31,0,0,1,.1,0h-.11s-.06,0,0,0h0s.11,0,0,0Zm0,0h0Zm.12,0h0Zm.35.1Zm0,0h0Zm0-.22h0Z"/><path class="cls-4" d="M38.15,41h0Z"/><polygon class="cls-4" points="38.04 40.96 38.04 40.96 38.03 40.96 38.04 40.96"/><path class="cls-4" d="M38.12,41.1h0Z"/><path class="cls-4" d="M38.63,41.14h0Z"/><path class="cls-4" d="M38.32,41.15h0Z"/><path class="cls-4" d="M38.46,41.14h0Z"/><path class="cls-4" d="M38.45,41.14h0S38.45,41.15,38.45,41.14Z"/><path class="cls-4" d="M38.57,41.13h0Z"/><polygon class="cls-4" points="38.33 41.14 38.38 41.14 38.34 41.14 38.33 41.14"/><path class="cls-4" d="M38.36,41.14h0Z"/><path class="cls-4" d="M38.37,41.14h0Z"/><polygon class="cls-4" points="38.31 41.14 38.32 41.14 38.33 41.14 38.31 41.14"/><path class="cls-4" d="M38.37,41.12h0Z"/><path class="cls-4" d="M38.23,41.13h0Z"/><path class="cls-4" d="M38.22,41.12h0Z"/><polygon class="cls-4" points="38.3 41.1 38.3 41.1 38.4 41.1 38.3 41.1"/><path class="cls-4" d="M38,41.08h0Z"/><path class="cls-4" d="M38.13,41.08h0Z"/><polygon class="cls-4" points="38.58 40.84 38.6 40.84 38.57 40.84 38.58 40.84"/><path class="cls-4" d="M38.5,40.84h0Z"/><path class="cls-4" d="M38,41h0Z"/><polygon class="cls-4" points="38.01 40.98 38.01 40.99 38.07 40.98 38.01 40.98"/><path class="cls-4" d="M37.93,41h0Z"/><path class="cls-4" d="M39.86,41h0Z"/><polygon class="cls-4" points="39.76 41 39.78 41 39.73 41 39.76 41"/><path class="cls-4" d="M39.76,41c-.07,0,0,0,0,0h0Z"/><path class="cls-4" d="M39.92,41s0,0,0,0h0Z"/><path class="cls-4" d="M39.92,41Z"/><path class="cls-4" d="M39.9,41h0Z"/><path class="cls-4" d="M39.85,41h0Z"/><path class="cls-4" d="M39.88,41h0Z"/><path class="cls-4" d="M39.87,41h0S39.88,41,39.87,41Z"/><path class="cls-4" d="M39.68,41h0Z"/><path class="cls-4" d="M39.94,41h0Z"/><path class="cls-4" d="M39.88,41h0Z"/><polygon class="cls-4" points="39.77 40.98 39.82 40.98 39.76 40.98 39.77 40.98"/><polygon class="cls-4" points="39.94 40.96 39.98 40.96 39.92 40.96 39.94 40.96"/><path class="cls-4" d="M39.94,41h0S40,41,39.94,41Z"/><path class="cls-4" d="M39.92,41h0Z"/><path class="cls-4" d="M39.86,41h0Z"/><polygon class="cls-4" points="39.86 40.96 39.86 40.96 39.86 40.96 39.86 40.96"/><path class="cls-4" d="M39.86,41Z"/><path class="cls-4" d="M39.81,41h0Z"/><path class="cls-4" d="M39.8,41h0Z"/><polygon class="cls-4" points="39.79 40.97 39.8 40.97 39.81 40.97 39.79 40.97"/><path class="cls-4" d="M39.88,41h0Z"/><path class="cls-4" d="M39.86,41Z"/><polygon class="cls-4" points="39.85 40.94 39.84 40.94 39.85 40.94 39.85 40.94"/><path class="cls-4" d="M39.83,41h0Z"/><path class="cls-4" d="M39.9,41h0Z"/><path class="cls-4" d="M39.87,41Z"/><path class="cls-4" d="M39.87,41h0Z"/><path class="cls-4" d="M39.57,40.94h0Z"/><path class="cls-4" d="M39.84,41Z"/><path class="cls-4" d="M39.84,41h0Z"/><path class="cls-4" d="M39.62,41h0Z"/><path class="cls-4" d="M39.65,41h0Z"/><path class="cls-4" d="M39.73,41h0Z"/><polygon class="cls-4" points="39.87 40.94 39.92 40.94 39.85 40.94 39.87 40.94"/><polygon class="cls-4" points="39.87 40.94 39.91 40.94 39.88 40.94 39.87 40.94"/><path class="cls-4" d="M39.36,40.7h0Z"/><path class="cls-4" d="M39.36,40.7h0Z"/><path class="cls-4" d="M39.86,40.83h0Z"/><path class="cls-4" d="M39.59,40.76h0Z"/><path class="cls-4" d="M39.41,40.76h0Z"/><path class="cls-4" d="M39.31,40.66h0Z"/><path class="cls-4" d="M39.85,40.89h0Z"/><path class="cls-4" d="M39.84,40.7h0Z"/><path class="cls-4" d="M39.88,40.89h0Z"/><path class="cls-4" d="M39.35,40.52Z"/><path class="cls-4" d="M39.8,40.48h0Z"/><path class="cls-4" d="M39.89,40.92Z"/><path class="cls-4" d="M39.71,40.92h0Z"/><path class="cls-4" d="M39.6,40.88Z"/><path class="cls-4" d="M39.87,40.92h0Z"/><path class="cls-4" d="M39.89,40.92h0Z"/><polygon class="cls-4" points="39.88 40.92 39.88 40.92 39.89 40.92 39.88 40.92"/><path class="cls-4" d="M39.47,40.6h0S39.46,40.59,39.47,40.6Z"/><polygon class="cls-4" points="39.4 40.81 39.4 40.81 39.4 40.81 39.4 40.81"/><path class="cls-4" d="M39.36,40.81h0Z"/><path class="cls-4" d="M39.34,40.68h0c-.06,0,.11,0,.09,0h0s0,0,0,0h.07c.07,0-.11,0,0,0h0c.07,0,0,0,0,0h0s-.07,0-.06,0,.12,0,0,0h0s0,0,.08,0h-.13s0,0,0,0h0s.09,0,0,0h.12c.06,0,0,0,0,0h.18s.15,0,.09,0h-.16s0,0-.06,0h.14s.08,0,.06,0h0s-.09,0,0,0h.18s0,0,0,0h0s-.08,0,0,0,0,0,0,0h0c.11,0,0,0,0,0H39.8s0,0,0,0h0c.1,0-.08,0,0,0s0,0,0,0h-.06c.08,0,0,0,.06,0h-.11s0,0,0,0h0c.08,0,0,0,.09,0h0s0,0,0,0h.09a.63.63,0,0,0-.18,0h.05s0,0,0,0h0s0,0,0,0h0c.06,0,0,0,0,0h.14s-.11,0,0,0h-.08s.1,0,0,0h-.06c.17,0-.09,0,.07,0h0s0,0-.07,0h0s.09,0,0,0h0c-.06,0,.14,0,0,0h-.1c.1,0,0,0,.1,0l.06,0h0s0,0,0,0h-.12c.1,0,0,0,.07,0h0s0,0,0,0h-.07c.09,0-.07,0,.1,0,0,0,0,0,0,0h-.34c.09,0-.13,0,0,0h0s0,0-.06,0h.1c-.1,0,0,0-.12,0h0s0,0,0,0h0s0,0,.05,0h0c-.08,0,.09,0,0,0h.15a.61.61,0,0,0-.14,0h.05s.12,0,.07,0h-.17c.11,0,0,0,.07,0h-.08s-.05,0,0,0h.1c.06,0-.13,0-.11,0s0,0,0,0h0s.11,0,.07,0h-.11s-.06,0,0,0h0s-.06,0-.08,0h0Zm0,0h0Zm.12.06s0,0,0,0A0,0,0,0,1,39.5,40.77Zm.35.14h0Zm0,0h0Zm0-.32h0S39.79,40.59,39.81,40.59Z"/><path class="cls-4" d="M39.43,40.76h0Z"/><polygon class="cls-4" points="39.32 40.66 39.32 40.66 39.31 40.66 39.32 40.66"/><path class="cls-4" d="M39.4,40.87h0Z"/><path class="cls-4" d="M39.91,40.93h0Z"/><path class="cls-4" d="M39.6,41h0S39.61,40.94,39.6,41Z"/><path class="cls-4" d="M39.74,40.93h0Z"/><path class="cls-4" d="M39.73,40.93h0S39.73,40.93,39.73,40.93Z"/><path class="cls-4" d="M39.85,40.92h0S39.83,40.91,39.85,40.92Z"/><polygon class="cls-4" points="39.6 40.93 39.66 40.93 39.62 40.93 39.6 40.93"/><path class="cls-4" d="M39.64,40.92h0Z"/><path class="cls-4" d="M39.65,40.92h0Z"/><polygon class="cls-4" points="39.59 40.93 39.6 40.93 39.6 40.93 39.59 40.93"/><path class="cls-4" d="M39.65,40.9h0Z"/><path class="cls-4" d="M39.51,40.9h0Z"/><path class="cls-4" d="M39.5,40.9h0Z"/><polygon class="cls-4" points="39.58 40.86 39.58 40.86 39.68 40.86 39.58 40.86"/><path class="cls-4" d="M39.32,40.83h0Z"/><path class="cls-4" d="M39.41,40.83h0Z"/><polygon class="cls-4" points="39.86 40.48 39.88 40.47 39.85 40.47 39.86 40.48"/><path class="cls-4" d="M39.78,40.47h0Z"/><path class="cls-4" d="M39.24,40.72h0Z"/><polygon class="cls-4" points="39.29 40.7 39.29 40.7 39.35 40.69 39.29 40.7"/><path class="cls-4" d="M39.21,40.67h0S39.29,40.67,39.21,40.67Z"/><path class="cls-4" d="M34.66,30.23l0,0S34.66,30.25,34.66,30.23Z"/><polygon class="cls-4" points="34.57 30.31 34.58 30.29 34.55 30.33 34.57 30.31"/><path class="cls-4" d="M34.52,30.28c0,.08,0,0,0,0v0l0-.06S34.52,30.31,34.52,30.28Z"/><path class="cls-4" d="M34.55,30.13s0,0,0,0h0Z"/><path class="cls-4" d="M34.56,30.13Z"/><path class="cls-4" d="M34.52,30.13l0,0s0,0,0,0Z"/><path class="cls-4" d="M34.5,30.18h0S34.51,30.16,34.5,30.18Z"/><path class="cls-4" d="M34.52,30.15l0,0s0,0,0,0Z"/><path class="cls-4" d="M34.52,30.17s0,0,0,0S34.54,30.16,34.52,30.17Z"/><path class="cls-4" d="M34.48,30.35v0l0,0S34.49,30.33,34.48,30.35Z"/><path class="cls-4" d="M34.5,30.08l0,.06,0,0A.08.08,0,0,1,34.5,30.08Z"/><path class="cls-4" d="M34.47,30.14l0,0A0,0,0,0,0,34.47,30.14Z"/><polygon class="cls-4" points="34.46 30.25 34.5 30.21 34.46 30.25 34.46 30.25"/><polygon class="cls-4" points="34.47 30.06 34.49 30.03 34.46 30.08 34.47 30.06"/><path class="cls-4" d="M34.45,30.06s0,0,0-.06l0,0S34.45,30,34.45,30.06Z"/><path class="cls-4" d="M34.42,30.07l0,0Z"/><path class="cls-4" d="M34.44,30.15a.11.11,0,0,0,0,0l0,0Z"/><path class="cls-4" d="M34.44,30.14Z"/><path class="cls-4" d="M34.45,30.15h0Z"/><path class="cls-4" d="M34.46,30.21a.1.1,0,0,0,0,.08A.15.15,0,0,1,34.46,30.21Z"/><path class="cls-4" d="M34.43,30.2h0s0,0,0,0Z"/><polygon class="cls-4" points="34.42 30.21 34.43 30.2 34.42 30.19 34.42 30.21"/><path class="cls-4" d="M34.41,30.11s0,0,0,0,0,0,0,0S34.42,30.11,34.41,30.11Z"/><path class="cls-4" d="M34.43,30.13h0S34.42,30.14,34.43,30.13Z"/><polygon class="cls-4" points="34.35 30.11 34.34 30.11 34.35 30.11 34.35 30.11"/><path class="cls-4" d="M34.4,30.15s0,0,0,0Z"/><path class="cls-4" d="M34.4,30.08v0S34.4,30.07,34.4,30.08Z"/><path class="cls-4" d="M34.43,30.12Z"/><path class="cls-4" d="M34.43,30.12l0,0h0Z"/><path class="cls-4" d="M34.21,30.35s0-.06,0,0a.77.77,0,0,0,.1-.22s0,0,0,.05a.47.47,0,0,1,0,.09s0,0,0,0-.05.06-.08.13l0,0S34.21,30.34,34.21,30.35Z"/><path class="cls-4" d="M34.36,30.13h0s0,0,0-.05,0,0,0,0h0Z"/><path class="cls-4" d="M34.38,30.13a.88.88,0,0,0-.06.1s0,0,0-.05,0,0,0-.05h0v0h0v0h0Z"/><path class="cls-4" d="M34.37,30.37h0Z"/><path class="cls-4" d="M34.37,30.34s0,0,0,0l0,0a.06.06,0,0,0,0-.05h0a.19.19,0,0,1,0-.08Z"/><path class="cls-4" d="M34.37,30.25h0v0Z"/><polygon class="cls-4" points="34.35 30.09 34.38 30.04 34.34 30.1 34.35 30.09"/><polygon class="cls-4" points="34.34 30.08 34.35 30.05 34.34 30.07 34.34 30.08"/><path class="cls-4" d="M33.1,30h0Z"/><path class="cls-4" d="M33.12,30v0A0,0,0,0,1,33.12,30Z"/><path class="cls-4" d="M33.9,29.85s0-.09,0-.05l0,0S33.9,29.84,33.9,29.85Z"/><polygon class="cls-4" points="33.46 29.93 33.46 29.94 33.48 29.9 33.46 29.93"/><path class="cls-4" d="M33.38,30.09v0Z"/><path class="cls-4" d="M32.93,30l0,0S32.92,30,32.93,30Z"/><path class="cls-4" d="M34.15,30v0S34.13,30,34.15,30Z"/><path class="cls-4" d="M33.28,29.58v0S33.28,29.59,33.28,29.58Z"/><path class="cls-4" d="M34.13,30v0h0S34.15,29.94,34.13,30Z"/><path class="cls-4" d="M32.38,29.92Z"/><path class="cls-4" d="M32.11,29.52h0Z"/><path class="cls-4" d="M34.27,30s0,0,0,0Z"/><path class="cls-4" d="M34.21,30.2v0Z"/><path class="cls-4" d="M34,30.19Z"/><path class="cls-4" d="M34.27,30.05h0Z"/><path class="cls-4" d="M34.28,30h0S34.29,30,34.28,30Z"/><polygon class="cls-4" points="34.27 30.03 34.27 30.04 34.27 30.03 34.27 30.03"/><path class="cls-4" d="M32.69,29.8h0S32.69,29.82,32.69,29.8Z"/><polygon class="cls-4" points="33.57 30.21 33.58 30.21 33.58 30.2 33.57 30.21"/><path class="cls-4" d="M33.54,30.23c0-.05,0,0,0,0l.05-.11Z"/><path class="cls-4" d="M33,30v0c0,.06,0,0,0,.09,0-.13,0,0,.09-.13v0h0c0,.07,0-.09,0-.06a.06.06,0,0,1,0,0l0,0v0h0l0-.06s0,0,0,0l0,0s0,.06,0,.06,0,0,0,.05h0c0,.08,0,.06,0,.11a.52.52,0,0,1,.06-.16s0,0,0,0,0,0,0,0l0,.06a.25.25,0,0,1,0-.07s0,.05,0,.09,0-.08,0-.08,0,0,.05,0,0,0,0,.05l0,0v0s0-.06,0-.07,0,.1,0,0,0,0,0,.06l.08-.09v0a.29.29,0,0,1,.08-.13l0-.06,0,0a.09.09,0,0,1,0,0h0a.23.23,0,0,1,0,.09v0a.39.39,0,0,0-.06.11,0,0,0,0,1,0,0v0s0,0,0,0l0,.07,0,0v.05a.9.9,0,0,1,.14-.17c0,.05,0,.08-.07.14s0,0,0,0,0,0,0,0l0,0s0,0,0,.06,0-.05.07-.08,0,.06,0,.05.07-.1.05,0h0s0,0,0,0h0s0,0,.1-.05l-.07.11.17-.24a2,2,0,0,1-.14.26s0,0,0,0,0-.1.06-.1a.76.76,0,0,0,0,.11l.07-.11-.06.11.07-.09a.45.45,0,0,0-.06.12s0,0,0,0v0s.09-.13.11-.12a1.09,1.09,0,0,0-.08.15c0-.05.16-.24.2-.28v0l0,0c-.06.07-.17.23-.21.29s0,0,0,0,0,0,0,0v0c0-.07,0-.06.08-.11l-.06.05c0-.06.11-.16.12-.14l-.07.12s0,0,0,0l0,0s.06-.07,0,0,0,.09,0,.05A2.74,2.74,0,0,1,34,30s0,.08,0,.11-.08.13-.1.18l0,0s0,.05,0,.05,0,0,0-.05,0,0,0,0,.09-.13.1-.15l0,.05s0,0,0,.06,0,0,0,.06,0,0,0,0,0,0,0,.08a.22.22,0,0,1,.06-.07c0-.05,0,0,0,0a.66.66,0,0,1,.14-.17s0,.05,0,0,.09-.12.08-.06a.46.46,0,0,1-.07.14s0,0,0,0v0s0,0,0,0,0,0,0,.08a.09.09,0,0,0,0,0h0c0-.05,0-.05,0-.08s.06-.06.06,0l0,.06s0,0,0,0,0,.08,0,0v0s.07-.08.07-.06,0,0,0-.06,0,0-.06.07a.61.61,0,0,0,0-.11s0,0,0,0h0v0l-.06.06s0,0,0-.05l0,0s0-.07,0-.09h0s0,0,0,0,0,0,0,0l0,0h0s-.07,0,0,0h0l0,0s0-.05,0,0,0,0,0-.07l0,.05s0,0,0,0l0,0s0,0,0-.05,0,0,0,0-.08,0-.06,0,0,0,0,0h0v0h0l0-.05h0s0,0,0,.05l0,0c0-.08,0,0,0-.06s0,0-.09.09v0s0,0,0,0l0-.06-.05.07a.24.24,0,0,1,.05-.1c-.05.06,0,0-.08.08l0,0s0,0,0,0,0,0,0-.12c0,.11,0-.06,0,0s0-.05,0-.07,0-.05,0,0l0-.06h0s0,0,0,0-.06.07-.1.15,0,0,0,0,0-.05,0-.05,0-.06,0,0h0c0,.07,0,0,0,0h0c0-.07,0,0,0-.05l0,0c0,.1,0-.07,0,0v0s0-.14,0-.15v0c0-.07,0,.06,0,.06s0-.08,0-.09-.07.1-.06,0a.11.11,0,0,1,0,.07s0-.11,0,0v0a.17.17,0,0,0-.07.06c.06-.16-.07.06,0-.09h0s0,0,0,.05,0,0,0,0,0,0-.07,0l0-.05s0-.09-.06,0v0c0,.06,0-.15-.09,0l0,0s0,.08,0,.11,0-.06,0-.07h0c0-.09,0,0,0-.1s-.09-.07-.13-.08v.08h0s0-.06,0-.06,0,0,0,.05,0-.08,0-.09h0s0,.06,0,.06a.08.08,0,0,1,0-.05h0v.06s0,0,0,.07c0-.11-.07,0-.08-.08s0,.05,0,0,0,.08,0,.07,0-.06,0-.16c0,.07,0,0,0,.11s0-.05,0-.08-.06,0-.09,0a.16.16,0,0,1,0,.07l0-.09s0,.11,0,.05a.06.06,0,0,1,0,0c-.08-.08-.12.09-.22-.05,0,0,0,0,0,0a.12.12,0,0,1,0,.07l0-.06c0,.07,0,0,0,.08v0c0,.08.07.16.1.26,0-.09.06.11,0,0l0,.05s0-.05,0,0h0s0,0,.07,0v0l0,0c0-.07,0,0,0-.08,0,.1.05,0,.07.11s0-.06,0-.06v0a.12.12,0,0,1,0,.07h0s0,0,0,0v0s.05,0,.07-.06v0s0,0,0,0h0s0,0,0,0,0,.05,0,.08,0,0,0-.12v0s0-.05,0-.06,0,.05,0,.1,0-.08,0,0c0-.11,0-.06,0-.08s0-.08,0-.07,0,.14,0,.13h0s0,0,0,0,0,0,0-.08l0,0s0-.11.05-.06l0,0s0,0,0,0,0,0,0,.07,0-.06,0,0c0-.11,0,0,0-.07v0s0,0,0,0l0,.07c0-.06,0,0,0,0s0-.06,0-.1,0,.13,0,.11,0,0,0,0,0,0,0,.06,0-.05,0-.08,0,0,0,0v.05s0-.1,0-.06l0,.07v0s0,0,0,0,0-.09,0-.09,0,0,0,0,0,.07,0,0v0s0,0,0,0h0l0-.07a.43.43,0,0,1,0,.05l0,0,0,.1,0,0s0,.05,0,.06,0-.07,0,0v0s0,.06,0,0l0,.08s0-.1,0-.12,0,.07,0,.09.06-.1,0,0Zm.16,0s0,0,0,0S33.18,30,33.18,30Zm.26,0s0,0,0,0Zm.77,0h0S34.21,30,34.21,30Zm0,0v0h0S34.21,30.08,34.22,30.07Zm-1.54-.61v0Z"/><path class="cls-4" d="M33.39,30.07v0S33.39,30.06,33.39,30.07Z"/><polygon class="cls-4" points="32.93 30.01 32.93 30.01 32.93 30.02 32.93 30.01"/><path class="cls-4" d="M33.81,30.34v0S33.81,30.33,33.81,30.34Z"/><path class="cls-4" d="M34.32,30h0Z"/><path class="cls-4" d="M34.26,30.34h0v0S34.25,30.33,34.26,30.34Z"/><path class="cls-4" d="M34.25,30.18s0,0,0,0h0C34.28,30.15,34.27,30.17,34.25,30.18Z"/><path class="cls-4" d="M34.26,30.2h0S34.26,30.2,34.26,30.2Z"/><path class="cls-4" d="M34.25,30.05l0,0S34.22,30.07,34.25,30.05Z"/><polygon class="cls-4" points="34.2 30.31 34.22 30.26 34.2 30.3 34.2 30.31"/><path class="cls-4" d="M34.17,30.25v0S34.17,30.24,34.17,30.25Z"/><path class="cls-4" d="M34.18,30.25s0,0,0,0Z"/><polygon class="cls-4" points="34.18 30.31 34.18 30.3 34.17 30.3 34.18 30.31"/><path class="cls-4" d="M34.07,30.19h0s0,0,0,0Z"/><path class="cls-4" d="M34,30.33v0l0,.06Z"/><path class="cls-4" d="M34,30.33s0,0,0,0S34,30.35,34,30.33Z"/><polygon class="cls-4" points="33.88 30.17 33.89 30.17 33.94 30.08 33.88 30.17"/><path class="cls-4" d="M33.63,30.32s0-.06,0,0,0,0,0-.05S33.66,30.26,33.63,30.32Z"/><path class="cls-4" d="M33.68,30.25h0Z"/><polygon class="cls-4" points="32.05 29.47 32.03 29.46 32.05 29.49 32.05 29.47"/><path class="cls-4" d="M32.06,29.55l0-.06,0,.06S32.05,29.54,32.06,29.55Z"/><path class="cls-4" d="M33.14,30.17v0a0,0,0,0,0,0,0Z"/><polygon class="cls-4" points="33.06 30.08 33.07 30.08 33.08 30.02 33.06 30.08"/><path class="cls-4" d="M33,30.13h0S33,30.05,33,30.13Z"/><path class="cls-4" d="M31.4,31.82s0,0,0,0S31.39,31.81,31.4,31.82Z"/><polygon class="cls-4" points="31.4 31.68 31.41 31.7 31.39 31.66 31.4 31.68"/><path class="cls-4" d="M31.46,31.63c-.05-.05,0,0,0,0h0l0,.05S31.44,31.62,31.46,31.63Z"/><path class="cls-4" d="M31.61,31.71s0,0,0,0h0Z"/><path class="cls-4" d="M31.6,31.72s0,0,0,0Z"/><path class="cls-4" d="M31.62,31.68v0s0,0,0,0S31.64,31.69,31.62,31.68Z"/><path class="cls-4" d="M31.59,31.63h0S31.6,31.65,31.59,31.63Z"/><path class="cls-4" d="M31.6,31.67v0s0,0,0,0S31.59,31.65,31.6,31.67Z"/><path class="cls-4" d="M31.58,31.67a.07.07,0,0,1,0,0S31.57,31.69,31.58,31.67Z"/><path class="cls-4" d="M31.41,31.57h0v0S31.43,31.58,31.41,31.57Z"/><path class="cls-4" d="M31.7,31.65l-.05,0v0Z"/><path class="cls-4" d="M31.65,31.61v0S31.64,31.6,31.65,31.61Z"/><polygon class="cls-4" points="31.54 31.57 31.56 31.63 31.54 31.57 31.54 31.57"/><polygon class="cls-4" points="31.74 31.62 31.76 31.65 31.73 31.6 31.74 31.62"/><path class="cls-4" d="M31.76,31.59s0,0,0,.05a.17.17,0,0,0,0-.05S31.78,31.6,31.76,31.59Z"/><path class="cls-4" d="M31.77,31.55l0,0S31.78,31.57,31.77,31.55Z"/><path class="cls-4" d="M31.67,31.57l0,0,0,0Z"/><path class="cls-4" d="M31.67,31.57Z"/><path class="cls-4" d="M31.66,31.57h0Z"/><path class="cls-4" d="M31.59,31.57a.13.13,0,0,0-.06-.07Z"/><path class="cls-4" d="M31.62,31.54h0s0,0,0,0Z"/><polygon class="cls-4" points="31.62 31.52 31.62 31.54 31.63 31.54 31.62 31.52"/><path class="cls-4" d="M31.73,31.54v0h0S31.72,31.55,31.73,31.54Z"/><path class="cls-4" d="M31.7,31.55h0Z"/><polygon class="cls-4" points="31.78 31.46 31.77 31.45 31.78 31.46 31.78 31.46"/><path class="cls-4" d="M31.69,31.51s0,0,0,0,0,0,0,0Z"/><path class="cls-4" d="M31.77,31.52h0Z"/><path class="cls-4" d="M31.7,31.56h0Z"/><path class="cls-4" d="M31.7,31.56v0Z"/><path class="cls-4" d="M31.6,31.24s0,.06,0,0a.67.67,0,0,0,.17.17.11.11,0,0,1,0-.05s-.06,0-.07,0,0,0,0,0,0-.07-.09-.12v0Z"/><path class="cls-4" d="M31.75,31.47h0l.05,0a.05.05,0,0,0,0,0Z"/><path class="cls-4" d="M31.73,31.49s0-.06-.07-.08,0,0,0,.05,0,0,.05,0a0,0,0,0,1,0,0h0v0s0,0,0,0h0v0S31.74,31.48,31.73,31.49Z"/><path class="cls-4" d="M31.48,31.42h0Z"/><path class="cls-4" d="M31.5,31.43s0,0,0,0l0,0a.05.05,0,0,0,0,0h0l.07,0Z"/><path class="cls-4" d="M31.61,31.46v0l0,0v0S31.6,31.44,31.61,31.46Z"/><polygon class="cls-4" points="31.8 31.47 31.83 31.51 31.79 31.45 31.8 31.47"/><polygon class="cls-4" points="31.81 31.45 31.84 31.48 31.83 31.45 31.81 31.45"/><path class="cls-4" d="M32.58,29.91v0Z"/><path class="cls-4" d="M32.55,29.94h0Z"/><path class="cls-4" d="M32.32,30.93s.09.06,0,0l0,0S32.33,30.94,32.32,30.93Z"/><polygon class="cls-4" points="32.47 30.39 32.45 30.38 32.48 30.41 32.47 30.39"/><path class="cls-4" d="M32.33,30.26h0Z"/><path class="cls-4" d="M32.71,29.68l0,0S32.69,29.67,32.71,29.68Z"/><path class="cls-4" d="M32,31.22h0Z"/><path class="cls-4" d="M32.93,30.23l0,0Z"/><path class="cls-4" d="M32.07,31.21h0s0,0,0,0S32.09,31.24,32.07,31.21Z"/><path class="cls-4" d="M33.32,29Z"/><path class="cls-4" d="M33.85,29h0Z"/><path class="cls-4" d="M31.91,31.38s0,0,0,0Z"/><path class="cls-4" d="M31.77,31.27l0,0Z"/><path class="cls-4" d="M31.92,31Z"/><path class="cls-4" d="M31.89,31.37h0Z"/><path class="cls-4" d="M31.91,31.39h0Z"/><polygon class="cls-4" points="31.92 31.37 31.91 31.38 31.91 31.38 31.92 31.37"/><path class="cls-4" d="M33.11,29.45h0S33.1,29.44,33.11,29.45Z"/><polygon class="cls-4" points="32.1 30.49 32.1 30.49 32.1 30.5 32.1 30.49"/><path class="cls-4" d="M32.09,30.45c0,.05,0,.05,0,0l.1.09Z"/><path class="cls-4" d="M32.64,29.81h0c0-.06,0-.05-.06-.08.1.09,0,.05.07.15h0c-.06,0,.07.08,0,.08l0,0v0h0v0h0l0,.07s0,0,0,0v0s-.05-.06,0-.06,0,0-.06,0v0c-.07,0-.06,0-.11,0s.12.06.14.1,0,0,0,0,0,0,0,0l0,0,0,.07s-.06,0-.09-.05.07,0,.06.07,0,0,0,.07,0,0,0,0l0,0h0s.05,0,.05.07-.1-.05-.05,0l0,0a.6.6,0,0,0,.06.11h0a.26.26,0,0,1,.11.12l0,0v0l0,0h0a.23.23,0,0,1-.07-.07l0,0-.08-.09s0,0,0,0l0,0s0,0,0,0l-.06,0,0,0h0a.53.53,0,0,1,.1.2.55.55,0,0,0-.11-.1c.06,0,0,0,0-.05l0,0,0,.07s0,0-.06,0,0,.06.05.1-.05-.05,0-.06.08.1,0,.07v0s0,0,0,0h0s-.06.06,0,.13l-.08-.09.18.24c-.05-.06-.2-.17-.21-.22s0,0,0,0a.31.31,0,0,1,.09.07l-.11-.05s.1.09.09.1l-.09-.1.06.1a.76.76,0,0,0-.09-.09s0,0,0,0h0s.1.14.07.15-.1-.1-.12-.1a1.26,1.26,0,0,1,.2.27l0,0,0,0c-.06-.07-.17-.23-.21-.29s0,0,0,0a0,0,0,0,1,0,0h0c.05.05,0,.07.07.11l0-.08c.05.05.13.16.1.17a.5.5,0,0,1-.1-.11s0,.05,0,0l0,0s.05.08,0,0-.08,0-.05,0a3.58,3.58,0,0,1,.28.26L32,30.93c-.05,0-.1-.12-.14-.15s0,0,0,0,0,0-.05,0,0,0,0,0,0,0,0,0A.6.6,0,0,1,32,31s0,0,0,0-.06,0-.08,0,0,0-.06,0l0,0c-.06,0,0,0-.06-.06a.15.15,0,0,1,0,.08s0,0,0,0a.46.46,0,0,1,.12.19s-.05,0,0,0,.08.13,0,.11-.08-.08-.11-.1,0,0,0,0h0s0,0,0,0-.06,0-.12,0a.1.1,0,0,0,0,.05h0s0,.05.05.06,0,.08,0,.07l-.05,0s0,0,0,0-.08,0,0,0l0,0s0,.09,0,.09,0,0,.06,0,0,0-.05-.09c.07.05,0,0,.1.05s0,0,0,0v0h0l0,0s0-.05,0-.08,0,0,0,0l0,0s.07,0,.08.07h0s0,0,0,0,0-.05,0,0v0h0s0-.1.07-.06,0,0,0,0l0,0s0,0,0,0,.06,0,.09,0l0,0a.07.07,0,0,0,0-.05l0,0s.05,0,.07,0,0,0,0,0,0-.1.07-.07,0,0,0,0h0s0,0,0,0l0,0h0l0,0,0,0c.07,0,0,0,.07,0s0-.05-.06-.11h0s0,0,0,0l0,0,0-.07a.15.15,0,0,1,.09.07c0-.07,0,0,0-.11l0,0s0-.05,0,0,.07-.06.15-.05c-.09-.07.06,0,0,0s0,0,0,0,.06,0,0-.06l0,0s0,0,0,0l0,0s0-.08-.11-.14,0,0,0,0,.05,0,.05,0,.06,0,0-.06,0,0,0,0,0,0,0,0h0c0-.06,0,0,0,0h0c.07,0,0,0,.06,0l0,0c-.08-.07.07,0,0,0l0,0s.13.08.14.08l0,0c.06,0,0-.05,0-.08s.07.07.08.06-.06-.11,0-.08a.1.1,0,0,1-.06-.05s.11,0,0,0h0s0-.05,0-.09c.13.11,0-.11.1,0l0,0h0s0,0,0-.07,0,0,0,0,.05,0,0-.08l0,0s.09,0,.07,0a0,0,0,0,1,0,0c0-.07.17,0,0-.11l0-.05s0-.06-.09-.07.07,0,.06,0h0c.07.06.05,0,.1,0s.12-.06.16-.11l-.07,0h0s.05,0,0,0,0-.05,0-.06.07.07.07.06h0s0-.05,0-.06l0,0h0l0,0-.05,0s0,0,0-.05c.1.05.09-.05.13,0s0-.05,0-.07-.07,0,0-.05.06,0,.15.07,0-.05-.07-.1.05,0,.08.05.07,0,.08-.09,0,0-.05,0l.08,0s-.08-.07,0-.05l0,0c.12,0,0-.17.22-.14,0,0,0,0,0,0l-.05,0h.07s0,0,0-.07h0c0-.05-.15-.08-.23-.14s-.13,0,0,.05l-.05,0s0,0,0,0h0s-.07,0-.12.05l0,0s0,0,0,0,0,0,.08,0c-.09,0-.05.06-.14,0s0,0,0,0l0,0,0,0s0,0-.07,0h0s0,0,0,0h0s-.07.07,0,.14h0c0,.05,0,0,0,.05h0s0,0,0,0l-.07,0c0,.05,0,0,.07.1l0,0s0,0,0,.06,0,0-.07-.07,0,.1-.08,0c.08.08.07,0,.08,0s.05.06,0,.06-.12-.07-.14,0h0s0,0,0,0,0,0,0,.07v0s.07.1,0,.09a.05.05,0,0,1,0,0s0,0,0,0,0,0,0-.09,0,.06,0,0,0,0,0,.08l0,0,0,0L33,29.4c0,.05,0,0,0,0s0,0,.09,0-.12-.06-.13,0,0,0,0,0a.06.06,0,0,1,0,0s0,0,0,.06,0,0,0,.05l0,0c-.05,0,.08.07,0,.07l-.05-.05v0l0,0s0,0,0,0,.07.06.06.07,0,0,0,0,0-.05,0,0l0,0s0,0,0,0a0,0,0,0,1,0,0l0,.07s0,0,0,0,0,0,0,0-.07-.06-.07-.08v.05l-.05,0s0,.08,0,.08v0s-.07,0,0,0l-.06,0s.08.05.08.09-.05,0-.07,0,.07.1,0,.07S32.64,29.82,32.64,29.81Zm-.12.2s0,0,0,0S32.53,30,32.52,30Zm-.15.34s0,0,0,0Zm-.44.95Zm0,0,0,0s0,0,0,0S31.9,31.29,31.9,31.3Zm1.51-1.69h0S33.4,29.59,33.41,29.61Z"/><path class="cls-4" d="M32.35,30.27l0,0Z"/><polygon class="cls-4" points="32.71 29.69 32.72 29.69 32.71 29.68 32.71 29.69"/><path class="cls-4" d="M31.83,30.77h0Z"/><path class="cls-4" d="M31.88,31.44v0h0Z"/><path class="cls-4" d="M31.58,31.3s0,0,0,0h0A0,0,0,0,0,31.58,31.3Z"/><path class="cls-4" d="M31.76,31.33s0,0,0,0h0S31.76,31.35,31.76,31.33Z"/><path class="cls-4" d="M31.73,31.33h0S31.73,31.34,31.73,31.33Z"/><path class="cls-4" d="M31.9,31.34l0,0S31.9,31.3,31.9,31.34Z"/><polygon class="cls-4" points="31.66 31.23 31.69 31.27 31.67 31.23 31.66 31.23"/><path class="cls-4" d="M31.74,31.21h0a0,0,0,0,1,0,0S31.75,31.22,31.74,31.21Z"/><path class="cls-4" d="M31.72,31.23h0S31.73,31.23,31.72,31.23Z"/><polygon class="cls-4" points="31.66 31.21 31.67 31.21 31.68 31.21 31.66 31.21"/><path class="cls-4" d="M31.86,31.1v0s0,0,0,0S31.84,31.09,31.86,31.1Z"/><path class="cls-4" d="M31.72,31l0,0-.05,0Z"/><path class="cls-4" d="M31.75,31s0,0,0,0S31.72,31,31.75,31Z"/><polygon class="cls-4" points="31.98 30.88 31.98 30.88 32.05 30.95 31.98 30.88"/><path class="cls-4" d="M32,30.55s0,.05,0,0,0,0,0,0S32,30.59,32,30.55Z"/><path class="cls-4" d="M32,30.61v0Z"/><polygon class="cls-4" points="33.92 29.03 33.95 29.03 33.91 29.02 33.92 29.03"/><path class="cls-4" d="M33.87,29l.06,0,0,0Z"/><path class="cls-4" d="M32.39,29.94h0Z"/><polygon class="cls-4" points="32.54 29.85 32.54 29.85 32.59 29.89 32.54 29.85"/><path class="cls-4" d="M32.57,29.7h0S32.63,29.74,32.57,29.7Z"/></g></g></svg>