<svg xmlns="http://www.w3.org/2000/svg" viewBox="0 0 306 553.77"><defs><style>.cls-1{fill:#fff4e7;}.cls-2{fill:#58aeda;}.cls-3{fill:#f2c10e;}.cls-4,.cls-5{fill:#fff;}.cls-5{font-size:26.96px;font-family:Optima-Bold, Optima;font-weight:700;}.cls-6{letter-spacing:-0.07em;}.cls-7{letter-spacing:-0.01em;}.cls-8{letter-spacing:-0.03em;}.cls-10,.cls-9{fill:#ef9580;}.cls-9{opacity:0.15;}.cls-10{opacity:0.28;}.cls-11{opacity:0.17;}.cls-12{fill:#f1a08d;}</style></defs><g id="圖層_2" data-name="圖層 2"><g id="圖層_1-2" data-name="圖層 1"><rect class="cls-1" x="1" width="305" height="553.5"/><path class="cls-2" d="M0,553.5,60.62,396q8.31,15.15,16.77,32.88c20,42.23,35.12,85.4,46.48,124.55"/><ellipse class="cls-3" cx="91" cy="309.22" rx="28" ry="28.28"/><path class="cls-2" d="M306,552.67,208,254.22q-9.11,26.25-18.24,53.1-10.56,31-20.77,61.74c-2.31-9-6.26-21.34-12.77-32.11a64.62,64.62,0,0,0-6.92-9.49Q134.77,360.69,120.05,397C98.49,450.38,79.2,503,62,553.77Z"/><path class="cls-4" d="M207,249.5l-30,92.76L194,325q3.5,10.23,7,20.44,5-11,10-22l9,20.44q2-9.43,4-18.87l15,22Q223,298.24,207,249.5Z"/><path class="cls-4" d="M60.65,396.57Q48.82,426.3,37,456l12.53-11,6,13.13L64.06,444q3.85,6.57,7.7,13.13L75.18,445,88,452.88a260.12,260.12,0,0,0-13-31.44A217.77,217.77,0,0,0,60.65,396.57Z"/><path class="cls-4" d="M149.13,325.22,135,361.12l9-12.57v11l7-9.43,4,9.43q1-5.51,2-11l8,7.86a99.83,99.83,0,0,0-6-15.72A75.1,75.1,0,0,0,149.13,325.22Z"/><text class="cls-5" transform="translate(84.02 116)">Fun<tspan class="cls-6" x="43.46" y="0">T</tspan><tspan class="cls-7" x="56.46" y="0">r</tspan><tspan class="cls-8" x="66.62" y="0">a</tspan><tspan class="cls-7" x="79.29" y="0">v</tspan><tspan x="92.45" y="0">eler</tspan></text><circle class="cls-9" cx="230.15" cy="94.11" r="6.69"/><path class="cls-10" d="M233.23,82.9l-.93-1.37c-.29-.31-.33-.7-.19-.84s.6-.14.93.23l1.19,1c2.25-.63,3.41-.84,3.49-.63s-.78.73-2.56,1.63l1.28,1.78c1.22,0,1.51.14,1.53.25s-.69.21-1.29.82-.57,1.06-.71,1-.18-.28-.14-1.35l-1.67-1.6c-1,1.58-1.63,2.33-1.82,2.24S232.44,85,233.23,82.9Z"/><g class="cls-11"><path class="cls-12" d="M235.81,104.11s0,.1,0,.12S235.79,104.08,235.81,104.11Z"/><polygon class="cls-12" points="236.1 103.63 236.12 103.67 236.12 103.53 236.1 103.63"/><path class="cls-12" d="M236.49,103.39c-.15-.15-.12.12-.23.1l0,0,.05.16C236.35,103.54,236.4,103.38,236.49,103.39Z"/><path class="cls-12" d="M236.94,103.62c-.06-.05,0-.08-.06,0h0Z"/><path class="cls-12" d="M236.9,103.65s.06,0,0,0Z"/><path class="cls-12" d="M237.06,103.48v.1s.09,0,.09,0S237.14,103.52,237.06,103.48Z"/><path class="cls-12" d="M237,103.32v.05S237,103.38,237,103.32Z"/><path class="cls-12" d="M237,103.46l0-.09s-.06-.08,0,0C237,103.35,237,103.41,237,103.46Z"/><path class="cls-12" d="M236.94,103.46c-.05,0-.11,0-.09-.11C236.76,103.44,236.86,103.55,236.94,103.46Z"/><path class="cls-12" d="M236.4,103.2l-.08,0v.08S236.43,103.25,236.4,103.2Z"/><path class="cls-12" d="M237.45,103.33s-.09-.08-.12-.12v.07S237.41,103.28,237.45,103.33Z"/><path class="cls-12" d="M237.33,103.21v-.11C237.28,103.14,237.3,103.17,237.33,103.21Z"/><polygon class="cls-12" points="236.9 103.13 236.9 103.32 236.92 103.11 236.9 103.13"/><polygon class="cls-12" points="237.67 103.17 237.7 103.27 237.67 103.11 237.67 103.17"/><path class="cls-12" d="M237.81,103c0,.09.12.09.12.15a.33.33,0,0,0,0-.2C237.93,103,237.89,103.06,237.81,103Z"/><path class="cls-12" d="M237.93,102.87a.57.57,0,0,0,0,.12A.26.26,0,0,0,237.93,102.87Z"/><path class="cls-12" d="M237.45,103.05s.07.07.12.06l-.1-.08Z"/><path class="cls-12" d="M237.47,103h0l.05,0Z"/><path class="cls-12" d="M237.44,103.05h0Z"/><path class="cls-12" d="M237.12,103.11c0-.08,0-.19-.11-.22S237.11,103,237.12,103.11Z"/><path class="cls-12" d="M237.32,103l-.07,0s.06.06.06.1Z"/><polygon class="cls-12" points="237.33 102.9 237.32 102.95 237.35 102.94 237.33 102.9"/><path class="cls-12" d="M237.76,102.87a.11.11,0,0,1,0-.12.17.17,0,0,0-.12,0S237.73,102.9,237.76,102.87Z"/><path class="cls-12" d="M237.61,102.94h0S237.6,102.92,237.61,102.94Z"/><polygon class="cls-12" points="238.1 102.49 238.08 102.48 238.1 102.5 238.1 102.49"/><path class="cls-12" d="M237.66,102.79s0,0,0,.07l.05-.06S237.66,102.77,237.66,102.79Z"/><path class="cls-12" d="M238,102.76l-.09,0S238,102.79,238,102.76Z"/><path class="cls-12" d="M237.64,103h0S237.66,103,237.64,103Z"/><path class="cls-12" d="M237.64,103a.15.15,0,0,0,0-.09.64.64,0,0,1,0,.07Z"/><path class="cls-12" d="M237.67,101.82c.07.09.08.23,0,.18,0,.11.28.37.46.48a.19.19,0,0,1-.05-.17c-.06,0-.21,0-.23-.12s.08,0,.16,0c-.13-.08-.05-.24-.21-.38v.11S237.71,101.83,237.67,101.82Z"/><path class="cls-12" d="M238,102.56v0a.53.53,0,0,1,.18,0,.23.23,0,0,0,0-.14l-.13.08Z"/><path class="cls-12" d="M237.85,102.68c-.06-.11,0-.2-.16-.27s0,.12,0,.19c.09-.11,0,.08.14.07a.15.15,0,0,1,0,.08h.07l0,0c.05,0,0,0,0,0l0,0h0l.07-.15A.22.22,0,0,0,237.85,102.68Z"/><path class="cls-12" d="M236.91,102.63l0,0S236.92,102.62,236.91,102.63Z"/><path class="cls-12" d="M237,102.66s0,.06,0,.07,0,0-.06-.08,0,.11.08.12v0a.5.5,0,0,1,.22.1A1.37,1.37,0,0,0,237,102.66Z"/><path class="cls-12" d="M237.41,102.65l.05-.12-.11,0,0,0C237.32,102.55,237.38,102.61,237.41,102.65Z"/><polygon class="cls-12" points="238.16 102.53 238.23 102.64 238.16 102.45 238.16 102.53"/><polygon class="cls-12" points="238.26 102.41 238.33 102.5 238.32 102.42 238.26 102.41"/><path class="cls-12" d="M240.6,94.5l0,0Z"/><path class="cls-12" d="M240.59,94.73h0S240.59,94.72,240.59,94.73Z"/><path class="cls-12" d="M240.69,99.39c.12,0,.29,0,.18,0l-.12,0A.05.05,0,0,1,240.69,99.39Z"/><path class="cls-12" d="M241,96.72h0l.11.06Z"/><path class="cls-12" d="M240.47,96.56l.09,0Z"/><path class="cls-12" d="M240.42,93.27l-.13,0S240.36,93.27,240.42,93.27Z"/><path class="cls-12" d="M239.36,101.23a.19.19,0,0,0,.13,0C239.4,101.19,239.29,101.15,239.36,101.23Z"/><path class="cls-12" d="M241.92,94.63a.11.11,0,0,0-.08,0A.08.08,0,0,0,241.92,94.63Z"/><path class="cls-12" d="M239.58,101.09h0s0,.08,0,.11S239.61,101.18,239.58,101.09Z"/><path class="cls-12" d="M238.87,89.31v0S238.86,89.3,238.87,89.31Z"/><path class="cls-12" d="M238.79,87.44l0,0S238.82,87.44,238.79,87.44Z"/><path class="cls-12" d="M238.76,102s0,0,0,0Z"/><path class="cls-12" d="M238.3,101.78s0,0,0-.06A.15.15,0,0,1,238.3,101.78Z"/><path class="cls-12" d="M239.17,100.35Z"/><path class="cls-12" d="M238.69,102h0Z"/><path class="cls-12" d="M238.73,102.05h0S238.73,102.09,238.73,102.05Z"/><path class="cls-12" d="M238.79,102l0,0h0Z"/><path class="cls-12" d="M240.4,91.14h0C240.35,91.12,240.36,91.13,240.4,91.14Z"/><polygon class="cls-12" points="239.91 98.08 239.91 98.08 239.92 98.08 239.91 98.08"/><path class="cls-12" d="M239.87,97.94c.12.11.09.12,0,.14l.34.11Z"/><path class="cls-12" d="M240.56,94l-.11.08c-.18-.08-.12-.15-.28-.08.39,0,.05.28.44.29l-.08.05s0,0,0,0c-.18.09.28.07.22.2a.1.1,0,0,1-.13,0l.09.1s-.07,0-.06,0l0,.15h0l.19.11c-.06,0,0,0-.09,0l.09.09c-.1,0-.19,0-.18-.1-.39,0,.1.07-.14.22l0-.08c-.22,0-.14.1-.29.17.08,0,.36-.14.45-.05s-.05.05,0,.11c-.14,0-.11,0-.11.09l-.18,0c0,.07.14.07.22.12s-.17.06-.29.06.23,0,.25.09,0,.16.08.28c-.08.06-.11,0-.17,0l.14.08s-.05,0-.07,0,.18,0,.21.12c.2.06-.31.11-.11.24-.06,0-.11,0-.18,0a1.13,1.13,0,0,0,.26.28l-.14.06c.15,0,.29.09.4.2l.17,0,.06.15s-.09,0-.16-.06l0,0c-.08,0-.17,0-.26-.08h.12a1,1,0,0,0-.32-.14s0,0,0,0l-.07,0,.06,0-.21,0,.08,0-.17.12c.17.16.43.34.45.55a1.51,1.51,0,0,0-.39-.15c.19,0,0-.15,0-.23s-.11,0-.13,0l.11.2c-.14,0-.11,0-.18,0,.28,0,.15.18.21.27-.1,0-.18-.08-.13-.15-.24,0,.27.22.07.25,0,0,0,0,0,0s-.05.16-.11.1v0c-.08.11-.15.38.07.49l-.31-.16.65.56c-.18-.1-.67-.24-.73-.39,0,0-.09,0,0,.13a.67.67,0,0,1,.3.11,2.16,2.16,0,0,0-.36,0c.06,0,.34.17.3.21s-.29-.14-.31-.17l.23.26a.77.77,0,0,0-.33-.14c.06,0-.06.09,0,.14l.09,0c-.11.11.33.34.24.47,0,0-.34-.24-.41-.2.13.11.61.53.65.72l-.09,0,0,.15c-.17-.19-.53-.62-.66-.8-.09,0-.1,0-.14,0a.09.09,0,0,1-.08-.12l-.15.12c.17.1.1.22.24.3L239.3,99c.17.09.41.38.31.48s-.28-.2-.33-.23,0,.17,0,.15l-.06-.1c-.1,0,.15.24-.06.21,0,0-.25-.06-.16,0a3.91,3.91,0,0,1,.89.58,1.69,1.69,0,0,1-.38,0c-.17-.06-.29-.31-.44-.35a.27.27,0,0,1,.09.11c-.05,0-.12-.11-.14,0,.15.12-.1.11.11.12,0,.09-.07,0-.12.11a.7.7,0,0,1,.3.41.66.66,0,0,0-.13-.08c-.1.11-.22.12-.31.22s-.13,0-.17-.08.05.09,0,.13c-.19-.05,0-.09-.16-.18.08.08.05.19.06.28s.12-.09.11-.17a.78.78,0,0,1,.29.58c0,.13-.15-.07-.14,0-.18.14.19.43-.07.45s-.22-.21-.31-.28.16,0,.2-.09h-.1c0-.06,0-.13.05-.13-.14,0-.27.25-.48.28,0,.06,0,.13.08.16l0-.06c.12.06,0,.2.14.19s.05.27-.07.29l-.14-.11s.12,0,.11,0c0,.09-.28-.07-.16.13l.14,0c0,.12.06.32,0,.34.15.1,0,0,.19.07-.22-.14.18-.15-.07-.28.21.13.15,0,.36.07,0,0-.1-.05,0-.09l0,0h0a.25.25,0,0,1-.09,0c-.07-.12,0-.2,0-.28s0,.06.1.09l0-.12c.09.09.24.06.21.19l.08-.06c.09,0,.17,0,.16-.1s0-.19,0-.09l.05-.17,0,0c.11-.11.05-.37.34-.36a.18.18,0,0,1,.09-.17l.1.06c0-.08.21-.09.13-.18.29.12.26-.22.36-.29l-.11-.09a.47.47,0,0,0,.07-.26l-.11-.07c0-.13.2-.13.26-.25s0,.06,0,.06c.33,0,0-.4.25-.42,0,0,0-.07,0-.07h0v0h0a.25.25,0,0,0,0-.13l.13.06h0c.07,0,0-.06-.14-.09a.2.2,0,0,0-.05-.09c.21.07,0-.13.21-.07-.09-.07,0-.22-.19-.35,0,0,0,0,0,0s.09-.06,0-.13l.16.06-.17-.19a.27.27,0,0,1,.29.11c-.12-.22,0-.14-.16-.34l.1,0s-.1-.17,0-.16.21-.44.47-.62c-.33,0,.18-.07-.06-.16.08,0,.13,0,.18,0,0-.15.18-.16,0-.3.08,0,.1,0,.15,0s-.06,0,0-.06.06,0,.09.07c0-.14-.21-.21-.43-.28.13,0,.12-.07,0-.15.08,0,.16,0,.17.06s.17-.26,0-.3c0,0,0-.06,0-.08a.5.5,0,0,0,.05-.21l0,0c-.21-.08,0-.09-.05-.18h0c.19-.16-.06-.09.15-.25h-.14c-.29-.06.2-.14.1-.26l-.09,0c-.09-.07.42-.12.47-.17s0,0,.05,0c.2-.14-.17,0-.2-.16s.24,0,.27,0-.3-.25-.11-.34c-.08,0-.15,0-.2,0s.29-.21.05-.3h.06c-.05-.07-.09-.21-.22-.25.48-.06-.24-.38.2-.39l0-.19h0c0-.13-.09-.16-.19-.2s.07,0,.09,0c.07-.19.06-.21-.17-.34l.14,0c-.09,0,.19-.28,0-.44h.07c-.2-.17.31-.55-.21-.53l-.16-.11c0,.18-.22,0-.29.11s.12-.2.16-.12h0c.27,0,.05-.22.23-.26-.09-.32,0-.68-.14-1l-.18.11,0-.11s.14-.09.16,0c.1-.08-.14-.09-.19-.07,0-.18.26,0,.24-.08l0-.06v0c-.1,0-.19,0-.22-.09s.11-.07.11-.1,0,0,0,0l0-.14-.13.12c-.1,0,0-.12-.19,0,.23-.2-.13-.51-.09-.6a.29.29,0,0,1-.24-.19s-.16.15-.19.06c.34-.18,0-.23.23-.45-.11.16-.2-.19-.34.05,0-.08.11-.09.15-.19-.23-.06-.18-.38-.37-.52,0,0-.07.11-.16.13l.11-.26s-.24.17-.17,0c0,0-.06.09-.09.08-.11-.49-.74-.49-.73-1.11,0,.11-.06.09-.1.06s-.08.09-.13.14v-.26c-.16.12-.15-.12-.29,0h.06c-.2.11-.25.42-.45.61.23-.12-.09.41.25.26,0,.06-.08,0-.11.1s.15,0,.17,0l0,0c.18.13.16.27.27.5l.09-.11a.19.19,0,0,1,0,.13c.19-.11-.09-.11.11-.24-.15.25.25.27,0,.52.05.06.1-.13.15-.07l-.05.07.09,0s0,.14-.09.18h0c0,.11.15.11.14.15v-.09c.2.1.27.37.53.42l0-.05c.19.05,0,.14.15.24h0c.07,0,.13,0,.14.06s-.08.14-.18.14c.19.07.13,0,.39,0l-.08.08c.1,0,.15,0,.21,0-.11,0-.11.13-.26.12-.12.25.33.12.06.34.3,0,.08-.2.16-.19s.22,0,.22,0-.3.24-.24.37c0,0,0,0,0,0s.13,0,0,.16c.18,0,0,.08.24,0l-.1-.1c.08,0,.36,0,.28.18l-.15,0c-.05,0,.06,0,0,.11-.22.06-.1-.14-.29-.15s.21.08,0,.13c.32-.06,0,.14.26.15l-.13,0s.1,0,.1,0h-.18c.17,0-.08.18,0,.22-.05-.14.15-.08.22-.17.24.13-.31.21-.19.39,0,0,0-.13.12-.1a.26.26,0,0,1-.11.15c.06.13.13,0,.22,0-.15.09.09,0,.15.1l-.13,0c-.05.17.29,0,.22.14l-.21,0,.07.07h-.16c.13.06.11.09.08.18s.25,0,.27,0-.14,0-.1.1-.2,0-.08-.08h-.14c-.08.07,0,.14,0,.17a.05.05,0,0,1,0,0l.21.11a.17.17,0,0,1-.14,0s.09,0,.11.08a.43.43,0,0,1-.29,0l.14.12s-.12.09-.16.08.23.16.16.27a.09.09,0,0,1,.06,0c0,.1-.15.19,0,.3l-.19.07c0,.09.25-.1.33,0s-.17,0-.22.08c.1,0,.31.14.15.24S240.58,94,240.56,94Zm.06,1.12s-.11-.07,0-.08S240.67,95,240.62,95.07Zm0,1.75s0,0,0-.06S240.7,96.8,240.66,96.82Zm-1.72,4.86h0C239,101.67,239,101.67,238.94,101.68Zm-.12,0s0,0,0,0,0-.05,0-.06S238.82,101.67,238.82,101.72Zm2.32-11.24,0,0C241.06,90.48,241.1,90.48,241.14,90.48Z"/><path class="cls-12" d="M240.53,96.58h.07A.08.08,0,0,0,240.53,96.58Z"/><polygon class="cls-12" points="240.45 93.27 240.45 93.27 240.42 93.27 240.45 93.27"/><path class="cls-12" d="M239,99.7a.11.11,0,0,1,.08,0A.05.05,0,0,0,239,99.7Z"/><path class="cls-12" d="M238.55,102.3l0-.07s-.05,0-.08,0S238.57,102.29,238.55,102.3Z"/><path class="cls-12" d="M237.53,102.07s0,0,0,0l0,0S237.58,102.06,237.53,102.07Z"/><path class="cls-12" d="M238.19,102c-.08-.08-.09,0-.11,0h0C238.19,102.16,238.19,102.09,238.19,102Z"/><path class="cls-12" d="M238.08,102.05s0,0,0,0S238.07,102.08,238.08,102.05Z"/><path class="cls-12" d="M238.77,101.87s.1.12,0,.09C238.91,102.09,238.81,101.72,238.77,101.87Z"/><polygon class="cls-12" points="237.9 101.76 238.01 101.85 237.96 101.75 237.9 101.76"/><path class="cls-12" d="M238.25,101.57l-.08,0s0,0,0,.05S238.28,101.6,238.25,101.57Z"/><path class="cls-12" d="M238.19,101.65a0,0,0,0,0,0,.06A.11.11,0,0,0,238.19,101.65Z"/><polygon class="cls-12" points="237.95 101.66 237.99 101.66 238.04 101.63 237.95 101.66"/><path class="cls-12" d="M238.84,101l0-.09s-.07,0-.08,0S238.8,101,238.84,101Z"/><path class="cls-12" d="M238.38,100.91l.11,0-.13-.12Z"/><path class="cls-12" d="M238.51,100.71s0-.19-.09-.1S238.43,100.73,238.51,100.71Z"/><polygon class="cls-12" points="239.45 99.88 239.44 99.89 239.69 100.06 239.45 99.88"/><path class="cls-12" d="M239.42,98.61c-.1,0,.15.1,0,.13.05.06.1,0,.14,0S239.6,98.68,239.42,98.61Z"/><path class="cls-12" d="M239.59,98.77l0,0A.05.05,0,0,0,239.59,98.77Z"/><polygon class="cls-12" points="238.72 87.16 238.72 87.07 238.68 87.17 238.72 87.16"/><path class="cls-12" d="M238.49,87.23l.11-.14-.14.09S238.51,87.2,238.49,87.23Z"/><path class="cls-12" d="M240.24,95.2h0c.05,0,.06,0,.07,0Z"/><polygon class="cls-12" points="240.42 94.42 240.42 94.43 240.59 94.41 240.42 94.42"/><path class="cls-12" d="M240.19,93.76s0,.06,0,.09S240.4,93.75,240.19,93.76Z"/></g></g></g></svg>