<svg xmlns="http://www.w3.org/2000/svg" viewBox="0 0 70 70"><defs><style>.cls-1{fill:none;}.cls-2{fill:#fcf5ea;}.cls-3{fill:#030000;}.cls-4{fill:#3d663a;}</style></defs><g id="圖層_2" data-name="圖層 2"><g id="圖層_1-2" data-name="圖層 1"><path class="cls-1" d="M70,35C69.22,81.67.77,81.66,0,35,.78-11.67,69.23-11.66,70,35Z"/><path class="cls-2" d="M19.07,34.69q.11,5.63.2,11.25a2.19,2.19,0,0,0,0,1.73,1.9,1.9,0,0,0,1.65,1.08l30.19-.43V36.2"/><path class="cls-3" d="M22.61,48.05Z"/><path class="cls-3" d="M41.44,47.65h0l0,0Z"/><path class="cls-3" d="M44.47,47.72h0S44.49,47.7,44.47,47.72Z"/><path class="cls-3" d="M34.46,47.92h0Z"/><path class="cls-3" d="M19.85,46v0Z"/><path class="cls-3" d="M19.85,46.13c-.06.1,0,0,0-.08a.78.78,0,0,0-.12.27l.05,0A.46.46,0,0,1,19.85,46.13Z"/><path class="cls-3" d="M19.59,35.85v0S19.59,35.86,19.59,35.85Z"/><path class="cls-3" d="M34.76,49.31h0Z"/><path class="cls-3" d="M19.59,37.44l0,0S19.6,37.44,19.59,37.44Z"/><path class="cls-3" d="M41.49,47.6l0,0Z"/><path class="cls-3" d="M47.27,47.71a0,0,0,0,0,0,0h0Z"/><path class="cls-3" d="M51.16,38h0l0,.06A.15.15,0,0,0,51.16,38Z"/><path class="cls-3" d="M50.64,47.85l0,0h0a.6.6,0,0,0-.2,0l0,.05.2,0Z"/><path class="cls-3" d="M51.93,44.11l-.12.41c-.05-1.31.06-1.92,0-3.05l0,.06a4.26,4.26,0,0,1,.08-2.06h0a.43.43,0,0,1,0-.19l-.07.31a4,4,0,0,1-.09-.6c0-.05,0-.07,0-.07l0-.61.08-.19c0-.19-.19-.1-.11-.61-.1.19-.06-.24-.12-.18l0-.13a6.13,6.13,0,0,0-.09-1s-.22,1.17-.33,1.48c0-.42,0-.11,0,0l0,0c0,.25-.09.25-.11.38h0v0s0,0,0,0,0,0,0,.08h0c0,.1,0,.28,0,.36h-.06A7.37,7.37,0,0,1,51,40a8.29,8.29,0,0,0,0,.88c0,.5-.08.25-.13.5s.07-.06.07.06l-.08.38c0-.22,0-.1-.06-.06,0,.32-.11.84,0,.94,0,.43-.1.43-.1.62,0-.06,0-.19.06-.19,0,.18,0,.09,0,0,0,.27-.2,1.39-.08,1.45h0c.09.06.18,0,.23.15l0,.12,0,.19c0,.13-.06.06-.07.06a8.39,8.39,0,0,1,0,1.11l.25-.4a2.81,2.81,0,0,0-.1.94l-.08.19c-.16.62.07.46,0,.64a.87.87,0,0,1-.09.17v-.18a.48.48,0,0,1-.13.28h0v0h0s0,.07-.16.07h-.25a2.2,2.2,0,0,1-.6,0l-.13.1-.37,0v-.08l.72,0,.57,0,0,0-.16,0-.36,0c-.09,0-.32-.09-.15-.14l-.18.07a13.66,13.66,0,0,1-1.91,0l.08,0c-.19,0-.38,0-.44,0a7.68,7.68,0,0,1-1.57-.13l-.09.09c-.12,0-.31-.13-.37,0l-.26.05a1.87,1.87,0,0,1-.47,0h0c-.39,0,0,.08-.44,0-.14-.06-.15.11-.36.09l-.22-.12c-.39-.07-.45.06-1,.07-.27,0-.4-.15-.23-.24-.24.12-.11.07-.43.13,0,0,0-.05.05-.1-.29-.05-.18,0-.39,0s-.14.23-.21.24l.09,0a2.07,2.07,0,0,1-.75,0V47.9l-.29,0,0-.06-.41,0h.06a3.67,3.67,0,0,1-.59,0v0a6.62,6.62,0,0,0-1.52.06l.08-.07c-.21-.06-.06.1-.3.07v-.08c-.21.11-.28,0-.42,0l.07.1-.28,0c-.3,0-.19-.12-.14-.18l-.21.09,0-.09c-.15.1-.15,0-.41,0,0,0,0,0,0-.07l-.44.14.27-.06,0,.13c-.28.11-.38,0-.57,0l.13,0a1,1,0,0,1-.51,0c.05,0,.14.06,0,.08s-.05,0-.14-.06-.25.14-.46.1l0,0a.22.22,0,0,1-.17,0l0-.1-.17.1c-.12,0-.3,0-.28,0l.07,0H33v-.08c-.09.11-.49,0-.46.1-.17-.07-.67.06-.57-.09a15.52,15.52,0,0,1-1.62.08,5,5,0,0,0-1.41-.08l-2.4.18c-.55-.18-1.38.08-2,0l-.17.07c-.39-.11-1,0-1.55-.06l-.24,0s.07,0,.08.07c-.16,0-.48,0-.46-.08h0c0-.09-.48,0-.65,0l.09.1h-.3l.08,0a2.85,2.85,0,0,1-.75.06,1,1,0,0,1-.45-.2,2.27,2.27,0,0,1-.6-.82c.12.09-.09-.16,0-.19.13-.2,0-.39,0-.6l0,0,.11-.25V45.7c.16.27-.12-.33,0-.08.09-1.15,0-2.66,0-4l0,.06a5.77,5.77,0,0,1,0-1,1.68,1.68,0,0,0-.12-.66c-.07-.28.06-.54.05-.42a4.07,4.07,0,0,1-.11-1c.12-.14-.14-1.13,0-1.15h0c.09-.54-.09-1,0-1.62l0,0-.45-1.16-.47.34-.36,1,.13,2.75L18.33,41l.14,4.78s-.07.19-.1.35a4.36,4.36,0,0,0,0,.51,2.35,2.35,0,0,0,.79,2.17,2.71,2.71,0,0,0,1.12.6,3.3,3.3,0,0,0,.63.09l.43,0,0-.09a.65.65,0,0,1,.37.06c3-.06,6-.23,8.71-.15.25.06,1,0,1.24.07a19.75,19.75,0,0,1,2.66-.13h0l.41,0s0,0,0,0a9.39,9.39,0,0,1,1.76,0l0,0c3.31,0,6.37-.25,9.64-.17a21.6,21.6,0,0,0,2.42,0c.94,0,1.33-.06,3.4,0v-.08c0-.13,0-.68,0-1.44V46.19C52,45.23,52,44.27,51.93,44.11Z"/><path class="cls-3" d="M51.8,38.92h0S51.83,38.91,51.8,38.92Z"/><polygon class="cls-3" points="50.75 46.21 50.75 46.19 50.7 46.27 50.75 46.21"/><path class="cls-3" d="M50.72,41.54c0,.21,0,.22,0,.19A1,1,0,0,0,50.72,41.54Z"/><path class="cls-3" d="M51.73,37.2c0-.11,0-.07,0,0v.19Z"/><path class="cls-3" d="M51.21,37.65l0,0C51.18,37.68,51.19,37.68,51.21,37.65Z"/><path class="cls-2" d="M50.18,25.62l-30.39-.2a2.3,2.3,0,0,0-1.85.83,2.4,2.4,0,0,0-.41,2.08v5.84c8.45,4.34,28,4.35,34.91,1.25V28.75A2.48,2.48,0,0,0,50.18,25.62Z"/><path class="cls-3" d="M24.64,26.12Z"/><path class="cls-3" d="M30.77,36.5h0l.06,0Z"/><path class="cls-3" d="M35.31,36.88h0S35.35,36.87,35.31,36.88Z"/><path class="cls-3" d="M20.52,34.7l-.08,0Z"/><path class="cls-3" d="M33.09,26.08h0l0,0Z"/><path class="cls-3" d="M33,26.11c-.1,0,0,0,.08,0a1.3,1.3,0,0,0-.34,0S32.94,26.09,33,26.11Z"/><path class="cls-3" d="M48.4,26.11h0Z"/><path class="cls-3" d="M20.51,36.17l-.07,0Z"/><path class="cls-3" d="M46,26.06l0,.05S46,26.08,46,26.06Z"/><path class="cls-3" d="M30.86,36.46h0Z"/><path class="cls-3" d="M39.53,36.9l0,0h0Z"/><path class="cls-3" d="M52.4,27.13v0l.06.07A.24.24,0,0,0,52.4,27.13Z"/><path class="cls-3" d="M45.31,36.66v0l-.69.06v.06Z"/><path class="cls-3" d="M51.87,36.51l-.65.13L52.77,36l.25-.09.12,0v-.62c0-.25,0-.5,0-.74,0-.69,0-1.35,0-2.21l0,.1a10.22,10.22,0,0,1,.09-3.14h0a.62.62,0,0,1,0-.28l-.07.47-.05-.42c0-.07,0-.14,0-.21a0,0,0,0,1,0,0v-.1c0-.1.07-.13.09-.14a3.09,3.09,0,0,0-.06-1.21l0-.37a10,10,0,0,1-.7-.94c.16.33-.36-.29-.32-.16l-.15-.19a2.88,2.88,0,0,0-.91-.47,2,2,0,0,0-.84-.09,2.59,2.59,0,0,1,1.07.39,2.66,2.66,0,0,1,1,1.06c-.41-.53-.11-.14-.07,0l0,0a1.46,1.46,0,0,1,.2.57s0,0,0,0l0,0s0,0,0,0,0,0,.07.1h0a1.65,1.65,0,0,1,.14.55h-.05a.94.94,0,0,1,0,.42c0,.21-.14.42-.16.67-.06.49-.13,1-.13,1.18-.07.38,0,.85,0,1.33,0,.76-.09.38-.13.76s.06-.1.06.09l-.07.57c0-.33,0-.15-.06-.09a5.52,5.52,0,0,0,0,1.43c0,.33,0,.5-.07.61s0,.11,0,.19,0-.13.06-.14c0,.14,0,.07,0,0a1.33,1.33,0,0,1,0,.27c0,.1-.24.07-.35.12a3.11,3.11,0,0,0-.89.31v0c-.07.11.1.16-.15.28h-.19l-.26.11c-.19,0-.11,0-.11,0a9.56,9.56,0,0,1-1.61.37l.63.12a6.3,6.3,0,0,0-1.41.19l-.29,0c-1,0-.64.16-1,.18l-.49,0,.47-.07c-.47,0-.66,0-1,0h0a1.41,1.41,0,0,1-.63.14,11.35,11.35,0,0,1-1.59.13l-.18.11-.57,0v-.08c.55,0,1.59-.17,2.29-.24v0l-1.17.14c-.14,0-.49,0-.24-.11l-.26.1a24.65,24.65,0,0,1-2.88.1l.13,0a1.6,1.6,0,0,1-.67,0,12.81,12.81,0,0,1-2.37-.12l-.12.09c-.19,0-.47-.14-.56,0l-.4,0a3.33,3.33,0,0,1-.7,0h0c-.58-.07,0,.07-.66,0-.21-.07-.24.1-.56.07l-.32-.14c-.58-.1-.68,0-1.53,0-.4-.07-.58-.19-.31-.26a1.8,1.8,0,0,1-.66.07c-.08-.05,0-.05.09-.09-.43-.09-.27,0-.6,0-.1.08-.22.21-.33.2l.12,0a4,4,0,0,1-1.12-.1l0,0-.43,0,0-.06-.62-.05.09,0a5.85,5.85,0,0,1-.88-.12v0A21.82,21.82,0,0,0,25.38,36l.13,0c-.29-.12-.1.08-.45,0v-.09c-.34,0-.4-.1-.61-.18l.08.12-.4-.11c-.44-.12-.24-.18-.17-.22l-.32,0,0-.1c-.24.06-.21-.07-.6-.12,0,0,.07,0-.05-.08l-.66,0,.39,0-.08.12c-.42,0-.53-.16-.82-.2l.2,0a2.25,2.25,0,0,1-.72-.26c.07,0,.18.13,0,.08s-.06-.07-.18-.13-.39,0-.67-.13l0,0a.5.5,0,0,1-.25-.07l.11-.06H20c-.15-.08-.42-.1-.38-.15h.1a12.93,12.93,0,0,1-1.2-.54l0-.08c-.31,0-.22-.14-.35,0a.53.53,0,0,0,0-.13c0-.09,0-.32.08-.22,0-.9-.14-1.38-.06-2.47a12.31,12.31,0,0,0,.1-2.15c0-.2,0-.39,0-.54L18.25,28l0-.14a1.32,1.32,0,0,1,0-.28,1.7,1.7,0,0,1,.08-.51,1.47,1.47,0,0,1,.71-.82l.5-.08.25,0h.4a11,11,0,0,1,1.52,0l.25-.07c.6.12,1.52,0,2.36.1l.36,0a.14.14,0,0,1-.11-.06c.24,0,.73,0,.69.09h-.06c0,.09.73,0,1,0L26,26.1l.46,0-.12,0c2-.21,2.87.11,4.73-.07-.24.1.37-.06.39.06a2.92,2.92,0,0,0,1.26-.06s0,0,0,0l.67,0c-.41.15.48-.12.11,0,1.75.12,4,0,6.07.09l-.09,0a15.21,15.21,0,0,1,1.55,0,4,4,0,0,0,1-.09c.43-.07.82.07.64.06A8.49,8.49,0,0,1,44.23,26c.22.13,1.73-.11,1.75,0h0c.81.11,1.58-.06,2.45,0l0,0,1.78-.42-.5-.47-1.54-.39L44,24.88l-3.33-.17H32.49l-.58.11c-1.59-.2-3.64,0-5.36-.15l0,.09a1.2,1.2,0,0,1-.57-.07l-5.28,0a10.87,10.87,0,0,0-1.45.05,3.05,3.05,0,0,0-1.51.73,2.85,2.85,0,0,0-.85,1.43,3.19,3.19,0,0,0-.1.8c0,.14,0,.27,0,.4l0,.2,0,.11c0,.91,0,1.8,0,2.7-.06.39,0,1.58-.09,1.89l0,.49q0,.45,0,.87c-.13.39.37.39.6.55l.64.27,1,.42L20,36h-.06l.61.19s0,0,0,0c.7.17,1.77.49,2.61.76h-.05a72.59,72.59,0,0,0,14.72,1.44A64.36,64.36,0,0,0,45.53,38a23.27,23.27,0,0,0,3.2-.5A18.33,18.33,0,0,0,51.87,36.51Z"/><path class="cls-3" d="M53.2,28.57v0S53.23,28.56,53.2,28.57Z"/><polygon class="cls-3" points="48.44 36.24 48.48 36.24 48.34 36.21 48.44 36.24"/><path class="cls-3" d="M52.05,32.42c0,.32,0,.34,0,.29A1.28,1.28,0,0,0,52.05,32.42Z"/><path class="cls-3" d="M52,25.67c-.17-.13-.12-.06,0,0l.27.22Z"/><path class="cls-3" d="M52.13,26.58l-.05,0C52.14,26.63,52.15,26.63,52.13,26.58Z"/><path class="cls-2" d="M27.69,29.9l15-.21"/><path class="cls-3" d="M32.07,29.16Z"/><path class="cls-3" d="M37,29h0a.11.11,0,0,0,0-.05Z"/><path class="cls-3" d="M37.78,29.06h0S37.79,29,37.78,29.06Z"/><path class="cls-3" d="M35.17,29.15h0Z"/><path class="cls-3" d="M30.62,29.28h0Z"/><path class="cls-3" d="M30.64,29.25s0,0,0,0,0,0,.05,0S30.65,29.27,30.64,29.25Z"/><path class="cls-3" d="M28,29.39h0Z"/><path class="cls-3" d="M35.26,30.54h0S35.26,30.55,35.26,30.54Z"/><path class="cls-3" d="M28.41,29.42v0Z"/><path class="cls-3" d="M37,28.91v0Z"/><path class="cls-3" d="M38.51,29.08a.1.1,0,0,0,0,0h0Z"/><path class="cls-3" d="M42.21,29.74h0l0,0S42.2,29.75,42.21,29.74Z"/><path class="cls-3" d="M39.52,29.26h0s-.06,0-.12,0v.06Z"/><path class="cls-3" d="M40.63,30.53l-.11-.11c.35-.05.51.06.8,0l0,0c.05,0,.07-.23.54.07h0s0,0,0,0l-.08-.07s.09-.08.16-.09a.08.08,0,0,1,0,.05l.16,0,.05.07s0-.19.15-.11c-.05-.1.07-.06,0-.11l0,.05c.07,0,.22-.05.25-.1a3.23,3.23,0,0,1-.39-.33c.11,0,0,0,0-.05v0c-.06,0-.06-.09-.1-.11v0h0v0s0,0,0,0h0a.13.13,0,0,1-.09,0V29.7c0,.11-.32-.16-.39-.16s-.15,0-.23,0-.07-.08-.13-.13,0,.06,0,.07l-.1-.08c.06,0,0,0,0-.06s-.22-.11-.25,0c-.11,0-.11-.09-.16-.1s.05,0,.05.06,0,0,0,0-.37-.2-.38-.08v0c0,.09,0,.18,0,.23l0,0,0,0a.07.07,0,0,1,0-.07c-.08.05-.19,0-.28,0l.1.24c-.08-.05-.23-.17-.25-.09l0-.08c-.16-.16-.11.07-.17,0l-.09-.09h.08a.75.75,0,0,1-.18-.13h0s0,0,0,0h0a.1.1,0,0,1-.11.08c-.08,0-.15.05-.28,0l0,.09-.1-.05v-.08a2.91,2.91,0,0,0,.4,0v0c-.07,0-.15,0-.2,0s-.09-.09,0-.14l0,.07a1,1,0,0,1-.5-.07l0,0c-.05,0-.1,0-.11,0A.7.7,0,0,1,38.1,29l0,.09S38,28.92,38,29l-.07,0c-.05,0-.07.05-.12,0h0c-.1,0,0,.08-.12,0s0,.11-.09.09l-.06-.12c-.1-.07-.12.06-.26.06a.18.18,0,0,1-.06-.24c-.07.11,0,.07-.12.13a.12.12,0,0,1,0-.1c-.08-.06-.05,0-.11,0s0,.23-.05.23l0,0a.17.17,0,0,1-.2,0V29.2l-.07,0v-.06l-.1,0h0s-.11,0-.15,0v0c-.14-.09-.24,0-.4,0l0-.07c0-.06,0,.1-.08.07v-.08c-.05.11-.07,0-.11-.06l0,.11-.07,0c-.08,0,0-.13,0-.19l-.06.08V29c0,.11,0,0-.11,0s0-.05,0-.07l-.11.13.07-.05v.13c-.07.1-.1,0-.15,0l0,0c-.09,0-.09,0-.14-.06s0,.06,0,.08,0,0,0-.06-.07.14-.12.1v0s0,0,0,0v-.1l0,.1s-.08,0-.07,0v0l-.23,0V29c0,.1-.12,0-.11.09-.05-.07-.18.06-.15-.1-.16,0-.24.14-.43.07s-.25-.08-.37-.1-.38.11-.62.16c-.15-.18-.36.06-.52,0l0,.08c-.1-.12-.26,0-.41-.08l-.06,0s0,0,0,.06-.12,0-.12-.08h0c0-.09-.12.05-.17,0l0,.1-.08,0,0,0c-.34.22-.5-.09-.81.12,0-.11-.06,0-.07-.06s-.15,0-.22.07,0,0,0,0h-.12c.07-.15-.08.12,0,0a6,6,0,0,0-1.05,0l0,0c-.09,0-.2,0-.27,0s-.14.1-.17.11-.14-.06-.11-.06-.15.16-.26.1-.3.13-.3,0h0c-.14-.1-.27.07-.42,0v0l-.3.44.1.47.27.37.72-.09.57.14,1.4-.07.1-.1c.27.18.62,0,.92.09v-.09c.08,0,.07.05.1.06a13.43,13.43,0,0,1,2.27-.06c.06.06.27,0,.32.09a1.31,1.31,0,0,1,.69-.11h0l.1,0s0,0,0,0,.32,0,.46,0h0a19.13,19.13,0,0,1,2.51-.06c.4.14.86-.07,1.32.05A2.81,2.81,0,0,0,40.63,30.53Z"/><path class="cls-3" d="M42,30.39h0S42,30.42,42,30.39Z"/><polygon class="cls-3" points="40.07 29.37 40.08 29.37 40.05 29.31 40.07 29.37"/><path class="cls-3" d="M41.29,29.32c-.06,0-.06,0,0,0Z"/><path class="cls-3" d="M42.43,30.31s0,0,0,0h0Z"/><path class="cls-3" d="M42.31,29.79v0S42.3,29.78,42.31,29.79Z"/><path class="cls-2" d="M28.21,25.62v-2.7a2.41,2.41,0,0,1,.61-1.05,2.3,2.3,0,0,1,1.24-.62l9.44.21a1.84,1.84,0,0,1,1.85,1.46v2.7"/><path class="cls-3" d="M30.6,20.59s0,0,0,0Z"/><path class="cls-3" d="M37.19,20.6h0l0-.05Z"/><path class="cls-3" d="M38.24,20.74h0S38.25,20.72,38.24,20.74Z"/><path class="cls-3" d="M34.74,20.71h0Z"/><path class="cls-3" d="M28.42,21.47h0Z"/><path class="cls-3" d="M28.42,21.43s0,0,0,0a.08.08,0,0,0,.08-.05S28.44,21.43,28.42,21.43Z"/><path class="cls-3" d="M27.71,25.21h0Z"/><path class="cls-3" d="M34.82,22.11h0S34.81,22.11,34.82,22.11Z"/><path class="cls-3" d="M27.74,24.66h0Z"/><path class="cls-3" d="M37.21,20.55v0Z"/><path class="cls-3" d="M39.22,20.79v0h0Z"/><path class="cls-3" d="M41.3,25h0l0,0S41.29,25,41.3,25Z"/><path class="cls-3" d="M40.74,21.32h0a.64.64,0,0,0-.16-.12l0,0Z"/><path class="cls-3" d="M40.53,23a.14.14,0,0,0,.1-.07c0,.07,0,0,0,.1v.25a1.5,1.5,0,0,0,0,.51l0,0c0,.06.22.09-.08.72h0s0,0,0,.07l.07-.11a.58.58,0,0,1,.09.21s0,0-.05,0l0,.21L40.6,25c0,.07.19,0,.11.22.11-.07.06.08.12.06l0,.05a.77.77,0,0,0,.09.34,3.11,3.11,0,0,1,.34-.51c0,.14,0,0,0,0h0c0-.09.09-.09.11-.13h0s0,0,0,0h0a.56.56,0,0,1,0-.13h.06c-.11-.06.16-.44.16-.52s0-.2,0-.31.08-.09.13-.17-.07,0-.07,0l.08-.13c0,.08,0,0,.06,0s.11-.29,0-.32c.05-.16.1-.16.1-.22s0,.06-.06.06,0,0,0,0,0-.13.07-.32,0-.32-.06-.32h0c-.09,0-.16.06-.24,0l0-.06-.07-.06c0-.06,0,0,0-.05a3.14,3.14,0,0,1-.22-.41,1.69,1.69,0,0,1-.12.27c0-.13-.07-.37-.14-.34v-.11c-.08-.29-.18-.06-.22-.16a.88.88,0,0,0,0-.15l.1.08-.16-.28h0a0,0,0,0,1,0,0h0s-.11,0-.19,0-.23-.05-.41-.2l-.07.07-.15-.09V21a3,3,0,0,1,.66.19v0a2.28,2.28,0,0,0-.33-.12s-.11-.13,0-.15l-.1,0a7.33,7.33,0,0,1-.8-.14l0,0c-.07,0-.14,0-.16,0a1.23,1.23,0,0,1-.54-.16l0,.08s-.1-.14-.12,0l-.1,0c-.06,0-.09,0-.16,0h0c-.14,0,0,.08-.15,0s-.06.11-.14.09l-.07-.13c-.13-.07-.16.05-.35.05a.17.17,0,0,1-.08-.25c-.08.12,0,.08-.15.13s0-.06,0-.1-.06,0-.14,0,0,.22-.08.23l0,0a.3.3,0,0,1-.26,0v-.05l-.1,0V20.8h-.14l0,0a.51.51,0,0,1-.21,0v0c-.17-.1-.32,0-.53,0l0-.07c-.07-.06,0,.1-.11.07v-.08c-.07.1-.09,0-.14-.07l0,.11-.1,0c-.1,0-.06-.13,0-.18l-.08.08v-.09c-.05.1-.05,0-.15,0s0-.05,0-.07l-.15.13.09-.06,0,.14c-.09.1-.12,0-.19,0l0,0c-.11,0-.11,0-.17-.06s0,.06,0,.08,0-.05,0-.06a.11.11,0,0,1-.16.09s0,0,0,0,0,0-.07,0l0-.1-.07.09s-.1,0-.09,0l0,0-.31,0v-.08c0,.11-.17,0-.16.09-.06-.08-.23,0-.19-.11-.21,0-.32.13-.57.05-.09-.13-.33-.09-.49-.11l-.84.13c-.19-.19-.49.05-.69-.06l-.06.07c-.14-.11-.35,0-.54-.1a.45.45,0,0,1-.09.05s0,0,0,.06-.17,0-.16-.09h0c0-.09-.17,0-.23,0l0,.1-.11,0,0,0c-.12,0-.36.09-.45.13l-.31.07a.91.91,0,0,0-.58.34c0-.13-.06.1-.13,0s-.19.18-.24.29,0,0,0,0l-.15.12c0-.18,0,.18,0,0a1.6,1.6,0,0,0-.51.67,3.16,3.16,0,0,0-.18.46.92.92,0,0,0,0,.29,1.22,1.22,0,0,1,0,.21l0,0c0,.12,0,.27,0,.36s.09.2.1.23-.06.19-.06.15.16.2.1.35.12.39,0,.4h0c-.1.19.07.36,0,.57l0,0,.43.41.47-.11.38-.36-.08-1,.15-.77v-.37s0,0,0,0l.05-.14a1.46,1.46,0,0,1,.35-.5v-.13a.92.92,0,0,0,.4-.15c.12-.07.3-.13.29-.05V22c.11,0,.1.05.13.07a21.8,21.8,0,0,1,3,0c.09.06.36,0,.43.1a2.28,2.28,0,0,1,.93-.08h0l.14,0a0,0,0,0,1,0,0c.16-.08.41,0,.61,0h0c1.15.05,2.22-.1,3.36.05a2,2,0,0,0,.86.05.49.49,0,0,1,.42.17c0,.06.17.18.29.31S40.52,23,40.53,23Z"/><path class="cls-3" d="M40.66,24.68h0S40.63,24.68,40.66,24.68Z"/><polygon class="cls-3" points="41.32 21.98 41.33 21.99 41.35 21.93 41.32 21.98"/><path class="cls-3" d="M41.74,23.76c0-.07,0-.08,0-.07A.15.15,0,0,0,41.74,23.76Z"/><path class="cls-3" d="M40.73,25.27s0,0,.05,0v-.07Z"/><path class="cls-3" d="M41.25,25.12h0S41.27,25.11,41.25,25.12Z"/><path class="cls-4" d="M30.16,42.2c1.81-4.34-1.27-4,2.91-7.53,2.19-2,2.21-1.83,4.84-1.31a6.84,6.84,0,0,0,7.1-3.6c.58,4.37-1.87,7.58-3.88,11.46a27.92,27.92,0,0,1-5.8,3.28A5.87,5.87,0,0,1,30.16,42.2Z"/><path class="cls-3" d="M29.83,40.81Z"/><path class="cls-3" d="M35.43,38.25h0v0Z"/><path class="cls-3" d="M36.35,38Z"/><path class="cls-3" d="M33.39,39.13h0Z"/><polygon class="cls-3" points="28.48 42.12 28.48 42.11 28.47 42.12 28.48 42.12"/><path class="cls-3" d="M28.47,42.08s0,0,0,0,.05,0,.06,0S28.49,42.09,28.47,42.08Z"/><path class="cls-3" d="M26.66,44.93v0Z"/><path class="cls-3" d="M33.94,40.41h0A0,0,0,0,0,33.94,40.41Z"/><path class="cls-3" d="M26.93,44.48l0,0Z"/><path class="cls-3" d="M35.43,38.2h0Z"/><path class="cls-3" d="M37.14,37.72l0,0h0Z"/><path class="cls-3" d="M41.09,35.78h0v0A0,0,0,0,0,41.09,35.78Z"/><path class="cls-3" d="M38.27,37.36v0a.33.33,0,0,0-.13.06l0,.05Z"/><path class="cls-3" d="M40.1,37.69h-.17c.31-.31.54-.36.78-.67v0s-.06-.19.57-.41h0s0,0,0,0l-.12,0a.76.76,0,0,1,.08-.21l.05,0,.13-.16h.1c0-.07-.11-.15.06-.21-.12,0,0-.11,0-.13h.07c.06-.07.17-.23.16-.3a2.82,2.82,0,0,1-.58.12c.11-.07,0,0,0,0v0c-.07,0-.12,0-.16,0h0l0,0s0,0,0,0h0s-.06.06-.08.08l0,0c0,.11-.39.17-.45.22s-.11.14-.21.17-.12,0-.21,0,.06,0,0,.07H40c.05,0,0,0,0-.06s-.27.08-.23.19c-.13,0-.16,0-.21,0s.07,0,.08,0,0,0,0,0-.45.11-.4.21v0c0,.09.11.14.1.21h-.06l0,.07s0,0,0,0-.19.12-.3.17l.24.14c-.11,0-.32,0-.29.08l-.1,0c-.24,0-.07.13-.16.13l-.13,0,.08,0a.7.7,0,0,1-.25,0h0s0,.09-.08.12-.13.13-.31.12v.1h-.13l0-.06c.1,0,.27-.17.4-.24v0c-.08,0-.15.11-.2.13s-.13,0-.11-.1v.09a1.39,1.39,0,0,1-.55.2l0,0s-.09.09-.13,0a.89.89,0,0,1-.5,0v.09s-.14-.08-.11,0L36.5,38s-.06.08-.13,0h0c-.13,0,0,.08-.12.08s0,.12-.07.12l-.11-.09c-.14,0-.11.1-.27.16a.17.17,0,0,1-.15-.21c0,.14,0,.09-.09.17s0-.05,0-.1,0,.06-.1.08a1.4,1.4,0,0,1,0,.25h0a.21.21,0,0,1-.22.1v0l-.07,0,0,0-.11.06h0a.43.43,0,0,1-.18,0v0c-.18,0-.26.12-.44.19v-.06c-.09,0,0,.09-.07.09l0-.07c0,.12-.09,0-.15,0l.06.09h-.1c-.1,0-.09-.11-.1-.16l0,.1L34,38.74c0,.12,0,0-.11.08s0,0,0-.06l-.1.17.07-.08,0,.13c-.05.12-.12,0-.17.08l0-.05c-.08.06-.11,0-.17,0s.06,0,0,.07,0,0-.07,0a.1.1,0,0,1-.1.14.08.08,0,0,1,0,0s0,0-.05,0v-.1l0,.11s-.07.07-.09,0l0,0-.29.08,0-.08c0,.12-.16,0-.1.14-.08-.05-.19.13-.21,0-.19.06-.23.24-.48.26s-.33.05-.47.09-.41.32-.66.49c-.25-.06-.39.26-.61.29v.09c-.17,0-.26.21-.48.23a.21.21,0,0,1-.05.08.08.08,0,0,1,.06,0c-.06,0-.13.1-.18,0h0c0-.08-.11.12-.21.1l.09,0-.09.06v0c-.2.46-.55.36-.74.78,0-.12,0,.09-.1,0s-.11.17-.14.26,0,0,0,0l-.1.1c-.05-.17,0,.16,0,0a4,4,0,0,0-.88,1h0c-.07.09-.11.23-.21.27s0,.2,0,.23-.16.12-.13.09,0,.24-.08.33-.07.39-.2.33h0c-.17.11-.09.34-.26.46h0l.21.52.48.11.48-.11.32-.77a5.22,5.22,0,0,1,.48-.46c.15-.22.27-.45.43-.65l.5-.6v-.15c.34-.09.51-.49.83-.61l-.05-.07c.07-.07.1,0,.13,0a6.44,6.44,0,0,1,2.23-1.25c.1,0,.3-.1.39-.06a1.89,1.89,0,0,1,.73-.38v0l.12-.06s0,0,0,0,.35-.12.53-.14h0c1-.32,1.88-.78,2.92-1.1.53,0,1-.53,1.54-.7A4.09,4.09,0,0,0,40.1,37.69Z"/><path class="cls-3" d="M41.34,36.44h0S41.36,36.45,41.34,36.44Z"/><polygon class="cls-3" points="38.87 37.11 38.88 37.1 38.82 37.07 38.87 37.11"/><path class="cls-3" d="M40,36.22c-.05,0-.05,0,0,0S40,36.24,40,36.22Z"/><path class="cls-3" d="M41.69,36s0,0,0,0l0,.05Z"/><path class="cls-3" d="M41.21,35.73l0,0S41.19,35.72,41.21,35.73Z"/></g></g></svg>