<svg xmlns="http://www.w3.org/2000/svg" viewBox="0 0 70 70"><defs><style>.cls-1{fill:#fef4e8;}.cls-1,.cls-2{stroke:#898989;stroke-miterlimit:10;stroke-width:1.17px;}.cls-2{fill:#fef3e7;}.cls-3{fill:none;}</style></defs><g id="圖層_2" data-name="圖層 2"><g id="圖層_1-2" data-name="圖層 1"><path class="cls-1" d="M17.79,48.07,34.63,21.93c1.56,1.7,3.12,3.52,4.66,5.46A106,106,0,0,1,52.21,48.06Z"/><path class="cls-1" d="M34.64,22.36,28.07,32.87l3.48-1.95,1.67,2.32,2.37-2.49c.71.77,1.43,1.54,2.14,2.32l1-2.15,3.56,1.39a39.05,39.05,0,0,0-3.61-5.56A39.72,39.72,0,0,0,34.64,22.36Z"/><path class="cls-2" d="M41.72,36.8l-6.08,7.8A1.3,1.3,0,0,0,36,45.87a1.37,1.37,0,0,0,1.55.17l5.8-7.8a1.11,1.11,0,0,0-.26-1.44A1.15,1.15,0,0,0,41.72,36.8Z"/><circle class="cls-2" cx="46.38" cy="33.01" r="5.84"/><circle class="cls-3" cx="35" cy="35" r="35"/></g></g></svg>