<svg xmlns="http://www.w3.org/2000/svg" viewBox="0 0 70 70"><defs><style>.cls-1{fill:none;}.cls-2{fill:#fcf5ea;}.cls-3{fill:#030000;}.cls-4{fill:#275a8b;}.cls-5{fill:#edd04d;}</style></defs><g id="圖層_2" data-name="圖層 2"><g id="圖層_1-2" data-name="圖層 1"><circle class="cls-1" cx="35" cy="35" r="35"/><path class="cls-2" d="M48.56,47,36,53.52,23.2,50c.1-3.3.21-6.59.32-9.89C27.1,39.53,31,39,35.16,38.69s8.26-.49,12-.48Z"/><path class="cls-3" d="M29.74,52.5Z"/><path class="cls-3" d="M29.43,38.46h0l0-.05Z"/><path class="cls-3" d="M33.13,38.18h0S33.15,38.16,33.13,38.18Z"/><path class="cls-3" d="M22.81,42.53a.11.11,0,0,0,0,.06Z"/><path class="cls-3" d="M36.67,53.79h0Z"/><path class="cls-3" d="M36.61,53.86c-.07,0,0,0,0-.06l-.13.05a.87.87,0,0,0-.19.1S36.6,53.84,36.61,53.86Z"/><path class="cls-3" d="M47.52,48.07l0,0Z"/><path class="cls-3" d="M24.2,42.21v.06A.11.11,0,0,0,24.2,42.21Z"/><path class="cls-3" d="M45.78,48.94V49A.07.07,0,0,0,45.78,48.94Z"/><path class="cls-3" d="M29.49,38.41l0,0Z"/><path class="cls-3" d="M36.55,37.92l0,0h0Z"/><path class="cls-3" d="M48.14,44.78l0,0,0-.06A.45.45,0,0,1,48.14,44.78Z"/><path class="cls-3" d="M41.24,37.85a0,0,0,0,0,0,0c-.08,0-.29,0-.56,0l0,.06Z"/><path class="cls-3" d="M46.38,39l-.5-.11h.62c.07,0,0,.11,0,.15a17.05,17.05,0,0,0,.31,1.7l0-.07a6.43,6.43,0,0,1,.33,2.5h0a.77.77,0,0,1,0,.23V43a5.64,5.64,0,0,1,.21.71c0,.06,0,.09,0,.1l.14.73,0,.24c.07.22.2.09.22.7.06-.24.11.29.15.21l0,.16a7.4,7.4,0,0,0,.29,1.19s0-1.44,0-1.83c.06.5,0,.13.05,0l0,0a2.23,2.23,0,0,1,0-.47h0v0s0,0,0,0,0,0,0-.09h0a4,4,0,0,1-.07-.44h.06A11.63,11.63,0,0,1,48,42.42c0-.31-.13-.67-.15-1.06-.08-.6,0-.31,0-.62s-.05.09-.08-.06v-.47c0,.27.06.12.07.07-.06-.39-.06-1-.19-1.13,0-.26,0-.46,0-.61a2.13,2.13,0,0,0,0-.42,2.28,2.28,0,0,1,0,.38c0-.34,0-.14,0,0a3.36,3.36,0,0,1-.09-.59v-.1h-.3l-.43,0-.65,0c-.15,0-.24,0-.26,0v0c-.08.09.05.17-.18.22l-.15,0-.23,0c-.16,0-.08-.06-.08-.07a12,12,0,0,1-1.35,0l.49.23a3.85,3.85,0,0,0-1.15-.07L43,38c-.77-.14-.53.08-.84,0L41.72,38l.39,0a8.33,8.33,0,0,1-.85-.1h0l0,0h-.06a.92.92,0,0,1-.51.09,6.54,6.54,0,0,1-1.29,0l-.15.1-.46,0V38l1.87-.12v0l-1,.07c-.11,0-.4-.07-.2-.13l-.2.08c-1.15.07-1.15.07-2.35.07l.11,0a1.11,1.11,0,0,1-.54,0,13.84,13.84,0,0,1-1.94,0l-.09.1c-.15,0-.39-.11-.45,0l-.32.07a2.6,2.6,0,0,1-.57,0h0c-.47,0,0,.07-.53.07-.18,0-.18.13-.44.14l-.27-.1a7.45,7.45,0,0,0-1.23.19c-.34,0-.51-.09-.3-.21a1.26,1.26,0,0,1-.52.19c-.06,0,0,0,.06-.11-.36,0-.21.07-.48.1-.06.1-.13.25-.22.26l.11,0a3.27,3.27,0,0,1-.91.14v-.05l-.34.07,0-.06-.49.09h.07a3.89,3.89,0,0,1-.72.1v0a10,10,0,0,0-1.83.31l.08-.08c-.25,0-.05.11-.35.12l0-.08c-.25.15-.34,0-.52,0l.1.09-.4,0c-.63.07-.46-.05-.37-.12l-.41.15-.16-.07a.51.51,0,0,1-.18.07c-.05,0-.12,0-.1.08a2.22,2.22,0,0,0,0,.58s-.05-.14-.07.07l.05.53a1.65,1.65,0,0,0,.05.32c0-.12,0-.18,0-.43l.13.09c.08.45,0,.48,0,.75l0-.17a1.9,1.9,0,0,1-.07.63c0-.07.06-.17.08,0s-.05.06-.07.17.13.31.08.56c0,0,0,0,0,0a.29.29,0,0,1,0,.21l-.09-.07.08.22c0,.15,0,.36,0,.34l0-.09-.06,1.1h-.07c.1.11-.06.59.07.56-.08.2,0,.81-.12.69,0,.71.1,1.11,0,2a7.29,7.29,0,0,0-.16,1.71v1.34L24,51l1.11.25a22.06,22.06,0,0,0,2.3.68l.21,0c.43.24,1.18.3,1.8.59l.29,0s-.07,0-.07-.08c.18.08.57.15.52.23h-.05c-.06.08.57.12.76.25l-.09-.13.35.12h-.1c1.59.21,2.19.7,3.68.9-.22,0,.3,0,.29.14a.74.74,0,0,0,.38.16c.18,0,.43.07.61.09l.31-.21s0,0,0,0l.54-.27c-.22.28.29-.29.08,0,1.3-.55,2.87-1.49,4.34-2.2h-.08a9.45,9.45,0,0,1,1.11-.55A2.35,2.35,0,0,0,43,50.4c.28-.22.62-.24.48-.18a5.89,5.89,0,0,1,1-.65c.21,0,1.18-.75,1.25-.63h0c.63-.21,1.1-.65,1.76-.89l0,0,1.07-1L48,46.81l-1.27.24L43.8,48.66l-2.45,1.11-5.48,2.9,0,0,0,0H35.7c-1.19-.52-2.83-.75-4.12-1.24l-.06.08a1,1,0,0,1-.42-.18l-7.19-1.91c0-.69.08-1.36.11-2.06.07-.31.07-1.26.14-1.51a26.77,26.77,0,0,1,0-3.23v-.46s0,0,0,0a5.86,5.86,0,0,1,0-1l0-.28c0-.09,0,0,0-.08s0,0,0,0h0l2.3-.37L29.45,40c1.91-.26,3.82-.47,5.8-.56s4-.35,6.09-.3C41.73,39.2,46,39,46.38,39Z"/><path class="cls-3" d="M47.34,43.83v0S47.32,43.84,47.34,43.83Z"/><polygon class="cls-3" points="43.81 37.88 43.84 37.89 43.74 37.83 43.81 37.88"/><path class="cls-3" d="M47.89,40.5c0-.25,0-.26,0-.22A.9.9,0,0,0,47.89,40.5Z"/><path class="cls-3" d="M47.75,45.88c0,.13,0,.07,0,0l0-.23Z"/><path class="cls-3" d="M48.17,45.25l0,0C48.19,45.21,48.18,45.22,48.17,45.25Z"/><path class="cls-3" d="M35.94,43.16s0,0,0,0Z"/><path class="cls-3" d="M36.21,47.48h0Z"/><path class="cls-3" d="M36.12,48.18h0S36.13,48.19,36.12,48.18Z"/><path class="cls-3" d="M36,45.88h0Z"/><path class="cls-3" d="M35.81,41.89Z"/><path class="cls-3" d="M35.84,41.9s0,0,0,0,0,0,0,0S35.82,41.91,35.84,41.9Z"/><path class="cls-3" d="M35.66,39.58h0Z"/><path class="cls-3" d="M34.61,46h0A0,0,0,0,0,34.61,46Z"/><path class="cls-3" d="M35.64,39.94h0Z"/><path class="cls-3" d="M36.26,47.49h0Z"/><path class="cls-3" d="M36.11,48.83h0Z"/><path class="cls-3" d="M35.49,52.09h0l0,0S35.49,52.08,35.49,52.09Z"/><path class="cls-3" d="M35.94,49.71h0a.31.31,0,0,0,0-.11h-.06Z"/><path class="cls-3" d="M34.69,50.72l.11-.1c.06.3,0,.44.05.7h0s.22,0-.07.47h0s0,0,0,0l.07-.08a.34.34,0,0,1,.09.14l0,0,0,.14-.07,0s.19,0,.11.14c.1,0,.07.05.12,0l-.05,0a.38.38,0,0,0,.1.22,2.64,2.64,0,0,1,.32-.35c0,.1,0,0,.05,0h0c0-.06.09-.06.11-.09h0s0,0,0,0h0s0-.06,0-.08h.06c-.11,0,.15-.29.15-.35s0-.13,0-.2.08-.06.13-.12-.07,0-.07,0l.07-.08c0,.05,0,0,.06,0s.11-.2,0-.22c0-.1.09-.1.09-.14s0,0,0,0,0,0,0,0,.19-.33.07-.33h0c-.09,0-.17,0-.22,0l0,0,0,0a.06.06,0,0,1,.06,0c0-.07,0-.17,0-.25l-.24.09c.06-.07.17-.2.09-.22l.08,0c.15-.15-.07-.1,0-.16l.09-.07v.07a.65.65,0,0,1,.13-.16h0a.09.09,0,0,1-.08-.09c0-.07,0-.13,0-.25l-.09,0,0-.09h.07c0,.08,0,.24,0,.35h0c0-.06,0-.14,0-.18s.09-.08.14,0l-.07,0a.7.7,0,0,1,.06-.44l0,0s-.05-.09,0-.1a.6.6,0,0,1,.14-.37h-.08s.13-.08,0-.09l0-.06s-.05-.06,0-.1h0c0-.09-.07,0,0-.1S36,48.06,36,48L36.1,48c.07-.09-.05-.1-.06-.23a.23.23,0,0,1,.24-.06c-.11,0-.07,0-.13-.09s.06,0,.1,0,0,0,0-.09l-.23,0,0,0a.14.14,0,0,1,0-.18h0l0-.07H36l0-.09v0s0-.1,0-.14h0c.09-.12,0-.21-.05-.35l.06,0c.07,0-.1,0-.07-.07H36c-.1,0,0-.07.06-.1l-.1,0,0-.07c0-.07.13,0,.18,0l-.08,0h.09c-.11,0,0,0,0-.1s0,0,.06,0l-.13-.09.06,0H36c-.1-.06,0-.08,0-.13l0,0c0-.07,0-.08.05-.12S36,46,36,46,36,46,36,46s-.13,0-.09-.1h0s0,0,0,0h.1l-.09,0s0-.07,0-.07l0,0,0-.21h.07c-.1,0,0-.11-.09-.1.07,0-.06-.15.09-.13,0-.14-.14-.21-.07-.37s.08-.22.09-.33-.11-.34-.16-.55c.18-.13-.07-.31,0-.45l-.07,0c.11-.09,0-.22.07-.36l-.05-.05s0,0-.06,0,0-.11.08-.11h0c.09,0,0-.11,0-.15l-.09,0v-.07h0c-.22-.29.08-.43-.13-.71.11,0-.05,0,.06-.06s0-.13-.07-.19h0v-.1c.14,0-.13-.07,0,0,.1-.27,0-.61,0-.92l0,0c0-.08,0-.18,0-.24s-.1-.12-.11-.15.06-.12.06-.09-.16-.13-.11-.23-.13-.26,0-.27h0c.1-.12-.07-.23,0-.37h0l-.43-.26-.47.09-.37.25.1.63-.13.51L34.45,42l.1.09c-.17.25.05.55-.07.81h.09c0,.07,0,.07-.07.08a9.79,9.79,0,0,1,.09,2c-.06.06,0,.24-.08.29a1.12,1.12,0,0,1,.12.61h0l0,.09h0c.09.11,0,.28,0,.41h0a13.67,13.67,0,0,1,.09,2.21c-.13.36.08.76,0,1.16A2.39,2.39,0,0,0,34.69,50.72Z"/><path class="cls-3" d="M34.85,51.91h0S34.83,51.91,34.85,51.91Z"/><polygon class="cls-3" points="35.84 50.2 35.84 50.2 35.9 50.18 35.84 50.2"/><path class="cls-3" d="M35.91,51.27c0-.05,0-.05,0,0A.05.05,0,0,0,35.91,51.27Z"/><path class="cls-3" d="M34.93,52.3s0,0,0,0a.18.18,0,0,1,0,0Z"/><path class="cls-3" d="M35.45,52.18h0S35.46,52.17,35.45,52.18Z"/><path class="cls-2" d="M44.89,30.23l7.65,2.56L41.06,41.72l-6.7-4.15-9.57-6.38-7.33,4.47,11.16,6.69c1.78-1.57,3.69-3.18,5.74-4.78A117.79,117.79,0,0,1,44.89,30.23Z"/><path class="cls-3" d="M39.06,41.27Z"/><path class="cls-3" d="M19.15,35.74h0Z"/><path class="cls-3" d="M22.89,38.11l0,0S22.93,38.11,22.89,38.11Z"/><path class="cls-3" d="M24.81,32h0Z"/><path class="cls-3" d="M46.29,38.37v0l0,0Z"/><path class="cls-3" d="M46.24,38.45c-.09,0,0,0,0-.06a1,1,0,0,0-.27.18S46.19,38.46,46.24,38.45Z"/><path class="cls-3" d="M46.67,30.31h0Z"/><path class="cls-3" d="M24.31,30.61l.1-.07Z"/><path class="cls-3" d="M48.87,31.07l0,0A.05.05,0,0,0,48.87,31.07Z"/><path class="cls-3" d="M19.25,35.74h0Z"/><path class="cls-3" d="M26.38,40.24s0,0,0,0h0Z"/><path class="cls-3" d="M42.65,31.72h0l-.06.07Z"/><path class="cls-3" d="M30.32,40.33s0,0,0,0a5.5,5.5,0,0,0-.53.42l0,.06Z"/><path class="cls-3" d="M35.86,37.44l-.54.27c1.49-1.2,2.27-1.64,3.55-2.66l-.06.07a8.13,8.13,0,0,1,2.51-1.65h0a1,1,0,0,1,.23-.15l-.41.2c.21-.17.37-.35.67-.56.07,0,.11,0,.12,0l.73-.5.27-.09c.21-.18,0-.24.68-.57-.29.06.27-.24.17-.24l.18-.06a12.52,12.52,0,0,0,1.18-.85s-1.56.71-2,.87c.53-.31.13-.1,0-.06l0,0a3,3,0,0,1-.52.21h0v0s0,0,0,0,0,0-.09.08v0c-.12.09-.35.23-.44.29l0,0a16.26,16.26,0,0,1-1.91,1.09,11.78,11.78,0,0,0-1.06.72c-.61.41-.35.14-.68.32s.12,0,0,.11l-.49.25c.25-.19.09-.11,0-.1-.39.27-1.05.63-1.11.81-.54.34-.57.3-.8.47.09,0,.25-.14.26-.12-.23.11-.09.08,0,0-.29.27-1.75,1.06-1.73,1.21h0c0,.12.15.1,0,.31l-.17.08-.19.2c-.16.09-.11,0-.12,0a14.35,14.35,0,0,1-1.25,1l.59-.18a5.66,5.66,0,0,0-1.11.81l-.26.11c-.81.47-.45.46-.76.66l-.41.23.35-.29c-.38.25-.54.35-.86.54h0l-.05,0c0,.07-.17.24-.43.45s-.32.28-.51.44l-.3.24a2,2,0,0,1-.33.22.83.83,0,0,1,0,.15l-.12.07-.14-.11v-.08l.12.07,1.22-1.06v0l-.87.76c-.05,0-.19.12-.21.09s-.05,0,0-.07a.45.45,0,0,1,0,.11l-.09.07-.63-.38-1.1-.74.09.1c-.25-.13-.51-.26-.54-.35A16.87,16.87,0,0,1,24.49,39h-.15c-.15-.1-.32-.35-.46-.29l-.35-.17a3.31,3.31,0,0,1-.58-.35h0l0,0h0c-.46-.32,0,.07-.56-.3-.14-.16-.25,0-.51-.21l-.2-.26a12.1,12.1,0,0,0-1.3-.72c-.32-.24-.43-.43-.15-.37a1.79,1.79,0,0,1-.62-.22c0-.08,0-.06.12,0-.33-.27-.24-.1-.51-.27-.16,0-.2.15-.26.12l0,0a.71.71,0,0,1-.4-.21h.08l-.1-.05,0,0h.11l.14-.1h0l.1-.08.22-.11v0A15.21,15.21,0,0,0,21,34.17l-.07.11c.29-.1,0-.12.34-.28l.06.06c.21-.25.35-.19.55-.27l-.14,0,.36-.19c.39-.21.3,0,.27,0l.22-.22.09,0c.14-.21.2-.1.5-.35.05,0,0,.08.09,0l.48-.44-.3.25,0-.14c.29-.29.48-.27.7-.45l-.15.14a2.42,2.42,0,0,1,.68-.35c-.09,0-.21.05-.06-.06s.1,0,.13,0a.17.17,0,0,1,.09-.18l.06.06s0,0,0,0,.05,0,.07,0l-.06.08s0-.06.15,0,.37.2.32.24l-.09,0,1.07.75,0,.07c.16,0,.57.44.61.3.16.2.84.5.63.54.71.49,1.18.63,2,1.27a11.15,11.15,0,0,0,1.67,1.23l3,1.82c.59.58,1.75,1,2.43,1.56l.25.06c.43.4,1.25.75,1.88,1.27a2,2,0,0,1,.32.15S39,41.2,39,41.16c.18.14.6.36.53.42l-.06,0s.12.12.3.22a3.21,3.21,0,0,1,.59.38c0-.08-.12-.15-.16-.22l.64.42-.18-.09.44.24.8-.68.43-.34.79-.59a13.16,13.16,0,0,0,1.65-1.34c-.12.23.24-.26.33-.18.45-.16.64-.54.91-.8v0l.52-.39c-.22.36.29-.38.09-.06,1.39-1,3.06-2.39,4.63-3.55l-.09,0c.28-.21,1.13-.93,1.69-1.29a4,4,0,0,0,.8-.69l-.51-.11c-.69-.17-1.08-.43-.83-.34-.35-.11-.71-.19-1.06-.27a4.63,4.63,0,0,1-.8-.25c-.16-.19-1.62-.41-1.59-.55h0c-.72-.34-1.47-.42-2.24-.77h.05l-1.76-.14.31.6,1.29.83,3.85,1.19.24.09.18.08.06,0s0,0,0,.07l-.14,0L45,37.66l-.37.43a17.2,17.2,0,0,0-2,1.45l-1,.81-.51.39a.1.1,0,0,1-.08,0h0v.09c-.08,0,0-.08-.14-.16l-5.57-3.37c-1.81-1.14-3.54-2.32-5.14-3.44-.28-.26-1.25-.87-1.46-1.08-.56-.31-1.11-.65-1.66-1l-1.84-1.22.08,0-.45-.29-.48.3s0,0,0,0l-.65.43-.56.33L21.93,32l0,0-6,3.67,4.63,2.74c1.19.71,2.37,1.43,3.57,2.19.6.42,1.24.82,1.92,1.22l2.58,1.51,1.46-1.22c.34-.28.69-.55,1-.82S35.49,37.7,35.86,37.44Z"/><path class="cls-3" d="M41.93,33h0S42,33,41.93,33Z"/><polygon class="cls-3" points="32.76 38.44 32.79 38.42 32.66 38.46 32.76 38.44"/><path class="cls-3" d="M38.17,34.24c-.25.17-.26.19-.22.17A1.54,1.54,0,0,0,38.17,34.24Z"/><path class="cls-3" d="M44,31.53c.14-.08.07-.07,0,0l-.23.16Z"/><path class="cls-3" d="M43.15,31.45l0-.05C43.1,31.45,43.11,31.46,43.15,31.45Z"/><path class="cls-4" d="M35.14,31.73c-1.12-.52-10.51-5-10.25-10.53A3.42,3.42,0,0,1,26,18.57c1.49-1,4.49.14,7.54,3,1.17-3.27,3.23-5.27,5.11-5.12A3.48,3.48,0,0,1,41,17.94C43.58,21.81,35.76,31,35.14,31.73Z"/><path class="cls-5" d="M35.16,32.05a29.73,29.73,0,0,1-4.32-2.6,29.19,29.19,0,0,1-4.06-3.58c1.91-.16,3.93-.39,6-.7,2.71-.4,5.24-.9,7.58-1.44a23.71,23.71,0,0,1-5.23,8.32Z"/></g></g></svg>