<svg xmlns="http://www.w3.org/2000/svg" viewBox="0 0 53.83 95.45"><defs><style>.cls-1{fill:#f09681;}.cls-2{fill:#fff;}</style></defs><g id="圖層_2" data-name="圖層 2"><g id="圖層_1-2" data-name="圖層 1"><path class="cls-1" d="M0,0V95.36A123.91,123.91,0,0,0,23,73.21q2.3-2.89,4.3-5.75l26.56,28V0Z"/><path class="cls-2" d="M24.74,25.25a4.68,4.68,0,0,1,2.5-4.32,4,4,0,0,1,3.84,0c1.72,1.12,2.29,4.27.49,7.14a4.21,4.21,0,0,1,4.9.55,4.2,4.2,0,0,1-.77,6.16,4.33,4.33,0,0,1-5.16-.5,4.66,4.66,0,0,1,2,4.44A4.42,4.42,0,0,1,28,42.47a4.62,4.62,0,0,1-3.66-5.67C23.16,39.6,20,40.57,18,39.39A4.28,4.28,0,0,1,16.47,34a4.36,4.36,0,0,1,5.09-2.38,5,5,0,0,1-5.09-3,4.79,4.79,0,0,1,.7-4.18c1.14-1.62,3.57-2.9,5.53-1.94A4.27,4.27,0,0,1,24.74,25.25Z"/><path class="cls-1" d="M27.66,29.62a2.23,2.23,0,0,1,.46,1.95c-.19.88-.95,2-2.05,2s-1.76-1.23-1.85-2.14a2.24,2.24,0,0,1,.74-2A2.09,2.09,0,0,1,27.66,29.62Z"/></g></g></svg>