<svg xmlns="http://www.w3.org/2000/svg" viewBox="0 0 305 553.5"><defs><style>.cls-1{fill:#fff4e7;}.cls-2{fill:#58aeda;}.cls-3{fill:#f2c10e;}.cls-4,.cls-6,.cls-7,.cls-8,.cls-9{fill:#fff;}.cls-10,.cls-11,.cls-5,.cls-6,.cls-7,.cls-8,.cls-9{isolation:isolate;}.cls-6,.cls-7,.cls-8,.cls-9{font-size:26.96px;font-family:Optima-Bold, Optima;font-weight:700;}.cls-7{letter-spacing:-0.07em;}.cls-8{letter-spacing:-0.01em;}.cls-9{letter-spacing:-0.03em;}.cls-10,.cls-11{fill:#ef9580;}.cls-10{opacity:0.15;}.cls-11{opacity:0.28;}.cls-12{opacity:0.17;}.cls-13{fill:#f1a08d;}</style></defs><g id="圖層_2" data-name="圖層 2"><g id="圖層_1-2" data-name="圖層 1"><rect class="cls-1" width="305" height="553.5"/><path class="cls-2" d="M60.32,438.35l35.93-96.22q4.92,9.25,9.94,20.09a523.1,523.1,0,0,1,27.54,76.09"/><ellipse class="cls-3" cx="114.25" cy="289.12" rx="16.6" ry="17.28"/><path class="cls-2" d="M241.68,437.85,183.6,255.52q-5.4,16-10.81,32.44-6.27,18.93-12.31,37.72a76.23,76.23,0,0,0-7.57-19.62,40.16,40.16,0,0,0-4.1-5.8q-8.61,20.31-17.34,42.48c-12.78,32.62-24.21,64.76-34.41,95.78Z"/><path class="cls-4" d="M183,252.64,165.22,309.3l10.08-10.54q2.07,6.25,4.15,12.49,3-6.72,5.93-13.44l5.33,12.48,2.37-11.52L202,312.21Q192.49,282.4,183,252.64Z"/><path class="cls-4" d="M96.26,342.48l-14,36.31,7.42-6.72,3.56,8,5.06-8.63,4.56,8,2-7.41,7.59,4.81a160.2,160.2,0,0,0-7.7-19.2A133.65,133.65,0,0,0,96.26,342.48Z"/><path class="cls-4" d="M148.71,298.89l-8.38,21.94,5.34-7.68v6.72l4.14-5.76,2.38,5.76c.39-2.25.79-4.49,1.18-6.72l4.74,4.8a62.9,62.9,0,0,0-3.55-9.61A46.86,46.86,0,0,0,148.71,298.89Z"/><g class="cls-5"><text class="cls-6" transform="translate(83.73 136.84)">Fun</text><text class="cls-7" transform="translate(127.19 136.84)">T</text><text class="cls-8" transform="translate(140.19 136.84)">r</text><text class="cls-9" transform="translate(150.35 136.84)">a</text><text class="cls-8" transform="translate(163.02 136.84)">v</text><text class="cls-6" transform="translate(176.18 136.84)">eler</text></g><circle class="cls-10" cx="229.86" cy="114.95" r="6.69"/><path class="cls-11" d="M232.94,103.74l-.93-1.37c-.29-.31-.33-.7-.19-.84a.73.73,0,0,1,.93.23l1.19,1c2.25-.63,3.41-.84,3.49-.63s-.78.73-2.56,1.63l1.28,1.78c1.22,0,1.51.14,1.53.25s-.69.21-1.29.82-.57,1.06-.71,1-.18-.28-.14-1.35l-1.67-1.6c-1,1.58-1.63,2.33-1.82,2.24S232.15,105.84,232.94,103.74Z"/><g class="cls-12"><path class="cls-13" d="M235.52,125v.12S235.5,124.92,235.52,125Z"/><polygon class="cls-13" points="235.81 124.47 235.83 124.51 235.83 124.37 235.81 124.47"/><path class="cls-13" d="M236.2,124.23c-.15-.15-.12.12-.23.1h0l.05.16C236.06,124.38,236.11,124.22,236.2,124.23Z"/><path class="cls-13" d="M236.65,124.46c-.06,0,0-.08-.06,0h.06Z"/><path class="cls-13" d="M236.77,124.32v.1h.09A.15.15,0,0,0,236.77,124.32Z"/><path class="cls-13" d="M236.71,124.16v0Z"/><path class="cls-13" d="M236.71,124.3v-.09h0Z"/><path class="cls-13" d="M236.65,124.3c-.05,0-.11,0-.09-.11C236.47,124.28,236.57,124.39,236.65,124.3Z"/><path class="cls-13" d="M236.11,124H236v.08S236.14,124.09,236.11,124Z"/><path class="cls-13" d="M237.16,124.17a1.29,1.29,0,0,1-.12-.12v.07A.17.17,0,0,1,237.16,124.17Z"/><path class="cls-13" d="M237,124.05v-.11S237,124,237,124.05Z"/><polygon class="cls-13" points="236.61 123.97 236.61 124.16 236.63 123.95 236.61 123.97"/><polygon class="cls-13" points="237.38 124.01 237.41 124.11 237.38 123.95 237.38 124.01"/><path class="cls-13" d="M237.52,123.84c0,.09.12.09.12.15a.34.34,0,0,0,0-.2S237.6,123.9,237.52,123.84Z"/><path class="cls-13" d="M237.64,123.71v.12A.24.24,0,0,0,237.64,123.71Z"/><path class="cls-13" d="M237.16,123.89s.07.07.12.06l-.1-.08Z"/><path class="cls-13" d="M237.18,123.84Z"/><path class="cls-13" d="M236.83,124c0-.08,0-.19-.11-.22S236.82,123.84,236.83,124Z"/><path class="cls-13" d="M237,123.84H237s.06.06.06.1Z"/><polygon class="cls-13" points="237.04 123.74 237.03 123.79 237.06 123.78 237.04 123.74"/><path class="cls-13" d="M237.47,123.71a.13.13,0,0,1,0-.12.24.24,0,0,0-.12,0S237.44,123.74,237.47,123.71Z"/><path class="cls-13" d="M237.32,123.78Z"/><polygon class="cls-13" points="237.81 123.33 237.79 123.32 237.81 123.34 237.81 123.33"/><path class="cls-13" d="M237.37,123.63v.07l0-.06S237.37,123.61,237.37,123.63Z"/><path class="cls-13" d="M237.71,123.6h-.09S237.71,123.63,237.71,123.6Z"/><path class="cls-13" d="M237.35,123.84Z"/><path class="cls-13" d="M237.35,123.84a.14.14,0,0,0,0-.09v.09Z"/><path class="cls-13" d="M237.38,122.66c.07.09.08.23,0,.18,0,.11.28.37.46.48a.21.21,0,0,1-.05-.17c-.06,0-.21,0-.23-.12s.08,0,.16,0c-.13-.08-.05-.24-.21-.38v.11A.53.53,0,0,0,237.38,122.66Z"/><path class="cls-13" d="M237.71,123.4h0a.54.54,0,0,1,.18,0,.17.17,0,0,0,0-.14l-.13.08Z"/><path class="cls-13" d="M237.56,123.52c-.06-.11,0-.2-.16-.27s0,.12,0,.19c.09-.11,0,.08.14.07a.11.11,0,0,1,0,.08h.07l.07-.15A.23.23,0,0,0,237.56,123.52Z"/><path class="cls-13" d="M236.62,123.47Z"/><path class="cls-13" d="M236.71,123.5v.07s0,0-.06-.08,0,.11.08.12h0a.55.55,0,0,1,.22.1A1.21,1.21,0,0,0,236.71,123.5Z"/><path class="cls-13" d="M237.12,123.49l0-.12h-.11S237.09,123.45,237.12,123.49Z"/><polygon class="cls-13" points="237.87 123.37 237.94 123.48 237.87 123.29 237.87 123.37"/><polygon class="cls-13" points="237.97 123.25 238.04 123.34 238.03 123.26 237.97 123.25"/><path class="cls-13" d="M240.3,115.57Z"/><path class="cls-13" d="M240.4,120.23h0Z"/><path class="cls-13" d="M240.71,117.56h0l.11.06Z"/><path class="cls-13" d="M240.18,117.4h0Z"/><path class="cls-13" d="M240.13,114.11h0Z"/><path class="cls-13" d="M239.07,122.07a.15.15,0,0,0,.13,0C239.11,122,239,122,239.07,122.07Z"/><path class="cls-13" d="M241.63,115.47a.11.11,0,0,0-.08,0A.06.06,0,0,0,241.63,115.47Z"/><path class="cls-13" d="M239.29,121.93h0V122S239.32,122,239.29,121.93Z"/><path class="cls-13" d="M238.58,110.15Z"/><path class="cls-13" d="M238.5,108.28Z"/><path class="cls-13" d="M238,122.62v-.06A.06.06,0,0,1,238,122.62Z"/><path class="cls-13" d="M238.44,122.89Z"/><path class="cls-13" d="M240.11,112Z"/><polygon class="cls-13" points="239.62 118.92 239.62 118.92 239.63 118.92 239.62 118.92"/><path class="cls-13" d="M239.58,118.78c.12.11.09.12,0,.14l.34.11Z"/><path class="cls-13" d="M240.27,114.84l-.11.08c-.18-.08-.12-.15-.28-.08.39,0,.05.28.44.29l-.08.05h0c-.18.09.28.07.22.2a.1.1,0,0,1-.13,0l.09.1h-.06v.15h0l.19.11h-.09l.09.09c-.1,0-.19,0-.18-.1-.39,0,.1.07-.14.22v-.08c-.22,0-.14.1-.29.17.08,0,.36-.14.45-.05s0,.05,0,.11c-.14,0-.11,0-.11.09h-.18c0,.07.14.07.22.12s-.17.06-.29.06.23,0,.25.09a.57.57,0,0,0,.08.28c-.08.06-.11,0-.17,0l.14.08h-.07s.18,0,.21.12c.2.06-.31.11-.11.24h-.18a1.16,1.16,0,0,0,.26.28l-.14.06a.59.59,0,0,1,.4.2h.17l.06.15a.27.27,0,0,1-.16-.06h0a.35.35,0,0,1-.26-.08h.12a1,1,0,0,0-.32-.14h-.14l-.17.12c.17.16.43.34.45.55a1.32,1.32,0,0,0-.39-.15c.19,0,0-.15,0-.23s-.11,0-.13,0l.11.2h-.18c.28,0,.15.18.21.27-.1,0-.18-.08-.13-.15-.24,0,.27.22.07.25h0s0,.16-.11.1h0c-.08.11-.15.38.07.49l-.31-.16.65.56c-.18-.1-.67-.24-.73-.39,0,0-.09,0,0,.13a.64.64,0,0,1,.3.11,2.16,2.16,0,0,0-.36,0c.06,0,.34.17.3.21s-.29-.14-.31-.17l.23.26a.75.75,0,0,0-.33-.14c.06,0-.06.09,0,.14h.09c-.11.11.33.34.24.47s-.34-.24-.41-.2c.13.11.61.53.65.72h-.09v.15c-.17-.19-.53-.62-.66-.8h-.14a.08.08,0,0,1-.08-.09v0l-.15.12c.17.1.1.22.24.3l-.09-.39c.17.09.41.38.31.48s-.28-.2-.33-.23,0,.17,0,.15l-.06-.1c-.1,0,.15.24-.06.21,0,0-.25-.06-.16,0a4,4,0,0,1,.89.58,1.21,1.21,0,0,1-.38,0c-.17-.06-.29-.31-.44-.35a.31.31,0,0,1,.09.11c-.05,0-.12-.11-.14,0,.15.12-.1.11.11.12,0,.09-.07,0-.12.11a.69.69,0,0,1,.3.41.57.57,0,0,0-.13-.08c-.1.11-.22.12-.31.22s-.13,0-.17-.08.05.09,0,.13,0-.09-.16-.18c.08.08.05.19.06.28s.12-.09.11-.17a.73.73,0,0,1,.29.58c0,.13-.15-.07-.14,0-.18.14.19.43-.07.45s-.22-.21-.31-.28.16,0,.2-.09h-.1c0-.06,0-.13.05-.13-.14,0-.27.25-.48.28,0,.06,0,.13.08.16v-.06c.12.06,0,.2.14.19s0,.27-.07.29l-.14-.11H238c0,.09-.28-.07-.16.13H238c0,.12.06.32,0,.34.15.1,0,0,.19.07-.22-.14.18-.15-.07-.28.21.13.15,0,.36.07,0,0-.1,0,0-.09h0a.14.14,0,0,1-.09,0c-.07-.12,0-.2,0-.28s0,.06.1.09v-.12c.09.09.24.06.21.19l.08-.06c.09,0,.17,0,.16-.1s0-.19,0-.09l0-.17h0c.11-.11.05-.37.34-.36a.2.2,0,0,1,.09-.17l.1.06c0-.08.21-.09.13-.18.29.12.26-.22.36-.29l-.11-.09a.41.41,0,0,0,.07-.26l-.11-.07c0-.13.2-.13.26-.25s0,.06,0,.06c.33,0,0-.4.25-.42v-.07h0a.29.29,0,0,0,0-.13l.13.06h0c.07,0,0-.06-.14-.09a.2.2,0,0,0,0-.09c.21.07,0-.13.21-.07-.09-.07,0-.22-.19-.35h0a.07.07,0,0,0,0-.13l.16.06-.17-.19a.27.27,0,0,1,.29.11c-.12-.22,0-.14-.16-.34h.1s-.1-.17,0-.16.21-.44.47-.62c-.33,0,.18-.07-.06-.16h.18c0-.15.18-.16,0-.3h.15c.05,0-.06,0,0-.06s.06,0,.09.07c0-.14-.21-.21-.43-.28.13,0,.12-.07,0-.15.08,0,.16,0,.17.06s.17-.26,0-.3v-.08a.38.38,0,0,0,0-.21h0c-.21-.08,0-.09,0-.18h0c.19-.16-.06-.09.15-.25h-.14c-.29-.06.2-.14.1-.26h-.09c-.09-.07.42-.12.47-.17s0,0,.05,0-.17,0-.2-.16.24,0,.27,0-.3-.25-.11-.34h-.2s.29-.21.05-.3h.06c-.05-.07-.09-.21-.22-.25.48-.06-.24-.38.2-.39v-.19h0c0-.13-.09-.16-.19-.2s.07,0,.09,0c.07-.19.06-.21-.17-.34h.14c-.09,0,.19-.28,0-.44h.07c-.2-.17.31-.55-.21-.53l-.16-.11c0,.18-.22,0-.29.11s.12-.2.16-.12h0c.27,0,.05-.22.23-.26a6.87,6.87,0,0,0-.14-1l-.18.11v-.11s.14-.09.16,0c.1-.08-.14-.09-.19-.07,0-.18.26,0,.24-.08v-.06h0c-.1,0-.19,0-.22-.09s.11-.07.11-.1h0v-.14l-.13.12c-.1,0,0-.12-.19,0,.23-.2-.13-.51-.09-.6a.3.3,0,0,1-.24-.19s-.16.15-.19.06c.34-.18,0-.23.23-.45-.11.16-.2-.19-.34,0,0-.08.11-.09.15-.19-.23-.06-.18-.38-.37-.52a.32.32,0,0,1-.16.13l.11-.26s-.24.17-.17,0c0,0-.06.09-.09.08-.11-.49-.74-.49-.73-1.11,0,.11-.06.09-.1.06s-.08.09-.13.14v-.26c-.16.12-.15-.12-.29,0h.06c-.2.11-.25.42-.45.61.23-.12-.09.41.25.26,0,.06-.08,0-.11.1s.15,0,.17,0h0c.18.13.16.27.27.5l.09-.11a.15.15,0,0,1,0,.13c.19-.11-.09-.11.11-.24-.15.25.25.27,0,.52,0,.06.1-.13.15-.07l0,.07h.09s0,.14-.09.18h0c0,.11.15.11.14.15v-.09c.2.1.27.37.53.42v0c.19,0,0,.14.15.24h0c.07,0,.13,0,.14.06s-.08.14-.18.14c.19.07.13,0,.39,0l-.08.08H240c-.11,0-.11.13-.26.12-.12.25.33.12.06.34.3,0,.08-.2.16-.19a1.5,1.5,0,0,0,.22,0s-.3.24-.24.37h0s.13,0,0,.16c.18,0,0,.08.24,0l-.1-.1c.08,0,.36,0,.28.18h-.15c-.05,0,.06,0,0,.11-.22.06-.1-.14-.29-.15s.21.08,0,.13c.32-.06,0,.14.26.15H240c.17,0-.08.18,0,.22,0-.14.15-.08.22-.17.24.13-.31.21-.19.39,0,0,0-.13.12-.1a.21.21,0,0,1-.11.15c.06.13.13,0,.22,0-.15.09.09,0,.15.1h-.13c0,.17.29,0,.22.14h-.21l.07.07h-.16c.13.06.11.09.08.18s.25,0,.27,0-.14,0-.1.1-.2,0-.08-.08h-.14c-.08.07,0,.14,0,.17h0l.21.11a.17.17,0,0,1-.14,0,.11.11,0,0,1,.11.08.48.48,0,0,1-.29,0l.14.12s-.12.09-.16.08.23.16.16.27a.06.06,0,0,1,.06,0c0,.1-.15.19,0,.3l-.19.07c0,.09.25-.1.33,0s-.17,0-.22.08c.1,0,.31.14.15.24S240.29,114.84,240.27,114.84Zm.06,1.12s-.11-.07,0-.08,0,0,0,0Zm0,1.75v-.06c0-.06.08,0,0,0Zm-1.72,4.86h0c.1-.06.1-.06,0,0Zm-.12,0h0v-.06s0,0,0,0Zm2.32-11.24h0s0,0,0,0Z"/><path class="cls-13" d="M240.24,117.42h.07A.08.08,0,0,0,240.24,117.42Z"/><polygon class="cls-13" points="240.16 114.11 240.16 114.11 240.13 114.11 240.16 114.11"/><path class="cls-13" d="M238.71,120.54a.11.11,0,0,1,.08,0,0,0,0,0,0-.07,0Z"/><path class="cls-13" d="M238.26,123.14v-.07h-.08S238.28,123.13,238.26,123.14Z"/><path class="cls-13" d="M237.24,122.91Z"/><path class="cls-13" d="M237.9,122.84c-.08-.08-.09,0-.11,0h0C237.9,123,237.9,122.93,237.9,122.84Z"/><path class="cls-13" d="M237.79,122.89Z"/><path class="cls-13" d="M238.48,122.71s.1.12,0,.09C238.62,122.93,238.52,122.56,238.48,122.71Z"/><polygon class="cls-13" points="237.61 122.6 237.72 122.69 237.67 122.59 237.61 122.6"/><path class="cls-13" d="M238,122.41h-.08v0C237.88,122.51,238,122.44,238,122.41Z"/><path class="cls-13" d="M237.9,122.55a.06.06,0,0,0,0-.06Z"/><polygon class="cls-13" points="237.66 122.5 237.7 122.5 237.75 122.47 237.66 122.5"/><path class="cls-13" d="M238.55,121.84v-.09h-.08S238.51,121.84,238.55,121.84Z"/><path class="cls-13" d="M238.09,121.75h.11l-.13-.12Z"/><path class="cls-13" d="M238.22,121.55s0-.19-.09-.1S238.14,121.57,238.22,121.55Z"/><polygon class="cls-13" points="239.16 120.72 239.15 120.73 239.4 120.9 239.16 120.72"/><path class="cls-13" d="M239.13,119.45c-.1,0,.15.1,0,.13.05.06.1,0,.14,0S239.31,119.52,239.13,119.45Z"/><polygon class="cls-13" points="238.43 108 238.43 107.91 238.39 108.01 238.43 108"/><path class="cls-13" d="M238.2,108.07l.11-.14-.14.09S238.22,108,238.2,108.07Z"/><path class="cls-13" d="M240,116Z"/><polygon class="cls-13" points="240.13 115.26 240.13 115.27 240.3 115.25 240.13 115.26"/><path class="cls-13" d="M239.9,114.6v.09S240.11,114.59,239.9,114.6Z"/></g></g></g></svg>