<svg xmlns="http://www.w3.org/2000/svg" viewBox="0 0 70 70"><defs><style>.cls-1{fill:none;}.cls-2{fill:#fcf5ea;stroke:#898989;stroke-miterlimit:10;stroke-width:1.17px;}</style></defs><g id="圖層_2" data-name="圖層 2"><g id="圖層_1-2" data-name="圖層 1"><path class="cls-1" d="M70,35C69.22,81.67.77,81.66,0,35,.78-11.67,69.23-11.66,70,35Z"/><path class="cls-2" d="M17.82,25a3.16,3.16,0,0,1,1.24-1.15l9.23.1c.39-1.12.77-2.23,1.15-3.35l11.83.17c.32.9.63,1.8.95,2.71l8.45-.16A2.48,2.48,0,0,1,52,24.1a2.74,2.74,0,0,1,.43,2.76l-.1,17.69a1.92,1.92,0,0,1-.73,2.3,1.48,1.48,0,0,1-1,.09L42,47a12.12,12.12,0,0,1-14.52-.15c-4.12,0-7.17-.11-8.42-.11a1.25,1.25,0,0,1-.87-.28c-.57-.54-.26-1.74-.09-2.27l-.63-15.3c0-.59,0-1.18-.05-1.77A3.17,3.17,0,0,1,17.82,25Z"/><path class="cls-2" d="M33.58,24.74c-.58,0-6.34.25-9.8,5.07a11.87,11.87,0,0,0-1.25,11.05"/><path class="cls-2" d="M42.76,32.51a8.26,8.26,0,0,1,.1,9.21,9.16,9.16,0,0,1-9.61,3.69"/><path class="cls-2" d="M31.62,43.58c-4.36-1.24-7-6.22-6-10.89.91-4.4,5.45-6.47,8.58-6.89a9.3,9.3,0,0,1,10.93,9.28,9.91,9.91,0,0,1-3.75,7.39C37,45.73,31.86,43.68,31.62,43.58Z"/><path class="cls-2" d="M42.31,46.94a11.67,11.67,0,0,0,5.09-7.09,11.15,11.15,0,0,0-1.15-7.74"/><path class="cls-2" d="M34.54,27.6a9.06,9.06,0,0,0,.1,18,9.36,9.36,0,0,0,9.51-10.13A9.22,9.22,0,0,0,34.54,27.6Z"/><path class="cls-2" d="M34,24.1a12.55,12.55,0,0,0,.13,25c7.55.43,14.13-6.77,13.25-14.05A12.83,12.83,0,0,0,34,24.1Z"/><path class="cls-2" d="M38.78,39.28v.64"/><path class="cls-2" d="M38.33,40.84v.36"/><path class="cls-2" d="M39.6,40.47V41"/><path class="cls-2" d="M32.11,29.72a1.7,1.7,0,0,1,1.28.16,11,11,0,0,0,1.19.59"/><path class="cls-2" d="M33.74,28.85a17.49,17.49,0,0,1-2.52,2.78"/></g></g></svg>