<svg xmlns="http://www.w3.org/2000/svg" viewBox="0 0 86.2 84.87"><defs><style>.cls-1{font-size:9.83px;font-family:jf-openhuninn-1.1;}.cls-1,.cls-4{fill:#040000;}.cls-2,.cls-6{fill:#eaa092;}.cls-2{stroke:#fef5e9;stroke-miterlimit:10;stroke-width:6.2px;}.cls-3{fill:#fff;}.cls-5{fill:#fef5e9;}</style></defs><g id="圖層_2" data-name="圖層 2"><g id="圖層_1-2" data-name="圖層 1"><text class="cls-1" transform="translate(22.7 65.17) scale(1.02 1)">拍立得</text><ellipse class="cls-2" cx="43.1" cy="42.44" rx="40" ry="39.34"/><text class="cls-1" transform="translate(33.08 66.81) scale(1.02 1)">個人</text><path class="cls-3" d="M28.22,20.33,23,24.89V43.13l5.73,7H57.13l5.46-4.29.54-20.66-5.45-4.82Z"/><path class="cls-4" d="M31.71,49.35Z"/><path class="cls-4" d="M61.92,36.52v0l-.05-.09Z"/><path class="cls-4" d="M62.23,29.83v0S62.21,29.78,62.23,29.83Z"/><path class="cls-4" d="M57.3,49.06l-.08.07Z"/><path class="cls-4" d="M23.68,42.79h0l0,0Z"/><path class="cls-4" d="M23.72,42.83c0,.05,0,0,0,0a.44.44,0,0,0,0,.1l.06.07s0,0,0-.08A.11.11,0,0,1,23.72,42.83Z"/><path class="cls-4" d="M26.64,22.46l0,.05Z"/><path class="cls-4" d="M58.79,49.88l-.08.07A.19.19,0,0,0,58.79,49.88Z"/><path class="cls-4" d="M24,24.75v.07S24,24.76,24,24.75Z"/><path class="cls-4" d="M61.87,36.39l0,0Z"/><path class="cls-4" d="M61.52,24.73a.06.06,0,0,0,0-.06h0Z"/><path class="cls-4" d="M32.28,20.27s0,0,0,0l.13,0Z"/><path class="cls-4" d="M55,20.85l0,0c.15,0,.53,0,1,0l0-.06Z"/><path class="cls-4" d="M45.7,19.41l.91.12c-2.91.06-4.26-.07-6.75,0l.14,0a18.59,18.59,0,0,1-4.56-.1h0a1.84,1.84,0,0,1-.42,0l.69.07c-.41,0-.77.09-1.32.1-.12,0-.16,0-.17-.06l-1.36,0-.41-.08a2.46,2.46,0,0,1-1.33.12c.42.12-.55.07-.41.13l-.29-.05c-.66,0-1.9,0-2.2.1,0,0,2.57.25,3.26.38-.92,0-.24,0-.06.05l.06,0a6.88,6.88,0,0,1,.84.13l0,0h0s0,0,0,0,0,0,.17,0h0c.23,0,.63,0,.8,0v.06a30.08,30.08,0,0,1,3.31.19c.56.07,1.25,0,1.94,0,1.1,0,.55.09,1.11.14s-.14-.07.13-.08l.83.09c-.48,0-.22,0-.13.07a10.65,10.65,0,0,0,2.07,0c1,.06,1,.11,1.38.12-.13,0-.41-.05-.41-.07.39.05.18,0,0,0,.6-.05,3.07.23,3.2.09v0c.13-.11-.09-.2.33-.26l.27,0,.42,0c.27,0,.14.06.14.07.67,0,1.62,0,2.43,0l-.86-.28a11.17,11.17,0,0,0,2.07.1l.42.1c1.38.18,1-.08,1.52,0l.69.1h-.69c.69.05,1,.09,1.52.15h0a3.21,3.21,0,0,1,.94-.08c.28,0,.53,0,.81,0h.78l.27.31.28.1.58.6-.06.06-1.11-1-1.5,0,0,0,1.51,0h0a.54.54,0,0,1,.09.17c.07.09.05.13-.08.05l.32.18c1.56,1.36,1.57,1.37,3.13,2.87L60.8,24a3.26,3.26,0,0,1,.72.66l.57.53.14.13.07.06,0,0,.06.07v.07a.41.41,0,0,0,0,.14l0,.52c0,.33-.07.62-.11.88l.09.18c0,.28-.17.68,0,.82l0,.59a5.94,5.94,0,0,1,0,1h0l0,.08h0c-.06.85.09,0,0,1-.08.31.11.35.08.82l-.15.47a20.77,20.77,0,0,0,0,2.25c-.07.59-.19.88-.29.48a3.44,3.44,0,0,1,.12,1c-.06.11-.06,0-.11-.13-.08.64,0,.4,0,.88.1.14.25.31.25.46l0-.18a8.44,8.44,0,0,1,0,1.66l0,0V39l-.06,0V40l0-.12c0,.21,0,.91,0,1.3h0a30.75,30.75,0,0,0,0,3.36l-.07-.18c-.08.45.11.13.06.66l-.09,0c.09.47,0,.38,0,.43h-.05l.12,0h0l-.09.05-.15.1c-.55.39-.41.14-.37,0L61,46l-.14,0c-.19.3-.27.19-.69.6-.06,0,0-.11-.13,0l-.67.71.42-.41,0,.16a7.72,7.72,0,0,1-1,.8l.21-.22a4.72,4.72,0,0,1-.94.66c.12-.06.29-.14.08.05s-.12,0-.29.14c0,.11-.34.46-.73.71,0,0,0,0,0-.06a.84.84,0,0,1-.26.23.17.17,0,0,1,0-.14c-.08.11,0,.11-.07.19h0c-.06,0,0,0-.17,0s-.2,0-.18,0l.15,0-2,0,0-.09c-.2.12-1.08,0-1,.1-.37-.08-1.47.06-1.25-.11-1.3,0-2,.15-3.59.07a21.93,21.93,0,0,0-3.13-.12l-5.3.17c-1.22-.21-3,.07-4.36,0l-.36.08c-.87-.13-2.2,0-3.43-.09l-.53.05c.06,0,.14,0,.17.07-.35,0-1.06,0-1-.1H31c.05-.1-1.06,0-1.45,0l.21.11h-.53l0,0-.13,0L29,49.3,28.72,49l-.53-.62-.92-1.17a27.39,27.39,0,0,0-2.08-2.44c.32.2-.38-.37-.31-.48a2.66,2.66,0,0,0-.57-.76L23.72,43h0l-.05-.06,0-.57c.16.58-.14-.7,0-.17.13-2.55,0-5.87.06-8.82l0,.13c0-.75,0-1.68,0-2.25a6.42,6.42,0,0,0-.12-1.46c-.07-.62.08-1.19.07-.92a17.64,17.64,0,0,1-.11-2.22,2.34,2.34,0,0,0,0-.69c0-.16,0-.34,0-.52l0-.31c.09-.11.41-.4.45-.36h0c1-.7,1.67-1.58,2.7-2.34l0,.06,1.63-2.08-.91.09-2,1.16-3.18,2.88,0,2.54-.16,4.86.05,11.54.59.72.63.58c.64.93,1.45,1.92,2.29,2.92.42.5.85,1,1.26,1.5l.61.75L28.34,51h.44l.12-.1h.55l.21,0a2.07,2.07,0,0,0,.22,0c6.56,0,13.32-.16,19.23,0,.57.07,2.3,0,2.75.1.86,0,1.74-.08,2.63-.1h2.93l.69-.54,0,0,.7-.57s.05,0,0,0a37.55,37.55,0,0,1,3.07-2.37l0,.05,1.66-1.3c.07-3.47.14-6.85.2-10.22s.15-6.46.3-9.79l0-.53c0-.33,0-.65,0-1L62.44,23.3l-1.35-1.19L58,19.43H56.29l-1.39,0C54.2,19.28,46.39,19.36,45.7,19.41Z"/><path class="cls-4" d="M34.22,19.54h0S34.2,19.52,34.22,19.54Z"/><polygon class="cls-4" points="50.34 20.73 50.28 20.73 50.48 20.79 50.34 20.73"/><path class="cls-4" d="M40,20.76c.47,0,.49,0,.42,0Z"/><path class="cls-4" d="M30.43,19.63c-.25,0-.15,0,0,.05h.42Z"/><path class="cls-4" d="M31.42,20.21l-.07,0C31.49,20.24,31.48,20.23,31.42,20.21Z"/><path class="cls-5" d="M30.75,23.81l-4.31,3.52V41.38l4.76,5.37H54.75l4.53-3.31.45-15.91L55.2,23.81Z"/><path class="cls-4" d="M34.31,46.29Z"/><path class="cls-4" d="M58.94,36v0l0-.06Z"/><path class="cls-4" d="M59.18,30.57v0S59.16,30.53,59.18,30.57Z"/><path class="cls-4" d="M55,46l-.07.06Z"/><path class="cls-4" d="M27,41.42l0,0,0,0Z"/><path class="cls-4" d="M27.09,41.49c.07.09,0,0-.07-.05a1.81,1.81,0,0,0,.25.3S27.12,41.54,27.09,41.49Z"/><path class="cls-4" d="M29.34,25.39l0,0Z"/><path class="cls-4" d="M56,46.46l-.07,0Z"/><path class="cls-4" d="M27.14,27.17v0S27.15,27.17,27.14,27.17Z"/><path class="cls-4" d="M58.92,35.86v0Z"/><path class="cls-4" d="M58,26.65s0,0,0,0h0Z"/><path class="cls-4" d="M34,23.78h0l.1,0Z"/><path class="cls-4" d="M52.3,24.13h.79l0,0Z"/><path class="cls-4" d="M44.83,23.26l.72.08c-2.33,0-3.43,0-5.43,0l.11,0a20.31,20.31,0,0,1-3.67-.06h0a2,2,0,0,1-.33,0l.55.05c-.33,0-.62.05-1.07.06-.09,0-.12,0-.13,0l-1.09,0-.34-.05a2.83,2.83,0,0,1-1.07.07c.34.07-.44,0-.33.08l-.23,0c-.53,0-1.53,0-1.77.07,0,0,2.07.15,2.63.22-.75,0-.2,0-.05,0l.05,0c.44,0,.44.06.67.07h0s0,0,0,0,0,0,.14,0h.62v0c.33-.07,2.22.11,2.67.11s1,0,1.56,0a3.62,3.62,0,0,1,.89.09c.56,0-.11,0,.11-.05l.67.06c-.39,0-.18,0-.11,0a12.87,12.87,0,0,0,1.67,0c.78,0,.78.06,1.11.07l-.33,0c.31,0,.14,0,0,0,.47,0,2.47.14,2.57.05v0c.11-.06-.07-.12.26-.15l.22,0,.34,0c.22,0,.11,0,.11,0,.55,0,1.31,0,2,0l-.69-.16a12.07,12.07,0,0,0,1.67.06l.33.06A5.11,5.11,0,0,0,51,24l.56.06h-.55c.55,0,.78.05,1.22.09h0a3.32,3.32,0,0,1,.75-.05c.56,0,1,0,1.88,0a.91.91,0,0,0,.16-.06h0l.39.37,0,0-.39-.32-2,0v0h1.4c.16,0,.57.06.27.09A1,1,0,0,0,55,24.2h.05l1.11.92c.3.25.63.54,1.28,1.11l-.1-.12a3.4,3.4,0,0,1,.6.51l.77.66a6.79,6.79,0,0,1,.53.47s0,.42-.07.61l0,.15c0,.22-.1.55,0,.66l0,.47c0,.3,0,.49,0,.83h0v.07h0c0,.68.06,0,0,.78,0,.25.07.28,0,.66l-.09.38c-.07.68,0,.8,0,1.8,0,.48-.12.71-.17.39a4,4,0,0,1,.06.78c0,.09,0,0-.06-.1a3.84,3.84,0,0,0,0,.7,1.09,1.09,0,0,1,.14.38l0-.15a8.6,8.6,0,0,1,0,1.33h0V38l0,0v.62c0,.17,0,.73,0,1h0c-.09.9,0,1.65,0,2.7l0-.14c0,.36.06.1,0,.53l-.05,0a1.6,1.6,0,0,1,0,.37s0,0-.05.06h0l.07,0h0l-.23.15c-.45.3-.32.13-.27,0l-.27.26H58c-.18.22-.23.15-.58.46,0,0,0-.07-.1,0l-.57.53.35-.31v.11c-.35.34-.54.38-.8.61l.17-.17a5.18,5.18,0,0,1-.76.52c.09,0,.23-.12,0,0s-.09,0-.23.11-.31.34-.62.53c0,0,0,0,0,0a.94.94,0,0,1-.25.19l0-.11-.11.12,0,.06h0s-.37,0-.31,0h.12l-1.6,0,0,0c-.16.07-.87,0-.82.06-.3,0-1.18,0-1-.07-1,0-1.61.09-2.89,0a23.1,23.1,0,0,0-2.51-.07l-4.27.1c-1-.12-2.45,0-3.51,0l-.29,0c-.71-.07-1.78,0-2.77,0l-.42,0s.11,0,.13.05c-.28,0-.85,0-.81-.06h.07c0-.06-.85,0-1.17,0l.18.07h-.54l.15,0-.59,0h-.35l-.07-.08-.19-.21-.36-.41-.66-.78c-.44-.52-.91-1-1.55-1.68.25.17-.31-.3-.27-.37a5.49,5.49,0,0,0-1-1.07h0l-.42-.49c.09,0,.06,0,0,0s-.06-.14,0,0c.07-1.93,0-4.7,0-7l0,.11c0-.6,0-1.35,0-1.81a6.8,6.8,0,0,0-.07-1.18c0-.5.05-1,0-.74,0-.54-.1-1-.06-1.78a2.72,2.72,0,0,0,0-.56c0-.26,0-.64,0-.71a1.73,1.73,0,0,1,.23-.21c.09-.07.15-.1.17-.09h0c.78-.55,1.4-1.21,2.24-1.81l0,0,1.44-1.54-.67.13-1.56.94L26,27.09l0,2L25.87,33l0,8.59.89,1,.5.46c.49.64,1.08,1.31,1.69,2l2,2.23h.7l.45,0,0-.06a2.55,2.55,0,0,1,.67,0c5.29,0,10.73-.09,15.48,0,.46,0,1.86,0,2.22.06q1,0,2.1-.06h2.28l.54-.4,0,0,.58-.44s0,0,0,0c.63-.53,1.71-1.25,2.53-1.82l0,0,1.31-1c.06-2.76.13-5.46.19-8.15,0-1.3.07-2.6.1-3.91s.1-2.71.15-4.12v-.25L59,26.22l-1.12-.92-2.5-2H53.72l-1.49,0C51.66,23.19,45.38,23.23,44.83,23.26Z"/><path class="cls-4" d="M35.58,23.34h0S35.57,23.33,35.58,23.34Z"/><polygon class="cls-4" points="48.55 24.05 48.51 24.05 48.67 24.09 48.55 24.05"/><path class="cls-4" d="M40.24,24.08c.38,0,.39,0,.34,0Z"/><path class="cls-4" d="M32.53,23.39c-.2,0-.12,0,0,0h.34Z"/><path class="cls-4" d="M33.33,23.75l-.06,0C33.38,23.76,33.38,23.75,33.33,23.75Z"/><path class="cls-4" d="M33.36,36.94l.07-.12S33.38,36.85,33.36,36.94Z"/><path class="cls-4" d="M51.75,33.7v0Z"/><polygon class="cls-4" points="35.06 32.02 35.06 32.03 35.07 32.06 35.06 32.02"/><path class="cls-4" d="M34.63,38.69a33.89,33.89,0,0,0,.72-3.89l0-.31a1.18,1.18,0,0,0,0-.62l-.14-.67c-.09-.4-.15-.8-.2-1.17-.21-.36-.05-1-.16-1.4L35,30.5c0-.14,0-.33,0-.3h0c-.06-.07,0-.1,0-.15l0,0a.08.08,0,0,1,0-.05l0,0c0-.15.15-.13.19,0l0-.13a.42.42,0,0,0,.11.14l.27.23a1.76,1.76,0,0,1,.5.63h0a1.66,1.66,0,0,1,.67.89c.09.18.27.56.44.84,0,.08.09.16.14.23l.29,0,.6-.09c-.21,0,.08.06.06.09l.42,0,.29-.05c.18,0,.29-.11.29-.23.32,0,.27.07.31.16,0-.1.27-.15.52-.17l-.11,0,.71-.06-.14-.19c.38,0,.1.23.46.18v-.16a7.05,7.05,0,0,1,1.35.35c1.06,0,2.15-.11,3.23-.2l.8-.06.4,0,.6,0a1.61,1.61,0,0,0,.31,0l.17-.23.36-.45a4.69,4.69,0,0,1,.53-.55H49c.15.08.13-.57.3-.52l.08-.21c.07,0,.18-.1.14,0a.69.69,0,0,0,.17-.31l.23-.07.2-.16.12-.13c.08-.12.29-.14.3.05s0,.22,0,.3c0,.33,0,.68.07,1.05a12.8,12.8,0,0,1,0,2,2.8,2.8,0,0,1-.08.57,3.41,3.41,0,0,0-.1.46l.08.44c.07.42.11.86.15,1.3a8.67,8.67,0,0,0,.49,2.53c0,.06.07.18.09.17l.29,1.48s1.47,7.16,1.74,1.42l0,0a4.07,4.07,0,0,0-.48-1.85c.22-.14-.12-.67-.08-.87h0c-.28-.45-.07-1-.33-1.48a.15.15,0,0,1,.12.12c-.11-.34-.26-.8-.13-.86-.1-.42-.21-.9-.32-1.35-.06-.23-.12-.45-.18-.64s-.15-.39-.21-.4h0c-.19-.14,0-.09,0-.49l0,0c-.06-.37.17-1,.14-1.31H52c0-.24,0-.47,0-.71l0,.26c-.24-.1.2-.53,0-1,0-.46-.56-.9-.53-1.46-.16-.19.23.12.06-.22.11-.1.12.15.18,0-.17-.35-.11-.81-.64-1l0-.11a2.49,2.49,0,0,0-1,.09,1.32,1.32,0,0,0-.74.49c-.3.31-.4.32-.51.34s-.23.07-.36.36l-.26.08c-.19.18,0,.25-.23.42-.06-.07-.28.23-.24,0a3.17,3.17,0,0,0-.6.78c0,.14-.15.32-.27.16,0,.09-.14.11-.28.12s-.27,0-.33.1-.82,0-.37-.17c0,0,.11,0,.11,0l0-.1c-.46-.18-.83.12-1.29.11.14,0,.32,0,.2.09h-.42l.08-.08-.63,0,.09.11c-.31,0-.42-.22-.76-.07-.16.09.29.14,0,.18a15.52,15.52,0,0,0-1.56-.17c.05.12-.09.12-.23.15l0-.1c-.56.15-.21-.23-.76-.1l0-.07-.14.22c-.49.22-.27-.21-.82.09.22,0,.11.22-.16.18l.06-.1c-.14,0-.19.07-.29.05.08-.05,0-.14-.18-.12L39.4,31l-.41.2a.75.75,0,0,0-.26,0h-.22s-.1,0-.08-.07,0-.1-.21-.12c.16.07,0-.29.13-.25a1.71,1.71,0,0,1-.63-.77l0,0A3.34,3.34,0,0,0,37,29.1l-.44-.37c-.22-.18-.44-.36-.71-.55,0,.13-.54-.17-.42.05-1.07-.29-2,.51-1.74,1.14a4.81,4.81,0,0,1-.32.74V30c-.07.71,0,.89-.06,1.39.05.25.27.28.24.7-.09-.13-.07,0,0,.21,0-.1-.06-.13-.1.08a.26.26,0,0,1,.07.11s0,0,0,0c.06.27.08.22.08.09s0,0,0-.05c-.08.29.11.76,0,.82a6.48,6.48,0,0,0,.26.86c0,.27,0,.61,0,.92-.08.06-.13-.1-.13-.29l0,.46c-.11,0,0-.27,0-.41-.25.51,0,1.13-.22,1.73l.07.15,0,0s.09.16.09.25-.22,0-.26.28a2.71,2.71,0,0,0,0,1c0-.18.08-.11.11,0s-.13.23-.1.36h-.14c.13,0,.08.43.12.49s0-.25-.11-.3c-.07.63,0,.31-.11.94,0,.35.13,0,.22.13a3,3,0,0,1-.09.93l.13-.09A2.68,2.68,0,0,1,33,42.06c.36,4.25,1.15,1,1.15,1C34.67,41.51,34.45,40.63,34.63,38.69Z"/><path class="cls-4" d="M43.27,37.17Z"/><path class="cls-4" d="M45.63,43h0v0Z"/><path class="cls-4" d="M44.34,43.43h0S44.34,43.45,44.34,43.43Z"/><path class="cls-4" d="M47.33,40.16s0,0,0,0Z"/><polygon class="cls-4" points="41.08 37.21 41.09 37.21 41.07 37.2 41.08 37.21"/><path class="cls-4" d="M41.11,37.18s0,0,0,0a.06.06,0,0,0,.09,0S41.12,37.2,41.11,37.18Z"/><path class="cls-4" d="M37.67,39.74v0Z"/><path class="cls-4" d="M45.78,40.42h0Z"/><path class="cls-4" d="M38,39.05l0,0A.05.05,0,0,0,38,39.05Z"/><path class="cls-4" d="M45.64,43.08v0Z"/><path class="cls-4" d="M43.15,43.6s0,0,0,0h0Z"/><path class="cls-4" d="M38.43,40.93l0,0h.05Z"/><path class="cls-4" d="M41.57,43.29v0a.8.8,0,0,0,.19,0V43.3Z"/><path class="cls-4" d="M40.53,41.46l.08.17c-.44-.12-.55-.32-.9-.42h0c0-.05-.27.16-.41-.44h0s0,0,0,0v.11c-.06,0-.13,0-.18,0a.05.05,0,0,1,0-.05l-.1-.1a.35.35,0,0,1,0-.08c-.06,0-.2.09-.17,0-.09.09-.08,0-.13,0l0,0s-.07-.16-.15-.19a2,2,0,0,0-.24.49c0-.14,0,0-.06,0h0c0,.09,0,.13,0,.18h0s0,0,0,0,0,0,0,0h0a.39.39,0,0,1,.06.11l-.05,0c.12,0,.16.49.26.56s.18.13.25.23,0,.13.08.23,0-.07.07,0l.08.15c-.08,0-.06,0-.06,0s.24.28.33.19c.13.13.11.18.17.22s0-.08,0-.1,0,0,0,0,.42.44.49.32v0c.06-.08.06-.19.15-.22l0,.06h.09c0,.05,0,.07,0,.08s.27.1.41.16l-.06-.31c.09.1.26.28.31.2l0,.11c.19.24.18,0,.26,0l.1.12-.12,0a1.64,1.64,0,0,1,.24.21h0v0h0a.17.17,0,0,1,.19,0c.12,0,.22,0,.42.1l0-.1.15.07v.08c-.15,0-.44,0-.63,0v0c.11,0,.25,0,.32,0s.13.11,0,.16l.08-.08a3.81,3.81,0,0,1,.8.1l0,0c.09,0,.16-.06.19,0a1.92,1.92,0,0,1,.7.09v-.1c.06,0,.17.12.16,0l.11-.07c.07,0,.1-.07.19,0h0c.17,0,0-.08.17-.08s0-.14.12-.15l.14.1c.18,0,.16-.12.38-.23s.24.08.21.21c0-.16,0-.1.11-.22,0,0,0,.05,0,.11s0-.08.14-.13-.08-.25-.06-.27h0a.34.34,0,0,1,.24-.18l0,0,.08-.08,0,0,.13-.11h0a.47.47,0,0,1,.2-.15l0,0c.25-.06.31-.29.48-.52l0,.08c.12,0-.06-.09,0-.16l.07,0c0-.16.11-.09.19-.14l-.12,0,.1-.11c.11-.12.18,0,.22,0l0-.15.1,0c-.06-.13.06-.08.06-.25,0,0,0,0,.08,0a2.21,2.21,0,0,0-.07-.3l0,.17L47.28,41c-.07-.17,0-.2,0-.32l0,.08c0-.18,0-.19.08-.29s-.07.08-.09,0,0,0,.07-.08a.19.19,0,0,1-.13-.25h0s0,0,0-.09h.12L47.27,40c0-.07-.08-.14,0-.15l0,0a1.77,1.77,0,0,0-.15-.46l.08,0c-.13,0-.08-.25-.21-.15,0-.12-.23-.24-.06-.3-.17-.24-.39-.24-.56-.52,0-.2-.24-.35-.42-.49a4.58,4.58,0,0,0-1.07-.39c-.17-.28-.61-.11-.83-.26l-.08.07c-.15-.16-.41,0-.62-.18l-.1,0s0,0,0,.08-.19,0-.17-.11h0c0-.1-.19,0-.24-.06l0,.11-.11,0h0c-.5.21-.72-.16-1.22.06.07-.12-.09.06-.1-.07s-.24,0-.34.09v0H41c.1-.18-.12.15,0,0a3.23,3.23,0,0,0-1.69.42l0,0c-.14.06-.28.21-.41.22s-.14.25-.17.28-.22.1-.18.07,0,.29-.22.38-.2.48-.32.4h0c-.23.16-.16.46-.33.7l0,0a1.83,1.83,0,0,0,.43.58,2.44,2.44,0,0,1,.52-.12,1.29,1.29,0,0,1,.46-.14,1.29,1.29,0,0,1,.26-.59,1.83,1.83,0,0,1,.57-.27,2.78,2.78,0,0,1,1.42-.45l.12-.12c.35.19.82,0,1.23.16l0-.1c.12,0,.11.06.13.08,1.12,0,2,.12,2.47.84,0,.1.19.23.16.31a.53.53,0,0,1,.34.44h0l0,.06h0c.1.07,0,.17-.07.23h0a2.61,2.61,0,0,1-.91.86A2.53,2.53,0,0,1,43.4,42c-.47-.1-1,.13-1.57-.11A8.9,8.9,0,0,0,40.53,41.46Z"/><path class="cls-4" d="M39.17,40.73Z"/><polygon class="cls-4" points="40.78 42.96 40.78 42.96 40.79 43.03 40.78 42.96"/><path class="cls-4" d="M39.08,42.23c.06.06.07.05.07,0A.11.11,0,0,0,39.08,42.23Z"/><path class="cls-4" d="M38.91,40.45s0,0,0,0l0,0Z"/><path class="cls-4" d="M38.41,40.79h0S38.4,40.8,38.41,40.79Z"/><path class="cls-4" d="M42.52,35Z"/><path class="cls-4" d="M42.59,35.53h0Z"/><path class="cls-4" d="M42.45,35.61Z"/><path class="cls-4" d="M42.43,35.31h0Z"/><path class="cls-4" d="M42.43,34.79Z"/><path class="cls-4" d="M42.46,34.79h0Z"/><path class="cls-4" d="M42.38,34.48h0Z"/><path class="cls-4" d="M40.88,35.11h0Z"/><path class="cls-4" d="M42.34,34.52h0Z"/><path class="cls-4" d="M42.65,35.54h0Z"/><path class="cls-4" d="M42.41,35.68h0Z"/><path class="cls-4" d="M41.56,36h0Z"/><path class="cls-4" d="M42.18,35.77h0s0,0,0,0h-.06Z"/><path class="cls-4" d="M40.73,35.7h.12s-.07,0,0,.09h0s.25,0-.1.05h0s0,0,0,0h.08s.09,0,.09,0h-.06l0,0h-.08s.21,0,.12,0c.12,0,.07,0,.13,0H41l.1.05s.25,0,.38,0c0,0,0,0,0,0h0s0,0,0,0h.06c-.11,0,.19,0,.19,0s0,0,0,0,.09,0,.14,0h.08s.13,0,0,0h.05c.06,0,0,0,0,0s.23,0,.09,0h0l-.26,0H42c-.05,0,0,0,0,0l-.28,0c.06,0,.19,0,.11,0H42c.18,0-.08,0,0,0h.23l-.08,0s-.06,0,0,0l-.1,0h.14l0,0h0s0,0,0,0h.08s0,0,.08-.05h0s0,0,0,0,.07,0,.18,0l-.1,0s.15,0,0,0h0s0,0,0,0h0c.05,0-.09,0,0,0s-.12,0-.1,0h.14c.08,0-.06,0-.05,0l.27,0-.14,0h.11c.06,0,0,0,0,0l-.26,0h0s-.07,0,0,0h0s0,0,0,0h0c.11,0,0,0,0,0h.09c-.12,0,0,0,.07,0H42.4a.75.75,0,0,1,.2,0l-.09,0h.14l-.14,0,.06,0-.15,0c-.11,0,0,0,0,0h0s0,0,.07,0h0l-.11,0h.13l-.1,0h.05l0,0h.08c-.12,0,0,0-.1,0,.08,0,0,0,.12,0,0,0-.15,0-.07-.06s.11,0,.12,0l-.15-.09c.2,0-.06,0,0-.06h-.08c.13,0,0,0,.1,0l0,0h-.07s0,0,.09,0h0c.1,0,0,0,0,0h-.07c-.23-.07.12,0-.1-.11h.07c.16,0,0,0-.08,0h0c.16,0-.14,0,0,0s0-.07.07-.11h0s0,0,0,0l-.11,0c-.07,0,.08,0,.07,0s-.17,0-.1-.05-.14,0,0,0h0c.11,0-.08,0,0,0h0l-.47-.1-.53-.06-.43,0,.08.09-.17,0,0,.17.12,0c-.21,0,0,.08-.13.09l.1,0s-.06,0-.08,0,.14.2,0,.26,0,0-.1,0c.12,0,.11.07.1.09h0v0h0c.08,0,0,0-.05,0h0c0,.09.15.2,0,.28s0,.11-.1.14S40.68,35.69,40.73,35.7Z"/><path class="cls-4" d="M40.84,35.87Z"/><polygon class="cls-4" points="42.05 35.81 42.05 35.81 42.11 35.82 42.05 35.81"/><path class="cls-4" d="M42.06,36s0,0,0,0Z"/><path class="cls-4" d="M40.92,35.94h0Z"/><path class="cls-4" d="M41.5,36h0Z"/><path class="cls-4" d="M44.46,40.49Z"/><path class="cls-4" d="M44.42,41.07Z"/><path class="cls-4" d="M44.27,41.11Z"/><path class="cls-4" d="M44.31,40.81h0Z"/><path class="cls-4" d="M44.41,40.3Z"/><path class="cls-4" d="M44.44,40.31h0Z"/><path class="cls-4" d="M44.42,40h0Z"/><path class="cls-4" d="M42.82,40.31Z"/><path class="cls-4" d="M44.37,40l.05,0Z"/><path class="cls-4" d="M44.47,41.08h0Z"/><path class="cls-4" d="M44.22,41.18h0Z"/><path class="cls-4" d="M43.32,41.31h0Z"/><path class="cls-4" d="M44,41.21h0l-.06,0Z"/><path class="cls-4" d="M42.56,40.87l.12,0c0,.05-.08,0,0,.09h0s.24.09-.11,0h0s0,0,0,0l.08,0,.09,0h-.06v0l-.07,0s.2.07.1.06l.13,0h-.06a.26.26,0,0,0,.09.06l.37.08s0,0,0,0h0l.12,0h0s0,0,0,0h0a0,0,0,0,1,0,0l.06,0c-.11,0,.19,0,.19,0s0,0,0,0,.09,0,.14,0-.07,0-.07,0l.08,0,.07,0s.13,0,0,0l.11,0-.06,0h0s.23,0,.1,0h0l-.25-.09h0l.07,0s0,0,0,0l-.27-.07c.07,0,.2,0,.11,0l.09,0c.18,0-.07,0,0,0l.1,0h0l.15,0h0s-.08,0-.07,0,0,0,.05,0l-.09,0h.06l.08,0s0,0,0,.05l0,0s0,0,0,0l.15.05-.08,0s0,0,.1,0h0s0,0,0,0,.07,0,.18,0l-.1,0s.15,0,0,0l0,0s0,0,0,0h0s-.08,0,0,0-.11,0-.09,0l.14,0c.08,0-.06,0-.05,0l.26.08a.3.3,0,0,1-.13-.06l.1,0c.06,0,0,0,0,0L44.18,41h0s-.07,0,0,0h0l.06,0v0h0s0,0,0,0h0c.11,0,0,0,0,0l.07,0-.07,0,.09,0c-.11,0,0,0,.07,0l-.11,0h0l.2.06-.08,0,.09,0c-.11,0,0,0,0,0l.07,0-.13-.06,0,0-.14,0c-.1-.05,0,0,0,0l0,0s0,0,.07,0l-.09,0,.07,0c-.09,0-.14-.06-.1-.05h0l.11,0-.1,0s0,0,0,0h0l0,0,.08,0c-.11,0,0,0-.09,0,.08,0,0,0,.11,0s-.13-.08,0-.07.1,0,.12,0l-.13-.11c.2,0,0-.07.06-.05l-.07,0c.12,0,0,0,.1,0l0,0-.07,0s0,0,.1,0h0c.1,0,0,0,0,0l-.11,0h0c-.21-.12.12,0-.08-.13.11.05-.06,0,.07,0s0,0-.07-.05h0c.13,0,0-.07.09-.09h0s0,0,0,0-.09,0-.1-.06.07,0,.07,0-.16-.07-.1-.06-.12-.08,0,0h0c.11,0-.06-.06,0,0h0L44,39.8l-.51-.16-.42-.11.07.11h-.18v.17l.11,0c-.21,0,0,.08-.15.06l.1,0-.08,0c0,.09.1.22-.05.26s0,0-.11,0c.12.06.11.09.08.11h0l0,0h0c.08,0,0,0,0,0h0c0,.08.1.23-.06.28s0,.11-.12.11S42.52,40.84,42.56,40.87Z"/><path class="cls-4" d="M42.64,41.06Z"/><polygon class="cls-4" points="43.83 41.23 43.83 41.23 43.89 41.25 43.83 41.23"/><path class="cls-4" d="M43.82,41.38s0,0,0,0Z"/><path class="cls-4" d="M42.7,41.13l0,0h0Z"/><path class="cls-4" d="M43.26,41.31h0Z"/><path class="cls-4" d="M42,40.49Z"/><path class="cls-4" d="M42,41.07Z"/><path class="cls-4" d="M41.82,41.11h0Z"/><path class="cls-4" d="M41.85,40.81h0Z"/><path class="cls-4" d="M42,40.3Z"/><path class="cls-4" d="M42,40.31h0Z"/><path class="cls-4" d="M42,40h0Z"/><path class="cls-4" d="M40.37,40.31h0Z"/><path class="cls-4" d="M41.92,40l0,0Z"/><path class="cls-4" d="M42,41.08h0Z"/><path class="cls-4" d="M41.76,41.18h0Z"/><path class="cls-4" d="M40.86,41.31h0Z"/><path class="cls-4" d="M41.52,41.21h0l0,0Z"/><path class="cls-4" d="M40.1,40.87l.13,0c0,.05-.09,0,0,.09h0s.24.09-.1,0h0s0,0,0,0l.07,0,.09,0h-.05v0l-.08,0s.2.07.11.06l.12,0H40.3a.18.18,0,0,0,.09.06l.37.08s0,0,.05,0h0l.12,0h0s0,0,0,0h0s0,0,0,0l.06,0c-.11,0,.18,0,.19,0s0,0,0,0,.09,0,.15,0-.07,0-.08,0l.09,0,.06,0s.13,0,0,0l.12,0-.07,0c.06,0,0,0,0,0s.23,0,.1,0h0a1.54,1.54,0,0,1-.24-.09h0a.1.1,0,0,1,.07,0s0,0,0,0l-.27-.07c.06,0,.19,0,.11,0l.09,0c.17,0-.07,0,0,0l.1,0h0l.15,0h0l-.08,0s0,0,.06,0l-.1,0h.06l.08,0s0,0,0,.05l0,0s0,0,0,0l.15.05-.07,0s0,0,.09,0h0s0,0,0,0,.08,0,.18,0l-.09,0s.15,0,0,0l0,0s0,0,0,0h0c.05,0-.08,0,0,0s-.12,0-.09,0l.13,0c.08,0,0,0,0,0a1.78,1.78,0,0,1,.27.08.49.49,0,0,1-.14-.06l.11,0c.06,0,0,0,0,0L41.72,41h0s-.07,0,0,0h0l.06,0,0,0h0s0,0,0,0h0c.11,0,0,0,0,0l.07,0-.07,0,.08,0c-.11,0,0,0,.07,0l-.11,0h0l.2.06-.09,0,.1,0c-.11,0,0,0,0,0l.07,0-.13-.06.06,0-.14,0c-.11-.05,0,0,0,0l0,0s0,0,.06,0l-.08,0,.06,0c-.09,0-.14-.06-.09-.05h0s0,0,0,0l.1,0-.1,0s0,0,0,0h0l0,0,.08,0c-.12,0,0,0-.1,0,.08,0,0,0,.12,0,0,0-.14-.08-.05-.07s.1,0,.12,0A.75.75,0,0,1,42,40.6c.2,0-.06-.07.06-.05l-.08,0c.13,0,0,0,.11,0l0,0-.06,0s0,0,.09,0h0c.1,0,0,0,0,0l-.1,0h0c-.22-.12.12,0-.08-.13.11.05-.06,0,.06,0s0,0-.06-.05h0c.16.06-.12-.05,0,0s0-.07.09-.09h0s0,0,0,0-.1,0-.1-.06.07,0,.06,0-.16-.07-.09-.06-.12-.08,0,0h0c.11,0-.07-.06,0,0h0l-.45-.19-.5-.16-.42-.11.06.11h-.18v.17l.11,0c-.21,0,0,.08-.14.06l.09,0-.07,0c0,.09.09.22,0,.26s0,0-.11,0c.11.06.1.09.08.11h0v0h0c.08,0,0,0,0,0h0c-.05.08.1.23-.07.28s0,.11-.12.11S40.06,40.84,40.1,40.87Z"/><path class="cls-4" d="M40.19,41.06Z"/><polygon class="cls-4" points="41.38 41.23 41.38 41.23 41.43 41.25 41.38 41.23"/><path class="cls-4" d="M41.37,41.38s0,0,0,0Z"/><path class="cls-4" d="M40.25,41.13l0,0h0Z"/><path class="cls-4" d="M40.81,41.31h0Z"/><path class="cls-4" d="M45,34.79Z"/><path class="cls-4" d="M45,35.44Z"/><path class="cls-4" d="M44.9,35.53h0Z"/><path class="cls-4" d="M44.88,35.18h0Z"/><path class="cls-4" d="M44.9,34.58Z"/><path class="cls-4" d="M44.93,34.59h0s0,0,0,0Z"/><path class="cls-4" d="M44.86,34.23h0Z"/><path class="cls-4" d="M43.33,35h0Z"/><path class="cls-4" d="M44.82,34.28h0Z"/><path class="cls-4" d="M45.09,35.45h0Z"/><path class="cls-4" d="M44.85,35.62h0Z"/><path class="cls-4" d="M44,36h0Z"/><path class="cls-4" d="M44.62,35.71h0s0,0,0,0h-.07Z"/><path class="cls-4" d="M43.16,35.65h.13c.05.06-.08.06,0,.11h0s.25,0-.1.05h0s0,0,0,0h.08l.09,0h-.06l0,0h-.08s.21,0,.12,0l.13,0H43.4a.17.17,0,0,0,.1,0h.38s0,0,0,0H44c-.11,0,.19,0,.19,0s0,0,0,0,.09,0,.14,0h.08s.13,0,0,0h0s.23,0,.1,0h0a2.17,2.17,0,0,1-.25-.05h0l0,0h.07s0,0,0,0l-.28,0c.07,0,.2,0,.11,0h.1c.17,0-.08,0,0,0h.23s-.09,0-.08,0-.06,0,.05,0l-.1,0h.14l0,.05h0s0,0,0,0a.6.6,0,0,1,.16,0l-.08,0s0,0,.08,0h0s0,0,0,0a.31.31,0,0,1,.18,0h-.1s.16,0,0,0l0,0s0,0,0,0h0s-.08,0,0,0-.13,0-.1,0h.14c.08,0-.06,0-.06,0l.27,0-.14,0h.11c.07,0,0,0,0,0l-.26,0h0s-.07,0,0,0h.05l0,0h.07l0,0h0s0,0,0,0h0c.11,0,0,0,0-.06h.07c.08,0-.11,0-.07,0l.09,0c-.12,0,0,0,.07,0h-.09l.21,0-.09,0h.1c-.12,0,0,0,0,0h.07l-.14,0,.06,0-.14,0c-.12,0,0,0,0,0h0s0,0,.06,0h-.09s.05,0,.07,0-.15,0-.1,0h0s0,0,0,0l.11,0-.11,0s0,0,0,0h0l0,0H45c-.12,0,0,0-.1,0,.08,0-.06,0,.11,0s-.14-.06-.06-.07.1,0,.12,0l-.15-.1c.21,0-.06-.06.06-.06l-.08,0c.13,0,0,0,.1,0h-.12s0,0,.1,0h0c.1,0-.05,0,0,0H45c-.23-.08.11,0-.1-.12.12,0-.06,0,.07,0s0,0-.08,0h0l0,0h0c.13,0,0-.09.07-.13h0s0,0,0,0-.1,0-.11,0,.08,0,.07,0-.17,0-.1,0-.14-.06,0,0h0c.11,0-.07-.05,0-.05h0l-.47-.11-.53-.06-.43,0,.08.11-.17,0,0,.19.11,0c-.21,0,0,.08-.13.1l.1,0h-.08c0,.1.13.22,0,.29s0,0-.1,0c.12,0,.11.08.09.11h0l0,0h0c.09,0,0,0,0,.05h0c0,.11.14.24,0,.33s.05.12-.1.16S43.12,35.63,43.16,35.65Z"/><path class="cls-4" d="M43.27,35.84Z"/><polygon class="cls-4" points="44.48 35.77 44.48 35.77 44.54 35.77 44.48 35.77"/><path class="cls-4" d="M44.49,35.93s0,0,0,0Z"/><path class="cls-4" d="M43.35,35.91s0,0,0,0h0Z"/><path class="cls-4" d="M43.93,36h0Z"/><path class="cls-6" d="M48.86,49.53,36,42.48l.72,7.72,12.7-7.72Z"/></g></g></svg>