<svg xmlns="http://www.w3.org/2000/svg" viewBox="0 0 70 70"><defs><style>.cls-1{fill:none;}.cls-2{fill:#fcf5ea;stroke:#898989;stroke-miterlimit:10;stroke-width:1.17px;}</style></defs><g id="圖層_2" data-name="圖層 2"><g id="圖層_1-2" data-name="圖層 1"><circle class="cls-1" cx="35" cy="35" r="35"/><path class="cls-2" d="M48.56,47,36,53.52,23.2,50c.1-3.3.21-6.59.32-9.89C27.1,39.53,31,39,35.16,38.69s8.26-.49,12-.48Z"/><line class="cls-2" x1="35.16" y1="39.32" x2="35.56" y2="52.51"/><path class="cls-2" d="M44.89,30.23l7.65,2.56L41.06,41.72l-6.7-4.15-9.57-6.38-7.33,4.47,11.16,6.69c1.78-1.57,3.69-3.18,5.74-4.78A117.79,117.79,0,0,1,44.89,30.23Z"/><path class="cls-2" d="M35.14,31.73c-1.12-.52-10.51-5-10.25-10.53A3.42,3.42,0,0,1,26,18.57c1.49-1,4.49.14,7.54,3,1.17-3.27,3.23-5.27,5.11-5.12A3.48,3.48,0,0,1,41,17.94C43.58,21.81,35.76,31,35.14,31.73Z"/></g></g></svg>