<svg xmlns="http://www.w3.org/2000/svg" viewBox="0 0 80 80"><defs><style>.cls-1{font-size:10.14px;font-family:jf-openhuninn-1.1;}.cls-1,.cls-3{fill:#040000;}.cls-2{fill:#fef5e9;}.cls-4{fill:#2e6734;}</style></defs><g id="圖層_2" data-name="圖層 2"><g id="圖層_1-2" data-name="圖層 1"><text class="cls-1" transform="translate(24.73 63.45) scale(1.02 1)">行程</text><path class="cls-2" d="M80,40C79.11,93.34.88,93.33,0,40,.89-13.34,79.12-13.33,80,40Z"/><text class="cls-1" transform="translate(30.05 65.57) scale(1.02 1)">行程</text><path class="cls-2" d="M21.6,32.36c1,3.74-2,15.32,2.18,16.07l35.59-.5V34.09"/><path class="cls-3" d="M26.19,47.61Z"/><path class="cls-3" d="M48,47.15h0l.05,0Z"/><path class="cls-3" d="M51.5,47.24h0S51.53,47.22,51.5,47.24Z"/><path class="cls-3" d="M39.91,47.47h0Z"/><path class="cls-3" d="M22.33,45.24h0v0Z"/><path class="cls-3" d="M22.38,45.29c0,.08,0,0,0,0a.4.4,0,0,0,0,.24S22.36,45.33,22.38,45.29Z"/><path class="cls-3" d="M22.37,33.66l0,0Z"/><path class="cls-3" d="M40.28,49.08h-.05A.08.08,0,0,0,40.28,49.08Z"/><path class="cls-3" d="M22.36,35.55l.05,0A.06.06,0,0,0,22.36,35.55Z"/><path class="cls-3" d="M48.06,47.1l0,0S48.07,47.09,48.06,47.1Z"/><path class="cls-3" d="M54.74,47.23a.08.08,0,0,0,0,0h0Z"/><path class="cls-3" d="M59.43,36.22h0l0,.06S59.44,36.23,59.43,36.22Z"/><path class="cls-3" d="M58.75,47.4v0a.83.83,0,0,0-.25,0v.07Z"/><path class="cls-3" d="M60.32,43.25l-.13.47c-.06-1.52.07-2.23,0-3.53l0,.07a5,5,0,0,1,.09-2.39h0a.42.42,0,0,1,0-.22l-.08.36a5.15,5.15,0,0,1-.1-.69.11.11,0,0,1,.06-.09l0-.71.08-.22c-.05-.21-.22-.11-.12-.69-.13.22-.08-.29-.14-.22l.06-.15a6.58,6.58,0,0,0-.11-1.15s-.26,1.35-.39,1.71c0-.49,0-.13,0,0l0,0c0,.29-.11.29-.13.43h0v0s0,0,0,0,0,0,0,.09v0a2.84,2.84,0,0,1,0,.42h-.06a9.14,9.14,0,0,1-.19,1.73,8.24,8.24,0,0,0,0,1c0,.58-.09.29-.14.58s.07-.08.07.07l-.08.43c0-.25,0-.11-.08-.06,0,.37-.12,1,0,1.08-.06.51-.11.51-.12.72,0-.07,0-.21.07-.21-.05.2,0,.09,0,0,.06.31-.23,1.61-.09,1.67h0c.11.07.21,0,.27.17l-.05.15.05.22c0,.14-.07.07-.08.07a9.29,9.29,0,0,1,0,1.28l.28-.46c-.06.36-.2,1-.1,1.09l-.1.22C59,46.87,59,47,59,47s.09.08.06.17a1.45,1.45,0,0,1-.1.18v-.21a.52.52,0,0,1-.12.26l-.1,0h0l0,0h0c0,.05-.06.09-.2.09a4.71,4.71,0,0,1-1.07,0l-.14.11-.44-.06v-.08l1.59-.06v0s-.52,0-.71,0-.37-.1-.18-.16l-.2.09a16.64,16.64,0,0,1-2.22,0l.1,0c-.22,0-.45.06-.51,0a10.09,10.09,0,0,1-1.82-.15l-.1.1c-.14,0-.36-.15-.43,0l-.3,0a2.44,2.44,0,0,1-.54,0h0l0,0h0c-.45,0,0,.09-.51,0-.16-.07-.18.13-.42.11l-.25-.14c-.45-.07-.53.07-1.18.08-.31-.05-.46-.17-.26-.28a1,1,0,0,1-.5.16c-.06-.06,0-.07.06-.12-.33-.06-.2,0-.46,0-.07.11-.15.27-.23.28l.1,0a2.28,2.28,0,0,1-.87,0v0l-.33,0,0-.07-.48,0,.07,0a3.05,3.05,0,0,1-.68,0v0a8.11,8.11,0,0,0-1.75.07l.08-.08c-.23-.07-.06.12-.34.09v-.1c-.25.13-.32,0-.49-.06l.08.12-.32,0c-.35,0-.22-.15-.17-.21l-.23.09,0-.1c-.18.12-.18,0-.48.05,0,0,.05-.06-.06-.08l-.5.16.3-.07,0,.15c-.32.13-.43,0-.66,0l.16,0a1.42,1.42,0,0,1-.6,0c.07,0,.17.07,0,.09s-.06-.06-.17-.07-.29.16-.53.12c0,0,0,0,0,0a.41.41,0,0,1-.2,0l.06-.12-.21.11c-.13,0-.33.06-.32,0l.08,0h-1v-.09c-.1.12-.57-.05-.53.11-.2-.08-.77.07-.66-.11a13.42,13.42,0,0,1-1.88.1,5.51,5.51,0,0,0-1.64-.09l-2.77.2a19.39,19.39,0,0,0-2.29,0l-.18.08c-.46-.12-1.16,0-1.8-.07a1.32,1.32,0,0,1-.28,0s.08,0,.09.08c-.18,0-.55,0-.53-.09h.05c0-.11-.56,0-.76,0l.11.12-.35,0,.1,0a5.53,5.53,0,0,1-1,.1.89.89,0,0,1-.42-.16,3.65,3.65,0,0,1-.81-1c.18.1-.15-.2,0-.27.07-.34-.19-.55-.29-.81h0L22.27,45c.21.26-.18-.33,0-.09a39.52,39.52,0,0,1,0-4.5l0,.07a6.94,6.94,0,0,1,.08-1.17,1.87,1.87,0,0,0-.07-.77c-.05-.33.11-.61.1-.47a4.78,4.78,0,0,1,0-1.17c.16-.16-.08-1.34.08-1.35h0a17.74,17.74,0,0,0,0-1.93l0,0a7.51,7.51,0,0,0-.69-1.32l-.45.48c-.09.38-.2.75-.33,1.13.08,1,.06,2,0,3.1l-.33,2.52A27.46,27.46,0,0,0,20.85,46c.08.15.14.3.23.45a3.52,3.52,0,0,0,1.15,2.19,3.16,3.16,0,0,0,1.41.65l.65,0c.17,0,.34,0,.5,0l0-.1c.37,0,.34,0,.43.07,3.44-.07,7-.26,10.07-.17.3.06,1.21,0,1.44.08a22.7,22.7,0,0,1,3.08-.16h0l.47,0s0,0,0,0a9.86,9.86,0,0,1,2,0h0c3.81,0,7.36-.28,11.14-.19a22,22,0,0,0,2.82,0l1.5,0h.86l1.49,0h.27c0-.36,0-1.11,0-2v-1.5C60.37,44.39,60.34,43.41,60.32,43.25Z"/><path class="cls-3" d="M60.18,37.23v0S60.21,37.22,60.18,37.23Z"/><polygon class="cls-3" points="58.96 45.67 58.96 45.65 58.89 45.75 58.96 45.67"/><path class="cls-3" d="M58.92,40.26c0,.25,0,.26,0,.23A.83.83,0,0,0,58.92,40.26Z"/><path class="cls-3" d="M60.09,35.25c0-.13,0-.08-.05,0s0,.22,0,.22Z"/><path class="cls-3" d="M59.49,35.77l0,0C59.46,35.8,59.47,35.8,59.49,35.77Z"/><path class="cls-2" d="M58.28,22l-35.83-.24c-4.65.24-2,7-2.67,10,10,5,33,5,41.16,1.43C60.26,30,63,22.5,58.28,22Z"/><path class="cls-3" d="M28.45,22.58c.05,0,.07,0,0,0Z"/><path class="cls-3" d="M35.28,34.41h0l.07,0Z"/><path class="cls-3" d="M40.59,34.85h0S40.63,34.83,40.59,34.85Z"/><path class="cls-3" d="M23.27,32.34h0Z"/><path class="cls-3" d="M38.31,22.53h0Z"/><path class="cls-3" d="M38.2,22.57c-.12,0,0,0,.09,0a1.35,1.35,0,0,0-.4,0S38.14,22.54,38.2,22.57Z"/><path class="cls-3" d="M56.2,22.56h0Z"/><path class="cls-3" d="M23.27,34.05l-.08,0Z"/><path class="cls-3" d="M53.37,22.51l0,0A.05.05,0,0,0,53.37,22.51Z"/><path class="cls-3" d="M35.38,34.36h0Z"/><path class="cls-3" d="M45.52,34.87s0,0,0,0h0Z"/><path class="cls-3" d="M60.8,23.83s0,0,0,0l.08.09Z"/><path class="cls-3" d="M52.28,34.63l0,0c-.12,0-.42,0-.81.06v.07Z"/><path class="cls-3" d="M59.94,34.57a6.32,6.32,0,0,1-.76.11c.29-.08.56-.19.81-.28l.88-.33.57-.2.28-.1s.12,0,.1-.07v-.14c-.05-.39-.1-.76-.14-1.13,0-.75,0-1.48,0-2.47l0,.11c0-.14,0-.26,0-.74s.14-1.3.32-3h0a1.36,1.36,0,0,1,0-.36l-.07.59c0-.35-.1-.78-.15-1.13,0-.1,0-.14.05-.15a6.35,6.35,0,0,0-.23-1.2,1.39,1.39,0,0,0,0-.4,1.55,1.55,0,0,0-.25-.32c-.07-.12-.2-.3-.48-.79.07.21,0,.1-.12,0s-.29-.25-.26-.19l-.17-.23a3.4,3.4,0,0,0-1.09-.57,7.47,7.47,0,0,0-.9-.12l.37.12a2.49,2.49,0,0,1,.8.36c.15.09.29.19.43.29l.32.37a1.67,1.67,0,0,1,.34.61c-.41-.68-.12-.16-.07,0l0,0c.25.4.1.46.19.66v0l0,0s0,0,0,0,0,0,.07.13v0a2.7,2.7,0,0,1,.17.63l-.07,0a2.93,2.93,0,0,1,.12,1.28c0,.57-.14,1.14-.15,1.36-.1.44,0,1-.12,1.55-.09.88-.13.43-.22.87s.09-.1.07.12l-.14.66c0-.39,0-.18-.06-.11A4.81,4.81,0,0,0,60.4,32q0,.28,0,.48s0,.09,0,.12a.79.79,0,0,0,0,.17s0-.14.06-.13,0,.08,0,0a.59.59,0,0,1,0,.14s0,.06,0,.08l-.1,0L60.1,33,60,33l-.2,0a5.47,5.47,0,0,0-1.06.34v0c-.07.13.12.19-.18.33h-.22l-.31.13c-.22,0-.12,0-.12,0a9.73,9.73,0,0,1-1.9.41l.74.14a6.75,6.75,0,0,0-1.65.22l-.34,0c-1.12,0-.75.19-1.2.2l-.56,0,.55-.08c-.56,0-.78,0-1.22,0h0a1.7,1.7,0,0,1-.73.16,13.36,13.36,0,0,1-1.86.14l-.21.12-.67,0v-.09c.65,0,1.86-.18,2.69-.27v0c-.49,0-1,.15-1.37.17-.16,0-.57,0-.28-.13l-.3.1a25,25,0,0,1-3.38.1l.15,0a1.71,1.71,0,0,1-.77,0,14.37,14.37,0,0,1-2.78-.14l-.14.1c-.22,0-.55-.16-.66,0l-.46,0a3.81,3.81,0,0,1-.82,0h0l-.07,0h0c-.68-.07,0,.09-.77,0-.25-.08-.28.12-.65.08l-.38-.16c-.67-.1-.8,0-1.78,0-.47-.08-.69-.22-.37-.31a2.14,2.14,0,0,1-.78.09c-.08-.06,0-.06.11-.1-.5-.1-.32,0-.7,0-.12.1-.26.25-.39.24l.15.05a5.59,5.59,0,0,1-1.32-.12l0,0-.5,0,0-.07-.72,0,.09,0a4.9,4.9,0,0,1-1-.14v0A25.33,25.33,0,0,0,29,33.85l.14,0c-.33-.14-.11.09-.52,0v-.09c-.39,0-.47-.12-.71-.22l.09.15-.47-.12c-.51-.15-.28-.22-.2-.26l-.37,0-.05-.12c-.28.07-.25-.08-.71-.13,0,0,.09,0-.05-.1l-.77,0,.46.05-.1.14a4.37,4.37,0,0,1-1-.23l.24,0a2.22,2.22,0,0,1-.85-.3c.08.06.21.15,0,.09s-.07-.08-.21-.14c-.07.09-.46,0-.79-.15a.06.06,0,0,1,.05,0,.85.85,0,0,1-.29-.08l.12-.08h-.32c-.19-.1-.5-.11-.45-.18l.12,0c-.49-.17-.94-.42-1.41-.62l0-.09c-.29,0-.16-.12-.33,0a.8.8,0,0,0,0-.15v-.09a.52.52,0,0,1,0-.14c0-.06,0-.09.08,0,0-1.15-.21-1.7-.22-3,.11-.46,0-1.67,0-2.41a5,5,0,0,1,.21-1.77,1.45,1.45,0,0,1,1-1c.16-.05.39,0,.6-.05s.57,0,.86,0a13.2,13.2,0,0,1,1.78,0l.29-.08c.7.14,1.77,0,2.76.12a3.05,3.05,0,0,1,.42-.05.15.15,0,0,1-.13-.07c.28,0,.85,0,.81.1h-.07c0,.11.85,0,1.16.05l-.17-.11.53,0-.14,0c2.31-.24,3.36.13,5.53-.09-.29.13.43-.06.46.08a3.2,3.2,0,0,0,1.46-.08l0,0,.79,0c-.47.17.56-.14.13,0,2,.14,4.72,0,7.09.1l-.1-.05c.6,0,1.35,0,1.8,0a4,4,0,0,0,1.18-.11c.5-.07.95.08.74.07a11.41,11.41,0,0,1,1.78-.1c.25.15,2-.12,2,0h0c.95.12,1.85-.07,2.87,0l0,0,2.08-.48-.59-.55-1.8-.46-4.9.07-3.91-.2H37.57l-.68.12c-1.87-.23-4.26,0-6.28-.16l0,.1a1.49,1.49,0,0,1-.67-.08H22.46l-.6.09a4.12,4.12,0,0,0-1.19.38,3.18,3.18,0,0,0-1,.86,3.86,3.86,0,0,0-.58,1.07,7.24,7.24,0,0,0-.24,1.08,20.64,20.64,0,0,0,0,3.85c0,.47.12,1.82,0,2.14s0,.35,0,.52a3.2,3.2,0,0,1,0,.47l-.06.55c-.2.46.34.49.64.65l.84.35,1.14.48,1.14.39h-.06l.71.22s0,0,0,0c.83.2,2.08.56,3.07.87h-.06a87.88,87.88,0,0,0,17.21,1.66,76,76,0,0,0,9-.45A12.59,12.59,0,0,0,53.86,36a22,22,0,0,0,2.4-.41l1.27-.27L58.65,35A8.45,8.45,0,0,0,59.94,34.57Z"/><path class="cls-3" d="M61.88,25.29v0S61.91,25.27,61.88,25.29Z"/><polygon class="cls-3" points="55.95 34.18 55.99 34.17 55.83 34.14 55.95 34.18"/><path class="cls-3" d="M60.47,30c0,.37,0,.39,0,.34S60.47,30.06,60.47,30Z"/><path class="cls-3" d="M60.37,22.09c-.19-.17-.13-.08,0,0l.32.28Z"/><path class="cls-3" d="M60.53,23.18l-.07,0C60.53,23.24,60.54,23.23,60.53,23.18Z"/><path class="cls-2" d="M31.77,26.88l17.67-.24"/><path class="cls-3" d="M36.93,26s0,0,0,0Z"/><path class="cls-3" d="M42.73,25.79h0a.11.11,0,0,0,0-.05Z"/><path class="cls-3" d="M43.66,25.91h0S43.67,25.89,43.66,25.91Z"/><path class="cls-3" d="M40.58,26h0Z"/><path class="cls-3" d="M35.22,26.16h0Z"/><path class="cls-3" d="M35.24,26.13s0,0,0,0,0,0,.06,0S35.25,26.15,35.24,26.13Z"/><path class="cls-3" d="M32.12,26.3v0Z"/><path class="cls-3" d="M40.69,27.64h0Z"/><path class="cls-3" d="M32.61,26.32v-.05A.11.11,0,0,0,32.61,26.32Z"/><path class="cls-3" d="M42.74,25.74v0Z"/><path class="cls-3" d="M44.52,25.94s0,0,0,0h0Z"/><path class="cls-3" d="M48.88,26.71v0l0,0Z"/><path class="cls-3" d="M45.71,26.15v0s-.07,0-.14,0v.07Z"/><path class="cls-3" d="M47,27.62l-.13-.12c.41-.07.6.06.94-.05l0,0s.08-.26.64.08v0s0,0,.06,0l-.1-.08c.06,0,.11-.09.18-.1a.07.07,0,0,1,0,.06l.19,0,.06.08c.05-.05,0-.22.18-.13-.06-.12.08-.07.06-.13l0,0a.54.54,0,0,0,.3-.11,3.12,3.12,0,0,1-.46-.38c.13,0,0,0,0-.06v0c-.08,0-.08-.1-.12-.12v0h0v0s0,0,0,0h0a.14.14,0,0,1-.11,0v-.06c-.06.12-.39-.19-.47-.19s-.17,0-.27,0-.08-.09-.16-.14,0,.07,0,.08l-.12-.09c.07,0,0-.05,0-.07s-.26-.13-.29,0c-.14-.06-.14-.11-.2-.12s.06.05.06.07,0,0,0,0-.43-.23-.45-.09v0c0,.1,0,.2,0,.26l0,0-.05,0a.07.07,0,0,1,0-.07c-.09.05-.22,0-.34,0l.13.28c-.1-.06-.27-.19-.29-.1l-.06-.1c-.2-.18-.13.09-.21,0l-.1-.1h.1a1.21,1.21,0,0,1-.22-.15h0a0,0,0,0,1,0,0h0a.11.11,0,0,1-.13.08c-.1,0-.17.07-.33,0l0,.11-.12-.07v-.08l.47,0v0c-.08,0-.18,0-.24,0s-.1-.1,0-.16l-.05.09a1.23,1.23,0,0,1-.59-.08l0,0c-.06,0-.11.05-.13,0a1,1,0,0,1-.49-.17l0,.1s-.1-.16-.12,0l-.08.05s-.08,0-.14,0h0c-.12,0,0,.09-.14,0s0,.13-.11.11l-.07-.14c-.12-.09-.14.06-.31.06a.22.22,0,0,1-.07-.28c-.07.13,0,.09-.13.15a.11.11,0,0,1,0-.11c-.09-.07-.05.05-.12,0a1.22,1.22,0,0,1-.06.28l0,0a.2.2,0,0,1-.23,0v-.05l-.09,0V26l-.13,0,0,0a.28.28,0,0,1-.18,0v0c-.16-.11-.29,0-.47.06l0-.08c-.06-.07,0,.12-.09.08V26c-.07.12-.09,0-.13-.07l0,.12-.08,0c-.1,0-.06-.15,0-.21l-.06.1,0-.11c0,.12,0,0-.12.05s0-.07,0-.08l-.13.15.08-.07V26c-.08.12-.11,0-.17,0l0-.05c-.1,0-.11,0-.16-.06s0,.07,0,.09,0-.05,0-.07-.08.16-.14.11v0s0,0-.05,0l0-.11-.06.11s-.09.05-.08,0l0,0-.28,0v-.09c0,.13-.15,0-.14.11-.06-.08-.21.07-.18-.11-.18,0-.28.16-.5.08s-.29-.1-.44-.11-.45.12-.73.17c-.17-.2-.42.08-.61,0l-.05.08c-.12-.13-.31,0-.48-.09l-.07.05s0,0,0,.07-.14,0-.14-.09v0c0-.1-.14.06-.2,0l0,.11-.09,0,0,0c-.39.26-.58-.1-.95.13,0-.12-.08.07-.08-.07s-.18,0-.26.09v0h-.14c.08-.17-.09.14,0,0a6.2,6.2,0,0,0-1.23,0l0,0c-.11,0-.23,0-.32,0s-.17.11-.2.12-.16-.07-.13-.06-.17.18-.3.11-.35.15-.36,0v0c-.17-.12-.32.08-.5,0v0l-.35.5.11.54.32.44.84-.1.68.16,1.65-.08.11-.13c.33.22.74,0,1.09.11v-.1c.1,0,.09.05.12.07a16.13,16.13,0,0,1,2.67-.07c.08.07.33,0,.39.1a1.64,1.64,0,0,1,.81-.12h0l.13,0s0,0,0,0c.14-.1.37,0,.54,0h0a21.08,21.08,0,0,1,3-.07c.47.16,1-.08,1.55.05A3.44,3.44,0,0,0,47,27.62Z"/><path class="cls-3" d="M48.62,27.46h0S48.62,27.49,48.62,27.46Z"/><polygon class="cls-3" points="46.36 26.27 46.36 26.27 46.34 26.21 46.36 26.27"/><path class="cls-3" d="M47.8,26.21c-.07,0-.07,0-.06,0A.07.07,0,0,0,47.8,26.21Z"/><path class="cls-3" d="M49.15,27.37s0,0,0-.06h-.06Z"/><path class="cls-3" d="M49,26.76v0S49,26.75,49,26.76Z"/><path class="cls-2" d="M32.37,22c-1.56-8.14,8.6-4,13.32-4.77,2.56-.13,2.23,3,2.18,4.77"/><path class="cls-3" d="M35.24,16.2Z"/><path class="cls-3" d="M43,16.35h0l0-.05Z"/><path class="cls-3" d="M44.17,16.53h0S44.18,16.51,44.17,16.53Z"/><path class="cls-3" d="M40.21,16.3h0Z"/><path class="cls-3" d="M32.88,17.27h0Z"/><path class="cls-3" d="M32.88,17.22s0,0,0,0a.11.11,0,0,0,.1-.05S32.91,17.23,32.88,17.22Z"/><path class="cls-3" d="M31.73,21.61h0Z"/><path class="cls-3" d="M40.17,17.92h0Z"/><path class="cls-3" d="M31.69,20.93h0Z"/><path class="cls-3" d="M43,16.3v0Z"/><path class="cls-3" d="M45.22,16.52a.06.06,0,0,0,0,0h0Z"/><path class="cls-3" d="M47.84,21.25h0l0,0S47.83,21.25,47.84,21.25Z"/><path class="cls-3" d="M47.07,17h0a.51.51,0,0,0-.21-.12l0,0Z"/><path class="cls-3" d="M46.82,19.06l.09-.16c.17.39.06.63.2,1l0,0c0,.06.28.08-.08.77h0s0,0,0,.07l.08-.12c0,.08.1.14.1.24s0,0-.06,0l0,.24L47,21.2c0,.07.22,0,.11.24.13-.07.07.1.14.08l-.06.05a1,1,0,0,0,.09.41,4.36,4.36,0,0,1,.41-.59c0,.17,0,.05.06,0h0c0-.1.11-.1.13-.15h0s0,0,0,0h0a.66.66,0,0,1,0-.15h.07c-.12-.08.19-.5.2-.61s0-.23,0-.36.09-.1.14-.21-.07,0-.08,0l.08-.17c0,.09,0,0,.07,0s.09-.37,0-.4c0-.19.08-.21.07-.29s0,.09-.05.1,0,0,0,0,.1-.67-.06-.66h0c-.11,0-.2.08-.27,0l0-.07-.07-.06c0-.07,0-.05.06-.06s-.12-.31-.22-.47a1.59,1.59,0,0,1-.15.29c0-.14,0-.44-.14-.4l0-.13c-.08-.36-.2-.09-.26-.21l-.06-.18.13.1L47.09,17h0v0h0s-.14,0-.24,0-.28,0-.5-.19l-.08.09a.65.65,0,0,0-.17-.08V16.7a2.47,2.47,0,0,1,.78.15v0a2,2,0,0,0-.41-.1s-.14-.13,0-.17l-.11.06c-.25,0-.36,0-.48,0l-.22,0a1,1,0,0,1-.27,0l0,0c-.07,0-.14.06-.16,0a1.08,1.08,0,0,1-.59-.14l0,.1s-.12-.15-.14,0l-.1,0c-.07,0-.1.06-.18,0h0v0h0c-.15,0,0,.09-.17,0s-.06.13-.14.1l-.08-.14c-.15-.09-.18,0-.4,0a.18.18,0,0,1-.07-.28c-.1.12,0,.08-.18.14s0-.07,0-.12-.07.05-.16,0-.07.26-.1.27l0,0a.29.29,0,0,1-.3,0v-.05h-.11v-.06h-.17l0,0a.38.38,0,0,1-.23,0v0c-.19-.13-.37,0-.61,0l0-.07c-.07-.08,0,.11-.12.06v-.09c-.1.11-.11,0-.16-.09l0,.13-.11,0c-.12-.05-.06-.16,0-.22l-.09.09v-.11c-.07.12-.06,0-.17,0s0-.06,0-.08l-.19.13.11-.06,0,.16c-.13.1-.15,0-.23,0l0,0c-.13,0-.13,0-.2-.08s0,.07,0,.09,0-.06-.05-.08a.13.13,0,0,1-.2.09.1.1,0,0,1,0,0s0,0-.07,0l0-.11-.08.1s-.12,0-.11,0l0,0-.36-.06V16.1c0,.12-.19-.07-.19.09-.07-.09-.28,0-.23-.13-.24,0-.38.13-.67,0-.09-.16-.39-.13-.58-.15l-1,.15c-.23-.21-.58.09-.84,0l-.07.09c-.18-.11-.42.06-.69,0l-.09.07s0,0,0,.06-.21,0-.22-.06h0c0-.11-.2.08-.3,0l.07.11h-.14l0,0c-.5.37-.89.14-1.32.62,0-.15-.07.11-.15,0s-.22.18-.29.3,0,0,0,0l-.18.13c0-.22,0,.2,0,0A3,3,0,0,0,31.7,19l.05,0a1.75,1.75,0,0,1-.14.47c-.08.11.08.28.08.32s-.11.24-.09.18c0,.14.17.27.09.45s.16.5,0,.51h0c-.1.24.11.44.05.69h0c.19.14.38.28.57.4l.51-.23.38-.44a7,7,0,0,1-.16-1,5.72,5.72,0,0,1,.24-.7,2,2,0,0,1,.7-1.24,1.1,1.1,0,0,1,0-.16c.35,0,.66-.36,1.09-.3l0-.11c.11,0,.12,0,.15.05a8.12,8.12,0,0,1,3.26-.14c.09.07.4.05.48.13a2.53,2.53,0,0,1,1.06,0h.15a0,0,0,0,1,0,0c.19-.08.48,0,.7.1h0c1.33.15,2.59.09,4,.18a1.87,1.87,0,0,0,.53,0l.29,0h.07s0,0,0,0h.06a.58.58,0,0,1,.53.13c0,.07.1.12.21.28A4.06,4.06,0,0,1,46.82,19.06Z"/><path class="cls-3" d="M47.1,20.88h0S47.07,20.89,47.1,20.88Z"/><polygon class="cls-3" points="47.76 17.82 47.77 17.83 47.8 17.76 47.76 17.82"/><path class="cls-3" d="M48.34,19.81c0-.09,0-.09,0-.08A.15.15,0,0,0,48.34,19.81Z"/><path class="cls-3" d="M47.16,21.57s0,0,.06,0v-.08Z"/><path class="cls-3" d="M47.78,21.41h0S47.79,21.4,47.78,21.41Z"/><path class="cls-4" d="M34.68,41c1.9-3.73-1.27-5.1,3.42-8.61,4.42-4.84,8.66,2.56,14.08-5.61C53.47,34.83,42.46,49.46,34.68,41Z"/><path class="cls-3" d="M34.38,39.35Z"/><path class="cls-3" d="M40.88,36.37h0v0Z"/><path class="cls-3" d="M42,36.1h0S42,36.08,42,36.1Z"/><path class="cls-3" d="M38.51,37.42v0Z"/><path class="cls-3" d="M32.73,40.78Z"/><path class="cls-3" d="M32.72,40.74s0,0,0,0a.08.08,0,0,0,.08-.05S32.75,40.75,32.72,40.74Z"/><path class="cls-3" d="M30.55,44.05h0Z"/><path class="cls-3" d="M39.17,38.9h0Z"/><path class="cls-3" d="M30.85,43.52l0,0Z"/><path class="cls-3" d="M40.88,36.31v0Z"/><path class="cls-3" d="M42.9,35.75l0,0h0Z"/><path class="cls-3" d="M47.57,33.62h0v0A0,0,0,0,0,47.57,33.62Z"/><path class="cls-3" d="M44.24,35.36v0a.37.37,0,0,0-.15.06l0,.06Z"/><path class="cls-3" d="M46.36,35.83l-.21,0a5,5,0,0,0,1-.75v0c.07,0-.08-.24.69-.47h0s0,0,.05-.05l-.14,0a.66.66,0,0,1,.1-.25s0,0,.06,0L48,34.2h.12c0-.08-.14-.18.07-.26-.14,0,0-.12-.05-.14h.08c.07-.09.2-.28.18-.36a3.09,3.09,0,0,1-.68.16c.14-.09,0,0,0,0v0c-.08.05-.14,0-.19,0h0l0,0s0,0,0,0h0a.45.45,0,0,1-.09.1l0,0c0,.14-.45.21-.52.26s-.14.15-.26.19-.13,0-.23,0,.06,0,0,.07l-.16,0c0-.06,0-.06,0-.07s-.31.09-.26.21c-.15,0-.18,0-.24,0s.08,0,.09,0,0,0,0,0-.55.08-.48.21l0,0c0,.1.13.17.11.25H45.4l0,.07c-.06,0,0,0-.06-.05s-.23.13-.35.19l.27.17c-.13,0-.37,0-.34.09l-.11,0c-.29-.06-.1.14-.21.13l-.15,0,.1,0a.93.93,0,0,1-.29,0h0s0,.11-.1.15-.15.14-.36.13v.11h-.15l0-.08c.12,0,.33-.2.48-.28l0,0c-.09,0-.17.13-.23.15s-.15,0-.12-.12l0,.1a1.2,1.2,0,0,1-.66.21l0,0s-.1.1-.15,0a1.1,1.1,0,0,1-.58.07V36s-.16-.1-.13,0l-.07.08c-.07,0-.08.08-.17,0h0c-.15,0,0,.09-.13.09s0,.14-.09.15l-.13-.11c-.16,0-.13.12-.32.19a.2.2,0,0,1-.17-.24c0,.16,0,.1-.1.2s0-.06,0-.12,0,.07-.12.09a1.07,1.07,0,0,1,0,.28l0,0a.25.25,0,0,1-.25.12l0-.05-.09.06,0-.06-.14.07h0a.4.4,0,0,1-.21.07v0c-.21-.05-.31.15-.51.23V37c-.1,0,0,.12-.08.11l0-.08c0,.14-.11,0-.17,0l.06.11H39.4c-.12,0-.11-.12-.12-.19l0,.12-.05-.1c0,.14-.06,0-.13.1s0-.07,0-.07l-.1.19.07-.09,0,.15c-.06.14-.14,0-.19.09l0-.06c-.1.08-.13,0-.2,0s.07,0,0,.08,0,0-.07,0,0,.18-.13.16,0,0,0,0,0,.05-.06,0l0-.11,0,.12c-.06,0-.09.09-.11,0l0,0-.33.09,0-.08c0,.13-.19,0-.12.16-.09-.06-.21.15-.24,0-.22.06-.27.27-.55.3s-.38.06-.55.11-.47.35-.76.56c-.29-.09-.44.31-.7.31l0,.1c-.2,0-.31.24-.56.25l-.06.1s0,0,.07,0-.15.11-.2,0v0c0-.09-.13.14-.24.11l.1.07-.11,0v0c-.27.49-.66.38-.89.86,0-.13,0,.11-.12,0s-.16.17-.19.28v0l-.13.12c0-.2,0,.19,0,0A5,5,0,0,0,31.59,42h.05c-.08.1-.13.27-.25.31s0,.25-.05.28-.18.14-.15.1,0,.28-.12.39-.07.46-.22.39h0c-.19.13-.11.39-.3.54v0l.25.61.55.1.57-.13.34-.88.56-.52a10.66,10.66,0,0,1,1.11-1.4l0-.17c.42-.06.6-.56,1-.66l-.05-.09c.09-.06.12,0,.15,0a8.3,8.3,0,0,1,2.67-1.45c.11,0,.35-.13.45-.08a2.26,2.26,0,0,1,.85-.45v0l.13-.08a0,0,0,0,1,0,0c.13-.15.41-.15.62-.18h0c1.15-.38,2.17-.94,3.38-1.28a12,12,0,0,0,1.8-.76C45.13,36.76,46.29,35.94,46.36,35.83Z"/><path class="cls-3" d="M47.87,34.39h0S47.89,34.41,47.87,34.39Z"/><polygon class="cls-3" points="44.96 35.11 44.97 35.1 44.91 35.07 44.96 35.11"/><path class="cls-3" d="M46.29,34.12c-.06,0-.06,0,0,.05S46.29,34.14,46.29,34.12Z"/><path class="cls-3" d="M48.28,33.84s0,0,0,0l-.05.06Z"/><path class="cls-3" d="M47.71,33.56l0,0S47.69,33.55,47.71,33.56Z"/></g></g></svg>