<svg xmlns="http://www.w3.org/2000/svg" viewBox="0 0 70 70"><defs><style>.cls-1{fill:none;}.cls-2{fill:#fcf5ea;}.cls-3{fill:#030000;}.cls-4{fill:#f0e65b;}.cls-4,.cls-5{stroke:#d64835;stroke-miterlimit:10;stroke-width:0.88px;}.cls-5{fill:#eeea5f;}.cls-6{fill:#d64835;}</style></defs><g id="圖層_2" data-name="圖層 2"><g id="圖層_1-2" data-name="圖層 1"><circle class="cls-1" cx="35" cy="35" r="35"/><path class="cls-2" d="M28.14,48.42c0-6.2-1.52-8.72-3-9.86-.41-.32-1.41-1-3.08-2.34-1.34-1.07-2.4-2-3.09-2.59a7.63,7.63,0,0,1-1.35-2.84,7.46,7.46,0,0,1,0-3.45,1,1,0,0,1,1-1,1.06,1.06,0,0,1,1,1.23A9.45,9.45,0,0,0,20,29a10.24,10.24,0,0,0,.85,1.76,11,11,0,0,0,3.83,3.29.47.47,0,0,0,.65,0,.47.47,0,0,0-.22-.64,10.75,10.75,0,0,1-3-4.37,10.63,10.63,0,0,1-.62-4.81,4.08,4.08,0,0,1,1.6-2.34,4,4,0,0,1,1.6-.62A1.92,1.92,0,0,1,27,22.41a1.81,1.81,0,0,1-.5,1.73,2.46,2.46,0,0,0-1.23.74,2.52,2.52,0,0,0-.62,1.35,8.51,8.51,0,0,0,.62,2.34c.24.56.18.24,1,1.73.35.65.53,1,1,1.22.09,0,.6.26.86,0a.76.76,0,0,0,0-.86,8.2,8.2,0,0,1-.6-4.55A6.55,6.55,0,0,1,29.62,22a4,4,0,0,1,3.32-.86,3.72,3.72,0,0,1,2,1.23,1.35,1.35,0,0,1-.25,1.48,1.4,1.4,0,0,1-1.11.37,2.74,2.74,0,0,0-1.6.12,2.77,2.77,0,0,0-1.24,1c-.08.86-.17,1.53-.24,2a2.48,2.48,0,0,0,0,1.18c0,.11.26.87.65.94.7.13,1.1-2,2.81-3.35A5.62,5.62,0,0,1,36.76,25a2.31,2.31,0,0,1,2.35.37,2.1,2.1,0,0,1,.61,1.11,3.34,3.34,0,0,1,.37,1.85,3.45,3.45,0,0,1-.49,1.48c-.69.71-1.17.8-1.48.74s-.4-.24-1.23-1c-.61-.55-.92-.83-1.11-.86-.81-.15-1.67,1-2.1,1.6a8.61,8.61,0,0,0-1.48,3.45,5.75,5.75,0,0,0,.74,4.44,5.83,5.83,0,0,0,4.44,2.46l1.23-1.48,1.24-1.47a1.39,1.39,0,0,1,1.72,0,1.22,1.22,0,0,1,.37.86,6.56,6.56,0,0,1-.61,2.59,7.71,7.71,0,0,1-1.73,2.22c-.88.9-1.85,2.5-2.1,5.54"/><path class="cls-3" d="M21.67,29.61Z"/><path class="cls-3" d="M31.17,27.59v0l0,.1Z"/><path class="cls-3" d="M34.65,25h.05S34.69,24.92,34.65,25Z"/><path class="cls-3" d="M27.1,25.32c0,.07,0,.11,0,.14Z"/><path class="cls-3" d="M20.3,28.11v0Z"/><path class="cls-3" d="M20.36,28.25c0,.16,0,0-.05-.11a3.13,3.13,0,0,0,.12.53A2.13,2.13,0,0,0,20.36,28.25Z"/><path class="cls-3" d="M27.55,45.43v0Z"/><path class="cls-3" d="M28.5,24.92l0,.1A.41.41,0,0,1,28.5,24.92Z"/><path class="cls-3" d="M26.72,41.53l0,0S26.71,41.53,26.72,41.53Z"/><path class="cls-3" d="M31.19,27.73v0Z"/><path class="cls-3" d="M40.69,27.94s0,0,0,0v0Z"/><path class="cls-3" d="M38.78,44.35h0l.06-.14A1.2,1.2,0,0,0,38.78,44.35Z"/><path class="cls-3" d="M33.74,31v0c.09-.13.34-.49.68-.92l0-.06C34.17,30.31,33.94,30.63,33.74,31Z"/><path class="cls-3" d="M34.89,40.75a6.53,6.53,0,0,1-1-.67,7,7,0,0,0,2.27,1l.53.11.13,0,.2,0,.42,0c.06,0,.14,0,.2,0l.13-.15.27-.31.32-.38,1.14-1.37c.2-.23.39-.48.61-.73l.12-.16s0,0,0,0a1.17,1.17,0,0,1,.31-.12l-.09,0a.85.85,0,0,1,.59,0c.13.07.33.22.24.79a5.24,5.24,0,0,1-.82,2.32h0a1.47,1.47,0,0,1-.23.37,5.68,5.68,0,0,0,.41-.59,4.46,4.46,0,0,1-.71,1.2c-.09.09-.13.11-.15.11-.31.35-.75.72-1.11,1.2l-.36.39c-.24.48-.07.31-.69,1.55.27-.45-.19.66-.08.52l-.14.32a10.32,10.32,0,0,0-.38,2.65,13.77,13.77,0,0,1,.33-1.62,8.46,8.46,0,0,1,.85-2.11c-.45,1-.11.27,0,.08v-.07a3.89,3.89,0,0,1,.55-.82h0v0s0,0,0,0,0,0,.09-.18v0a5.3,5.3,0,0,1,.59-.75l0,0c.11-.22.76-.71,1.29-1.36a5.59,5.59,0,0,0,1-1.77A3.66,3.66,0,0,0,42,39.29c0-.2,0-.4.05-.61A1.69,1.69,0,0,0,42,38a1.28,1.28,0,0,0-.47-.58l-.23-.15a.77.77,0,0,0-.46-.16c-.95,0,.2,0-.18.07a1.59,1.59,0,0,0-1.08.38c.28-.27.38-.26.34-.27a1,1,0,0,0-.22.09,5.07,5.07,0,0,0-.52.56l-.49.55a4.38,4.38,0,0,0-.61.79c-.38.42-.58.63-.72.77l-.1.09a.1.1,0,0,1-.12,0c.1.08.18-.11.21-.08-.18.15-.07.1,0,0s-.06.11-.13.14l-.31,0a5.25,5.25,0,0,1-1.09-.34,14.9,14.9,0,0,1-1.36-.73v0c-.16,0,0,.19-.41-.06l-.19-.24c-.13-.09-.23-.21-.35-.31s0-.16,0-.16a4.6,4.6,0,0,1-1-2.45,4.79,4.79,0,0,0,0,1,5.51,5.51,0,0,1-.2-1.41c0-.47,0-.86,0-.94s.08-.3.13-.45c.48-1.52.2-1.09.43-1.69.12-.23.24-.47.38-.69a7.76,7.76,0,0,0-.3.72A6.34,6.34,0,0,1,33.74,31h0s0,.05-.05.05l.05-.09a3.36,3.36,0,0,1,.57-.89,4.08,4.08,0,0,1,.76-.79.93.93,0,0,1,.46-.22.3.3,0,0,1,.21,0l.1.07.16.14.29.15.68.68,0,.05-.63-.57c-.23-.19-.53-.48-.64-.48a1,1,0,0,0-.62.29,4.29,4.29,0,0,0-.62.66v0a5.23,5.23,0,0,1,.68-.72.89.89,0,0,1,.52-.24.23.23,0,0,1,.15.13c.07.08.07.11-.07,0a2.48,2.48,0,0,1,.34.19c.45.39.78.7,1.06,1a5.28,5.28,0,0,0,.46.4,1.31,1.31,0,0,0,.74.22,2.09,2.09,0,0,0,1.24-.51l.28-.22a1.8,1.8,0,0,0,.33-.4,4.49,4.49,0,0,0,.39-.9l-.11.24A9.23,9.23,0,0,0,40.67,28a4.73,4.73,0,0,0-.12-.92c0-.15-.08-.29-.13-.44l-.09-.21,0-.13a1,1,0,0,1,0-.14l-.07-.22a3,3,0,0,0-.18-.41,2.73,2.73,0,0,0-1.87-1.33,1.37,1.37,0,0,0-.28.05c-.4-.05-1,0-1.17.14l-.06,0-.18,0-.36.08a11.92,11.92,0,0,0-1.27.39h0l-.1,0h0c-.51.22-.49.26-.5.27a5.63,5.63,0,0,1-.58.39c-.34.22-.29.35-.71.78a4.54,4.54,0,0,0-.48.39,4.85,4.85,0,0,0-.67,1c-.09.16-.18.34-.28.54s-.07.12-.1.19l-.09.11a.08.08,0,0,1-.1,0c-.07-.12,0-.18,0-.25s0,.06-.06.06h0s0,0-.07-.14,0,0,.11.07c0-.22,0-.27,0-.33a.79.79,0,0,1,0-.37,1.53,1.53,0,0,1-.13-.56l-.05.22c0-.31,0-.62.07-.95l.06-.5,0-.23s0-.07,0-.09l0,0,0-.06.09-.11a2.28,2.28,0,0,1,.22-.22l.06,0a2.15,2.15,0,0,1,.75-.39l-.12,0a2.08,2.08,0,0,1,.55-.12,1.45,1.45,0,0,1,.36,0,3.41,3.41,0,0,1,.4.07l0,0a1.84,1.84,0,0,0,1.29-.31,1.72,1.72,0,0,0,.71-1.1A1.77,1.77,0,0,0,35.27,22a4.35,4.35,0,0,0-1-.8l.22.08c-.47-.37-.17,0-.79-.38v-.08c-.63-.14-.78-.27-1.23-.36l.2.12a4.52,4.52,0,0,0-.82-.05c-.9.08-.58,0-.45-.11a3.43,3.43,0,0,0-.59.22l-.15,0a11.34,11.34,0,0,0-1.1.59c-.07,0,.09-.12-.14,0a4.91,4.91,0,0,0-.88,1,5.47,5.47,0,0,1,.5-.58v.15a9.9,9.9,0,0,0-1,1.25c.06-.11.12-.23.19-.34-.49.77-.52.81-.77,1.26.09-.14.22-.34.08,0s-.09.11-.2.34a5.1,5.1,0,0,1-.27,1.25s0,0,0-.06a2,2,0,0,1-.07.46l-.06-.16c0,.17,0,.33,0,.5s0,.81-.09.76v-.19A8.61,8.61,0,0,0,27,29.31l-.06.05a5,5,0,0,1,.23.71.1.1,0,0,0,.09.1s0,.11,0,.2-.1.07-.14-.07a.24.24,0,0,1-.24-.1c-.15-.27-.31-.53-.47-.81a10.15,10.15,0,0,1-.58-1c-.06-.3-.25-.84-.38-1.45a3.37,3.37,0,0,1-.1-.74,1.77,1.77,0,0,1,.27-.64,1.67,1.67,0,0,1,.46-.49,1.91,1.91,0,0,1,.27-.16l.14-.06.34-.1a4.24,4.24,0,0,0,.33-.39,2.29,2.29,0,0,0,.2-.31,2.71,2.71,0,0,0,.25-.67,2.16,2.16,0,0,0-.18-1.47,2.52,2.52,0,0,0-2.57-1.24,4,4,0,0,0-2.63,1.07A4.62,4.62,0,0,0,21.35,23a6.68,6.68,0,0,0-.31.67l-.11.33a1.92,1.92,0,0,0-.09.41l0,.45A11.27,11.27,0,0,0,21.4,29l.27.6a.33.33,0,0,1,0-.21c.12.42.54,1.18.44,1.16l0-.09A9.61,9.61,0,0,0,22.94,32l-.08-.27c.15.23.31.45.47.67l-.15-.16a15.67,15.67,0,0,0,1.59,1.58l.1.07s0,0,0,0a.31.31,0,0,1,.23,0,.32.32,0,0,1-.1-.21s0,0,0,0l-.1-.07A13.63,13.63,0,0,1,21.63,31c.31.25-.39-.43-.31-.53-.25-.69-.69-1.23-.89-1.8l0,0-.26-1c.15.29.06.07,0-.05s0-.05,0-.09l0-.15c0-.07,0,0,0,.18a1.61,1.61,0,0,0-.73-1.43,1.43,1.43,0,0,0-.92-.23,1.51,1.51,0,0,0-.86.41,1.63,1.63,0,0,0-.47.8c0,.22-.08.45-.13.68a8.21,8.21,0,0,0-.11,1.41,8,8,0,0,0,.55,2.81,7.7,7.7,0,0,0,.63,1.29c.12.2.25.4.39.59l.14.19.16.13.25.21-.1-.12c.68.57,1.54,1.25,2,1.72a7.81,7.81,0,0,0,1.4,1c.61.4,1.07.89.83.69a17.67,17.67,0,0,1,2.06,1.51,13.31,13.31,0,0,1,.93,1.19,3.06,3.06,0,0,1,.54,1.18h0a16,16,0,0,1,.84,4l0-.08a29.64,29.64,0,0,1,.52,3l.41-.87a26.85,26.85,0,0,0,.15-2.71,16,16,0,0,0-.87-3.61,7.18,7.18,0,0,0-2.21-3.17c-1.48-1.19-3-2.34-4.38-3.61l-1.32-1.1-.29-.24-.18-.25a7.23,7.23,0,0,1-.4-.66,6.62,6.62,0,0,1-.64-4.55c0-.06,0-.11.05-.26s0-.05,0-.08a.35.35,0,0,1,.08-.13.21.21,0,0,1,.17-.1.3.3,0,0,1,.19.12.37.37,0,0,1,.07.14.15.15,0,0,1,0,.07s0,0,0,.06v.18l.25,1a7.76,7.76,0,0,0,.28.9c.16.31.33.62.51.92a7.06,7.06,0,0,0,1.81,2.43,13,13,0,0,0,2.62,1.81l-.12-.09a1.16,1.16,0,0,0,.77.29,1,1,0,0,0,.89-.47,1.14,1.14,0,0,0-.48-1.56l.12.09a8.74,8.74,0,0,1-1.17-1.28h-.1a2.73,2.73,0,0,1-.49-.77,10.05,10.05,0,0,1-1.51-3.64,9.37,9.37,0,0,1-.2-2v-.49l0-.43a3.71,3.71,0,0,1,.32-.8,3.28,3.28,0,0,1,2.85-1.7,1.21,1.21,0,0,1,1.1.66.87.87,0,0,1,0,.6,1.38,1.38,0,0,1-.25.47l0,0-.22.08a3.17,3.17,0,0,0-.41.21,3,3,0,0,0-.7.59,2.91,2.91,0,0,0-.5.77,3.16,3.16,0,0,0-.16.43,3.27,3.27,0,0,0-.1.51,8.55,8.55,0,0,0,.86,3.08c.19.33.48.83.8,1.42l.16.31c.07.13.15.26.23.38a2.33,2.33,0,0,0,.5.56,2.51,2.51,0,0,0,.83.4,1.36,1.36,0,0,0,1.1-.25,1.2,1.2,0,0,0,.4-.94,2.33,2.33,0,0,0-.13-.64,6.89,6.89,0,0,1-.31-.77,7.67,7.67,0,0,1-.24-.81,7.28,7.28,0,0,1,0-3.15v.08a5.86,5.86,0,0,1,.23-.94s0,0,0,0A4.34,4.34,0,0,1,31,22l-.07,0a2.84,2.84,0,0,1,2.92.32,2.48,2.48,0,0,1,.3.25l.13.13s0,0,0,0a.7.7,0,0,1,0,.41.6.6,0,0,1-.72.37,3.4,3.4,0,0,0-3.16,1.11c-.11.16-.4.41-.37.71L30,25.9l-.23,1.86a2.59,2.59,0,0,0,0,.62,2.86,2.86,0,0,0,.2.67,1.55,1.55,0,0,0,1,1.05,1.06,1.06,0,0,0,.87-.27,3.3,3.3,0,0,0,.62-.81c.22-.37.41-.71.62-1a5.31,5.31,0,0,1,1.51-1.58,4.89,4.89,0,0,1,2.05-.73l.18,0a1.2,1.2,0,0,0,.23-.06l.23-.05a1.71,1.71,0,0,1,.45,0,1.49,1.49,0,0,1,.8.29,1.28,1.28,0,0,1,.29.36,1.47,1.47,0,0,1,.1.22l0,.12,0,.22.1.21,0,.12a2.58,2.58,0,0,1,.08.26,2.35,2.35,0,0,1,.09.53,2.62,2.62,0,0,1-.14,1.07c-.07.64-1.11,1.1-1,.88l-1.08-1c-.19-.17-.37-.34-.61-.52a1.4,1.4,0,0,0-.6-.29,1.65,1.65,0,0,0-.7,0,3.38,3.38,0,0,0-1.53,1.11,13.31,13.31,0,0,0-1,1.27,7.38,7.38,0,0,0-.92,1.88c-.09.25-.17.53-.25.82s-.12.54-.19.89a6.83,6.83,0,0,0,0,2.07,6.19,6.19,0,0,0,1.76,3.49A5.72,5.72,0,0,0,34.89,40.75Z"/><path class="cls-3" d="M39.84,42.25l0,0S39.81,42.24,39.84,42.25Z"/><polygon class="cls-3" points="32.41 35.88 32.42 35.93 32.44 35.72 32.41 35.88"/><path class="cls-3" d="M40.25,37.13c-.61.2-.67.35-.56.27A3,3,0,0,1,40.25,37.13Z"/><path class="cls-3" d="M37.42,46.21c-.08.29,0,.18,0,0s.15-.5.15-.5C37.54,45.89,37.48,46,37.42,46.21Z"/><path class="cls-3" d="M38.27,45.23v.1C38.32,45.17,38.31,45.17,38.27,45.23Z"/><path class="cls-4" d="M41.7,26v-4.2"/><path class="cls-5" d="M46.77,26.63l2.92-3"/><path class="cls-5" d="M49.58,31.11h3"/><path class="cls-6" d="M40.46,32.15,36.52,35.6l4.93-.25-.25,3.46,3.45-3,4.93.74c-1-1.15-2-2.3-2.95-3.46l2.71-4.43-4,1.72-1-5.42-2.22,5.42-3-1.23Z"/><path class="cls-5" d="M45.79,42.76l-.22-3.46"/><path class="cls-5" d="M52.14,39.52,50,37.2"/></g></g></svg>