<svg xmlns="http://www.w3.org/2000/svg" viewBox="0 0 399.55 76.46"><defs><style>.cls-1{fill:#ee967f;}.cls-2{fill:#f2c10e;}.cls-3{fill:#e5dbcc;}.cls-4{opacity:0.39;}.cls-5{fill:#e8dfd1;}</style></defs><g id="圖層_2" data-name="圖層 2"><g id="圖層_1-2" data-name="圖層 1"><path class="cls-1" d="M.43,35.38C.34,32.29.19,29.18,0,26.06c2.16.05,4.29.12,6.41.22s4.25.14,6.41.14c3.55,0,6.7,0,9.47-.11s4.61-.15,5.58-.25a12.47,12.47,0,0,0-.29,3,16.8,16.8,0,0,0,.07,1.8c.05.44.12.92.22,1.44-1.4-.09-2.92-.19-4.58-.28l-4.82-.29c-1.56-.1-3-.17-4.21-.22s-2.14-.07-2.67-.07q-.29,4-.32,7.85t0,7.85q4.68-.07,8.46-.22t7.89-.36c-.15.82-.24,1.44-.29,1.87a12,12,0,0,0-.07,1.37,7.08,7.08,0,0,0,.1,1.19c.08.41.16,1,.26,1.76-5.48-.43-10.92-.65-16.35-.65V55.8q0,6,.15,10.62c.09,3.09.24,6.13.43,9.1a24.5,24.5,0,0,0-2.67-.14H2.66A24.31,24.31,0,0,0,0,75.52c.19-3,.34-6,.43-9.1S.58,59.78.58,55.8V46Q.58,40,.43,35.38Z"/><path class="cls-1" d="M56.81,70.34a14.22,14.22,0,0,1-4.72,4.57,12.16,12.16,0,0,1-6.15,1.55c-3.6,0-6.38-1-8.32-3s-2.91-5.36-2.91-10c0-2.45,0-4.61.14-6.48S35,53.2,35,51.33c0-1.53,0-3.2-.11-5s-.15-3.61-.25-5.44c.63.1,1.42.18,2.38.25s2,.11,3,.11,2.07,0,3-.11,1.75-.15,2.37-.25c-.33,2.59-.55,5.59-.64,9s-.15,7.3-.15,11.67q0,4.53,1.55,6.66a5.48,5.48,0,0,0,9.11-.69,16.64,16.64,0,0,0,1.51-7.77V56.88q0-4.4-.11-8.25t-.47-7.74a32.19,32.19,0,0,0,5.4.36c1.11,0,2.11,0,3-.11s1.7-.15,2.37-.25c-.24,2.59-.39,5.17-.47,7.74s-.1,5.32-.1,8.25v2.88q0,4.38.1,8.28c.08,2.59.23,5.08.47,7.48a24.51,24.51,0,0,0-2.55-.14H59.37c-.85,0-1.75.05-2.71.14L57,70.34Z"/><path class="cls-1" d="M84.89,46.29a15.43,15.43,0,0,1,4.71-4.68A11.59,11.59,0,0,1,95.76,40q5.4,0,8.32,3.13T107,53.2q0,3.67-.14,6.48c-.1,1.88-.15,3.75-.15,5.62,0,1.54,0,3.2.11,5s.16,3.54.25,5.22a16.93,16.93,0,0,0-2.37-.14h-6a17.19,17.19,0,0,0-2.38.14,84.92,84.92,0,0,0,.65-8.82c.1-3.38.14-7.26.14-11.62q0-4.55-1.54-6.66a5.09,5.09,0,0,0-4.36-2.13A5,5,0,0,0,86.4,49.1a16.53,16.53,0,0,0-1.51,7.78v2.88c0,2.92,0,5.68.11,8.28s.22,5.08.46,7.48a16.66,16.66,0,0,0-2.34-.14H77a18.26,18.26,0,0,0-2.38.14q.36-3.6.47-7.48t.11-8.28V56.88q0-4.4-.11-8.25t-.47-7.74c.87.1,1.72.18,2.56.25s1.69.11,2.56.11,1.71,0,2.55-.11,1.74-.15,2.7-.25l-.29,5.4Z"/><path class="cls-1" d="M125.75,34a19.79,19.79,0,0,0-.18-2.52c-.72,0-1.61,0-2.67.07l-3.38.18c-1.2.07-2.42.17-3.67.29s-2.4.25-3.46.4c.1-.53.18-1.06.25-1.59a10.49,10.49,0,0,0,.11-1.58,10.62,10.62,0,0,0-.11-1.59c-.07-.52-.15-1.05-.25-1.58l4.43.14c1.32.05,2.66.09,4,.11l4.47.07c1.6,0,3.54,0,5.79,0s4.19,0,5.8,0l4.43-.07c1.34,0,2.65-.06,3.92-.11l4.14-.14c-.1.53-.18,1.06-.25,1.58a12.14,12.14,0,0,0-.11,1.59,12,12,0,0,0,.11,1.58c.07.53.15,1.06.25,1.59-1-.15-2-.28-3.24-.4s-2.39-.22-3.56-.29l-3.35-.18c-1.06-.05-1.95-.07-2.67-.07a8.73,8.73,0,0,0-.1,1c0,.43,0,.93,0,1.51V55.8q0,6,.14,10.62c.1,3.09.24,6.13.44,9.1a24.5,24.5,0,0,0-2.67-.14h-6.48a24.31,24.31,0,0,0-2.66.14c.19-3,.33-6,.43-9.1s.15-6.64.15-10.62v-18C125.79,36.4,125.77,35.13,125.75,34Z"/><path class="cls-1" d="M159.77,49.82a18,18,0,0,1,4.54-7.31,9.25,9.25,0,0,1,6.33-2.34,3.52,3.52,0,0,1,.61,0,4.63,4.63,0,0,0,.54,0,21.82,21.82,0,0,0-.32,2.31c-.07.81-.11,1.77-.11,2.88V49a9.43,9.43,0,0,0,.07,1.22l-.64.58a7.72,7.72,0,0,0-1.62-.72,6.57,6.57,0,0,0-2.06-.29A6.48,6.48,0,0,0,162,51.87a7.33,7.33,0,0,0-1.87,5v2.88q0,4.38.11,8.28c.07,2.59.22,5.08.47,7.48a16.87,16.87,0,0,0-2.34-.14h-6.09a18,18,0,0,0-2.37.14q.36-3.6.46-7.48c.08-2.6.11-5.36.11-8.28V56.88c0-2.93,0-5.68-.11-8.25s-.22-5.15-.46-7.74c.81.1,1.64.18,2.48.25s1.67.11,2.48.11,1.65,0,2.49-.11,1.67-.15,2.48-.25l-.22,8.79Z"/><path class="cls-1" d="M176.9,45a23.09,23.09,0,0,1,6.52-3.75,19.93,19.93,0,0,1,7-1.29,20.45,20.45,0,0,1,5.29.64,11.45,11.45,0,0,1,4.18,2.06,9.28,9.28,0,0,1,2.73,3.63,13.47,13.47,0,0,1,1,5.4c0,3.07,0,5.92-.1,8.53s-.11,5.22-.11,7.82a11.22,11.22,0,0,0,.25,2.7,3.14,3.14,0,0,0,.76,1.47,2.39,2.39,0,0,0,1.33.65,10.88,10.88,0,0,0,1.91.14v1.73c-1.4.58-2.57,1-3.53,1.3a10.66,10.66,0,0,1-3.1.43,6.8,6.8,0,0,1-4.32-1.3,8,8,0,0,1-2.52-3.74,13.51,13.51,0,0,1-3.85,3.67,10.28,10.28,0,0,1-5.51,1.37,13.54,13.54,0,0,1-4.68-.72,8.14,8.14,0,0,1-5-5.08,10.58,10.58,0,0,1-.57-3.42,10.24,10.24,0,0,1,.75-4.1,8.36,8.36,0,0,1,2.16-3,12.36,12.36,0,0,1,3.35-2,27,27,0,0,1,4.39-1.41c2-.48,3.61-.9,4.79-1.26a11.61,11.61,0,0,0,2.63-1.08,2.48,2.48,0,0,0,1.11-1.19,4.32,4.32,0,0,0,.26-1.58,6,6,0,0,0-1.84-4.43A6.88,6.88,0,0,0,187,45.36a10.24,10.24,0,0,0-2.52.32,13.35,13.35,0,0,0-2.48.9,14.94,14.94,0,0,0-2.16,1.26,5.47,5.47,0,0,0-1.48,1.48h-.5ZM194,64.58c0-2.06,0-3.64,0-4.72s0-2,0-2.84a16.6,16.6,0,0,1-3.2,1.4,15.32,15.32,0,0,0-3.1,1.37,6.66,6.66,0,0,0-2.3,2.27,7.94,7.94,0,0,0-.9,4.18,6.42,6.42,0,0,0,1.11,4.06,3.62,3.62,0,0,0,3,1.41,4.74,4.74,0,0,0,3.85-1.8A8.22,8.22,0,0,0,194,64.58Z"/><path class="cls-1" d="M231.3,53.49q2.12-6.26,4.21-12.6c.53.1,1,.18,1.51.25a9.48,9.48,0,0,0,2.88,0l1.59-.25c-.77,1.87-1.71,4-2.81,6.52s-2.27,5.18-3.49,8.13-2.48,6.12-3.74,9.51-2.47,6.87-3.57,10.47a14.64,14.64,0,0,0-1.94-.14h-3.89a14.79,14.79,0,0,0-2,.14q-1.44-4.09-3.2-9.07t-3.49-9.75c-1.15-3.2-2.23-6.18-3.24-9s-1.85-5.06-2.52-6.84c1,.1,2,.18,2.91.25s1.86.11,2.78.11,1.81,0,2.7-.11,1.78-.15,2.7-.25q1.94,6.34,3.92,12.6t4.07,12.6h.14Q229.18,59.76,231.3,53.49Z"/><path class="cls-1" d="M254.74,58.32a24.44,24.44,0,0,0,.57,5.4,13.59,13.59,0,0,0,1.77,4.35,8.57,8.57,0,0,0,3,2.88,8.46,8.46,0,0,0,4.28,1,13.44,13.44,0,0,0,8.86-3.24l.87.64-1.59,4a14.61,14.61,0,0,1-4.32,2.19,21.81,21.81,0,0,1-6.62.83,22.62,22.62,0,0,1-6.7-1,14.32,14.32,0,0,1-5.58-3.21,15.63,15.63,0,0,1-3.82-5.65,21.58,21.58,0,0,1-1.4-8.17,23.8,23.8,0,0,1,1.26-8.14,16.08,16.08,0,0,1,3.49-5.76,14.36,14.36,0,0,1,5.29-3.45A18.73,18.73,0,0,1,260.79,40q7.13,0,10.9,4.17t3.78,11.81v1.51a3.33,3.33,0,0,1-.07.87Zm11.08-3.24a27.49,27.49,0,0,0-1.33-8.64q-1.19-3.24-4-3.24a3.63,3.63,0,0,0-2.67,1.08,7.73,7.73,0,0,0-1.72,2.77,18.26,18.26,0,0,0-1,3.81,38,38,0,0,0-.39,4.22Z"/><path class="cls-1" d="M282.74,33.19q-.14-5.91-.43-11.95c.63.09,1.42.18,2.38.25s2,.11,3,.11,2.07,0,3-.11,1.75-.16,2.37-.25q-.28,6-.43,12t-.14,13v4.68q0,7.05.14,13c.1,3.93.24,7.85.43,11.73a16.93,16.93,0,0,0-2.37-.14h-6.05a17.19,17.19,0,0,0-2.38.14c.19-3.88.34-7.8.43-11.73s.15-8.26.15-13V46.15Q282.89,39.08,282.74,33.19Z"/><path class="cls-1" d="M310.75,58.32a23.84,23.84,0,0,0,.58,5.4,13.36,13.36,0,0,0,1.76,4.35A8.36,8.36,0,0,0,320.4,72a13.48,13.48,0,0,0,8.86-3.24l.86.64-1.58,4a14.61,14.61,0,0,1-4.32,2.19,21.83,21.83,0,0,1-6.63.83,22.6,22.6,0,0,1-6.69-1,14.17,14.17,0,0,1-5.58-3.21,15.63,15.63,0,0,1-3.82-5.65,21.38,21.38,0,0,1-1.4-8.17,23.8,23.8,0,0,1,1.26-8.14,16.08,16.08,0,0,1,3.49-5.76,14.36,14.36,0,0,1,5.29-3.45A18.71,18.71,0,0,1,316.8,40q7.13,0,10.91,4.17t3.78,11.81v1.51a3.86,3.86,0,0,1-.07.87Zm11.09-3.24a28.08,28.08,0,0,0-1.33-8.64c-.79-2.16-2.13-3.24-4-3.24a3.62,3.62,0,0,0-2.66,1.08,7.75,7.75,0,0,0-1.73,2.77,18.92,18.92,0,0,0-1,3.81,35.82,35.82,0,0,0-.4,4.22Z"/><path class="cls-1" d="M347.9,49.82a18,18,0,0,1,4.54-7.31,9.3,9.3,0,0,1,6.34-2.34,3.59,3.59,0,0,1,.61,0,4.63,4.63,0,0,0,.54,0,21.82,21.82,0,0,0-.32,2.31c-.08.81-.11,1.77-.11,2.88V49a9.43,9.43,0,0,0,.07,1.22l-.65.58A7.5,7.5,0,0,0,357.3,50a7.26,7.26,0,0,0-7.16,1.83,7.33,7.33,0,0,0-1.87,5v2.88q0,4.38.1,8.28c.08,2.59.23,5.08.47,7.48a16.66,16.66,0,0,0-2.34-.14h-6.08a18,18,0,0,0-2.38.14q.36-3.6.47-7.48t.11-8.28V56.88q0-4.4-.11-8.25T338,40.89c.82.1,1.64.18,2.49.25s1.66.11,2.48.11,1.64,0,2.48-.11,1.67-.15,2.49-.25l-.22,8.79Z"/><circle class="cls-2" cx="377.66" cy="24.88" r="12.31"/><path class="cls-3" d="M383.33,4.24,381.6,1.72c-.53-.57-.59-1.28-.34-1.55s1.11-.25,1.72.43l2.18,1.94q6.21-1.74,6.42-1.17c.13.34-1.44,1.35-4.72,3l2.36,3.27c2.26.06,2.79.26,2.82.46s-1.27.39-2.36,1.51c-.92.93-1.06,1.94-1.31,1.89S388,11,388.11,9L385,6.08c-1.89,2.92-3,4.29-3.34,4.12S381.87,8,383.33,4.24Z"/><g class="cls-4"><path class="cls-5" d="M388.06,43.28c-.06,0,.07.19.08.23S388,43.23,388.06,43.28Z"/><polygon class="cls-5" points="388.61 42.39 388.64 42.48 388.64 42.22 388.61 42.39"/><path class="cls-5" d="M389.32,42c-.27-.27-.22.22-.42.18l-.06-.06.1.3C389.07,42.23,389.16,41.93,389.32,42Z"/><path class="cls-5" d="M390.15,42.39c-.11-.11,0-.16-.11,0l0,0Z"/><path class="cls-5" d="M390.07,42.43c-.07.06.12.07,0,0Z"/><path class="cls-5" d="M390.37,42.12l0,.18c.07.05.16,0,.17.08C390.58,42.25,390.51,42.2,390.37,42.12Z"/><path class="cls-5" d="M390.3,41.83v.08S390.34,41.94,390.3,41.83Z"/><path class="cls-5" d="M390.25,42.08l0-.17c-.05,0-.12-.14,0,.07C390.21,41.88,390.25,42,390.25,42.08Z"/><path class="cls-5" d="M390.15,42.08c-.1,0-.2,0-.17-.2C389.82,42.05,390,42.25,390.15,42.08Z"/><path class="cls-5" d="M389.15,41.6l-.14,0v.14C389,41.63,389.21,41.7,389.15,41.6Z"/><path class="cls-5" d="M391.09,41.85a2.49,2.49,0,0,0-.23-.23v.13A.31.31,0,0,1,391.09,41.85Z"/><path class="cls-5" d="M390.86,41.62l0-.19C390.78,41.49,390.8,41.55,390.86,41.62Z"/><polygon class="cls-5" points="390.08 41.48 390.07 41.84 390.11 41.45 390.08 41.48"/><polygon class="cls-5" points="391.5 41.55 391.55 41.74 391.49 41.44 391.5 41.55"/><path class="cls-5" d="M391.74,41.32c.06.15.23.15.24.26a.64.64,0,0,0,0-.37C392,41.31,391.9,41.35,391.74,41.32Z"/><path class="cls-5" d="M392,41a1.83,1.83,0,0,0,0,.21A.41.41,0,0,0,392,41Z"/><path class="cls-5" d="M391.08,41.33a.42.42,0,0,0,.23.12l-.18-.15Z"/><path class="cls-5" d="M391.12,41.3h0l.09-.06Z"/><path class="cls-5" d="M391.07,41.34h0S391.06,41.31,391.07,41.34Z"/><path class="cls-5" d="M390.48,41.45c0-.15,0-.35-.21-.42C390.32,41.19,390.46,41.23,390.48,41.45Z"/><path class="cls-5" d="M390.85,41.15l-.14,0c0,.05.11.1.12.17Z"/><polygon class="cls-5" points="390.86 41.05 390.85 41.15 390.9 41.13 390.86 41.05"/><path class="cls-5" d="M391.65,41a.26.26,0,0,1,.08-.22.54.54,0,0,0-.23.1C391.54,40.93,391.59,41.05,391.65,41Z"/><path class="cls-5" d="M391.39,41.13v0S391.36,41.1,391.39,41.13Z"/><polygon class="cls-5" points="392.29 40.31 392.25 40.28 392.28 40.31 392.29 40.31"/><path class="cls-5" d="M391.47,40.84c-.07,0-.07.07-.05.15a.36.36,0,0,1,.08-.12S391.48,40.82,391.47,40.84Z"/><path class="cls-5" d="M392.06,40.79l-.16,0C392,40.8,392.09,40.84,392.06,40.79Z"/><path class="cls-5" d="M391.44,41.15h0C391.49,41.19,391.47,41.17,391.44,41.15Z"/><path class="cls-5" d="M391.44,41.15a.44.44,0,0,0,0-.16.27.27,0,0,0,0,.12Z"/><path class="cls-5" d="M391.49,39.07c.13.17.15.41-.09.33,0,.2.52.67.85.88a.37.37,0,0,1-.09-.32c-.11-.05-.39,0-.43-.22s.15,0,.29,0c-.23-.15-.09-.44-.37-.7l0,.21C391.58,39.19,391.56,39.09,391.49,39.07Z"/><path class="cls-5" d="M392,40.43l0,.06a.73.73,0,0,1,.33.09.38.38,0,0,0-.07-.27l-.23.16Z"/><path class="cls-5" d="M391.82,40.65c-.11-.2-.07-.36-.29-.5-.11.12,0,.22,0,.36.17-.21,0,.14.25.12a.26.26,0,0,1-.07.14h.16s0,0,0,0h0l-.05-.08c.09,0,.05,0,.05.08l0,0h0l.13-.27C392,40.5,391.9,40.55,391.82,40.65Z"/><path class="cls-5" d="M390.09,40.56l0,0S390.12,40.54,390.09,40.56Z"/><path class="cls-5" d="M390.26,40.6s0,.12,0,.14-.06-.09-.11-.15,0,.21.15.23v0a.78.78,0,0,1,.41.18A3,3,0,0,0,390.26,40.6Z"/><path class="cls-5" d="M391,40.59l.1-.22-.21-.08.08.09C390.85,40.42,391,40.51,391,40.59Z"/><polygon class="cls-5" points="392.38 40.37 392.52 40.58 392.39 40.23 392.38 40.37"/><polygon class="cls-5" points="392.58 40.16 392.71 40.32 392.68 40.17 392.58 40.16"/><path class="cls-5" d="M396.88,25.59l-.05-.06A.1.1,0,0,0,396.88,25.59Z"/><path class="cls-5" d="M396.86,26l.1,0S396.86,26,396.86,26Z"/><path class="cls-5" d="M397.05,34.6c.22,0,.54.06.33,0l-.22-.08A.11.11,0,0,1,397.05,34.6Z"/><path class="cls-5" d="M397.55,29.68h-.07l.19.12Z"/><path class="cls-5" d="M396.65,29.39l.16-.07A.56.56,0,0,0,396.65,29.39Z"/><path class="cls-5" d="M396.56,23.33l-.24,0C396.33,23.39,396.44,23.33,396.56,23.33Z"/><path class="cls-5" d="M394.6,38a.38.38,0,0,0,.25-.06C394.68,37.91,394.48,37.84,394.6,38Z"/><path class="cls-5" d="M399.31,25.84a.2.2,0,0,0-.14-.06A.18.18,0,0,0,399.31,25.84Z"/><path class="cls-5" d="M395,37.73h-.07a.27.27,0,0,1-.08.19C395,37.93,395.07,37.9,395,37.73Z"/><path class="cls-5" d="M393.7,16a0,0,0,0,1,0,0S393.69,16,393.7,16Z"/><path class="cls-5" d="M393.54,12.59a.28.28,0,0,1,.09.07S393.61,12.61,393.54,12.59Z"/><path class="cls-5" d="M393.5,39.43s0,0,0,0Z"/><path class="cls-5" d="M392.66,39a.37.37,0,0,0-.06-.1Z"/><path class="cls-5" d="M394.26,36.37Z"/><path class="cls-5" d="M393.36,39.42h0Z"/><path class="cls-5" d="M393.45,39.49l-.06,0S393.44,39.56,393.45,39.49Z"/><path class="cls-5" d="M393.55,39.36a.14.14,0,0,1-.08,0l0,0Z"/><path class="cls-5" d="M396.51,19.4h0C396.42,19.37,396.44,19.38,396.51,19.4Z"/><polygon class="cls-5" points="395.61 32.17 395.62 32.19 395.63 32.18 395.61 32.17"/><path class="cls-5" d="M395.54,31.93c.23.19.17.22.09.25l.63.21Z"/><path class="cls-5" d="M396.82,24.59l-.21.14c-.34-.16-.22-.27-.51-.14.72,0,.08.51.8.53l-.15.09s0,0,0-.06c-.34.18.52.14.41.37a.19.19,0,0,1-.25.07l.18.18c0,.05-.14,0-.13,0L397,26h0a2.81,2.81,0,0,1,.35.18c-.11.07-.07,0-.16,0l.16.16c-.19,0-.36-.09-.33-.19-.72.1.17.14-.27.41l-.08-.15c-.41.06-.27.18-.53.31.13,0,.66-.26.82-.08-.05,0-.08.09.05.19-.25,0-.19.07-.19.18l-.34,0c.09.12.26.13.4.21,0,.13-.31.12-.53.12-.08.2.43-.09.47.16-.15.15,0,.29.13.52-.13.1-.2,0-.3,0l.25.14s-.09,0-.13,0,.33.06.4.21c.35.11-.58.2-.21.44-.1,0-.2-.06-.33-.07a2.09,2.09,0,0,0,.48.52l-.26.11c.28-.06.54.16.74.36a1.44,1.44,0,0,0,.3,0,1.36,1.36,0,0,1,.11.28.62.62,0,0,1-.29-.11l.07.06c-.15.05-.32-.05-.49-.15l.23,0a2,2,0,0,0-.59-.24.13.13,0,0,1,.07.09.31.31,0,0,0-.13-.05s0,0,.1.09l-.38,0,.14.05-.31.21c.31.3.79.64.84,1a2.52,2.52,0,0,0-.73-.27c.36,0-.07-.29.05-.43-.06.08-.21,0-.25,0l.21.38c-.25-.09-.21,0-.33,0,.51.11.28.33.37.5-.17-.05-.32-.14-.24-.27-.42,0,.51.41.14.45,0,0,0,0,0-.09.12.14-.08.29-.21.19v0c-.14.2-.27.69.13.9-.06,0-.49-.24-.57-.29.42.33.81.67,1.2,1-.33-.19-1.23-.44-1.34-.71-.08,0-.17.06-.1.23.07,0,.55.14.56.21a3,3,0,0,0-.67,0c.11,0,.62.31.56.39a6.29,6.29,0,0,1-.58-.32l.43.48a1.48,1.48,0,0,0-.62-.27c.11,0-.1.18-.07.26l.16,0c-.19.19.61.63.45.85-.09-.09-.62-.44-.75-.36.23.2,1.13,1,1.2,1.32l-.18-.05.07.27c-.32-.35-1-1.13-1.22-1.46-.17,0-.19-.08-.25.05a.19.19,0,0,1-.16-.23l-.26.23c.31.17.17.41.43.56l-.13-.52c.31.17.75.71.57.9-.15,0-.51-.38-.61-.44.09.1.06.32,0,.29l-.1-.18c-.19,0,.27.44-.11.38-.05,0-.47-.12-.3,0a8.45,8.45,0,0,1,1.64,1.07,2.12,2.12,0,0,1-.7,0c-.31-.1-.53-.55-.8-.65a.66.66,0,0,1,.16.22c-.1,0-.23-.2-.27-.07.28.23-.17.2.22.23,0,.17-.15.07-.22.2a1.38,1.38,0,0,1,.54.75.93.93,0,0,0-.23-.13c-.2.19-.42.2-.57.4-.08,0-.24,0-.33-.15,0,.06.1.17.06.23-.34-.09.07-.16-.29-.32.16.15.09.34.12.51.26.18.21-.15.19-.32A1.41,1.41,0,0,1,394,37.8c-.06.23-.27-.12-.25,0-.33.24.34.79-.13.81-.3-.1-.41-.38-.58-.5.05-.2.31-.07.38-.17l-.19,0c0-.11,0-.24.09-.23-.25-.09-.49.46-.87.5,0,.11,0,.24.14.29l0-.09c.22.09.09.35.25.34,0,.21.09.5-.13.54l-.25-.21c.07.06.22.05.19-.06,0,.16-.51-.12-.28.25l.25.07c0,.21.12.58-.08.62.28.18,0-.06.35.14-.39-.27.34-.28-.12-.53.39.24.28,0,.66.14-.08-.07-.19-.1-.05-.17l0-.09h0s0,0,0,0a.37.37,0,0,1-.16-.07c-.12-.22,0-.38,0-.52s.07.11.18.16l-.05-.22c.17.16.44.12.39.36l.14-.12c.17,0,.32,0,.3-.19s0-.34,0-.16l.08-.31.05,0c.21-.2.09-.68.62-.66a.35.35,0,0,1,.17-.32l.18.11c0-.14.39-.16.25-.34.53.24.47-.4.66-.52l-.21-.17a.89.89,0,0,0,.13-.48l-.21-.13c-.07-.23.38-.23.49-.46.06.06,0,.11-.06.12.61,0,0-.75.46-.78,0-.1,0-.13.08-.14s0,0,0,0a0,0,0,0,0,0,0l.16,0h-.15a.4.4,0,0,0,0-.23l.24.1v0c.13,0-.07-.11-.26-.17a.6.6,0,0,0-.08-.16c.39.14,0-.24.39-.12-.17-.14,0-.42-.36-.65,0,0,.09,0,.07,0s.17-.1.09-.22l.3.1-.31-.35a.53.53,0,0,1,.53.19c-.23-.4,0-.25-.3-.62l.19.1c0-.08-.19-.31,0-.29.43,0,.4-.81.88-1.15-.61-.1.32-.12-.13-.29.15,0,.25,0,.35.09-.07-.27.32-.29,0-.56.15,0,.19.11.29.11s-.1-.11,0-.11.1.06.15.12c.05-.25-.38-.39-.78-.51.23-.07.22-.14,0-.29.14,0,.29-.05.31.11,0-.07.31-.47,0-.55.09,0,0-.11,0-.14s.1-.19.09-.38l-.06,0c-.39-.15-.06-.17-.09-.33l0,0c.35-.3-.11-.17.28-.46h-.26c-.53-.11.36-.26.18-.48l-.15.05c-.18-.12.77-.21.85-.32s.07,0,.1.08c.35-.25-.32-.07-.38-.29.18,0,.45.1.49-.05s-.54-.47-.19-.64c-.14,0-.28.07-.37,0s.53-.39.1-.54a.23.23,0,0,1,.11,0c-.11-.12-.17-.39-.41-.46.88-.11-.43-.71.38-.72l-.06-.35h.09c0-.23-.16-.3-.36-.37.05-.05.13,0,.17,0,.14-.34.11-.38-.32-.62l.26,0c-.16-.06.36-.53,0-.82a.27.27,0,0,1,.12,0c-.36-.31.58-1-.39-1l-.28-.2c0,.32-.41,0-.54.2-.08-.11.22-.37.29-.23l0,0c.5,0,.1-.41.43-.48-.17-.6-.08-1.26-.25-1.84l-.35.2a1.18,1.18,0,0,0,0-.2c.06-.09.25-.18.29,0,.18-.15-.26-.17-.34-.14,0-.33.46-.06.44-.15l-.07-.1,0,0c-.18,0-.34,0-.39-.15s.2-.14.2-.19,0,0,0-.07-.06-.17-.08-.26l-.24.22c-.18,0-.09-.22-.35,0,.42-.39-.25-1-.17-1.12-.28,0-.34-.18-.43-.36,0,.08-.3.28-.36.13.63-.34.09-.43.42-.84-.2.29-.36-.35-.63.09,0-.14.21-.16.28-.35-.42-.1-.33-.69-.67-1-.08.06-.14.21-.3.23l.21-.47c-.09,0-.45.3-.31,0-.05.07-.11.17-.17.15-.21-.9-1.38-.9-1.35-2.05-.05.2-.11.17-.18.12s-.16.16-.23.26v-.48c-.29.21-.27-.23-.53,0l.12,0c-.37.19-.46.77-.83,1.12.42-.22-.17.76.46.47,0,.11-.15.08-.21.19.2-.11.28-.09.32.07l-.05,0c.32.24.29.51.49.92l.16-.2c0,.1,0,.16,0,.24.35-.19-.17-.2.2-.43-.27.45.46.49.09,1,.1.1.19-.23.28-.12l-.09.13.17-.11c0,.09-.07.26-.17.35s-.07,0-.09,0c-.06.21.27.21.25.28l0-.17c.37.2.51.68,1,.78l.07-.1c.35.1,0,.26.28.45h0c.13,0,.23,0,.26.09-.16,0-.14.26-.33.26.35.12.23,0,.71,0l-.15.13c.19,0,.27-.07.4.05-.21,0-.22.23-.48.21-.22.46.59.23.1.63.55-.09.15-.38.29-.35.13-.15.42-.07.42.05s-.55.45-.45.68c0,0-.05,0-.05,0-.1.14.24.11.07.3.33-.06,0,.15.44,0l-.18-.19c.15.08.66,0,.52.33a.7.7,0,0,1-.29,0c-.09.11.12.1,0,.2-.39.12-.18-.24-.53-.26-.14.13.38.14-.07.24.58-.11,0,.25.48.28l-.24.06c.05,0,.18,0,.19.09H396c.31.05-.15.33,0,.4-.1-.25.27-.14.4-.31.44.24-.57.38-.35.71-.05,0,.09-.22.23-.18a.52.52,0,0,1-.22.28c.12.24.24-.1.42,0-.27.16.15.09.28.18l-.25.06c-.1.33.53,0,.4.27l-.37,0,.12.11-.29,0c.24.1.19.16.14.32.17-.07.46-.07.49.06-.13.12-.24,0-.18.17-.16,0-.36,0-.15-.14a1.93,1.93,0,0,0-.24,0c-.16.13,0,.25,0,.31a.08.08,0,0,1,.05-.08l.39.21a.28.28,0,0,1-.25,0c0,.05.16.07.19.14-.21,0-.42.05-.53-.05l.26.22c-.08,0-.22.16-.3.14-.11.15.43.29.29.5a.17.17,0,0,1,.12.06c0,.18-.27.35,0,.54l-.37.14c.1.16.46-.18.62.08s-.32.09-.41.16c.19.09.57.25.27.44C396.79,24.69,396.85,24.64,396.82,24.59Zm.11,2.05c-.05,0-.21-.13-.06-.15S397,26.58,396.93,26.64Zm.06,3.22c-.08-.05,0-.08.09-.11S397.06,29.83,397,29.86Zm-3.16,9v0C394,38.79,393.91,38.79,393.83,38.81Zm-.23.07a.27.27,0,0,0,.07.08c0-.06,0-.09.05-.12S393.61,38.79,393.6,38.88Zm4.28-20.69-.05.07C397.73,18.2,397.8,18.2,397.88,18.19Z"/><path class="cls-5" d="M396.75,29.43l.14,0A.14.14,0,0,0,396.75,29.43Z"/><polygon class="cls-5" points="396.6 23.34 396.6 23.33 396.56 23.33 396.6 23.34"/><path class="cls-5" d="M393.91,35.16a.38.38,0,0,1,.15,0C394,35.14,394,35.12,393.91,35.16Z"/><path class="cls-5" d="M393.12,40l.05-.14s-.09,0-.14,0S393.15,39.93,393.12,40Z"/><path class="cls-5" d="M391.23,39.53s0,0,0,.06l.08.09S391.32,39.52,391.23,39.53Z"/><path class="cls-5" d="M392.45,39.42c-.15-.15-.16,0-.2,0h0C392.44,39.7,392.45,39.56,392.45,39.42Z"/><path class="cls-5" d="M392.24,39.49s0,0-.06.06S392.22,39.54,392.24,39.49Z"/><path class="cls-5" d="M393.52,39.16c-.07,0,.17.21.1.17C393.77,39.56,393.59,38.89,393.52,39.16Z"/><polygon class="cls-5" points="391.92 38.95 392.12 39.12 392.01 38.93 391.92 38.95"/><path class="cls-5" d="M392.56,38.61l-.15,0a.12.12,0,0,1,0,.09C392.51,38.69,392.62,38.66,392.56,38.61Z"/><path class="cls-5" d="M392.45,38.75s-.07.06-.05.11A.38.38,0,0,0,392.45,38.75Z"/><polygon class="cls-5" points="392.01 38.76 392.08 38.77 392.16 38.72 392.01 38.76"/><path class="cls-5" d="M393.65,37.54l.05-.17c-.06-.07-.13-.08-.14,0S393.57,37.5,393.65,37.54Z"/><path class="cls-5" d="M392.81,37.39a.79.79,0,0,1,.19.09l-.24-.22Z"/><path class="cls-5" d="M393,37c-.06-.07-.05-.34-.16-.18C392.94,36.91,392.89,37.07,393,37Z"/><polygon class="cls-5" points="394.77 35.49 394.76 35.52 395.2 35.83 394.77 35.49"/><path class="cls-5" d="M394.72,33.16c-.2.08.27.19,0,.24.09.1.18,0,.25.05C395,33.29,395.05,33.28,394.72,33.16Z"/><path class="cls-5" d="M395,33.45l.05.08A.28.28,0,0,0,395,33.45Z"/><polygon class="cls-5" points="393.43 12.09 393.42 11.92 393.35 12.11 393.43 12.09"/><path class="cls-5" d="M393,12.22l.22-.27-.27.18S393,12.15,393,12.22Z"/><path class="cls-5" d="M396.22,26.88l.08,0c.09,0,.1,0,.12-.08Z"/><polygon class="cls-5" points="396.55 25.45 396.55 25.47 396.86 25.43 396.55 25.45"/><path class="cls-5" d="M396.14,24.24c0,.05.06.11.05.15S396.52,24.21,396.14,24.24Z"/></g></g></g></svg>