<svg xmlns="http://www.w3.org/2000/svg" viewBox="0 0 400.55 77.86"><defs><style>.cls-1{fill:#ed957f;}.cls-2{fill:#f1c00e;}.cls-3{opacity:0.39;}.cls-4{fill:#747b55;}.cls-5{fill:#646b41;}</style></defs><g id="圖層_2" data-name="圖層 2"><g id="圖層_1-2" data-name="圖層 1"><path class="cls-1" d="M.43,36.78C.34,33.69.19,30.58,0,27.46c2.16.05,4.29.12,6.41.21s4.25.15,6.41.15c3.55,0,6.7,0,9.47-.11s4.61-.15,5.58-.25a12.41,12.41,0,0,0-.29,3,16.8,16.8,0,0,0,.07,1.8c.05.43.12.91.22,1.44l-4.58-.29-4.82-.28c-1.56-.1-3-.17-4.21-.22s-2.14-.07-2.67-.07c-.19,2.64-.3,5.25-.32,7.85s0,5.2,0,7.84c3.12,0,5.94-.12,8.46-.21s5.15-.22,7.89-.36c-.15.81-.24,1.44-.29,1.87a12,12,0,0,0-.07,1.37,7.08,7.08,0,0,0,.1,1.19c.08.4.16,1,.26,1.76-5.48-.43-10.92-.65-16.35-.65v3.67q0,6,.15,10.62c.09,3.1.24,6.14.43,9.11a24.5,24.5,0,0,0-2.67-.14H2.66A24.31,24.31,0,0,0,0,76.92c.19-3,.34-6,.43-9.11s.15-6.63.15-10.62V47.4Q.58,41.43.43,36.78Z"/><path class="cls-1" d="M56.81,71.74a14.31,14.31,0,0,1-4.72,4.57,12.16,12.16,0,0,1-6.15,1.55c-3.6,0-6.38-1-8.32-3s-2.91-5.35-2.91-10c0-2.45,0-4.61.14-6.48S35,54.6,35,52.73c0-1.54,0-3.2-.11-5s-.15-3.61-.25-5.44c.63.1,1.42.18,2.38.25s2,.11,3,.11,2.07,0,3-.11,1.75-.15,2.37-.25c-.33,2.59-.55,5.59-.64,9s-.15,7.3-.15,11.66q0,4.55,1.55,6.66a5.47,5.47,0,0,0,9.11-.68,16.66,16.66,0,0,0,1.51-7.78V58.27q0-4.38-.11-8.24t-.47-7.74a32.19,32.19,0,0,0,5.4.36c1.11,0,2.11,0,3-.11s1.7-.15,2.37-.25c-.24,2.59-.39,5.17-.47,7.74s-.1,5.32-.1,8.24v2.88q0,4.4.1,8.28c.08,2.6.23,5.09.47,7.49a24.51,24.51,0,0,0-2.55-.14H59.37c-.85,0-1.75,0-2.71.14L57,71.74Z"/><path class="cls-1" d="M84.89,47.69A15.32,15.32,0,0,1,89.6,43a11.6,11.6,0,0,1,6.16-1.66q5.4,0,8.32,3.14C106,46.57,107,50,107,54.6q0,3.67-.14,6.48c-.1,1.87-.15,3.75-.15,5.62,0,1.53,0,3.2.11,5s.16,3.54.25,5.22a16.93,16.93,0,0,0-2.37-.14h-6a17.19,17.19,0,0,0-2.38.14,84.92,84.92,0,0,0,.65-8.82c.1-3.38.14-7.26.14-11.63q0-4.53-1.54-6.66a5.11,5.11,0,0,0-4.36-2.12A5,5,0,0,0,86.4,50.5a16.52,16.52,0,0,0-1.51,7.77v2.88c0,2.93,0,5.69.11,8.28s.22,5.09.46,7.49a16.66,16.66,0,0,0-2.34-.14H77a18.26,18.26,0,0,0-2.38.14c.24-2.4.4-4.89.47-7.49s.11-5.35.11-8.28V58.27q0-4.38-.11-8.24t-.47-7.74c.87.1,1.72.18,2.56.25s1.69.11,2.56.11,1.71,0,2.55-.11,1.74-.15,2.7-.25l-.29,5.4Z"/><path class="cls-1" d="M125.75,35.38a19.79,19.79,0,0,0-.18-2.52c-.72,0-1.61,0-2.67.07l-3.38.18c-1.2.07-2.42.17-3.67.29s-2.4.25-3.46.39c.1-.52.18-1,.25-1.58a10.49,10.49,0,0,0,.11-1.58,10.62,10.62,0,0,0-.11-1.59c-.07-.53-.15-1.05-.25-1.58l4.43.14c1.32,0,2.66.09,4,.11l4.47.07c1.6,0,3.54,0,5.79,0s4.19,0,5.8,0l4.43-.07c1.34,0,2.65-.06,3.92-.11l4.14-.14c-.1.53-.18,1.05-.25,1.58a12.14,12.14,0,0,0-.11,1.59,12,12,0,0,0,.11,1.58c.07.53.15,1.06.25,1.58q-1.44-.21-3.24-.39c-1.2-.12-2.39-.22-3.56-.29l-3.35-.18c-1.06,0-1.95-.07-2.67-.07a8.49,8.49,0,0,0-.1,1c0,.43,0,.93,0,1.51V57.19q0,6,.14,10.62c.1,3.1.24,6.14.44,9.11a24.5,24.5,0,0,0-2.67-.14h-6.48a24.31,24.31,0,0,0-2.66.14q.29-4.45.43-9.11t.15-10.62v-18C125.79,37.8,125.77,36.53,125.75,35.38Z"/><path class="cls-1" d="M159.77,51.22a18,18,0,0,1,4.54-7.31,9.25,9.25,0,0,1,6.33-2.34,3.52,3.52,0,0,1,.61,0,4.63,4.63,0,0,0,.54,0,21.82,21.82,0,0,0-.32,2.31c-.07.81-.11,1.77-.11,2.88v3.52a9.59,9.59,0,0,0,.07,1.23l-.64.57a8.91,8.91,0,0,0-1.62-.72,6.89,6.89,0,0,0-2.06-.28A6.45,6.45,0,0,0,162,53.27a7.31,7.31,0,0,0-1.87,5v2.88q0,4.4.11,8.28c.07,2.6.22,5.09.47,7.49a16.87,16.87,0,0,0-2.34-.14h-6.09a18,18,0,0,0-2.37.14c.24-2.4.39-4.89.46-7.49s.11-5.35.11-8.28V58.27c0-2.92,0-5.67-.11-8.24s-.22-5.15-.46-7.74c.81.1,1.64.18,2.48.25s1.67.11,2.48.11,1.65,0,2.49-.11,1.67-.15,2.48-.25l-.22,8.78Z"/><path class="cls-1" d="M176.9,46.39a23.06,23.06,0,0,1,6.52-3.74,20,20,0,0,1,7-1.3,20.44,20.44,0,0,1,5.29.65,11.43,11.43,0,0,1,4.18,2,9.39,9.39,0,0,1,2.73,3.64,13.47,13.47,0,0,1,1,5.4c0,3.07,0,5.92-.1,8.53s-.11,5.22-.11,7.81a11.11,11.11,0,0,0,.25,2.7,3.18,3.18,0,0,0,.76,1.48,2.39,2.39,0,0,0,1.33.65,11.93,11.93,0,0,0,1.91.14v1.73c-1.4.58-2.57,1-3.53,1.3a11,11,0,0,1-3.1.43,6.8,6.8,0,0,1-4.32-1.3,8,8,0,0,1-2.52-3.74,13.65,13.65,0,0,1-3.85,3.67,10.28,10.28,0,0,1-5.51,1.37,13.54,13.54,0,0,1-4.68-.72,8.41,8.41,0,0,1-3.2-2,8.32,8.32,0,0,1-1.84-3,10.67,10.67,0,0,1-.57-3.42,10.24,10.24,0,0,1,.75-4.1,8.36,8.36,0,0,1,2.16-3,12.64,12.64,0,0,1,3.35-2.06,27,27,0,0,1,4.39-1.4c2-.48,3.61-.9,4.79-1.26a11.61,11.61,0,0,0,2.63-1.08,2.53,2.53,0,0,0,1.11-1.19,3.88,3.88,0,0,0,.25-1.36,6.32,6.32,0,0,0-1-3.59,6.52,6.52,0,0,0-5.93-2.9,10.27,10.27,0,0,0-2.52.33A12.05,12.05,0,0,0,182,48a14.94,14.94,0,0,0-2.16,1.26,5.58,5.58,0,0,0-1.48,1.47h-.5ZM194,66c0-2.07,0-3.64,0-4.72s0-2,0-2.84a17.24,17.24,0,0,1-3.2,1.4,15.32,15.32,0,0,0-3.1,1.37,6.66,6.66,0,0,0-2.3,2.27,7.92,7.92,0,0,0-.9,4.17,6.43,6.43,0,0,0,1.11,4.07,3.62,3.62,0,0,0,3,1.41,4.74,4.74,0,0,0,3.85-1.8A8.22,8.22,0,0,0,194,66Z"/><path class="cls-1" d="M231.3,54.89q2.12-6.27,4.21-12.6c.53.1,1,.18,1.51.25a9.48,9.48,0,0,0,2.88,0l1.59-.25q-1.16,2.81-2.81,6.52c-1.1,2.47-2.27,5.18-3.49,8.13s-2.48,6.12-3.74,9.51-2.47,6.87-3.57,10.47a14.64,14.64,0,0,0-1.94-.14h-3.89a14.79,14.79,0,0,0-2,.14q-1.44-4.1-3.2-9.07t-3.49-9.76q-1.72-4.79-3.24-9t-2.52-6.84c1,.1,2,.18,2.91.25s1.86.11,2.78.11,1.81,0,2.7-.11,1.78-.15,2.7-.25q1.94,6.33,3.92,12.6t4.07,12.6h.14Q229.18,61.16,231.3,54.89Z"/><path class="cls-1" d="M254.74,59.71a24.44,24.44,0,0,0,.57,5.4,13.65,13.65,0,0,0,1.77,4.36,8.66,8.66,0,0,0,3,2.88,8.46,8.46,0,0,0,4.28,1,13.44,13.44,0,0,0,8.86-3.24l.87.65-1.59,4A14.39,14.39,0,0,1,268.2,77a21.81,21.81,0,0,1-6.62.83,23,23,0,0,1-6.7-1,14.32,14.32,0,0,1-5.58-3.21A15.63,15.63,0,0,1,245.48,68a21.58,21.58,0,0,1-1.4-8.17,23.8,23.8,0,0,1,1.26-8.14A16.08,16.08,0,0,1,248.83,46a14.24,14.24,0,0,1,5.29-3.45,18.73,18.73,0,0,1,6.67-1.16q7.13,0,10.9,4.18t3.78,11.81v1.51a3.19,3.19,0,0,1-.07.86Zm11.08-3.24a27.49,27.49,0,0,0-1.33-8.64q-1.19-3.24-4-3.24a3.63,3.63,0,0,0-2.67,1.08,7.78,7.78,0,0,0-1.72,2.78,18.1,18.1,0,0,0-1,3.81,38.09,38.09,0,0,0-.39,4.21Z"/><path class="cls-1" d="M282.74,34.59q-.14-5.91-.43-12c.63.1,1.42.18,2.38.26s2,.1,3,.1,2.07,0,3-.1,1.75-.16,2.37-.26q-.28,6.06-.43,12t-.14,13v4.68q0,7.05.14,13t.43,11.73a16.93,16.93,0,0,0-2.37-.14h-6.05a17.19,17.19,0,0,0-2.38.14q.29-5.83.43-11.73t.15-13V47.55Q282.89,40.49,282.74,34.59Z"/><path class="cls-1" d="M310.75,59.71a23.84,23.84,0,0,0,.58,5.4,13.42,13.42,0,0,0,1.76,4.36,8.6,8.6,0,0,0,3,2.88,8.46,8.46,0,0,0,4.28,1,13.48,13.48,0,0,0,8.86-3.24l.86.65-1.58,4a14.39,14.39,0,0,1-4.32,2.2,21.83,21.83,0,0,1-6.63.83,22.93,22.93,0,0,1-6.69-1,14.17,14.17,0,0,1-5.58-3.21A15.63,15.63,0,0,1,301.5,68a21.38,21.38,0,0,1-1.4-8.17,23.8,23.8,0,0,1,1.26-8.14A16.08,16.08,0,0,1,304.85,46a14.24,14.24,0,0,1,5.29-3.45,18.71,18.71,0,0,1,6.66-1.16q7.13,0,10.91,4.18t3.78,11.81v1.51a3.69,3.69,0,0,1-.07.86Zm11.09-3.24a28.08,28.08,0,0,0-1.33-8.64c-.79-2.16-2.13-3.24-4-3.24a3.62,3.62,0,0,0-2.66,1.08,7.79,7.79,0,0,0-1.73,2.78,18.75,18.75,0,0,0-1,3.81,35.85,35.85,0,0,0-.4,4.21Z"/><path class="cls-1" d="M347.9,51.22a18,18,0,0,1,4.54-7.31,9.3,9.3,0,0,1,6.34-2.34,3.59,3.59,0,0,1,.61,0,4.63,4.63,0,0,0,.54,0,21.82,21.82,0,0,0-.32,2.31c-.08.81-.11,1.77-.11,2.88v3.52a9.59,9.59,0,0,0,.07,1.23l-.65.57a8.61,8.61,0,0,0-1.62-.72,6.78,6.78,0,0,0-2.05-.28,6.43,6.43,0,0,0-5.11,2.12,7.31,7.31,0,0,0-1.87,5v2.88q0,4.4.1,8.28c.08,2.6.23,5.09.47,7.49a16.66,16.66,0,0,0-2.34-.14h-6.08a18,18,0,0,0-2.38.14c.24-2.4.4-4.89.47-7.49s.11-5.35.11-8.28V58.27q0-4.38-.11-8.24T338,42.29c.82.1,1.64.18,2.49.25s1.66.11,2.48.11,1.64,0,2.48-.11,1.67-.15,2.49-.25l-.22,8.78Z"/><circle class="cls-2" cx="377.66" cy="26.28" r="12.31"/><g class="cls-3"><path class="cls-4" d="M389.06,44.67c-.06,0,.07.2.08.24S389,44.62,389.06,44.67Z"/><polygon class="cls-4" points="389.61 43.79 389.64 43.88 389.64 43.62 389.61 43.79"/><path class="cls-4" d="M390.32,43.35c-.27-.27-.22.22-.42.18l-.06-.06.1.29C390.07,43.63,390.16,43.33,390.32,43.35Z"/><path class="cls-4" d="M391.15,43.78c-.11-.1,0-.16-.11,0l0,0Z"/><path class="cls-4" d="M391.07,43.83c-.07.05.12.07,0,0Z"/><path class="cls-4" d="M391.37,43.52l0,.18c.07,0,.16,0,.17.08C391.58,43.65,391.51,43.6,391.37,43.52Z"/><path class="cls-4" d="M391.3,43.23v.08S391.34,43.33,391.3,43.23Z"/><path class="cls-4" d="M391.25,43.48l0-.17c-.05,0-.12-.14,0,.07C391.21,43.28,391.25,43.38,391.25,43.48Z"/><path class="cls-4" d="M391.15,43.47c-.1,0-.2,0-.17-.19C390.82,43.45,391,43.65,391.15,43.47Z"/><path class="cls-4" d="M390.15,43,390,43v.15C390,43,390.21,43.1,390.15,43Z"/><path class="cls-4" d="M392.09,43.24c0-.07-.16-.14-.23-.22v.13A.33.33,0,0,1,392.09,43.24Z"/><path class="cls-4" d="M391.86,43l0-.19C391.78,42.89,391.8,43,391.86,43Z"/><polygon class="cls-4" points="391.08 42.87 391.07 43.23 391.11 42.85 391.08 42.87"/><polygon class="cls-4" points="392.5 42.95 392.55 43.14 392.49 42.84 392.5 42.95"/><path class="cls-4" d="M392.74,42.71c.06.16.23.16.24.27a.64.64,0,0,0,0-.37C393,42.71,392.9,42.75,392.74,42.71Z"/><path class="cls-4" d="M393,42.4a2.06,2.06,0,0,0,0,.21A.41.41,0,0,0,393,42.4Z"/><path class="cls-4" d="M392.08,42.73a.42.42,0,0,0,.23.12l-.18-.15Z"/><path class="cls-4" d="M392.12,42.69h0l.09-.06Z"/><path class="cls-4" d="M392.07,42.73h0S392.06,42.71,392.07,42.73Z"/><path class="cls-4" d="M391.48,42.85c0-.15,0-.35-.21-.42C391.32,42.59,391.46,42.63,391.48,42.85Z"/><path class="cls-4" d="M391.85,42.55l-.14,0a.35.35,0,0,1,.12.17Z"/><polygon class="cls-4" points="391.86 42.45 391.85 42.55 391.9 42.53 391.86 42.45"/><path class="cls-4" d="M392.65,42.39a.26.26,0,0,1,.08-.22.44.44,0,0,0-.23.1C392.54,42.33,392.59,42.45,392.65,42.39Z"/><path class="cls-4" d="M392.39,42.53v0S392.36,42.5,392.39,42.53Z"/><polygon class="cls-4" points="393.29 41.7 393.25 41.68 393.28 41.71 393.29 41.7"/><path class="cls-4" d="M392.47,42.24c-.07,0-.07.07-.05.15a.36.36,0,0,1,.08-.12S392.48,42.22,392.47,42.24Z"/><path class="cls-4" d="M393.06,42.19a.76.76,0,0,0-.16,0C393,42.2,393.09,42.24,393.06,42.19Z"/><path class="cls-4" d="M392.44,42.55h0C392.49,42.58,392.47,42.57,392.44,42.55Z"/><path class="cls-4" d="M392.44,42.55a.44.44,0,0,0,0-.16.24.24,0,0,0,0,.12Z"/><path class="cls-4" d="M392.49,40.47c.13.16.15.41-.09.33,0,.19.52.67.85.88a.38.38,0,0,1-.09-.32c-.11,0-.39,0-.43-.22s.15,0,.29,0c-.23-.15-.09-.44-.37-.7l0,.2S392.56,40.48,392.49,40.47Z"/><path class="cls-4" d="M393,41.83l0,.06a.73.73,0,0,1,.33.09.38.38,0,0,0-.07-.27l-.23.16Z"/><path class="cls-4" d="M392.82,42.05c-.11-.2-.07-.36-.29-.5-.11.11,0,.22,0,.36.17-.21,0,.14.25.12a.31.31,0,0,1-.07.14h.16s0,0,0,0h0l-.05-.07c.09,0,.05,0,.05.07l0,0h0l.13-.26C393,41.9,392.9,42,392.82,42.05Z"/><path class="cls-4" d="M391.09,42l0,0S391.12,41.94,391.09,42Z"/><path class="cls-4" d="M391.26,42s0,.12,0,.14-.06-.09-.11-.15,0,.21.15.23v0a.78.78,0,0,1,.41.18A3,3,0,0,0,391.26,42Z"/><path class="cls-4" d="M392,42l.1-.22-.21-.09.08.09C391.85,41.82,392,41.91,392,42Z"/><polygon class="cls-4" points="393.38 41.77 393.52 41.97 393.39 41.63 393.38 41.77"/><polygon class="cls-4" points="393.58 41.56 393.71 41.72 393.68 41.57 393.58 41.56"/><path class="cls-4" d="M397.88,27l-.05-.06A.1.1,0,0,0,397.88,27Z"/><path class="cls-4" d="M397.86,27.41h.1S397.86,27.39,397.86,27.41Z"/><path class="cls-4" d="M398.05,36c.22,0,.54.06.33,0l-.22-.09A.12.12,0,0,1,398.05,36Z"/><path class="cls-4" d="M398.55,31.08h-.07l.19.11Z"/><path class="cls-4" d="M397.65,30.79l.16-.07A.37.37,0,0,0,397.65,30.79Z"/><path class="cls-4" d="M397.56,24.73l-.24-.05C397.33,24.79,397.44,24.73,397.56,24.73Z"/><path class="cls-4" d="M395.6,39.38a.45.45,0,0,0,.25-.06C395.68,39.31,395.48,39.24,395.6,39.38Z"/><path class="cls-4" d="M400.31,27.24a.21.21,0,0,0-.14-.07A.16.16,0,0,0,400.31,27.24Z"/><path class="cls-4" d="M396,39.13h-.07a.27.27,0,0,1-.08.19C396,39.33,396.07,39.29,396,39.13Z"/><path class="cls-4" d="M394.7,17.44a.08.08,0,0,1,0,0S394.69,17.43,394.7,17.44Z"/><path class="cls-4" d="M394.54,14l.09.06S394.61,14,394.54,14Z"/><path class="cls-4" d="M394.5,40.83c0,.05,0,0,0,0Z"/><path class="cls-4" d="M393.66,40.39a.37.37,0,0,0-.06-.1A.37.37,0,0,1,393.66,40.39Z"/><path class="cls-4" d="M395.26,37.77h0C395.21,37.75,395.22,37.75,395.26,37.77Z"/><path class="cls-4" d="M394.36,40.82h0Z"/><path class="cls-4" d="M394.45,40.89l-.06,0S394.44,41,394.45,40.89Z"/><path class="cls-4" d="M394.55,40.76a.14.14,0,0,1-.08.05s0,0,0,0Z"/><path class="cls-4" d="M397.51,20.8l0,0C397.42,20.77,397.44,20.78,397.51,20.8Z"/><polygon class="cls-4" points="396.61 33.57 396.62 33.58 396.63 33.58 396.61 33.57"/><path class="cls-4" d="M396.54,33.33c.23.19.17.22.09.25l.63.21Z"/><path class="cls-4" d="M397.82,26l-.21.14c-.34-.16-.22-.27-.51-.14.72,0,.08.51.8.53l-.15.09s0,0,0-.06c-.34.17.52.13.41.36-.06.08-.16.14-.25.08l.18.18s-.14,0-.13,0l.05.28h0a2.76,2.76,0,0,1,.35.19c-.11.07-.07,0-.16,0l.16.16c-.19.05-.36-.09-.33-.19-.72.1.17.14-.27.4l-.08-.14c-.41.06-.27.18-.53.31.13,0,.66-.26.82-.09-.05,0-.08.1.05.2-.25,0-.19.07-.19.18l-.34-.05c.09.13.26.14.4.22,0,.12-.31.12-.53.12-.08.19.43-.09.47.16-.15.15,0,.29.13.52-.13.1-.2-.05-.3,0l.25.14s-.09,0-.13,0,.33.07.4.22c.35.11-.58.19-.21.44-.1,0-.2-.06-.33-.07a1.9,1.9,0,0,0,.48.51l-.26.12c.28-.06.54.16.74.36a1.44,1.44,0,0,0,.3,0,1.53,1.53,0,0,1,.11.27c-.06,0-.16,0-.29-.11l.07.06a.65.65,0,0,1-.49-.14l.23,0a2.32,2.32,0,0,0-.59-.25.17.17,0,0,1,.07.1.31.31,0,0,0-.13-.05s0,0,.1.09l-.38,0,.14,0-.31.21c.31.3.79.63.84,1a2.84,2.84,0,0,0-.73-.26c.36,0-.07-.29.05-.43-.06.08-.21,0-.25,0l.21.38c-.25-.09-.21,0-.33,0,.51.11.28.33.37.5-.17-.05-.32-.14-.24-.27-.42,0,.51.41.14.45,0,0,0,0,0-.09.12.14-.08.29-.21.19v0a.63.63,0,0,0,.13.91c-.06,0-.49-.24-.57-.29.42.33.81.67,1.2,1-.33-.19-1.23-.44-1.34-.72-.08,0-.17.07-.1.24.07,0,.55.14.56.21a3,3,0,0,0-.67,0c.11,0,.62.31.56.39s-.54-.26-.58-.32l.43.48a1.48,1.48,0,0,0-.62-.27c.11,0-.1.18-.07.26l.16,0c-.19.19.61.62.45.85-.09-.09-.62-.44-.75-.36.23.2,1.13,1,1.2,1.31l-.18,0,.07.27c-.32-.36-1-1.13-1.22-1.46-.17,0-.19-.08-.25.05a.19.19,0,0,1-.16-.23l-.26.23c.31.17.17.41.43.56l-.13-.52c.31.17.75.71.57.9-.15,0-.51-.38-.61-.44.09.1.06.32,0,.29l-.1-.19c-.19,0,.27.45-.11.39-.05,0-.47-.12-.3,0a8,8,0,0,1,1.64,1.07,2.88,2.88,0,0,1-.7,0c-.31-.1-.53-.56-.8-.65a.65.65,0,0,1,.16.21c-.1,0-.23-.19-.27-.06.28.23-.17.2.22.23,0,.17-.15.07-.22.2a1.38,1.38,0,0,1,.54.75.93.93,0,0,0-.23-.13c-.2.19-.42.2-.57.4-.08,0-.24,0-.33-.16,0,.07.1.18.06.24-.34-.09.07-.16-.29-.32.16.14.09.34.12.5.26.19.21-.15.19-.31A1.41,1.41,0,0,1,395,39.2c-.06.23-.27-.13-.25-.06-.33.25.34.79-.13.82-.3-.1-.41-.38-.58-.5.05-.2.31-.08.38-.17l-.19,0c0-.11,0-.24.09-.23-.25-.09-.49.45-.87.5,0,.1,0,.24.14.29l0-.1c.22.1.09.36.25.35,0,.21.09.5-.13.54l-.25-.22c.07.07.22.06.19,0,0,.16-.51-.12-.28.24l.25.08c0,.21.12.58-.08.61.28.19,0,0,.35.15-.39-.28.34-.28-.12-.53.39.24.28,0,.66.14-.08-.07-.19-.11-.05-.17l0-.09h0s0,0,0,0a.35.35,0,0,1-.16-.06c-.12-.23,0-.38,0-.52s.07.11.18.16l-.05-.22c.17.16.44.12.39.36l.14-.12c.17,0,.32,0,.3-.19s0-.34,0-.16l.08-.31.05,0c.21-.19.09-.68.62-.65a.34.34,0,0,1,.17-.32l.18.11c0-.14.39-.17.25-.34.53.24.47-.4.66-.53l-.21-.16a.89.89,0,0,0,.13-.48l-.21-.13c-.07-.24.38-.23.49-.46.06.06,0,.1-.06.11.61,0,0-.74.46-.77,0-.1,0-.13.08-.14v0l.16,0h-.15a.4.4,0,0,0,0-.23l.24.09h0c.13,0-.07-.11-.26-.17a.6.6,0,0,0-.08-.16c.39.14,0-.25.39-.12-.17-.14,0-.42-.36-.65,0,0,.09,0,.07.05s.17-.1.09-.23l.3.11-.31-.35a.51.51,0,0,1,.53.19c-.23-.4,0-.26-.3-.62l.19.09c0-.08-.19-.3,0-.28.43,0,.4-.81.88-1.15-.61-.1.32-.13-.13-.29.15,0,.25,0,.35.09-.07-.28.32-.29,0-.56.15,0,.19.11.29.11s-.1-.11,0-.12.1.07.15.13c.05-.25-.38-.39-.78-.52.23-.06.22-.13,0-.28.14,0,.29-.05.31.11,0-.08.31-.47,0-.55.09,0,0-.11,0-.14.06-.18.1-.19.09-.38l-.06,0c-.39-.15-.06-.17-.09-.33h0c.35-.29-.11-.16.28-.45l-.26,0c-.53-.1.36-.25.18-.47l-.15.05c-.18-.13.77-.21.85-.32s.07.05.1.08c.35-.26-.32-.07-.38-.29.18,0,.45.09.49,0s-.54-.47-.19-.64c-.14,0-.28.07-.37,0s.53-.39.1-.54l.11,0c-.11-.12-.17-.38-.41-.45.88-.11-.43-.71.38-.72l-.06-.36h.09c0-.23-.16-.3-.36-.37.05-.06.13,0,.17,0,.14-.34.11-.38-.32-.62l.26-.05c-.16-.06.36-.53,0-.82a.27.27,0,0,1,.12,0c-.36-.32.58-1-.39-1l-.28-.19c0,.32-.41,0-.54.19-.08-.1.22-.36.29-.22l0,0c.5-.05.1-.41.43-.48-.17-.6-.08-1.26-.25-1.84l-.35.19a1.77,1.77,0,0,0,0-.2c.06-.08.25-.17.29,0,.18-.15-.26-.17-.34-.15,0-.32.46-.05.44-.14l-.07-.1,0,0c-.18,0-.34,0-.39-.15s.2-.15.2-.19,0,0,0-.07-.06-.17-.08-.26l-.24.22c-.18,0-.09-.23-.35,0,.42-.38-.25-.95-.17-1.12-.28,0-.34-.17-.43-.35,0,.08-.3.28-.36.12.63-.33.09-.42.42-.83-.2.29-.36-.36-.63.09,0-.14.21-.16.28-.35-.42-.1-.33-.69-.67-.95-.08.06-.14.2-.3.23l.21-.47c-.09,0-.45.3-.31,0-.05.07-.11.17-.17.15-.21-.9-1.38-.9-1.35-2.05-.05.2-.11.17-.18.11s-.16.17-.23.27v-.48c-.29.21-.27-.23-.53,0l.12,0c-.37.19-.46.77-.83,1.12.42-.22-.17.76.46.47,0,.11-.15.08-.21.19.2-.12.28-.1.32.07l-.05,0c.32.24.29.51.49.92l.16-.2c0,.09,0,.16,0,.24.35-.19-.17-.21.2-.43-.27.45.46.49.09.95.1.1.19-.23.28-.12l-.09.13.17-.11c0,.09-.07.26-.17.35s-.07,0-.09,0c-.06.21.27.2.25.28l0-.17c.37.19.51.68,1,.78l.07-.1c.35.1,0,.26.28.45h0c.13,0,.23,0,.26.1-.16,0-.14.26-.33.26.35.12.23,0,.71,0l-.15.14c.19,0,.27-.07.4.05-.21,0-.22.22-.48.21-.22.46.59.23.1.63.55-.1.15-.38.29-.36.13-.14.42-.06.42.06s-.55.45-.45.68c0,0-.05,0-.05,0-.1.14.24.11.07.3.33-.06,0,.15.44,0l-.18-.19c.15.08.66,0,.52.33a.92.92,0,0,1-.29,0c-.09.11.12.09,0,.2-.39.12-.18-.24-.53-.26-.14.13.38.14-.07.23.58-.1,0,.26.48.28l-.24.07c.05,0,.18,0,.19.08l-.34,0c.31,0-.15.32,0,.4-.1-.26.27-.14.4-.31.44.24-.57.38-.35.71-.05,0,.09-.23.23-.18a.52.52,0,0,1-.22.28c.12.24.24-.1.42,0-.27.16.15.09.28.18l-.25.06c-.1.33.53,0,.4.27l-.37,0,.12.12-.29,0c.24.11.19.17.14.33.17-.07.46-.07.49.06-.13.12-.24,0-.18.17-.16,0-.36,0-.15-.14a1.93,1.93,0,0,0-.24,0c-.16.12,0,.24,0,.31a.08.08,0,0,1,.05-.08l.39.21a.25.25,0,0,1-.25,0c0,.05.16.07.19.15-.21,0-.42,0-.53-.05l.26.22c-.08,0-.22.16-.3.14-.11.15.43.29.29.5a.14.14,0,0,1,.12.06c0,.18-.27.35,0,.54l-.37.14c.1.16.46-.19.62.08s-.32.09-.41.16c.19.09.57.25.27.44C397.79,26.09,397.85,26,397.82,26Zm.11,2.05c-.05,0-.21-.14-.06-.15S398,28,397.93,28Zm.06,3.22c-.08-.05,0-.08.09-.11S398.06,31.23,398,31.26Zm-3.16,8.94h0C395,40.19,394.91,40.19,394.83,40.2Zm-.23.07a.22.22,0,0,0,.07.09.08.08,0,0,1,.05-.12C394.66,40.2,394.61,40.19,394.6,40.27Zm4.28-20.68-.05.06C398.73,19.6,398.8,19.6,398.88,19.59Z"/><path class="cls-4" d="M397.75,30.83h.14A.17.17,0,0,0,397.75,30.83Z"/><polygon class="cls-4" points="397.6 24.73 397.6 24.73 397.56 24.73 397.6 24.73"/><path class="cls-4" d="M394.91,36.56a.38.38,0,0,1,.15,0A.11.11,0,0,0,394.91,36.56Z"/><path class="cls-4" d="M394.12,41.36l.05-.14c0,.05-.09,0-.14,0S394.15,41.33,394.12,41.36Z"/><path class="cls-4" d="M392.23,40.93s0,0,0,.06l.08.09C392.34,41,392.32,40.92,392.23,40.93Z"/><path class="cls-4" d="M393.45,40.82c-.15-.15-.16,0-.2,0h0C393.44,41.09,393.45,41,393.45,40.82Z"/><path class="cls-4" d="M393.24,40.89l-.06.06C393.25,41,393.22,40.94,393.24,40.89Z"/><path class="cls-4" d="M394.52,40.56c-.07,0,.17.21.1.17C394.77,41,394.59,40.29,394.52,40.56Z"/><polygon class="cls-4" points="392.92 40.35 393.12 40.52 393.01 40.33 392.92 40.35"/><path class="cls-4" d="M393.56,40l-.15.05a.12.12,0,0,1,0,.09C393.51,40.09,393.62,40.06,393.56,40Z"/><path class="cls-4" d="M393.45,40.15s-.07.06-.05.11A.38.38,0,0,0,393.45,40.15Z"/><polygon class="cls-4" points="393.01 40.16 393.08 40.17 393.16 40.12 393.01 40.16"/><path class="cls-4" d="M394.65,38.93l.05-.16c-.06-.07-.13-.08-.14,0S394.57,38.89,394.65,38.93Z"/><path class="cls-4" d="M393.81,38.79a.79.79,0,0,1,.19.09l-.24-.23Z"/><path class="cls-4" d="M394,38.42c-.06-.08-.05-.34-.16-.18C393.94,38.31,393.89,38.47,394,38.42Z"/><polygon class="cls-4" points="395.77 36.89 395.76 36.92 396.2 37.23 395.77 36.89"/><path class="cls-4" d="M395.72,34.55c-.2.09.27.2,0,.25.09.1.18,0,.25.05C396,34.69,396.05,34.68,395.72,34.55Z"/><path class="cls-4" d="M396,34.85l.05.08A.28.28,0,0,0,396,34.85Z"/><polygon class="cls-4" points="394.43 13.48 394.42 13.32 394.35 13.51 394.43 13.48"/><path class="cls-4" d="M394,13.62l.22-.27-.27.18S394,13.55,394,13.62Z"/><path class="cls-4" d="M397.22,28.28h.08c.09,0,.1,0,.12-.08Z"/><polygon class="cls-4" points="397.55 26.85 397.55 26.87 397.86 26.83 397.55 26.85"/><path class="cls-4" d="M397.14,25.64c0,.05.06.1.05.15S397.52,25.61,397.14,25.64Z"/></g><path class="cls-5" d="M382.15,4.79l-2.37-2.74c-.7-.6-.87-1.42-.61-1.77s1.26-.45,2.07.28,1.89,1.32,2.83,2q7.06-2.88,7.39-2.25t-5.14,4.18L389.54,8c2.66-.24,3.32-.07,3.37.16s-1.43.62-2.56,2.09c-1,1.22-1,2.43-1.29,2.41s-.45-.56-.64-2.89l-4-3Q381.66,12.25,381,12T382.15,4.79Z"/></g></g></svg>