<svg xmlns="http://www.w3.org/2000/svg" viewBox="0 0 80 78.68"><defs><style>.cls-1{font-size:9.83px;font-family:jf-openhuninn-1.1;}.cls-1,.cls-4{fill:#040000;}.cls-2{fill:#fef5e9;}.cls-3{fill:#fff;}.cls-5{fill:#eaa092;}</style></defs><g id="圖層_2" data-name="圖層 2"><g id="圖層_1-2" data-name="圖層 1"><text class="cls-1" transform="translate(19.6 62.07) scale(1.02 1)">拍立得</text><ellipse class="cls-2" cx="40" cy="39.34" rx="40" ry="39.34"/><text class="cls-1" transform="translate(29.98 63.71) scale(1.02 1)">個人</text><path class="cls-3" d="M25.12,17.23l-5.19,4.56V40l5.73,7H54l5.46-4.29L60,22.06l-5.45-4.83Z"/><path class="cls-4" d="M28.61,46.25Z"/><path class="cls-4" d="M58.82,33.42v0l0-.09Z"/><path class="cls-4" d="M59.13,26.73v0S59.11,26.68,59.13,26.73Z"/><path class="cls-4" d="M54.21,46l-.09.07Z"/><path class="cls-4" d="M20.58,39.7h0l0,0Z"/><path class="cls-4" d="M20.62,39.74s0,0,0,0a.3.3,0,0,0,0,.1l.06.06s0,0,0-.08A.08.08,0,0,1,20.62,39.74Z"/><path class="cls-4" d="M23.54,19.36l0,.05Z"/><path class="cls-4" d="M55.69,46.78l-.07.07Z"/><path class="cls-4" d="M20.88,21.66v.06S20.89,21.66,20.88,21.66Z"/><path class="cls-4" d="M58.77,33.29v0A.43.43,0,0,0,58.77,33.29Z"/><path class="cls-4" d="M58.42,21.63a0,0,0,0,0,0-.05v.05Z"/><path class="cls-4" d="M29.19,17.17v0l.13,0Z"/><path class="cls-4" d="M51.88,17.75s0,0,0,0,.52,0,1,0l0-.06Z"/><path class="cls-4" d="M42.6,16.31l.91.12c-2.91.06-4.26-.07-6.75,0l.14,0a18.75,18.75,0,0,1-4.56-.09v0a1.39,1.39,0,0,1-.42,0l.7.07c-.42,0-.78.09-1.33.1-.12,0-.16,0-.17-.06l-1.35,0-.42-.08A2.44,2.44,0,0,1,28,16.5c.42.12-.55.07-.41.13l-.29-.05a20.47,20.47,0,0,0-2.2.11s2.57.24,3.27.37c-.93,0-.25,0-.07.05l.07,0a5.73,5.73,0,0,1,.83.12s0,0,0,0h0s0,0,0,0,0,0,.17,0h0c.23,0,.63,0,.8,0v.06a30.08,30.08,0,0,1,3.31.19c.56.08,1.25,0,1.94,0,1.11,0,.55.09,1.11.14s-.14-.07.14-.08l.82.09c-.48,0-.22.05-.13.07a10.65,10.65,0,0,0,2.07,0c1,.06,1,.11,1.39.12-.14,0-.42-.05-.42-.07.39.05.18,0,0,0,.59-.05,3.06.23,3.19.09v0c.13-.1-.09-.2.33-.26l.27,0,.42,0c.28,0,.14.06.14.07.67,0,1.62,0,2.44,0l-.87-.28a11.17,11.17,0,0,0,2.07.1l.42.1c1.38.18,1-.08,1.52,0l.69.11h-.69l1.52.15h0a3.21,3.21,0,0,1,.94-.08c.28,0,.53,0,.81,0s.64,0,.78,0l.27.3.28.1.58.6-.06.06-1.11-1-1.5,0,0,0,1.51,0h0a.54.54,0,0,1,.09.17c.07.09,0,.13-.08.05l.33.18c1.55,1.36,1.56,1.37,3.12,2.87l-.11-.15a2.92,2.92,0,0,1,.71.66l.57.52.14.13.07.06,0,0,.06.07v.07a.41.41,0,0,0,0,.14l0,.52c0,.33-.07.62-.11.88l.1.18c0,.28-.18.68,0,.82l0,.59a6.08,6.08,0,0,1,0,1h0v.08h0c-.06.85.09,0,0,1-.08.31.11.35.08.82l-.15.47c-.1.86,0,1,0,2.25-.07.59-.19.88-.29.48a3.1,3.1,0,0,1,.12,1c0,.11-.06,0-.11-.13-.08.64,0,.4,0,.88a1.13,1.13,0,0,1,.26.46l0-.18a9.24,9.24,0,0,1,0,1.66l-.05,0v.64L59,36v.91l0-.13c0,.21,0,.91,0,1.31l0,0a30.75,30.75,0,0,0,0,3.36l-.07-.18c-.08.45.11.13.06.66l-.09,0c.09.47,0,.38,0,.43h-.05l.12,0h0l-.09,0-.15.1c-.55.39-.41.14-.37,0l-.3.36-.14,0c-.18.3-.27.19-.69.6-.06,0,0-.11-.13,0l-.66.71.41-.41,0,.17a8.48,8.48,0,0,1-1,.79l.21-.22a4.45,4.45,0,0,1-.94.66c.12,0,.29-.14.08.05s-.12,0-.29.14c0,.11-.34.46-.73.71a.07.07,0,0,1,0-.06.84.84,0,0,1-.26.23s0-.08,0-.14c-.08.11,0,.11-.06.19h0a.79.79,0,0,0-.16,0c-.12,0-.21,0-.19,0l.15,0-2,0,0-.09c-.2.12-1.08,0-1,.1-.37-.08-1.47.06-1.25-.11-1.3,0-2,.15-3.59.07a21.85,21.85,0,0,0-3.12-.12l-5.31.17c-1.22-.21-3,.07-4.36,0l-.36.08c-.87-.13-2.2,0-3.43-.09l-.53,0a.21.21,0,0,1,.17.07c-.35,0-1.06,0-1-.1h.09c.05-.1-1.06,0-1.45,0l.21.11h-.53l.05,0-.13,0-.1-.08-.29-.33-.53-.62-.92-1.17a27.39,27.39,0,0,0-2.08-2.44c.32.2-.38-.37-.3-.48a2.83,2.83,0,0,0-.58-.76l-.59-.53h0l0-.06v-.57c.16.58-.14-.7,0-.17.13-2.55,0-5.87.06-8.82l-.05.13c0-.75,0-1.68,0-2.25a6.42,6.42,0,0,0-.12-1.46c-.07-.62.08-1.19.07-.92a17.64,17.64,0,0,1-.11-2.22,2.34,2.34,0,0,0,0-.69c0-.16,0-.34,0-.52l0-.31c.09-.11.41-.4.45-.35v0c1-.7,1.67-1.58,2.7-2.34l0,.06,1.63-2.08-.9.09-2,1.17-3.18,2.88,0,2.53L19,28.81,19,40.35l.6.72.62.58c.64.93,1.46,1.92,2.3,2.92l1.25,1.5.61.75.83,1.07h.44l.12-.1h.55l.21,0a2.25,2.25,0,0,0,.22.05c6.56,0,13.32-.16,19.23,0,.57.07,2.3,0,2.75.1.86,0,1.74-.08,2.63-.1h2.93l.69-.54,0,.05.7-.57s.05,0,0,0c.75-.7,2.07-1.63,3.07-2.37l0,.05,1.66-1.3c.07-3.47.14-6.84.2-10.22.07-3.23.15-6.46.3-9.79l0-.53c0-.32,0-.64,0-1L59.34,20.2,58,19l-3.07-2.68H53.19l-1.39,0C51.1,16.18,43.29,16.26,42.6,16.31Z"/><path class="cls-4" d="M31.12,16.44h0S31.1,16.42,31.12,16.44Z"/><polygon class="cls-4" points="47.24 17.63 47.19 17.63 47.38 17.69 47.24 17.63"/><path class="cls-4" d="M36.91,17.66c.47,0,.49,0,.42,0Z"/><path class="cls-4" d="M27.33,16.53c-.24,0-.15,0,0,0h.42Z"/><path class="cls-4" d="M28.32,17.11l-.07,0C28.39,17.14,28.39,17.13,28.32,17.11Z"/><path class="cls-2" d="M27.65,20.71l-4.31,3.52V38.28l4.76,5.37H51.65l4.53-3.31.45-15.91L52.1,20.71Z"/><path class="cls-4" d="M31.21,43.2s-.06,0,0,0Z"/><path class="cls-4" d="M55.85,32.86v0l0-.07Z"/><path class="cls-4" d="M56.08,27.47v0S56.07,27.43,56.08,27.47Z"/><path class="cls-4" d="M51.93,42.92l-.07,0Z"/><path class="cls-4" d="M23.9,38.32l0,0,0-.05Z"/><path class="cls-4" d="M24,38.39c.07.1,0,0-.07,0a1.81,1.81,0,0,0,.25.3S24,38.44,24,38.39Z"/><path class="cls-4" d="M26.24,22.29l0,0Z"/><path class="cls-4" d="M52.91,43.36l-.06,0Z"/><path class="cls-4" d="M24,24.07v0S24.05,24.07,24,24.07Z"/><path class="cls-4" d="M55.82,32.76v0Z"/><path class="cls-4" d="M54.86,23.56a.06.06,0,0,0,0,0h0Z"/><path class="cls-4" d="M30.92,20.68h0l.1,0Z"/><path class="cls-4" d="M49.2,21H50l0,0Z"/><path class="cls-4" d="M41.73,20.16l.72.08c-2.33,0-3.42,0-5.43,0l.12,0a20.82,20.82,0,0,1-3.68,0h0a2,2,0,0,1-.33,0l.55,0c-.33,0-.62.05-1.07.06-.09,0-.12,0-.13,0l-1.09,0-.33-.05a2.93,2.93,0,0,1-1.08.07c.34.07-.44,0-.33.08l-.23,0c-.53,0-1.53,0-1.77.07,0,0,2.07.15,2.63.22-.75,0-.2,0-.05,0l.05,0c.44,0,.44.06.67.07h0s0,0,0,0,0,0,.14,0h0c.18,0,.5,0,.65,0v0c.33-.07,2.22.11,2.67.11s1,0,1.56,0a4.27,4.27,0,0,1,.89.09c.56,0-.11,0,.11-.05l.67.06c-.39,0-.18,0-.11,0a12.87,12.87,0,0,0,1.67,0c.78,0,.78.06,1.11.07-.11,0-.33,0-.33,0,.31,0,.15,0,0,0,.47,0,2.47.14,2.57.06h0c.11-.06-.07-.12.26-.15l.23,0,.33,0c.22,0,.11,0,.11,0,.55,0,1.31,0,2,0l-.7-.16a12.07,12.07,0,0,0,1.67.06l.33.06a5.07,5.07,0,0,0,1.22,0l.56.06H48c.55,0,.78.05,1.22.09h0A3.32,3.32,0,0,1,50,21c.56,0,1,0,1.88,0A.91.91,0,0,0,52,21h0l.39.37,0,0L52,21H50l0,0,1.4,0c.16,0,.57.06.27.09a1,1,0,0,0,.26,0H52l1.11.92,1.28,1.11-.1-.12a3.4,3.4,0,0,1,.6.51l.77.66a6.79,6.79,0,0,1,.53.47s0,.42-.07.61l.05.15c0,.22-.1.55,0,.66v.47c0,.3,0,.49,0,.83h0v.07h0c-.05.69,0,0,0,.78,0,.25.07.28,0,.66l-.09.38c-.07.68,0,.8,0,1.8,0,.48-.12.71-.17.39a4,4,0,0,1,.06.78c0,.09,0,0-.06-.1a4,4,0,0,0,0,.71,1,1,0,0,1,.14.37l0-.15a10.15,10.15,0,0,1,0,1.34l0,0v.51l0,0v.62c0,.17,0,.73,0,1h0c-.09.9,0,1.65-.05,2.7l0-.14c0,.36.06.1,0,.53l0,0a1.6,1.6,0,0,1,0,.37s0,0-.05.06h0l.07,0h0l-.22.14c-.45.3-.32.13-.28,0l-.27.26h-.09c-.18.21-.22.14-.58.45-.05,0,0-.07-.09,0l-.58.53.36-.31v.11c-.35.34-.54.38-.8.61l.17-.17a5.18,5.18,0,0,1-.76.52c.09-.05.23-.12,0,0s-.09,0-.23.11-.3.34-.62.53c0,0,0,0,0,0a.8.8,0,0,1-.25.19l0-.11-.11.12,0,.06h0s-.37,0-.31,0h.12l-1.6,0,0,0c-.16.07-.87,0-.82.06-.3-.05-1.18,0-1-.07-1,0-1.61.09-2.89,0-.45-.08-1.69-.06-2.51-.07l-4.27.1c-1-.12-2.45,0-3.51,0l-.29,0c-.7-.07-1.78,0-2.77,0l-.42,0s.11,0,.13,0c-.28,0-.85,0-.81-.06h.07c0-.07-.85,0-1.16,0l.17.07h-.54l.15,0-.59,0h-.35l-.07-.08L28,43l-.36-.4L27,41.76c-.44-.51-.91-1-1.54-1.68.24.17-.32-.3-.28-.37a5.49,5.49,0,0,0-1-1.07s0,0,0,0l-.42-.49c.09,0,.06,0,0,0s-.06-.14,0,0c.08-1.93,0-4.7,0-7.05l0,.11c0-.6,0-1.35,0-1.81a6.8,6.8,0,0,0-.07-1.18c0-.5,0-.95,0-.74,0-.53-.1-1-.06-1.78a2.72,2.72,0,0,0,0-.56c0-.26,0-.64,0-.71a1.25,1.25,0,0,1,.23-.2c.09-.07.15-.11.17-.1h0c.78-.55,1.4-1.21,2.24-1.81l0,0,1.44-1.54-.66.13-1.57.94L22.85,24l0,2-.1,3.91,0,8.59.89,1,.5.46c.49.64,1.08,1.31,1.69,2l2,2.23h.7l.45,0,0-.06a2.55,2.55,0,0,1,.67,0c5.29,0,10.73-.09,15.48,0,.46,0,1.86,0,2.22.06.69,0,1.39-.06,2.1-.07h2.28l.54-.4,0,0,.58-.43s0,0,0,0c.63-.53,1.71-1.25,2.53-1.82l0,0,1.31-1c.06-2.76.13-5.46.19-8.15,0-1.3.07-2.6.1-3.91s.1-2.7.15-4.12v-.25l-1.25-1.07-1.12-.92-2.49-2H50.62l-1.49,0C48.56,20.09,42.28,20.13,41.73,20.16Z"/><path class="cls-4" d="M32.48,20.24h0S32.47,20.23,32.48,20.24Z"/><polygon class="cls-4" points="45.46 20.95 45.41 20.95 45.57 20.99 45.46 20.95"/><path class="cls-4" d="M37.14,21c.38,0,.39,0,.34,0Z"/><path class="cls-4" d="M29.43,20.29c-.2,0-.12,0,0,0h.34Z"/><path class="cls-4" d="M30.23,20.65l-.06,0C30.28,20.66,30.28,20.66,30.23,20.65Z"/><path class="cls-4" d="M30.26,33.84l.07-.12S30.28,33.75,30.26,33.84Z"/><path class="cls-4" d="M48.65,30.6v0Z"/><polygon class="cls-4" points="31.96 28.92 31.96 28.93 31.97 28.96 31.96 28.92"/><path class="cls-4" d="M31.53,35.59a34.12,34.12,0,0,0,.72-3.88l0-.32a1.18,1.18,0,0,0,0-.62c0-.22-.09-.44-.14-.67-.09-.4-.15-.79-.2-1.17-.21-.36-.05-1-.16-1.39l.12-.14c0-.14,0-.33,0-.3h0c-.06-.07,0-.1,0-.14l0,0,0,0,0,0c0-.16.15-.13.19,0l0-.13a.42.42,0,0,0,.11.14l.27.23a1.76,1.76,0,0,1,.5.63h0a1.66,1.66,0,0,1,.67.89c.09.18.28.56.44.85l.14.22.29,0,.6-.09c-.2,0,.08.06.07.09a2.37,2.37,0,0,0,.41,0l.29-.05c.18,0,.29-.11.29-.23.32,0,.27.07.31.16,0-.1.27-.15.52-.17l-.11,0,.71-.06-.14-.19c.38.05.1.24.46.18v-.16a7.05,7.05,0,0,1,1.35.35c1.06,0,2.15-.11,3.23-.2l.8-.06.4,0,.6,0a1.58,1.58,0,0,0,.31,0l.17-.23c.12-.15.24-.29.36-.45a5.67,5.67,0,0,1,.53-.55h.15c.16.09.13-.57.3-.51l.08-.22c.07,0,.18-.1.14,0a.65.65,0,0,0,.18-.3l.22-.08.2-.16.12-.13c.08-.12.29-.13.3,0s0,.22-.05.31c0,.32.05.67.07,1a12.8,12.8,0,0,1,0,2,2.78,2.78,0,0,1-.07.57,2.37,2.37,0,0,0-.11.46l.09.44c.06.43.1.86.14,1.3A8.67,8.67,0,0,0,48,35.34a.26.26,0,0,0,.09.18L48.38,37s1.47,7.16,1.74,1.42l0,0a4.11,4.11,0,0,0-.48-1.85c.22-.14-.11-.67-.08-.87h0c-.28-.45-.07-1-.33-1.48,0,0,.09,0,.12.12-.11-.34-.26-.8-.13-.86-.1-.41-.21-.89-.32-1.35-.05-.23-.12-.45-.18-.64s-.15-.39-.21-.4h0c-.19-.14,0-.09,0-.49l0,0c-.06-.37.17-1,.14-1.31h.09c0-.24,0-.47,0-.71l0,.26c-.25-.1.19-.52,0-1,0-.46-.55-.9-.53-1.46-.16-.19.23.12.06-.22.11-.1.12.15.18,0-.17-.35-.11-.81-.63-1V25a2.49,2.49,0,0,0-1,.09,1.28,1.28,0,0,0-.74.5c-.3.3-.4.31-.51.33s-.23.07-.36.36l-.26.08c-.19.18,0,.25-.23.42,0-.07-.28.23-.24.05a2.91,2.91,0,0,0-.59.78c0,.14-.16.32-.28.16,0,.09-.14.11-.28.12s-.27,0-.33.1c0-.08-.82,0-.36-.17,0,0,.1,0,.1,0l0-.1c-.46-.18-.83.12-1.29.11.14,0,.32,0,.2.09h-.42l.08-.08-.63,0,.09.11c-.31-.05-.42-.22-.76-.06-.16.08.29.13,0,.17a15.52,15.52,0,0,0-1.56-.17c.05.12-.09.12-.23.15l0-.1c-.56.15-.21-.22-.76-.1l0-.07-.14.22c-.49.22-.27-.2-.82.09.22,0,.11.22-.16.19l.07-.11c-.15,0-.2.07-.3,0,.09,0,0-.14-.18-.12l.15-.13-.41.2a.84.84,0,0,0-.27,0h-.22s-.1,0-.08-.07,0-.1-.21-.12c.16.07,0-.29.13-.25a1.71,1.71,0,0,1-.63-.77l0,0A3.17,3.17,0,0,0,33.9,26l-.44-.37c-.22-.18-.44-.36-.71-.55,0,.13-.54-.16-.42.05-1.07-.29-2,.51-1.74,1.14a4,4,0,0,1-.32.74v-.1c-.07.71,0,.89-.06,1.39.05.25.27.28.25.71-.1-.14-.08,0-.06.2,0-.1-.06-.13-.09.08a.23.23,0,0,1,.06.12,0,0,0,0,1,0,0c.06.27.08.22.08.09s0,0,0-.05c-.08.29.11.76,0,.82a6.48,6.48,0,0,0,.26.86c0,.27,0,.61,0,.92-.08.06-.13-.1-.13-.29l0,.46c-.11,0,0-.27,0-.41-.25.51,0,1.13-.22,1.74l.07.14,0,0s.09.16.09.25-.22,0-.26.28a2.71,2.71,0,0,0,0,1c0-.18.08-.11.11,0s-.13.23-.1.36H30c.13,0,.07.43.12.49-.11.08-.05-.25-.12-.3-.07.63,0,.32-.11.94.05.35.13,0,.22.13a2.52,2.52,0,0,1-.09.93l.13-.09A2.68,2.68,0,0,1,29.94,39c.36,4.25,1.15,1,1.15,1C31.57,38.41,31.35,37.53,31.53,35.59Z"/><path class="cls-4" d="M40.17,34.07Z"/><path class="cls-4" d="M42.53,39.93h0v0Z"/><path class="cls-4" d="M41.24,40.33h0S41.24,40.35,41.24,40.33Z"/><path class="cls-4" d="M44.23,37.06s0,0,0,0S44.23,37.05,44.23,37.06Z"/><polygon class="cls-4" points="37.98 34.12 37.99 34.11 37.97 34.1 37.98 34.12"/><path class="cls-4" d="M38,34.08s0,0,0,0a.06.06,0,0,0,.09,0S38,34.1,38,34.08Z"/><path class="cls-4" d="M34.57,36.64v0Z"/><path class="cls-4" d="M42.69,37.32h0Z"/><path class="cls-4" d="M34.91,36l0,0A.05.05,0,0,0,34.91,36Z"/><path class="cls-4" d="M42.54,40v0Z"/><path class="cls-4" d="M40.05,40.5s0,0,0,0h0Z"/><path class="cls-4" d="M35.33,37.83v0h0Z"/><path class="cls-4" d="M38.47,40.19v0a.39.39,0,0,0,.18,0V40.2Z"/><path class="cls-4" d="M37.43,38.36l.08.17c-.43-.12-.55-.32-.9-.42h0c0-.05-.27.16-.4-.43h0s0,0,0,0v.11c-.06,0-.13,0-.18,0a.05.05,0,0,1,0,0l-.1-.1a.35.35,0,0,1,.05-.08c-.06,0-.2.09-.17-.05-.09.09-.08,0-.13,0l.05,0c-.05,0-.08-.16-.16-.19a2,2,0,0,0-.24.49c0-.14,0,0-.06,0h0c0,.09-.05.13,0,.18h0l0,0s0,0,0,0h0a.6.6,0,0,1,.06.11l-.05,0c.12,0,.16.48.26.55s.18.13.25.23,0,.13.09.23,0-.07.06,0l.08.16c-.08,0-.06,0-.06,0s.24.28.33.19c.13.13.11.18.17.22s0-.08,0-.1,0,0,0,0,.42.44.49.32v0c.07-.08.07-.19.15-.22l0,.07.09,0c0,.05,0,.07,0,.08s.27.1.41.16l-.06-.31c.09.1.26.29.31.2l0,.11c.19.24.18,0,.26,0l.1.12-.12,0a1.21,1.21,0,0,1,.24.2h0s0,0,0,0h0a.17.17,0,0,1,.19,0c.12,0,.23,0,.42.1l.05-.1.15.07v.08c-.15,0-.44,0-.63,0v0c.12,0,.25,0,.32,0s.13.11,0,.16l.08-.07a3.22,3.22,0,0,1,.8.09l0,0c.08,0,.16-.05.18,0a2.16,2.16,0,0,1,.7.09v-.1c.06,0,.17.12.16,0l.11-.07c.07,0,.1-.07.2,0h0c.17,0,0-.08.17-.08s0-.14.12-.15l.14.1c.19,0,.16-.12.38-.23s.24.08.21.21c0-.16,0-.1.11-.22s0,0,0,.11c.15,0,0-.08.14-.13s-.08-.25-.06-.27h0a.36.36,0,0,1,.25-.18l0,.05.08-.09,0,0,.14-.11h0a.47.47,0,0,1,.2-.15l0,0c.25-.06.31-.29.48-.51l0,.07c.12,0-.06-.09,0-.16l.07.05c0-.16.11-.09.19-.14l-.12,0,.1-.11c.11-.12.18,0,.22,0l0-.15.11,0c-.07-.13.05-.08.05-.25,0,0,0,.05.08,0a2.64,2.64,0,0,0-.07-.3l0,.17-.14-.06c-.07-.17.06-.2,0-.32l0,.08c0-.18,0-.19.08-.29s-.07.08-.09,0,0,0,.07-.08a.19.19,0,0,1-.13-.25h0s0,0,0-.09h.12l-.12-.08c0-.07-.09-.14,0-.15l0,0A1.77,1.77,0,0,0,44,36.3l.08,0c-.13,0-.08-.25-.21-.15,0-.12-.23-.24-.06-.3-.17-.24-.39-.24-.56-.52,0-.19-.24-.35-.42-.49a4.67,4.67,0,0,0-1.06-.39c-.18-.28-.62-.11-.84-.26l-.08.07c-.15-.16-.41,0-.62-.18l-.1,0a.1.1,0,0,1,0,.08c-.06,0-.19,0-.17-.11h0c0-.1-.18,0-.24-.06l0,.11-.11,0h0c-.5.21-.72-.16-1.22.06.07-.12-.09.06-.1-.07s-.24,0-.34.09v0h-.19c.1-.18-.12.15,0,0a3.35,3.35,0,0,0-1.69.42l0,0c-.14.07-.28.21-.41.22s-.14.25-.17.28-.22.1-.18.07-.05.3-.22.39-.2.47-.32.39h0c-.23.16-.16.46-.33.7l0,0a1.83,1.83,0,0,0,.43.58,2.4,2.4,0,0,1,.53-.12A1.18,1.18,0,0,1,36,37a1.29,1.29,0,0,1,.26-.59,1.83,1.83,0,0,1,.57-.27,2.78,2.78,0,0,1,1.42-.45l.12-.12c.35.19.82,0,1.23.16l0-.1c.12,0,.11.06.13.08,1.12,0,2,.12,2.47.84,0,.1.19.23.16.31a.53.53,0,0,1,.34.44h0l0,.06h0c.09.07,0,.17-.08.23h0a2.61,2.61,0,0,1-.91.86,2.44,2.44,0,0,1-1.38.45c-.48-.1-1.05.13-1.58-.11A10.34,10.34,0,0,0,37.43,38.36Z"/><path class="cls-4" d="M36.07,37.63Z"/><polygon class="cls-4" points="37.69 39.86 37.68 39.86 37.69 39.93 37.69 39.86"/><path class="cls-4" d="M36,39.13c.06.06.07,0,.07,0A.11.11,0,0,0,36,39.13Z"/><path class="cls-4" d="M35.81,37.35s0,0,0,0l0,0Z"/><path class="cls-4" d="M35.31,37.69h0S35.31,37.7,35.31,37.69Z"/><path class="cls-4" d="M39.42,31.86Z"/><path class="cls-4" d="M39.5,32.44Z"/><path class="cls-4" d="M39.36,32.51h0Z"/><path class="cls-4" d="M39.33,32.21h0Z"/><path class="cls-4" d="M39.33,31.69Z"/><path class="cls-4" d="M39.36,31.69h0Z"/><path class="cls-4" d="M39.28,31.38h0Z"/><path class="cls-4" d="M37.78,32h0Z"/><path class="cls-4" d="M39.24,31.42h0Z"/><path class="cls-4" d="M39.55,32.44h0Z"/><path class="cls-4" d="M39.31,32.59h0Z"/><path class="cls-4" d="M38.46,32.9h0Z"/><path class="cls-4" d="M39.08,32.67h0s0,0,0,0h-.06Z"/><path class="cls-4" d="M37.63,32.61h.12c.06,0-.07,0,0,.09h0s.25,0-.1,0h.06l.09,0h0v0h-.08s.21,0,.12,0c.12,0,.07,0,.13,0h-.06l.1,0h.38s0,0,.06,0h0s0,0,0,0h.06c-.11,0,.19,0,.19,0s0,0,0,0,.09,0,.14,0H39s.13,0,0,0h0c.06,0,0,0,0,0s.23,0,.09,0h0l-.26,0h.08c-.05,0,0,0,0,0l-.28,0c.06,0,.2,0,.11,0h.09c.18,0-.07,0,0,0h.23l-.08,0s-.06,0,0,0l-.1,0h.14l0,0h0s0,0,0,0a.56.56,0,0,1,.16,0l-.08,0s0,0,.09,0h0s0,0,0,0a.33.33,0,0,1,.18,0l-.1,0s.16,0,0,0h0s0,0,0,0h0s-.08,0,0,0-.12,0-.1,0h.14c.08,0-.05,0-.05,0l.27,0-.14,0h.11c.06,0,0,0,0,0l-.26,0h0c-.05,0-.07,0,0,0h0l0,0h0s0,0,0,0h0c.11,0,0,0,0-.05l.07,0c.08,0-.11,0-.07,0h.09c-.12,0,0,0,.07,0H39.3a.82.82,0,0,1,.21,0l-.09,0h.13l-.14,0,.06,0-.15,0c-.11,0,0,0,0,0h0s0,0,.07,0h0c-.1,0-.15,0-.11,0h.13l-.1,0h0l0,0h.09c-.13,0,0,0-.11,0,.09,0,0,0,.12,0,0,0-.15,0-.07,0s.11,0,.12,0L39.39,32c.21,0-.06-.05,0-.05l-.08,0c.13,0,0,0,.11,0,0,0,0,0,0,0h-.07s0,0,.09,0h0c.1,0,0,0,0,0h-.06c-.24-.07.11,0-.11-.1.12,0-.06,0,.07,0s0,0-.08,0h0c.13,0,0-.08.07-.11h0s0,0,0,0-.11,0-.12,0,.08,0,.07,0-.17,0-.1-.05-.13-.05,0,0h0c.11,0-.07,0,0,0h0l-.47-.1-.53-.05-.43,0,.08.09-.17,0,0,.17.12,0c-.21,0,0,.07-.13.08l.1,0s-.06,0-.07,0,.13.2,0,.26,0,0-.1,0c.12,0,.11.07.1.09h0l0,0h0c.09,0,0,0-.05.05h0c0,.09.15.21,0,.28s.05.11-.1.14S37.58,32.59,37.63,32.61Z"/><path class="cls-4" d="M37.75,32.78h0Z"/><polygon class="cls-4" points="38.95 32.72 38.95 32.72 39.01 32.72 38.95 32.72"/><path class="cls-4" d="M39,32.86s0,0,0,0Z"/><path class="cls-4" d="M37.82,32.84h0Z"/><path class="cls-4" d="M38.41,32.9h0Z"/><path class="cls-4" d="M41.36,37.39Z"/><path class="cls-4" d="M41.32,38h0Z"/><path class="cls-4" d="M41.17,38Z"/><path class="cls-4" d="M41.21,37.71h0Z"/><path class="cls-4" d="M41.31,37.2Z"/><path class="cls-4" d="M41.34,37.21h0s0,0,0,0Z"/><path class="cls-4" d="M41.32,36.89h0Z"/><path class="cls-4" d="M39.72,37.21Z"/><path class="cls-4" d="M41.28,36.92l0,0Z"/><path class="cls-4" d="M41.37,38h0Z"/><path class="cls-4" d="M41.12,38.08h0Z"/><path class="cls-4" d="M40.22,38.22h0Z"/><path class="cls-4" d="M40.87,38.12h0s0,0,0,0l-.06,0Z"/><path class="cls-4" d="M39.46,37.77l.12,0c0,.05-.08,0,0,.09h0s.24.09-.11,0h0s0,0,0,0l.08,0,.09,0h-.06l0,0-.08,0s.2.07.1.06l.13,0h-.06a.26.26,0,0,0,.09.06l.37.08s0,0,.06,0h0l.12,0h0s0,0,0,0l.06,0c-.11,0,.19,0,.19,0s0,0,0,0,.09,0,.14,0l-.07,0h.09l.06,0s.13,0,0,0l.12,0-.07,0h0s.23,0,.1,0h0a1.23,1.23,0,0,1-.24-.09l0,0,0,0,.07,0s0,0,0,0l-.26-.07c.06,0,.19,0,.1,0l.09,0c.18,0-.07,0,0,0l.1,0h0l.15,0h0l-.07,0s0,0,.05,0l-.09,0h.06l.08,0s0,0,0,0l0,0s0,0,0,0l.15,0-.08,0s0,0,.1,0h0s0,0,0,0,.07,0,.18,0l-.1,0s.15,0,0,0l0,0s0,0,0,0h0c.05,0-.08,0,0,0l-.1,0,.14,0c.08,0-.06,0,0,0l.26.08-.13,0,.1,0c.06,0,0,0,0,0l-.25-.09h0s-.07,0,0,0l0,0,0,0,.06,0v0h0s0,0,0,0h0c.11,0,0,0,0,0l.06,0c.07,0-.1,0-.06,0l.08,0c-.11,0,0,0,.07,0l-.11,0h0l.2.07-.08,0,.09,0c-.11,0,0,0,0,0l.07,0-.13-.06.06,0-.15,0c-.1,0,0,0,0,0h0s0,0,.06,0l-.09,0,.07,0c-.09,0-.14-.06-.1-.05h0s0,0,0,0l.11,0-.1,0s0,0,0,0h0l0,0,.09,0c-.12,0,0,0-.1,0,.08,0,0,0,.11,0s-.13-.08,0-.07.11,0,.12,0l-.13-.12c.2,0-.05-.06.06,0l-.07,0c.12,0,0,0,.11,0l0,0-.07,0s0,0,.1,0h0c.09,0,0,0,0,0l-.1,0h0c-.22-.12.11,0-.09-.13.12.05,0,0,.07,0s0,0-.07,0h0c.15.07-.13,0,0,0s0-.07.09-.09h0s0,0,0,0-.09-.05-.1-.06.08,0,.07,0-.16-.07-.09-.06-.12-.08,0,0h0c.11,0-.06-.06,0,0h0l-.44-.19-.51-.16L40,36.43l.07.11h-.18v.16l.11,0c-.21,0,0,.08-.15.06l.1,0-.07,0c0,.09.09.22-.06.26s0,0-.1,0c.11.06.1.09.08.11h0c.08,0,0,0,0,0h0c0,.08.11.23-.06.28s0,.11-.12.11S39.42,37.74,39.46,37.77Z"/><path class="cls-4" d="M39.54,38Z"/><polygon class="cls-4" points="40.73 38.13 40.73 38.13 40.79 38.15 40.73 38.13"/><path class="cls-4" d="M40.72,38.28s0,0,0,0Z"/><path class="cls-4" d="M39.6,38l0,0h0Z"/><path class="cls-4" d="M40.17,38.21h0Z"/><path class="cls-4" d="M38.91,37.39Z"/><path class="cls-4" d="M38.87,38Z"/><path class="cls-4" d="M38.72,38h0S38.74,38,38.72,38Z"/><path class="cls-4" d="M38.75,37.71h0Z"/><path class="cls-4" d="M38.85,37.2h0Z"/><path class="cls-4" d="M38.89,37.21h0s0,0,0,0Z"/><path class="cls-4" d="M38.87,36.89h0Z"/><path class="cls-4" d="M37.27,37.21h0Z"/><path class="cls-4" d="M38.82,36.92l0,0Z"/><path class="cls-4" d="M38.92,38h0Z"/><path class="cls-4" d="M38.66,38.08h0Z"/><path class="cls-4" d="M37.77,38.22h0Z"/><path class="cls-4" d="M38.42,38.12h0s0,0,0,0l-.06,0Z"/><path class="cls-4" d="M37,37.77l.12,0c0,.05-.08,0,0,.09h0s.24.09-.1,0h0s0,0,0,0l.08,0,.08,0h0v0L37,38s.2.07.11.06l.12,0h0a.18.18,0,0,0,.09.06l.37.08s0,0,.05,0h0l.12,0h0s0,0,0,0l.06,0c-.11,0,.18,0,.19,0s0,0,0,0,.08,0,.14,0l-.07,0h.08l.07,0s.12,0,0,0l.11,0-.07,0c.06,0,0,0,0,0s.23,0,.1,0h0a1.54,1.54,0,0,1-.24-.09l0,0,0,0,.06,0s0,0,0,0L38,38.06c.06,0,.19,0,.11,0l.09,0c.17,0-.07,0,0,0l.1,0h0l.15,0h0l-.08,0s-.05,0,.06,0l-.1,0h.06l.08,0s0,0,0,0l0,0s0,0,0,0l.15,0-.07,0s0,0,.09,0h0s0,0,0,0,.08,0,.18,0l-.09,0s.15,0,0,0l0,0s0,0,0,0h0s-.09,0,0,0-.12,0-.09,0l.13,0c.08,0,0,0,0,0l.27.08-.14,0,.11,0c.06,0,0,0,0,0l-.25-.09h0c-.05,0-.07,0,0,0l0,0,0,0,.06,0,0,0h0s0,0,0,0h0c.11,0,0,0,0,0l.07,0-.07,0,.08,0c-.1,0,0,0,.07,0l-.11,0h0l.2.07-.09,0,.1,0c-.11,0,0,0,0,0l.08,0-.14-.06.06,0-.14,0c-.11,0,0,0,0,0h0s0,0,.06,0l-.08,0,.07,0c-.1,0-.15-.06-.1-.05h0s0,0,0,0l.1,0-.09,0s-.05,0,0,0h0l0,0,.08,0c-.11,0,.05,0-.1,0,.08,0,0,0,.12,0,0,0-.14-.08-.05-.07s.1,0,.12,0a1.67,1.67,0,0,1-.13-.12c.2,0-.06-.06.06,0l-.08,0c.13,0,0,0,.11,0l0,0-.07,0s0,0,.09,0h0c.1,0,0,0,.05,0l-.11,0h0c-.22-.12.12,0-.08-.13.11.05-.06,0,.06,0s0,0-.06,0h0c.16.07-.12,0,0,0s0-.07.09-.09h0s0,0,0,0-.1-.05-.1-.06.07,0,.06,0-.16-.07-.09-.06-.12-.08,0,0h0c.11,0-.07-.06,0,0h0l-.45-.19-.5-.16-.42-.11.06.11h-.18v.16l.11,0c-.2,0,0,.08-.14.06l.1,0-.08,0c0,.09.09.22,0,.26s0,0-.11,0c.11.06.1.09.08.11h0c.08,0,0,0-.05,0h0c-.05.08.1.23-.07.28s0,.11-.12.11S37,37.74,37,37.77Z"/><path class="cls-4" d="M37.09,38Z"/><polygon class="cls-4" points="38.28 38.13 38.28 38.13 38.34 38.15 38.28 38.13"/><path class="cls-4" d="M38.27,38.28s0,0,0,0Z"/><path class="cls-4" d="M37.15,38l.05,0h-.05Z"/><path class="cls-4" d="M37.71,38.21h0Z"/><path class="cls-4" d="M41.88,31.69Z"/><path class="cls-4" d="M41.94,32.34Z"/><path class="cls-4" d="M41.8,32.43h0Z"/><path class="cls-4" d="M41.78,32.08Z"/><path class="cls-4" d="M41.8,31.48h0Z"/><path class="cls-4" d="M41.84,31.49h-.06S41.81,31.49,41.84,31.49Z"/><path class="cls-4" d="M41.76,31.13h0Z"/><path class="cls-4" d="M40.23,31.87Z"/><path class="cls-4" d="M41.72,31.18h0Z"/><path class="cls-4" d="M42,32.35h0Z"/><path class="cls-4" d="M41.75,32.52h0Z"/><path class="cls-4" d="M40.89,32.88h0Z"/><path class="cls-4" d="M41.52,32.62h0Z"/><path class="cls-4" d="M40.06,32.55h.13c.05.06-.08.06,0,.11h0s.25,0-.1.05h0s0,0,0,0h.08l.09,0h0v0h-.08s.21,0,.12,0c.12,0,.07,0,.13,0H40.3a.17.17,0,0,0,.1,0h.38s0,0,0,0h0a.56.56,0,0,1,.13,0h0s0,0,0,0h.07c-.11,0,.19,0,.19,0s0,0,0,0h.22s.13,0,0,0h0s.23,0,.1,0h0l-.25,0h0l0,0h.07s0,0,0,0l-.27,0c.06,0,.19,0,.1,0h.1c.18,0-.08,0,0,0h.23c-.05,0-.09,0-.08,0s-.06,0,.05,0l-.1,0h.14a.33.33,0,0,0,0,.06h0s0,0,0,0a.56.56,0,0,1,.16,0l-.08,0s0,0,.09,0h-.05s0,0,0,0,.07,0,.17,0H41.8s.15,0,0,0l0,0s0,0,0,0h0s-.09,0,0,0-.12,0-.1,0h.14c.08,0-.06,0-.06,0l.28,0-.15,0H42c.07,0,0,0,0,0l-.26,0h0s-.07,0,0,0h0l0,0h0s0,0,0,0h0c.11,0,0,0,0-.06l.08,0c.07,0-.11,0-.08,0l.09,0c-.11,0,0,0,.07,0h-.09l.21,0-.09,0H42c-.12,0,0,0,0,0H42l-.14,0,.06,0-.14,0c-.12,0,0,0,0,0h0s0,0,.06,0h0c-.1,0-.15,0-.1,0h0s-.05,0,0,0l.11,0-.11,0s0,0,0,0h0l0,0h.09c-.12,0,0,0-.1,0,.08,0-.06,0,.11,0S41.8,32,41.88,32s.11,0,.12,0-.11-.06-.15-.1c.21,0-.06-.06.06-.06l-.08,0c.13,0,0,0,.1,0h-.12s0,0,.1,0h0c.1,0-.05,0,0,0h-.07c-.23-.08.12,0-.1-.12.12,0-.06,0,.07,0s0,0-.08,0h0l0,0h0c.13,0,0-.09.08-.12h0s0,0,0,0-.1,0-.11,0,.08,0,.07,0-.17-.05-.1-.05-.13-.06,0,0h0c.11,0-.07-.05,0-.05h0l-.47-.1L40.77,31l-.44,0,.08.11-.17.05,0,.19.11,0c-.21,0,0,.08-.13.1l.1,0s-.06,0-.08,0,.13.22,0,.3,0,0-.1,0c.12.05.11.08.1.11h0c.09,0,0,0,0,.05h0c0,.11.14.24,0,.33s.05.12-.1.16S40,32.53,40.06,32.55Z"/><path class="cls-4" d="M40.18,32.75h0S40.15,32.74,40.18,32.75Z"/><polygon class="cls-4" points="41.38 32.67 41.38 32.67 41.44 32.67 41.38 32.67"/><path class="cls-4" d="M41.4,32.83h0Z"/><path class="cls-4" d="M40.25,32.81s0,0,0,0h0Z"/><path class="cls-4" d="M40.83,32.88h0Z"/><path class="cls-5" d="M45.76,46.43l-12.89-7,.72,7.72,12.7-7.72Z"/></g></g></svg>