<svg xmlns="http://www.w3.org/2000/svg" viewBox="0 0 68.96 69.79"><defs><style>.cls-1{fill:#fff0e3;}.cls-2{fill:#1b1b1b;}.cls-3{fill:#6f7848;}.cls-4{fill:#f0a53a;}</style></defs><g id="圖層_2" data-name="圖層 2"><g id="圖層_1-2" data-name="圖層 1"><path class="cls-1" d="M1.5,3.13,44.91,1.34l2,58.9-45-.45Z"/><path class="cls-2" d="M30.52.71l.53.08C31,.74,30.9.71,30.52.71Z"/><path class="cls-2" d="M.54,45.46l0-.13C.52,45.42.53,45.45.54,45.46Z"/><path class="cls-2" d="M43.05,7.42v0l0-.13Z"/><path class="cls-2" d="M24.29,4c7-.17,8.89.21,16.14-.27l2.27-.09.11,0,0,.06,0,.05,0,.72c.06,1,.11,2,.16,2.95.41,1.6.15,4.45.51,6.34l-.17.75a7.27,7.27,0,0,1,.13,2.08l-.06,0c.18,1,.13,2.08.22,2.56l-.06,0,.07,1.18L43.6,20a34.91,34.91,0,0,1,.26,5l.24-.14c-.16,3.33.39,4.52.16,7.53l-.06,0c.77,3.76-.23,6,.51,9.87-.09-.48-.12.22-.18.18.13,1.79.23,3.71.71,3.72,0,1.31-.12,1.07-.29,1.25.2,0,.33,1.12.38,2.14l-.1-.47L45.4,52l.38-.59c-.07,1.55-.47.41-.33,1.89l.33,0a17.35,17.35,0,0,1-.24,2.78c-.07.43-.14.85-.21,1.3l0,.34,0,.17a.15.15,0,0,1,0,.07l-.09.2v.38l-4.46,0-6.26.11c-4.14.07-8.21.07-12-.24l-.36-.25c-.15-.36-2.22.51-2.52.17l-.94.16c-.26-.07-.82-.14-.35-.22a5.37,5.37,0,0,0-1.51.14l-.93-.23c-3.41-.21-6.31.19-9.91.07L5,58.19l-.89-.06a2.87,2.87,0,0,0-.5-.07c0-.13,0-.26,0-.39,0-.41,0-.84,0-1.26,0-1.16-.09-2.34-.13-3.5-.12-2.3-.24-4.51-.33-6.25-.58-6.57.8-14.23.13-21a1.66,1.66,0,0,0-.11-.78V18.75S3.11-11.13.29,11.59l-.08-.15a32.74,32.74,0,0,0,.22,7.82c-.49.37,0,2.77-.19,3.57l0-.08C.59,24.81-.08,27,.27,29c0-.07-.17-.12-.18-.57.07,1.44.19,3.42-.09,3.53.1,3.45,0,8.27.47,10.48l-.08-.15a20.59,20.59,0,0,1,.22,3c0,.07-.06.17-.07.16.31,1.37.07,4,.21,5.11l-.19.08.06,2.73,0-1c.51.35-.31,2.07,0,4A11.73,11.73,0,0,0,.9,58.33c.14.78.31,1.44.44,2a10.64,10.64,0,0,1,2.85-.16c.92-.24-.81.38.56.21,0,.27-.64.16-.29.38,1.35-.12,2.21.29,3.87.13l.07.21c2.17-.36,4.09.31,5.54,0,2.24-.15,1.5.64,3.83.25l.9.29c1,.06.72-.34,1.83-.19-.07.18,1.39.16.74.32,2.5.3,5.09-.34,8.38.16.72-.34,2.38-.12,2.91-.37.09.15,3.33,0,1.46.36-.16,0-.44,0-.42,0l-.23.21c1.88.4,3.42-.18,5.28-.11-.55-.07-1.28-.06-.79-.19l1.73,0L39.2,62l2.57.13-.35-.22c1.28.12,1.65.49,3.17.2.29,0,.29-.08.18-.12s-.35-.07-.42-.1-.19-.06-.16-.08l.13,0h.49l3.83.22c0-1.9,0-4,0-5.94-.23.21-.24-.37-.31-1l.21-.08c-.37-2.27.43-.85.12-3.1l.15.19-.45-.58c-.48-2,.39-1.12-.25-3.37.07.9-.44.44-.39-.67l.21.27a8.47,8.47,0,0,1-.13-1.22c.13.36.3.19.24-.71l.27.59-.43-1.68c.18-1.32-.16-3.39.1-3.94a13.82,13.82,0,0,0-.29-3.46c.22.56.24-1,.48-.56A10.35,10.35,0,0,1,47.92,33l0,.16c.13-3.2-.51-5.45-.32-8.33-.23.14-.15-1.38-.45-1-.41-3,.45-5.43-.54-6.47A10,10,0,0,1,46.83,15l.06.32c-.16-2.52-.19-3.26-.23-5.14-.13-.93-.58-1.06-.53-2.75.2.54.14-.15.12-.77,0,.4.11.52.2-.31a1.68,1.68,0,0,1-.13-.46s0,0,0,0c-.09-1.05-.14-.87-.15-.38,0,0-.06,0-.11.17a10.38,10.38,0,0,0,0-1.95c0-.21,0-.42,0-.61s0-.4,0-.57a1.51,1.51,0,0,1,.11-.68c0-.67-.07-1.31-.1-1.88L43.28.22l-.65.06-.45,0-.83.1c-1.1.14-2.16.27-3.29.36-.3-.14.31-.3,1.07-.4L37.27.53c0-.23,1.06-.18,1.63-.24C36.67,0,34.35.84,31.74.61l-.54.2-.15,0c0,.09-.57.24-.95.29-.38-.18,0-.45-1.28-.39a21.15,21.15,0,0,0-4.22.37c.72,0,.49.13.19.21a10.07,10.07,0,0,0-1.52,0L23.2,1c.26.24-1.67.34-1.9.46-.38-.18,1-.21,1.14-.36l-3.87.19c-1.36.26.26.24-.38.5a23,23,0,0,1-3.8.23l.45.22a21.14,21.14,0,0,1-5.19.13C-7.28,4.94,6.17,5.09,6.17,5.09,12.89,5.33,16.32,4.5,24.29,4Z"/><path class="cls-1" d="M10.58,10.71,54,8.93q1,29.45,2,58.9l-45-.45Z"/><path class="cls-2" d="M39.6,8.3l.53.07S40,8.29,39.6,8.3Z"/><path class="cls-2" d="M9.61,53a.5.5,0,0,0,0-.12A1.13,1.13,0,0,0,9.61,53Z"/><path class="cls-2" d="M52.13,15v0c0-.05,0-.1,0-.14Z"/><path class="cls-2" d="M33.36,11.58c7-.17,8.9.21,16.15-.28l2.27-.08.11,0,0,.07v0L52,12c.05,1,.11,2,.15,3,.41,1.59.16,4.44.52,6.34l-.18.74a6.93,6.93,0,0,1,.14,2.08l-.06,0c.18,1,.13,2.09.22,2.57l-.06,0,.07,1.19-.1-.2a36.26,36.26,0,0,1,.27,5l.24-.13c-.16,3.32.38,4.52.16,7.52l-.06,0c.77,3.77-.24,6,.51,9.88-.1-.49-.12.21-.18.17.13,1.8.23,3.71.71,3.73,0,1.31-.12,1.07-.3,1.24.21,0,.34,1.12.38,2.14l-.09-.46.17,2.92.37-.59c-.06,1.56-.47.41-.32,1.9l.33,0a16.3,16.3,0,0,1-.25,2.78c-.06.42-.13.85-.2,1.29l0,.34,0,.18a.49.49,0,0,1,0,.07l-.09.19v.39l-4.45,0-6.26.12c-4.15.06-8.22.06-12-.25l-.35-.25c-.15-.36-2.22.51-2.53.18l-.93.15c-.26-.06-.82-.14-.35-.21a5,5,0,0,0-1.51.13l-.93-.23c-3.41-.21-6.32.2-9.91.07l-.88-.08-.89-.07a4.26,4.26,0,0,0-.5-.06,2.67,2.67,0,0,0,0-.4c0-.41,0-.83,0-1.26,0-1.16-.09-2.34-.13-3.49-.12-2.31-.24-4.52-.33-6.25-.59-6.58.79-14.24.13-21a1.68,1.68,0,0,0-.11-.78V26.34s-.07-29.89-2.89-7.16L9.29,19a33.36,33.36,0,0,0,.21,7.82c-.48.37,0,2.77-.18,3.56l0-.07c.39,2.05-.28,4.24.07,6.22A.74.74,0,0,1,9.17,36c.07,1.45.19,3.42-.09,3.53.1,3.46,0,8.27.46,10.48l-.08-.15a18.18,18.18,0,0,1,.22,3c0,.08,0,.18-.07.16.31,1.37.08,4,.21,5.12l-.18.07L9.7,61l0-1c.52.35-.3,2.07,0,4.05A11.73,11.73,0,0,0,10,65.91c.13.78.3,1.44.44,2a10.29,10.29,0,0,1,2.85-.17c.92-.23-.82.38.56.21,0,.27-.65.16-.29.38,1.35-.11,2.21.3,3.87.13l.07.21c2.17-.36,4.09.32,5.54,0,2.24-.15,1.49.63,3.83.25l.9.29c1,0,.72-.34,1.82-.19-.07.17,1.4.15.75.32,2.5.3,5.09-.35,8.38.15.72-.33,2.37-.11,2.91-.37.09.15,3.33.06,1.46.37-.16,0-.44,0-.42,0l-.23.2c1.88.41,3.42-.18,5.28-.1-.55-.07-1.29-.06-.79-.2l1.72,0-.36.17,2.58.12-.36-.22c1.29.13,1.65.49,3.18.21.29,0,.29-.08.18-.12s-.35-.07-.42-.1-.19-.06-.17-.08.06,0,.14,0l.14,0h.35l3.82.22c0-1.9,0-4,0-5.93-.23.21-.24-.37-.31-1l.2-.07c-.36-2.27.44-.85.13-3.11l.15.2-.46-.59c-.48-2,.4-1.11-.24-3.36.07.89-.45.43-.39-.67l.21.27a7.24,7.24,0,0,1-.13-1.22c.12.36.3.18.24-.72l.27.6L57,52.27c.17-1.32-.17-3.39.1-3.94a14.34,14.34,0,0,0-.29-3.46c.21.56.24-1,.48-.56A10.09,10.09,0,0,1,57,40.56l0,.17c.13-3.21-.51-5.46-.32-8.34-.24.14-.15-1.38-.45-1-.41-3,.45-5.43-.55-6.47a9.81,9.81,0,0,1,.2-2.31l.06.32c-.16-2.53-.2-3.26-.24-5.14-.12-.94-.57-1.07-.52-2.75.2.54.14-.15.12-.78,0,.4.11.52.2-.31a1.68,1.68,0,0,1-.13-.46s0,0,0,0c-.1-1.05-.15-.86-.15-.37,0,0-.06,0-.11.17a10.38,10.38,0,0,0,0-1.95c0-.22,0-.42,0-.61v-.58a1.56,1.56,0,0,1,.12-.67c0-.67-.07-1.31-.1-1.88l-2.88.22-.65.06-.45,0-.83.1c-1.1.13-2.16.26-3.29.36-.3-.14.31-.31,1.07-.4l-1.86.13c0-.22,1.06-.17,1.63-.24-2.23-.27-4.55.55-7.17.33l-.53.2-.15,0c0,.1-.57.25-1,.29-.38-.18,0-.45-1.28-.38a21.15,21.15,0,0,0-4.22.37c.72,0,.49.12.19.2a13.74,13.74,0,0,0-1.52,0l-.07-.26c.26.24-1.67.34-1.91.45-.37-.18,1-.21,1.15-.36l-3.87.2c-1.37.25.26.24-.39.49a21.71,21.71,0,0,1-3.79.24l.45.21a20.72,20.72,0,0,1-5.19.14c-16.93,2.6-3.48,2.75-3.48,2.75C22,12.92,25.4,12.09,33.36,11.58Z"/><path class="cls-3" d="M58.75,68.35c-5.25-.12-9.37-2.29-10.35-5.55-.64-2.14,0-5.1,1.25-5.56,1.72-.59,4.25,3.31,4.71,2.94S51,55.5,51.54,50.38c.06-.6.36-3.31,1.88-3.92,1.72-.67,4.33,1.61,5.65,3.92,2.46,4.32,1,9.78,1.25,9.8s.22-8.29,3.77-9.8a3.43,3.43,0,0,1,3.13.33c2.65,1.77,1.69,7.32,1,9.8-.49,1.61-1.42,4.69-4.4,6.53A9,9,0,0,1,58.75,68.35Z"/><path class="cls-2" d="M21,18.32l.08.05S21.09,18.32,21,18.32Z"/><path class="cls-2" d="M41.83,19.68l0,0Z"/><polygon class="cls-2" points="24.24 20.11 24.24 20.11 24.22 20.12 24.24 20.11"/><path class="cls-2" d="M20.12,20.06a15.8,15.8,0,0,0,2.49.12c.54,0,1.11-.05,1.63-.07.25-.2.68,0,1-.15l.11.11a.33.33,0,0,1,.32,0v0c.15-.08.32,0,.4-.06v0h.18l0,0a1.59,1.59,0,0,1,.78,0l0-.14c.51.19.71-.09,1.16.13v0c.62-.32.9.32,1.53,0-.08,0,0,.08,0,.11.28,0,.58,0,.61-.26.2,0,.16.1.17.21,0-.12.19-.14.35-.13l-.07,0,.45,0-.06-.23c.24.1,0,.28.27.25l0-.18c.33.08.48.38.79.56,1.33.27,2.85,0,4.09.45l0,.15c0,.2.38-.26.41-.08l.16-.07s.12.08,0,.12c.14,0,.14,0,.25-.07l.14.14a13.82,13.82,0,0,0,1.58,0,5.87,5.87,0,0,0,2.73-.05c1-.29,2.28.48,3.35.08,0,0,.12,0,.12-.07l1,0s4.72-.38,1-1.68l0,0a1.56,1.56,0,0,0-1.2.18c-.08-.26-.44,0-.56-.07v0c-.31.23-.67-.13-1,.07,0,0,0-.1.09-.11-.22.05-.53.12-.55,0-.53.06-1.28,0-1.62.26l0,0c-.19.17-.25,0-.47.12a.11.11,0,0,0,0,0c-.22.16-.62,0-.8.09v-.11l-.42,0,.16,0c-.07.28-.32-.19-.63,0-.29-.05-.61.57-.91.42-.15.13.14-.21-.08-.12,0-.15.1-.09,0-.21-.21.06-.33-.17-.6-.08v-.12c-.35.19-.62-.2-.86,0s-.21-.36-.58-.16L37,19.25c-.15,0-.13.18-.29.09,0-.1-.21-.1-.1-.18-.37-.19-.81.14-1.28-.18-.14.18-.38,0-.48.16,0-.08-.51-.07-.2-.22,0,0,.07,0,.06,0l.05-.11c-.26-.25-.54.05-.82,0,.08.05.19.05.11.12l-.27-.05.07-.09-.39-.11,0,.13c-.19-.09-.23-.3-.47-.17s.16.19,0,.2a5.33,5.33,0,0,0-1-.38c0,.14-.08.12-.18.14v-.12c-.38.11-.1-.27-.47-.19l0-.08-.13.23c-.35.19-.14-.26-.54,0,.15,0,0,.26-.13.19l.06-.11c-.1,0-.14.06-.2,0s.05-.16-.1-.16l.12-.13-.3.17c-.19-.14-.54,0-.61-.19,0,0-.44-.12-.56,0,.1-.1-.14-.16-.06-.28-.13.1-.48.18-.61,0l0,0c-.5-.17-.89.12-1.34-.07,0,.14-.22.05-.17.22-.48.15-.85-.39-1,.14-.22,0-.25-.14-.36-.17l.05,0a3.87,3.87,0,0,1-.82,0c-.15.05-.18.3-.44.23.08-.09,0-.08-.13-.08.07,0,.09-.05,0-.12a.27.27,0,0,1-.08.07v0c-.17,0-.14.07-.06.08s0,0,0,.06c-.17-.13-.48,0-.5-.16a9.51,9.51,0,0,0-1.27.3c-.05-.09,0-.17.17-.21l-.3,0c0-.12.17-.07.26-.1-.36-.2-.72.22-1.14.05l-.08.1h0c0,.05-.08.12-.14.14s0-.25-.22-.23-.45.07-.66.14c.11,0,.08.08,0,.12s-.16-.1-.24,0l0-.15c.05.14-.26.17-.29.23-.06-.11.15-.11.17-.19l-.61.06c-.21.13.05.14,0,.28s-.37.16-.6.09l.08.12a1,1,0,0,1-.82,0c-1.28.66-1.37,1.05-1.15,1.26a1.47,1.47,0,0,0,.74.25C18.4,20.66,18.89,20.24,20.12,20.06Z"/><path class="cls-2" d="M43.56,28.2l0,0h0Z"/><path class="cls-2" d="M46.82,27.13h0s0,0,0,0S46.81,27.12,46.82,27.13Z"/><path class="cls-2" d="M46,27.39l0,0S46,27.38,46,27.39Z"/><path class="cls-2" d="M44,28.28l-.11-.06A.1.1,0,0,0,44,28.28Z"/><path class="cls-2" d="M46.11,27.45,46,27.39A.3.3,0,0,0,46.11,27.45Z"/><path class="cls-2" d="M48.36,27.14l-.07,0s0,0,0,0Z"/><path class="cls-2" d="M16.52,29.48c.08,0,.09-.05.08-.08A.29.29,0,0,1,16.52,29.48Z"/><path class="cls-2" d="M18.3,29.51l0,0S18.31,29.52,18.3,29.51Z"/><path class="cls-2" d="M17.29,28.91a.06.06,0,0,0,0,0A0,0,0,0,0,17.29,28.91Z"/><path class="cls-2" d="M29.8,27.3l-.05,0A.1.1,0,0,0,29.8,27.3Z"/><path class="cls-2" d="M32.15,27.16h0Z"/><path class="cls-2" d="M32.22,27.16h0Z"/><path class="cls-2" d="M48.43,27.36c.06-.07.2-.09.21-.17l-.28-.05C48.46,27.21,48.51,27.3,48.43,27.36Z"/><path class="cls-2" d="M24.54,30.13c.09,0,.13,0,.15,0l-.16,0Z"/><path class="cls-2" d="M26.61,29.41h0Z"/><path class="cls-2" d="M24.37,30.22a.05.05,0,0,0,0,0S24.38,30.24,24.37,30.22Z"/><path class="cls-2" d="M43.1,28.52l0,0Z"/><path class="cls-2" d="M26.47,29.29l.14.12a.17.17,0,0,1,.06-.06C26.7,29.25,26.54,29.26,26.47,29.29Z"/><path class="cls-2" d="M24.37,30.22a.32.32,0,0,1,.16-.09l-.07-.07C24.28,30.07,24.36,30.16,24.37,30.22Z"/><path class="cls-2" d="M16.37,29.12c.09.07-.21.17,0,.21l.17-.15c0,.07.07.15.09.22.07-.14-.22-.24,0-.43.05-.09.2-.07.28,0-.17,0,0-.13.08-.18s.28,0,.33.13a.16.16,0,0,1,.16,0v0c.13,0,0,0,0-.09s.24.09.39.09a.94.94,0,0,0-.39.11c.28.09-.05.25-.11.37a2.78,2.78,0,0,0,.49-.22c.22.1,0,.35-.08.36a3.75,3.75,0,0,0,.53-.26c-.16.18-.13.24-.27.39.16.11.2,0,.28-.09s-.12,0-.14,0c.2,0,.17-.27.27-.39.14.08.42.12.39.29v-.18c.16,0,.08.09.11.15.06-.12,0-.3.27-.34-.05.29.25,0,.24.29.13,0,.19-.16.33-.13s-.22.36-.3.31,0-.12-.05-.12l-.18.08c.1.06.3.12.27.24.19-.05-.14-.12.06-.19l.12.07c.21-.07,0-.21.23-.24-.18.13.28,0,.27.2,0-.24.47,0,.53-.22l-.14-.05,0,.1a1.29,1.29,0,0,1-.44,0c.13-.09,0-.21.11-.28s.07.13.11.13l.21-.13-.14-.1a1.83,1.83,0,0,1,.63,0c.34.14-.05.13.2.27.11-.05.08-.11.24-.09-.09-.07-.15,0-.21,0s.28-.06.26-.21c.07.06.05.12,0,.18.26-.05.52,0,.61.17l.12-.19c.44.08-.31.17.06.29.16,0,.31,0,.38-.06h-.14c.11-.09.1-.17.27-.23s.05.14.19,0c.36.11.11.29.05.46.26.1-.14.35,0,.27l-.05,0,.27-.24c-.25-.21-.1.19-.2,0l-.15,0c0-.1.4,0,.43-.14a.19.19,0,0,1-.19.21l.09.23c.09,0,.15-.13.2,0s-.2.23.13.29S24,30,24.25,30c0,0-.09,0-.16-.06.08-.07-.06-.14.07-.2.08.16.33.15.53.15-.06.09.07.17,0,.22.1,0,.2,0,.24-.11-.39-.12.38-.13.08-.29.31,0,.36.16.55.24,0,0-.35.09-.08.16.32-.15-.05-.22.2-.41l-.2-.06c0-.2.34-.05.39-.09s-.17.05-.05.19.27-.08.39,0c-.12.13,0,.08-.17.2.42,0,0,.15.3.24.1,0,0-.14.2-.11-.09-.14-.08-.19-.35-.2.1-.21.35.06.55-.06-.16,0,0-.05-.21,0,0-.17-.08-.2.07-.36-.18,0-.26.23-.51.17-.06-.18.31-.13.32-.36s.43,0,.57.07c.24-.13.54-.13.73-.34.18.07.62-.12.95-.05.05.1.41.07.2.18,0,0,.31-.05.24-.14S29,29,29,29l.05-.13c.16.06.35-.1.5,0s-.29.06-.19.18a1.14,1.14,0,0,1,.95-.17c.12,0,.14.18.19.2h.22a.64.64,0,0,0,.06.18.3.3,0,0,0,.25,0c.28.11.12.24,0,.34l-.16-.06c-.12.07-.28,0-.19.19.08,0,.08-.08.11-.11l.09.08c.1-.06.36-.09.33-.2.19.09.41,0,.58.08-.11-.07,0-.11,0-.2l-.2,0c.16,0,.4-.11.55,0,0,.07,0,.09,0,.17-.11-.1.29-.13.06-.26a.47.47,0,0,1-.29,0c-.07-.15.11-.17.21-.25l.54-.13c.11,0,.14.21.32.11-.23-.15.23-.24.29-.39.17.07.29-.12.43,0-.08.06-.35.05-.42.16s.06.29-.21.34c.32.06.19-.09.34-.13h-.11s-.05-.13,0-.13a1.43,1.43,0,0,1,.69.31c0-.08.07-.15.13-.16.24.11,0,.23.14.4.08-.1.25-.07.19-.15.1,0,.05.05.12.08a.3.3,0,0,1,.27-.14c0,.05,0,.12-.16.09a.21.21,0,0,1,.13.3l-.24-.07c-.11.11.22.05.21.16s-.18,0-.25,0,.27,0,.39,0,.12.14.12.2c.33-.18-.36-.21-.06-.39.11-.13.4-.1.6-.13-.17-.15,0-.22.23-.26-.27,0-.07-.18-.38-.09v-.12c.14,0,.3.06.43.06,0,0,0,.07,0,.09l.4,0,0,.08a3.28,3.28,0,0,0,.7.07c-.12,0-.22-.11-.1-.14a.51.51,0,0,1,.32-.1c.06.14.49.15.21.28a4.58,4.58,0,0,0,.56-.17l-.22,0c0-.11.16-.3-.05-.37.25-.07.09-.27.43-.29.14.07,0,.23-.23.25.09,0,.18.08.28,0,.07.09-.19.16-.18.2.17,0,0-.06.16-.09s.18.19.46.12c-.06,0-.17,0-.1-.09.37,0,.21-.11.48-.16.15.16.08.34.32.38h-.14a.48.48,0,0,0,.3.12c.5-.13.92-.38,1.44-.49l-.18,0c-.06-.05.15-.06.15-.12l.12.07c0-.12-.26-.12-.19-.23a.08.08,0,0,0,.07,0l-.1,0c.24,0,.43-.16.61,0-.47,0-.08.34-.54.4.25-.05,0,.12.07.18s.06-.09.21,0c0,.08-.32.15-.18.22,0-.13.14-.1.21-.19s0,.08,0,.12.09-.06.15,0l-.05.08c.3.12.1-.12.44-.08,0-.11-.1-.08-.24-.07-.07-.24.44-.25.42-.51.32,0-.09.1.18.17s-.2.17-.27.29l.28.11c-.1.2-.27.13-.33.32.21,0,.19,0,.41-.11-.35-.16.15-.13,0-.33.16.05.11.1.34.1-.14,0,0,.17-.2.17.31,0,.23-.06.54-.07.11-.14-.31-.19.07-.29.08,0,.07.05,0,.05.27.06-.06-.18.12-.26s.16,0,.11.08c.17-.08.08-.18.2-.21l-.06,0s-.08-.25.17-.26.13.09.13.14a.4.4,0,0,1,.36,0s0-.06,0-.06c.25-.05.14.13.23.15.35.08,0-.28.35-.28L44.07,28c0-.07,0-.18-.06-.18s-.18.2-.33.18.41-.13.16-.28c.09,0,.22,0,.33,0-.12.13.36,0,.16.18a5.69,5.69,0,0,0,1,0,.62.62,0,0,1-.57.22l0-.08c-.29.09.23.09.17.22.37-.2.81.11,1.26.05-.08-.07,0-.11,0-.18-.18,0-.15,0-.28-.05,0-.09.13-.06.19-.12s-.13,0-.2-.06a.51.51,0,0,0,.26-.16c.09.09.08.14.15.23.42,0,.38-.16.72-.12-.19,0,.08.11-.12.07l.11,0c-.29.14-.8.13-.75.38a5.39,5.39,0,0,1,.71-.16l0,.05c.21,0,0-.06,0-.1.24-.08.3.24.47.07l-.24,0c.18-.1-.06,0,0-.18.33-.12.89,0,1.35-.14a.49.49,0,0,0-.34-.1c.08-.22.15-.19.07-.39h-.22v-.21a.45.45,0,0,1,.16,0c0-.13.32,0,.34-.08l-.18,0c-.09-.11.12-.1.25-.13-.12-.14-.39,0-.65,0,0,.07-.24.22,0,.24,0,.09-.15.13-.25.13s-.19-.23,0-.29c-.22.1-.09,0-.34.05,0-.06-.43,0-.4-.19-.07.08,0,.27-.28.27.07.13.38.15.17.28l.14-.08c.19.06-.06.13.2.18-.08,0-.23.06-.26,0,.06.27-.39.12-.41.32-.05-.08-.13-.09-.27-.07,0-.07-.06-.14.06-.19s.15,0,.25.06c-.05-.27-.36-.09-.6-.15,0,0,0,0,0,.08s-.46-.09-.37-.22l-.72,0c0-.06.1,0,.14,0h-.4c-.09-.09.14-.08.18-.16h-.29l0-.08c-.07.05-.41.07-.49-.06-.32,0-.32.3-.75.17,0-.13.25,0,.35-.13-.08,0-.34.05-.39-.08-.31.07-.28.31-.43.44s0-.12,0-.16-.2.24-.26.06c-.13.09-.2.2,0,.25-.13,0-.33.06-.36.12.11-.2-.15-.08-.17-.24-.2,0-.65-.1-.85.11l.06-.21-.24,0c-.17-.14.22-.14.34-.15-.33,0-.54,0-.84,0,.09,0,0,.09.08.15s-.24,0-.35.05,0-.1.07-.12l-.2,0c0-.14-.08-.14.12-.22l-.18,0c-.21,0,0-.11.06-.15l-.32,0c-.12.07.06.12-.16.15a4.74,4.74,0,0,0-1-.13l.24.13c-.21,0-.17.18-.23.27a3.49,3.49,0,0,1-.6-.08c.18-.1.11-.25-.06-.35-.38,0-.29.21-.51.28.17-.26-.26-.09-.22-.23-.49,0-1,.08-1.48.07,0,0,.15.08.06.12a.26.26,0,0,1-.3-.12.66.66,0,0,0-.46.17c.11,0,.12,0,.1.09-.24,0-.17-.16-.4,0-.06-.14.25-.07.23-.21a1.12,1.12,0,0,0-.5.11c0-.09.15,0,0-.09l-1,.19-.06-.12a.61.61,0,0,0-.34.08c-.08-.05,0-.08.07-.09a3.53,3.53,0,0,0-.59.09c0-.08.12,0,.16-.07-.27,0-.61.19-.78,0a.12.12,0,0,1,.08,0c-.39,0-.74.06-1.16.07-.39-.15-.13.18-.51.15,0-.31-.52,0-.68-.08l.05,0a.55.55,0,0,1-.58-.08,2.44,2.44,0,0,0-1,.09l.06-.06c-.24.08-.39,0-.62.06,0,0,.09-.06,0-.09-1.14-.11-2.3.07-3.43,0a49.69,49.69,0,0,0-7,0S16.23,28.58,16.37,29.12Z"/><path class="cls-2" d="M42.87,28.7h0Z"/><path class="cls-2" d="M37.77,28.49a.22.22,0,0,0,.08,0Z"/><path class="cls-2" d="M33.42,28.86h0Z"/><path class="cls-2" d="M26.8,29.35c0,.09-.15.25,0,.33.54,0,.23-.35.79-.32l-.28-.1c0,.16-.19.24-.41.25l-.06-.12.12-.08C26.89,29.29,26.9,29.39,26.8,29.35Z"/><path class="cls-2" d="M27,29.31h0Z"/><path class="cls-2" d="M45.06,42.44,45,42.38S45,42.43,45.06,42.44Z"/><path class="cls-2" d="M24.32,43.84h0Z"/><polygon class="cls-2" points="41.88 40.55 41.88 40.55 41.9 40.53 41.88 40.55"/><path class="cls-2" d="M46.15,40.8a11,11,0,0,0-2.57-.32,13.65,13.65,0,0,0-1.7.07c-.25.2-.71,0-1,.19l-.12-.11a.38.38,0,0,1-.34,0v0c-.15.09-.33,0-.41.1v0l-.19,0,0,0a1.88,1.88,0,0,1-.8.1l0,.13c-.54-.12-.72.17-1.21,0v0c-.57.41-1-.16-1.57.25.08-.06,0-.07,0-.1-.29.06-.59.12-.56.39-.21,0-.18-.07-.22-.16,0,.11-.16.18-.32.21l.07-.06-.45.1.12.21c-.25,0-.1-.26-.33-.17l0,.18c-.34,0-.57-.24-.92-.33-1.36.11-2.73.78-4,.57l-.06-.13c-.05-.2-.32.33-.38.15l-.14.1s-.13-.06-.06-.11c-.14,0-.14,0-.23.1L28.68,42c-.53-.06-1,.22-1.52.19a6.87,6.87,0,0,0-2.65.19c-1,.31-2.19-.52-3.24-.23,0,0-.13,0-.13.05l-.95-.09s-4.63-.53-1.25,1.49l0,0a1.54,1.54,0,0,0,1.25,0c0,.28.44.06.56.16l0,0c.34-.19.67.21,1,0,0,0,0,.09-.09.09.23,0,.55-.07.56.09.55,0,1.32.07,1.67-.18l0,0c.2-.17.26,0,.48-.11,0,0,0,0,0,0,.22-.17.64,0,.81-.1l0,.1.43,0-.16,0c0-.29.33.17.64,0,.3,0,.58-.62.88-.49.14-.14-.11.22.1.11,0,.15-.1.1,0,.21.21-.08.36.14.62,0l0,.12c.33-.23.66.11.87-.11s.27.33.62.07l.16.15c.16,0,.1-.2.28-.14,0,.1.23,0,.13.16.42.11.79-.3,1.34-.1.09-.21.37-.13.43-.28,0,.08.53-.05.26.16,0,0-.07,0-.07,0l0,.12c.33.18.52-.19.82-.19-.09,0-.21,0-.14-.09l.27,0,0,.1H33l-.07-.11c.2,0,.3.22.5,0s-.21-.13,0-.2a5.4,5.4,0,0,0,1,.11c0-.13,0-.14.13-.18l0,.11c.33-.21.16.24.49.07l0,.08.06-.25c.29-.27.2.22.51-.14-.13,0-.09-.25.08-.22l0,.12c.09,0,.11-.09.18-.07s0,.16.12.13l-.07.15.23-.24c.22.1.52-.09.62.06s.44,0,.53-.15c-.08.12.16.14.11.27.1-.13.42-.26.57-.14l0,0c.5.09.83-.25,1.28-.12,0-.13.21-.07.14-.24.46-.2.86.31,1-.23.21,0,.25.12.36.14l-.05,0a4.07,4.07,0,0,1,.8-.06c.14-.05.16-.3.43-.25-.09.1,0,.08.12.08-.07,0-.08.06,0,.12a.16.16,0,0,1,.08-.06v0c.16,0,.13-.07.06-.08s0,0,0-.06c.17.12.47,0,.49.16.49,0,.85-.21,1.26-.27,0,.09-.06.17-.17.2l.29,0c0,.13-.17.07-.26.09.34.21.71-.18,1.11,0l.09-.1,0,0c0-.05.1-.12.16-.13s0,.25.18.25.46,0,.67-.08c-.11,0-.07-.08,0-.12s.15.12.23.08v.14c0-.14.27-.13.31-.19.05.12-.16.09-.19.17l.6,0c.22-.1,0-.14.08-.27s.39-.1.6,0l-.06-.14a.94.94,0,0,1,.81.12c1.38-.4,1.57-.74,1.4-1a1.59,1.59,0,0,0-.69-.41C48,40.44,47.43,40.78,46.15,40.8Z"/><path class="cls-2" d="M44.73,56.8s0,0,0,0h0Z"/><path class="cls-2" d="M48,55.61h0s0,0,0,0S47.93,55.6,48,55.61Z"/><path class="cls-2" d="M47.14,55.9l0,0S47.11,55.89,47.14,55.9Z"/><path class="cls-2" d="M45.18,56.86l-.12-.06A.11.11,0,0,0,45.18,56.86Z"/><path class="cls-2" d="M47.25,56l-.11-.05A.16.16,0,0,0,47.25,56Z"/><path class="cls-2" d="M49.49,55.57l-.08,0v0Z"/><path class="cls-2" d="M17.75,59.06c.08,0,.09,0,.08-.08A.3.3,0,0,1,17.75,59.06Z"/><path class="cls-2" d="M19.54,59l0,0S19.54,59,19.54,59Z"/><path class="cls-2" d="M18.5,58.47v0A0,0,0,0,0,18.5,58.47Z"/><path class="cls-2" d="M30.94,56.4l0,0S30.92,56.39,30.94,56.4Z"/><path class="cls-2" d="M33.28,56.17h0Z"/><path class="cls-2" d="M33.35,56.17h0Z"/><path class="cls-2" d="M49.57,55.78c0-.07.19-.1.19-.18l-.27,0C49.59,55.63,49.64,55.72,49.57,55.78Z"/><path class="cls-2" d="M25.79,59.43a.4.4,0,0,0,.15,0l-.16,0Z"/><path class="cls-2" d="M27.83,58.63h0Z"/><path class="cls-2" d="M25.63,59.51l0,.05S25.64,59.54,25.63,59.51Z"/><path class="cls-2" d="M44.27,57.14h0Z"/><path class="cls-2" d="M27.69,58.51l.14.12.06-.07C27.91,58.47,27.75,58.48,27.69,58.51Z"/><path class="cls-2" d="M25.63,59.51a.32.32,0,0,1,.15-.09l-.07-.06C25.52,59.37,25.61,59.46,25.63,59.51Z"/><path class="cls-2" d="M17.59,58.71c.09.07-.2.18,0,.21l.17-.16c0,.07.08.16.1.22.06-.14-.23-.23,0-.43s.2-.07.28,0c-.17,0,0-.13.07-.19s.29,0,.34.12.1,0,.15,0v0c.13,0,0,0,0-.1s.24.08.39.07a.86.86,0,0,0-.38.14c.27.08,0,.24-.11.37a3.73,3.73,0,0,0,.49-.24c.22.09,0,.35-.07.37.2-.08.41-.24.52-.29-.15.19-.12.25-.25.4.16.11.19,0,.27-.1s-.12,0-.13,0c.19,0,.15-.28.25-.41.14.08.42.11.4.28v-.18c.16,0,.08.09.11.15.06-.13,0-.3.26-.36,0,.3.25,0,.25.29.13,0,.19-.17.33-.14s-.2.36-.29.32,0-.12-.05-.12l-.18.09c.1.05.3.11.28.23.19-.06-.15-.12.05-.2l.12.07c.21-.07,0-.2.22-.24-.17.13.29,0,.28.18,0-.24.47,0,.52-.23l-.14-.06,0,.11a1.24,1.24,0,0,1-.43,0c.12-.09-.05-.2.09-.28s.08.12.12.12l.21-.13-.15-.1a2.07,2.07,0,0,1,.63-.05c.34.13,0,.13.21.26.1-.05.08-.11.23-.1-.08-.07-.15,0-.2,0-.08-.16.27-.08.25-.23.07.06.06.12,0,.19.26-.07.51-.05.61.14l.11-.19c.45.06-.3.18.08.29.15,0,.31,0,.37-.08h-.13c.1-.1.09-.18.25-.25s.06.14.2,0c.36.1.11.28.06.45.26.1-.13.36.05.28l-.05,0L24.6,59c-.26-.2-.1.19-.2,0l-.16,0c.05-.1.4,0,.43-.16a.2.2,0,0,1-.19.22l.1.23c.09,0,.15-.14.2,0s-.19.24.14.29.33-.24.57-.21c0,0-.08,0-.16,0,.08-.08-.06-.14.07-.2.08.15.33.14.53.13-.05.09.07.17,0,.22.1,0,.19,0,.23-.12-.4-.11.38-.14.07-.29.31,0,.37.14.57.22,0,0-.36.1-.08.16.31-.17-.06-.22.18-.42l-.2,0c0-.2.34-.06.39-.1s-.17.05-.05.19.28-.09.39,0a1.66,1.66,0,0,1-.16.21c.42,0,0,.15.31.23.1,0,0-.14.2-.12-.1-.14-.09-.19-.36-.18.09-.22.36,0,.54-.09-.15,0,0,0-.21,0,0-.17-.09-.2.06-.37-.17.06-.25.25-.5.2-.07-.18.31-.14.3-.38s.43,0,.57.06c.25-.15.54-.16.73-.37.17.06.61-.14.94-.09.06.1.41.06.21.18,0,0,.31-.06.23-.15s-.06,0-.12,0l.05-.13c.16,0,.34-.12.5,0s-.29.07-.19.19a1.19,1.19,0,0,1,.94-.21c.13,0,.15.18.2.2l.22,0c0,.05,0,.11.07.18a.34.34,0,0,0,.25,0c.28.09.13.23,0,.34l-.16,0c-.12.07-.28,0-.18.19.08,0,.07-.08.1-.11l.1.08c.09-.07.35-.11.32-.22.19.08.41,0,.58.06-.12-.07,0-.12,0-.2l-.21,0c.16,0,.4-.13.55-.05,0,.07,0,.09.06.16-.11-.1.28-.13,0-.25a.52.52,0,0,1-.28,0c-.08-.16.1-.18.2-.27l.54-.14c.1,0,.14.2.32.1-.24-.15.21-.25.27-.41.18.07.29-.13.43,0-.07.06-.34.06-.41.17s.07.29-.2.35c.32.05.19-.09.33-.14H34.5s0-.12,0-.12a1.35,1.35,0,0,1,.71.28c-.06-.08.05-.16.11-.17.25.1,0,.24.16.4.08-.11.25-.08.19-.16.1,0,.05,0,.12.07A.28.28,0,0,1,36.1,58s0,.12-.15.09a.21.21,0,0,1,.14.29l-.24-.05c-.1.11.22,0,.21.15s-.18,0-.25,0,.27,0,.39,0,.13.13.13.19c.32-.19-.37-.2-.08-.39.11-.13.4-.12.6-.15-.18-.15,0-.22.22-.27-.27,0-.07-.18-.39-.07v-.13c.14,0,.3,0,.43,0,0,0,0,.06,0,.08l.41-.06,0,.08a3.09,3.09,0,0,0,.7.05c-.12,0-.23-.1-.1-.14a.53.53,0,0,1,.31-.11c.07.14.49.13.23.28a5,5,0,0,0,.54-.2l-.22,0c0-.11.15-.3-.06-.37.25-.07.09-.27.42-.3.14.06,0,.23-.22.26.09,0,.18.07.28,0,.07.09-.18.16-.17.2.17,0,0-.06.16-.09s.18.18.46.1c-.06,0-.17,0-.1-.08.37,0,.2-.12.47-.18.15.16.09.33.33.37h-.13a.45.45,0,0,0,.3.11c.5-.15.91-.41,1.42-.55l-.18,0c-.07-.06.15-.07.15-.14l.11.07c0-.11-.26-.1-.19-.22a.08.08,0,0,0,.07,0l-.1,0c.24,0,.43-.18.61,0-.47,0-.06.35-.52.42.24-.06,0,.12.07.17s.06-.09.2,0-.31.17-.17.23c0-.14.14-.11.21-.21s0,.09,0,.13.1-.06.15-.05l0,.08c.3.12.09-.12.43-.09,0-.11-.1-.08-.24-.06-.07-.24.43-.27.4-.53.32,0-.08.11.19.17s-.2.17-.26.29l.28.1c-.09.21-.27.15-.31.34.21,0,.18-.05.39-.13-.34-.15.15-.13-.05-.33.16,0,.11.09.34.09-.14.05,0,.17-.19.18.31,0,.23-.07.54-.09.09-.15-.32-.19.05-.3.08,0,.07,0,0,0,.27.06-.06-.18.11-.26s.16,0,.11.08c.18-.09.08-.19.2-.22l-.06,0c.05,0-.09-.25.16-.26s.13.08.14.13a.38.38,0,0,1,.35,0s0-.06,0-.06c.24-.05.14.13.23.15.35.06-.05-.28.34-.29l-.45,0c0-.07,0-.18-.07-.18s-.17.21-.32.19.4-.14.15-.28c.09,0,.21,0,.33,0-.11.13.36,0,.17.17a4.73,4.73,0,0,0,1-.06.62.62,0,0,1-.56.24l0-.07c-.29.1.23.08.18.21.36-.21.81.08,1.25,0-.08-.07,0-.11,0-.18-.18,0-.15,0-.28,0s.13-.06.19-.13-.14,0-.2,0a.52.52,0,0,0,.25-.16c.09.08.08.13.16.22.42,0,.37-.18.71-.15-.19,0,.09.11-.12.08h.11c-.28.16-.79.16-.73.41a5.47,5.47,0,0,1,.7-.18v0c.21,0,0-.06,0-.1.24-.09.31.23.47.05l-.24,0c.18-.11-.06,0,0-.19.32-.13.88-.05,1.33-.18a.49.49,0,0,0-.34-.1c.07-.22.14-.19.06-.38h-.22v-.2a.29.29,0,0,1,.16,0c0-.13.32,0,.34-.09l-.18,0c-.09-.1.12-.1.24-.14-.12-.13-.39,0-.64,0,0,.08-.23.24,0,.25,0,.08-.15.13-.25.14.05-.05-.19-.23,0-.29-.21.1-.09,0-.34,0,0-.06-.43,0-.4-.17-.08.08,0,.27-.27.28.07.12.38.14.17.27l.14-.08c.2.05-.05.13.21.18-.08,0-.23.06-.27,0,.07.26-.38.14-.39.33-.06-.07-.13-.08-.27-.06,0-.07-.06-.14.05-.19s.15,0,.25,0c-.06-.26-.36-.08-.6-.13,0,0,0,0,0,.09s-.47-.08-.38-.21l-.72.05c0-.06.1,0,.15-.05h-.41c-.1-.08.14-.08.18-.16h-.3l0-.08c-.07,0-.4.08-.49-.05-.32.05-.31.32-.74.21,0-.14.24,0,.34-.14-.08,0-.34.05-.39-.07-.3.08-.27.31-.41.45s0-.12-.05-.15-.19.24-.26.06c-.12.1-.19.21,0,.26a.52.52,0,0,0-.35.12c.1-.2-.16-.07-.18-.23-.2,0-.66-.07-.84.14l.05-.21-.24,0c-.18-.13.21-.14.33-.16a7.42,7.42,0,0,0-.83,0c.08,0,0,.08.07.15s-.23,0-.34,0,0-.09.07-.11l-.2,0c0-.13-.09-.13.11-.22l-.18,0c-.21,0,0-.11,0-.15l-.32,0c-.12.08.07.12-.15.16a4.26,4.26,0,0,0-1-.09l.24.12c-.21,0-.16.18-.22.27a3,3,0,0,1-.61,0c.18-.1.1-.26-.07-.35-.38,0-.28.22-.5.3.17-.26-.26-.08-.23-.23-.49,0-1,.13-1.48.13,0,0,.16.08.07.12a.26.26,0,0,1-.3-.11.68.68,0,0,0-.45.19c.1,0,.11,0,.1.08-.24,0-.18-.15-.4,0-.07-.14.25-.08.22-.21a.94.94,0,0,0-.49.12c0-.08.14,0,0-.09l-1,.22-.07-.12a.56.56,0,0,0-.33.1c-.08,0,0-.08.06-.1a4.32,4.32,0,0,0-.58.11c0-.07.12,0,.15-.07-.26,0-.59.22-.77.07a.11.11,0,0,1,.07,0c-.39,0-.73.1-1.15.12-.39-.14-.12.18-.51.17,0-.31-.52,0-.68-.06l0,0a.55.55,0,0,1-.58-.06,2.47,2.47,0,0,0-1,.13l.06-.06c-.24.08-.39,0-.62.08,0,0,.09-.07,0-.09-1.14-.07-2.29.15-3.43.14a49.44,49.44,0,0,0-7,.27S17.43,58.18,17.59,58.71Z"/><path class="cls-2" d="M44.05,57.32h0Z"/><path class="cls-2" d="M39,57.31h0Z"/><path class="cls-2" d="M34.61,57.83l.09,0Z"/><path class="cls-2" d="M28,58.56c0,.09-.14.26,0,.33.54,0,.22-.36.78-.34l-.29-.1c0,.16-.17.25-.39.27l-.07-.12.12-.09C28.1,58.5,28.12,58.59,28,58.56Z"/><path class="cls-2" d="M28.21,58.52h0Z"/><path class="cls-2" d="M49.27,36.28c.07-.12,0,0-.07,0Z"/><path class="cls-2" d="M49.2,36.24l-.05,0S49.18,36.24,49.2,36.24Z"/><path class="cls-2" d="M48.73,36.06c.13-.09.24.09.34-.07A.19.19,0,0,0,48.73,36.06Z"/><polygon class="cls-2" points="48.88 36.2 48.91 36.11 48.79 36.23 48.88 36.2"/><polygon class="cls-2" points="48.94 36.29 48.93 36.26 48.76 36.32 48.94 36.29"/><path class="cls-2" d="M48.36,35.93h.12c.08.14-.1.16,0,.25s.09-.25.26-.17c0-.12-.28,0-.22-.23C48.34,35.69,48.45,35.88,48.36,35.93Z"/><path class="cls-2" d="M41.45,36l0,0S41.44,36,41.45,36Z"/><path class="cls-2" d="M39.58,36l-.08,0,0,0Z"/><path class="cls-2" d="M42.64,35.78l.07.06A.09.09,0,0,0,42.64,35.78Z"/><path class="cls-2" d="M30.72,34.74s0,0,0-.06h0l0,0Z"/><path class="cls-2" d="M37.49,36.16l-.09,0C37.45,36.18,37.47,36.18,37.49,36.16Z"/><path class="cls-2" d="M43.32,35.84h0l0,0v0Z"/><path class="cls-2" d="M40.17,36.28l-.07,0Z"/><path class="cls-2" d="M46.67,35.44a.08.08,0,0,0-.09,0S46.62,35.49,46.67,35.44Z"/><path class="cls-2" d="M46,35.36Z"/><path class="cls-2" d="M45.57,35.29h0S45.57,35.26,45.57,35.29Z"/><path class="cls-2" d="M46.58,35.45c0-.08,0-.32-.13-.07v0c0-.06-.12,0-.17,0s0,0,0,.06l.11,0C46.46,35.61,46.52,35.49,46.58,35.45Z"/><path class="cls-2" d="M41.46,36s0,0,0,0Z"/><path class="cls-2" d="M42.05,35.83H42A.07.07,0,0,0,42.05,35.83Z"/><path class="cls-2" d="M44.2,36.14v0S44.19,36.15,44.2,36.14Z"/><path class="cls-2" d="M41.94,35.81H42A0,0,0,0,0,41.94,35.81Z"/><path class="cls-2" d="M43.57,35.92h0Z"/><path class="cls-2" d="M21.74,33.92s.07,0,.11.06c.09-.16-.19,0-.06-.15a.14.14,0,0,0-.1.05l.06.16C21.83,34,21.69,34,21.74,33.92Z"/><path class="cls-2" d="M30.17,34.4l0,0c0-.07,0-.1-.07-.14-.06.12,0,.28-.08.4a.14.14,0,0,1,.09,0A.33.33,0,0,1,30.17,34.4Z"/><path class="cls-2" d="M30.13,34.69h0v0l.05,0S30.15,34.71,30.13,34.69Z"/><path class="cls-2" d="M23.19,34h0S23.2,34,23.19,34Z"/><path class="cls-2" d="M37.71,34.14l.06,0A.1.1,0,0,0,37.71,34.14Z"/><path class="cls-2" d="M31.21,34.56l.06,0h0Z"/><path class="cls-2" d="M27.76,36.1c0-.18,0,0-.1-.09l-.07.09C27.65,36.13,27.71,36.1,27.76,36.1Z"/><polygon class="cls-2" points="21.68 33.87 21.68 33.88 21.69 33.88 21.68 33.87"/><path class="cls-2" d="M25.72,36.14l0,0Z"/><path class="cls-2" d="M30.53,34.77h.27l-.08,0C30.68,34.83,30.57,34.66,30.53,34.77Z"/><path class="cls-2" d="M28.87,36.21l0,.11c.25-.24.55.1.76-.23.31.38.2-.35.49,0V36a10.54,10.54,0,0,0,2.85.08v.08c1.43.13,2.82,0,4.24,0,.14-.07.06-.24.18-.33s.16,0,.16.1,0,.14-.08.17c.15,0,.35.12.5,0L37.88,36s.14,0,.19,0,0,.2,0,.23c.31-.29.22.14.48,0,.06-.25.39-.45.61-.62l.1.07c-.14,0,0,.19-.18.17.14.08.29,0,.42,0a.15.15,0,0,1,0-.18c.09,0,.09.17.18.2l-.1.07c.06.1.13,0,.19,0s.16.14.12.26c.15-.14.19-.05.34-.14-.14-.12,0-.14,0-.23l-.17,0c.23.09-.08,0-.08.2-.1-.09.18-.29,0-.28.23-.08.27,0,.51-.13-.14,0,0-.11,0-.18.17,0,0,.07.08.2s.12.11.22,0c.15.07,0,.13,0,.22s-.42-.2-.41.21c-.08,0-.19.15-.3.13.09.06.23.21.36.13l0-.23c.1,0,.13-.15.2-.13s0,.17.09.15-.05,0,0-.06S41,36,41.15,36c-.13-.08-.15-.15-.28-.26.05-.16.1,0,.18,0s0,0,0,.06l.08-.07c.17.09,0,.23.1.32s.14-.06.21,0v0l0,0v0c.09,0,.19,0,.23-.11,0,.06.08,0,.11,0s.2-.17.25,0h0c.11,0,.19.1.16.17l.18.06,0,.16c.17,0,.16-.12.3-.27.11.11.33,0,.41,0h.07l-.06-.07c.13,0,.12-.06.21,0s0,0,0,0l0,0s0,0,0,0v0c.09.18.17-.07.28,0h0c.06,0,.12.28.16.15,0,0,0,0,.07,0l0,0,0,0s.07-.09.07-.06L44,36s.08,0,.11,0l0,.07c.06,0,.06,0,.05.06.17.25.33-.08.53.14.05-.1,0-.16,0-.22s.18-.13.25-.18c.08.16.36.33.28.54.18,0,0-.14.07-.2h0a.41.41,0,0,1-.13-.2c0-.12.17-.13.22-.09l-.06.16c.18,0,.18-.29.3-.44.13.08,0,.22,0,.37l.14,0v.13c.09,0,.13-.13.25-.07-.11.11.17.15,0,.28.07.06.12-.18.13,0,.07-.12,0-.07-.08-.12s.17-.07.26-.11-.07.11,0,.19.1-.12.14,0c0-.12.12,0,.17,0a.19.19,0,0,1-.08-.24.23.23,0,0,1,.22,0L46.8,36c.13-.16.14.16.28.12-.07.07-.1.06-.16.15a1.49,1.49,0,0,1,.31-.16l.08.19c0-.09.13,0,.15-.09.12.1-.14.13-.17.22.17.11.18-.19.31,0l-.07.11s.18,0,.17,0,0,0-.05,0c.07-.24.28-.13.3-.39l-.07,0c.13,0,.24-.19.32-.08s-.08.16-.13.22.13-.26.26-.21a.14.14,0,0,1,0-.2c-.07,0-.23-.11-.21,0l0,0c0,.07-.07.08-.09.11s0-.12,0-.17S48,36,47.81,36v0c-.09,0-.21,0-.26.2,0-.18-.19,0-.25-.08,0-.36.26.07.39-.11-.07-.09.08-.17.12-.24l-.29.11s-.06-.25-.13-.12h0c-.11,0-.11.18-.19.11s0-.09,0-.11-.09.07-.15.09.07-.14,0-.19c-.12.13-.15-.06-.23-.06,0,.21-.38.23-.23.44l-.22.11c-.05-.12.18-.27.15-.45l.16,0c0-.26-.36.12-.43-.19-.08,0-.07,0-.21-.13v.23a.27.27,0,0,1-.08-.24.25.25,0,0,1-.15,0,.16.16,0,0,1,.07-.07c0-.13-.07-.09-.1,0s-.09,0-.15,0l.06-.07s-.08,0-.09.07h-.06a.51.51,0,0,0,.09.25c-.18-.11-.35-.09-.49-.3,0-.06.1-.14.08-.15s-.19.06-.2.16H45A.16.16,0,0,0,45,35.1a.07.07,0,0,0,0-.05c-.06.18-.21.07-.25.15a.18.18,0,0,0,.13,0c-.09.12-.17.25-.21.14.15-.1-.11-.2.09-.23-.1-.25-.09.16-.22.06l-.08-.11c0-.13.15,0,.14-.09h-.07c.08-.09.31,0,.48-.12l-.29-.11c-.39.11-.84-.13-1.2.12h0a.22.22,0,0,0,0,.09v0l-.07.09c-.06-.13-.19-.17-.3-.28.07.09.07.09.06.19s0,.19-.14.13.07-.09,0-.17a.08.08,0,0,1-.06.12c0-.07-.15-.09-.14-.19s.05,0,.07,0-.11-.1,0-.16H42.7c-.05-.08.06-.12,0-.17-.19,0-.31.25-.48.3a.84.84,0,0,0,0-.2c-.12-.08-.29.2-.44.21,0-.07.08,0,.13-.06a4.49,4.49,0,0,1-1.19-.39l-.13.2-.09-.15a2.29,2.29,0,0,0-1.19,0c-.13,0-.07-.15-.13-.22-.28,0-.36.2-.64.23,0-.06.12-.24,0-.26s0,.16-.11.12l0-.07c-.06-.1-.13,0-.27-.06a.94.94,0,0,0-.7.37c-.22,0,0-.23,0-.28.15.08.11,0,.15-.11s-.19.09-.22-.07a.36.36,0,0,0-.28.11c.06,0,.1,0,0,.1s-.33,0-.31-.19c-.53,0-1.13,0-1.7,0-.1.1.07,0,0,.11s-.11-.07-.23,0l.05-.1c-.16,0-.35.18-.51.28,0-.13-.13-.1,0-.18-.08,0-.17-.52-.23-.41l.08.51s-.12,0-.11,0-.15-.22-.19-.22.1-.1.16-.09c0-.22-.22-.14-.12-.33-.14,0,0,.1-.07.18l-.12,0,.1.07c-.11.06-.15.22-.28.11l-.15.2c0-.16-.1,0-.17-.07l0-.1a.24.24,0,0,1-.2-.09c.06-.15.09,0,.12-.1l-.11,0c0,.09-.07.17,0,.22-.1.18-.15.33-.4.31s.12-.14.08-.3c-.26-.07-.32.42-.47.4s-.19.09-.38.1c.06-.11-.13-.12-.17-.23l.08-.11c-.06,0-.12,0-.1-.09,0,.15-.25.14-.39.21l0,.13c-.11,0-.25.12-.36.09s-.13.15-.26.29a.57.57,0,0,1,0-.39c.05.06.12,0,.19.07s.38-.38.59-.32c.09-.31-.15,0-.25-.07s0,0,0,0h0a.35.35,0,0,0,.22-.25c-.13,0-.1.31-.25.18-.12.09-.21-.16-.28-.18s-.08.37-.27.32L31,34c-.21,0-.1.26-.3.25.07,0-.06.17.07.18a.27.27,0,0,1-.32.06s0,.05,0,.11.19-.11.29.06l.08-.19a.2.2,0,0,1,.05.29s.06,0,.08,0c0,.28-.13-.1-.17.14l.08,0c0,.18-.18.16-.28.15s-.22-.12-.23-.25l.16-.06c-.08-.1-.2.07-.29.06a.05.05,0,0,0,0,0v0l-.05-.06c-.07,0-.19.07-.26,0v0c.07,0,.17.08.11.17s-.19-.15-.23-.25.16,0,.24-.06-.16,0-.33-.14c.07-.19.19,0,.23-.17-.13,0-.17.1-.31.05,0-.09.15-.1.15-.21l-.09-.06c.22,0,0-.24.13-.29-.08-.08-.11.16-.23,0,0,.09.12.24,0,.32l-.12-.06c-.06-.09.13-.21.05-.29l-.14.07c0,.06.07.09,0,.17s-.12.23-.21.31-.13,0-.16-.08c-.17.17-.4.16-.57.33.12-.12,0-.2-.07-.29.13,0,.13-.21.12-.33s-.13.21-.09.27c-.13-.07-.09.13-.21,0s0-.18,0-.25,0,.22-.19.18c0,0,0,0,0-.07s-.17,0-.19.14c-.09-.24-.25,0-.24-.21-.2.07,0,.13,0,.21s-.24,0-.29,0,.1-.07.15,0l0-.16c-.25-.12-.15.37-.4.22.13-.08,0-.12.1-.23s-.22,0-.11.12l-.22-.07a.53.53,0,0,0-.21.21.5.5,0,0,1-.28-.2c-.27.11-.52-.09-.8,0h0c-.22,0,.1.21-.13.21,0-.2-.14-.14-.21-.24-.28-.1-.49.14-.74,0a.1.1,0,0,1,.06-.1,1.91,1.91,0,0,0-.53,0v0c-.28-.16-.54,0-.84.08,0,0,0-.1.05-.13-.15,0-.38-.07-.49.11-.17-.2-.11.06-.34-.13,0,0,0,0,0,0a.66.66,0,0,0-.3-.07c-.25.12-.31.38-.6.3,0-.27.18-.06.18-.28-.06,0-.11.1-.18,0s0-.07,0-.16-.25.28-.25.25,0,.08.08.07c-.07.17-.28,0-.42.08,0,0,.18.06.13.19-.19-.06-.25.2-.38.31-.17-.12.13-.23.09-.42s-.09-.22,0-.29c-.16,0-.27.12-.41.16v0c-.2,0-.4.25-.57.15l.09.06s-.13,0-.18.12c0-.09-.12-.17-.07-.24-.09.29-.44.17-.54.44-.05-.07,0-.18,0-.25s.16.08.22,0c-.1,0-.17-.07-.15-.13-.11.17-.35.24-.4.42-.08-.09-.15-.14-.12-.29-.31.1.15.46-.2.46-.16-.15.16-.2-.06-.24l0,0c-.16-.38-.12.27-.3.26,0-.21.13-.15,0-.3-.17.06-.24.36-.41.3l0-.09c-.11,0-.31,0-.42,0s0,0,0,0c-.19-.07-.08.11-.24,0l-.05.1c.08.07.24.17.34,0-.1.12.16.26.1.44l0-.07a1.8,1.8,0,0,0,.94.45c.21-.21.36.09.59-.06,0-.24,0-.05.24-.1-.11,0,0,.19.05.22a.33.33,0,0,1,.13-.11c0,.09.28.28.38.12.11.07,0,.07-.06.12s.1-.09.14,0,0,0,0,0a2,2,0,0,1,.48.08c0-.23.19-.09.28-.17s.1.09.16.13l.1-.17c.1-.15.14.1.27,0l0,0c.09-.07.34.07.44.2.87-.47,1.35.26,2.28.13.06-.07,0-.12,0-.22a.81.81,0,0,1,.2,0c-.07-.06-.06,0-.05-.05l-.13.07s0,0,0-.06-.1.07-.16.06.11-.24.22-.17L24,35.6c.09,0,.09-.07.16,0s.06,0,.07.06l.27.1c.13-.21.29,0,.33,0s-.17,0-.24.2l.1.11v-.12l.14,0v0c0-.05,0-.1.07-.06s0,0,0,.06l.1-.07c-.06.13.08,0,.07.19.31.08.39-.2.67,0-.05-.07.09-.23.17-.21a.09.09,0,0,1,0,.13L26,36c.14.23.28.08.48.16v.06a.28.28,0,0,1,.27-.11l0,.13c.14.09.1-.28.26-.19,0-.14-.1-.22-.12-.35,0,.14.2.16.16.06.16-.06.11,0,.12,0l.09-.09c.11,0,0,.19,0,.27.1-.15.21,0,.32,0l0,.06.15,0A.28.28,0,0,1,28,36l-.08.18c.09.1,0-.06.07-.09s.17,0,.24.14C28.46,36,28.68,36.49,28.87,36.21ZM44.16,36l0,0S44.22,36,44.16,36ZM43,35.85c.16-.06.1,0,.11.08-.14-.07-.23,0-.35-.09a.27.27,0,0,1,0,.12.15.15,0,0,1-.1-.16C42.71,35.62,43,36,43,35.85Zm2.86-.57,0,0h0Zm-.75.06s0-.07,0-.08S45,35.35,45.06,35.34Zm-1.42-.41c0-.08-.11-.07-.17,0A.49.49,0,0,0,43.64,34.93Zm-9.2-.4s.13-.11.05-.17-.1,0-.14.06h0A.84.84,0,0,0,34.44,34.53Zm-4.32.63c0-.07,0-.16,0-.22h0s0-.05,0-.06-.08,0-.1,0C30,35.12,30,35.17,30.12,35.16Z"/><path class="cls-2" d="M31.56,34.13h0Z"/><path class="cls-2" d="M30.05,34.88s0,0,.08.06S30.1,34.89,30.05,34.88Z"/><path class="cls-2" d="M48,36.48l0,0,.07.09c.15-.06.18-.17.23-.29-.14.1-.21,0-.38,0Z"/><path class="cls-2" d="M48.09,35.65s0-.13-.05-.14l0,.07Z"/><path class="cls-2" d="M46.47,35l.13.08C46.65,35,46.51,34.9,46.47,35Z"/><path class="cls-2" d="M46.86,36.41l.09-.07c-.05-.08-.14-.08-.17,0S46.79,36.4,46.86,36.41Z"/><path class="cls-2" d="M46.11,35c-.06.14-.13-.09-.17,0C46,35,46.08,35.09,46.11,35Z"/><path class="cls-2" d="M46,36.37c0,.15.11,0,.19.08S46,36.28,46,36.37Z"/><path class="cls-2" d="M45.33,35.27c0-.11.07-.09.13-.06s0,.08-.07.09a.88.88,0,0,1,.21-.09c-.07-.08-.2-.15-.16-.28C45.36,35,45.26,35.16,45.33,35.27Z"/><path class="cls-2" d="M45.79,36.36c.07,0,.09.16.18.16s0-.19-.12-.18l.06-.12C45.83,36.11,45.92,36.39,45.79,36.36Z"/><path class="cls-2" d="M45,34.93,45,35c.11-.09.23,0,.31-.17A.51.51,0,0,0,45,34.93Z"/><path class="cls-2" d="M45.48,36.08l0,.17c.1,0,0-.06,0-.09s.07.05.09,0S45.59,36,45.48,36.08Z"/><path class="cls-2" d="M45.13,36.23l-.13.06.07.2C45.22,36.44,45.09,36.38,45.13,36.23Z"/><path class="cls-2" d="M45,36.09v0l-.22.23A.74.74,0,0,0,45,36.09Z"/><path class="cls-2" d="M42.82,34.68c0,.08.07.18,0,.09S42.74,34.6,42.82,34.68Z"/><path class="cls-2" d="M43.12,36.13c0-.06-.23,0-.32.07C42.9,36.17,43.12,36.23,43.12,36.13Z"/><path class="cls-2" d="M42.77,36.21h0Z"/><path class="cls-2" d="M39.5,36.31l0,0Z"/><path class="cls-2" d="M39.58,36.28a.15.15,0,0,0,.18-.09.85.85,0,0,0-.26.12S39.58,36.37,39.58,36.28Z"/><path class="cls-2" d="M38.84,36.19s.09,0,.08-.09S38.81,36.14,38.84,36.19Z"/><path class="cls-2" d="M33.83,33.93c-.07,0-.11,0-.09.1S33.78,34,33.83,33.93Z"/><polygon class="cls-2" points="33.64 34.05 33.63 34 33.59 33.91 33.64 34.05"/><path class="cls-2" d="M33.14,33.89l0,0S33.12,33.87,33.14,33.89Z"/><path class="cls-2" d="M33.19,33.84h0Z"/><path class="cls-2" d="M33.22,33.87v-.06l0,0S33.22,33.84,33.22,33.87Z"/><path class="cls-2" d="M33,33.87l.09.17c.11-.08-.11-.09,0-.27Z"/><path class="cls-2" d="M32.65,33.92c-.09-.06-.22.21-.27,0-.26.1,0,.33-.24.4.28.1.14-.38.39-.27C32.41,33.94,32.61,34,32.65,33.92Z"/><path class="cls-2" d="M32.69,34.25a.07.07,0,0,0-.13,0S32.65,34.36,32.69,34.25Z"/><polygon class="cls-2" points="32.15 34.01 32.07 33.93 32.05 33.99 32.15 34.01"/><path class="cls-2" d="M31.84,34l.08-.12S31.78,33.89,31.84,34Z"/><path class="cls-2" d="M31.43,33.82c-.08,0-.14.23,0,.17h0S31.33,33.85,31.43,33.82Z"/><path class="cls-2" d="M30.45,34.24c.05,0,.11,0,.1-.08l-.13.05Z"/><path class="cls-2" d="M30.47,34.88c.05.16.13,0,.22,0A.38.38,0,0,0,30.47,34.88Z"/><path class="cls-2" d="M30.3,34c0-.07.09,0,.13,0S30.31,33.93,30.3,34Z"/><path class="cls-2" d="M30.08,34.07c0-.07,0-.09,0-.14a.16.16,0,0,0-.25,0,.53.53,0,0,1,0,.33c.16,0,.24-.35.31-.12l.13-.28C30.14,33.84,30.16,34.08,30.08,34.07Z"/><path class="cls-2" d="M30.39,34.6l-.08-.1c0,.1,0,.11-.09.14C30.24,34.85,30.34,34.61,30.39,34.6Z"/><polygon class="cls-2" points="29.23 34.19 29.05 34.24 29.11 34.25 29.23 34.19"/><polygon class="cls-2" points="29.11 34.12 29.11 34.06 28.98 34.17 29.11 34.12"/><polygon class="cls-2" points="28.93 34.05 28.95 34.06 29.05 34.01 28.93 34.05"/><path class="cls-2" d="M28.57,34l0,.09s.13.07.12,0S28.59,34.08,28.57,34Z"/><path class="cls-2" d="M27.38,36.21a.22.22,0,0,0,0-.16l-.05.15S27.37,36.17,27.38,36.21Z"/><path class="cls-2" d="M27.17,36l-.13.17c.15,0,.17-.11.3-.13-.05-.06-.13.06-.2,0Z"/><path class="cls-2" d="M24.59,35.84c0-.11,0-.09.07-.16a1,1,0,0,1-.39.06c0,.07-.09.18,0,.16l.17-.07,0,.07C24.5,36,24.46,35.78,24.59,35.84Z"/><path class="cls-2" d="M17.84,34.7a.2.2,0,0,0,0-.15C17.72,34.61,17.86,34.69,17.84,34.7Z"/><path class="cls-2" d="M49.67,50.56c.07-.13,0-.05-.07,0Z"/><path class="cls-2" d="M49.6,50.52l-.05,0A.05.05,0,0,0,49.6,50.52Z"/><path class="cls-2" d="M49.13,50.34c.13-.09.23.08.33-.07A.18.18,0,0,0,49.13,50.34Z"/><polygon class="cls-2" points="49.28 50.48 49.31 50.39 49.18 50.51 49.28 50.48"/><polygon class="cls-2" points="49.33 50.57 49.32 50.53 49.15 50.6 49.33 50.57"/><path class="cls-2" d="M48.76,50.21h.11c.09.14-.09.15,0,.25s.1-.25.26-.18c0-.11-.28-.05-.22-.22C48.73,50,48.85,50.15,48.76,50.21Z"/><path class="cls-2" d="M41.84,50.29v0S41.83,50.31,41.84,50.29Z"/><path class="cls-2" d="M40,50.27l-.07,0s0,0,0,.05Z"/><path class="cls-2" d="M43,50.06l.07,0A.1.1,0,0,0,43,50.06Z"/><path class="cls-2" d="M31.11,49a.11.11,0,0,0,0-.06h0l0,0Z"/><path class="cls-2" d="M37.88,50.44l-.08,0S37.87,50.46,37.88,50.44Z"/><path class="cls-2" d="M43.71,50.12h0l0,0v0Z"/><path class="cls-2" d="M40.56,50.56l-.06,0Z"/><path class="cls-2" d="M47.06,49.72a.06.06,0,0,0-.08,0S47,49.76,47.06,49.72Z"/><path class="cls-2" d="M46.39,49.64Z"/><path class="cls-2" d="M46,49.56h0S46,49.54,46,49.56Z"/><path class="cls-2" d="M47,49.73c0-.08,0-.32-.14-.07v0c0-.06-.11,0-.16,0a.13.13,0,0,0,0,.06l.1,0C46.85,49.89,46.91,49.77,47,49.73Z"/><path class="cls-2" d="M41.85,50.24s0,0,0,0Z"/><path class="cls-2" d="M42.44,50.11l0,0S42.42,50.12,42.44,50.11Z"/><path class="cls-2" d="M44.59,50.41h0S44.59,50.43,44.59,50.41Z"/><path class="cls-2" d="M42.33,50.09h.06A.06.06,0,0,0,42.33,50.09Z"/><path class="cls-2" d="M44,50.2h0Z"/><path class="cls-2" d="M22.13,48.2c.05,0,.07,0,.11.06.1-.17-.19,0,0-.15a.16.16,0,0,0-.11,0l.06.15C22.22,48.25,22.09,48.26,22.13,48.2Z"/><path class="cls-2" d="M30.57,48.68l0,0c0-.08,0-.1-.08-.14s0,.28-.07.4a.12.12,0,0,1,.08,0A.34.34,0,0,1,30.57,48.68Z"/><path class="cls-2" d="M30.52,49h0l0,0,0,0A.11.11,0,0,0,30.52,49Z"/><path class="cls-2" d="M23.59,48.27h.05S23.6,48.25,23.59,48.27Z"/><path class="cls-2" d="M38.1,48.42l.06-.05A.1.1,0,0,0,38.1,48.42Z"/><path class="cls-2" d="M31.61,48.84l.05,0h0Z"/><path class="cls-2" d="M28.15,50.38c0-.18,0,0-.1-.09l-.07.09C28,50.41,28.1,50.38,28.15,50.38Z"/><polygon class="cls-2" points="22.08 48.14 22.08 48.16 22.08 48.16 22.08 48.14"/><path class="cls-2" d="M26.12,50.42l0,0Z"/><path class="cls-2" d="M30.93,49.05h.26l-.08,0C31.08,49.1,31,48.94,30.93,49.05Z"/><path class="cls-2" d="M29.27,50.48l0,.11c.26-.23.56.11.76-.22.32.38.21-.35.5,0v-.06a10.47,10.47,0,0,0,2.84.08v.08c1.43.13,2.83,0,4.24,0,.14-.07.07-.24.18-.33s.17,0,.16.1-.05.14-.08.17c.16,0,.36.12.5,0l-.11-.13c.06,0,.14,0,.19,0s0,.2,0,.23c.31-.29.23.14.48,0,.07-.26.39-.45.61-.62l.11.07c-.15,0,0,.19-.19.17.14.08.29,0,.43,0a.15.15,0,0,1,.05-.18c.08,0,.08.17.18.19l-.1.08c.06.1.12,0,.18,0s.16.15.13.26c.14-.13.18,0,.33-.13-.14-.13,0-.14,0-.23l-.17,0c.23.09-.08,0-.07.2-.11-.1.17-.3,0-.28.23-.08.28,0,.52-.13-.14,0,0-.12,0-.18.18,0,0,.07.09.19s.12.11.22,0c.15.07,0,.14,0,.22s-.41-.19-.4.22c-.08,0-.19.15-.31.13.1.06.23.21.36.13l0-.23c.09,0,.13-.16.19-.13s0,.17.1.15-.05,0,0-.07.17-.16.35-.18c-.14-.08-.16-.15-.28-.26,0-.16.09,0,.17,0s0,0,0,.06l.09-.07c.17.09,0,.23.09.32s.15-.06.22,0l0,0h0c.1,0,.19,0,.23-.11,0,.06.08,0,.12,0s.19-.17.25,0h0c.12,0,.2.1.17.16l.18.07,0,.16c.17,0,.17-.12.3-.27a.42.42,0,0,0,.42,0h.07l-.07-.07c.13,0,.13-.06.21-.05s0,0,0,0l0,0h0v0c.08.18.17-.07.27,0h0c.06,0,.13.28.17.15s0,0,.06,0l.05,0-.05,0s.07-.09.07-.06l.16,0a.11.11,0,0,0,.11,0l0,.07c.06,0,.05,0,0,0,.18.26.33-.07.53.15.06-.1,0-.16,0-.22a.92.92,0,0,1,.25-.19c.08.17.37.34.29.55.18,0,0-.14.06-.2h0a.34.34,0,0,1-.12-.2c0-.12.17-.13.21-.09l-.06.16c.18,0,.18-.29.31-.44.12.08,0,.22,0,.37l.15,0,0,.13c.1,0,.14-.14.25-.07-.1.1.18.14,0,.28.06,0,.12-.18.13,0,.07-.13,0-.08-.08-.12,0-.2.16-.07.26-.11s-.08.11,0,.19.1-.12.15,0c0-.12.11,0,.17,0a.19.19,0,0,1-.08-.24.21.21,0,0,1,.21,0l-.07-.07c.13-.16.14.16.29.12-.07.07-.11.06-.17.15a2.88,2.88,0,0,1,.31-.17l.09.2c0-.09.12,0,.14-.09.13.1-.13.13-.16.22.16.1.17-.19.31,0l-.08.1c.06,0,.18,0,.18,0s0,0-.06,0c.08-.24.29-.13.31-.39l-.08,0c.13,0,.25-.19.32-.08s-.08.16-.13.22c.11,0,.14-.26.27-.22-.06,0,0-.14,0-.2s-.23-.1-.22,0l0,0c0,.06-.06.08-.09.11s0-.12,0-.17c-.17-.07-.06.25-.22.21v-.05c-.09.05-.21,0-.26.19,0-.17-.19,0-.25-.07,0-.37.27.07.39-.11-.07-.09.08-.17.13-.24l-.29.11c0-.06-.07-.25-.14-.13l0,0c-.11,0-.1.17-.19.11s0-.09,0-.11-.08.07-.14.09.06-.14,0-.19c-.12.12-.15-.06-.24-.06,0,.21-.38.23-.22.44l-.23.1c-.05-.11.18-.26.15-.44l.17,0c0-.26-.37.11-.43-.19-.09,0-.07,0-.22-.13v.23a.38.38,0,0,1-.08-.24.22.22,0,0,1-.14,0,.16.16,0,0,1,.07-.07c0-.13-.07-.09-.11,0s-.09,0-.14,0l.06-.08s-.08,0-.09.08H46a.54.54,0,0,0,.1.25c-.19-.12-.35-.09-.5-.3,0-.07.1-.14.08-.15s-.19.06-.19.16h-.05c0-.06,0-.12-.06-.14a.08.08,0,0,0-.05-.05c0,.18-.2.07-.25.15a.27.27,0,0,0,.13,0c-.08.12-.16.25-.2.14.14-.1-.11-.2.09-.23-.11-.25-.09.16-.23.06l-.08-.11c0-.13.16,0,.14-.1h-.06c.08-.09.31,0,.48-.12L45,49c-.4.11-.85-.12-1.2.13h0s0,0,0,.09v0l-.08.09c-.06-.13-.19-.17-.29-.28a.23.23,0,0,1,.06.19c0,.13,0,.19-.15.13s.07-.09,0-.17a.08.08,0,0,1-.05.12c-.06-.07-.15-.09-.15-.19s.05,0,.07,0-.1-.1,0-.17l-.11,0c-.06-.09,0-.12,0-.17-.19,0-.3.25-.47.3a1.77,1.77,0,0,1,0-.2c-.13-.08-.3.2-.44.2,0-.06.08,0,.12,0a4.28,4.28,0,0,1-1.19-.4l-.12.21-.1-.15a2.29,2.29,0,0,0-1.19,0c-.13,0-.07-.16-.12-.22-.29,0-.37.2-.64.23,0-.06.11-.25,0-.26s0,.16-.12.12l0-.07c-.06-.1-.13,0-.27-.06a1,1,0,0,0-.7.37c-.21,0,0-.24,0-.28.15.08.1,0,.14-.11s-.18.09-.22-.07a.35.35,0,0,0-.28.11c.06-.06.11,0,0,.1s-.33,0-.3-.19c-.54,0-1.13,0-1.7,0-.1.1.07,0,0,.1s-.11-.06-.22,0l.05-.1c-.17,0-.35.18-.51.27,0-.12-.13-.1,0-.17-.08,0-.16-.52-.22-.41l.07.51s-.11,0-.1.05-.15-.22-.2-.22.1-.1.17-.1c0-.21-.22-.13-.12-.33-.14,0,0,.11-.07.19l-.12,0,.09.07c-.1.06-.14.22-.28.1l-.14.21c0-.17-.11,0-.18-.07l0-.11a.19.19,0,0,1-.19-.08c0-.15.08,0,.11-.1l-.11,0c0,.09-.07.17,0,.22-.1.18-.16.33-.41.31s.13-.14.08-.3c-.25-.07-.32.42-.47.4s-.18.08-.37.09c.06-.11-.14-.11-.17-.22l.07-.11c-.06,0-.11,0-.09-.09,0,.15-.26.14-.39.21l0,.13a.67.67,0,0,1-.36.09c-.17,0-.13.15-.26.29a.52.52,0,0,1,0-.39c0,.06.12,0,.19.06s.37-.37.58-.31c.09-.31-.14,0-.24-.08l0,0h0a.32.32,0,0,0,.22-.25c-.12,0-.09.31-.25.18-.11.09-.2-.16-.27-.18s-.09.36-.28.32l.09-.18c-.22,0-.1.26-.3.25.07,0-.07.17.06.17a.24.24,0,0,1-.31.06s0,.06,0,.12.18-.12.28.06l.08-.19a.21.21,0,0,1,.06.29s0,0,.08,0c0,.28-.13-.1-.17.14l.07,0c0,.18-.18.16-.28.15s-.22-.12-.22-.25l.15-.06c-.08-.1-.19.06-.28.06l0,0a0,0,0,0,1,0,0s0,0-.05,0-.19.07-.27,0v.05c.07,0,.17.08.12.17s-.2-.15-.23-.25.15,0,.23-.06-.16,0-.33-.14c.07-.19.2,0,.23-.18-.13,0-.16.11-.31.06,0-.09.16-.1.15-.22l-.09,0c.22,0,0-.25.13-.29-.08-.09-.11.16-.23,0,0,.09.13.24,0,.32l-.13-.06c-.05-.09.13-.21,0-.29l-.13.07c0,.06.07.09,0,.17-.08-.07-.13.22-.22.31a.14.14,0,0,1-.15-.09c-.18.18-.41.17-.57.34.11-.12,0-.2-.08-.29.13,0,.13-.21.12-.33s-.13.21-.09.27c-.13-.07-.09.13-.2,0s0-.19,0-.25,0,.22-.2.18c0,0,0,0,0-.07s-.17,0-.19.14c-.09-.24-.25,0-.23-.21-.2.06,0,.13,0,.21s-.23,0-.28,0,.09-.07.14,0l0-.16c-.25-.12-.16.36-.4.22.12-.08,0-.12.1-.23s-.23,0-.11.12a.93.93,0,0,1-.22-.08c-.08.07-.17.11-.21.22a.54.54,0,0,1-.29-.21c-.27.12-.52-.08-.8,0h0c-.22,0,.1.21-.13.2,0-.19-.13-.13-.21-.23-.28-.11-.48.14-.74,0a.1.1,0,0,1,.07-.1,2,2,0,0,0-.53,0v0c-.29-.16-.55,0-.84.08,0,0,0-.1.05-.12-.15-.05-.39-.08-.49.11-.18-.2-.12,0-.34-.13,0,0,0,0,0,0a.66.66,0,0,0-.3-.07c-.25.12-.31.38-.6.3,0-.27.18-.07.19-.28-.06.05-.11.1-.19,0s0-.07,0-.17-.24.28-.24.26,0,.08.07.07c-.06.17-.28,0-.42.08.05,0,.19.06.13.19-.18-.06-.25.2-.38.31-.17-.13.13-.23.1-.42s-.1-.22,0-.29c-.15,0-.26.12-.4.16v0c-.19,0-.4.25-.56.15l.08.06s-.12,0-.18.12c0-.09-.12-.17-.07-.24-.08.28-.44.17-.53.44-.06-.07,0-.19,0-.25s.17.08.23,0c-.1,0-.18-.07-.16-.14-.1.18-.34.25-.4.43-.07-.09-.14-.14-.11-.29-.32.1.15.46-.21.46-.15-.15.16-.2-.06-.25l0,0c-.15-.38-.11.27-.29.26,0-.21.12-.15,0-.3-.16,0-.24.36-.41.29l0-.08c-.1,0-.31,0-.42,0s0,0,0,0c-.19-.08-.08.11-.24,0l0,.1c.08.08.23.18.33.06-.1.12.16.26.11.44l0-.07a1.8,1.8,0,0,0,.94.45c.21-.21.36.09.59-.06,0-.24,0-.05.24-.1-.1,0,0,.19.05.22a.32.32,0,0,1,.13-.11c0,.08.29.28.38.12.12.07,0,.07-.05.12s.09-.09.13,0a.1.1,0,0,1,0,0,2.09,2.09,0,0,1,.48.08c0-.24.19-.09.27-.17s.11.09.16.13l.1-.18c.1-.15.14.11.27,0l0,0c.1-.08.35.07.44.19.88-.46,1.36.26,2.29.14.06-.07,0-.12,0-.23a1.36,1.36,0,0,1,.2,0c-.08-.06-.06,0-.05,0l-.14.07s0,0,0-.06-.1.07-.15.06.1-.24.21-.17a.07.07,0,0,1,0,0c.09,0,.1-.07.17,0s.06,0,.07.06l.26.1c.13-.21.29,0,.33,0s-.17,0-.23.2l.09.11v-.12l.13,0v0c0-.05,0-.1.07-.06s0,0,0,.06l.1-.07c-.05.13.08,0,.07.19.31.07.4-.2.67,0,0-.07.09-.23.17-.21s.07.07,0,.13l.11-.08c.14.24.27.09.47.17v.06a.27.27,0,0,1,.27-.11l0,.13c.14.09.11-.28.26-.19,0-.15-.1-.22-.11-.35,0,.14.2.16.16.06.15-.06.11,0,.12,0l.09-.09c.1,0,0,.19,0,.27.1-.15.21,0,.33,0l-.05.06.15,0a.29.29,0,0,1,.36-.06l-.09.18c.09.1.05-.06.07-.09s.17,0,.25.14C28.86,50.26,29.08,50.76,29.27,50.48Zm15.28-.16,0,0S44.61,50.24,44.55,50.32Zm-1.2-.19c.15-.06.1,0,.1.07s-.22,0-.34-.09a.57.57,0,0,1,0,.13.2.2,0,0,1-.1-.16C43.1,49.9,43.4,50.24,43.35,50.13Zm2.85-.58,0,0h0Zm-.75.07a.09.09,0,0,0,0-.08C45.42,49.59,45.43,49.63,45.45,49.62ZM44,49.21c0-.08-.1-.07-.16-.06A.58.58,0,0,0,44,49.21Zm-9.2-.4c.05,0,.13-.11.06-.17s-.11,0-.14,0h0A.79.79,0,0,0,34.83,48.81Zm-4.32.63a.58.58,0,0,0,0-.22h0s0,0,0-.07-.07,0-.1,0C30.42,49.4,30.35,49.44,30.51,49.44Z"/><path class="cls-2" d="M32,48.41h0Z"/><path class="cls-2" d="M30.44,49.15s0,0,.09.07S30.49,49.17,30.44,49.15Z"/><path class="cls-2" d="M48.42,50.76l-.05,0,.07.08c.16,0,.18-.16.24-.28-.15.1-.21,0-.38,0Z"/><path class="cls-2" d="M48.49,49.92s0-.12-.05-.13l0,.07Z"/><path class="cls-2" d="M46.86,49.29l.13.09C47,49.32,46.9,49.18,46.86,49.29Z"/><path class="cls-2" d="M47.26,50.69l.08-.07c-.05-.08-.14-.08-.16,0S47.19,50.68,47.26,50.69Z"/><path class="cls-2" d="M46.5,49.23c-.06.14-.12-.09-.17.05C46.37,49.24,46.48,49.37,46.5,49.23Z"/><path class="cls-2" d="M46.39,50.65c0,.15.11,0,.19.08S46.43,50.56,46.39,50.65Z"/><path class="cls-2" d="M45.72,49.55c0-.11.08-.09.14-.06s0,.08-.08.09a.93.93,0,0,1,.22-.09c-.08-.09-.2-.15-.17-.28C45.75,49.3,45.66,49.44,45.72,49.55Z"/><path class="cls-2" d="M46.19,50.64c.06,0,.09.16.17.16s0-.19-.11-.18l0-.12C46.22,50.39,46.31,50.67,46.19,50.64Z"/><path class="cls-2" d="M45.37,49.2l0,.07c.12-.09.24,0,.31-.17A.51.51,0,0,0,45.37,49.2Z"/><path class="cls-2" d="M45.88,50.36l0,.17c.09,0,0-.06,0-.09s.06.05.09,0S46,50.32,45.88,50.36Z"/><path class="cls-2" d="M45.53,50.51l-.14.05.07.21C45.62,50.72,45.48,50.66,45.53,50.51Z"/><path class="cls-2" d="M45.39,50.37v0l-.23.23A1,1,0,0,0,45.39,50.37Z"/><path class="cls-2" d="M43.21,49c0,.07.08.18,0,.09S43.14,48.88,43.21,49Z"/><path class="cls-2" d="M43.52,50.41c-.05-.07-.24,0-.32.06C43.29,50.45,43.52,50.51,43.52,50.41Z"/><path class="cls-2" d="M43.17,50.49l0,0S43.17,50.48,43.17,50.49Z"/><path class="cls-2" d="M39.89,50.59l0,0Z"/><path class="cls-2" d="M40,50.55a.14.14,0,0,0,.18-.09,1.57,1.57,0,0,0-.26.13S40,50.65,40,50.55Z"/><path class="cls-2" d="M39.23,50.47s.09,0,.09-.09S39.21,50.42,39.23,50.47Z"/><path class="cls-2" d="M34.23,48.21c-.07,0-.12,0-.1.1S34.17,48.24,34.23,48.21Z"/><polygon class="cls-2" points="34.04 48.33 34.03 48.27 33.98 48.19 34.04 48.33"/><path class="cls-2" d="M33.54,48.17a.05.05,0,0,1,0-.05S33.51,48.15,33.54,48.17Z"/><path class="cls-2" d="M33.58,48.11h0Z"/><path class="cls-2" d="M33.61,48.15v-.06l0,0S33.61,48.12,33.61,48.15Z"/><path class="cls-2" d="M33.39,48.15l.09.17c.1-.09-.11-.09,0-.27Z"/><path class="cls-2" d="M33.05,48.2c-.09-.06-.23.2-.28,0-.26.1.06.33-.24.4.28.1.15-.38.4-.27C32.81,48.22,33,48.24,33.05,48.2Z"/><path class="cls-2" d="M33.09,48.53c0-.1-.1-.11-.14,0S33,48.63,33.09,48.53Z"/><polygon class="cls-2" points="32.54 48.28 32.46 48.21 32.44 48.27 32.54 48.28"/><path class="cls-2" d="M32.24,48.24l.08-.11S32.18,48.17,32.24,48.24Z"/><path class="cls-2" d="M31.82,48.1c-.07,0-.14.23,0,.17h0S31.73,48.13,31.82,48.1Z"/><path class="cls-2" d="M30.85,48.52s.11,0,.1-.09l-.14.06Z"/><path class="cls-2" d="M30.87,49.16c0,.16.12,0,.21,0C31,49.17,31,49.15,30.87,49.16Z"/><path class="cls-2" d="M30.69,48.29c0-.07.1,0,.13,0S30.71,48.21,30.69,48.29Z"/><path class="cls-2" d="M30.47,48.34c0-.06,0-.09,0-.13s-.2-.06-.25,0a.61.61,0,0,1,0,.33c.15-.06.23-.35.3-.12l.13-.28C30.53,48.12,30.56,48.36,30.47,48.34Z"/><path class="cls-2" d="M30.78,48.88l-.08-.1c0,.09-.05.11-.09.14C30.63,49.12,30.74,48.89,30.78,48.88Z"/><polygon class="cls-2" points="29.62 48.47 29.45 48.52 29.5 48.53 29.62 48.47"/><polygon class="cls-2" points="29.51 48.4 29.5 48.34 29.37 48.45 29.51 48.4"/><polygon class="cls-2" points="29.33 48.33 29.35 48.34 29.45 48.29 29.33 48.33"/><path class="cls-2" d="M29,48.29l0,.09c.05,0,.14.07.13,0A.11.11,0,0,1,29,48.29Z"/><path class="cls-2" d="M27.78,50.49a.18.18,0,0,0,0-.16l-.05.15S27.77,50.45,27.78,50.49Z"/><path class="cls-2" d="M27.57,50.25l-.13.17c.15,0,.17-.11.3-.14-.06-.05-.14.07-.2,0Z"/><path class="cls-2" d="M25,50.12c0-.11,0-.09.08-.16a1.29,1.29,0,0,1-.4.06c0,.06-.08.18,0,.15l.17-.06,0,.07C24.9,50.26,24.85,50.06,25,50.12Z"/><path class="cls-2" d="M18.24,49a.25.25,0,0,0,0-.15C18.11,48.89,18.26,49,18.24,49Z"/><ellipse class="cls-4" cx="10.73" cy="12.81" rx="6.38" ry="6.3" transform="translate(-3.94 4.8) rotate(-21.42)"/><path class="cls-2" d="M39.6,8.3l.53.07S40,8.29,39.6,8.3Z"/><path class="cls-2" d="M9.61,53a.5.5,0,0,0,0-.12A1.13,1.13,0,0,0,9.61,53Z"/><path class="cls-2" d="M52.13,15v0c0-.05,0-.1,0-.14Z"/><path class="cls-2" d="M33.36,11.58c7-.17,8.9.21,16.15-.28l2.27-.08.11,0,0,.07v0L52,12c.05,1,.11,2,.15,3,.41,1.59.16,4.44.52,6.34l-.18.74a6.93,6.93,0,0,1,.14,2.08l-.06,0c.18,1,.13,2.09.22,2.57l-.06,0,.07,1.19-.1-.2a36.26,36.26,0,0,1,.27,5l.24-.13c-.16,3.32.38,4.52.16,7.52l-.06,0c.77,3.77-.24,6,.51,9.88-.1-.49-.12.21-.18.17.13,1.8.23,3.71.71,3.73,0,1.31-.12,1.07-.3,1.24.21,0,.34,1.12.38,2.14l-.09-.46.17,2.92.37-.59c-.06,1.56-.47.41-.32,1.9l.33,0a16.3,16.3,0,0,1-.25,2.78c-.06.42-.13.85-.2,1.29l0,.34,0,.18a.49.49,0,0,1,0,.07l-.09.19v.39l-4.45,0-6.26.12c-4.15.06-8.22.06-12-.25l-.35-.25c-.15-.36-2.22.51-2.53.18l-.93.15c-.26-.06-.82-.14-.35-.21a5,5,0,0,0-1.51.13l-.93-.23c-3.41-.21-6.32.2-9.91.07l-.88-.08-.89-.07a4.26,4.26,0,0,0-.5-.06,2.67,2.67,0,0,0,0-.4c0-.41,0-.83,0-1.26,0-1.16-.09-2.34-.13-3.49-.12-2.31-.24-4.52-.33-6.25-.59-6.58.79-14.24.13-21a1.68,1.68,0,0,0-.11-.78V26.34s-.07-29.89-2.89-7.16L9.29,19a33.36,33.36,0,0,0,.21,7.82c-.48.37,0,2.77-.18,3.56l0-.07c.39,2.05-.28,4.24.07,6.22A.74.74,0,0,1,9.17,36c.07,1.45.19,3.42-.09,3.53.1,3.46,0,8.27.46,10.48l-.08-.15a18.18,18.18,0,0,1,.22,3c0,.08,0,.18-.07.16.31,1.37.08,4,.21,5.12l-.18.07L9.7,61l0-1c.52.35-.3,2.07,0,4.05A11.73,11.73,0,0,0,10,65.91c.13.78.3,1.44.44,2a10.29,10.29,0,0,1,2.85-.17c.92-.23-.82.38.56.21,0,.27-.65.16-.29.38,1.35-.11,2.21.3,3.87.13l.07.21c2.17-.36,4.09.32,5.54,0,2.24-.15,1.49.63,3.83.25l.9.29c1,0,.72-.34,1.82-.19-.07.17,1.4.15.75.32,2.5.3,5.09-.35,8.38.15.72-.33,2.37-.11,2.91-.37.09.15,3.33.06,1.46.37-.16,0-.44,0-.42,0l-.23.2c1.88.41,3.42-.18,5.28-.1-.55-.07-1.29-.06-.79-.2l1.72,0-.36.17,2.58.12-.36-.22c1.29.13,1.65.49,3.18.21.29,0,.29-.08.18-.12s-.35-.07-.42-.1-.19-.06-.17-.08.06,0,.14,0l.14,0h.35l3.82.22c0-1.9,0-4,0-5.93-.23.21-.24-.37-.31-1l.2-.07c-.36-2.27.44-.85.13-3.11l.15.2-.46-.59c-.48-2,.4-1.11-.24-3.36.07.89-.45.43-.39-.67l.21.27a7.24,7.24,0,0,1-.13-1.22c.12.36.3.18.24-.72l.27.6L57,52.27c.17-1.32-.17-3.39.1-3.94a14.34,14.34,0,0,0-.29-3.46c.21.56.24-1,.48-.56A10.09,10.09,0,0,1,57,40.56l0,.17c.13-3.21-.51-5.46-.32-8.34-.24.14-.15-1.38-.45-1-.41-3,.45-5.43-.55-6.47a9.81,9.81,0,0,1,.2-2.31l.06.32c-.16-2.53-.2-3.26-.24-5.14-.12-.94-.57-1.07-.52-2.75.2.54.14-.15.12-.78,0,.4.11.52.2-.31a1.68,1.68,0,0,1-.13-.46s0,0,0,0c-.1-1.05-.15-.86-.15-.37,0,0-.06,0-.11.17a10.38,10.38,0,0,0,0-1.95c0-.22,0-.42,0-.61v-.58a1.56,1.56,0,0,1,.12-.67c0-.67-.07-1.31-.1-1.88l-2.88.22-.65.06-.45,0-.83.1c-1.1.13-2.16.26-3.29.36-.3-.14.31-.31,1.07-.4l-1.86.13c0-.22,1.06-.17,1.63-.24-2.23-.27-4.55.55-7.17.33l-.53.2-.15,0c0,.1-.57.25-1,.29-.38-.18,0-.45-1.28-.38a21.15,21.15,0,0,0-4.22.37c.72,0,.49.12.19.2a13.74,13.74,0,0,0-1.52,0l-.07-.26c.26.24-1.67.34-1.91.45-.37-.18,1-.21,1.15-.36l-3.87.2c-1.37.25.26.24-.39.49a21.71,21.71,0,0,1-3.79.24l.45.21a20.72,20.72,0,0,1-5.19.14c-16.93,2.6-3.48,2.75-3.48,2.75C22,12.92,25.4,12.09,33.36,11.58Z"/></g></g></svg>