<svg xmlns="http://www.w3.org/2000/svg" viewBox="0 0 70 70"><defs><style>.cls-1{fill:none;}.cls-2{fill:#fcf5ea;stroke:#898989;stroke-miterlimit:10;stroke-width:1.17px;}</style></defs><g id="圖層_2" data-name="圖層 2"><g id="圖層_1-2" data-name="圖層 1"><path class="cls-1" d="M70,35C69.22,81.67.77,81.66,0,35,.78-11.67,69.23-11.66,70,35Z"/><path class="cls-2" d="M19.07,34.69q.11,5.63.2,11.25a2.19,2.19,0,0,0,0,1.73,1.9,1.9,0,0,0,1.65,1.08l30.19-.43V36.2"/><path class="cls-2" d="M50.18,25.62l-30.39-.2a2.3,2.3,0,0,0-1.85.83,2.4,2.4,0,0,0-.41,2.08v5.84c8.45,4.34,28,4.35,34.91,1.25V28.75A2.48,2.48,0,0,0,50.18,25.62Z"/><path class="cls-2" d="M27.69,29.9l15-.21"/><path class="cls-2" d="M28.21,25.62v-2.7a2.41,2.41,0,0,1,.61-1.05,2.3,2.3,0,0,1,1.24-.62l9.44.21a1.84,1.84,0,0,1,1.85,1.46v2.7"/><path class="cls-2" d="M30.16,42.2c1.81-4.34-1.27-4,2.91-7.53,2.19-2,2.21-1.83,4.84-1.31a6.84,6.84,0,0,0,7.1-3.6c.58,4.37-1.87,7.58-3.88,11.46a27.92,27.92,0,0,1-5.8,3.28A5.87,5.87,0,0,1,30.16,42.2Z"/><path class="cls-2" d="M26.93,45.48C30.43,38,36.48,41,41.46,35.33"/></g></g></svg>