<svg xmlns="http://www.w3.org/2000/svg" viewBox="0 0 70 70"><defs><style>.cls-1{fill:#58a5cd;}.cls-2{fill:#221714;}.cls-3{fill:#fff;}.cls-4{fill:#e8ba20;stroke:#fff;stroke-miterlimit:10;stroke-width:1.78px;}.cls-5{fill:none;}</style></defs><g id="圖層_2" data-name="圖層 2"><g id="圖層_1-2" data-name="圖層 1"><path class="cls-1" d="M17.79,48.07,34.63,21.93c1.56,1.7,3.12,3.52,4.66,5.46A106,106,0,0,1,52.21,48.06Z"/><path class="cls-2" d="M17.72,47.75c-.17.31.19-.1-.09.22A.19.19,0,0,1,17.72,47.75Z"/><path class="cls-2" d="M19,48.23c1.15-.33,2.66,0,3.92-.2.14,0,0,.18.29.13a16.08,16.08,0,0,1,4.62.1l-.09.05c.29,0,.63-.14.93-.11,0,0-.09,0,0,.09s.54,0,.66-.12.11.12.26.16l.18-.11c.47-.28,1.15,0,1.8-.13,0,0-.09,0,0,.08,1-.17,2.35-.14,3.52-.2,0,0-.09.12,0,.16.06-.12.42-.15.73-.18.14.13.54-.11.9,0l0,0c.27-.13.4.07.62-.09l.18.1c.12-.17.39.1.61,0v0c.21,0,.32,0,.51,0l0,0c.46-.05.73,0,.72-.09.16.11-.45.05-.2.21,1.52-.14,3.07-.12,4.59-.12.18.06.29.07.32.13a3.92,3.92,0,0,0,.71-.1s.1.07.18.08c.28,0,.31-.15.61-.09-.12,0-.16.08-.12.13a3.28,3.28,0,0,1,.91-.12c-.05,0-.12,0-.11.08.33-.13.61,0,.9-.06l-.11.08c.48.1.14-.16.55-.11-.1,0-.06.06-.08.09a7.18,7.18,0,0,1,1.38-.14,0,0,0,0,0,0,0,11.75,11.75,0,0,0,1.31,0c.16,0-.06.2.38.17,0-.16.72-.07.44-.25a3.64,3.64,0,0,0,1,0c-.06.06.48.2.19.21l.19.05c.06,0,.17,0,.15,0s0,.07-.05.06-.1,0,0,0h.07s.09,0,0,0L52.31,48a2.13,2.13,0,0,1-.19-.39,7.82,7.82,0,0,1-.78-.9c.16.17.11-.19.2-.06L51,46.15c-.07-.14.1-.09,0-.27,0,0-.1-.05-.16-.09s-.33-.56-.22-.69.15.21.12,0-.19-.24-.32-.5h0c-.06-.18-.32-.46-.3-.24s.06-.09.11.1a1.69,1.69,0,0,1-.46-.61c.07.08.1.05.16.06a7.64,7.64,0,0,1-.77-1c-.07,0,.2.07.2.15-.18-.54-.68-.93-.77-1.4,0,.06-.08.08-.06.07-.12-.24,0-.28-.14-.41,0,0-.13-.18-.23-.32s0-.06.08.07a7.58,7.58,0,0,1-1-1.54s-.31-.22-.38-.33H47c0-.13-.23-.37-.17-.44-.25-.18.65.88.37.6,0-.13-.41-.37-.25-.37-.14-.23-.37-.39-.42-.65,0,.07.23.11.11-.07s-.1-.07-.28-.31l-.14-.14c-.09,0-.17-.29-.18-.12,0-.08-.34-.43-.18-.49l.13,0c-.09-.13-.25-.15-.36-.23s0-.08,0-.08c-.18.08-.2-.34-.43-.42-.13-.32-.47-.73-.45-.93A2.1,2.1,0,0,1,44.2,35s.1.11.14.1c-.06-.19-.12-.2-.24-.33a4.08,4.08,0,0,0-.18-.58c-.2-.19-.23,0-.3,0,0-.3-.51-.54-.54-.88.07.06.29.26.21.06s-.39-.32-.54-.69l-.07.17c0-.19-.41-.41-.25-.47-.12-.07-.22-.4-.32-.27-.26-.59-1-1.19-1-1.67-.07-.06-.19-.25-.22-.17s.17.13.16.21a.1.1,0,0,0-.12,0c-.09-.18-.17-.31,0-.24-.19-.4-.48-.2-.77-.68.07,0,.06-.06,0-.19l-.27-.18c-.2-.29,0-.25.07-.32-.13-.14-.27-.33-.39-.35l0-.26c0,.19-.15-.09-.22-.14l.07.05c0-.05-.14-.21-.22-.29s.08.26.14.37c-.1-.05-.18-.18-.31-.25.12,0-.13-.29-.22-.41s-.21-.09-.24-.13-.17-.22,0-.17.05.14.15.18,0-.16-.17-.3-.13.17-.3-.13c.08.05.12,0,.2.06l-.17-.27-.08.05c0-.05,0,0,0-.06s-.34-.35-.47-.33a3.87,3.87,0,0,1-.27-.43l0,0a1,1,0,0,0-.42-.43h0a1.13,1.13,0,0,0-.36-.32c-.11-.25.22-.31-.06-.45s-.4-.2-.38-.07c-.26-.41-.72-.71-.9-1.15-.07,0-.06,0-.17-.07L35,23.27l-.07-.08-.14-.13s-.08-.13-.11-.11a.18.18,0,0,1-.13,0c0-.13,0-.13-.06-.19,0,.18-.11,0,0,.19s.07.13.13.1a1.26,1.26,0,0,1-.13.26,2.48,2.48,0,0,1-.36.45c.09-.08.07,0,0,.1-.1-.1-.29.15-.37.37l.05.08-.15.08c0,.09.09.17-.1.33a.14.14,0,0,0-.11,0,1.82,1.82,0,0,1-.36.77l-.22.12c0,.1-.09.3,0,.15-.3.33-.46.57-.63.63A9,9,0,0,1,31,28.9l0,0c-.18.17,0,.16-.1.28,0-.1-.21.08-.17-.12-.24.26-.15.43-.25.64.05.07.06-.18.12-.09s-.31.36-.23.48c-.09,0-.13-.06-.15-.13l-.06.21c-.27.14.09-.63-.21-.51l-.08.18c-.21.08.15-.51-.15-.13-.06.21,0,.46.14.33-.21.39.14.34-.12.73-.13.07.19-.33,0-.31s-.19.41-.33.55c.16-.16.17.07.11.2s0-.19-.21.08c0,.09-.1.38.09.18.07.19-.23.28-.22.5-.16,0,0-.44-.29-.16.13,0-.12.47.13.4-.11.1-.19.07-.19-.06-.17.14-.1.54-.33.47l.06.13c-.07,0-.14.09-.25.15s-.19.58-.33.48c0,.06-.25.4-.06.33s.09-.3.3-.33c-.21.08-.19.32-.23.47h-.07c0,.09-.15.26-.12.34,0-.08-.05-.07-.11,0l0,.13c-.16.34-.2,0-.37.29l.08-.26s-.16.1-.22.26.06.27.09.36-.13,0-.16.24l.05-.28c0-.05-.23.06-.37.29s-.1.46.09.26c-.07.11-.22.24-.22.11-.14.28.11,0,0,.27-.11.06-.36.29-.55.42l0-.32-.1.15c0-.26-.14,0-.18-.13a1,1,0,0,0-.16.36c.37-.19,0,.5.23.52-.22.44-.56,0-.59.61.09,0,.08.24.2-.06-.18.25.05.28-.21.55.08-.27-.32.14-.21-.25,0,0,.16-.16.18-.22s-.15-.13-.32.14-.23.4-.13.42.15-.26.18-.09c-.18.34-.35.31-.28.55.12-.22.25-.21.31-.16l-.11.26,0-.09c-.29.36,0,.19-.21.55l-.23.09c-.05-.15.39-.5.18-.55-.16.24-.13.37-.32.57l.08-.19c-.07.08-.35,0-.43.45-.07.21,0,.09.09.13-.23.4-.24.56-.39.81-.1-.13-.3.44-.25.08a1.48,1.48,0,0,0,.48-.86c-.24,0,.21-.29.12-.46-.2.3-.34.2-.46.19a.62.62,0,0,0-.1.25c.07.09.14,0,.23,0a2.3,2.3,0,0,0-.44.94c-.12.09-.19,0-.11-.15a12,12,0,0,1-.81,1.24c.31-.16-.25.45,0,.36s.39-.3.38-.15-.06,0-.13,0c0,.22-.29.18-.27.42.19-.4-.13-.18-.2-.32-.11.31-.07-.07-.24.2a9.53,9.53,0,0,1-.45,1,5.88,5.88,0,0,0-.83,1.29c-.17.14-.22-.06-.37.12s.25-.08,0,.21v0c0,.12-.48.55-.36.77l-.07-.2a.5.5,0,0,0-.08.2s-.13,0-.09-.11c-.23.15-.27.45-.41.67l.18-.09a10.2,10.2,0,0,1-.64,1l-.07-.06-.09.25c-.05-.1-.23.07-.24.22l.17-.69c.15-.13,0,.23.13.18a.63.63,0,0,0,.28-.5.55.55,0,0,0-.11.27c-.14,0,0-.23,0-.38,0,.08-.14.15-.11.19a1.57,1.57,0,0,1,.25-.54c-.06.18.12,0,.12,0-.09-.08,0-.31.22-.57s.27-.57.5-.87a1.42,1.42,0,0,1-.09.63c.18-.16.14-.22.32-.39a.93.93,0,0,1,0-.58l.08,0c.12-.26,0-.33.23-.62.37-.5.71-1,1-1.42l.08,0c0-.32.42-.77.54-1.11.39-.46.63-1.14.93-1.32A30.32,30.32,0,0,1,24.47,37v.22c0-.21.13-.06.22-.24-.21.14,0-.29,0-.45a4.18,4.18,0,0,0,.76-1.36l.08,0A4.21,4.21,0,0,1,26.4,34a.49.49,0,0,0,.27-.21,3.29,3.29,0,0,1,.3-.86,7.7,7.7,0,0,1,.7-.92c.48-1.11,1.24-2.07,1.81-3.18l.14,0c.47-1.13,1.43-2.26,1.9-3.18l.09.17c.22-.24.36-.64.21-.64.22-.24.36-.72.6-.81.2-.26.15-.39.27-.63s.34-.44.47-.63l.48-.8-.15.22c0,.12,0,.16.16,0,.17-.36.76-1.09.48-1,.08-.1.17-.21.25-.33s.16-.39.27-.15l.65.72c.22.24.44.49.64.73a2.18,2.18,0,0,1,.31.46c0-.08.13,0,.2.07a9.64,9.64,0,0,0,1.07,1.28c0,.09-.17-.05,0,.13s.06,0,.2.07c.7.65,1.16,1.53,1.75,2.17a39.82,39.82,0,0,1,2.88,3.6h0c.42.31.55,1,1,1.21,0,.12.25.38.13.35.32.25.55,1,1,1.35a.31.31,0,0,0-.09-.11c.25.53.64.87.9,1.42,0,0-.12-.12-.17-.11.06.23.46.36.36.58.07.11.14,0,.09-.05.66,1.15,1.53,2.27,2.28,3.43.4.91-.26.23.27.82,0,.07.09,0,.06,0,.2.23,0,.52.24.65.06-.14.13.08.2.05.23.56.19.72.51,1.09h-.08c.44.39.67,1,1.08,1.31.76,1.35,1.5,2.67,2.19,4l.41.79.48,1,.48,1c.05.06,0,0-.08,0h-.93l-3.13,0c-2.95,0-5.84.05-8.83-.06a3.26,3.26,0,0,0-1.53-.1s.08,0,0-.06c0,.14-.54,0-.62.15-1.11,0-2.13,0-3.27,0,.18,0,.28-.14.06-.13l-.22.09,0,0c-.15,0-.31.09-.15.13-2.87.12-5.68-.16-8.49-.12a20.41,20.41,0,0,0-2.34,0,40.65,40.65,0,0,0-6.25-.21A1.72,1.72,0,0,1,19,48.23Z"/><path class="cls-2" d="M17.94,47.38c.1,0,.27-.21.24,0C18.11,47.37,18,47.44,17.94,47.38Z"/><path class="cls-2" d="M22.16,42.18s.07-.07.09-.08,0,.17-.1.21S22.16,42.23,22.16,42.18Z"/><path class="cls-2" d="M23.11,40.77s-.11.39-.22.57Z"/><path class="cls-2" d="M24.19,39.58c.12-.09.12,0,0,.11C24.18,39.68,24.2,39.62,24.19,39.58Z"/><path class="cls-2" d="M24.13,39.4a.53.53,0,0,1,.2-.18S24.2,39.5,24.13,39.4Z"/><path class="cls-2" d="M26.15,36.61c0-.07.1-.25.2-.28C26.26,36.38,26.2,36.71,26.15,36.61Z"/><path class="cls-2" d="M26.94,35.21A.3.3,0,0,0,27,35.1c.07-.07.06,0,0,.11Z"/><polygon class="cls-2" points="42.88 32.97 42.75 32.84 42.82 32.83 42.88 32.97"/><path class="cls-2" d="M49.53,43.79c.11.13,0,.13,0,.16C49.46,43.82,49.63,44,49.53,43.79Z"/><polygon class="cls-2" points="50.37 47.91 50.42 47.91 50.4 48.04 50.37 47.91"/><path class="cls-3" d="M34.64,22.36,28.07,32.87l3.48-1.95,1.67,2.32,2.37-2.49c.71.77,1.43,1.54,2.14,2.32l1-2.15,3.56,1.39a39.05,39.05,0,0,0-3.61-5.56A39.72,39.72,0,0,0,34.64,22.36Z"/><circle class="cls-4" cx="46.38" cy="33.01" r="5.84"/><path class="cls-3" d="M41.72,36.8l-6.08,7.8A1.3,1.3,0,0,0,36,45.87a1.37,1.37,0,0,0,1.55.17l5.8-7.8a1.11,1.11,0,0,0-.26-1.44A1.15,1.15,0,0,0,41.72,36.8Z"/><circle class="cls-5" cx="35" cy="35" r="35"/></g></g></svg>