<svg xmlns="http://www.w3.org/2000/svg" viewBox="0 0 70 70"><defs><style>.cls-1{fill:none;}.cls-2{fill:#fff;}.cls-3{fill:#030000;}.cls-4{fill:#fcf5ea;}.cls-5{fill:#dfa395;}</style></defs><g id="圖層_2" data-name="圖層 2"><g id="圖層_1-2" data-name="圖層 1"><circle class="cls-1" cx="35" cy="35" r="35"/><path class="cls-2" d="M21.83,21.58l-4.6,4.11V42.13l5.08,6.29H47.45l4.83-3.87q.26-9.31.49-18.62l-4.84-4.35Z"/><path class="cls-3" d="M24.76,47.74Z"/><path class="cls-3" d="M51.69,36.26v0l0-.07Z"/><path class="cls-3" d="M52,30.29v0S51.94,30.25,52,30.29Z"/><path class="cls-3" d="M47.59,47.48l-.07.07Z"/><path class="cls-3" d="M17.81,41.71v0Z"/><path class="cls-3" d="M17.84,41.82s0,0,0-.08a1,1,0,0,0,0,.19h0S17.83,41.84,17.84,41.82Z"/><path class="cls-3" d="M20.43,23.5l0,.05Z"/><path class="cls-3" d="M48.92,48.21l-.06.06Z"/><path class="cls-3" d="M18.08,25.57v.05S18.09,25.58,18.08,25.57Z"/><path class="cls-3" d="M51.64,36.15v0S51.64,36.13,51.64,36.15Z"/><path class="cls-3" d="M51.47,25.66v0h0Z"/><path class="cls-3" d="M25.46,21.53v0l.11,0Z"/><path class="cls-3" d="M45.71,22.06h0c.13,0,.47,0,.91,0l0-.06Z"/><path class="cls-3" d="M37.43,20.76l.81.11c-2.59.05-3.8-.06-6,0l.12,0a17.25,17.25,0,0,1-4.07-.08h0a1.61,1.61,0,0,1-.37,0l.62.07c-.37,0-.7.08-1.19.09-.1,0-.14,0-.15-.06L26,20.9l-.37-.07a2.35,2.35,0,0,1-1.19.11c.38.1-.49.06-.36.11L23.79,21c-.58,0-1.69.05-2,.1,0,0,2.29.22,2.91.34-.83,0-.22,0,0,0l0,0a4.56,4.56,0,0,1,.74.11s0,0,0,0h0s0,0,0,0,0,0,.15,0h.69v.06a28.66,28.66,0,0,1,3,.16c.49.07,1.11,0,1.72,0,1,0,.5.08,1,.13s-.12-.06.12-.07l.74.08c-.43,0-.19,0-.11.06a9.11,9.11,0,0,0,1.84,0c.87.06.87.1,1.24.11-.13,0-.37,0-.37-.07.34.05.16,0,0,0,.53-.05,2.74.2,2.85.08v0c.12-.09-.08-.17.29-.22l.25,0,.37,0c.25,0,.12.05.12.06.61,0,1.45,0,2.18,0l-.77-.25a9.68,9.68,0,0,0,1.85.1l.37.08c1.23.16.86-.07,1.35,0l.62.09h-.61c.61,0,.86.07,1.35.13h0a2.57,2.57,0,0,1,.84-.08h1.23l.38.4.24.1.52.53-.05.06-1.13-1-1.14,0,0,0,1.16,0,.06,0,.15.22c0,.08,0,.12-.08,0l.3.18c1.38,1.23,1.39,1.23,2.76,2.58l-.1-.14a2.71,2.71,0,0,1,.64.6,8.7,8.7,0,0,1,.63.6v.24L52,27c0,.33-.06.63-.1.87L52,28c0,.24-.16.6,0,.73l0,.52a7.36,7.36,0,0,1,0,.92h0l0,.07h0c-.06.75.08,0,0,.86-.07.27.1.31.07.73l-.14.42c-.09.76,0,.89,0,2,0,.53-.17.78-.25.43a2.85,2.85,0,0,1,.1.86c0,.1,0,0-.09-.11-.07.57,0,.35,0,.78.08.13.22.28.22.42l0-.17a7.34,7.34,0,0,1,0,1.48l0,0v.57l0,0v.8l0-.11c0,.19,0,.81,0,1.17l0,0a26.7,26.7,0,0,0,0,3l-.06-.15c-.07.39.1.11.05.58l-.08,0c.08.42,0,.35,0,.4h0l.11,0h0l-.07,0,0,0-.1.08c-.49.34-.37.12-.33,0l-.27.31-.12,0c-.16.27-.24.17-.61.55-.06,0,0-.1-.12,0l-.59.64.37-.37,0,.14a6.53,6.53,0,0,1-.86.72l.18-.2a4.13,4.13,0,0,1-.83.59c.1,0,.26-.12.07.05s-.11,0-.26.13c0,.09-.3.41-.64.64,0,0,0,0,0-.06a.74.74,0,0,1-.23.2.21.21,0,0,1,0-.12c-.05.09,0,.1-.05.17h0s0,0-.15,0-.18,0-.17,0l.14,0-1.77,0,0-.08c-.17.11-1,0-.9.1-.34-.08-1.32,0-1.12-.11-1.16,0-1.79.14-3.2.07a20.55,20.55,0,0,0-2.79-.11l-4.73.15c-1.09-.18-2.72.06-3.9,0l-.32.07c-.78-.11-2,0-3.06-.09a3.76,3.76,0,0,1-.47.05.2.2,0,0,1,.15.06c-.31,0-.95,0-.9-.08h.08c0-.09-.95,0-1.3,0l.19.1h-.29l-.07,0-.09-.08-.28-.31-.49-.58-.84-1.08a23.77,23.77,0,0,0-1.87-2.25c.28.18-.35-.33-.27-.43a2.63,2.63,0,0,0-.51-.69,4.89,4.89,0,0,0-.46-.4,0,0,0,0,1,0,0h0v-.67c.15.52-.12-.63,0-.15.11-2.28,0-5.24.05-7.88l0,.12c0-.67,0-1.5,0-2a5.82,5.82,0,0,0-.11-1.3c-.06-.56.07-1.06.06-.82a14.48,14.48,0,0,1-.09-2,2.37,2.37,0,0,0,0-.62c0-.14,0-.3,0-.46s0-.2,0-.28.37-.36.41-.32v0c.85-.63,1.48-1.42,2.39-2.11a.17.17,0,0,1,0,.06l1.44-1.86-.81.08-1.75,1.05L16.5,25.36l0,2.27L16.38,32l.05,10.46.42.51.55.52c.58.87,1.33,1.78,2.09,2.7l1.14,1.39.55.69.75,1h0l.13-.09h.64l.19,0a1.8,1.8,0,0,0,.19.05c5.86,0,11.89-.15,17.16,0,.51.06,2.06,0,2.45.09.77,0,1.56-.08,2.36-.09l2.62,0,.61-.48,0,0,.62-.52s0,0,0,0a34.35,34.35,0,0,1,2.73-2.14l0,0,1.48-1.18c.06-3.08.11-6.1.17-9.11s.13-5.77.26-8.74c0-.19,0-.38,0-.56s0-.64,0-1l-1.42-1.31L51,23.2l-2.72-2.42H46.79l-1.15,0C45,20.65,38.05,20.72,37.43,20.76Z"/><path class="cls-3" d="M27.18,20.88h0S27.17,20.86,27.18,20.88Z"/><polygon class="cls-3" points="41.56 21.94 41.52 21.94 41.69 22 41.56 21.94"/><path class="cls-3" d="M32.35,22c.42,0,.43,0,.38,0Z"/><path class="cls-3" d="M23.8,21c-.22,0-.14,0,0,0h.38Z"/><path class="cls-3" d="M24.69,21.48l-.07,0C24.75,21.51,24.74,21.5,24.69,21.48Z"/><path class="cls-4" d="M23.63,24.32l-4,3.29V40.77l4.38,5h21.7l4.17-3.1.42-14.91-4.18-3.48Z"/><path class="cls-3" d="M26.79,45.29Z"/><path class="cls-3" d="M49.5,35.76v0l0-.06Z"/><path class="cls-3" d="M49.72,30.77v0S49.71,30.73,49.72,30.77Z"/><path class="cls-3" d="M45.94,45.06l-.06,0Z"/><path class="cls-3" d="M20.16,40.67h0s0,0,0,0Z"/><path class="cls-3" d="M20.25,40.73c.06.09,0,0-.07,0a1.28,1.28,0,0,0,.23.29S20.27,40.78,20.25,40.73Z"/><path class="cls-3" d="M22.39,25.85l0,0Z"/><path class="cls-3" d="M47,45.62l-.06,0Z"/><path class="cls-3" d="M20.35,27.51v0S20.36,27.51,20.35,27.51Z"/><path class="cls-3" d="M49.46,35.67v0Z"/><path class="cls-3" d="M48.75,27.14a0,0,0,0,0,0,0h0Z"/><path class="cls-3" d="M26.67,24.28h0l.1,0Z"/><path class="cls-3" d="M43.62,24.68h.74l0,0Z"/><path class="cls-3" d="M36.69,23.7l.68.08c-2.17,0-3.18-.05-5,0l.1,0a13.65,13.65,0,0,1-3.4-.06h0a1,1,0,0,1-.31,0l.51.05c-.31,0-.58.06-1,.07-.09,0-.12,0-.12,0h-1l-.3-.05a2.22,2.22,0,0,1-1,.08c.31.08-.41.05-.31.09l-.21,0c-.49,0-1.42,0-1.65.07,0,0,1.93.17,2.44.26-.69,0-.18,0,0,0l0,0a4.28,4.28,0,0,1,.63.09l0,0h0s0,0,0,0,0,0,.13,0h.58v.05c.31-.08,2.07.12,2.48.12s.93,0,1.45,0a3,3,0,0,1,.82.09c.52,0-.1-.05.1-.05l.62.06c-.36,0-.16,0-.09.05a9.58,9.58,0,0,0,1.54,0c.72,0,.72.07,1,.08a2,2,0,0,1-.31-.05c.29,0,.14,0,0,0,.44,0,2.29.16,2.39.06v0c.1-.07-.07-.14.24-.17l.21,0,.31,0c.21,0,.1,0,.1,0,.51,0,1.21,0,1.82,0l-.64-.19a8.34,8.34,0,0,0,1.54.07l.31.07c1,.12.73-.05,1.14,0l.52.07h-.52c.52,0,.72.06,1.14.1h0a2.23,2.23,0,0,1,.7-.06H46l.07,0h.06c.07.08.27.27.41.4l0,0L46,24.68l-1.67,0v0l1.29,0a1.35,1.35,0,0,1,.28,0s0,.05,0,.07.06,0,.1-.06h0l1.08.91,1.2,1.07-.09-.11a2.2,2.2,0,0,1,.55.48l.65.56.31.27c.1.09.06.07.09.1s0,.47-.09.68l.07.14c0,.2-.12.51,0,.61l0,.44a7,7,0,0,1,0,.77h0v.06h0c0,.64.06,0,0,.72-.06.23.07.26,0,.61l-.11.36c-.07.63,0,.74,0,1.67,0,.44-.14.66-.2.36a2.75,2.75,0,0,1,.08.72c0,.09-.05,0-.07-.09-.06.47,0,.29,0,.65.06.11.17.23.17.35l0-.14a7.38,7.38,0,0,1,0,1.24l0,0v.48l0,0v.59c0,.15,0,.67,0,1h0c-.1.83,0,1.52,0,2.51l-.05-.13c0,.33.08.09,0,.49h-.06c.06.36,0,.32,0,.35h0l.08,0h0l-.06,0,0,0-.09.06c-.42.28-.31.1-.27,0l-.24.25-.09,0c-.16.22-.21.14-.54.44,0,0,0-.08-.09,0l-.52.51.33-.3v.12a5.72,5.72,0,0,1-.74.57L47.3,44a3.8,3.8,0,0,1-.71.48c.09,0,.22-.11.06,0s-.09,0-.22.1-.27.33-.56.51c0,0,0,0,0,0a.91.91,0,0,1-.22.18l0-.11c-.09.09-.06.11-.08.15h0s-.29,0-.27,0l.11,0H44l0-.06c-.14.08-.8,0-.75.07-.28-.06-1.1,0-.94-.08-1,0-1.5.1-2.68.05a17.71,17.71,0,0,0-2.33-.08l-4,.11c-.91-.14-2.28.05-3.26,0l-.27,0c-.65-.08-1.65,0-2.56-.06l-.39,0s.1,0,.12.05c-.26,0-.79,0-.75-.06h.06c0-.07-.79,0-1.08,0l.16.08-.5,0h.14l-.46,0-.22,0-.06-.06-.18-.2c-.11-.14-.23-.26-.34-.39l-.63-.76c-.42-.5-.85-1-1.46-1.62.23.15-.3-.27-.25-.35a4,4,0,0,0-.93-1h0l-.29-.34v0c.06.06,0,0,0,0s-.05-.25,0,0c.08-1.9,0-4.38,0-6.59l0,.1c0-.56,0-1.25,0-1.68A4.91,4.91,0,0,0,20,31.26c-.05-.46.05-.89.05-.69A13,13,0,0,1,20,28.92a1.69,1.69,0,0,0,0-.52c0-.12,0-.25,0-.39l0-.24c.08-.08.33-.3.35-.26h0c.73-.51,1.29-1.14,2.07-1.7l0,.05,1.28-1.49-.66.08-1.47.84-2.43,2.07,0,1.88L19,32.86l0,8.14.75.87.48.42c.45.61,1,1.26,1.59,1.92l.88,1,1,1.19h1l0-.06a1.7,1.7,0,0,1,.63,0c4.9,0,9.94-.11,14.35,0,.43,0,1.72,0,2.06.06.64,0,1.29-.06,2-.07h2.15l.52-.39,0,0,.54-.41s0,0,0,0a27.45,27.45,0,0,1,2.34-1.71l0,0L50.52,43c.06-2.57.11-5.1.17-7.61s.11-4.78.23-7.36c0-.18,0-.35,0-.52l-1.19-1-1-.86-2.34-1.92H44.87l-1.31,0C43,23.61,37.21,23.66,36.69,23.7Z"/><path class="cls-3" d="M28.12,23.79h0S28.1,23.77,28.12,23.79Z"/><polygon class="cls-3" points="40.15 24.59 40.11 24.59 40.26 24.63 40.15 24.59"/><path class="cls-3" d="M32.44,24.62c.35,0,.36,0,.32,0A1.57,1.57,0,0,0,32.44,24.62Z"/><path class="cls-3" d="M25.29,23.85c-.19,0-.12,0,0,0h.31Z"/><path class="cls-3" d="M26,24.24l-.06,0C26.08,24.26,26.07,24.25,26,24.24Z"/><path class="cls-3" d="M26,36.65l.07-.11S26.05,36.57,26,36.65Z"/><path class="cls-3" d="M43,33.63v0Z"/><polygon class="cls-3" points="27.62 32.06 27.62 32.07 27.63 32.09 27.62 32.06"/><path class="cls-3" d="M27.21,38.27a31.58,31.58,0,0,0,.67-3.61l0-.3,0-.23a.76.76,0,0,0,0-.3c-.05-.22-.1-.44-.14-.67s-.14-.74-.19-1.09-.05-.93-.15-1.31a1.13,1.13,0,0,1,.1-.13,1.38,1.38,0,0,1,0-.2s0-.07,0-.1l0,0h0c-.06-.06,0-.09,0-.13l0,0a.14.14,0,0,1,0-.06l0,.05c0-.15.12-.14.16-.06l0-.12a.74.74,0,0,0,.09.12l.23.18a1.62,1.62,0,0,1,.46.59h0a1.64,1.64,0,0,1,.63.83l.05.12.1.21c.07.14.15.28.23.42.08.43.54.24.92.19-.2,0,.07,0,.05.08l.27,0,.16,0,.28,0c.15,0,.26-.11.26-.21.3,0,.25.06.29.14,0-.1.25-.14.49-.16l-.11,0,.67,0-.14-.17c.35,0,.1.21.43.16V32.3a6.87,6.87,0,0,1,1.26.33c1,0,2-.1,3-.19l.75,0,.38,0,.58,0c.23,0,.3-.15.41-.28l.33-.42a4.59,4.59,0,0,1,.48-.5h.14c.14.07.11-.53.28-.49l.07-.2c.06,0,.16-.09.13,0a.58.58,0,0,0,.16-.28l.21-.07.1-.07,0,0,.11-.13a.15.15,0,0,1,.27.08,1.87,1.87,0,0,0-.05.3q0,.46.06,1a12.27,12.27,0,0,1,0,1.84,2.24,2.24,0,0,1-.07.55c0,.14-.13.28-.07.43s.05.26.07.39c.06.4.1.8.14,1.21A8.23,8.23,0,0,0,42.38,38c0,.05.07.17.09.16l.26,1.38s1.35,6.67,1.61,1.33l0,0a3.87,3.87,0,0,0-.45-1.73c.2-.13-.1-.62-.07-.81h0c-.26-.42-.06-1-.3-1.38a.12.12,0,0,1,.1.11c-.09-.32-.23-.75-.11-.8a9,9,0,0,0-.66-2.25h0c-.09-.05-.1-.1-.08-.14a.93.93,0,0,0,.06-.3s0,0,0,0c0-.35.16-1,.13-1.23h.08c0-.22,0-.44,0-.65l0,.24c-.23-.1.19-.49,0-1,0-.45-.51-.83-.48-1.36-.14-.18.21.12.06-.2.1-.09.11.14.17,0-.14-.34-.08-.77-.53-1l0-.1a1.92,1.92,0,0,0-.9,0,1.1,1.1,0,0,0-.69.43c-.53.56-.56.12-.84.68l-.24.07c-.18.17,0,.24-.21.39-.06-.06-.26.22-.23,0a2.92,2.92,0,0,0-.55.73c-.08.16-.15.33-.27.19a.1.1,0,0,1,0,.08.63.63,0,0,1-.19,0,.6.6,0,0,0-.31.09c0-.07-.76,0-.34-.15,0,0,.1,0,.1,0l0-.09c-.43-.17-.77.12-1.19.1.12,0,.29,0,.18.08h-.4l.08-.08-.58,0,.08.1c-.29-.05-.39-.21-.71-.06-.15.08.27.12,0,.16A13.83,13.83,0,0,0,33.77,31c0,.11-.08.11-.22.13l0-.09c-.51.14-.19-.21-.71-.09l0-.07-.13.21c-.46.2-.26-.19-.77.08.2,0,.1.21-.15.17l.06-.09c-.14,0-.18.06-.28.05.09-.06,0-.14-.16-.12l.13-.12-.38.18c-.41-.08-.5,0-.48-.09s0,0,0,0,0,0-.17-.11c.15.07,0-.26.12-.23A1.48,1.48,0,0,1,30,30l0,0a2.89,2.89,0,0,0-.71-.83c-.14-.13-.22-.19-.44-.37a7,7,0,0,0-.68-.5c0,.11-.5-.13-.38.07-1-.22-1.83.63-1.55,1.18a2.39,2.39,0,0,1-.16.45.94.94,0,0,0-.12.22v-.08c-.05.65,0,.82,0,1.28.05.23.25.25.23.65-.09-.12-.06,0-.05.19,0-.09-.05-.12-.09.08a.41.41,0,0,1,.07.11h0c.05.25.08.2.07.09s0,0,0,0c-.08.27.1.71,0,.76a3.8,3.8,0,0,0,.14.51.78.78,0,0,0,.06.16.35.35,0,0,1,0,.11c0,.3,0,.58,0,.88-.08.06-.12-.09-.13-.27l0,.43c-.1,0,0-.25,0-.39-.23.48,0,1.06-.2,1.63l.06.13v0s.08.15.08.23-.2,0-.24.26a2.77,2.77,0,0,0,0,1c0-.16.08-.1.11,0s-.12.22-.1.34h-.12c.12,0,.07.4.11.46s0-.24-.11-.28c-.06.58,0,.29-.1.87,0,.33.12,0,.21.13a2.91,2.91,0,0,1-.08.86l.12-.09a2.35,2.35,0,0,1-.2,1.17c.35,4,1.08,1,1.08,1C27.26,40.91,27.05,40.09,27.21,38.27Z"/><path class="cls-3" d="M35.17,37s0,0,0,0Z"/><path class="cls-3" d="M37.31,42.19h0v0Z"/><path class="cls-3" d="M36.14,42.58Z"/><path class="cls-3" d="M38.82,39.65s0,0,0,0S38.82,39.64,38.82,39.65Z"/><polygon class="cls-3" points="33.16 36.97 33.16 36.97 33.15 36.96 33.16 36.97"/><path class="cls-3" d="M33.18,36.94s0,0,0,0a.08.08,0,0,0,.08,0S33.19,37,33.18,36.94Z"/><path class="cls-3" d="M30.09,39.27v0Z"/><path class="cls-3" d="M37.6,39.87h0Z"/><path class="cls-3" d="M30.38,38.65l0,0S30.37,38.64,30.38,38.65Z"/><path class="cls-3" d="M37.31,42.24v0Z"/><path class="cls-3" d="M35.06,42.74a0,0,0,0,0,0,0h0Z"/><path class="cls-3" d="M30.7,40.36h0Z"/><path class="cls-3" d="M33.62,42.49h0a.59.59,0,0,0,.17,0v0Z"/><path class="cls-3" d="M32.6,41l.08.15c-.41-.12-.53-.3-.85-.41h0s-.23.12-.39-.41h0s0,0,0,0v.09a.27.27,0,0,1-.16-.06l0,0-.09-.11s0,0,0-.07-.16.07-.14-.07c-.08.08-.07,0-.11,0l0,0c0-.05-.07-.17-.13-.2a2.53,2.53,0,0,0-.18.46c0-.13,0,0,0,0h0c0,.08,0,.11,0,.16h0s0,0,0,0h0a.88.88,0,0,0,.06.1l0,0c.1,0,.16.44.24.5s.17.12.24.21,0,.12.08.2,0-.06.06,0l.07.14c-.07,0-.05,0,0,0s.22.24.3.18c.12.12.1.15.16.18s-.05-.06,0-.08,0,0,0,0,.4.38.46.28v0c0-.06,0-.15.13-.17l0,.05h.07s0,0,0,.06a1.15,1.15,0,0,1,.37.15l-.06-.26c.09.09.25.25.29.18l0,.09c.18.2.16,0,.24,0l.09.1-.11,0a1.53,1.53,0,0,1,.23.17h0s.08-.05.16,0,.21,0,.39.09l0-.08.14.06v.06c-.13,0-.39,0-.57,0v0c.11,0,.23,0,.3,0s.11.09,0,.13l.07-.06a3.89,3.89,0,0,1,.74.08l0,0c.08,0,.15-.05.17,0a2.36,2.36,0,0,1,.63.06l0-.08s.15.09.15,0l.09-.05c.07,0,.1-.06.18,0h0c.16,0,0-.06.16-.07s0-.11.11-.12l.12.07c.17,0,.15-.1.35-.2s.21,0,.18.16c0-.14,0-.08.1-.19s0,0,0,.09,0-.07.13-.11-.06-.2,0-.22h0a.36.36,0,0,1,.22-.16l0,0,.08-.08,0,0,.12-.1h0a.45.45,0,0,1,.18-.14l0,0c.22-.06.28-.26.43-.46l0,.06c.1,0,0-.07,0-.14l.06,0c0-.13.09-.09.16-.13l-.1,0,.08-.1c.1-.11.15,0,.18,0l0-.13.09,0c-.06-.11,0-.07,0-.22s0,0,.06,0a1.84,1.84,0,0,0-.05-.25s0,.09,0,.14l-.12-.05c-.05-.15,0-.17,0-.28l0,.08a.48.48,0,0,1,.07-.26s-.06.07-.07,0,0,0,.05-.07-.12-.11-.1-.22h0s0,0,0-.08h.09l-.1-.07c0-.06-.07-.12,0-.13l0,0c0-.14-.08-.27-.13-.4l.06,0c-.11,0-.08-.22-.18-.14,0-.1-.2-.22-.06-.26-.15-.22-.33-.23-.5-.48,0-.16-.22-.31-.37-.43a3.85,3.85,0,0,0-1-.38c-.17-.24-.56-.11-.76-.24l-.07.05c-.14-.12-.38,0-.57-.15l-.09,0s0,0,0,0S35,37,35,36.92h0c0-.08-.17,0-.23,0l0,.09-.11,0,0,0c-.46.16-.66-.13-1.12,0,.06-.09-.09,0-.1-.05s-.21,0-.31.08,0,0,0,0h-.17c.09-.14-.11.13,0,0a3,3,0,0,0-1.53.4l0,0c-.13.06-.25.19-.37.21s-.13.21-.15.24-.2.1-.16.07-.06.25-.21.34-.19.43-.28.37h0c-.19.15-.15.4-.28.62h0a1.64,1.64,0,0,0,.32.51,2.17,2.17,0,0,1,.42-.11,1.37,1.37,0,0,1,.37-.17,1.49,1.49,0,0,1,.28-.59,1.7,1.7,0,0,1,.52-.29,2.62,2.62,0,0,1,1.37-.44l.12-.1c.32.16.77,0,1.15.14v-.08c.11,0,.1,0,.13.07a2.7,2.7,0,0,1,2.34.82c0,.08.18.22.16.3a.58.58,0,0,1,.33.47h0l0,.07h0c.08.08,0,.2-.08.27h0a2.25,2.25,0,0,1-.88.86,2.47,2.47,0,0,1-1.31.44,5.15,5.15,0,0,1-1.5-.09C33.75,41.28,32.69,41,32.6,41Z"/><path class="cls-3" d="M31.31,40.24h0S31.33,40.22,31.31,40.24Z"/><polygon class="cls-3" points="32.89 42.2 32.88 42.2 32.9 42.25 32.89 42.2"/><path class="cls-3" d="M31.33,41.51c.06.05.07.05.07,0Z"/><path class="cls-3" d="M31.07,39.94s0,0,0,0l0,0Z"/><path class="cls-3" d="M30.68,40.22h0S30.68,40.24,30.68,40.22Z"/><path class="cls-3" d="M33.32,34.76Z"/><path class="cls-3" d="M33.39,35.3Z"/><path class="cls-3" d="M33.26,35.37Z"/><path class="cls-3" d="M33.24,35.08h0Z"/><path class="cls-3" d="M33.24,34.6Z"/><path class="cls-3" d="M33.27,34.6h0Z"/><path class="cls-3" d="M33.19,34.31h0Z"/><path class="cls-3" d="M31.79,34.91h0Z"/><path class="cls-3" d="M33.15,34.35h0Z"/><path class="cls-3" d="M33.44,35.31h0Z"/><path class="cls-3" d="M33.22,35.44h0Z"/><path class="cls-3" d="M32.43,35.73h0Z"/><path class="cls-3" d="M33,35.52h0s0,0,0,0H33Z"/><path class="cls-3" d="M31.66,35.46h.11c.05,0-.07,0,0,.08h0s.23,0-.09,0h0s0,0,0,0h.07l.09,0h-.06l0,0h-.07s.19,0,.1,0l.12,0h-.05a.19.19,0,0,0,.1,0h.35s0,0,.05,0h.1c-.11,0,.17,0,.17,0s0,0,0,0,.08,0,.13,0-.07,0-.07,0h.15s.11,0,0,0h0s.21,0,.09,0h0l-.23,0h.07s0,0,0,0l-.26,0c.06,0,.19,0,.1,0h.09c.17,0-.07,0,0,0H33l-.08,0s0,0,0,0h0s0,0,0,0h0l0,0h.07s0,0,.08,0h0s-.05,0,0,0a.35.35,0,0,1,.16,0h-.09s.14,0,0,0h0s-.05,0,0,0h0s-.08,0,0,0-.11,0-.09,0h.13c.07,0-.06,0,0,0l.25,0-.13,0h.1c.06,0,0,0,0,0l-.24,0h0s-.07,0,0,0h.08l0,0h0s0,0,0,0h0c.11,0,0,0,0,0h.06c.07,0-.1,0-.07,0h.09c-.11,0,0,0,.06,0l-.11,0h0l.19,0-.08,0h.09c-.11,0,0,0,0,0h.07l-.13,0h.06l-.14,0c-.1,0,0,0,0,0h.08l-.1,0h0l.1,0-.09,0h0l0,0h.08c-.11,0,.05,0-.09,0,.07,0-.06,0,.1,0s-.14,0-.06-.05.1,0,.11,0l-.14-.08c.19,0-.06,0,.05,0h-.07c.12,0,0,0,.09,0h-.11s0,0,.09,0h0c.09,0,0,0,0,0h-.07c-.22-.06.11,0-.09-.1.11,0-.06,0,.06,0s0,0-.07,0h0c.16,0-.12,0,0,0s0-.08.06-.11h0s0,0,0,0l-.11,0c-.06,0,.07,0,.07,0s-.16,0-.1,0-.12-.05,0,0h0c.11,0-.07,0,0,0h0l-.44-.09-.49,0-.4,0,.08.09-.17,0,0,.16.11,0c-.2,0,0,.07-.12.08l.09,0s-.05,0-.07,0,.13.18,0,.24,0,0-.1,0c.11,0,.11.07.09.09h0c.09,0,0,0,0,0h0c0,.09.14.19,0,.27s0,.09-.09.13S31.61,35.45,31.66,35.46Z"/><path class="cls-3" d="M31.76,35.62Z"/><polygon class="cls-3" points="32.88 35.56 32.88 35.56 32.94 35.57 32.88 35.56"/><path class="cls-3" d="M32.9,35.69h0Z"/><path class="cls-3" d="M31.83,35.68h0Z"/><path class="cls-3" d="M32.38,35.74h0Z"/><path class="cls-3" d="M36.27,39.94Z"/><path class="cls-3" d="M36.24,40.48Z"/><path class="cls-3" d="M36.1,40.52Z"/><path class="cls-3" d="M36.13,40.24h0Z"/><path class="cls-3" d="M36.23,39.76Z"/><path class="cls-3" d="M36.26,39.77h0Z"/><path class="cls-3" d="M36.24,39.47h0Z"/><path class="cls-3" d="M34.75,39.78Z"/><path class="cls-3" d="M36.19,39.5l.05,0Z"/><path class="cls-3" d="M36.29,40.49h0Z"/><path class="cls-3" d="M36.05,40.58h0Z"/><path class="cls-3" d="M35.22,40.71h0Z"/><path class="cls-3" d="M35.82,40.62h0a0,0,0,0,0,0,0l-.06,0Z"/><path class="cls-3" d="M34.51,40.3l.11,0c0,.05-.07,0,0,.09h0s.22.08-.1,0h0s0,0,0,0h.07l.08,0h0v0l-.07,0s.18.07.1.05c.1,0,.06,0,.11,0l-.05,0a.14.14,0,0,0,.08.06l.35.07s0,0,.05,0h0l.11,0h0s0,0,0,0l.06,0c-.11,0,.17,0,.17,0s0,0,0,0,.08,0,.13,0-.06,0-.07,0l.08,0,.06,0s.12,0,0,0c.06,0,.1,0,.11,0H35.7s.22,0,.1,0h0l-.23-.08h0l0,0,.06,0s0,0,0,0l-.25-.08c.06,0,.18,0,.11,0l.08,0c.16,0-.07,0,0,0l.1,0h0l.14,0h0s-.07,0-.07,0,0,0,.06,0l-.1,0h.06l.08,0s0,0,0,0h0s0,0,0,0l.14,0-.07,0s0,0,.09,0h0s0,0,0,0,.06,0,.16,0l-.09,0s.14,0,0,0l0,0s0,0,0,0h0s-.08,0,0,0l-.09,0,.13,0c.07,0,0,0,0-.05l.25.08-.13-.05.1,0c.06,0,0,0,0,0L36,40.39h0c-.05,0-.07,0,0,0h0l.06,0,0,0h0s0,0,0,0h0c.1,0,0,0,0-.05l.06,0c.07,0-.09,0-.06,0l.08,0c-.1,0,0,0,.06,0l-.1,0h0l.19.06-.08,0,.09,0c-.1,0,0,0,0,0l.07,0-.12-.06,0,0-.13,0c-.1,0,0,0,0,0l0,0s0,0,.06,0l-.08,0h.06l-.09,0h0l.1,0-.09,0s0,0,0,0h0l0,0,.08,0c-.11,0,0,0-.09-.05.08,0,0,0,.11,0s-.13-.07,0-.06.1,0,.11,0L36.23,40c.19,0,0-.06.06,0l-.07,0c.11,0,0,0,.1,0l0,0-.06,0s0,0,.09,0h0c.09,0,0,0,0,0l-.1,0h0c-.21-.11.11,0-.08-.12.11,0-.05,0,.06,0s0,0-.06,0h0c.14.06-.12,0,0,0s0-.07.08-.08l0,0s0,0,0,0l-.1,0c-.06,0,.07,0,.06,0s-.14-.06-.08-.06-.12-.07,0,0h0c.11,0-.06,0,0,0h0l-.42-.17-.47-.15-.39-.1.06.1h-.16v.15l.1,0c-.19,0,0,.07-.13.06l.09,0h-.07c0,.08.08.2-.05.23s0,0-.1,0c.1.06.09.08.07.1h0l0,0h0c.08,0,0,0,0,0h0c-.05.09.09.22-.06.27s0,.1-.11.11S34.47,40.28,34.51,40.3Z"/><path class="cls-3" d="M34.59,40.48Z"/><polygon class="cls-3" points="35.69 40.63 35.69 40.64 35.75 40.65 35.69 40.63"/><path class="cls-3" d="M35.68,40.77s0,0,0,0Z"/><path class="cls-3" d="M34.64,40.55h0Z"/><path class="cls-3" d="M35.17,40.71h0Z"/><path class="cls-3" d="M34,39.94Z"/><path class="cls-3" d="M34,40.48Z"/><path class="cls-3" d="M33.84,40.52Z"/><path class="cls-3" d="M33.87,40.24h0Z"/><path class="cls-3" d="M34,39.76h0Z"/><path class="cls-3" d="M34,39.77h0Z"/><path class="cls-3" d="M34,39.47h0Z"/><path class="cls-3" d="M32.49,39.78h0Z"/><path class="cls-3" d="M33.93,39.5l0,0Z"/><path class="cls-3" d="M34,40.49h0Z"/><path class="cls-3" d="M33.79,40.58h0Z"/><path class="cls-3" d="M33,40.71h0Z"/><path class="cls-3" d="M33.56,40.62h0a0,0,0,0,0,0,0l-.06,0Z"/><path class="cls-3" d="M32.25,40.3l.11,0c0,.05-.07,0,0,.09h0s.22.08-.1,0h0s0,0,0,0h.07l.09,0h-.06l0,0-.08,0s.19.07.1.05c.11,0,.06,0,.12,0l0,0a.14.14,0,0,0,.08.06l.35.07s0,0,0,0h0l.11,0h-.05s0,0,0,0l.06,0c-.11,0,.17,0,.17,0s0,0,0,0,.08,0,.13,0-.07,0-.07,0l.08,0,.06,0s.12,0,0,0c.06,0,.1,0,.11,0h-.09s.21,0,.09,0h0l-.23-.08h0l0,0,.06,0s0,0,0,0l-.25-.08c.06,0,.18,0,.1,0l.09,0c.16,0-.07,0,0,0l.09,0h0l.14,0h0s-.07,0-.07,0-.05,0,0,0l-.09,0h.06l.07,0s0,0,0,0h0s0,0,0,0l.14,0-.07,0s0,0,.09,0h0s0,0,0,0a.34.34,0,0,1,.17,0l-.09,0s.14,0,0,0l0,0s0,0,0,0h0s-.08,0,0,0l-.09,0,.12,0c.08,0,0,0,0-.05a1.33,1.33,0,0,1,.24.08l-.12-.05.1,0s0,0,0,0l-.23-.09h0s-.06,0,0,0h0l.06,0,0,0h0s0,0,0,0h0c.1,0,0,0,0-.05l.06,0c.07,0-.1,0-.06,0l.08,0c-.11,0,0,0,.06,0l-.1,0h0l.19.06-.08,0,.09,0c-.11,0,0,0,0,0l.07,0-.12-.06.05,0-.13,0c-.1,0,0,0,0,0l0,0s0,0,.06,0l-.08,0h.06l-.09,0h0s0,0,0,0l.1,0-.09,0s0,0,0,0h0l0,0,.08,0c-.11,0,0,0-.09-.05.07,0-.05,0,.1,0s-.12-.07,0-.06.09,0,.11,0L34,40c.18,0,0-.06.06,0L34,40c.11,0,0,0,.09,0l0,0-.06,0s0,0,.09,0h0c.09,0,0,0,0,0l-.1,0h0c-.21-.11.11,0-.08-.12.1,0-.05,0,.06,0s0,0-.06,0h0c.14.06-.12,0,0,0s0-.07.08-.08l0,0s0,0,0,0l-.1,0c-.06,0,.07,0,.06,0s-.15-.06-.09-.06-.11-.07,0,0h0c.1,0-.06,0,0,0h0l-.41-.17-.47-.15-.39-.1.06.1h-.17v.15l.1,0c-.19,0,0,.07-.14.06l.09,0h-.07c0,.08.09.2,0,.23s0,0-.1,0c.1.06.09.08.07.1h0l0,0h0c.08,0,0,0-.05,0h0c0,.09.1.22,0,.27s0,.1-.12.11S32.21,40.28,32.25,40.3Z"/><path class="cls-3" d="M32.32,40.48Z"/><polygon class="cls-3" points="33.43 40.63 33.43 40.64 33.48 40.65 33.43 40.63"/><path class="cls-3" d="M33.42,40.77s0,0,0,0Z"/><path class="cls-3" d="M32.38,40.55h0Z"/><path class="cls-3" d="M32.9,40.71h0Z"/><path class="cls-3" d="M37.92,34.6Z"/><path class="cls-3" d="M38,35.21Z"/><path class="cls-3" d="M37.85,35.29h0Z"/><path class="cls-3" d="M37.83,35h0Z"/><path class="cls-3" d="M37.85,34.41Z"/><path class="cls-3" d="M37.88,34.41h-.05S37.86,34.41,37.88,34.41Z"/><path class="cls-3" d="M37.81,34.08h0Z"/><path class="cls-3" d="M36.39,34.77h0Z"/><path class="cls-3" d="M37.77,34.12h0Z"/><path class="cls-3" d="M38,35.22h0Z"/><path class="cls-3" d="M37.8,35.37h0Z"/><path class="cls-3" d="M37,35.71h0Z"/><path class="cls-3" d="M37.58,35.47h0Z"/><path class="cls-3" d="M36.23,35.41h.12c0,.05-.07.06,0,.1h0s.23,0-.09.05h0s0,0,0,0h.07l.09,0h0v0h-.07s.19,0,.1,0c.11,0,.07,0,.12,0h0s0,0,.1.05h.35s0,0,.05,0h0s0,0,0,0h.06c-.11,0,.17,0,.18,0s0,0,0,0h.21s.12,0,0,0h0c.05,0,0,0,0,0s.22,0,.09,0h0l-.24,0h.07s0,0,0,0l-.26,0c.06,0,.18,0,.1,0h.09c.16,0-.07,0,0,0h.21s-.07,0-.07,0,0,0,.05,0l-.1,0h.14s0,0,0,.06h0s0,0,0,0l.15,0-.08,0s0,0,.09,0h0s0,0,0,0,.06,0,.16,0h-.09s.14,0,0,0l0,0s0,0,0,0h0s-.08,0,0,0l-.1,0h.13c.08,0-.05,0-.05,0l.26,0-.14,0,.11,0s-.05,0,0,0l-.24,0h0c-.05,0-.07,0,0,0h.05s0,0,0,0h0c.11,0,0,0,0-.06h.06c.07,0-.1,0-.06,0h.08c-.11,0,0,0,.06,0H37.8l.19,0h0c-.11,0,0,0,0,0H38l-.13,0H38l-.14,0c-.1,0,0,0,0,0h0s0,0,.06,0h0c-.09,0-.14,0-.09,0h0s0,0,0,0l.1,0-.1,0s0,0,0,0h0l0,0H38c-.12,0,0,0-.1,0,.08,0,0,0,.11,0s-.14,0-.06-.06.1,0,.11,0l-.14-.1c.19,0,0,0,0-.06h-.07c.12,0,0,0,.1,0h-.11s0,0,.08,0h0c.1,0,0,0,0,0l-.11,0h0c-.22-.07.11,0-.09-.11.11,0-.06,0,.06,0s0,0-.07,0h0c.16,0-.12,0,0,0s0-.09.07-.12h0s0,0,0,0-.09,0-.1,0,.07,0,.06,0-.15,0-.09,0-.12-.06,0,0h0c.11,0-.07,0,0,0h0l-.44-.1-.49-.06-.4,0,.08.1-.17,0,0,.18.11,0c-.2,0,0,.08-.13.09l.1,0h-.07c0,.1.12.21,0,.28s0,0-.1,0c.11.05.11.08.09.1h0l0,0h0c.08,0,0,0,0,0h0c0,.1.13.22,0,.31s0,.11-.09.15S36.19,35.39,36.23,35.41Z"/><path class="cls-3" d="M36.34,35.59Z"/><polygon class="cls-3" points="37.46 35.52 37.46 35.52 37.51 35.52 37.46 35.52"/><path class="cls-3" d="M37.47,35.67s0,0,0,0A0,0,0,0,0,37.47,35.67Z"/><path class="cls-3" d="M36.4,35.66h0Z"/><path class="cls-3" d="M37,35.72h0Z"/><path class="cls-5" d="M42.29,47.06c-3.72.66-5.22.19-5.88-.43-.14-.13-.75-.75-1.69-1.54-.41-.34-.6-.48-1.08-.85-1.18-.94-1.81-1.52-2.1-1.75A6.9,6.9,0,0,0,27,41.26c.52,1.13,1.05,2.27,1.57,3.41-.7.77-1.4,1.55-2.11,2.32,4.24,1,6.36.29,7.49-.8a18.09,18.09,0,0,0,1.3-1.8,9.37,9.37,0,0,1,5.83-3.13l-1,3Z"/></g></g></svg>