<svg xmlns="http://www.w3.org/2000/svg" viewBox="0 0 139.14 164.57"><defs><style>.cls-1{fill:none;stroke:#fad301;stroke-miterlimit:10;stroke-width:2px;}</style></defs><g id="圖層_2" data-name="圖層 2"><g id="圖層_1-2" data-name="圖層 1"><path class="cls-1" d="M71,71.47c-25.86-31.92-60.19-19-67,9.86-10.39,30.29,8.14,71.21,35.55,80,7.33,3.64,34,4.87,42.35-11.28,11.38,14.3,34.92,5.45,43.67-5.32,12.42-13.2,18-64.26,5.92-77.5C120,48.33,83.11,34.52,71,71.47Z"/><path class="cls-1" d="M46.42,67.77C24.48,56.41,16.56,79.25,20.75,105.2"/><path class="cls-1" d="M94.93,13.52C76.4,24.93,67.06,57,70.63,70.9"/><path class="cls-1" d="M70.68,40.64C59.83,17.48,35.71,13.25,11.5,1.51,7.45,33.05,49.27,46.27,70.68,40.64Z"/><path class="cls-1" d="M70.86,40.29C60,30.08,43.84,29,30.43,19.4"/></g></g></svg>