<svg xmlns="http://www.w3.org/2000/svg" viewBox="0 0 80 78.68"><defs><style>.cls-1{font-size:9.83px;font-family:jf-openhuninn-1.1;}.cls-1,.cls-3{fill:#040000;}.cls-2{fill:#fef5e9;}.cls-4{fill:#065b8f;}.cls-5{fill:#f2cf20;}</style></defs><g id="圖層_2" data-name="圖層 2"><g id="圖層_1-2" data-name="圖層 1"><text class="cls-1" transform="translate(28.1 62.07) scale(1.02 1)">收藏</text><ellipse class="cls-2" cx="40" cy="39.34" rx="40" ry="39.34"/><text class="cls-1" transform="translate(30.65 64.94) scale(1.02 1)">收藏</text><path class="cls-2" d="M55.6,45.08,41.2,52.43l-14.58-4c.12-3.7.24-7.41.37-11.11,4.09-.67,8.54-1.23,13.3-1.61s9.44-.55,13.67-.54C54.51,38.5,55.05,41.79,55.6,45.08Z"/><path class="cls-3" d="M34.16,51.31Z"/><path class="cls-3" d="M33.74,35.5h0s0,0,0-.06Z"/><path class="cls-3" d="M38,35.18h0S38,35.16,38,35.18Z"/><path class="cls-3" d="M26.18,40.07s0,.06,0,.07A.15.15,0,0,1,26.18,40.07Z"/><path class="cls-3" d="M42,52.73h0Z"/><path class="cls-3" d="M42,52.8c-.09,0,0,0,.05-.06a.85.85,0,0,0-.35.16s.08,0,.17-.06Z"/><path class="cls-3" d="M54.41,46.31l0,0Z"/><path class="cls-3" d="M27.76,39.71v.07A.16.16,0,0,0,27.76,39.71Z"/><path class="cls-3" d="M52.44,47.29v.05A.08.08,0,0,0,52.44,47.29Z"/><path class="cls-3" d="M33.82,35.44l0,0Z"/><path class="cls-3" d="M41.83,34.89a.05.05,0,0,0,0,0h0Z"/><path class="cls-3" d="M55.13,42.57h0l0-.07A.22.22,0,0,0,55.13,42.57Z"/><path class="cls-3" d="M47.17,34.82l0,0a4.8,4.8,0,0,0-.64,0l0,.06Z"/><path class="cls-3" d="M53,36.14,52.44,36l.79,0c.11,0,.06.1.08.15l.13.82c.06.32.12.66.21,1l0-.08A7.07,7.07,0,0,1,54,40.76h0A.72.72,0,0,1,54,41v-.44a6.67,6.67,0,0,1,.23.8c0,.08,0,.11,0,.12l.16.83,0,.27c.08.25.23.1.25.8.07-.27.13.33.17.24l0,.18a11.35,11.35,0,0,0,.34,1.35s0-1.64,0-2.08c.07.57,0,.14.06,0l0,0a2.92,2.92,0,0,1,0-.53h0l0,0s0,0,0,0,0,0,0-.1v0A3.43,3.43,0,0,1,55,42h.06a12.37,12.37,0,0,1-.16-2.08c0-.36-.15-.77-.18-1.2-.09-.69,0-.36,0-.71s-.06.1-.09-.07v-.53c.06.3.07.13.08.07-.06-.44-.06-1.16-.21-1.28,0-.33,0-.56,0-.74a4.52,4.52,0,0,0,0-.49,2.27,2.27,0,0,1,0,.44c0-.39,0-.16,0,0a3.85,3.85,0,0,0-.14-.62l-.94-.06-.68-.05c-.17,0-.28,0-.3,0v0c-.08.1.06.2-.2.26l-.18,0-.26,0c-.17,0-.08-.06-.08-.07-.43,0-1,0-1.53,0l.54.26a3.86,3.86,0,0,0-1.3-.07L49.11,35c-.87-.15-.6.09-1,0l-.44-.08.43,0c-.43,0-.61-.06-1-.11h0a1.26,1.26,0,0,1-.58.1,7.59,7.59,0,0,1-1.47,0l-.17.12-.52,0v-.08l2.13-.13v0l-1.09.08c-.12,0-.45-.08-.22-.15l-.24.09c-1.29.08-1.3.08-2.66.08l.12,0a1.23,1.23,0,0,1-.62,0,15.86,15.86,0,0,1-2.19,0l-.11.1c-.17,0-.44-.11-.51,0l-.37.08a3.2,3.2,0,0,1-.64,0H38c-.54,0,0,.08-.6.09-.2-.05-.2.14-.5.15l-.31-.11a10.16,10.16,0,0,0-1.4.21c-.38,0-.57-.1-.34-.24a1.43,1.43,0,0,1-.58.22c-.08,0,0-.06.06-.12-.41,0-.24.07-.54.11-.08.1-.16.27-.26.29l.12,0a3.33,3.33,0,0,1-1,.15v-.05l-.39.08,0-.06-.56.09h.08a6.31,6.31,0,0,1-.82.1v0a11.39,11.39,0,0,0-2.09.35l.1-.09c-.29,0-.06.12-.4.13l0-.08c-.27.16-.38,0-.58,0l.11.1-.43,0c-.71.08-.51-.07-.41-.14l-.48.17-.18-.08a1.31,1.31,0,0,1-.37.12,2.76,2.76,0,0,0,0,.65s-.06-.15-.08.08a7.52,7.52,0,0,0,.11,1l0-.18,0-.32.15.1c0,.19,0,.27,0,.33a1.11,1.11,0,0,1,0,.19,1.35,1.35,0,0,0,0,.35l0-.19a1.81,1.81,0,0,1-.09.72c0-.08.08-.2.09,0s-.05.07-.07.2.14.35.08.63l0,0a.46.46,0,0,1,0,.24l-.11-.07.1.24c0,.17,0,.41,0,.39l0-.1-.07,1.24-.09,0c.12.12-.07.67.09.63-.09.24,0,.93-.14.79a21.05,21.05,0,0,1,0,2.24,9.41,9.41,0,0,0-.18,2v1.38l1.17.29.72.16,1.3.29a25,25,0,0,0,2.62.75h.24c.5.26,1.34.33,2,.65l.33,0a.12.12,0,0,1-.08-.1c.2.1.64.17.59.26h-.06c-.06.09.66.13.87.28l-.1-.14.39.13h-.11c1.81.23,2.5.78,4.19,1-.24.06.34,0,.33.16a.93.93,0,0,0,.42.17c.2,0,.48.08.68.1s.27-.19.39-.26,0,0,0,0l.6-.29c-.25.31.33-.32.09,0,1.48-.61,3.28-1.67,5-2.46h-.09a9.67,9.67,0,0,1,1.26-.62,2.71,2.71,0,0,0,.77-.52c.31-.24.69-.27.54-.2A6.51,6.51,0,0,1,51,48c.24,0,1.34-.84,1.43-.7v0c.72-.24,1.25-.72,2-1l0,0,1.23-1.16L55,44.89l-1.44.25L50.18,47l-2.79,1.23L41.1,51.47h0a.09.09,0,0,1,0,.05l0,0h-.12c-1.35-.58-3.21-.83-4.69-1.39l-.06.1A1.06,1.06,0,0,1,35.7,50l-8.27-2.15c0-.76.08-1.5.13-2.25.08-.36.07-1.44.15-1.72a34.75,34.75,0,0,1,0-3.68v-.52s0,0,0,0a6.48,6.48,0,0,1,0-1.16l0-.32,0-.06s0-.05.05,0h0l2.65-.41,3.26-.48c2.16-.29,4.33-.52,6.58-.63s4.52-.38,6.93-.34C47.72,36.35,52.58,36.17,53,36.14Z"/><path class="cls-3" d="M54.21,41.5v0S54.19,41.51,54.21,41.5Z"/><polygon class="cls-3" points="50.09 34.85 50.13 34.85 50 34.8 50.09 34.85"/><path class="cls-3" d="M54.82,37.72c0-.29,0-.3-.06-.26A2.07,2.07,0,0,0,54.82,37.72Z"/><path class="cls-3" d="M54.68,43.83c0,.15,0,.09,0,0l0-.26Z"/><path class="cls-3" d="M55.16,43.11l0,0C55.18,43.07,55.17,43.07,55.16,43.11Z"/><path class="cls-3" d="M41.18,40.79s0,0,0,0Z"/><path class="cls-3" d="M41.48,45.64h.06Z"/><path class="cls-3" d="M41.38,46.43h0Z"/><path class="cls-3" d="M41.23,43.85s0,0,0,0Z"/><path class="cls-3" d="M41,39.36Z"/><path class="cls-3" d="M41.06,39.37s0,0,0,0,0,0,0,.06S41,39.38,41.06,39.37Z"/><path class="cls-3" d="M40.86,36.76h0Z"/><path class="cls-3" d="M39.67,44h0Z"/><path class="cls-3" d="M40.84,37.17h0Z"/><path class="cls-3" d="M41.54,45.66h0Z"/><path class="cls-3" d="M41.37,47.15h0Z"/><path class="cls-3" d="M40.67,50.82h0l0,0A0,0,0,0,0,40.67,50.82Z"/><path class="cls-3" d="M41.18,48.15h0a.31.31,0,0,0,0-.12h-.06Z"/><path class="cls-3" d="M39.76,49.28l.13-.11c.06.34-.06.5,0,.79l0,0s.25.06-.08.54h0s0,0,0,.05l.08-.09c0,.05.09.09.1.15s0,0-.06,0l0,.15-.08,0s.21,0,.12.16c.12-.06.08.06.14,0l-.06,0c0,.07,0,.22.12.25a2.67,2.67,0,0,1,.36-.39c0,.11,0,0,0,0h0c0-.07.11-.07.13-.11h0s0,0,0,0h0a.27.27,0,0,1,0-.09h.06c-.12-.05.17-.33.18-.4s0-.14,0-.22S41,50,41.05,50s-.07,0-.08,0l.09-.1c0,.06,0,0,.07,0s.11-.22,0-.24c.06-.11.11-.12.11-.16s0,0-.07,0,0,0,0,0,.21-.36.08-.37h0c-.1,0-.2,0-.26,0l.05,0L41,49a.06.06,0,0,1,.07,0c0-.08,0-.19,0-.29l-.28.11c.07-.08.19-.23.1-.24l.09,0c.18-.17-.08-.11,0-.18l.1-.08v.08a.7.7,0,0,1,.15-.19h0a.11.11,0,0,1-.09-.11c0-.08-.06-.14,0-.27l-.1,0,.06-.1h.08c0,.09,0,.27,0,.39h0c0-.07,0-.15,0-.2s.1-.08.16,0l-.08,0a.88.88,0,0,1,.06-.5l0,0c0-.05-.05-.1,0-.11a.6.6,0,0,1,.16-.41l-.1,0s.15-.09,0-.1l0-.07s0-.06,0-.12h0c0-.1-.08,0,0-.11s-.13,0-.1-.09l.13-.06c.08-.1-.06-.11-.07-.26a.23.23,0,0,1,.28-.06c-.13-.06-.09,0-.15-.11s.06,0,.11,0-.05,0-.05-.1a1.29,1.29,0,0,1-.26,0l0,0a.14.14,0,0,1,0-.19h.05l0-.07h.06l0-.1h0a.19.19,0,0,1,0-.15h0c.11-.13,0-.24,0-.39l.07,0c.07-.06-.11,0-.08-.08h.09c-.12,0,0-.07.07-.11l-.12,0,0-.07c0-.08.15,0,.21,0l-.09-.05h.1c-.12,0,0,0-.05-.11s.06,0,.08,0l-.15-.11.06.07h-.15c-.11-.06,0-.09,0-.14l0,0c0-.08,0-.08.06-.13s-.07,0-.09,0,.05,0,.07,0-.16-.06-.11-.11h0s0,0,0,0h.12l-.11,0s-.05-.08,0-.07h0l0-.23h.09c-.12,0,0-.12-.11-.11.08-.05-.06-.17.11-.15,0-.15-.16-.23-.08-.42s.09-.25.1-.37-.12-.37-.18-.61c.2-.15-.08-.35,0-.51l-.08,0c.12-.11,0-.26.08-.4l0-.06-.07,0s0-.13.09-.12h0c.11,0-.05-.13,0-.17l-.11,0,0-.07,0,0c-.26-.33.09-.5-.15-.8.13,0-.06-.06.07-.07s0-.15-.09-.21h0V39.3c.17.06-.14-.08,0,0,.12-.3,0-.69,0-1h0c0-.08-.05-.19,0-.26s-.11-.14-.12-.17.07-.14.06-.11-.17-.14-.11-.25-.15-.29,0-.3h0c.1-.14-.09-.27,0-.42h0l-.49-.29-.53.1-.42.28.11.71-.15.57.1,1.38.13.09c-.2.28,0,.62-.09.92h.1c0,.08-.06.08-.07.1a12.38,12.38,0,0,1,.1,2.25c-.07.06,0,.27-.09.32a1.27,1.27,0,0,1,.13.68h0l0,.11h0c.1.12,0,.31,0,.46h0a15.83,15.83,0,0,1,.1,2.48c-.15.4.09.85,0,1.31A2.58,2.58,0,0,0,39.76,49.28Z"/><path class="cls-3" d="M39.94,50.62h0S39.92,50.62,39.94,50.62Z"/><polygon class="cls-3" points="41.07 48.7 41.07 48.7 41.13 48.68 41.07 48.7"/><path class="cls-3" d="M41.14,49.9s0-.06,0,0A0,0,0,0,0,41.14,49.9Z"/><path class="cls-3" d="M40,51.06s0,0,.05,0a.18.18,0,0,1,0-.05Z"/><path class="cls-3" d="M40.62,50.92h0S40.64,50.91,40.62,50.92Z"/><path class="cls-2" d="M51.41,26.26l8.75,2.86L47,39.16,39.38,34.5,28.44,27.33l-8.38,5,12.76,7.53c2-1.77,4.21-3.58,6.56-5.38A133.29,133.29,0,0,1,51.41,26.26Z"/><path class="cls-3" d="M44.77,38.67Z"/><path class="cls-3" d="M22,32.42l0,0h0Z"/><path class="cls-3" d="M26.25,35.1l0,0S26.29,35.1,26.25,35.1Z"/><path class="cls-3" d="M28.46,28.2s0,0,0,0Z"/><path class="cls-3" d="M53,35.4h0l0,0Z"/><path class="cls-3" d="M53,35.49c-.1.06,0,0,0-.08a1.29,1.29,0,0,0-.3.22S52.9,35.5,53,35.49Z"/><path class="cls-3" d="M53.44,26.33h0Z"/><path class="cls-3" d="M27.91,26.66l.12-.08Z"/><path class="cls-3" d="M55.94,27.18l0,0S55.94,27.17,55.94,27.18Z"/><path class="cls-3" d="M22.08,32.43h0Z"/><path class="cls-3" d="M30.24,37.49a0,0,0,0,0,0,0h0Z"/><path class="cls-3" d="M48.85,27.93l0,0-.06.09Z"/><path class="cls-3" d="M34.76,37.61s0,0,0,0-.32.24-.6.47l0,.06Z"/><path class="cls-3" d="M41.08,34.37l-.61.3c1.69-1.35,2.59-1.84,4.05-3l-.07.09a9.29,9.29,0,0,1,2.87-1.85h0a1,1,0,0,1,.26-.17l-.47.22a8.19,8.19,0,0,1,.77-.63c.09,0,.12,0,.14,0l.84-.57.3-.1c.24-.2,0-.27.78-.63-.33.06.31-.28.19-.28l.21-.06a16.33,16.33,0,0,0,1.35-1s-1.77.8-2.28,1c.61-.34.15-.11,0-.07l0,.05a3.39,3.39,0,0,1-.6.23h0l0,0s0,0,0,0,0,0-.1.08h0c-.14.1-.4.25-.51.32l0-.05A21.11,21.11,0,0,1,46,29.49c-.39.17-.76.54-1.22.81-.69.45-.39.16-.76.35s.13,0,0,.13l-.56.28c.29-.21.11-.13,0-.11-.45.3-1.21.71-1.27.91-.63.38-.66.34-.92.52.1,0,.28-.15.3-.13-.27.13-.11.09,0,0-.33.31-2,1.2-2,1.37v0c0,.14.17.12,0,.35l-.2.09-.22.23c-.18.11-.12,0-.12,0-.37.36-1,.77-1.44,1.15l.68-.2a6.42,6.42,0,0,0-1.28.91l-.3.12c-.92.53-.51.53-.87.75l-.47.25.41-.33c-.44.29-.62.4-1,.61h0l.05,0-.05,0a1.77,1.77,0,0,1-.5.51l-.58.49c-.1.09-.22.18-.35.28a2.17,2.17,0,0,1-.37.24,1.54,1.54,0,0,1-.05.17l-.13.07-.17-.14,0-.08.14.08,1.39-1.18,0,0c-.36.3-.75.67-1,.86,0,0-.22.13-.23.1a.06.06,0,0,1-.05-.08.3.3,0,0,1,0,.12l-.09.08L32,38.65l-1.26-.83.1.1c-.29-.14-.58-.28-.62-.39a19.56,19.56,0,0,1-2.17-1.47H27.9c-.17-.11-.36-.39-.52-.33l-.4-.18a3.88,3.88,0,0,1-.66-.4h0l-.05,0h0c-.53-.36,0,.08-.64-.34-.17-.17-.29,0-.58-.22l-.24-.3a13.52,13.52,0,0,0-1.48-.81c-.36-.27-.49-.48-.18-.42a2,2,0,0,1-.7-.25c0-.08,0-.06.14,0-.38-.3-.28-.11-.59-.3-.13,0-.2.18-.26.15l0,0a.92.92,0,0,1-.46-.24h.09l-.11,0,0,0h.12l.16-.12h0a.5.5,0,0,1,.12-.09l.09,0,.15-.08v0a18.47,18.47,0,0,0,2.15-1.34l-.08.13c.33-.11,0-.14.39-.32l.06.07c.24-.28.4-.21.63-.3l-.15,0,.4-.22c.45-.22.34,0,.31.06l.25-.25.11.05c.15-.23.22-.11.57-.39.05,0,0,.09.1,0l.55-.49-.34.28,0-.16c.33-.33.53-.3.79-.51l-.17.16a2.58,2.58,0,0,1,.77-.39c-.09,0-.24.06-.06-.07s.11,0,.15,0,0-.15.1-.2a.46.46,0,0,1,.07.07s0,0,0,0,.05,0,.08,0l-.07.09s.05-.05.18,0,.43.22.37.27l-.11,0,1.23.84,0,.08c.19,0,.66.49.7.33.19.23,1,.56.73.62.81.55,1.34.7,2.29,1.42a13,13,0,0,0,1.91,1.39l3.43,2c.68.65,2,1.13,2.78,1.75l.28.07c.49.45,1.43.84,2.15,1.43a2.78,2.78,0,0,1,.37.16.14.14,0,0,1-.07-.13c.2.17.68.41.6.48l-.07,0s.14.13.35.24l.33.19.15.09c.07.06.14.1.19.15a3,3,0,0,1-.18-.24l.72.46-.2-.1.49.26.92-.75.48-.39c.31-.24.61-.45.91-.66a14.63,14.63,0,0,0,1.89-1.51c-.14.26.28-.3.38-.21.51-.18.73-.6,1-.89,0,0,0,0,0,0l.59-.44c-.25.4.34-.43.1-.07,1.6-1.06,3.51-2.68,5.31-4l-.11,0,.88-.68c.38-.3.74-.57,1.08-.79a4.71,4.71,0,0,0,.9-.75l-.65-.14c-.78-.18-1.23-.48-1-.38-.4-.12-.8-.21-1.2-.3a4.34,4.34,0,0,1-.91-.28c-.18-.21-1.84-.46-1.81-.62l0,0c-.81-.39-1.66-.47-2.54-.86h.06l-2-.15.37.68,1.47.93,4.38,1.34.28.11.2.08.08.05a.15.15,0,0,1,0,.08.5.5,0,0,1-.16,0l-6.56,5.09-.43.48a21.82,21.82,0,0,0-2.28,1.64l-1.17.92-.58.43c-.07.05-.07,0-.1,0v0l0,.11a.1.1,0,0,1-.06-.07A.29.29,0,0,0,46.8,38l-6.37-3.79c-2.07-1.28-4-2.61-5.87-3.87-.32-.3-1.43-1-1.67-1.22-.64-.34-1.28-.72-1.91-1.12L28.9,26.64l.09.05-.53-.34-.53.33c-.05,0-.06,0,0,0l-.74.49-.64.37-1.34.73,0,0-6.84,4.15,5.3,3.08c1.35.79,2.7,1.6,4.07,2.46.68.47,1.43.92,2.2,1.37L32.9,41l1.66-1.36c.39-.31.79-.61,1.19-.91S40.65,34.66,41.08,34.37Z"/><path class="cls-3" d="M48,29.32h0S48.05,29.34,48,29.32Z"/><polygon class="cls-3" points="37.55 35.48 37.58 35.46 37.43 35.5 37.55 35.48"/><path class="cls-3" d="M43.74,30.76c-.3.19-.3.2-.25.19Z"/><path class="cls-3" d="M50.36,27.72c.16-.09.09-.08,0,0l-.26.17Z"/><path class="cls-3" d="M49.42,27.62l0-.06C49.36,27.63,49.37,27.64,49.42,27.62Z"/><path class="cls-4" d="M40.27,27.94c-1.28-.58-12-5.62-11.72-11.84a3.78,3.78,0,0,1,1.27-3c1.71-1.13,5.13.15,8.62,3.41,1.34-3.67,3.7-5.92,5.84-5.75a3.94,3.94,0,0,1,2.66,1.63C49.91,16.79,41,27.14,40.27,27.94Z"/><path class="cls-5" d="M40.3,28.3a32.86,32.86,0,0,1-4.94-2.92,33.7,33.7,0,0,1-4.64-4c2.18-.19,4.48-.44,6.89-.79,3.09-.46,6-1,8.66-1.62a26.57,26.57,0,0,1-6,9.35Z"/></g></g></svg>