<svg xmlns="http://www.w3.org/2000/svg" viewBox="0 0 80 78.68"><defs><style>.cls-1{font-size:9.83px;font-family:jf-openhuninn-1.1;}.cls-1,.cls-4{fill:#040000;}.cls-2{fill:#fef5e9;}.cls-3{fill:#e14848;}.cls-5{fill:#f2e634;}.cls-6{fill:#eaa092;opacity:0.11;}.cls-7{fill:#efea3c;}</style></defs><g id="圖層_2" data-name="圖層 2"><g id="圖層_1-2" data-name="圖層 1"><text class="cls-1" transform="translate(25.75 62.07) scale(1.02 1)">探索</text><ellipse class="cls-2" cx="40" cy="39.34" rx="40" ry="39.34"/><text class="cls-1" transform="translate(30.75 62.07) scale(1.02 1)">探索</text><path class="cls-3" d="M49.81,28.67,45.3,32.55l5.64-.28-.28,3.88,3.94-3.33,5.64.83-3.39-3.87,3.1-5-4.5,1.94-1.13-6.1c-.85,2-1.69,4.07-2.54,6.1L48.4,25.34Z"/><path class="cls-2" d="M35.72,47c0-7-1.73-9.81-3.38-11.09-.46-.36-1.61-1.13-3.52-2.63C27.29,32,26.08,31,25.3,30.33a8.3,8.3,0,0,1-1.55-3.19,8.19,8.19,0,0,1,0-3.88,1.14,1.14,0,1,1,2.25.28,9.09,9.09,0,0,0,.44,1.62,11.59,11.59,0,0,0,1,2,12.48,12.48,0,0,0,4.38,3.7.52.52,0,0,0,.73,0,.51.51,0,0,0-.24-.72,12.06,12.06,0,0,1-3.46-4.92,11.88,11.88,0,0,1-.7-5.4A4.51,4.51,0,0,1,30,17.17a4.57,4.57,0,0,1,1.83-.7,2.18,2.18,0,0,1,2.67,1.25,2,2,0,0,1-.56,1.94,2.9,2.9,0,0,0-1.41.83,2.77,2.77,0,0,0-.7,1.53,9.48,9.48,0,0,0,.7,2.63c.27.63.2.27,1.13,1.94.41.73.61,1.15,1.11,1.37.11,0,.69.29,1,0a.83.83,0,0,0,0-1A9.13,9.13,0,0,1,35,21.88a7.3,7.3,0,0,1,2.39-4.57,4.61,4.61,0,0,1,3.81-1,4.24,4.24,0,0,1,2.25,1.38,1.5,1.5,0,0,1-.28,1.66,1.6,1.6,0,0,1-1.27.42,3.13,3.13,0,0,0-1.83.14,3.07,3.07,0,0,0-1.41,1.11c-.1,1-.2,1.71-.28,2.21a2.85,2.85,0,0,0,0,1.33c0,.12.29,1,.75,1.06.8.14,1.26-2.26,3.2-3.77a6.39,6.39,0,0,1,3.24-1.25,2.68,2.68,0,0,1,2.68.42,2.23,2.23,0,0,1,.7,1.24,3.73,3.73,0,0,1,.43,2.08A3.65,3.65,0,0,1,48.82,26c-.79.8-1.33.9-1.69.84s-.46-.27-1.41-1.11c-.69-.62-1-.93-1.26-1-.93-.17-1.91,1.14-2.4,1.8a9.6,9.6,0,0,0-1.69,3.88,6.34,6.34,0,0,0,.85,5,6.74,6.74,0,0,0,5.07,2.77l1.41-1.67,1.41-1.66a1.63,1.63,0,0,1,2,0,1.41,1.41,0,0,1,.42,1,7.34,7.34,0,0,1-.7,2.91,8.36,8.36,0,0,1-2,2.49c-1,1-2.11,2.82-2.39,6.24"/><path class="cls-4" d="M28.25,25.81c0,.07,0,.1,0,0Z"/><path class="cls-4" d="M39.27,23.59v.05l0,.11Z"/><path class="cls-4" d="M43.17,20.49l.06,0S43.22,20.44,43.17,20.49Z"/><path class="cls-4" d="M34.49,20.88a.69.69,0,0,0,0,.16Z"/><path class="cls-4" d="M26.84,24.15v0Z"/><path class="cls-4" d="M26.91,24.3c0,.18,0,0-.06-.11a2.41,2.41,0,0,0,.14.59S26.91,24.4,26.91,24.3Z"/><path class="cls-4" d="M35,43.58l0-.08Z"/><path class="cls-4" d="M36.24,20.5l0,.11A.51.51,0,0,0,36.24,20.5Z"/><path class="cls-4" d="M34,39.19l-.06,0S34,39.2,34,39.19Z"/><path class="cls-4" d="M39.3,23.75v.05A.09.09,0,0,0,39.3,23.75Z"/><path class="cls-4" d="M50.15,23.93s0,0,0,.05v0Z"/><path class="cls-4" d="M47.89,42.36h0l.06-.16Z"/><path class="cls-4" d="M42.19,27.33a.23.23,0,0,1,0,0c.11-.13.39-.54.78-1l0-.07A10.62,10.62,0,0,0,42.19,27.33Z"/><path class="cls-4" d="M43.41,38.44a8,8,0,0,1-1.12-.78,8.12,8.12,0,0,0,2.59,1.14l.61.13.4,0,.47,0h.24c.06,0,.1-.1.16-.15l.3-.34.41-.47c.43-.52.86-1,1.31-1.54l.68-.83.15-.18,0,0a1.34,1.34,0,0,1,.32-.13l-.1,0a1,1,0,0,1,.63,0c.13.07.35.19.26.78a5.72,5.72,0,0,1-.93,2.58h0a1.34,1.34,0,0,1-.25.4,6,6,0,0,0,.47-.65,4.81,4.81,0,0,1-.79,1.34c-.11.1-.16.12-.18.12l-.6.61a9.24,9.24,0,0,0-.66.73l-.43.45a2.44,2.44,0,0,0-.22.56c-.08.2-.23.49-.58,1.21.32-.51-.21.75-.08.59,0,.07-.11.23-.17.36a12.17,12.17,0,0,0-.43,3,14.3,14.3,0,0,1,.4-1.84,9.32,9.32,0,0,1,1-2.38c-.52,1.14-.12.3,0,.1v-.09a4.35,4.35,0,0,1,.64-.92h0v0s0,0,0,0,0,0,.11-.21l0,0a5.06,5.06,0,0,1,.68-.84l.05,0c.13-.26.87-.81,1.48-1.53a6.22,6.22,0,0,0,1.16-2,4.38,4.38,0,0,0,.29-1.21c0-.23,0-.45,0-.69a1.76,1.76,0,0,0-.14-.75,1.55,1.55,0,0,0-.56-.66l-.27-.16a.83.83,0,0,0-.53-.17c-1.09.06.22,0-.21.08a1.84,1.84,0,0,0-1.23.46c.29-.32.43-.31.38-.33a1.49,1.49,0,0,0-.26.11c-.28.27-.38.42-.59.64l-.56.61a4.73,4.73,0,0,0-.69.89c-.43.46-.68.72-.81.84l-.11.09,0,.05H46c.11.08.21-.11.23-.07-.2.15-.08.11,0,0s-.07.14-.15.14l-.34,0a6.67,6.67,0,0,1-1.23-.38c-.81-.34-1.43-.83-1.53-.82l0,0c-.19,0,0,.23-.48,0l-.22-.27a3.25,3.25,0,0,1-.39-.35c-.21-.28-.07-.17-.06-.18a5.1,5.1,0,0,1-1.19-2.74,6.09,6.09,0,0,0,0,1.13,6,6,0,0,1-.21-1.58c0-.53,0-1,0-1.06a3.8,3.8,0,0,1,.16-.51c.56-1.7.22-1.23.49-1.9.14-.26.28-.52.44-.77-.13.26-.24.53-.35.8a7.11,7.11,0,0,1,1-1.64h0l-.06.07.07-.11a3.51,3.51,0,0,1,.63-1,5.45,5.45,0,0,1,.86-.87c.37-.23.62-.41,1,.05l.34.15.77.77-.06.06L45,25.86a3.12,3.12,0,0,0-.7-.53.56.56,0,0,0-.28.05,1.87,1.87,0,0,0-.39.24,5.36,5.36,0,0,0-.7.73v0a6.46,6.46,0,0,1,.77-.79,1.78,1.78,0,0,1,.35-.21.34.34,0,0,1,.19,0,.23.23,0,0,1,.16.13c.08.11.05.13-.07.07a2,2,0,0,1,.37.2c.51.43.89.78,1.2,1.07a4.45,4.45,0,0,0,.56.46,1.43,1.43,0,0,0,.84.25A2.51,2.51,0,0,0,48.8,27a3.49,3.49,0,0,0,.32-.25,1.72,1.72,0,0,0,.39-.46,4.49,4.49,0,0,0,.46-1l-.12.27A10.62,10.62,0,0,0,50.11,24,4.64,4.64,0,0,0,50,22.93c0-.17-.1-.34-.16-.51l-.09-.24L49.66,22a1.45,1.45,0,0,0,0-.16l-.08-.25a2.62,2.62,0,0,0-.22-.48,3.08,3.08,0,0,0-.64-.79,3.48,3.48,0,0,0-1.54-.75l-.32.07c-.46-.06-1.18-.06-1.36.15l-.06,0-.2,0-.41.1a14.11,14.11,0,0,0-1.45.43h0l-.11,0h0c-.59.25-.57.29-.58.31s0,0-.66.43c-.41.24-.33.41-.83.88a5.89,5.89,0,0,0-.55.44,5.5,5.5,0,0,0-.79,1.14l-.31.6a.69.69,0,0,1-.14.24.1.1,0,0,1-.12,0c-.07-.14,0-.23.05-.34-.08.15-.06.12-.14.05s.06,0,.1,0l0,0s0-.07,0-.1-.05-.1,0-.39a1.75,1.75,0,0,1-.18-.64l-.06.24c0-.34,0-.7.09-1.07l.07-.56,0-.25s0-.08,0-.11l0,0a2.23,2.23,0,0,1,.37-.41l.07,0a2.29,2.29,0,0,1,.83-.44l-.13,0a2.31,2.31,0,0,1,1.42,0l0,0A2.21,2.21,0,0,0,43,20.36a2,2,0,0,0,.92-.7,2,2,0,0,0,.39-1.08A2.32,2.32,0,0,0,44,17.37a6,6,0,0,0-.58-.57,5.65,5.65,0,0,0-.61-.45l.26.09c-.55-.43-.21,0-.91-.43v-.1c-.71-.16-.88-.32-1.39-.43a1.64,1.64,0,0,1,.22.14,4.21,4.21,0,0,0-.94-.07c-1,.07-.66-.06-.51-.16a5.13,5.13,0,0,0-.69.25l-.16-.06c-.45.3-.52.14-1.28.64-.08,0,.1-.13-.17,0a5.9,5.9,0,0,0-1,1.09,7.35,7.35,0,0,1,.59-.65l0,.18a10.49,10.49,0,0,0-1.19,1.4c.06-.13.14-.26.21-.38-.57.86-.61.9-.91,1.41.1-.15.26-.38.1,0s-.12.13-.24.39a5.47,5.47,0,0,1-.32,1.43s0,0,0-.07a2.39,2.39,0,0,1-.09.53l-.07-.19a5.47,5.47,0,0,0,0,.57c-.1.37,0,.92-.11.86V22.6a9.58,9.58,0,0,0,.19,2.83l-.08.06c.17.2,0,.22.22.35-.05,0,0,.11,0,.21s-.11.09-.19-.13c-.12,0-.17,0-.25-.06l-.06-.07L34,25.72l-.09-.15L33.56,25l-.19-.31a1,1,0,0,1-.11-.23c-.07-.33-.29-.94-.43-1.62l-.1-.53,0-.25v0a1.66,1.66,0,0,1,.28-.68,1.85,1.85,0,0,1,.5-.54,2.38,2.38,0,0,1,.3-.18l.16-.06c.13-.05.28-.08.41-.12a3.26,3.26,0,0,0,.93-1.59,2.44,2.44,0,0,0-.21-1.71,3,3,0,0,0-3-1.47,4.65,4.65,0,0,0-3,1.17A5.12,5.12,0,0,0,28,18.22a5.3,5.3,0,0,0-.37.76,3,3,0,0,0-.26.86l0,.51a12.46,12.46,0,0,0,.58,4.78l.31.68a.35.35,0,0,1,0-.24c.13.48.63,1.34.51,1.33l-.07-.11c-.15,0,.76,1.29,1,1.77l-.08-.31q.25.39.54.75L30,28.82a18.2,18.2,0,0,0,1.85,1.81l.11.1,0,0c0-.07,0-.06.07-.07a.29.29,0,0,1,.26,0,.39.39,0,0,1-.12-.26s0,0,0-.07l0,0-.13-.08a16.1,16.1,0,0,1-3.73-2.87c.36.27-.45-.47-.35-.58-.28-.77-.79-1.37-1-2,0,0,0,0,0,0l-.3-1.17c.18.33.08.1,0-.06s0-.05,0-.08l0-.15h0s0,.16,0,.18v-.17a1.1,1.1,0,0,0,0-.25,2,2,0,0,0-.14-.47,1.92,1.92,0,0,0-.65-.77,1.66,1.66,0,0,0-1.06-.3,1.73,1.73,0,0,0-1,.42,1.83,1.83,0,0,0-.6.92c-.06.26-.11.53-.17.79a8.67,8.67,0,0,0-.13,1.61,8.9,8.9,0,0,0,.62,3.22,9.47,9.47,0,0,0,.73,1.46,7.83,7.83,0,0,0,.45.67l.16.21L25,31l.28.24-.1-.15c.76.65,1.76,1.4,2.3,1.93a7.66,7.66,0,0,0,1.59,1.12c.71.44,1.22,1,.94.79a19.11,19.11,0,0,1,2.36,1.67c.1.17.65.69,1.06,1.31A3.23,3.23,0,0,1,34,39.19h0a17,17,0,0,1,1,4.47l0-.09c.27,1.1.47,2.23.64,3.38l.52-1c.11-1,.2-2,.21-3.07a17.66,17.66,0,0,0-1-4.11,8.05,8.05,0,0,0-2.58-3.58c-1.68-1.34-3.41-2.63-5-4.06L26.3,29.92,26,29.67l-.2-.27a8.12,8.12,0,0,1-.45-.74,7.19,7.19,0,0,1-.88-3.33,6.73,6.73,0,0,1,.17-1.73l0-.13,0-.15,0-.07a.21.21,0,0,1,.06-.1.22.22,0,0,1,.14-.08.26.26,0,0,1,.15.11.23.23,0,0,1,.06.12s0,0,0,.06v.12a.3.3,0,0,0,0,.21c.22.79.34,1.41.61,2.11a11,11,0,0,0,.62,1,7.93,7.93,0,0,0,2.07,2.74,15.09,15.09,0,0,0,3,2l-.16-.11a1.45,1.45,0,0,0,.93.34,1.24,1.24,0,0,0,1.08-.56,1.3,1.3,0,0,0,.09-1.17,1.45,1.45,0,0,0-.67-.73l.16.11A9.56,9.56,0,0,1,31.49,28l-.12,0a3.24,3.24,0,0,1-.56-.87,11.29,11.29,0,0,1-1.7-4.06,11,11,0,0,1-.22-2.21v-.56c0-.15,0-.46,0-.42a3.71,3.71,0,0,1,.37-.9,3.41,3.41,0,0,1,1.34-1.35,3.65,3.65,0,0,1,.9-.35l.24,0,.3-.06a1.8,1.8,0,0,1,.4,0,1.36,1.36,0,0,1,1.19.69,1,1,0,0,1,0,.61,1.3,1.3,0,0,1-.26.49h0l-.23.09-.48.24a3.62,3.62,0,0,0-.82.69,3.53,3.53,0,0,0-.59.89,4.24,4.24,0,0,0-.18.5l-.06.26A3.17,3.17,0,0,0,31,22a9.36,9.36,0,0,0,1,3.55l1.21,2.15a2.72,2.72,0,0,0,1.05,1,3.06,3.06,0,0,0,.83.29,1.55,1.55,0,0,0,1.13-.33,1.27,1.27,0,0,0,.42-.81,2.37,2.37,0,0,0-.2-1.31,9,9,0,0,1-.35-.92,3.45,3.45,0,0,1-.12-.43L35.92,25a7.7,7.7,0,0,1,0-3.51v.09a9.68,9.68,0,0,1,.27-1.06s0,0,0,0a4.74,4.74,0,0,1,2.86-3.15l-.07,0a3.35,3.35,0,0,1,2-.17,3.55,3.55,0,0,1,.94.4c.14.1.28.2.41.31a2.8,2.8,0,0,1,.27.25s0,0,0,.05a.47.47,0,0,1,0,.16.77.77,0,0,1-.08.28.62.62,0,0,1-.52.27h-.07l-.13,0-.46-.05a4.85,4.85,0,0,0-.93.06,4.07,4.07,0,0,0-1.7.75,4.19,4.19,0,0,0-.7.7,1,1,0,0,0-.29.58l-.06.49-.17,1.43a4.92,4.92,0,0,0,0,1.83A2.17,2.17,0,0,0,39,26.45c.74.13,1.27-.41,1.72-1.15l.43-.7c.11-.19.23-.38.35-.56a5.8,5.8,0,0,1,1.7-1.75,5.63,5.63,0,0,1,2.31-.8l.21,0a1.11,1.11,0,0,0,.26-.07,1.14,1.14,0,0,1,.25-.06,2.19,2.19,0,0,1,.51,0,1.71,1.71,0,0,1,.86.31,1.26,1.26,0,0,1,.31.38,1,1,0,0,1,.11.23l0,.13.06.26.12.24.05.13a1.52,1.52,0,0,1,.09.28,2.27,2.27,0,0,1,.1.58A2.72,2.72,0,0,1,48.3,25a1.69,1.69,0,0,1-.12.28l-.09.17s-.1.11-.17.16l-.23.19a1,1,0,0,1-.33.16s0,0-.09,0l-1.22-1.08c-.21-.19-.42-.37-.7-.59a1.92,1.92,0,0,0-.7-.35,2.33,2.33,0,0,0-.79,0,2.79,2.79,0,0,0-1.12.57,5.28,5.28,0,0,0-.72.69,13,13,0,0,0-1.13,1.44,8.22,8.22,0,0,0-1.08,2.13c-.1.29-.2.6-.28.93s-.15.61-.23,1a7.59,7.59,0,0,0,0,2.38,6.89,6.89,0,0,0,4.13,5.34Z"/><path class="cls-4" d="M49.06,39.94l0,0S49,39.93,49.06,39.94Z"/><polygon class="cls-4" points="40.65 32.85 40.65 32.91 40.69 32.67 40.65 32.85"/><path class="cls-4" d="M49.52,34.23a2.17,2.17,0,0,0-.64.29c-.09.06-.06,0,0,0A3.74,3.74,0,0,1,49.52,34.23Z"/><path class="cls-4" d="M46.28,44.43c-.1.33-.05.21,0,0s.18-.56.18-.56A4.35,4.35,0,0,0,46.28,44.43Z"/><path class="cls-4" d="M47.3,43.35v.1C47.36,43.28,47.35,43.28,47.3,43.35Z"/><path class="cls-5" d="M51.22,21.74V17"/><path class="cls-6" d="M51.87,21.3V16.62c0-.59-.8,0-.8.32l0,4.64C51.06,22.16,51.87,21.58,51.87,21.3Z"/><path class="cls-6" d="M52,20.58l0-4.69c0-.43-1.08.49-1.08.83l0,4.65C51,21.8,52,20.92,52,20.58Z"/><path class="cls-6" d="M52.22,21.09V16.4c0-.43-.95.39-.95.71l0,4.64C51.25,22.18,52.22,21.4,52.22,21.09Z"/><path class="cls-6" d="M52.65,21.59l0-4.68c0-.43-.91.34-.91.65l0,4.64C51.73,22.64,52.65,21.9,52.65,21.59Z"/><path class="cls-6" d="M52.69,21.09l0-4.69c0-.42-1.13.54-1.13.89l0,4.64C51.54,22.36,52.69,21.44,52.69,21.09Z"/><path class="cls-6" d="M51.54,20.41l0-4.69c0-.42-.91.35-.91.67l0,4.64C50.62,21.46,51.54,20.72,51.54,20.41Z"/><path class="cls-6" d="M51.52,21.15l0-4.69c0-.55-.76,0-.76.27l0,4.65C50.76,21.92,51.52,21.44,51.52,21.15Z"/><path class="cls-6" d="M52,21.82l0-4.68c0-.51-.7-.09-.7.2l0,4.66C51.32,22.5,52,22.12,52,21.82Z"/><path class="cls-6" d="M52.62,20.4V15.71c0-.41-1.36.73-1.36,1.14l0,4.64C51.23,21.9,52.62,20.8,52.62,20.4Z"/><path class="cls-6" d="M51.67,21.58v-4.7c0-.48-.67-.12-.67.18l0,4.67C51,22.22,51.67,21.88,51.67,21.58Z"/><path class="cls-6" d="M52.35,20.14V15.45c0-.41-1.32.7-1.32,1.09l0,4.65C51,21.6,52.35,20.53,52.35,20.14Z"/><path class="cls-6" d="M51.34,20.81l0-4.69c0-.56-.76,0-.76.28l0,4.64C50.58,21.59,51.34,21.1,51.34,20.81Z"/><path class="cls-7" d="M57,22.46l3.33-3.38"/><path class="cls-6" d="M57.9,22.71l3.25-3.27c.42-.42-.61-.54-.81-.34L57,22.5C56.67,22.8,57.69,22.92,57.9,22.71Z"/><path class="cls-6" d="M58.07,22.1l3.33-3.35c.29-.3-.87-.39-1.08-.18L57,21.89C56.71,22.19,57.85,22.32,58.07,22.1Z"/><path class="cls-6" d="M58.26,22.6l3.33-3.35c.3-.31-1-.4-1.22-.17l-3.31,3.31C56.75,22.7,58,22.83,58.26,22.6Z"/><path class="cls-6" d="M58.74,23.11l3.33-3.36c.29-.29-1.29-.42-1.55-.16L57.21,22.9C56.91,23.2,58.48,23.37,58.74,23.11Z"/><path class="cls-6" d="M58.77,22.62l3.33-3.36c.3-.29-1.34-.42-1.61-.15l-3.31,3.3C56.88,22.71,58.51,22.88,58.77,22.62Z"/><path class="cls-6" d="M57.57,22l3.34-3.35c.34-.35-.41-.56-.62-.35L57,21.65C56.63,22,57.36,22.23,57.57,22Z"/><path class="cls-6" d="M57.52,22.64l3.33-3.35c.36-.35-.43-.55-.64-.34L56.9,22.27C56.55,22.63,57.31,22.85,57.52,22.64Z"/><path class="cls-6" d="M58,23.27l3.32-3.35c.3-.3-.81-.39-1-.18L57,23.06C56.71,23.36,57.8,23.48,58,23.27Z"/><path class="cls-6" d="M58.62,22,62,18.63c.29-.3-1.24-.41-1.49-.16l-3.32,3.31C56.84,22.08,58.37,22.24,58.62,22Z"/><path class="cls-6" d="M57.57,23.11,61,19.76c.37-.37-.48-.55-.69-.34l-3.34,3.32C56.55,23.11,57.36,23.31,57.57,23.11Z"/><path class="cls-6" d="M58.33,21.73l3.33-3.36c.3-.3-1-.39-1.23-.16l-3.31,3.31C56.82,21.83,58.1,22,58.33,21.73Z"/><path class="cls-6" d="M57.39,22.31l3.32-3.38c.31-.3-.29-.58-.5-.36L56.88,22C56.58,22.25,57.18,22.53,57.39,22.31Z"/><path class="cls-7" d="M60.24,28.81h3.38"/><path class="cls-6" d="M60.71,29.79h3.34c.42,0-.32-.86-.62-.86l-3.29,0C59.71,28.91,60.41,29.79,60.71,29.79Z"/><path class="cls-6" d="M60.79,29.18l3.35,0c.55,0,0-.75-.28-.75l-3.3,0C60,28.43,60.49,29.18,60.79,29.18Z"/><path class="cls-6" d="M61.07,29.68h3.35c.42,0-.4-.94-.72-1l-3.29,0C60,28.7,60.75,29.67,61.07,29.68Z"/><path class="cls-6" d="M61.57,30.26h3.36c.4,0-.73-1.32-1.13-1.33l-3.29,0C60.1,28.89,61.18,30.26,61.57,30.26Z"/><path class="cls-6" d="M61.55,29.71l3.35,0c.42,0-.57-1.13-.92-1.14l-3.29,0C60.26,28.54,61.2,29.71,61.55,29.71Z"/><path class="cls-6" d="M60.36,29.1l3.36,0c.4,0,.25-.59-.06-.59H60.29C59.89,28.51,60.05,29.1,60.36,29.1Z"/><path class="cls-6" d="M60.25,29.64l3.37.05c.53,0,0-.73-.26-.74l-3.32,0C59.52,28.9,60,29.63,60.25,29.64Z"/><path class="cls-6" d="M60.84,30.36l3.36,0c.42,0-.54-1.11-.89-1.11l-3.29,0C59.59,29.22,60.5,30.36,60.84,30.36Z"/><path class="cls-6" d="M61.4,29.07h3.35c.4,0-.27-.85-.51-.85l-3.4,0C60.42,28.2,61.1,29.07,61.4,29.07Z"/><path class="cls-6" d="M60.47,30.11h3.35c.42,0-.35-.88-.66-.89l-3.29,0C59.44,29.19,60.16,30.1,60.47,30.11Z"/><path class="cls-6" d="M61.06,28.85l3.35,0c.51,0,.08-.7-.22-.7l-3.31,0C60.37,28.14,60.77,28.85,61.06,28.85Z"/><path class="cls-6" d="M60.14,29.4h3.37c.41,0,.23-.61-.08-.61H60.06C59.64,28.79,59.83,29.4,60.14,29.4Z"/><path class="cls-7" d="M55.89,40.59l-.24-3.89"/><path class="cls-6" d="M56.5,40.09l-.23-3.84c0-.59-.79.09-.78.38l.23,3.8C55.75,41,56.52,40.38,56.5,40.09Z"/><path class="cls-6" d="M56.67,39.37l-.23-3.86c0-.42-1,.58-1,.93l.21,3.8C55.64,40.67,56.69,39.71,56.67,39.37Z"/><path class="cls-6" d="M56.85,39.88,56.62,36c0-.42-.92.45-.9.77l.21,3.8C56,41,56.87,40.2,56.85,39.88Z"/><path class="cls-6" d="M57.28,40.39l-.23-3.86c0-.42-.85.39-.84.69L56.43,41C56.45,41.46,57.3,40.69,57.28,40.39Z"/><path class="cls-6" d="M57.32,39.89,57.09,36c0-.42-1.07.6-1.05.95l.21,3.8C56.27,41.21,57.34,40.24,57.32,39.89Z"/><path class="cls-6" d="M56.17,39.21l-.23-3.86c0-.42-.9.44-.88.76l.21,3.8C55.29,40.34,56.19,39.52,56.17,39.21Z"/><path class="cls-6" d="M56.16,39.94l-.23-3.85c0-.56-.75,0-.74.33l.22,3.81C55.45,40.78,56.17,40.23,56.16,39.94Z"/><path class="cls-6" d="M56.66,40.61l-.23-3.86c0-.49-.7-.06-.68.24L56,40.82C56,41.32,56.67,40.91,56.66,40.61Z"/><path class="cls-6" d="M57.25,39.19,57,35.33c0-.4-1.31.83-1.28,1.23l.2,3.81C56,40.78,57.27,39.59,57.25,39.19Z"/><path class="cls-6" d="M56.31,40.37l-.24-3.87c0-.48-.68-.08-.66.22l.23,3.85C55.67,41.05,56.32,40.67,56.31,40.37Z"/><path class="cls-6" d="M57,38.93l-.24-3.87c0-.4-1.28.82-1.26,1.21l.2,3.81C55.7,40.49,57,39.32,57,38.93Z"/><path class="cls-6" d="M56,39.59l-.24-3.84c0-.57-.77.06-.75.35l.23,3.8C55.25,40.46,56,39.88,56,39.59Z"/><path class="cls-7" d="M63.16,38.27l-2.43-2.61"/><path class="cls-6" d="M63.1,37.34l-2.31-2.52c-.41-.44-.56.62-.36.83l2.42,2.64C63.14,38.61,63.31,37.56,63.1,37.34Z"/><path class="cls-6" d="M63.28,36.7l-2.4-2.6c-.28-.31-.44,1.2-.2,1.46L63,38.14C63.3,38.46,63.52,37,63.28,36.7Z"/><path class="cls-6" d="M63.47,37.23l-2.4-2.59c-.28-.31-.41.84-.2,1.07l2.34,2.56C63.5,38.59,63.68,37.46,63.47,37.23Z"/><path class="cls-6" d="M64,37.76l-2.4-2.61c-.34-.37-.57.4-.37.62l2.37,2.58C63.91,38.72,64.17,38,64,37.76Z"/><path class="cls-6" d="M63.92,37.25l-2.39-2.59c-.28-.31-.41.84-.21,1.06l2.35,2.57C64,38.61,64.13,37.48,63.92,37.25Z"/><path class="cls-6" d="M62.78,36.5l-2.4-2.6c-.28-.3-.45,1.26-.21,1.54L62.51,38C62.79,38.33,63,36.77,62.78,36.5Z"/><path class="cls-6" d="M62.75,37.2l-2.39-2.6c-.28-.31-.41.85-.2,1.08l2.34,2.56C62.79,38.56,63,37.42,62.75,37.2Z"/><path class="cls-6" d="M63.3,37.88l-2.43-2.61c-.31-.34-.6.3-.39.53l2.43,2.62C63.22,38.75,63.51,38.11,63.3,37.88Z"/><path class="cls-6" d="M63.8,36.57,61.4,34c-.28-.3-.46,1.31-.21,1.59l2.33,2.57C63.81,38.44,64.05,36.84,63.8,36.57Z"/><path class="cls-6" d="M62.94,37.76,60.56,35.1c-.35-.39-.57.43-.37.66l2.36,2.62C62.89,38.75,63.14,38,62.94,37.76Z"/><path class="cls-6" d="M63.53,36.23l-2.41-2.6c-.27-.29-.48,1.49-.21,1.79L63.24,38C63.52,38.3,63.8,36.53,63.53,36.23Z"/><path class="cls-6" d="M62.56,36.85l-2.4-2.61c-.29-.31-.43,1-.21,1.27l2.35,2.58C62.59,38.41,62.78,37.09,62.56,36.85Z"/></g></g></svg>