<svg xmlns="http://www.w3.org/2000/svg" viewBox="0 0 54.91 96.71"><defs><style>.cls-1{fill:none;stroke:#f09681;stroke-miterlimit:10;stroke-width:0.72px;}.cls-2{fill:#fff;}</style></defs><g id="圖層_2" data-name="圖層 2"><g id="圖層_1-2" data-name="圖層 1"><path class="cls-1" d="M.36.36V95.72A124.38,124.38,0,0,0,23.48,73.57q2.32-2.89,4.33-5.75l26.74,28V.36Z"/><path class="cls-1" d="M25.26,25.61a4.7,4.7,0,0,1,2.52-4.32,4.08,4.08,0,0,1,3.87,0c1.73,1.12,2.3,4.27.49,7.14a4.26,4.26,0,0,1,4.93.55,4.18,4.18,0,0,1-.77,6.16,4.39,4.39,0,0,1-5.2-.5,4.62,4.62,0,0,1,2,4.44,4.43,4.43,0,0,1-4.51,3.75,4.62,4.62,0,0,1-3.68-5.67c-1.19,2.8-4.36,3.77-6.38,2.59a4.27,4.27,0,0,1-1.55-5.38A4.4,4.4,0,0,1,22.06,32a5,5,0,0,1-5.12-3,4.79,4.79,0,0,1,.7-4.18c1.15-1.62,3.6-2.9,5.57-1.94A4.26,4.26,0,0,1,25.26,25.61Z"/><path class="cls-2" d="M28.21,30a2.23,2.23,0,0,1,.46,1.95c-.19.88-1,2-2.07,2s-1.76-1.23-1.86-2.14a2.23,2.23,0,0,1,.75-2A2.12,2.12,0,0,1,28.21,30Z"/></g></g></svg>