<svg xmlns="http://www.w3.org/2000/svg" viewBox="0 0 70 70"><defs><style>.cls-1{fill:none;}.cls-2,.cls-3{fill:#fcf5ea;stroke:#898989;stroke-miterlimit:10;}.cls-2{stroke-width:1.17px;}.cls-3{stroke-width:0.88px;}</style></defs><g id="圖層_2" data-name="圖層 2"><g id="圖層_1-2" data-name="圖層 1"><circle class="cls-1" cx="35" cy="35" r="35"/><path class="cls-2" d="M21.83,21.58l-4.6,4.11V42.13l5.08,6.29H47.45l4.83-3.87q.26-9.31.49-18.62l-4.84-4.35Z"/><path class="cls-2" d="M23.63,24.32l-4,3.29V40.77l4.38,5h21.7l4.17-3.1.42-14.91-4.18-3.48Z"/><path class="cls-2" d="M25.7,43.29,27,34c-.57-2.66-.34-4.66.38-4.9S29.2,30.14,30.23,32L39,31.73c2-2.76,2.79-3,3.14-2.89s.46,1.06.5,2A9.54,9.54,0,0,1,42.29,34l1.88,8.93"/><path class="cls-2" d="M30.48,39.77a2,2,0,0,1,.75-1.5c1-.94,2.38-.84,3.52-.76a4.11,4.11,0,0,1,2.51.76,2.27,2.27,0,0,1,1,1.76c-.08.77-.82,1.23-1.26,1.5a4.85,4.85,0,0,1-3.52.51C32.54,41.82,30.55,41.07,30.48,39.77Z"/><path class="cls-2" d="M32.68,34.21l-.2,1.58"/><path class="cls-2" d="M35.75,39.27l-.5,1.51"/><path class="cls-2" d="M33.49,39.27,33,40.78"/><path class="cls-2" d="M37.3,34,37,35.78"/><path class="cls-3" d="M42.29,47.06c-3.72.66-5.22.19-5.88-.43-.14-.13-.75-.75-1.69-1.54-.41-.34-.6-.48-1.08-.85-1.18-.94-1.81-1.52-2.1-1.75A6.9,6.9,0,0,0,27,41.26c.52,1.13,1.05,2.27,1.57,3.41-.7.77-1.4,1.55-2.11,2.32,4.24,1,6.36.29,7.49-.8a18.09,18.09,0,0,0,1.3-1.8,9.37,9.37,0,0,1,5.83-3.13l-1,3Z"/></g></g></svg>