<svg xmlns="http://www.w3.org/2000/svg" viewBox="0 0 70 70"><defs><style>.cls-1{fill:#fef4e8;}.cls-1,.cls-10,.cls-2,.cls-3,.cls-4,.cls-5,.cls-6,.cls-7,.cls-8,.cls-9{stroke:#898989;stroke-miterlimit:10;}.cls-10,.cls-11,.cls-2,.cls-6,.cls-7,.cls-8,.cls-9{fill:none;}.cls-3,.cls-4,.cls-5{fill:#898989;}.cls-3{stroke-width:0.36px;}.cls-4{stroke-width:0.13px;}.cls-5{stroke-width:0.09px;}.cls-6{stroke-width:0.52px;}.cls-7{stroke-width:0.57px;}.cls-8{stroke-width:0.6px;}.cls-9{stroke-width:0.58px;}.cls-10{stroke-width:0.68px;}</style></defs><g id="圖層_2" data-name="圖層 2"><g id="圖層_1-2" data-name="圖層 1"><path class="cls-1" d="M25.35,30.65l.45-7.32c-.07-.91,0-1.38.09-1.4s.28.28.53.93l4.49,7.79h8q2.84-4.29,5.66-8.57c0-.07.55-1.24.77-1.18s0,1.36,0,1.43v9.4c.25.35,3.9,5.49,1.69,10.84-2.45,5.94-9.77,6.43-10.85,6.5-4.56.3-11.63-1.52-13.53-7.39C20.9,36.17,25,31.1,25.35,30.65Z"/><path class="cls-2" d="M34.78,35.63c2-.18,4.37,1.17,4.45,3S37.31,41.87,35.5,42c-2,.17-4.38-1.18-4.45-3S33,35.79,34.78,35.63Z"/><path class="cls-2" d="M30.51,27.62a34.12,34.12,0,0,1,5-.53,33.76,33.76,0,0,1,5,.18c.45-.74,1.32-2.39.71-3.74-.8-1.77-3.63-1.87-6.23-2a6.9,6.9,0,0,0-3.91.71,3.5,3.5,0,0,0-2,2.32A3.56,3.56,0,0,0,30.51,27.62Z"/><path class="cls-3" d="M30,27.79c.32.95.65,1.9,1,2.86H39.1l1.56-3.38Z"/><path class="cls-4" d="M27.67,29.76a.68.68,0,0,0,.62-.27.72.72,0,0,0,.09-.62c-.46-1.22-.76-1.82-.89-1.78S27.39,28,27.67,29.76Z"/><path class="cls-4" d="M42.79,29.05c.72-2.21.85-3,.71-3s-1.74,2-1.15,2.76A.79.79,0,0,0,42.79,29.05Z"/><path class="cls-5" d="M33.72,34.21c.22,0,.48-.37.53-.72s-.12-.86-.36-.89-.48.37-.53.72S33.48,34.18,33.72,34.21Z"/><path class="cls-5" d="M36.69,34.21c.23,0,.49-.38.54-.75s-.12-.89-.36-.92-.48.38-.53.74S36.46,34.18,36.69,34.21Z"/><path class="cls-5" d="M34.26,39.72c.22,0,.46-.32.51-.63s-.11-.77-.34-.8-.46.33-.51.64S34,39.7,34.26,39.72Z"/><path class="cls-5" d="M36.23,39.72c.22,0,.47-.3.52-.58s-.12-.71-.34-.73-.47.3-.52.58S36,39.7,36.23,39.72Z"/><path class="cls-6" d="M29.39,24.71a47,47,0,0,0,4.75-.07c2-.17,3.9-.58,5.86-.59"/><path class="cls-7" d="M31.42,22.41a25.77,25.77,0,0,1-.21,5.12"/><path class="cls-8" d="M33.47,21.61a25.1,25.1,0,0,1-.19,5.48"/><path class="cls-9" d="M36.37,21.37l-.75,5a1.83,1.83,0,0,1-.23.76"/><path class="cls-10" d="M38.66,21.85c.05,2.2-.09,4.39-.23,6.57"/><circle class="cls-11" cx="35" cy="35" r="35"/></g></g></svg>