<svg xmlns="http://www.w3.org/2000/svg" viewBox="0 0 86.3 86.3"><defs><style>.cls-1{font-size:10.14px;font-family:jf-openhuninn-1.1;}.cls-1,.cls-4{fill:#040000;}.cls-2{fill:#eaa092;stroke:#fef5e9;stroke-miterlimit:10;stroke-width:6.3px;}.cls-3{fill:#fef5e9;}.cls-5{fill:#2e6734;}</style></defs><g id="圖層_2" data-name="圖層 2"><g id="圖層_1-2" data-name="圖層 1"><text class="cls-1" transform="translate(28.35 66.6) scale(0.99 1)">行程</text><path class="cls-2" d="M83.15,43.15c-.89,53.34-79.12,53.33-80,0C4-10.19,82.27-10.18,83.15,43.15Z"/><text class="cls-1" transform="translate(33.51 68.71) scale(0.99 1)">行程</text><path class="cls-3" d="M25.31,35.5l.24,12.86a2.42,2.42,0,0,0,0,2,2.14,2.14,0,0,0,1.87,1.24l34.51-.5V37.23"/><path class="cls-4" d="M29.36,50.78Z"/><path class="cls-4" d="M50.88,50.32h0l0-.06Z"/><path class="cls-4" d="M54.34,50.4h0S54.36,50.38,54.34,50.4Z"/><path class="cls-4" d="M42.9,50.63h0Z"/><path class="cls-4" d="M26.21,48.47v0Z"/><path class="cls-4" d="M26.21,48.58c-.07.12,0,0,0-.09a.63.63,0,0,0-.14.31s0,0,.05-.06A.61.61,0,0,1,26.21,48.58Z"/><path class="cls-4" d="M25.9,36.83l0,0Z"/><path class="cls-4" d="M43.25,52.21h0Z"/><path class="cls-4" d="M25.9,38.65l.06,0Z"/><path class="cls-4" d="M50.94,50.26l0,0Z"/><path class="cls-4" d="M57.54,50.39a0,0,0,0,0,0,0h0Z"/><path class="cls-4" d="M62,39.34h0l0,.06A.12.12,0,0,0,62,39.34Z"/><path class="cls-4" d="M61.39,50.55l0,0h-.23l0,.06.23,0Z"/><path class="cls-4" d="M62.86,46.28l-.13.46c0-1.5.07-2.2,0-3.48l0,.07A4.89,4.89,0,0,1,62.82,41h0a.57.57,0,0,1,0-.22l-.08.36a5.23,5.23,0,0,1-.1-.68c0-.07,0-.09.06-.09l0-.7.08-.22c0-.21-.22-.11-.12-.68-.12.21-.07-.29-.13-.22l.06-.15a7.57,7.57,0,0,0-.11-1.14s-.26,1.34-.39,1.69c0-.47,0-.12-.05,0l0,0c0,.29-.11.29-.13.44h0v0s0,0,0,0,0,0,0,.09v0a2.84,2.84,0,0,1,0,.42h-.06a8.3,8.3,0,0,1-.19,1.72,8,8,0,0,0,0,1c0,.57-.09.28-.14.57s.07-.07.07.07l-.08.43c0-.25,0-.11-.07-.07,0,.37-.13,1,0,1.07-.06.5-.12.5-.12.72,0-.07,0-.22.07-.22-.06.2,0,.1,0,0,.06.31-.23,1.59-.09,1.66h0c.1.07.2,0,.26.17l0,.14,0,.21c0,.15-.07.08-.08.08a9,9,0,0,1,0,1.26l.28-.45c-.06.36-.2,1-.11,1.07l-.09.21c-.18.71.08.53,0,.74a.85.85,0,0,1-.1.19V50.2a.55.55,0,0,1-.15.32h0v0h0s0,.08-.18.08a1.46,1.46,0,0,0-.29,0,3.7,3.7,0,0,1-.69,0l-.14.1-.43-.05v-.09l.83,0,.65,0,0,0-.19,0-.4,0c-.11,0-.37-.1-.18-.16l-.2.09A16.2,16.2,0,0,1,58,50.4l.1,0c-.22,0-.45.05-.51,0a9.19,9.19,0,0,1-1.8-.14l-.09.1c-.14,0-.36-.15-.42,0l-.31.05a2.34,2.34,0,0,1-.53,0h0c-.44,0,0,.09-.5,0-.16-.07-.17.13-.42.11l-.24-.14c-.45-.07-.52.07-1.16.08-.31,0-.46-.17-.26-.28a1,1,0,0,1-.49.16c-.06-.05,0-.07.06-.12-.33,0-.2.06-.45.06-.07.1-.16.26-.24.27l.1,0a2.69,2.69,0,0,1-.86,0v0l-.32,0,0-.07-.46,0,.06,0a3.71,3.71,0,0,1-.67,0v0a8,8,0,0,0-1.74.07l.09-.08c-.23-.07-.06.12-.34.09v-.09c-.24.12-.32,0-.48-.07l.07.12-.31,0c-.35,0-.21-.15-.16-.21l-.24.1,0-.11c-.18.13-.18,0-.48.06,0,0,0-.07,0-.08l-.5.15.3-.07,0,.15c-.32.12-.43,0-.65,0l.15,0a1.39,1.39,0,0,1-.59-.05c.07,0,.16.07,0,.09s-.06-.05-.17-.07-.28.16-.52.12a.05.05,0,0,1,0,0,.28.28,0,0,1-.19,0l.06-.11-.2.11c-.14,0-.34.05-.32,0l.08,0h-1v-.09c-.1.12-.56,0-.53.11-.19-.08-.76.07-.64-.1a15,15,0,0,1-1.86.09,6,6,0,0,0-1.61-.09l-2.74.21a18.84,18.84,0,0,0-2.26,0l-.18.09c-.45-.13-1.14,0-1.77-.07l-.28.05a.1.1,0,0,1,.09.07c-.18,0-.55,0-.52-.09h0c0-.1-.55.06-.75,0l.11.11H28l.09,0c-.18,0-.36.06-.52.08a1.26,1.26,0,0,1-.34,0,1.09,1.09,0,0,1-.51-.23A2.45,2.45,0,0,1,26,49.7c.14.11-.1-.18,0-.21.15-.24,0-.46,0-.69l0,0a3.1,3.1,0,0,1,.12-.29v-.4c.18.31-.14-.37,0-.09.1-1.32-.06-3,0-4.56l0,.06a7.47,7.47,0,0,1,0-1.16,1.91,1.91,0,0,0-.13-.75c-.08-.32.06-.62.06-.48A4.16,4.16,0,0,1,25.91,40c.14-.17-.17-1.3,0-1.32h0c.1-.62-.1-1.19,0-1.85l0,0-.51-1.33-.53.39-.42,1.17.16,3.15-.13,2.51.15,5.48c0-.07-.07.21-.11.39a3.9,3.9,0,0,0,0,.59,2.68,2.68,0,0,0,.9,2.48,3.17,3.17,0,0,0,1.28.68,3.48,3.48,0,0,0,.72.11c.17,0,.33,0,.49,0l0-.1a.68.68,0,0,1,.43.07c3.4-.07,6.89-.26,10-.18.29.07,1.19,0,1.42.09a20.58,20.58,0,0,1,3-.16h0l.47,0s0,0,0,0a10.31,10.31,0,0,1,2,0h0c3.78,0,7.28-.28,11-.19a21.09,21.09,0,0,0,2.76,0c1.08,0,1.52-.06,3.89,0v-.09c0-.15,0-.78,0-1.65V48.65C62.92,47.55,62.89,46.46,62.86,46.28Z"/><path class="cls-4" d="M62.72,40.34h0C62.77,40.35,62.75,40.33,62.72,40.34Z"/><polygon class="cls-4" points="61.52 48.67 61.52 48.65 61.46 48.74 61.52 48.67"/><path class="cls-4" d="M61.48,43.33c0,.24,0,.25,0,.22A.72.72,0,0,0,61.48,43.33Z"/><path class="cls-4" d="M62.64,38.38c0-.13,0-.08,0,0v.22Z"/><path class="cls-4" d="M62,38.89l0,0C62,38.93,62,38.92,62,38.89Z"/><path class="cls-3" d="M60.87,25.15l-34.74-.24a2.65,2.65,0,0,0-2.11.95,2.74,2.74,0,0,0-.47,2.38v6.67c9.66,5,32,5,39.9,1.43V28.72A2.83,2.83,0,0,0,60.87,25.15Z"/><path class="cls-4" d="M31.68,25.72Z"/><path class="cls-4" d="M38.69,37.58h0l.07,0Z"/><path class="cls-4" d="M43.88,38h0S43.91,38,43.88,38Z"/><path class="cls-4" d="M27,35.51h0Z"/><path class="cls-4" d="M41.33,25.67h0Z"/><path class="cls-4" d="M41.22,25.7c-.11,0,0,0,.09,0a1.28,1.28,0,0,0-.39,0S41.17,25.68,41.22,25.7Z"/><path class="cls-4" d="M58.83,25.7h0Z"/><path class="cls-4" d="M27,37.19l-.08,0Z"/><path class="cls-4" d="M56.07,25.65l0,.05A.09.09,0,0,0,56.07,25.65Z"/><path class="cls-4" d="M38.79,37.53h0Z"/><path class="cls-4" d="M48.69,38l0,0h0Z"/><path class="cls-4" d="M63.4,26.87a0,0,0,0,0,0,0l.08.07Z"/><path class="cls-4" d="M55.3,37.76l0,0a7.33,7.33,0,0,0-.79.07l0,.06C54.77,37.83,55,37.81,55.3,37.76Z"/><path class="cls-4" d="M62.79,37.59l-.74.14L63.83,37l.28-.11.14,0v-.71c0-.29,0-.57,0-.84,0-.8,0-1.55,0-2.53l0,.11a11.54,11.54,0,0,1,.1-3.59h0a.87.87,0,0,1,0-.32l-.08.54c0-.14,0-.31-.06-.48l0-.24s0,0,0,0,0,0,0,0l0-.1c0-.11.07-.15.1-.15a3.55,3.55,0,0,0-.07-1.38l0-.44a10.13,10.13,0,0,1-.79-1.06c.18.37-.42-.34-.38-.19l-.16-.22a3.44,3.44,0,0,0-1-.54,2.2,2.2,0,0,0-1-.09,3,3,0,0,1,1.23.43,3.07,3.07,0,0,1,1.08,1.22c-.47-.61-.12-.16-.07,0l0,0a1.71,1.71,0,0,1,.23.65v0l0,0s0,0,0,0,0,0,.08.11v0a2.35,2.35,0,0,1,.15.64h-.06a.93.93,0,0,1,0,.48c0,.23-.15.48-.18.77-.06.55-.14,1.12-.14,1.34-.08.44,0,1,0,1.52,0,.87-.09.44-.15.87s.08-.11.08.11l-.09.65c0-.38,0-.17-.07-.1a6.07,6.07,0,0,0,0,1.62c0,.38-.06.57-.08.71s0,.12,0,.21.05-.14.07-.16c0,.16,0,.09,0,0A1.13,1.13,0,0,1,63,36c0,.08-.11.06-.17.09l-.23.05a3.46,3.46,0,0,0-1,.36v0c-.07.13.12.18-.17.32h-.22l-.29.13c-.22,0-.13,0-.13,0a9.23,9.23,0,0,1-1.84.42l.72.14a7,7,0,0,0-1.61.22l-.33,0c-1.1,0-.73.19-1.17.2l-.55,0,.53-.08c-.54,0-.76,0-1.19,0h0l-.07,0a1.68,1.68,0,0,1-.72.16,12.67,12.67,0,0,1-1.81.14l-.21.13-.65,0v-.09c.64,0,1.82-.19,2.63-.27v0c-.48,0-1,.14-1.34.16-.16,0-.56,0-.28-.13l-.29.11a27.46,27.46,0,0,1-3.3.12l.15,0a2,2,0,0,1-.76,0A15.5,15.5,0,0,1,46,37.94l-.14.09c-.22,0-.53-.16-.64,0l-.46,0a3.1,3.1,0,0,1-.8,0h-.06c-.65-.07,0,.09-.75,0-.24-.08-.27.11-.64.08L42.16,38c-.66-.11-.78,0-1.75,0-.45-.08-.67-.22-.35-.31a2.05,2.05,0,0,1-.76.09c-.09-.06,0-.06.1-.1-.49-.1-.31,0-.68,0-.12.09-.26.25-.38.24l.14,0a4.89,4.89,0,0,1-1.29-.11l0,0-.5,0,0-.07-.7-.06.09,0a4.83,4.83,0,0,1-1-.14l0,0A24.79,24.79,0,0,0,32.52,37l.15-.05c-.33-.14-.12.09-.51,0v-.09c-.38,0-.45-.12-.69-.21l.09.14-.46-.12c-.5-.15-.27-.21-.19-.26l-.36,0-.05-.11c-.28.06-.24-.09-.69-.13,0,0,.09,0-.06-.1L29,36l.45.05-.09.14a4.16,4.16,0,0,1-.94-.23l.23,0a2.43,2.43,0,0,1-.83-.3c.08.06.21.15,0,.1s-.07-.08-.21-.15c-.06.09-.45,0-.77-.15a.06.06,0,0,1,.05,0,.81.81,0,0,1-.28-.08l.12-.08H26.4c-.18-.1-.49-.12-.43-.18l.11,0c-.48-.17-.91-.42-1.37-.62l0-.09c-.36,0-.25-.16-.4-.06a.66.66,0,0,0,0-.15c0-.11,0-.37.09-.25,0-1-.16-1.58-.07-2.82a12.89,12.89,0,0,0,.11-2.46c0-.23,0-.45,0-.62l-.07-.26,0-.17a1.13,1.13,0,0,1,0-.32,1.85,1.85,0,0,1,.09-.58,1.65,1.65,0,0,1,.82-.94l.56-.09.29,0,.45,0a11.28,11.28,0,0,1,1.75,0l.28-.08c.68.13,1.74,0,2.7.11l.41,0s-.11,0-.13-.08c.28,0,.83,0,.79.1h-.07c0,.11.84,0,1.14.05l-.16-.11.52,0-.14,0c2.27-.23,3.28.13,5.41-.08-.28.12.42-.06.45.07a3.23,3.23,0,0,0,1.43-.07l0,0,.77,0c-.46.16.56-.14.13,0,2,.14,4.62,0,6.94.11l-.1-.05a16.31,16.31,0,0,1,1.76,0,4.08,4.08,0,0,0,1.15-.11c.49-.07.94.08.73.07a9.88,9.88,0,0,1,1.74-.1c.24.15,2-.12,2,0v0c.92.12,1.8-.06,2.8.05l-.05,0,2-.48-.58-.54-1.76-.45-4.78.07-3.81-.2H40.65l-.66.12c-1.82-.23-4.17,0-6.13-.16l0,.1a1.63,1.63,0,0,1-.65-.08l-6,0h-.75a5,5,0,0,0-.91.05,3.57,3.57,0,0,0-1.72.84,3.4,3.4,0,0,0-1,1.63A3.78,3.78,0,0,0,22.69,28l0,.22,0,.13c0,1,0,2.06-.05,3.08-.07.45,0,1.81-.11,2.16s0,.39.05.57q0,.51,0,1v.33l.06,0,.12,0,.5.21.73.32,1.11.48,1.11.39h-.06l.7.22s0,0,0,0c.81.2,2,.57,3,.88h-.06a82.48,82.48,0,0,0,16.82,1.65,70.92,70.92,0,0,0,8.84-.48,25.69,25.69,0,0,0,3.65-.57A19.86,19.86,0,0,0,62.79,37.59Z"/><path class="cls-4" d="M64.32,28.52v0S64.35,28.5,64.32,28.52Z"/><polygon class="cls-4" points="58.88 37.28 58.92 37.27 58.76 37.24 58.88 37.28"/><path class="cls-4" d="M63,32.92c0,.36,0,.38,0,.33A3.12,3.12,0,0,0,63,32.92Z"/><path class="cls-4" d="M62.91,25.19c-.19-.14-.13-.06,0,0l.31.26A3.85,3.85,0,0,1,62.91,25.19Z"/><path class="cls-4" d="M63.1,26.24l-.07,0C63.11,26.3,63.12,26.29,63.1,26.24Z"/><path class="cls-3" d="M35.17,30l17.13-.24"/><path class="cls-4" d="M40.17,29.19s0,0,0,0Z"/><path class="cls-4" d="M45.79,29h0a.11.11,0,0,1,0-.06Z"/><path class="cls-4" d="M46.7,29.07h0Z"/><path class="cls-4" d="M43.71,29.18h0Z"/><path class="cls-4" d="M38.52,29.32Z"/><path class="cls-4" d="M38.53,29.29s0,0,0,0,0,0,.07,0S38.54,29.31,38.53,29.29Z"/><path class="cls-4" d="M35.51,29.45h0Z"/><path class="cls-4" d="M43.82,30.77h0Z"/><path class="cls-4" d="M36,29.48v-.05S36,29.47,36,29.48Z"/><path class="cls-4" d="M45.81,28.9v0Z"/><path class="cls-4" d="M47.53,29.1a0,0,0,0,0,0,0h0Z"/><path class="cls-4" d="M51.75,29.85v0Z"/><path class="cls-4" d="M48.68,29.3v0a.24.24,0,0,0-.13,0v.06Z"/><path class="cls-4" d="M50,30.76l-.12-.13c.39-.06.58.06.91-.05l0,0c.05,0,.08-.25.62.09h0s0,0,.06,0l-.1-.07c.06,0,.11-.1.18-.11a.07.07,0,0,1,0,.06l.19,0,.05.08c.06,0,0-.22.18-.12-.06-.12.07-.07.06-.14s0,0,0,.06a.54.54,0,0,0,.3-.11,3.19,3.19,0,0,1-.45-.38c.13,0,0,0,0-.05v0c-.07,0-.07-.11-.11-.13v0h0s0,0,0,0,0,0,0,0h-.1V29.8c-.06.12-.38-.18-.46-.18s-.16,0-.26,0-.07-.09-.15-.14,0,.07,0,.08l-.11-.09c.07,0,0,0,0-.07s-.25-.12-.28,0c-.13-.05-.13-.1-.19-.11s.06,0,.06.07,0,0,0,0-.41-.22-.43-.08v0c0,.11,0,.21,0,.27l0-.05,0,0a.06.06,0,0,1,0-.07c-.09,0-.22,0-.33,0l.12.28c-.1-.06-.27-.19-.28-.1l-.06-.09c-.19-.18-.13.08-.21,0l-.09-.1h.09a.75.75,0,0,1-.2-.15h0s0,0,0,0h0a.12.12,0,0,1-.12.09c-.1,0-.17.06-.32-.05l0,.11-.11-.06v-.08c.11,0,.32,0,.46,0v0c-.08,0-.18,0-.23,0s-.1-.1,0-.16l-.05.08a1.08,1.08,0,0,1-.58-.07l0,0c-.06,0-.12.05-.13,0a.84.84,0,0,1-.48-.16l0,.1s-.09-.16-.11,0l-.08.05c-.05,0-.08,0-.14,0h0c-.11,0,0,.09-.13,0s0,.13-.11.11l-.06-.14c-.12-.08-.14.06-.3.06a.21.21,0,0,1-.07-.28C46,29,46,29,45.9,29s0-.06,0-.11,0,.05-.11.05,0,.26-.06.26l0,0a.17.17,0,0,1-.22,0v-.05l-.08,0V29.2l-.12,0,0,0a.28.28,0,0,1-.18,0v0c-.15-.11-.27,0-.45.05l0-.07c-.06-.07,0,.11-.09.08v-.09c-.06.12-.08,0-.13-.07l0,.12-.08,0c-.09,0-.06-.15,0-.21l-.06.1,0-.11c0,.12,0,0-.12.05s0-.06,0-.08l-.12.15.07-.07v.16c-.08.11-.11,0-.17,0l0,0c-.1,0-.1,0-.16-.06s0,.07,0,.09,0-.05,0-.07-.07.16-.13.11v0s0,0,0,0l0-.11,0,.1s-.09.06-.09,0l0,0-.26,0V29c0,.13-.15,0-.14.11-.05-.08-.19.07-.17-.11-.17,0-.26.16-.48.08s-.29-.1-.42-.11-.44.12-.72.17c-.16-.2-.41.08-.59,0l0,.08c-.12-.13-.3,0-.47-.09l-.07.05s0,0,0,.07-.14,0-.13-.09v0c0-.1-.14.06-.2,0l0,.11-.09,0,0,0c-.39.25-.57-.1-.93.13.05-.12-.07.07-.08-.07s-.17,0-.24.09a0,0,0,0,1,0,0h-.13c.08-.17-.09.14,0,0a6.75,6.75,0,0,0-1.2,0l0,0c-.1,0-.22,0-.3,0s-.17.11-.2.12-.16-.07-.12-.07-.17.18-.3.12-.34.14-.34,0h0c-.16-.11-.3.09-.48,0a.1.1,0,0,0,0,0l-.34.5.1.53.31.44.82-.11.66.16,1.6-.08.11-.12c.32.21.72,0,1.06.1v-.1c.1,0,.09.06.12.08a14.2,14.2,0,0,1,2.59-.07c.08.07.31,0,.37.09a1.6,1.6,0,0,1,.8-.12h0l.12,0v0c.14-.1.36,0,.52,0h0a23.13,23.13,0,0,1,2.88-.07c.46.16,1-.08,1.5.06A3.44,3.44,0,0,0,50,30.76Z"/><path class="cls-4" d="M51.5,30.59h0S51.51,30.62,51.5,30.59Z"/><polygon class="cls-4" points="49.31 29.42 49.32 29.42 49.29 29.36 49.31 29.42"/><path class="cls-4" d="M50.7,29.37c-.06,0-.06,0-.05,0Z"/><path class="cls-4" d="M52,30.5s0,0,0-.05h0Z"/><path class="cls-4" d="M51.87,29.91v0S51.86,29.89,51.87,29.91Z"/><path class="cls-3" d="M35.76,25.15v-3.1a2.6,2.6,0,0,1,.7-1.19,2.65,2.65,0,0,1,1.41-.72l10.79.24a2.12,2.12,0,0,1,2.12,1.67v3.1"/><path class="cls-4" d="M38.49,19.39s0,0,0,0Z"/><path class="cls-4" d="M46,19.4h0l0,0Z"/><path class="cls-4" d="M47.22,19.56h0S47.23,19.54,47.22,19.56Z"/><path class="cls-4" d="M43.22,19.54h0Z"/><path class="cls-4" d="M36,20.39Z"/><path class="cls-4" d="M36,20.35s0,0,0,0a.11.11,0,0,0,.09-.07S36,20.35,36,20.35Z"/><path class="cls-4" d="M35.19,24.68h0Z"/><path class="cls-4" d="M43.31,21.13h0S43.3,21.13,43.31,21.13Z"/><path class="cls-4" d="M35.22,24h0Z"/><path class="cls-4" d="M46,19.35v0Z"/><path class="cls-4" d="M48.34,19.62v0h0Z"/><path class="cls-4" d="M50.72,24.41h0l0,0S50.71,24.41,50.72,24.41Z"/><path class="cls-4" d="M50.08,20.22h0a.58.58,0,0,0-.19-.13l0,.06Z"/><path class="cls-4" d="M49.84,22.13s.08,0,.11-.07,0,0,0,.11,0,.2,0,.29A2,2,0,0,0,50,23l0,0c0,.06.25.1-.1.82h0s0,0,0,.08l.08-.13A.87.87,0,0,1,50,24a.07.07,0,0,1-.06,0l0,.25-.08.07c0,.08.22,0,.12.24.12-.07.08.1.14.08l-.06.05a.9.9,0,0,0,.11.4,3.59,3.59,0,0,1,.38-.59c0,.16,0,0,0,0h0c0-.11.11-.11.13-.16h0a0,0,0,0,1,0,0s0,0,0,0h0a.35.35,0,0,1,0-.15h.06c-.12-.08.19-.5.19-.6s0-.23,0-.35.09-.1.15-.2-.08,0-.08,0l.09-.14c0,.08,0,0,.07,0s.12-.33,0-.37c.06-.18.11-.18.12-.25s0,.07-.07.07,0,0,0,0,0-.16.08-.36,0-.38-.07-.37h0c-.11,0-.19.08-.27,0l0-.07L51,21.52c0-.07,0-.05,0-.06a3.28,3.28,0,0,1-.25-.46c0,.1-.08.2-.13.3,0-.14-.08-.42-.17-.38v-.13c-.08-.33-.2-.07-.25-.19a1,1,0,0,0-.05-.16l.11.08-.18-.31h0a0,0,0,0,1,0,0h0s-.13,0-.22,0a1.79,1.79,0,0,1-.47-.23l-.08.08-.17-.1v-.08a2.76,2.76,0,0,1,.75.22l0,0a2.87,2.87,0,0,0-.38-.13s-.13-.15,0-.18l-.12.05a9,9,0,0,1-.91-.15l0,0c-.08,0-.16,0-.18,0a1.3,1.3,0,0,1-.62-.19l0,.1s-.12-.16-.14,0l-.11,0c-.07,0-.11,0-.19,0h0v0h0c-.15,0,0,.09-.17,0s-.07.12-.15.1l-.09-.14c-.15-.09-.18.05-.4.05a.19.19,0,0,1-.09-.28c-.1.13,0,.08-.17.14s0-.06,0-.11-.07.05-.16,0-.06.26-.09.27l0,0a.32.32,0,0,1-.3,0v0l-.11,0v-.06h-.16l0,0a.4.4,0,0,1-.24,0v0c-.2-.12-.37,0-.61,0l0-.07c-.08-.08,0,.11-.12.07v-.09c-.09.12-.11,0-.17-.07l0,.12-.11,0c-.12,0-.07-.15,0-.21l-.09.09v-.11c-.06.12-.06,0-.17,0s0-.07,0-.08l-.18.14.1-.06v.15c-.11.11-.15,0-.23,0l.06,0c-.13,0-.14,0-.21-.07s.06.07,0,.09,0-.05,0-.07a.12.12,0,0,1-.19.1.06.06,0,0,0,0,0s0,.05-.07,0l0-.11-.08.11s-.11,0-.1,0l0,0-.35,0v-.09c0,.12-.19-.05-.18.1-.07-.08-.27.06-.23-.12-.23,0-.36.15-.65.06-.1-.15-.38-.11-.56-.13-.36.05-.59.11-1,.14-.22-.21-.55.06-.79-.06l-.06.08c-.16-.13-.4,0-.62-.11l-.1.05s0,0,0,.07-.19,0-.18-.1h0c0-.1-.19,0-.26-.05l0,.12-.12,0,0,0-.52.15-.36.08a1,1,0,0,0-.66.39c0-.15-.06.12-.15,0s-.21.21-.27.32a0,0,0,0,1,0,0l-.17.14c0-.21,0,.21,0,0a1.82,1.82,0,0,0-.59.76,4.3,4.3,0,0,0-.2.53.8.8,0,0,0,0,.34c0,.12,0,.15,0,.23l0,0c0,.13,0,.3,0,.4s.11.23.12.27-.08.21-.07.16c0,.12.18.24.11.4s.14.46,0,.46h0c-.11.22.08.42,0,.65h0l.49.47.53-.14.44-.4-.09-1.1.17-.88v-.4c0-.05,0,0,0,0v0l.07-.16a1.75,1.75,0,0,1,.39-.57v-.16a.91.91,0,0,0,.45-.16c.14-.08.35-.15.33-.06l0-.1c.12,0,.11.06.15.08a26.55,26.55,0,0,1,3.47,0c.1.07.41,0,.49.11a2.78,2.78,0,0,1,1.07-.09l0,0,.17,0v0c.18-.09.47,0,.7.05h0a38,38,0,0,1,3.85.06,2.64,2.64,0,0,0,1,.05.57.57,0,0,1,.48.2c0,.06.2.2.33.35S49.83,22.16,49.84,22.13Z"/><path class="cls-4" d="M50,24.06Z"/><polygon class="cls-4" points="50.74 20.99 50.75 21 50.77 20.92 50.74 20.99"/><path class="cls-4" d="M51.22,23c0-.08,0-.08,0-.07S51.21,23,51.22,23Z"/><path class="cls-4" d="M50.07,24.75s0,0,0,0v-.08Z"/><path class="cls-4" d="M50.66,24.57h0S50.68,24.56,50.66,24.57Z"/><path class="cls-5" d="M38,44.09c2.06-5-1.45-4.52,3.32-8.6,2.5-2.34,2.53-2.1,5.53-1.5,3.34.63,6.38-1.2,8.11-4.12.67,5-2.12,8.67-4.42,13.1a31.31,31.31,0,0,1-6.64,3.74A6.68,6.68,0,0,1,38,44.09Z"/><path class="cls-4" d="M37.61,42.5Z"/><path class="cls-4" d="M44,39.58h0v0Z"/><path class="cls-4" d="M45.06,39.33Z"/><path class="cls-4" d="M41.68,40.58a0,0,0,0,0,0,0Z"/><path class="cls-4" d="M36.07,44h0Z"/><path class="cls-4" d="M36.06,44s0,0,0,0a.07.07,0,0,0,.07-.05S36.08,44,36.06,44Z"/><path class="cls-4" d="M34,47.2h0Z"/><path class="cls-4" d="M42.3,42.05h0A0,0,0,0,0,42.3,42.05Z"/><path class="cls-4" d="M34.3,46.69l0,0A.05.05,0,0,0,34.3,46.69Z"/><path class="cls-4" d="M44,39.52v0Z"/><path class="cls-4" d="M46,39l0,0h0Z"/><path class="cls-4" d="M50.47,36.75h0v0Z"/><path class="cls-4" d="M47.25,38.56v0a.33.33,0,0,0-.15.06l0,.06Z"/><path class="cls-4" d="M49.35,38.93h-.2c.36-.36.62-.42.89-.77v0c.06,0-.07-.23.65-.47h0s0,0,0-.05l-.14,0a.68.68,0,0,1,.1-.24l.06,0,.15-.18H51c0-.09-.13-.18.07-.25-.14,0,0-.12-.05-.14h.08c.07-.09.19-.27.18-.34a3.4,3.4,0,0,1-.67.13c.14-.08,0,0,0,0l0,0c-.09,0-.14,0-.19,0h0l0,0s0,0,0,0h0a.27.27,0,0,1-.1.09l0,0c0,.13-.44.19-.5.25s-.13.16-.25.2-.13,0-.23,0,.06,0,0,.08h-.16c.06,0,0,0,0-.06s-.3.08-.25.2c-.16.05-.19,0-.24.05s.07,0,.09,0,0,0,0,0-.51.13-.45.24v0c0,.09.13.16.11.24h-.07l0,.07c-.05,0-.05,0-.06,0s-.22.13-.33.19l.27.16c-.13,0-.37,0-.34.1l-.11-.05c-.28,0-.09.16-.19.16l-.14,0,.09-.06a.66.66,0,0,1-.28,0h0s0,.11-.09.14-.14.15-.35.13v.11h-.14l0-.07c.11-.06.31-.2.46-.28l0,0c-.09,0-.17.13-.23.16s-.15,0-.12-.12l0,.1a1.41,1.41,0,0,1-.62.24l0,0c-.05,0-.1.1-.15,0a1.15,1.15,0,0,1-.57.06v.1s-.15-.1-.12,0l-.07.08s-.07.08-.15.06h0c-.14,0,0,.08-.13.08s0,.14-.09.15l-.12-.11c-.16,0-.13.11-.32.18a.19.19,0,0,1-.16-.23c0,.15,0,.09-.1.19a.11.11,0,0,1,0-.11c-.11,0,0,.06-.11.09a1,1,0,0,1,0,.28h0a.25.25,0,0,1-.25.12v-.05l-.09.06,0-.06-.13.07h0a.47.47,0,0,1-.2.06v0c-.21,0-.3.14-.5.22v-.08c-.09,0,0,.11-.07.1l0-.08c0,.14-.1,0-.17,0l.07.11h-.11c-.11,0-.11-.11-.11-.18l-.05.11,0-.09c0,.13-.06,0-.13.09s0-.06,0-.07l-.11.19.07-.09,0,.15c-.06.14-.13,0-.19.09l0-.06c-.09.07-.12,0-.19,0s.07.05,0,.09,0-.05-.07-.05,0,.17-.13.15v0s0,0-.06,0v-.11l0,.12s-.09.09-.11,0l0,0-.32.08,0-.08c0,.13-.19,0-.12.16-.09-.06-.21.14-.24,0-.21.06-.26.26-.55.29s-.37.05-.54.11-.46.35-.75.55c-.29-.07-.44.3-.69.34v.1c-.2,0-.31.24-.56.25a.28.28,0,0,1,0,.1.08.08,0,0,1,.07,0c-.07,0-.15.11-.2,0v0c0-.08-.13.15-.23.12l.09.06-.1.06v0c-.22.52-.63.4-.84.88,0-.13,0,.1-.12,0s-.12.19-.15.29v0l-.12.12c-.06-.19,0,.18,0,0a4.76,4.76,0,0,0-1,1.16h0c-.08.11-.13.27-.24.31s0,.24-.05.27-.18.13-.14.1,0,.28-.1.38-.08.45-.22.37h0c-.19.12-.11.38-.3.53l0,0,.24.6.54.12.56-.11.36-.88a5.49,5.49,0,0,1,.55-.53c.16-.25.31-.51.49-.75L37.3,45v-.18c.39-.09.58-.55,1-.68l0-.09c.07-.08.11,0,.14,0a7.45,7.45,0,0,1,2.55-1.43c.11,0,.34-.12.44-.07a2,2,0,0,1,.84-.43v0l.13-.07s0,0,0,0,.41-.14.61-.17h0c1.13-.36,2.15-.88,3.34-1.25.61-.06,1.1-.61,1.76-.8A4.74,4.74,0,0,0,49.35,38.93Z"/><path class="cls-4" d="M50.77,37.5h0S50.79,37.52,50.77,37.5Z"/><polygon class="cls-4" points="47.94 38.27 47.95 38.27 47.89 38.23 47.94 38.27"/><path class="cls-4" d="M49.22,37.25c-.06,0-.06,0,0,.06S49.22,37.27,49.22,37.25Z"/><path class="cls-4" d="M51.17,37s0,0,0,0l-.05.06Z"/><path class="cls-4" d="M50.61,36.69l0,0S50.59,36.69,50.61,36.69Z"/></g></g></svg>