<svg xmlns="http://www.w3.org/2000/svg" viewBox="0 0 80 80"><defs><style>.cls-1{font-size:10.14px;font-family:jf-openhuninn-1.1;}.cls-1,.cls-3{fill:#040000;}.cls-2{fill:#fef5e9;}.cls-4{fill:#231815;}.cls-5{fill:#f29200;}</style></defs><g id="圖層_2" data-name="圖層 2"><g id="圖層_1-2" data-name="圖層 1"><text class="cls-1" transform="translate(25.2 63.45) scale(0.99 1)">行程</text><path class="cls-2" d="M80,40C79.11,93.34.88,93.33,0,40,.89-13.34,79.12-13.33,80,40Z"/><text class="cls-1" transform="translate(30.36 65.57) scale(0.99 1)">相機</text><path class="cls-2" d="M17.7,21a3.91,3.91,0,0,1,1.61-1.49l12,.12,1.49-4.35,15.35.23,1.23,3.51,11-.21a3.22,3.22,0,0,1,1.71,1,3.55,3.55,0,0,1,.56,3.58l-.13,23a2.49,2.49,0,0,1-.95,3,2,2,0,0,1-1.29.11l-11.14.1a15.74,15.74,0,0,1-18.85-.19c-5.34-.07-9.31-.14-10.93-.15a1.6,1.6,0,0,1-1.12-.36c-.75-.7-.34-2.26-.12-3q-.41-9.93-.82-19.86l-.06-2.29A4.12,4.12,0,0,1,17.7,21Z"/><path class="cls-3" d="M17.49,41.73s0,0,0,0Z"/><path class="cls-3" d="M22.94,49.92h0Z"/><path class="cls-3" d="M17.29,34.46v0c0-.11,0-.27,0-.51Z"/><path class="cls-3" d="M48.17,51.24l-.15.09Z"/><path class="cls-3" d="M32.68,51.7l.21.07A.39.39,0,0,0,32.68,51.7Z"/><path class="cls-3" d="M17.89,30.6l0,.21S17.89,30.73,17.89,30.6Z"/><path class="cls-3" d="M17.38,23.24s0,0,0,0S17.38,23.26,17.38,23.24Z"/><path class="cls-3" d="M17.29,26.13l0,.2C17.32,26.24,17.31,26.13,17.29,26.13Z"/><path class="cls-3" d="M17.34,26.43l0-.1C17.33,26.39,17.33,26.43,17.34,26.43Z"/><path class="cls-3" d="M18,19.67a2.32,2.32,0,0,0-.42.54A5.56,5.56,0,0,1,18,19.67Z"/><path class="cls-3" d="M63.45,40.45l0,0S63.45,40.44,63.45,40.45Z"/><path class="cls-3" d="M18.1,20.19,18,20.3A.63.63,0,0,0,18.1,20.19Z"/><path class="cls-3" d="M18.19,34.49c.06.21,0,.65.06.65A2,2,0,0,0,18.19,34.49Z"/><path class="cls-3" d="M61.57,35.49v0Z"/><path class="cls-3" d="M18.1,20.19l.14-.12-.06,0A.39.39,0,0,1,18.1,20.19Z"/><path class="cls-3" d="M58.78,17.93h0Z"/><path class="cls-3" d="M57.49,17.87l.27,0A.62.62,0,0,0,57.49,17.87Z"/><path class="cls-3" d="M17.58,20.21c-.07.1-.13.21-.2.33C17.45,20.43,17.52,20.32,17.58,20.21Z"/><path class="cls-3" d="M46.06,14.56h0Z"/><path class="cls-3" d="M31.78,51.2l-.09-.06S31.67,51.15,31.78,51.2Z"/><polygon class="cls-3" points="41.35 51.88 41.35 51.88 41.35 51.88 41.35 51.88"/><path class="cls-3" d="M40.86,52a1.77,1.77,0,0,0,.49-.1A1.58,1.58,0,0,0,40.86,52Z"/><path class="cls-3" d="M42.4,51.76h0Z"/><polygon class="cls-3" points="32.8 50.15 32.8 50.15 32.8 50.15 32.8 50.15"/><path class="cls-3" d="M34.59,50.93l.12.07Z"/><polygon class="cls-3" points="46.95 50.02 46.95 50.03 46.95 50.02 46.95 50.02"/><path class="cls-3" d="M61.36,45c0,.24,0,.49,0,.75v.72l.08.31a2.12,2.12,0,0,1,0,1.06.89.89,0,0,1-.43.59.85.85,0,0,1-.35.06,1.41,1.41,0,0,1-.27,0,1,1,0,0,0-.33,0h-.19a9.2,9.2,0,0,1-1.64.14l-.06-.13-.51,0c-.21,0,.39,0,0-.07l-.19.08s-1.31,0-.46-.12h-2c-.44,0-.26.12-.74.09-.1,0,.17,0,.13-.08-1.46-.09-1.68.28-3,.23l.11,0c-.23,0-.67,0-.67.06.17.14.24-.08.66,0,0,.12-.52.07-.49.16a3.92,3.92,0,0,0-.78,0c-.24,0-.53,0-.8,0s-.45,0-.64,0a3.88,3.88,0,0,1-.46.27,3,3,0,0,1-.7.65c-.34.1,0-.11-.39.09l0,.09c-.33.18-.29.13-.29.1-.36.19-.26.24-.74.43l.23-.19a6.39,6.39,0,0,1-1,.44s.19-.11.34-.17c-.3,0-.43.23-.58.28,0,0,.39-.11.25,0s-.48.3-.69.28l.25-.16a2.75,2.75,0,0,1-.85.35s0,0,0,0a5,5,0,0,1-1.45.37l.1,0c-.23.06-.34.15-.47.17.34,0,.25,0,.29.07-.45,0-.65.25-1.38.26,0,0,.17-.09.38-.08a1.64,1.64,0,0,1,.67-.37c-.26.07-.58.13-.52.07l-.07.12-.42.05c-.06.07.35.08,0,.15s-.24-.09-.31,0c-.59.09-.24.14-.82.12a.86.86,0,0,1,.22,0c-.41,0-1,0-1.13-.11a.26.26,0,0,1,.23-.05v0c.45-.08-.38,0-.23-.1,0,.07-.55,0-.81,0l.08.09c-.89.15.06-.14-.79-.22-.55,0,.2.06-.14.06s-.48-.16-1-.23c-.14-.06-.43-.18-.43-.27A11.48,11.48,0,0,0,35,51c.51.23.55.09,1.14.35l-.19,0A7.89,7.89,0,0,1,34.71,51s.07.07,0,.07a6.32,6.32,0,0,1-1.39-.47c0-.11.29.07.54.16-.35-.22-.39-.17-.94-.47,0-.07.37.19.47.16l-.63-.29h0c-.15.06-.47-.26-.84-.45a8.32,8.32,0,0,0-.91-.49,2.38,2.38,0,0,1-.36-.16c-.15-.08-.28-.19-.5-.12s-.29-.07-.19-.1a.84.84,0,0,0,.45,0c-.59,0-.95-.13-.75-.18-.57,0,.2.07-.15.1l-.77,0c.09.06.36.08,0,.12s-.49,0-.93,0c.06,0-.14-.09.19-.08a2.07,2.07,0,0,0-.67,0c.48.06-.79,0-.43.14l-.48-.06a1.06,1.06,0,0,1,.28,0c-.14-.09-.39,0-.56,0a6.35,6.35,0,0,1-.65-.06,1.75,1.75,0,0,1-.59,0c-.23,0,0,0-.08.08l-.77,0s-.11-.18,0-.2c-.29,0-.11.14-.55.13.26-.09-.58-.08-.21-.19a6.47,6.47,0,0,0-1.37-.06c-.24.07.43.05.41.13-1.11,0-1.18.23-2,.18l.21,0a4.07,4.07,0,0,0-.75.09c.07,0-.07-.11-.34-.17a2.35,2.35,0,0,1-.76-.2c-.08,0,.23.2.13.24a.89.89,0,0,1-.34-.16s0,0,.07,0c-.29-.18-.21-.56-.33-.64a2.09,2.09,0,0,1,.11-.43l-.05.17c-.07,0-.05-.54,0-.65a1.92,1.92,0,0,1,.1-.59,3,3,0,0,1,.2-.46c-.1.13-.23.41-.14-.15.16-.08,0-1,.1-1,0-.18,0-.5,0-.52l.1,0c-.14,0-.16-.69-.2-1.2.19.11,0-.55.12-.78-.13-.09-.08-.89-.19-1,0-.39.09-.35.13-.45l-.06-.18c.05-.2,0-.93.06-1.36l-.13-.4,0-.16c0-.06-.06-.39-.09-.18v-.22c-.12,0-.05-.31-.12-.74,0-.1.05-.08.07,0,0-.22.06-.13.09-.25,0,.15-.25-.78-.28-.19-.05,0-.1-.3-.08-.51l.1-.14-.12-.25a5.79,5.79,0,0,1,0-.75c0,.27.24.61.2-.11a5.76,5.76,0,0,0,.13.75c0-.14,0-.22.06,0,0-.56-.07-.18-.11-.74.1,0,.13-.13.14-.61l-.06.36a.24.24,0,0,1,0-.07c0,.14,0,.18-.05.21s-.15-.64-.09-.73c-.13.56-.16-1-.24-.61a1,1,0,0,1,0-.49c.09.46.09-.36.17-.28,0-.18-.06.36-.11.13a2.57,2.57,0,0,1,.06-.63L18,33l0-.43c0-.07-.07.42-.11,0,0-.11,0-.5,0-.49.07.18.15,0,.18.38,0-.28-.06-1.16-.14-.8v-.33c0,.21-.08.79-.12.13h0L17.81,31l0-.2s-.05-.07-.06-.24,0-.21.07-.2c0-.49-.07-.45-.1-.52,0-.27,0-.38.06-.25,0-.38,0-1.05,0-1.31-.07-.51,0,.11-.09-.19a11,11,0,0,0-.06-2.52c-.14.23,0-.23-.16-.38,0,.18.09-.79.16-.06l0-.45c.07-.3.08.74.18.27s-.17-.77-.18-1.45c.12.17-.07-.39.06-.27a2.55,2.55,0,0,1,.08.4v-.11c0-.93-.14-.26-.21-.77s.16-.45.21-.47a5,5,0,0,0,.14-.51c-.07.34-.25.61-.28.43a5,5,0,0,0,.36-1,2.19,2.19,0,0,0-.37.63c0,.13-.08.25-.24.67a.89.89,0,0,1,.07.61c-.05-.32-.07,0-.08.11.06-.08,0,.32.11.52s-.16-.33-.17.24l.15.1c0,.21-.11-.09-.06.36-.08-.24-.12.08-.16-.53a5.21,5.21,0,0,0,.17,1.69c0-.06,0-.07,0-.13a3.76,3.76,0,0,1,.06.51c0,.38-.08-.29-.12-.19l0,.6s0,0,0,0a.66.66,0,0,1,0,.37,2.34,2.34,0,0,0-.15-.37l.13.63c0-.07-.06.53-.11.08l.05.94-.09.08c0,.23.05.24.05,0,0,.32.23,1.42,0,1.26.11.73.09,1,.17,1.9-.12-.69-.08.79-.15.06a3.38,3.38,0,0,0,.11.85c0,.32-.13.18-.18-.16l.06.4h0l.07.34c0,.37-.09.08-.09.47l.09.08,0,.26c0-.1.06.12.08.4h0l0,.34c-.07-.33,0,.31-.07.16a7.32,7.32,0,0,0,0,.81l.06-.09c.08.68-.09,0-.07.58l.06,0c-.08.8.12,1.34.07,1.93,0-.33-.1-.25-.08-.24,0,.5.06,1.32.16,1.84a1.5,1.5,0,0,0-.14.78c0,.39,0,.45.1.57a9,9,0,0,1,0,1.11c.06.08,0,.34.06.54l0,0,.07,0c-.13.68.13,1.13,0,1.81l0-.12,0,.29s-.05-.07-.09-.09l0,1.33,0-.27c0,.26.11.52,0,.68,0-.17,0-.09-.05,0a2.27,2.27,0,0,1-.16.47l.05-.3c-.1.4-.1.4,0,.38-.08.54-.21.34-.19.87,0-.13,0-.25,0-.37s.07.16.05.41c0,0-.05.23-.05,0a2.62,2.62,0,0,0,.27,1.35c.14.26,0,.21-.06.08a1.82,1.82,0,0,0,.63.6,1.68,1.68,0,0,0,.78.22l0,0a1.9,1.9,0,0,0,.35,0l.42.09-.15-.05a5.07,5.07,0,0,1,.78,0l-.13.05c.78,0,.9.11,1.65,0,.05,0-.07,0-.13,0,.69-.09.52.11,1.22,0,0,0,0,0,0,.06l.31,0,0,.08.26-.11.19.08.12,0a12.37,12.37,0,0,0,1.28.16L25,50c1.17-.19,2.66.15,4.07.08l0,.07.59-.08c.31.07-.19.06-.1.11.33,0,.38,0,.39-.08s.09-.09.21,0,.06.07.05.07-.05,0-.06,0-.09-.05-.12,0,.45.28.8.49l.89.56s0,0,0,0c.42.21,1,.51,1.43.72,0,0-.14,0-.26-.07a2.19,2.19,0,0,0,.55.24l-.21,0a11.27,11.27,0,0,1,1.17.49s0-.08.33,0c.14.18.91.23,1.43.41a2.29,2.29,0,0,1-.35,0,2.06,2.06,0,0,0,.76.11l-.08,0c.43.08.86.11,1.28.15.18.15,1.22.1,1.12.17.46,0-.38-.06.2-.06.16.06.53,0,.5.07h.35l-.26.07a1,1,0,0,0,.63-.16c.33,0,.8,0,.95,0l-.12,0A8.57,8.57,0,0,0,43.42,53s0,0-.06.05l.57-.14-.12.09c.3-.1.6-.22.9-.34v0A14.12,14.12,0,0,0,47,51.83l-.1.07c.77-.44.79-.35,1.34-.71l0,.05.5-.3-.09.1a3.27,3.27,0,0,1,.64-.4c.11-.06.19-.1.18-.08h0c0-.06,0-.1.13-.15.6,0,.15.05.52.08s.52-.07,1.11,0v0c.28,0,.45,0,.84,0l-.11,0c.63-.09.79.11,1.28-.07.27,0,.77,0,.75.08l2.18-.12c.13.13.17,0,.64.06l0-.07c.55,0,1.15,0,1.75.06l.93,0h.79v.07c.06,0,.22,0,.32,0A2.77,2.77,0,0,0,62,50.21,2.83,2.83,0,0,0,63.2,49a3.9,3.9,0,0,0,.37-2.54c0-.09-.09-.29-.09-.25l0,0s0-.11,0-.16a6.6,6.6,0,0,1,0-.78v.05c0-1-.06-2,0-3,0,.06,0,0,.07.07a2.82,2.82,0,0,1,0-.82l-.05.26a2,2,0,0,1,.05-.87l-.07-.47s0-.08,0-.08l0-.08.09-.25a5.93,5.93,0,0,0-.12-.93s.06-.47.07-.14l0-1.7,0,.27c-.07,0-.11-.48-.07-.75,0,.35.09,0,.14-.11s-.06.2-.09.07a5,5,0,0,1,0-1.06l0,.18c0-.4.1-.58.09-1s0-.6-.12-.53c0-.51.08-.2.1-.36a2.81,2.81,0,0,1,0-1c-.17-.28.07-1.36-.07-1.47l.08-.41s-.12-.1-.14-.43.11-.24.15-.34l-.14-.21c.17-1.83.08-4.23.21-6.23,0-.11,0-.23,0-.35s0,0,0-.08a5.21,5.21,0,0,0,.16-.9,5.07,5.07,0,0,0-.18-2l.06.13a4.22,4.22,0,0,0-.53-1.24,4,4,0,0,1,.39.9,6,6,0,0,0-.39-.7,3.9,3.9,0,0,0-1.85-1.64L61,18l-.38-.1a1.49,1.49,0,0,0-.45,0h-.27c-.36,0-.71,0-1.06.05-.9.18-.61-.14-1.47,0l.17-.06c-.94.07-1.45.11-2.38.23.1-.17-.61,0-.53-.08l-.07.07c-.21,0-.7,0-.63-.09l-.41.09,0-.07a8.57,8.57,0,0,1-2-.05l-1,.07h-.4c-.28-.81-.58-1.7-.84-2.47a9.78,9.78,0,0,1-.41-1h-1l-.38,0-.24-.05a6,6,0,0,1-1.18.06s0,0,0,0a7.43,7.43,0,0,0-1.16,0c-.44,0-.87-.06-.73-.13-.05.13-.93,0-.93,0l-3.09-.08L32,14.18,30.5,18.54H27.31l-3.69.05c-1.15,0-2.2.06-3.11.1l-.66,0-.36,0c-.16,0-.33,0-.47.07a3.57,3.57,0,0,0-.38.25c-.11.07-.17.13-.25.19a3.59,3.59,0,0,0-.39.39c-.13.19-.47.66-.26.54-.27.35-.46.47-.45.58.36-.48,0,.24.43-.18-.07.1-.13.2-.19.3s.23-.43.25-.31l0-.15a1.5,1.5,0,0,1,.44-.36c.18-.22.14-.47.83-.79l-.18.12c.56-.33.37-.11.49-.12,0,0-.09,0-.12,0a2,2,0,0,1,.49,0c-.16,0-.45-.06-.56.08s-.18.16-.05.08c.62-.21-.18,0,.3-.15.32,0,.22.06.21.1h.5c0,.06-.33,0-.13.06l.63-.06c.12.15.69-.06,1,.08-.45,0,0,.05,0,.1h1.11c.1,0-.3,0-.13,0a1.26,1.26,0,0,0,.46,0c.09.05.82,0,.79.11.75.07.32-.12,1-.06.09.06-.56,0-.25.07h.73a.72.72,0,0,1-.42.08c2,.1,3,.42,4.81.36.25.07-.18,0-.36.09a6.69,6.69,0,0,1,1.11,0l1.42.11.27-.65c.08-.23.16-.46.26-.71l-.05,0c.24-.5.46-1.05.67-1.63q.21-.59.42-1.2l.88,0-.21,0a8.42,8.42,0,0,1,.91-.07c.05,0-.21.12.3.1-.11,0-.32-.05-.25-.07,1.49.17,4.65.18,7.1.29l3,0,1.51,0,.73,0h.09l0,.06a1.87,1.87,0,0,0,.06.18l.3.89c.29.81.57,1.62.85,2.42l.9,0c-.94,0-.45-.13.19-.11s.68.08.93.09l.68,0a6.73,6.73,0,0,1,1.42,0c1.9-.11,3.6.07,5.37-.15l0,.07a4.4,4.4,0,0,0,.62,0v0c.33,0,.69,0,1,0h.41l.08,0,0-.07c.27.09.12.1.39.18l0,0,.31.1c-.05.05.1.16.25.31a1.22,1.22,0,0,1,.32.45,2.27,2.27,0,0,1,.29,1.57,4.17,4.17,0,0,0-.19.49,2.15,2.15,0,0,0-.11.79c0,.18,0,.35,0,.5,0,1.16,0,2.82,0,4.3l.09,0v.38s0,.05,0,0c-.1.3,0,.89,0,1.2.08-.19,0-.27,0-.49s.13,0,.08.42h0l0,.29c-.07,0-.11.3-.17.33,0,1.28.12,2.14.08,3.46-.08-.14,0,.94-.12.68.05.78.11-.13.2.23s0,.45,0,.49-.09.18-.1,0V36c0,.05,0-.06,0-.12.07,1.07-.1,1.9,0,2.87,0,.07,0-.39.06-.32.09,1-.09.86,0,1.76L61.49,40a2.46,2.46,0,0,1,0,.9c-.08.08-.06-.41-.09-.64,0,.33,0,1.16.08.91a3.25,3.25,0,0,1-.07.75s0-.37.09-.14c0,.54,0,1.37-.06,2,0,0,0,0-.06,0C61.52,44.34,61.34,44.28,61.36,45Z"/><path class="cls-3" d="M32.58,50l.22.13s0,0,.14,0Z"/><path class="cls-3" d="M44.22,51.25l.08,0Z"/><path class="cls-3" d="M46.85,50c-.17.11,0,.05.1,0S46.93,50,46.85,50Z"/><path class="cls-3" d="M25.49,48.79c.05,0,.08,0,.07,0S25.48,48.78,25.49,48.79Z"/><path class="cls-3" d="M18.28,36.67v.08A.28.28,0,0,1,18.28,36.67Z"/><path class="cls-3" d="M18.2,37.77a1,1,0,0,0,0,.22A1.09,1.09,0,0,0,18.2,37.77Z"/><path class="cls-3" d="M30.45,48.83l.26.16A1.36,1.36,0,0,0,30.45,48.83Z"/><path class="cls-3" d="M18.24,38.21v.28h0Z"/><path class="cls-3" d="M18.27,36.32c0,.11,0,.25,0,.35A1.31,1.31,0,0,0,18.27,36.32Z"/><path class="cls-3" d="M18.56,48.62h0C18.71,48.67,18.63,48.64,18.56,48.62Z"/><polygon class="cls-3" points="18.43 39.41 18.43 39.45 18.45 39.52 18.43 39.41"/><path class="cls-3" d="M18.25,35.14s0,.1,0,.13v-.15Z"/><path class="cls-3" d="M18.58,45c0-.08,0-.11-.07-.11S18.53,45.05,18.58,45Z"/><path class="cls-4" d="M23.46,37.59h0Z"/><path class="cls-4" d="M23.7,35.34l0,0S23.71,35.34,23.7,35.34Z"/><path class="cls-4" d="M23.54,39h0v0Z"/><path class="cls-4" d="M25,30.9v0S25,30.91,25,30.9Z"/><path class="cls-4" d="M24,33.45s0,0,0,0S24,33.44,24,33.45Z"/><path class="cls-4" d="M22.62,39.94l.06-.06S22.62,39.91,22.62,39.94Z"/><path class="cls-4" d="M23.33,41.27h0Z"/><path class="cls-4" d="M23.44,40.63l0,0S23.41,40.64,23.44,40.63Z"/><path class="cls-4" d="M23.37,40.59h0Z"/><path class="cls-4" d="M38,21.61s.07-.06.1-.11Z"/><path class="cls-4" d="M27.06,27.38v0Z"/><path class="cls-4" d="M38,21h0Z"/><path class="cls-4" d="M22.25,39.21c-.08,0,0-.13-.08-.12S22.14,39.21,22.25,39.21Z"/><path class="cls-4" d="M25.58,24.82l0,0S25.58,24.81,25.58,24.82Z"/><path class="cls-4" d="M38,21l0,0v0Z"/><polygon class="cls-4" points="30.26 24.55 30.26 24.55 30.26 24.57 30.26 24.55"/><path class="cls-4" d="M30.52,24.53l0,0S30.52,24.56,30.52,24.53Z"/><path class="cls-4" d="M38.08,21.5l.06-.06S38.1,21.47,38.08,21.5Z"/><path class="cls-4" d="M32.66,23.31l0,0S32.66,23.32,32.66,23.31Z"/><path class="cls-4" d="M23.92,33.62l0,0S23.93,33.65,23.92,33.62Z"/><polygon class="cls-4" points="22.4 31.39 22.4 31.39 22.4 31.39 22.4 31.39"/><path class="cls-4" d="M22.46,31.52s0-.09-.06-.13S22.4,31.46,22.46,31.52Z"/><path class="cls-4" d="M22.5,31.18h0Z"/><polygon class="cls-4" points="21.88 33.24 21.88 33.24 21.88 33.24 21.88 33.24"/><path class="cls-4" d="M21.94,32.82l0,0Z"/><polygon class="cls-4" points="22.64 30.11 22.65 30.11 22.65 30.11 22.64 30.11"/><path class="cls-4" d="M24.1,26.24a7.86,7.86,0,0,1-.62,1.23c.09.16,0,.27,0,.4l-.18-.09v.13c-.08,0,0-.09-.1-.06l.09.1c-.07,0-.17.22-.21,0l-.2.38c-.05.08.12.13,0,.2s0-.05-.08-.08c-.28.22.18.5,0,.71v0c0,.07,0,.15,0,.16.2,0-.08-.09.06-.12s0,.14.17.18c-.09,0,0,.12,0,.17s-.12.21-.27.23c0,.07.17.18.14.28s-.12-.06-.2,0l.09,0c-.05.08-.07.05-.11,0s.1.12,0,.2l-.07-.09a.4.4,0,0,1-.07.22c-.06,0,0-.06,0-.09-.16,0,0,.12,0,.15s.09-.06.17,0,.08.15-.05.15l-.06-.09c0,.14.09.1,0,.22l0,0c.1.12-.05.19-.09.31l0,0c0,.06.1.11.08.13s.1,0,.19,0c-.18,0,.14.19,0,.31s-.11-.07,0-.1c-.15-.09-.29-.14-.33-.25,0,.06,0,.14,0,.1l.14.06a.24.24,0,0,1,0,.09c.09,0,.18,0,.22.07s-.17,0-.11,0,.15.09.07.2,0-.05,0-.05,0,.21-.22.19c0,0-.09,0-.07-.07h0c-.1-.13,0,.09-.14,0,.1,0,0,.14,0,.19h.12c.3.26-.22-.07-.22.13s0,0,.11.05-.14.08-.12.2a.33.33,0,0,1-.25.06c0,.08-.1.2,0,.27.13-.1-.11-.15.08-.26l.12.07c0,.09,0,.23-.05.28h.09c0,.14.13.2.07.33s-.08-.08-.08-.14,0,.09-.09.22,0-.09-.07-.12v.15h0c.17,0,0,.11,0,.21s.2.28.32.41a.15.15,0,0,1-.13,0c.08,0,0,0,0-.06s-.18.14-.24.09c0,.12.09,0,.14,0l0,.16c.09,0,.11-.06.17,0a.68.68,0,0,1,0,.19c-.05,0-.14,0-.13-.05s-.05.11,0,.14.05.17.2.11l-.09.09s-.05,0,0-.06,0,.08,0,.11,0,.13-.09.13,0,.11-.07.12.09,0,.13,0l0,.16a.92.92,0,0,1-.3,0c.07.06.22,0,.2.12s-.11.12-.27,0-.11.2-.08.28.07-.09.18-.08c0,.23.35.24.3.41l0,0a.31.31,0,0,0,.15.15c-.14,0-.37.12-.34.29s.13-.09.25-.07l0,.11s0,0-.05,0-.18.2,0,.22l-.2.11.09,0c.07,0,.09.12.12.14s0,.16-.06.23.19-.09.22,0c-.23,0-.07.2-.19.2s-.06.11,0,.1H22c.2,0,.2.13.25.22-.27,0,0,.11-.21.18.18,0,.09.18.25.18s-.15.08-.21.11l.07,0c-.08,0-.07.2-.12.3l.18.05-.07,0s.07.07.13,0v0c.17,0,0,0,.14.13a.1.1,0,0,1-.09,0s-.09,0-.15.07.34.1.4,0,.14,0,.11.08l-.15.05.18,0c0,.06-.06.11-.07.17s-.33-.07-.3.07c0-.07-.13-.09-.17-.12s0,0-.08,0,.1,0,.14.13c-.14,0-.18.06-.21.17l.09-.1h0s0,0,.08-.06.2.1.12.13c.2-.15.21.16.33.06a.05.05,0,0,1,0,.1c-.12-.07-.14.11-.24.11s.09-.09.15-.06-.06.11-.1.15h0l0,.09c.07,0,.1-.1.15,0s0,.09,0,.1-.23,0-.27,0,.08.23.2.13v.06c.05,0,.12-.19.17-.07h0l.12.06-.06.06s.07,0,.08,0-.05.06-.11.07.1.07.15.07,0,.08-.09.08.05.2,0,.27c.09.08,0,0,.14,0-.22.16,0,.36.08.51.19-.11,0,0,.24,0-.08,0-.12.21-.22.09l0,.08c-.1.09-.13-.12-.26,0,0,.1.28.08.25.22s.08.07-.09.1-.06,0-.08-.07l0,0c0,.23.19,0,.33.08s-.08.14-.14.18,0,.09.08.11c-.12,0,0-.19.14-.19-.15.12.06.2.14.21.1-.25-.05-.13.08-.37-.06,0-.21.05-.19-.07.1,0,.08,0,.1-.06s-.06-.06-.11-.08.22,0,.22-.12l-.2,0s.15,0,.07-.1c.12,0,.16-.07.23,0,.13-.19-.16-.18-.27-.26h.06c-.06,0-.07,0-.09-.08s.11,0,.16,0l0-.11h0s-.06,0,0-.07a.76.76,0,0,0,.21,0l-.18-.07c.07,0,.09-.13.16-.06l-.08-.17.14,0s-.07,0-.07,0-.32-.2,0-.24c-.15-.11-.12-.17-.23-.32.16.1.13-.19.22-.07,0-.09-.11-.07-.15-.13s.19-.07.26,0l-.09-.06h0l-.09,0c.06-.09.13-.05.14-.13l-.13,0,.06-.07c-.05,0-.08,0-.1-.05h0l0-.06c.09.05,0-.06.11,0s0-.05-.05-.15l-.08,0c-.1-.11.13,0,.12-.14l-.1,0c.14-.18-.15-.23-.05-.36,0,.06.14,0,.11,0s0-.24-.18-.32c.14-.06.18-.07.24-.18s0-.08-.13-.09-.05-.2.05-.22c-.08,0,0-.06-.06-.09l0,0-.1,0c.21-.15-.14-.2,0-.34l0,0,0,0s.07,0,.13,0v-.25l-.07.06s-.11-.08-.06-.14,0-.09.12-.11l0,.05c0-.07,0-.07-.12-.06s.19-.07.08-.15v.06c-.06,0-.14,0-.14-.06s.06,0,.07,0,0-.19,0-.22a.11.11,0,0,1,.13,0c-.09-.15,0-.07-.08-.22h.06L23.42,36l.12-.07-.07,0c0-.05,0-.08,0-.14l.08,0c-.05-.14.13-.16,0-.3s.05,0,.06,0,.15-.09,0-.22h.09l-.06-.06h.12l-.17,0,.12,0-.05,0c.22,0,.06-.14.22-.22h-.14c-.29-.24.19-.48.09-.74l.11,0-.12-.12c.1,0,.09,0,.15,0s-.16-.06-.18-.19.08,0,.12.06c0-.12-.08-.31,0-.39h0c0-.09,0-.19,0-.28a.09.09,0,0,1,.06.06s.06-.07,0-.1l.09,0c0-.07,0-.21.09-.2,0,0-.13,0-.11-.08.18,0,0-.17.07-.25s0,.09,0,.07,0-.09-.06-.15l.06,0,0-.24c.18,0,0-.21.14-.16s-.09,0-.08-.06,0-.1.1-.06h0V32.2l.1.07c0-.06-.11-.13-.19-.16.08,0,0-.13.16-.12l0,0c0-.16.37-.16.22-.34,0,0,0,0,0,0l0-.09.07,0-.07-.19.05,0c0-.1.08-.26.12-.39l0,0c0-.17.1-.12.08-.24l0,0,0-.09.05,0c-.09-.12.22-.13.11-.13s-.07-.15-.13-.19.08,0,.14,0,0-.12,0-.2l0,0a1,1,0,0,1,0-.16v0c-.05-.15.22-.05,0-.23.07,0,.08-.12.18-.07a1.89,1.89,0,0,1,0-.41c.18.07,0,0,.14-.05l-.09-.05c.07-.18.39-.25.48-.45l.09.05-.07-.1a3.58,3.58,0,0,0,.46-.54c0-.08-.06-.23,0-.29v0a.76.76,0,0,1,.29-.44s.06,0,.07.07.06-.09.09-.12H26.9c0-.1.07-.1.15-.07l0-.14,0,0,0-.05.13.05s0-.14,0-.24.11,0,.09,0,.14-.14.22-.2h-.06c-.08-.06-.07-.17,0-.17s.1.1.18.13-.09,0-.12-.09,0-.18.09-.17v.05c0-.08.17,0,.21,0s.07-.08-.07-.19c0-.09.11.06.14.05s.1-.14.17-.09c-.15-.22.23-.11.09-.27l.14,0s-.12-.15-.09-.21.14.09.19.13L28.19,26c.4-.05.61-.44,1-.52.1-.13.2-.33.36-.41v0l.18-.06h-.16s0-.09.05-.11a1,1,0,0,0,.64-.34c0-.29.21.13.24-.1,0,0,0,.06,0,.08a1.57,1.57,0,0,0,.22-.45c.11.22.09-.06.14.06l0-.09c.07,0,.15,0,.18.08V24l.06.09c.09,0,.23-.21.37-.05a1.25,1.25,0,0,1,.8-.46c0-.1.08-.14.14-.17l.12.08c.05-.07.06-.24.15-.19v0c.06,0,.14,0,.16-.15a.15.15,0,0,1,.19.13c-.06-.19.17,0,.17,0l2.06-.53A6,6,0,0,0,38,21.61c0-.1.12-.17.08-.29s.1.14.12,0,0-.26-.08-.38l.06,0c0-.08-.08.08-.07-.05v.19A.22.22,0,0,1,38,21c0,.07-.07.33-.19.22h0c-.1,0-.07-.11-.09-.14h0L37.67,21c.07.06.16-.1.11-.08s0,0-.05.07,0-.09,0-.15l-.09,0c0-.09.06,0,0-.09l-.11.1c0-.21-.12.12-.19-.08.08-.06,0-.07,0-.14l-.22,0s0-.07,0-.06-.06.06-.08.06-.16,0-.17-.12c-.16-.07,0,.19-.19.13s.11,0,0-.12l-.14.05s0-.14.06-.13c-.39-.06-.68-.48-1-.3-.07-.09,0-.08,0-.15-.24.19-.41-.15-.63-.09V20c-.37-.2-.7.06-1.08,0l.06.05c0,.09-.1.12-.15.17s0-.19-.1-.12.08,0,.08.08a4.23,4.23,0,0,0-1.49.2c-.63.29-1.39.45-2,.8.09-.05.15.16.06.15-.36-.22-.31.23-.62.11-.3.28-.76.22-.93.65L28.8,22c-.08,0-.05,0-.1.09v0c-.14,0-.23.22-.32.22l.06.1c-.06,0-.09-.05-.12,0l0,0v.15c-.11-.17-.2.12-.31.09a.9.9,0,0,1-.33.35c-.09-.07-.24,0-.38.09a4.65,4.65,0,0,1-.68.62l.09.09-.05.06s0,0,0,0-.11.16-.22.13c.11.06,0,0,.09-.05s.13.14,0,.15l0,0v.09c-.08-.07-.15-.07-.23-.14-.18.21-.18.47-.4.64-.06-.1-.12.16-.22,0-.07.17.13.08.18.24s0,.1-.09.06-.11-.06-.1-.1l-.07.09s0,0,0-.05c-.07.24-.38.2-.42.44.05.06.07-.05.11,0,0,.25-.21.06-.25.27l-.05-.09c0,.09.06.17-.06.2s0-.13,0-.2-.14.21,0,.23c0,.09-.13.05-.18.07s.11,0,.12.05a1,1,0,0,0-.32.3s-.07,0-.07-.06C24.37,26.26,24.17,26.1,24.1,26.24Z"/><path class="cls-4" d="M21.85,33.29l0,0s-.06,0-.08,0Z"/><path class="cls-4" d="M22.53,30.77l0,0S22.52,30.76,22.53,30.77Z"/><path class="cls-4" d="M22.56,30.1s.05,0,.08,0A.1.1,0,0,0,22.56,30.1Z"/><path class="cls-4" d="M22,34.78l-.05,0A.06.06,0,0,0,22,34.78Z"/><path class="cls-4" d="M22.16,38.78l0,0Z"/><path class="cls-4" d="M22.31,38.53s0,0,0,0S22.29,38.52,22.31,38.53Z"/><path class="cls-4" d="M22.05,33.81s0,0,0-.05A.09.09,0,0,0,22.05,33.81Z"/><path class="cls-4" d="M22.25,38.45v-.06h0Z"/><path class="cls-4" d="M22.16,38.85v-.07S22.14,38.83,22.16,38.85Z"/><path class="cls-4" d="M22.14,36.24h0C22.08,36.2,22.11,36.22,22.14,36.24Z"/><polygon class="cls-4" points="22.02 38.23 22.02 38.23 21.99 38.21 22.02 38.23"/><path class="cls-4" d="M22.17,39.09l0,0v0Z"/><path class="cls-4" d="M22,37.09h.1S22.08,37.07,22,37.09Z"/><path class="cls-4" d="M41.38,48.34v.06A.15.15,0,0,0,41.38,48.34Z"/><path class="cls-4" d="M43.65,48.31l0,0Z"/><path class="cls-4" d="M40.05,48.23v0H40Z"/><path class="cls-4" d="M48.26,46.57l0,0Z"/><path class="cls-4" d="M45.58,47.79s0,0,0,0S45.57,47.76,45.58,47.79Z"/><path class="cls-4" d="M39.45,47.07l0,.08A.11.11,0,0,0,39.45,47.07Z"/><path class="cls-4" d="M38.18,47.21h0S38.19,47.21,38.18,47.21Z"/><path class="cls-4" d="M38.62,47.6l0,0A0,0,0,0,0,38.62,47.6Z"/><path class="cls-4" d="M38.68,47.55l0,0A0,0,0,0,0,38.68,47.55Z"/><path class="cls-4" d="M51,30.39s-.09,0-.15,0Z"/><path class="cls-4" d="M51.43,43.29l0,0A0,0,0,0,0,51.43,43.29Z"/><path class="cls-4" d="M50.4,30.7v0Z"/><path class="cls-4" d="M40.1,46.91c0-.08.1,0,.1-.06S40.12,46.81,40.1,46.91Z"/><path class="cls-4" d="M49.46,41.13v0Z"/><path class="cls-4" d="M50.4,30.7v0l0,0Z"/><polygon class="cls-4" points="53.18 38.84 53.18 38.84 53.19 38.85 53.18 38.84"/><path class="cls-4" d="M53.34,38.6l0,.06A0,0,0,0,0,53.34,38.6Z"/><path class="cls-4" d="M50.83,30.35l-.08,0Z"/><path class="cls-4" d="M53.32,35.84v0S53.33,35.84,53.32,35.84Z"/><path class="cls-4" d="M45.39,47.83h0S45.37,47.85,45.39,47.83Z"/><polygon class="cls-4" points="46.04 45.32 46.04 45.32 46.04 45.32 46.04 45.32"/><path class="cls-4" d="M46,45.45s0-.07,0-.13S46,45.36,46,45.45Z"/><path class="cls-4" d="M46.21,45.26h0Z"/><polygon class="cls-4" points="44.66 45.88 44.67 45.88 44.66 45.88 44.66 45.88"/><path class="cls-4" d="M45,45.74l0,0Z"/><polygon class="cls-4" points="46.77 44.64 46.77 44.64 46.77 44.64 46.77 44.64"/><path class="cls-4" d="M48.5,42.21A2.89,2.89,0,0,1,48,43c.07.14,0,.21,0,.3l-.15-.13v.1c-.06,0,0-.07-.08-.08l.07.11c0-.05-.17.1-.18-.09l-.21.2s.09.15,0,.17,0,0-.06-.1c-.27,0,.06.46-.16.52v0c0,.07,0,.11,0,.13s0-.11.08-.06,0,.12.08.22,0,.08-.06.12-.17.08-.29,0,.07.22,0,.28-.07-.12-.16-.11l0,.09c-.06,0-.07,0-.1,0s0,.15-.07.15l0-.11c0,.07,0,.07-.13.11s0-.06,0-.07,0,.1-.06.11.09,0,.12.11,0,.16-.09.08v-.1c0,.11,0,.12-.09.15l0,0c0,.14-.13.09-.21.13v0c0,.05,0,.14,0,.14s.08.05.13.13c-.15-.1,0,.23-.15.21s0-.13,0-.09a1.1,1.1,0,0,1-.1-.4c0,.06,0,.1-.08,0l.07.14s0,0-.06,0,.13.11.11.2-.12-.12-.09-.05,0,.17-.07.17,0,0,0,0-.14.11-.24-.05,0-.09,0-.09v0c0-.16,0,.06-.09-.1,0,.08,0,.11-.1.11l.07.1c0,.37-.1-.21-.2-.11s0,0,0,.12-.13-.08-.19,0a.42.42,0,0,1-.17-.18c0,.08-.17,0-.15.14s0-.15.2,0l0,.13c-.07,0-.13.12-.2.1a.18.18,0,0,1,0,.07c-.08.09-.06.22-.18.22s0-.1,0-.13-.07,0-.18,0,.07,0,0-.12l-.09.07v0c0,.17-.09,0-.14.1s-.1.28-.14.44a.21.21,0,0,1-.07-.12c.07.06,0,0,0,0s-.17-.12-.17-.19.06.07,0,.14l-.12,0c0,.08.09.08,0,.16a.25.25,0,0,1-.15.05s-.06-.11,0-.13-.09,0-.09.08-.1.12,0,.23l-.1-.05s0-.06,0,0,0,0-.07.07-.11,0-.13-.06-.08,0-.11,0,0,.08,0,.13l-.13,0a1.07,1.07,0,0,1-.08-.29c0,.07,0,.21,0,.22,0-.15-.12-.08-.1-.26a.15.15,0,0,0-.23,0c0,.11.08,0,.11.15-.16.09-.11.4-.25.37l0,0a.28.28,0,0,0-.09.17c0-.14-.17-.36-.3-.3s.1.12.1.23l-.09,0s0,0,0,0-.18-.16-.18,0l-.11-.19,0,.08c0,.07-.08.11-.1.14S42,47,42,47s.08.18,0,.21c0-.23-.16-.06-.18-.18s-.09-.06-.08,0v-.14c0,.2-.09.2-.17.25,0-.28-.09,0-.15-.21,0,.18-.14.08-.14.24s-.07-.16-.09-.22l0,.07c0-.09-.16-.09-.23-.15l-.06.16,0-.07s-.06.07,0,.13h0c0,.18,0,0-.12.13a.12.12,0,0,1,0-.1s0-.09,0-.15-.13.33,0,.4-.05.13-.08.1l0-.16,0,.17c-.06,0-.08-.08-.13-.1s.11-.31,0-.31c.06,0,.09-.1.13-.14s0,0,0-.08,0,.09-.12.11c0-.14,0-.19-.1-.24l.06.1s0,0,0,0,0,0,0,.1-.11.17-.12.08c.08.23-.17.17-.11.31s-.08,0-.09,0,0-.16,0-.26.05.1,0,.16-.07-.08-.1-.13l0,0L39.78,47c0,.07.06.12,0,.16s-.08,0-.07-.06,0-.23.07-.25-.19,0-.14.16h-.05c0,.06.12.17,0,.19v0l-.09.1,0-.08s0,.07,0,.07,0-.07,0-.12-.08.07-.1.11-.06,0,0-.11-.17,0-.21-.1,0,0,0,.12c-.05-.26-.27-.12-.41-.12,0,.23,0,0-.1.21,0-.06-.1-.19,0-.23h-.08c0-.13.14-.06.09-.24-.08,0-.18.22-.26.12s-.08,0,0-.13.06,0,.09,0l0,0c-.16-.07-.08.17-.19.26s-.06-.13-.06-.21-.06,0-.1,0,.1.12,0,.21c0-.19-.16-.05-.2,0,.11.22.1,0,.21.26,0,0,.06-.21.14-.13s0,.09,0,.12.07,0,.11-.06-.09.2,0,.25l.06-.21s-.05.15,0,.12c-.06.1,0,.17-.13.18.09.21.21-.06.32-.12s0,0,0,.06a.07.07,0,0,1,.09,0c.06.06-.06.08-.05.14l.1,0h0s.06,0,.06,0-.06.14-.09.19l.13-.14c0,.07.08.14,0,.18h.17v.14s.05-.05,0-.07.28-.22.22.06c.14-.11.18-.06.35-.11-.14.12.12.18,0,.23.07.07.1-.09.16-.11a.22.22,0,0,1,0,.26l.08-.07v0l.06-.08c.07.08,0,.15.08.17l0-.13,0,.08c0-.06,0-.08.08-.09v0l.06,0c-.06.08,0,0,0,.12a.27.27,0,0,0,.15,0v-.09c.12-.07,0,.13.1.14v-.1c.15.18.24-.09.35,0-.06,0,0,.14,0,.11s.24,0,.33-.15c0,.15,0,.19.15.25s.08,0,.1-.11.2,0,.21.07c0-.08.06,0,.09-.06v-.06c.14.21.19-.15.33,0l0,0,0,0a.56.56,0,0,1,0,.13h.24l0-.07s.07-.11.13-.06.08,0,.12.11l-.05,0c.07,0,.07,0,.05-.12s.09.18.16.06h-.06c0-.06,0-.15,0-.15s.05.05,0,.07.18,0,.21-.07a.11.11,0,0,1,0,.13c.14-.12.08,0,.22-.11v.06l0-.08.1.11,0-.07c.05,0,.07-.07.14,0v.08c.13-.07.2.11.31,0,0,0,0,0,0,.06.09-.16.13.12.22-.07,0,0,0,.06,0,.09l0-.07,0,.11v-.17l.07.1v-.06c.12.2.17,0,.3.15L44,48.24c.13-.34.53,0,.74-.21l0,.11.06-.16c.08.06,0,.1,0,.15.09-.1,0-.17.11-.25S45,48,45,48s.25-.22.36-.2a.1.1,0,0,0,0,0c.06-.08.18-.08.26-.12s0,.07,0,.08.09,0,.09-.05v.11c.08,0,.17-.15.23,0s-.06-.12,0-.14c.11.15.13-.13.26-.09s-.06.08,0,.07.07-.07.09-.14l0,.07.16-.2c.11.14.19-.12.23,0s-.1,0,0-.1.06-.08.12,0v0l.06,0,0,.12a.28.28,0,0,0,0-.25c.08,0,.13-.06.21,0v0c.12-.13.4.11.42-.12,0,0,0,0,0,0l.1-.05,0,.09.08-.2,0,0a1.06,1.06,0,0,0,.36-.27v0c.08-.17.16-.05.22-.17v0l.09-.07v.06c0-.15.29,0,.18-.06a.45.45,0,0,0,0-.23c.09-.08.07,0,.15,0s0-.14.14-.17l0,0s0-.09.09-.15v0c0-.17.22,0,.13-.23.07,0,.13-.09.2,0,.07-.15.13-.26.21-.4.14.12,0,0,.15,0l-.07-.07c.14-.16.5-.16.63-.36l.08.06,0-.11a6.47,6.47,0,0,0,.59-.56c0-.08,0-.24.06-.3h0a1.2,1.2,0,0,1,.31-.5s.07,0,.08.07.06-.1.09-.13h-.09c-.05-.1.08-.12.15-.11l0-.13h0l0,0,.13,0a.35.35,0,0,0-.06-.25s.11,0,.1,0l.21-.27-.07,0c-.09,0-.09-.16,0-.18s.13.07.21.09-.1,0-.14-.06,0-.21,0-.21l0,.05c0-.09.17,0,.2-.11s0-.11-.11-.18c0-.1.12,0,.15,0s.06-.18.14-.16c-.2-.15.21-.2,0-.31l.14,0s-.16-.1-.16-.17.17,0,.23,0l-.18-.12c.36-.24.37-.75.67-1.07a2.13,2.13,0,0,1,0-.61l0,0,.11-.19-.13.12s0-.09,0-.13a1,1,0,0,0,.25-.76c-.21-.22.23-.09.09-.28l.07,0a1.41,1.41,0,0,0-.21-.5c.24,0,0-.12.13-.09l-.09,0c.06,0,.09-.13.16-.11l-.11-.09h.1c0-.11,0-.35.15-.39a2.12,2.12,0,0,1-.06-1c-.09,0-.1-.14-.11-.22l.11-.08c0-.08-.19-.15-.12-.23s0,0,0,0,0-.16-.1-.22a.15.15,0,0,1,.17-.17c-.2,0,0-.19,0-.19A8.25,8.25,0,0,0,53,32.91c-.41-1.22-1.24-2.4-2-2.52-.1,0-.21,0-.29.07s.06-.17,0-.12-.23.11-.28.26l-.05,0c-.07,0,.11,0,0,.09l.17-.09a.22.22,0,0,1-.06.15c.08,0,.31-.11.28,0l0,0c.06.08-.07.11-.09.15v0l0,.11c0-.08-.16-.08-.12,0s0-.05.08,0-.06.07-.11.1l.06.07c-.08,0,0-.05-.09,0l.14,0c-.18.13.15.05,0,.2-.08,0-.06,0-.12.07l.1.16s-.08,0-.06,0,.07,0,.08,0,.07.13-.06.19.19,0,.17.11-.06-.08-.12,0l.09.09c-.05,0-.14,0-.15,0,.07.34-.3.7-.08.91-.08.08-.07,0-.15,0,.21.14-.09.35,0,.51l.09,0c-.18.31.08.53,0,.82l.05,0c.09,0,.12.07.17.1s-.19,0-.14.08,0-.06.1-.06c-.15.28,0,.74,0,1.12a8,8,0,0,1,0,1.54c0-.07.21,0,.16,0-.37.14.06.27-.2.42.08.29-.23.51,0,.81h-.1c-.06,0,0,.05,0,.09h0c-.06.09,0,.22,0,.27l.12,0c0,.06-.1,0,0,.08h-.06l.09.09c-.19-.05-.05.16-.15.18s.06.25,0,.35-.14.13-.22.2a1.53,1.53,0,0,1-.19.61l.13,0,0,.06-.05,0c-.16,0,0,.14-.12.15.12,0,0,0,0-.06s.18.07.09.1h0l0,.07a1.84,1.84,0,0,0-.25,0c0,.18.06.37-.08.53-.09-.07,0,.14-.2,0,0,.14.15.06.25.17s0,.09-.05.06-.12,0-.12-.07l0,.08s0,0,0,0c0,.2-.26.18-.23.36s0,0,.1,0c0,.2-.18.05-.16.22L49,41.68c0,.07.1.13,0,.15s0-.1-.07-.16-.07.16,0,.19-.1,0-.15,0,.1,0,.12.05-.17.14-.24.21l-.07,0C48.74,42.26,48.54,42.1,48.5,42.21Z"/><path class="cls-4" d="M44.62,45.88h0a.28.28,0,0,1,0-.09Z"/><path class="cls-4" d="M46.43,45a0,0,0,0,0,0,0A0,0,0,0,0,46.43,45Z"/><path class="cls-4" d="M46.71,44.58s0,.05.06.06Z"/><path class="cls-4" d="M43.63,46.54s0,0,0,0Z"/><path class="cls-4" d="M40.45,46.92l0,0Z"/><path class="cls-4" d="M40.63,47.09h0S40.64,47.08,40.63,47.09Z"/><path class="cls-4" d="M44.36,46.26a.06.06,0,0,0,0,0S44.36,46.24,44.36,46.26Z"/><path class="cls-4" d="M40.71,47.05h0v0Z"/><path class="cls-4" d="M40.4,46.9l.05,0S40.41,46.89,40.4,46.9Z"/><path class="cls-4" d="M42.51,47h0C42.54,46.9,42.52,46.92,42.51,47Z"/><polygon class="cls-4" points="40.9 46.84 40.9 46.85 40.91 46.82 40.9 46.84"/><path class="cls-4" d="M40.2,46.85s0,0,0,0h0Z"/><path class="cls-4" d="M41.81,46.88a.46.46,0,0,0,0,.1S41.83,47,41.81,46.88Z"/><path class="cls-5" d="M35.62,45.1C30,43.49,26.54,37,27.78,31,29,25.25,34.84,22.57,38.91,22a12.71,12.71,0,0,1,9.62,2.42,12.65,12.65,0,0,1,4.57,9.62,12.84,12.84,0,0,1-4.88,9.59C42.61,47.89,35.92,45.22,35.62,45.1Z"/><path class="cls-4" d="M55.18,33.13h0Z"/><path class="cls-4" d="M55.25,34.8l0,0S55.24,34.8,55.25,34.8Z"/><path class="cls-4" d="M55,32.13h0l0-.07Z"/><path class="cls-4" d="M55.07,38.2v0S55.06,38.2,55.07,38.2Z"/><path class="cls-4" d="M55.31,36.2l0,0S55.35,36.2,55.31,36.2Z"/><path class="cls-4" d="M55.8,31.2l0,.05S55.8,31.22,55.8,31.2Z"/><path class="cls-4" d="M55.06,30.35h0Z"/><path class="cls-4" d="M55,30.86H55S55,30.84,55,30.86Z"/><path class="cls-4" d="M55,30.87h0Z"/><path class="cls-4" d="M49.1,48.57s0,.08,0,.13Z"/><path class="cls-4" d="M54.42,41.15l0,0Z"/><path class="cls-4" d="M49.43,49.15h0Z"/><path class="cls-4" d="M56.21,31.66c.08,0,0,.1.09.07S56.31,31.64,56.21,31.66Z"/><path class="cls-4" d="M56.82,42.76v0S56.82,42.77,56.82,42.76Z"/><path class="cls-4" d="M49.43,49.15h0l0,0S49.43,49.14,49.43,49.15Z"/><polygon class="cls-4" points="53.05 43.97 53.05 43.97 53.04 43.95 53.05 43.97"/><path class="cls-4" d="M52.86,44v0S52.85,44,52.86,44Z"/><path class="cls-4" d="M49.09,48.7v.08A.11.11,0,0,0,49.09,48.7Z"/><path class="cls-4" d="M51.86,45.54h0Z"/><path class="cls-4" d="M55.35,36.07v0S55.33,36.05,55.35,36.07Z"/><polygon class="cls-4" points="57.37 37.36 57.37 37.36 57.37 37.36 57.37 37.36"/><path class="cls-4" d="M57.27,37.28s0,.06.09.08S57.35,37.31,57.27,37.28Z"/><path class="cls-4" d="M57.33,37.53h0Z"/><polygon class="cls-4" points="57.42 35.94 57.41 35.94 57.42 35.94 57.42 35.94"/><path class="cls-4" d="M57.45,36.25l0,0Z"/><polygon class="cls-4" points="57.5 38.32 57.49 38.32 57.49 38.32 57.5 38.32"/><path class="cls-4" d="M57.51,41.4a5.61,5.61,0,0,1,.09-1,.36.36,0,0,1-.14-.29l.21,0L57.62,40c.06,0,0,.07.11,0l-.12,0c.07,0,.09-.2.2,0l.06-.31c0-.07-.15-.07-.1-.14s0,0,.11,0c.18-.21-.35-.32-.24-.52l0,0c-.05,0,0-.11-.06-.11-.21,0,.1.05,0,.1s-.08-.09-.21-.1c.07,0,0-.08,0-.13s0-.17.19-.21c-.05,0-.21-.1-.21-.17s.13,0,.18,0l-.1,0c0-.06.05,0,.09,0s-.13-.07-.06-.14l.09,0c0-.06,0-.09,0-.17s0,0,0,.06c.15,0-.06-.08,0-.11s-.07.07-.16,0-.13-.09,0-.12l.09,0c-.07-.09-.12,0-.08-.15h.06c-.13-.07,0-.15,0-.24l0,0s-.12-.06-.11-.08-.09,0-.18,0c.16-.07-.2-.11-.1-.22s.13,0,.07.06a1,1,0,0,1,.39.12c0-.05-.06-.1,0-.09h-.16s0,0,0-.07-.16,0-.22,0,.16,0,.09-.05-.17,0-.12-.12,0,0,0,0,0-.16.16-.18.09,0,.08,0h0c.14.07,0-.06.13,0-.1,0-.08-.09-.06-.13h-.11c-.35-.13.22,0,.18-.13s0,0-.11,0,.12-.08.06-.17a.75.75,0,0,1,.24-.09c-.06,0,0-.16-.09-.18s.15.08,0,.19l-.12,0c0-.07-.07-.16,0-.21a.11.11,0,0,1-.08,0c-.06-.1-.18-.12-.15-.22s.1,0,.11.08,0-.07,0-.17,0,.07.1.07l0-.11h0c-.17,0,0-.08,0-.15s-.25-.16-.4-.23a.17.17,0,0,1,.13,0c-.07,0,0,0,0,0s.16-.14.23-.12-.09,0-.15,0v-.12c-.08,0-.1.07-.17,0s0-.08,0-.14.13,0,.13,0,0-.09-.06-.09-.09-.11-.21,0l.06-.08S57,35,57,35s-.05,0-.06-.07,0-.1.07-.11,0-.08,0-.1-.09,0-.13,0v-.11a.93.93,0,0,1,.3,0c-.07,0-.21,0-.22,0,.15,0,.09-.11.27-.08a.14.14,0,0,0,0-.22c-.11,0-.05.08-.16.1-.07-.16-.39-.11-.36-.24l0,0a.27.27,0,0,0-.17-.08c.14,0,.35-.17.3-.28s-.12.1-.24.1l0-.07h0c-.06-.06.15-.18,0-.16l.19-.13-.08.05c-.07,0-.11-.06-.14-.07s-.05-.11,0-.18-.17.1-.21,0c.23-.06.05-.16.16-.19s0-.09,0-.06l.14,0c-.2,0-.21-.05-.27-.11.27-.06,0-.07.19-.18-.19,0-.12-.1-.27-.07s.14-.1.19-.13h-.07c.07-.05,0-.16.09-.24h-.18l.07,0s-.08,0-.13,0v0c-.17,0-.07,0-.16-.06a.08.08,0,0,1,.09,0s.08,0,.13-.09-.34,0-.38.11-.14,0-.12,0L56,32.1l-.17,0s0-.09,0-.14.32,0,.28-.12c0,.05.13,0,.17.06s0,0,.09,0c-.08-.07-.11,0-.15-.07.13,0,.17-.08.19-.17l-.08.09s0,0,0,0,0,0-.08.07-.2,0-.12-.07c-.18.15-.22-.08-.32,0s-.07,0,0-.07.13-.11.23-.14c-.05,0-.08.09-.14.08s0-.1.08-.14h0l0-.08c-.06,0-.08.1-.14.06s0-.07,0-.09.21-.08.25,0-.09-.15-.19-.05v-.05c-.05.05-.12.18-.17.09h0l-.13,0,.06-.06s-.07,0-.08,0,0-.05.1-.07-.11,0-.15,0,0-.06.08-.07-.06-.15,0-.21,0,0-.12,0c.2-.16,0-.27-.11-.36-.18.12,0,0-.22,0,.07,0,.1-.18.2-.11l0,0c.09-.1.13,0,.25-.08,0-.07-.28,0-.25-.12s-.08,0,.08-.09.06,0,.08,0l0,0c0-.17-.18,0-.32,0s.07-.12.13-.16,0-.07-.07-.07c.11,0,0,.15-.13.17.13-.12-.06-.14-.13-.13-.1.22,0,.09-.08.3.06,0,.2-.08.18,0s-.08,0-.09.07,0,0,.1,0-.21.06-.21.14l.2-.08s-.14.06-.07.09c-.11,0-.15.09-.22,0-.11.18.16.1.27.14h-.06c.06,0,.07,0,.09,0s-.1,0-.15.05l0,.07h0s.06,0,0,.05l-.2,0L55,31c-.06,0-.07.12-.15.08l.09.11-.13.07s.06,0,.06,0,.31.09,0,.18c.16.05.13.1.25.19-.16,0-.12.17-.21.1s.11,0,.15.06a.25.25,0,0,1-.24.08l.08,0H55c-.05.08-.13.07-.12.12l.12,0L55,32a.07.07,0,0,1,.11,0h0l0,0c-.09,0,0,0-.1.06s0,0,.06.1l.08,0c.1.06-.12.05-.1.12l.09,0c-.12.16.15.14.08.26,0,0-.15,0-.12,0s.07.17.21.2c-.13.07-.17.09-.21.19s0,0,.13,0,.07.13,0,.17c.08,0,0,0,.07,0l0,0,.1,0c-.19.15.16.11,0,.25h0l0,0a1.3,1.3,0,0,1-.13,0l0,.18.06-.06s.12,0,.08.09,0,.06-.1.1l-.05,0s0,0,.12,0-.17.09-.05.12v0s.14,0,.15,0,0,0-.07,0,0,.14.06.15a.14.14,0,0,1-.13,0c.11.09,0,.05.11.14l-.06,0,.08,0-.11.08.07,0s.06.05,0,.1h-.09c.07.1-.11.15,0,.23a.06.06,0,0,1-.06,0c.14.07-.14.1,0,.16l-.09,0,.06,0-.11,0h.17l-.11,0h.06c-.21.09,0,.12-.19.21l.14,0c.33.11-.11.38,0,.55H55.2l.15.06c-.09.05-.1,0-.16,0s.17,0,.21.11-.08,0-.12,0,.14.21.08.28h0c.06.06,0,.14,0,.2s-.06,0-.07,0,0,.05,0,.07l-.1,0c0,.06.07.15,0,.16,0,0,.13,0,.13,0-.18,0,.08.11,0,.19s-.06-.06-.06-.05,0,.07.1.1h-.07l.1.16c-.18,0,0,.15-.1.15s.07-.06.1,0,0,.06-.08.06h0v0l-.11,0s.14.07.22.07,0,.1-.11.12h0c.05.12-.3.19-.12.28,0,0,0,0,0,0v.07l-.08,0,.12.13h-.06a.77.77,0,0,0,0,.3h0c.08.11-.06.1,0,.18h0v.07l-.06,0c.12.07-.18.14-.07.12a.78.78,0,0,0,.18.11c0,.07-.07,0-.13.05s.09.08,0,.15H55s0,.06,0,.11h0c.11.09-.18.07.06.17,0,0,0,.1-.13.08a1.18,1.18,0,0,1,.1.3c-.19,0,0,0-.11.07H55c0,.15-.29.26-.28.42l-.1,0,.11.06a3.31,3.31,0,0,0-.22.48c0,.06.14.15.09.21h0a.46.46,0,0,1-.06.38s-.07,0-.09,0,0,.08,0,.11h.09c.08.06,0,.09-.11.08l.09.09h0l0,0h-.14a.35.35,0,0,0,.14.18s-.09,0-.1,0l-.11.19h.06c.09,0,.13.11.08.13s-.14-.05-.21-.06.09,0,.13,0,.06.15,0,.15l0,0c0,.06-.15,0-.16.07s0,.08.14.13c0,.08-.12,0-.15,0s0,.13-.1.1c.22.14-.16.13,0,.22h-.13s.17.09.17.14a.79.79,0,0,1-.22,0l.19.11c-.3.13-.32.47-.6.61,0,.12,0,.3-.08.4l0,0-.12.09.14,0s0,.08,0,.1-.35.2-.35.41c.15.23-.22,0-.13.14L52.86,44a1.27,1.27,0,0,0,0,.41c-.2-.15,0,.06-.14,0l.07.07c-.06,0-.12,0-.17,0l.07.11-.08-.05c0,.05-.07.23-.26.13,0,.23-.19.42-.36.57.05.08,0,.13,0,.18l-.12,0c0,.06.07.2,0,.19l0,0c0,.06-.1.05,0,.17a.16.16,0,0,1-.2-.05c.14.13-.1.07-.1.07s-.58.46-1.18,1-1.22,1.2-1.24,1.84c0,.1,0,.19.1.28s-.14-.08-.1,0,.12.23.25.3l0,0c0,.07,0-.1.07,0l-.09-.16a.16.16,0,0,1,.13.07c0-.08-.12-.3,0-.26l0,0c.06,0,.11.07.13.09h0l.1,0c-.07,0,0,.14,0,.11s0,0,0-.08.08.06.11.11l.05-.05c0,.07,0,0,0,.08l0-.12c.13.17,0-.14.17,0,0,.08,0,.06.08.12l.12-.1s0,.08,0,0,0-.07,0-.08.09-.07.18,0-.08-.17,0-.17,0,.07,0,.11l.07-.09s.07.13,0,.14c.3-.08.71.19.85-.08.09.06,0,.07,0,.14.06-.23.36,0,.48-.12l0-.06c.35,0,.47-.26.73-.37l-.06,0a.3.3,0,0,1,0-.19s.1.15.13.07a.16.16,0,0,1-.1,0c.33,0,.63-.38,1-.58.3-.43.8-.75,1.06-1.19,0,.07-.19-.09-.11-.11.38.09.12-.25.41-.24.08-.31.49-.36.41-.74l.09,0c.06,0,0-.06,0-.1l0,0c.08-.07.06-.23.13-.26l-.09-.06c0-.06.09,0,.07-.07l0,0,0-.12c.17.11.1-.14.2-.13a.6.6,0,0,1,.11-.35c.1,0,.16-.1.25-.16a3.34,3.34,0,0,1,.29-.61l-.11-.06v-.06l0,0c.16,0,0-.15.12-.15-.12,0,0,0-.05.06s-.17-.08-.09-.11h0l0-.07a2,2,0,0,0,.24,0c.06-.19,0-.38.08-.56.1.07,0-.14.2,0,0-.14-.16,0-.26-.14s0-.09,0-.07.12,0,.13,0v-.08a0,0,0,0,1,0,0c0-.2.22-.24.17-.43-.07,0,0,.05-.11,0-.08-.19.17-.09.12-.25l.08.06c-.05-.07-.12-.11,0-.16s.07.09.11.14,0-.18-.08-.18.09-.06.13-.08-.09,0-.13,0a.53.53,0,0,0,.16-.28l.08,0C57.26,41.44,57.51,41.52,57.51,41.4Z"/><path class="cls-4" d="M57.43,35.9v0h.08Z"/><path class="cls-4" d="M57.41,37.83l0,0Z"/><path class="cls-4" d="M57.58,38.31s0,0-.08,0Z"/><path class="cls-4" d="M57,34.86h0Z"/><path class="cls-4" d="M56.33,32l0,0Z"/><path class="cls-4" d="M56.21,32.19l0,0S56.23,32.19,56.21,32.19Z"/><path class="cls-4" d="M57.13,35.57l0,0S57.15,35.57,57.13,35.57Z"/><path class="cls-4" d="M56.27,32.24v0h0Z"/><path class="cls-4" d="M56.32,31.92a.43.43,0,0,1,0,0S56.34,31.93,56.32,31.92Z"/><path class="cls-4" d="M56.64,33.83Z"/><polygon class="cls-4" points="56.52 32.34 56.52 32.35 56.55 32.35 56.52 32.34"/><path class="cls-4" d="M56.3,31.73h0v0Z"/><path class="cls-4" d="M56.66,33.19h-.1S56.59,33.21,56.66,33.19Z"/><path class="cls-4" d="M48.22,27.89s0,0,0,0Z"/><path class="cls-4" d="M51.11,32.66l0-.06Z"/><path class="cls-4" d="M45.52,25.84h0l-.21-.11Z"/><path class="cls-4" d="M48.32,43.63l0-.05Z"/><path class="cls-4" d="M51.46,37.45s0,.06,0,.09A.13.13,0,0,0,51.46,37.45Z"/><path class="cls-4" d="M44,24.76l.09,0S44.06,24.78,44,24.76Z"/><path class="cls-4" d="M40.51,24.22h0A0,0,0,0,0,40.51,24.22Z"/><path class="cls-4" d="M41.87,24.44H42S41.87,24.43,41.87,24.44Z"/><path class="cls-4" d="M42,24.45h0Z"/><path class="cls-4" d="M38.9,24.74a1,1,0,0,0,.26-.07Z"/><path class="cls-4" d="M38.69,47.24h0S38.69,47.24,38.69,47.24Z"/><path class="cls-4" d="M39,24.51h0Z"/><path class="cls-4" d="M45.76,25.47c.1,0,.27.15.28.13S45.82,25.46,45.76,25.47Z"/><path class="cls-4" d="M36.18,47.55l-.06,0Z"/><polygon class="cls-4" points="39 24.5 38.91 24.51 38.94 24.52 39 24.5"/><polygon class="cls-4" points="30.21 40.73 30.21 40.74 30.23 40.76 30.21 40.73"/><path class="cls-4" d="M30,40.18l0,.12A.52.52,0,0,0,30,40.18Z"/><path class="cls-4" d="M39.16,24.67l.16,0Z"/><path class="cls-4" d="M29.37,34V34A.13.13,0,0,1,29.37,34Z"/><path class="cls-4" d="M51.54,37v0S51.54,37,51.54,37Z"/><polygon class="cls-4" points="50.76 41.51 50.76 41.52 50.76 41.52 50.76 41.51"/><path class="cls-4" d="M50.85,41.28a.84.84,0,0,0-.09.23A.69.69,0,0,0,50.85,41.28Z"/><path class="cls-4" d="M50.49,42l0,0Z"/><polygon class="cls-4" points="52.21 37.27 52.21 37.27 52.21 37.27 52.21 37.27"/><path class="cls-4" d="M52,38.26l0,.06A.33.33,0,0,0,52,38.26Z"/><polygon class="cls-4" points="49.06 44.01 49.06 44.01 49.06 44.01 49.06 44.01"/><path class="cls-4" d="M40.82,48.33c.48-.06,1-.13,1.57-.25s1.08-.26,1.52-.44a5.59,5.59,0,0,1,.73-.35l.06.05a1,1,0,0,0,.22-.13c.1,0-.17.1,0,0l.06-.08s.59-.28.23,0a9,9,0,0,0,.87-.46c.19-.12.08-.12.29-.23,0,0-.06.06,0,.07.63-.35.63-.55,1.16-.95l0,0c.08-.09.25-.22.25-.23s-.07.11-.26.2c0,0,.18-.18.14-.21a1.45,1.45,0,0,0,.29-.25c.2-.12.41-.38.57-.46a2.34,2.34,0,0,1,.29-.39c.16-.09,0,.06.19-.1v0c.12-.15.11-.12.12-.1a2.83,2.83,0,0,1,.26-.35l-.07.13c.12-.15.17-.21.35-.41,0,0-.06.1-.12.15.13-.08.15-.2.2-.26s-.15.15-.12.06a2.89,2.89,0,0,1,.23-.3l-.06.14a1.67,1.67,0,0,1,.25-.41s0,0,0,0a4.18,4.18,0,0,1,.43-.63l0,.05a1.78,1.78,0,0,0,.1-.23c-.1.14-.09.09-.12.09.16-.17.11-.33.31-.63,0,0,0,.1-.07.18a.86.86,0,0,1-.06.38c.05-.13.12-.28.13-.23l0-.07.11-.19s-.13.13-.06,0,.11-.08.1-.12c.13-.27,0-.14.16-.38a.3.3,0,0,1,0,.1c.13-.17.2-.47.29-.5a.2.2,0,0,1,0,.12h0c0,.24.06-.18.09-.09s.08-.26.14-.38l0,0c.06-.45.06.05.21-.36.09-.26,0,.1,0-.07a1.77,1.77,0,0,0,.18-.5c0-.07.11-.21.15-.21a3.65,3.65,0,0,0,.15-.59,4.43,4.43,0,0,1-.19.59V39a6.48,6.48,0,0,0,.17-.66s0,0,0,0c.05-.32,0-.42.09-.73,0,0,0,.14,0,.28.06-.2,0-.21.11-.53,0,0,0,.21,0,.26l.05-.35h0c0-.06,0-.27,0-.49a3.14,3.14,0,0,0-.07-.87c0-.08,0-.1,0-.07s0,.1,0,.15c0-.18,0-.38.07-.29,0-.27,0,.1,0-.06l0-.38c0,.05,0,.18-.06,0s0-.25,0-.46c0,0,0-.07,0,.09a.83.83,0,0,0,0-.33c0,.24-.09-.37-.1-.19l0-.24c0,.06,0,.06,0,.14S52,34.07,52,34a2.24,2.24,0,0,1,0-.31,1.11,1.11,0,0,1,0-.29c0-.1,0,0,0,0l-.1-.36s.07-.07.1,0c-.06-.13-.08,0-.14-.23.08.1,0-.29.06-.13a2.33,2.33,0,0,0-.2-.64c-.08-.1,0,.2,0,.2-.21-.49-.3-.49-.45-.86l0,.1a1.86,1.86,0,0,0-.2-.3c.07,0,0-.31-.2-.67,0,0,.06.23,0,.18s-.09-.15-.14-.23,0,0,0,0c-.14-.19-.18-.41-.26-.44l-.07-.25,0,.1s-.18-.24-.22-.28a1.7,1.7,0,0,1-.29-.44c0,.05.05.17-.09,0,.07,0-.24-.38-.21-.4s-.14-.2-.17-.19l.05,0c-.06,0-.27-.21-.44-.39.1,0-.18-.19-.2-.33-.08,0-.33-.28-.4-.27s-.08-.16-.1-.21l-.08,0a3.42,3.42,0,0,0-.47-.47l-.18-.08,0-.07s-.16-.1-.09,0l-.09-.07s-.12-.08-.3-.19,0,0,0,0,0-.06-.07-.11-.37-.12-.15.06c0,0-.15,0-.23-.11l0-.08-.13,0c-.14-.08-.18-.15-.29-.22.12.07.31.07,0-.12a1.87,1.87,0,0,0,.34.16c-.06,0-.09-.06,0,0-.24-.13-.1,0-.33-.16,0,0,0-.09-.22-.22l.14.12h0s.07.05.07.08-.31-.1-.33-.14c.2.19-.44-.17-.31,0a.61.61,0,0,1-.21-.12c.22.07-.12-.13-.08-.14s.14.11,0,.08L45,25.16h0l-.18-.1s.17.11,0,.05-.23-.09-.21-.1,0-.06.2,0c-.12-.05-.52-.21-.38-.1l-.15-.06c.09.06.34.2,0,.08h0l-.22-.05-.08-.06s0,0-.12,0-.09-.05-.07-.07c-.23-.07-.22,0-.26,0s-.17-.06-.1-.07c-.18-.06-.49-.15-.6-.2s0,0-.11,0a4.42,4.42,0,0,0-1.19-.24c.1.09-.11,0-.19.06.09,0-.38-.09,0-.08h-.22c-.14-.05.36,0,.14-.07a5.28,5.28,0,0,1-.69,0c.1-.05-.22,0-.14-.05a.77.77,0,0,1,.22,0h-.05c-.53,0-.16.06-.44.1s-.25,0-.27-.06a1.1,1.1,0,0,0-.3,0c.2,0,.37,0,.28,0a1.49,1.49,0,0,0-.57,0c.46.06.32,0,.75.06.06,0,0-.07.31-.06-.16,0,0,0,.06,0s.18,0,.25,0-.15.05.11.09l.05-.07c.1,0-.05.05.17.05-.12,0,0,.06-.26,0a2.46,2.46,0,0,0,.81,0h-.06a1,1,0,0,1,.24,0c.18,0-.14,0-.1,0a2.89,2.89,0,0,1,.29,0h0a.32.32,0,0,1,.17,0,1.68,1.68,0,0,1-.18,0h.3s.24.09,0,.07l.44.07,0,.05c.11,0,.12,0,0,0,.15,0,.67.11.57.17a4.25,4.25,0,0,1,.87.24c-.31-.09.33.19,0,.08a2.79,2.79,0,0,0,.39.12c.13.07,0,.09-.11,0l.19.06h0l.16,0c.15.09,0,0,.18.14l0,0,.1.08s.06,0,.18.06h0l.14.07c-.15-.05.13.08.05.07a2.59,2.59,0,0,0,.34.17l0,0c.29.13,0,0,.21.18v0c.28.25.55.32.76.5-.14-.08-.13,0-.12,0,.21.1.49.37.71.49,0,.09.05.11.23.29s.16.13.22.15.38.34.36.38.11.11.2.16v0l0,0c.16.27.38.36.54.64l0,0,.1.09s0,0-.06,0a4.45,4.45,0,0,1,.38.48l0-.11a1.64,1.64,0,0,1,.23.28c-.19-.17.12.17.11.22l-.09-.09c.11.14.11.14.13.11.15.18.05.16.19.32l-.08-.13c0-.05.07,0,.13.12s0,.09,0,0c.11.15.24.4.29.46s0,.07,0,0a3.06,3.06,0,0,1,.3.49h0l.08.11,0,.2v-.08c.06.12.11.18.17.32l-.06,0c.19.32.12.41.29.71l0-.05c.16.29,0,.25.21.53,0,0,0,0,0,0l.06.14h0l.09.09,0,.1,0,0c0,.17.09.37.09.59l0-.05a6.72,6.72,0,0,1,.23,1.86h0l.06.26c0,.14,0-.08,0,0,0,.28.08.12.07.45,0,.17,0-.06,0-.14a9.46,9.46,0,0,1-.05,1h0a3.47,3.47,0,0,1-.1.7s0-.06,0-.12a1.32,1.32,0,0,0-.05.26v-.09a2.47,2.47,0,0,1-.12.54s.06,0,0,.15-.09.4-.19.63c0,0,0-.21,0-.16a1,1,0,0,0-.06.33l0,0a3.17,3.17,0,0,1-.15.55c-.09.06-.2.5-.23.45-.08.19.09-.15,0,.09,0,.06-.08.22-.11.2v0l-.07.17v-.12a.51.51,0,0,0,0,.28,2.87,2.87,0,0,1-.24.35l0-.05c-.19.36-.4.55-.54.84,0,0,0,0,0,0l-.15.21V42l-.2.37h0a9.67,9.67,0,0,1-.65.84l0-.05c-.23.32-.25.28-.43.51l0,0-.19.18,0-.05a1.59,1.59,0,0,1-.32.28,1.54,1.54,0,0,0-.18.27c-.2.2-.07,0-.2.14s-.17.17-.39.33v0l-.29.26,0,0c-.21.21-.31.19-.46.37s-.29.19-.31.15a5.25,5.25,0,0,1-.83.56c-.08,0-.06,0-.27.11l0,0a12.64,12.64,0,0,1-1.54.58l0,0-.1.08a12.83,12.83,0,0,1-1.8.37,3.43,3.43,0,0,1-.63.13h0a12.13,12.13,0,0,1-1.36,0s0,0,0,0a1.17,1.17,0,0,1-.38,0l.12,0a.85.85,0,0,1-.39-.07l-.21,0,0,0h0l-.1,0a2.72,2.72,0,0,0-.43,0s-.2-.07,0-.05a6.33,6.33,0,0,1-.75-.19l.11,0s-.22,0-.33-.07c.15,0,0,0,0-.08s.07.05,0,.06a1.89,1.89,0,0,1-.47-.14l.08,0c-.18,0-.23-.13-.39-.2s-.26-.11-.25,0c-.22-.09-.07-.08-.13-.11a1.1,1.1,0,0,1-.42-.21c-.15,0-.53-.33-.61-.29l-.14-.13s-.07,0-.2,0-.07-.11-.09-.15h-.12a13,13,0,0,1-2.11-1.91,8.21,8.21,0,0,1-.91-1.06l0,0-.26-.4.17.3c-.06-.08-.12-.13-.18-.22-.26-.45-.59-1-.89-1.62-.25-.34-.06-.27-.25-.62,0,0,0,0,.05.06-.17-.39-.3-.59-.45-1,.09,0-.07-.27,0-.24l0,0c0-.1-.06-.31,0-.29l-.09-.17,0,0a3.73,3.73,0,0,1-.12-.91,9.55,9.55,0,0,1-.14-1.11c0-.42,0-.86.06-1.24a2.38,2.38,0,0,1,0-.51l.06-.18a1.57,1.57,0,0,1,.06-.54v0a3.12,3.12,0,0,0,.08-.52c0-.2.13-.37.15-.31s.13-.4.13-.4l.14-.42c.12-.26.26-.65.48-1.09a12.07,12.07,0,0,1,2.19-3.09A11.77,11.77,0,0,1,36,25.7a16.18,16.18,0,0,1,2.91-1c.08,0,.31-.1.22-.12.18,0,.27,0,.3,0-.25,0,.07-.09-.17-.1l.15,0s-.21.05-.17,0l0,.07a.85.85,0,0,1-.25,0,.91.91,0,0,1-.47.13h.08c-.23,0-.15,0-.2,0H38.2c.15,0,.39-.08.26-.06s.07,0-.13,0-.1,0-.1,0L38,24.6s.15,0,.06,0l-.29.09c-.07,0-.3.11-.45.08.2-.07,0,0,0-.05a2.46,2.46,0,0,0-.51.15c-.05,0,.13-.07,0,0s-.14.07-.19.09-.38.13-.38.08c-.35.09-.12.09-.44.2-.05,0,.24-.11.09-.08l-.31.16a.37.37,0,0,1,.17-.13,8.38,8.38,0,0,0-2.11,1c-.12,0,.06-.07.12-.14-.48.42-.78.44-1.18.82v0a9.37,9.37,0,0,0-1.78,1.78l.08-.07a2.66,2.66,0,0,1-.24.38s0-.11-.13.09c0,0,.12-.11.11-.08a11.43,11.43,0,0,0-1.73,3,12,12,0,0,0-.73,5c0-.24.06-.14.06,0a6.07,6.07,0,0,0,.12,1.4,9.8,9.8,0,0,0,.82,2.52l0,0c0,.12.08.14.14.27h0c.14.29.33.64.42.8h0c.1.16,0,.1.14.26h0l.15.18c-.07,0,.27.47.35.6s.44.58.68.86a6.4,6.4,0,0,0,.51.66l.72.7.87.72v0l.16.12s0,0,0,0,.37.23.48.34c-.06-.08-.1-.08-.19-.14s0,0,.19.08h0l.13.06s.1.12.09.16a13.61,13.61,0,0,0,1.53.76c-.08,0,.43.18.29.19.37.13,0-.08.14-.05s.21.08.22.11.07.06,0,0l.25.08h-.06a10.23,10.23,0,0,0,1.36.4s-.18-.05-.14-.06c.48,0,.4.14.85.18l-.1,0a1.5,1.5,0,0,1,.45,0s-.2,0-.32,0c.16,0,.58.06.45,0a1.61,1.61,0,0,1,.37.07s-.18,0-.06-.05a4.59,4.59,0,0,0,1,.05s0,0,0,0C40.49,48.26,40.46,48.35,40.82,48.33Z"/><path class="cls-4" d="M52.23,37.14a.69.69,0,0,1,0,.13s0,0,0,.07A1.34,1.34,0,0,0,52.23,37.14Z"/><path class="cls-4" d="M50,42.79l0,0A.06.06,0,0,0,50,42.79Z"/><path class="cls-4" d="M49.11,44c.06-.09,0,0,0,0S49.07,44,49.11,44Z"/><path class="cls-4" d="M52,33.68l0,0S52,33.67,52,33.68Z"/><path class="cls-4" d="M46.67,26l0,0Z"/><path class="cls-4" d="M47.07,26.35l.09.06A.24.24,0,0,0,47.07,26.35Z"/><path class="cls-4" d="M52.22,36v.1A.29.29,0,0,0,52.22,36Z"/><polygon class="cls-4" points="47.25 26.47 47.35 26.56 47.36 26.55 47.25 26.47"/><path class="cls-4" d="M46.53,25.91l.14.1Z"/><path class="cls-4" d="M50.69,30.43h0C50.77,30.52,50.73,30.47,50.69,30.43Z"/><polygon class="cls-4" points="47.75 26.78 47.76 26.8 47.8 26.81 47.75 26.78"/><path class="cls-4" d="M46,25.6l.07,0-.07,0A0,0,0,0,1,46,25.6Z"/><path class="cls-4" d="M49.63,28.74l-.06,0S49.62,28.77,49.63,28.74Z"/><path class="cls-4" d="M50.91,24.69h0Z"/><path class="cls-4" d="M54.94,31.32l0-.09A.25.25,0,0,0,54.94,31.32Z"/><path class="cls-4" d="M47.15,21.86h0l-.29-.16Z"/><path class="cls-4" d="M51,46.54a.46.46,0,0,0,.07-.07Z"/><path class="cls-4" d="M55.43,38a.31.31,0,0,1,0,.13C55.44,38,55.45,38,55.43,38Z"/><path class="cls-4" d="M45,20.36l.13.08S45.12,20.39,45,20.36Z"/><path class="cls-4" d="M40.17,19.62h0Z"/><path class="cls-4" d="M42.06,19.92h.14A.37.37,0,0,0,42.06,19.92Z"/><path class="cls-4" d="M42.27,19.94h0Z"/><path class="cls-4" d="M37.94,20.34a1.43,1.43,0,0,0,.37-.09Z"/><path class="cls-4" d="M37.66,51.54l0,0S37.65,51.53,37.66,51.54Z"/><path class="cls-4" d="M38.08,20h0Z"/><path class="cls-4" d="M47.47,21.34c.15,0,.39.21.4.18S47.55,21.33,47.47,21.34Z"/><path class="cls-4" d="M34.17,52l-.09,0Z"/><path class="cls-4" d="M38.08,20H38Z"/><polygon class="cls-4" points="25.85 42.53 25.85 42.54 25.87 42.56 25.85 42.53"/><path class="cls-4" d="M25.56,41.76l.08.16A.76.76,0,0,0,25.56,41.76Z"/><path class="cls-4" d="M38.31,20.25l.21-.05Z"/><path class="cls-4" d="M24.67,33.14l0,.08S24.66,33.16,24.67,33.14Z"/><path class="cls-4" d="M55.54,37.34l0-.07S55.54,37.27,55.54,37.34Z"/><polygon class="cls-4" points="54.44 43.61 54.44 43.61 54.44 43.61 54.44 43.61"/><path class="cls-4" d="M54.57,43.29a1.2,1.2,0,0,0-.13.32A1,1,0,0,0,54.57,43.29Z"/><path class="cls-4" d="M54.07,44.26l0,0Z"/><polygon class="cls-4" points="56.48 37.71 56.47 37.71 56.47 37.72 56.48 37.71"/><path class="cls-4" d="M56.23,39.09a.46.46,0,0,0,0,.09Z"/><polygon class="cls-4" points="52.08 47.07 52.08 47.07 52.07 47.08 52.08 47.07"/><path class="cls-4" d="M40.62,53.06c.66-.09,1.43-.18,2.18-.35s1.49-.36,2.11-.62a6.65,6.65,0,0,1,1-.47l.08.07a3,3,0,0,0,.3-.18c.14,0-.23.14,0,.06l.09-.12s.82-.38.32-.06c.41-.21.83-.39,1.21-.63s.11-.16.41-.32c.07,0-.1.08-.05.09.88-.48.88-.76,1.62-1.31l-.05.05c.1-.11.34-.3.34-.31-.16,0-.1.14-.36.28,0-.08.25-.26.2-.29a3.46,3.46,0,0,0,.4-.35c.28-.16.57-.52.79-.64a3.26,3.26,0,0,1,.41-.55c.22-.12,0,.09.25-.13v-.07c.18-.2.16-.16.17-.14.19-.22.11-.22.37-.48l-.1.18c.16-.21.24-.29.48-.57,0,0-.08.13-.16.21.19-.11.2-.28.28-.36s-.21.2-.16.08.2-.34.32-.42a1.63,1.63,0,0,1-.09.19,3.44,3.44,0,0,1,.34-.55s0,0,0,0a5.08,5.08,0,0,1,.6-.87l0,.07c.08-.15.1-.25.14-.32-.14.19-.13.12-.17.12.23-.23.15-.46.44-.88,0,0,0,.14-.11.25a1.06,1.06,0,0,1-.08.54c.08-.18.18-.39.18-.33l0-.09.14-.26c0-.06-.18.17-.07-.08s.14-.1.13-.16c.18-.38,0-.19.23-.53a.59.59,0,0,1-.06.14c.18-.23.28-.65.4-.69a.24.24,0,0,1,0,.17h0c-.06.32.09-.26.12-.13s.12-.37.2-.54l-.07,0c.09-.63.08.07.3-.5.12-.37-.07.13,0-.1a3.31,3.31,0,0,0,.25-.69c0-.1.14-.3.2-.3a4.23,4.23,0,0,0,.21-.81c-.16.37,0,.39-.26.82l0-.14c.1-.31.2-.7.25-.92,0,0,0,.06-.05,0a8.28,8.28,0,0,1,.13-1c.06,0,0,.21,0,.39a5.1,5.1,0,0,0,.16-.72c.05,0-.06.29,0,.35l.07-.49h0c-.06-.08,0-.37,0-.67a4.14,4.14,0,0,0-.1-1.22c0-.1,0-.14.06-.09s0,.14,0,.2c0-.24.06-.52.1-.39,0-.38,0,.14-.07-.09l0-.53c0,.07,0,.25-.08,0s0-.33,0-.63c0,0,.05-.1.06.13a1,1,0,0,0-.06-.46c0,.33-.12-.52-.14-.27l0-.32c0,.07,0,.07,0,.18,0-.1-.06-.26-.09-.37a2.5,2.5,0,0,1,0-.43,1.77,1.77,0,0,1-.07-.4c0-.14,0,0-.07,0l-.13-.5s.1-.1.13,0c-.08-.18-.11,0-.19-.33.11.15-.05-.39.09-.18a3.1,3.1,0,0,0-.29-.88c-.11-.14.08.28,0,.28-.3-.69-.42-.69-.63-1.19l0,.13a2.11,2.11,0,0,0-.28-.42c.1.06,0-.43-.28-.92,0,0,.09.31,0,.25a2.07,2.07,0,0,0-.19-.32s0,0,.06,0c-.2-.27-.25-.57-.37-.62l-.1-.34,0,.14c-.05,0-.25-.34-.31-.39a2.06,2.06,0,0,1-.41-.61c0,.07.07.24-.12,0,.09-.06-.34-.53-.29-.55s-.2-.28-.24-.26l.07,0c-.09,0-.38-.3-.62-.54.14,0-.25-.27-.27-.46-.11,0-.47-.39-.56-.38C51,24,51.05,24,51,23.9l-.11-.06a3.81,3.81,0,0,0-.64-.66L50,23.07,50,23c-.05,0-.23-.14-.14,0l-.11-.1c-.06.06-.18-.11-.43-.26-.05,0,0-.05,0,0-.12-.08,0-.08-.09-.15s-.53-.17-.22.08c0,0-.2-.06-.31-.15l0-.11-.19,0a3.54,3.54,0,0,1-.39-.31c.15.09.42.1,0-.16.22.13.35.16.46.22-.08-.06-.12-.09,0,0-.33-.19-.13,0-.45-.23.05-.05,0-.12-.3-.29l.19.16h0c.08.05.1.07.1.1a2.11,2.11,0,0,1-.46-.19c.28.26-.62-.24-.43-.07a.68.68,0,0,1-.29-.16c.3.1-.17-.18-.11-.2-.11,0,.2.16,0,.11a3.15,3.15,0,0,1-.36-.24l.07,0-.25-.13c-.06,0,.23.15,0,.07-.06,0-.31-.13-.29-.15s.07-.08.29,0c-.18-.06-.74-.28-.53-.13l-.21-.09c.12.08.46.27,0,.11h0l-.3-.07-.11-.08s-.06,0-.17,0-.12-.07-.1-.09c-.33-.09-.31,0-.36,0s-.24-.08-.15-.09c-.24-.08-.67-.21-.83-.28-.34,0,.07,0-.14,0a5.83,5.83,0,0,0-1.66-.33c.14.12-.16,0-.27.09.13,0-.52-.13,0-.11l-.3,0c-.2-.07.5,0,.2-.1a7.79,7.79,0,0,1-1,0c.14-.07-.3,0-.2-.05a1,1,0,0,1,.31,0l-.07,0c-.74,0-.22.09-.61.14s-.35-.05-.38-.08a1.49,1.49,0,0,0-.41,0c.27-.05.51,0,.38.08a1.8,1.8,0,0,0-.78,0c.64.08.44,0,1,.08.08,0,.07-.1.43-.08-.23,0,0,0,.07.05s.25,0,.36,0-.22.08.14.13l.08-.09c.14,0-.07.07.23.07-.16,0,.05.08-.36.06a3.33,3.33,0,0,0,1.13,0l-.09,0a1.28,1.28,0,0,1,.34,0c.24.06-.2,0-.14.06a2.57,2.57,0,0,1,.4.06,0,0,0,0,1,0,0,.41.41,0,0,1,.23,0l-.25,0h.42c-.05,0,.33.12,0,.09l.62.1,0,.08c.15,0,.16,0,0,0,.2,0,.93.15.79.24a6.84,6.84,0,0,1,1.21.32c-.44-.11.45.27,0,.12a2.88,2.88,0,0,0,.54.16c.18.1.06.13-.15.07l.25.07h0l.23,0c.21.13,0,.08.24.19l.08,0,.13.11s.09,0,.25.08h0l.2.1c-.21-.07.17.1.06.09l.47.24,0-.06c.41.18,0,.05.29.24v-.05c.39.35.76.44,1.05.7-.19-.12-.18,0-.16-.05.29.15.68.52,1,.68.06.13.07.16.32.4s.22.19.31.21c.16.19.52.48.5.52s.15.16.27.23v0l0,0c.23.37.53.5.76.89l-.06-.05.14.13s-.06,0-.09,0a6.88,6.88,0,0,1,.54.67l-.08-.15a2.57,2.57,0,0,1,.32.39c-.26-.23.17.23.16.31L52.77,27c.16.2.16.2.18.16.21.25.07.22.27.45l-.11-.18c0-.07.1,0,.17.16s0,.13,0,0c.15.21.33.55.4.64s0,.1,0,0a5.92,5.92,0,0,1,.42.68h0l.11.15.07.26v-.1c.08.16.15.26.23.45l-.08-.06c.26.44.17.56.4,1,0,0,0,0-.05-.07.22.39.06.34.29.73,0,0,0,0,0,0l.08.18H55l.11.14v.14l0,.06c0,.24.12.51.12.82l.05-.07a9.38,9.38,0,0,1,.33,2.58h0l.08.36c0,.2,0-.12-.08-.05,0,.39.12.16.1.62,0,.24,0-.08,0-.19a13.67,13.67,0,0,1-.06,1.37v0a4.83,4.83,0,0,1-.14,1s0-.09,0-.17a2.83,2.83,0,0,0-.06.37l0-.13a3.68,3.68,0,0,1-.16.75s.07,0,0,.2-.13.56-.27.88a1.2,1.2,0,0,1,0-.22,1.52,1.52,0,0,0-.1.46v0a5.07,5.07,0,0,1-.22.76c-.12.08-.28.69-.31.62-.12.26.12-.21,0,.13-.07.07-.11.3-.15.27v0l-.1.23,0-.17c-.07.21-.11.37-.07.39a5.69,5.69,0,0,1-.33.49l0-.07c-.27.51-.55.77-.75,1.17,0,0,0,0,0,0l-.2.29v-.09l-.28.51,0,0c-.21.32-.59.79-.9,1.17l0-.07a8.89,8.89,0,0,1-.6.7s0,0,0,0l-.25.25,0-.07c-.15.22-.59.47-.44.39a2.15,2.15,0,0,0-.26.38c-.28.27-.1,0-.28.19a6.07,6.07,0,0,1-.54.45v0c-.13.11-.23.19-.4.35l0-.05c-.28.29-.42.26-.63.52-.15.07-.41.26-.43.2a8.62,8.62,0,0,1-1.15.78c-.12,0-.1.05-.39.14l0,0a16.23,16.23,0,0,1-2.13.81l0,0-.13.11a18.22,18.22,0,0,1-2.5.51,4.73,4.73,0,0,1-.88.17h0a14.62,14.62,0,0,1-1.89,0s0,0,0,0a1.3,1.3,0,0,1-.52-.05l.16.06a1.18,1.18,0,0,1-.54-.1l-.29,0-.05,0H37.6l-.15-.07a3.3,3.3,0,0,0-.58,0s-.29-.1-.08-.06c-.35-.1-.71-.14-1-.27l.15.07s-.31,0-.46-.09c.22,0,0-.06,0-.12s.11.08,0,.08a3.09,3.09,0,0,1-.65-.18l.11,0a2.59,2.59,0,0,1-.55-.28c-.22,0-.35-.15-.34-.06-.3-.11-.09-.09-.19-.14a1.37,1.37,0,0,1-.58-.3c-.21,0-.73-.45-.84-.39l-.2-.18s-.1.06-.28-.06-.09-.15-.13-.21h-.16a17.56,17.56,0,0,1-2.94-2.63,11.8,11.8,0,0,1-1.27-1.47l.06,0-.37-.55.25.41a3.48,3.48,0,0,1-.26-.3c-.37-.62-.83-1.46-1.24-2.25-.35-.47-.09-.38-.36-.86l.07.08c-.23-.54-.41-.82-.62-1.37.13,0-.1-.38,0-.34l-.06,0c0-.13-.08-.43,0-.4l-.13-.24.05,0a5.42,5.42,0,0,1-.17-1.26,13.47,13.47,0,0,1-.19-1.54,15.88,15.88,0,0,1,.08-1.72,4.62,4.62,0,0,1,0-.71l.09-.25a2.27,2.27,0,0,1,.09-.75v0a4.7,4.7,0,0,0,.12-.72c.05-.28.18-.52.2-.43s.19-.56.19-.56l.19-.58c.17-.36.36-.9.68-1.52a16.37,16.37,0,0,1,3-4.27,16,16,0,0,1,4.81-3.38,16.62,16.62,0,0,1,2.32-.87l1-.29c.29-.06.55-.12.76-.18s.44-.13.31-.17c.25-.05.37,0,.42,0-.35,0,.1-.13-.25-.15l.22,0s-.29.08-.24,0l-.06.1A1.34,1.34,0,0,1,38,20a1.31,1.31,0,0,1-.66.18l.11,0c-.32,0-.2,0-.27,0H37c.21,0,.54-.11.36-.08-.39,0,.11,0-.18.05s-.14,0-.14-.05l-.32.08s.22,0,.08-.06l-.39.13c-.1-.08-.43.15-.64.1.29-.09,0,0,0-.07a4,4,0,0,0-.7.21c-.07,0,.17-.09.06-.05s-.2.1-.27.12-.52.18-.52.11c-.49.13-.18.13-.61.29-.08,0,.33-.16.12-.12L33.4,21a.42.42,0,0,1,.23-.17,11.6,11.6,0,0,0-2.93,1.36c-.16.06.08-.1.16-.2-.66.59-1.08.62-1.64,1.14l0,0a12.53,12.53,0,0,0-2.48,2.46l.11-.1a5.1,5.1,0,0,1-.33.53s0-.16-.18.12c.05-.05.15-.15.14-.11a15.92,15.92,0,0,0-2.4,4.21,16.36,16.36,0,0,0-1,6.88c0-.35.08-.21.07.05a2.82,2.82,0,0,0,0,1,4.59,4.59,0,0,1,.15,1c.12.64.32,1.23.45,1.82a9.42,9.42,0,0,0,.69,1.68l0,0a3.35,3.35,0,0,0,.2.37h0c.19.41.45.89.58,1.12l.05,0c.14.23,0,.14.2.36h0l.2.25c-.09,0,.38.65.49.83s.61.8.95,1.19c0,.1.45.59.7.92l1,1c.38.34.81.66,1.2,1l0-.05.22.15s0,0,0,0c.13.17.52.32.68.48-.09-.12-.15-.11-.28-.2s0-.08.27.11h0l.18.09s.13.17.13.22a9.47,9.47,0,0,0,1,.54c.33.17.67.33,1.08.51-.1,0,.6.25.4.26.52.18,0-.11.2-.07s.29.1.31.15.09.09,0,.06l.35.1s-.05,0-.09,0a14.12,14.12,0,0,0,1.9.54c.05,0-.26-.06-.2-.08.66.07.56.19,1.18.25l-.13,0a1.77,1.77,0,0,1,.62,0c.05.06-.29,0-.45,0,.23,0,.8.07.63,0a1.87,1.87,0,0,1,.51.1s-.25-.07-.08-.07A7.65,7.65,0,0,0,39.8,53s0,0,0,0C40.15,53,40.12,53.08,40.62,53.06Z"/><path class="cls-4" d="M56.5,37.54a.47.47,0,0,1,0,.17s0,0,0,.1A2.43,2.43,0,0,0,56.5,37.54Z"/><path class="cls-4" d="M53.36,45.38l0,.06S53.36,45.39,53.36,45.38Z"/><path class="cls-4" d="M52.14,47.06c.09-.12,0,0-.07,0S52.09,47.09,52.14,47.06Z"/><path class="cls-4" d="M56.14,32.73s0,0,0,0S56.14,32.72,56.14,32.73Z"/><path class="cls-4" d="M48.74,22.1l0,0Z"/><path class="cls-4" d="M49.3,22.57l.13.08A.38.38,0,0,0,49.3,22.57Z"/><path class="cls-4" d="M56.48,35.93a.61.61,0,0,0,0,.14A.49.49,0,0,0,56.48,35.93Z"/><polygon class="cls-4" points="49.55 22.73 49.7 22.85 49.71 22.85 49.55 22.73"/><path class="cls-4" d="M48.54,22l.2.14A.61.61,0,0,0,48.54,22Z"/><path class="cls-4" d="M54.35,28.22v0C54.45,28.35,54.4,28.28,54.35,28.22Z"/><polygon class="cls-4" points="50.25 23.16 50.27 23.18 50.32 23.2 50.25 23.16"/><path class="cls-4" d="M47.87,21.52l.09,0-.09-.06Z"/><path class="cls-4" d="M52.87,25.88s-.07,0-.08,0S52.86,25.92,52.87,25.88Z"/><path class="cls-4" d="M45.24,40.35h0Z"/><polygon class="cls-4" points="45.11 40.33 45.13 40.33 45.08 40.32 45.11 40.33"/><path class="cls-4" d="M45.11,40.31c-.1,0,0,0,0,0h0Z"/><path class="cls-4" d="M45.32,40.3h0Z"/><path class="cls-4" d="M45.32,40.3Z"/><path class="cls-4" d="M45.29,40.29h0Z"/><path class="cls-4" d="M45.22,40.29h0Z"/><path class="cls-4" d="M45.27,40.29h0Z"/><path class="cls-4" d="M45.25,40.29h0Z"/><path class="cls-4" d="M45,40.31h0Z"/><path class="cls-4" d="M45.34,40.27h0Z"/><path class="cls-4" d="M45.26,40.28h0Z"/><polygon class="cls-4" points="45.12 40.29 45.19 40.29 45.12 40.29 45.12 40.29"/><polygon class="cls-4" points="45.35 40.26 45.39 40.27 45.32 40.26 45.35 40.26"/><path class="cls-4" d="M45.34,40.26h0S45.37,40.25,45.34,40.26Z"/><path class="cls-4" d="M45.31,40.25h0Z"/><path class="cls-4" d="M45.24,40.27h0Z"/><polygon class="cls-4" points="45.24 40.27 45.24 40.27 45.24 40.26 45.24 40.27"/><path class="cls-4" d="M45.24,40.27Z"/><path class="cls-4" d="M45.17,40.28h0Z"/><path class="cls-4" d="M45.17,40.27h0Z"/><polygon class="cls-4" points="45.15 40.27 45.17 40.27 45.17 40.27 45.15 40.27"/><path class="cls-4" d="M45.26,40.25h0Z"/><path class="cls-4" d="M45.24,40.26Z"/><polygon class="cls-4" points="45.23 40.23 45.22 40.23 45.23 40.23 45.23 40.23"/><path class="cls-4" d="M45.2,40.25s0,0,0,0h0Z"/><path class="cls-4" d="M45.29,40.24h0Z"/><path class="cls-4" d="M45.26,40.26Z"/><path class="cls-4" d="M45.26,40.26h0Z"/><path class="cls-4" d="M44.86,40.23h0a1.68,1.68,0,0,0,.32,0h-.08a.4.4,0,0,1-.11,0h-.17Z"/><path class="cls-4" d="M45.21,40.24h0Z"/><path class="cls-4" d="M45.22,40.25h0S45.21,40.24,45.22,40.25Z"/><path class="cls-4" d="M44.93,40.27h0Z"/><path class="cls-4" d="M45,40.27h0Z"/><path class="cls-4" d="M45.08,40.26h0Z"/><polygon class="cls-4" points="45.26 40.23 45.32 40.23 45.23 40.23 45.26 40.23"/><polygon class="cls-4" points="45.25 40.23 45.3 40.23 45.27 40.22 45.25 40.23"/><path class="cls-4" d="M44.59,39.86h0Z"/><path class="cls-4" d="M44.58,39.87h0Z"/><path class="cls-4" d="M45.24,40.07h0S45.26,40.07,45.24,40.07Z"/><path class="cls-4" d="M44.9,40h0Z"/><path class="cls-4" d="M44.65,40h0Z"/><path class="cls-4" d="M44.53,39.8h-.06S44.5,39.8,44.53,39.8Z"/><path class="cls-4" d="M45.23,40.16h0S45.18,40.16,45.23,40.16Z"/><path class="cls-4" d="M45.21,39.87h0Z"/><path class="cls-4" d="M45.26,40.15h0Z"/><path class="cls-4" d="M44.57,39.6h0Z"/><path class="cls-4" d="M45.17,39.54Z"/><path class="cls-4" d="M45.28,40.2Z"/><path class="cls-4" d="M45,40.21h0Z"/><path class="cls-4" d="M44.9,40.14Z"/><path class="cls-4" d="M45.25,40.2h0Z"/><path class="cls-4" d="M45.28,40.2h0Z"/><path class="cls-4" d="M45.27,40.2Z"/><path class="cls-4" d="M44.73,39.71h0Z"/><polygon class="cls-4" points="44.64 40.03 44.64 40.03 44.64 40.03 44.64 40.03"/><path class="cls-4" d="M44.59,40h0Z"/><path class="cls-4" d="M44.57,39.84h0a.56.56,0,0,0-.13,0h.15c-.08,0,.14,0,.11,0h0c-.18,0,0,0-.06,0h.07c-.07,0-.05,0-.05,0h0s0,0,0,0h.07c.09,0-.14,0,0,0h-.07l.28,0a1.33,1.33,0,0,0-.2,0c.09,0,0,0,0,0h.07s-.09,0-.08,0,.16,0,.07,0h0s0,0,0,0h0s0,0,.11,0h-.16s0,0,0,0h0a.81.81,0,0,1,.17,0h-.18s0,0,0,0h0a1.55,1.55,0,0,1,.21,0h.23l-.46,0h0s.12,0,0,0h0c.09,0,0,0,.07,0s0,0,0,0h.07c.08,0,0,0,0,0l.29,0H45s.2,0,.12,0h-.2s.05,0,0,0h0s0,0,0,0,0,0-.08,0h.26a.11.11,0,0,0,.06,0h.09s.05,0,0,0h0s-.1,0,0,0,0,0,0,0h.06s.05,0,0,0c.14,0,0,0,.06,0h-.17c-.05,0,0,0,0,0h0c.13,0-.1,0,0,0h-.08c.11,0,0,0,.08,0h-.13s0,0,0,0h0c.1,0,0,0,.1,0-.15,0,.07,0,0,0h.09s.06,0,0,0h-.06s.05,0,0,0,0,0,0,0,0,0,0,0h0c.07,0,0,0,.05,0H45c-.13,0,.09,0,0,0h.2c.08,0-.08,0-.1,0h.12s-.15,0-.06,0h-.1s.14,0,0,0h-.08c.22,0-.11,0,.09,0h0s0,0-.07,0h.07s.1,0,0,0h0c-.08,0,.18,0-.06,0h-.06a.74.74,0,0,1-.15,0h.21s.06,0,.07,0H45c.14,0,.05,0,.09,0h0c-.07,0,0,0,0,0h0s-.14,0-.05,0H45.1c.12,0-.1,0,.12-.05h-.48c.11,0-.17,0,0,0h-.07c.06,0,.07,0,0,0h0s0,0-.08,0h.13c-.13,0,0,0-.15,0h0s0,0,0,0h0s0,0,.07,0h0s0,0,0,0h.12a.65.65,0,0,0-.14,0c-.11,0,.11,0-.05,0h0s0,0,0,0h.09c-.11,0,0,0-.1,0s.07,0,0,0c.14,0,0,0,.09,0h-.11c.07,0-.06,0,0,0h.12c.09,0-.16,0-.13,0a.09.09,0,0,1,.06,0h0c-.08,0,0,0,0,0h-.06s.14,0,.08,0h-.14c.06,0,0,0,0,0h0c-.05,0,0,0,0,0h0s-.08,0,0,0h-.05c.05,0,.15,0,.07,0Zm0,0s0,0,0,0S44.64,39.89,44.61,39.89Zm.16.08s0,0,0,0S44.79,40,44.77,40Zm.45.21Zm0,0h0Zm0-.5h0Z"/><path class="cls-4" d="M44.68,40h0Z"/><polygon class="cls-4" points="44.54 39.8 44.54 39.8 44.53 39.8 44.54 39.8"/><path class="cls-4" d="M44.64,40.12h0Z"/><path class="cls-4" d="M45.31,40.21h0Z"/><path class="cls-4" d="M44.9,40.24h0Z"/><path class="cls-4" d="M45.09,40.22h0Z"/><path class="cls-4" d="M45.07,40.22Z"/><path class="cls-4" d="M45.23,40.19s.07,0,.05,0S45.19,40.19,45.23,40.19Z"/><polygon class="cls-4" points="44.91 40.22 44.98 40.22 44.92 40.22 44.91 40.22"/><path class="cls-4" d="M45,40.2h0S45,40.2,45,40.2Z"/><path class="cls-4" d="M45,40.21h0Z"/><polygon class="cls-4" points="44.89 40.21 44.9 40.21 44.91 40.21 44.89 40.21"/><path class="cls-4" d="M45,40.17h0Z"/><path class="cls-4" d="M44.79,40.18h0Z"/><path class="cls-4" d="M44.77,40.17s-.07,0-.06,0Z"/><polygon class="cls-4" points="44.87 40.11 44.87 40.11 45.01 40.11 44.87 40.11"/><path class="cls-4" d="M44.54,40.06s.09,0,.05,0h-.05Z"/><path class="cls-4" d="M44.65,40.07h0Z"/><polygon class="cls-4" points="45.24 39.52 45.27 39.52 45.22 39.52 45.24 39.52"/><path class="cls-4" d="M45.14,39.52h0Z"/><path class="cls-4" d="M44.44,39.9h0Z"/><polygon class="cls-4" points="44.5 39.86 44.5 39.86 44.58 39.86 44.5 39.86"/><path class="cls-4" d="M44.4,39.83h0Z"/><path class="cls-4" d="M44.64,42h0Z"/><polygon class="cls-4" points="44.52 42 44.54 42 44.48 41.99 44.52 42"/><path class="cls-4" d="M44.52,42h0Z"/><path class="cls-4" d="M44.73,42h0Z"/><path class="cls-4" d="M44.72,42Z"/><path class="cls-4" d="M44.7,42h0Z"/><path class="cls-4" d="M44.63,42h0S44.66,42,44.63,42Z"/><path class="cls-4" d="M44.68,42h0Z"/><path class="cls-4" d="M44.66,42h0Z"/><path class="cls-4" d="M44.42,42h0Z"/><path class="cls-4" d="M44.75,42h0Z"/><path class="cls-4" d="M44.67,42h0Z"/><polygon class="cls-4" points="44.52 41.97 44.6 41.98 44.52 41.97 44.52 41.97"/><polygon class="cls-4" points="44.75 41.96 44.8 41.96 44.73 41.96 44.75 41.96"/><path class="cls-4" d="M44.75,42h0S44.78,42,44.75,42Z"/><path class="cls-4" d="M44.72,42h0Z"/><path class="cls-4" d="M44.65,42h0Z"/><polygon class="cls-4" points="44.64 41.96 44.65 41.96 44.65 41.96 44.64 41.96"/><path class="cls-4" d="M44.65,42Z"/><path class="cls-4" d="M44.58,42h0Z"/><path class="cls-4" d="M44.57,42h0Z"/><polygon class="cls-4" points="44.55 41.96 44.57 41.96 44.58 41.96 44.55 41.96"/><path class="cls-4" d="M44.67,42h0Z"/><path class="cls-4" d="M44.65,42Z"/><polygon class="cls-4" points="44.64 41.94 44.63 41.94 44.64 41.94 44.64 41.94"/><path class="cls-4" d="M44.61,42s0,0,0,0h0Z"/><path class="cls-4" d="M44.69,42h0Z"/><path class="cls-4" d="M44.66,42h0Z"/><path class="cls-4" d="M44.66,42h0Z"/><path class="cls-4" d="M44.27,41.94h0s.22,0,.32,0h-.36Z"/><path class="cls-4" d="M44.62,42h0Z"/><path class="cls-4" d="M44.63,42h0Z"/><path class="cls-4" d="M44.34,42h0Z"/><path class="cls-4" d="M44.37,42h0Z"/><path class="cls-4" d="M44.48,42h0Z"/><polygon class="cls-4" points="44.66 41.94 44.73 41.94 44.64 41.94 44.66 41.94"/><polygon class="cls-4" points="44.66 41.94 44.71 41.94 44.68 41.94 44.66 41.94"/><path class="cls-4" d="M44,41.73h0Z"/><path class="cls-4" d="M44,41.74h0Z"/><path class="cls-4" d="M44.65,41.85h0Z"/><path class="cls-4" d="M44.3,41.79h0Z"/><path class="cls-4" d="M44.06,41.79h0Z"/><path class="cls-4" d="M43.93,41.7h0Z"/><path class="cls-4" d="M44.64,41.9h0Z"/><path class="cls-4" d="M44.62,41.73h0Z"/><path class="cls-4" d="M44.67,41.9h0Z"/><path class="cls-4" d="M44,41.58h0Z"/><path class="cls-4" d="M44.57,41.54h0Z"/><path class="cls-4" d="M44.68,41.92Z"/><path class="cls-4" d="M44.45,41.93h0Z"/><path class="cls-4" d="M44.31,41.89Z"/><path class="cls-4" d="M44.66,41.92h0Z"/><path class="cls-4" d="M44.68,41.92h0S44.69,41.93,44.68,41.92Z"/><path class="cls-4" d="M44.68,41.92h0Z"/><path class="cls-4" d="M44.14,41.64Z"/><polygon class="cls-4" points="44.04 41.83 44.05 41.83 44.05 41.83 44.04 41.83"/><path class="cls-4" d="M44,41.83h0Z"/><path class="cls-4" d="M44,41.72h0c-.09,0,.13,0,.11,0h0c-.19,0,0,0-.07,0h.1s-.06,0-.08,0h.15c.09,0-.14,0,0,0H44a.79.79,0,0,1,.14,0H44.1s0,0,.11,0h-.13a1.34,1.34,0,0,0,.21,0H44s.12,0,0,0h.29a2.43,2.43,0,0,0-.27,0h.4s-.07,0,0,0h-.08s0,0,0,0h.12s.13,0,.1,0h.06s0,0,0,0h0s-.1,0,0,0,0,0,0,0h0c.14,0,0,0,.06,0h-.07s0,0,0,0h0c.14,0-.09,0,0,0h-.13s0,0,0,0h0c.1,0,0,0,.11,0h0s.06,0,0,0h-.06s0,0,0,0h.2s-.15,0-.06,0h-.1s.13,0,0,0h-.08c.23,0-.11,0,.1,0h0s0,0-.07,0h.07s.1,0,0,0h0c-.08,0,.19,0-.06,0h0s.07,0,.07,0h-.15c.14,0,0,0,.09,0h0c-.07,0,0,0,0,0h-.09c.11,0-.1,0,.12,0h-.48c.11,0-.17,0,0,0h0s0,0-.08,0h0s0,0,.06,0h0c.06,0,0,0,0,0h0c-.11,0,.11,0,0,0,.14,0,.08,0,.11,0a.23.23,0,0,1,.09,0H44s.05,0,0,0h.11s0,0,0,0H44c.15,0,0,0,.1,0h0c.09,0-.17,0-.14,0h0s.07,0,.1,0,0,0,.06,0H44c.06,0,0,0,0,0h0s-.07,0,0,0h0s.15,0,.07,0Zm0,0s-.06,0,0,0S44,41.74,44,41.75Zm.16,0h0Zm.45.13h0S44.64,41.91,44.63,41.92Zm0,0h0Zm0-.29h0Z"/><path class="cls-4" d="M44.09,41.79h0Z"/><polygon class="cls-4" points="43.94 41.7 43.95 41.7 43.93 41.7 43.94 41.7"/><path class="cls-4" d="M44.05,41.88h0Z"/><path class="cls-4" d="M44.71,41.93h0Z"/><path class="cls-4" d="M44.31,42h0Z"/><path class="cls-4" d="M44.5,41.93c-.06,0,0,0,0,0h0C44.55,41.94,44.52,41.93,44.5,41.93Z"/><path class="cls-4" d="M44.47,41.94Z"/><path class="cls-4" d="M44.64,41.92h0Z"/><polygon class="cls-4" points="44.32 41.93 44.38 41.93 44.33 41.93 44.32 41.93"/><path class="cls-4" d="M44.37,41.92h0S44.39,41.92,44.37,41.92Z"/><path class="cls-4" d="M44.37,41.93h0Z"/><polygon class="cls-4" points="44.3 41.93 44.31 41.93 44.31 41.93 44.3 41.93"/><path class="cls-4" d="M44.38,41.9h0Z"/><path class="cls-4" d="M44.19,41.91h0Z"/><path class="cls-4" d="M44.17,41.9h0Z"/><polygon class="cls-4" points="44.28 41.87 44.28 41.87 44.42 41.87 44.28 41.87"/><path class="cls-4" d="M44,41.85h0Z"/><path class="cls-4" d="M44.06,41.85h0Z"/><polygon class="cls-4" points="44.65 41.54 44.67 41.54 44.63 41.54 44.65 41.54"/><path class="cls-4" d="M44.54,41.54h0S44.56,41.54,44.54,41.54Z"/><path class="cls-4" d="M43.84,41.75h0Z"/><polygon class="cls-4" points="43.91 41.73 43.91 41.73 43.99 41.73 43.91 41.73"/><path class="cls-4" d="M43.81,41.71h0Z"/><path class="cls-4" d="M46.3,41.77h0Z"/><polygon class="cls-4" points="46.18 41.75 46.2 41.75 46.14 41.75 46.18 41.75"/><path class="cls-4" d="M46.18,41.74c-.1,0,0,0,0,0h0Z"/><path class="cls-4" d="M46.39,41.73h0Z"/><path class="cls-4" d="M46.38,41.73Z"/><path class="cls-4" d="M46.36,41.72h0Z"/><path class="cls-4" d="M46.29,41.72h0Z"/><path class="cls-4" d="M46.34,41.72h0Z"/><path class="cls-4" d="M46.32,41.72h-.07S46.33,41.73,46.32,41.72Z"/><path class="cls-4" d="M46.08,41.74h0Z"/><path class="cls-4" d="M46.41,41.71h0Z"/><path class="cls-4" d="M46.33,41.71h0Z"/><polygon class="cls-4" points="46.19 41.72 46.26 41.72 46.18 41.72 46.19 41.72"/><polygon class="cls-4" points="46.41 41.7 46.46 41.7 46.39 41.7 46.41 41.7"/><path class="cls-4" d="M46.41,41.69h0Z"/><path class="cls-4" d="M46.38,41.69h0Z"/><path class="cls-4" d="M46.31,41.7h0Z"/><polygon class="cls-4" points="46.3 41.7 46.31 41.7 46.31 41.7 46.3 41.7"/><path class="cls-4" d="M46.31,41.7Z"/><path class="cls-4" d="M46.24,41.71h0Z"/><path class="cls-4" d="M46.23,41.7h0Z"/><polygon class="cls-4" points="46.22 41.7 46.23 41.7 46.24 41.7 46.22 41.7"/><path class="cls-4" d="M46.33,41.69h0Z"/><path class="cls-4" d="M46.31,41.7Z"/><polygon class="cls-4" points="46.3 41.67 46.29 41.67 46.3 41.67 46.3 41.67"/><path class="cls-4" d="M46.27,41.69h0Z"/><path class="cls-4" d="M46.35,41.68h0Z"/><path class="cls-4" d="M46.32,41.69h0Z"/><path class="cls-4" d="M46.32,41.69h0Z"/><path class="cls-4" d="M45.93,41.67h0Z"/><path class="cls-4" d="M46.28,41.68h0Z"/><path class="cls-4" d="M46.29,41.68h-.07s0,0,.06,0h0Z"/><path class="cls-4" d="M46,41.71h0Z"/><path class="cls-4" d="M46,41.71h0Z"/><path class="cls-4" d="M46.14,41.69h0S46.12,41.69,46.14,41.69Z"/><polygon class="cls-4" points="46.33 41.67 46.39 41.67 46.3 41.67 46.33 41.67"/><polygon class="cls-4" points="46.32 41.67 46.37 41.67 46.34 41.66 46.32 41.67"/><path class="cls-4" d="M45.66,41.35h0Z"/><path class="cls-4" d="M45.65,41.36h0Z"/><path class="cls-4" d="M46.31,41.53h0Z"/><path class="cls-4" d="M46,41.44h0Z"/><path class="cls-4" d="M45.72,41.44h0Z"/><path class="cls-4" d="M45.59,41.31h-.06S45.56,41.31,45.59,41.31Z"/><path class="cls-4" d="M46.3,41.61h0Z"/><path class="cls-4" d="M46.28,41.36h0Z"/><path class="cls-4" d="M46.33,41.6h0s0,0,0,0S46.37,41.6,46.33,41.6Z"/><path class="cls-4" d="M45.64,41.13h0Z"/><path class="cls-4" d="M46.23,41.07h0Z"/><path class="cls-4" d="M46.34,41.64Z"/><path class="cls-4" d="M46.11,41.65h0Z"/><path class="cls-4" d="M46,41.59Z"/><path class="cls-4" d="M46.32,41.65h0Z"/><path class="cls-4" d="M46.34,41.65Z"/><path class="cls-4" d="M46.34,41.64h0Z"/><path class="cls-4" d="M45.8,41.22Z"/><polygon class="cls-4" points="45.7 41.5 45.71 41.5 45.71 41.5 45.7 41.5"/><path class="cls-4" d="M45.66,41.5h0Z"/><path class="cls-4" d="M45.64,41.33h0c-.19,0,0,0-.06,0h-.16a1.46,1.46,0,0,1,.21,0h0c-.07,0-.05,0-.05,0h-.11s.11,0,.12,0h.13c.09,0-.14,0,0,0h0c.08,0,0,0,0,0h0s0,0,0,0h0s0,0,.11,0h-.16s0,0,0,0h0a1.34,1.34,0,0,0,.21,0H45.7s.06,0,0,0h0s.12,0,0,0h.09s-.08,0-.07,0h.4s-.07,0,0,0,.2,0,.11,0H46s0,0,0,0h0s-.05,0,0,0,0,0-.07,0h.19s-.11,0,0,0h.24s-.07,0,0,0h0s-.1,0,0,0h0c.14,0,0,0,.06,0h-.17c-.05,0,0,0,0,0h0c.13,0-.1,0,0,0s0,0,0,0h-.14c.1,0,0,0,.11,0h0s.06,0,0,0h-.06s.05,0,0,0,0,0,0,0h0c-.1,0,0,0,0,0h0c-.14,0,.08,0,0,0h.2c.08,0-.09,0-.11,0h.13s-.15,0-.06,0h-.1s.13,0,0,0h-.08c.23,0-.11,0,.1,0h0s0,0-.08,0h0s0,0-.07,0h.07s.1,0,0,0h0c-.07,0,.19,0,0,0H46a.26.26,0,0,1,.09,0h0c.13,0,0,0,.13,0s.07,0,.07,0h0s-.08,0-.07,0h0s0,0-.08,0c.14,0,0,0,.09,0s-.05,0-.05,0h.12c-.09,0,0,0-.15,0h.11c-.07,0,.05,0,0,0h-.09c.11,0-.1,0,.12-.05h-.48c.11,0-.17,0,0,0h-.07c.05,0,.07,0,0,0h0l-.08,0h0s0,0,.06,0h0c.06,0,0,0,0,0h0c-.11,0,.11,0-.05,0,.14,0,.08,0,.11,0h-.1s0,0,0,0h.07s.16,0,.09,0H45.8s0,0,0,0h-.15c.15,0,0,0,.1,0h-.11c.07,0-.06,0,0,0s.07,0,.12,0-.17,0-.14,0h.11c-.08,0,0,0,0,0h-.06s.13,0,.08,0h-.23s.11,0,.07,0h0s-.07,0,0,0h.06s-.08,0-.11,0,.15,0,.07,0S45.65,41.33,45.64,41.33Zm0,.05s0,0,0,0S45.7,41.38,45.68,41.38Zm.16.06h0Zm.45.19Zm0,0h0S46.25,41.63,46.26,41.64Zm0-.43h0Z"/><path class="cls-4" d="M45.75,41.44h0Z"/><polygon class="cls-4" points="45.6 41.31 45.6 41.31 45.59 41.31 45.6 41.31"/><path class="cls-4" d="M45.71,41.57h0Z"/><path class="cls-4" d="M46.37,41.66h0Z"/><path class="cls-4" d="M46,41.68h0Z"/><path class="cls-4" d="M46.16,41.66h0Z"/><path class="cls-4" d="M46.13,41.66Z"/><path class="cls-4" d="M46.3,41.64h0Z"/><polygon class="cls-4" points="45.98 41.66 46.04 41.66 45.99 41.66 45.98 41.66"/><path class="cls-4" d="M46,41.65h0Z"/><path class="cls-4" d="M46,41.65h0Z"/><polygon class="cls-4" points="45.96 41.66 45.97 41.66 45.98 41.65 45.96 41.66"/><path class="cls-4" d="M46,41.62h0Z"/><path class="cls-4" d="M45.85,41.62h0Z"/><path class="cls-4" d="M45.83,41.62h0Z"/><polygon class="cls-4" points="45.94 41.57 45.94 41.57 46.08 41.57 45.94 41.57"/><path class="cls-4" d="M45.61,41.53h0Z"/><path class="cls-4" d="M45.72,41.53h0Z"/><polygon class="cls-4" points="46.31 41.07 46.34 41.06 46.29 41.06 46.31 41.07"/><path class="cls-4" d="M46.2,41.06h0Z"/><path class="cls-4" d="M45.5,41.38h0Z"/><polygon class="cls-4" points="45.57 41.35 45.57 41.35 45.65 41.35 45.57 41.35"/><path class="cls-4" d="M45.47,41.33h0Z"/><path class="cls-4" d="M39.56,27.78a.42.42,0,0,0,0-.06S39.55,27.79,39.56,27.78Z"/><polygon class="cls-4" points="39.44 27.87 39.45 27.85 39.42 27.9 39.44 27.87"/><path class="cls-4" d="M39.37,27.84c0,.09,0,0,0,0v0l0-.07S39.37,27.87,39.37,27.84Z"/><path class="cls-4" d="M39.42,27.63s0,0,0,0h0Z"/><path class="cls-4" d="M39.42,27.64s0,0,0,0Z"/><path class="cls-4" d="M39.38,27.64l0,0s0,0,0,0A.09.09,0,0,0,39.38,27.64Z"/><path class="cls-4" d="M39.35,27.71v0S39.36,27.68,39.35,27.71Z"/><path class="cls-4" d="M39.38,27.67l0,0s0,0,0,0S39.37,27.69,39.38,27.67Z"/><path class="cls-4" d="M39.38,27.69s0,0,0,.06S39.4,27.68,39.38,27.69Z"/><path class="cls-4" d="M39.33,27.93v0l0,0S39.34,27.9,39.33,27.93Z"/><path class="cls-4" d="M39.35,27.57l0,.08v0S39.33,27.6,39.35,27.57Z"/><path class="cls-4" d="M39.32,27.65l0,0S39.31,27.67,39.32,27.65Z"/><polygon class="cls-4" points="39.3 27.8 39.35 27.74 39.3 27.8 39.3 27.8"/><polygon class="cls-4" points="39.31 27.55 39.34 27.51 39.3 27.57 39.31 27.55"/><path class="cls-4" d="M39.28,27.55s0-.06,0-.08l0,.05S39.29,27.52,39.28,27.55Z"/><path class="cls-4" d="M39.24,27.56l0,0Z"/><path class="cls-4" d="M39.28,27.66s0,0,0-.06l0,.06Z"/><path class="cls-4" d="M39.28,27.66Z"/><path class="cls-4" d="M39.28,27.66Z"/><path class="cls-4" d="M39.3,27.74a.29.29,0,0,0-.06.11A.6.6,0,0,1,39.3,27.74Z"/><path class="cls-4" d="M39.26,27.73v0s0,0,0-.05Z"/><polygon class="cls-4" points="39.24 27.74 39.26 27.73 39.25 27.72 39.24 27.74"/><path class="cls-4" d="M39.24,27.62l0,0s0,0,0,0S39.25,27.62,39.24,27.62Z"/><path class="cls-4" d="M39.25,27.64Z"/><polygon class="cls-4" points="39.15 27.61 39.15 27.62 39.15 27.61 39.15 27.61"/><path class="cls-4" d="M39.22,27.67h0Z"/><path class="cls-4" d="M39.22,27.58v0S39.22,27.56,39.22,27.58Z"/><path class="cls-4" d="M39.26,27.63Z"/><path class="cls-4" d="M39.26,27.63l0,0v0Z"/><path class="cls-4" d="M39,27.93c0-.05.06-.08.05,0s.09-.19.13-.28a.13.13,0,0,1,0,.06s0,.08,0,.11,0,0,0-.05-.06.08-.1.17l0,0S39,27.92,39,27.93Z"/><path class="cls-4" d="M39.17,27.63h0l0-.07,0,.05,0,0Z"/><path class="cls-4" d="M39.19,27.64a.54.54,0,0,0-.07.13s0,0,.05-.06,0,0,0-.06h0v0h0v0s0,0,0,0h0l0,0S39.18,27.64,39.19,27.64Z"/><path class="cls-4" d="M39.18,28h0Z"/><path class="cls-4" d="M39.18,27.92l0,0s0,0,0,0a.09.09,0,0,0,0-.06h0a.56.56,0,0,1,0-.1Z"/><path class="cls-4" d="M39.18,27.79l0,0v0S39.17,27.81,39.18,27.79Z"/><polygon class="cls-4" points="39.16 27.58 39.19 27.53 39.14 27.6 39.16 27.58"/><polygon class="cls-4" points="39.14 27.58 39.16 27.53 39.14 27.56 39.14 27.58"/><path class="cls-4" d="M37.53,27.5h0Z"/><path class="cls-4" d="M37.57,27.52v0Z"/><path class="cls-4" d="M38.57,27.28c0-.05,0-.12,0-.07l0,.05S38.57,27.27,38.57,27.28Z"/><polygon class="cls-4" points="38.01 27.38 38 27.39 38.03 27.34 38.01 27.38"/><path class="cls-4" d="M37.89,27.59v0Z"/><path class="cls-4" d="M37.31,27.49l0,.06S37.3,27.52,37.31,27.49Z"/><path class="cls-4" d="M38.89,27.48v0S38.87,27.52,38.89,27.48Z"/><path class="cls-4" d="M37.77,26.93s0,0,0,0Z"/><path class="cls-4" d="M38.88,27.43h0a0,0,0,0,1,0,0S38.9,27.39,38.88,27.43Z"/><path class="cls-4" d="M36.6,27.37h0Z"/><path class="cls-4" d="M36.24,26.84h0S36.25,26.83,36.24,26.84Z"/><path class="cls-4" d="M39.06,27.51Z"/><path class="cls-4" d="M39,27.73l0,0Z"/><path class="cls-4" d="M38.65,27.72Z"/><path class="cls-4" d="M39.05,27.54v0Z"/><path class="cls-4" d="M39.06,27.51h0S39.07,27.5,39.06,27.51Z"/><path class="cls-4" d="M39.05,27.51h0Z"/><path class="cls-4" d="M37,27.22h0S37,27.23,37,27.22Z"/><polygon class="cls-4" points="38.15 27.74 38.15 27.74 38.15 27.74 38.15 27.74"/><path class="cls-4" d="M38.11,27.77c0-.06,0-.05,0,0l.08-.15Z"/><path class="cls-4" d="M37.44,27.49v.05c0,.08,0,0-.06.12.07-.17.06,0,.12-.18v0h0c0,.09.05-.12.06-.09a.07.07,0,0,1,0,.06l0,0s0,0,0,0h0l.05-.08,0,0,0,0s0,.08,0,.07c-.05.18,0,0,0,.07l0,0c0,.1,0,.07,0,.13a.73.73,0,0,1,.07-.19s0,0,0,0,0,0,0,0l0,.08a.44.44,0,0,0,.06-.1s0,.08,0,.13,0-.1.06-.11,0,0,.06,0a.15.15,0,0,1,0,.07l0-.05v0s0-.08.06-.1,0,.14,0,.05a.59.59,0,0,0,0,.08l.1-.12v.06a.59.59,0,0,1,.1-.17l0-.07,0,0,0,.07v0a.24.24,0,0,1-.06.11l0-.05-.08.14h0l0,0,0,0,0,.09,0,0v.06a.81.81,0,0,1,.19-.21.68.68,0,0,0-.09.17c0-.08,0,0-.05,0a.17.17,0,0,1,0,.06L38,27.6a.27.27,0,0,0,0,.08c.06-.13.07-.07.1-.1s0,.08-.06.06.1-.13.07-.05v0s0,0,0,0h0s.07,0,.12-.06l-.08.14.22-.32a2.06,2.06,0,0,1-.19.34s0,0,0,0a.59.59,0,0,1,.06-.14c0,.11,0,.06,0,.15s.08-.15.09-.14l-.09.14.1-.12a1,1,0,0,0-.08.15s0,0,0,0v0s.12-.17.14-.15a.51.51,0,0,0-.09.18,3.12,3.12,0,0,1,.25-.35l0,0,0,0-.27.38s0,0,0,.05a.11.11,0,0,1,0,.05l0,0c0-.08.06-.07.1-.13l-.08.06c0-.08.14-.21.16-.19a1,1,0,0,1-.1.17s0,0,0,0l0,0s.08-.09.05,0,0,.11,0,.07a4.42,4.42,0,0,1,.23-.44,1.17,1.17,0,0,1,0,.15c0,.07-.1.16-.13.22l0-.05s0,.07,0,.06,0,0,0-.06,0,0,0,0a.62.62,0,0,1,.13-.19l0,.06s0,.06,0,.07a.23.23,0,0,1,0,.09s0,0,0,0,0,0-.06.09a.6.6,0,0,1,.08-.08c0-.07,0,0,0,0a1,1,0,0,1,.17-.23s0,.07,0,.06.12-.16.11-.08a1.5,1.5,0,0,1-.09.18s0-.05,0-.06v0s0,0,0,0,.06,0,.05.11a.18.18,0,0,0,0-.07h0c0-.06,0-.07,0-.1s.07-.08.07,0l0,.08s0-.05,0,0,0,.11,0,0l0-.06s.08-.1.08-.07,0,0,0-.09c0,.11,0,0-.07.1,0-.11,0-.05,0-.14s0,.05,0,0l0,0h0v0c0,.05,0,0-.07.07s0,0,0-.06l0,0c0-.05,0-.1.06-.12h0s0-.05,0,0-.05.05,0,0l0,0h0s-.09.06-.07,0,0,0,0,0l0-.05s0-.06,0,0c.05-.13,0-.06,0-.09l0,.06s0,0-.06,0l0,.05s0-.05,0-.06,0,0,0,0-.1.06-.08,0,0,0,0,0h0v0h0l0-.06h0s0,0,0,.06l0,0c0-.09,0,0,0-.08,0,0,0,0-.1.12v0s0,0,0,0l0-.08-.07.09a.42.42,0,0,1,.07-.13c-.07.08,0,0-.1.1l0-.05s-.05.06,0,0-.07,0-.07-.16c-.06.15,0-.07,0,0a.15.15,0,0,1,0-.08s0-.07-.07,0l0-.07s0,0,0,0l0,0s-.08.1-.13.19,0-.05,0,0,0-.07,0-.07,0-.07-.06,0,0,0,0,0,0,0,0,0h0c-.05.09,0,0,0,0h0c0-.08,0,0,0-.06l0,.06c-.06.12,0-.09,0-.05v0s0-.19,0-.21a0,0,0,0,1,0,0c0-.09,0,.07-.07.08s0-.1,0-.12-.09.12-.08,0a.25.25,0,0,1,0,.09s0-.14,0,0v0a.29.29,0,0,0-.08.08c.07-.21-.1.08,0-.11h0v0s0,0-.07.07a.08.08,0,0,1,0-.05c0-.05,0,0-.09.05l0-.06s0-.12-.07-.05v0c0,.07,0-.2-.11,0l0,.06s0,.1,0,.14,0-.08,0-.09h0c0-.12,0,0,0-.13s-.11-.09-.17-.1v.1h0s0-.08,0-.07,0,0,0,.06,0-.11,0-.11h0s0,.08,0,.08a.16.16,0,0,1,0-.07s0,0,0,0h0v.08s0,0,0,.08c0-.14-.1-.06-.1-.1s0,.06-.06.05,0,.1,0,.09c0-.18,0-.08,0-.21,0,.09-.05,0,0,.15s0-.07,0-.11-.08,0-.12,0,0,0,0,.09l0-.11s0,.13,0,.05,0,.05,0,.06-.14.12-.29-.07c0,0,0,0,0,.06s0,.05,0,.08l-.06-.07c0,.08,0,0,0,.1v0c0,.1.09.21.13.33,0-.11.08.15.06,0,0,0,0,0,0,.07s0-.07,0-.05v0s0,0,.09.05v-.06s0,0,0,0,0,0,0-.11c0,.13.06,0,.08.14s0-.07,0-.07v0s0,.05,0,.09h0s0,0,0,0l0,0s.07,0,.1-.07v0c0-.06,0,0,.05,0h0s0,0,0,0,0,.07,0,.11,0-.05,0-.16v.05c0-.05,0-.07,0-.08s0,.07,0,.13,0-.11,0,0c0-.13,0-.07,0-.1s0-.11,0-.09,0,.18,0,.18h0s0,0,0,0,0,0,0-.1l0,0s0-.15.05-.09a.14.14,0,0,1,0,.07s0,0,0,0,0,0-.05.1,0-.07,0,0c0-.14,0,0,.05-.09v.07a.15.15,0,0,1,0,0l0,.08c0-.07,0,.06,0,0s0-.08,0-.13,0,.17,0,.15a.1.1,0,0,1,0-.07v.07s0-.06,0-.1,0,0,0-.05v.06s0-.13,0-.07l0,.08,0,0,0,.07c0-.05,0,0,0,0s0-.11,0-.11,0,.06,0,.05,0,.09,0,0l0,.06s0,0,0,0,0,0,0,0l0-.08a.14.14,0,0,1,0,.06s0,0,0,0,0,.1,0,.13l0-.05a.22.22,0,0,1,0,.08s.06-.09.06-.05l0,0s0,.08,0,0v.09s0-.12,0-.14,0,.07,0,.1.07-.13.06-.05S37.44,27.48,37.44,27.49Zm.19,0s0,0,0,0S37.63,27.49,37.63,27.52Zm.35,0s0,0,0,0S38,27.48,38,27.5Zm1,0Zm0,0,0,0h0S39,27.57,39,27.56Zm-2-.78h0S37,26.79,37,26.78Z"/><path class="cls-4" d="M37.91,27.57v0S37.91,27.55,37.91,27.57Z"/><polygon class="cls-4" points="37.31 27.48 37.31 27.48 37.31 27.49 37.31 27.48"/><path class="cls-4" d="M38.46,27.91s0,0,0,0A.08.08,0,0,0,38.46,27.91Z"/><path class="cls-4" d="M39.12,27.51h0s0,0,0,0Z"/><path class="cls-4" d="M39,27.91s0,0,0,0l0,0A0,0,0,0,0,39,27.91Z"/><path class="cls-4" d="M39,27.71c0,.05,0,0,0,0h0C39.07,27.67,39.05,27.69,39,27.71Z"/><path class="cls-4" d="M39,27.74h0S39.05,27.73,39,27.74Z"/><path class="cls-4" d="M39,27.54s0-.06,0,0S39,27.56,39,27.54Z"/><polygon class="cls-4" points="38.96 27.87 38.98 27.81 38.96 27.86 38.96 27.87"/><path class="cls-4" d="M38.92,27.8v0s0,0,0,0S38.93,27.78,38.92,27.8Z"/><path class="cls-4" d="M38.94,27.8h0A0,0,0,0,0,38.94,27.8Z"/><polygon class="cls-4" points="38.93 27.88 38.93 27.86 38.93 27.86 38.93 27.88"/><path class="cls-4" d="M38.8,27.72h0s0,0,0,0Z"/><path class="cls-4" d="M38.75,27.9l0,0,0,.07Z"/><path class="cls-4" d="M38.7,27.9s-.05,0,0,.05S38.7,27.92,38.7,27.9Z"/><polygon class="cls-4" points="38.55 27.69 38.56 27.7 38.62 27.57 38.55 27.69"/><path class="cls-4" d="M38.22,27.89s0-.08,0,0,0,0,0-.06S38.26,27.8,38.22,27.89Z"/><path class="cls-4" d="M38.28,27.8l0,0Z"/><polygon class="cls-4" points="36.17 26.79 36.15 26.77 36.17 26.81 36.17 26.79"/><path class="cls-4" d="M36.18,26.89l0-.08,0,.08S36.17,26.87,36.18,26.89Z"/><path class="cls-4" d="M37.59,27.69v0s0,0,0,0Z"/><polygon class="cls-4" points="37.49 27.58 37.49 27.58 37.51 27.5 37.49 27.58"/><path class="cls-4" d="M37.35,27.64s0,0,0,0S37.38,27.54,37.35,27.64Z"/><path class="cls-4" d="M35.32,29.83s0,.05,0,.05Z"/><polygon class="cls-4" points="35.33 29.66 35.34 29.68 35.31 29.62 35.33 29.66"/><path class="cls-4" d="M35.41,29.58c-.07-.06,0,0-.06,0h0l.05.06S35.38,29.57,35.41,29.58Z"/><path class="cls-4" d="M35.59,29.7s0,0,0,0h0Z"/><path class="cls-4" d="M35.58,29.7s0,0,0,0Z"/><path class="cls-4" d="M35.61,29.65v0s0,0,0,0S35.64,29.67,35.61,29.65Z"/><path class="cls-4" d="M35.57,29.59h0Z"/><path class="cls-4" d="M35.58,29.64v0s0,0,0,0S35.58,29.62,35.58,29.64Z"/><path class="cls-4" d="M35.57,29.63s0,0,0,0S35.55,29.66,35.57,29.63Z"/><path class="cls-4" d="M35.35,29.51l0,0v0S35.37,29.53,35.35,29.51Z"/><path class="cls-4" d="M35.72,29.62l-.06-.06v0Z"/><path class="cls-4" d="M35.66,29.56l0,0S35.64,29.55,35.66,29.56Z"/><polygon class="cls-4" points="35.5 29.51 35.53 29.58 35.51 29.5 35.5 29.51"/><polygon class="cls-4" points="35.77 29.57 35.79 29.62 35.76 29.55 35.77 29.57"/><path class="cls-4" d="M35.79,29.54s.05,0,.07.06,0,0,0-.07S35.82,29.55,35.79,29.54Z"/><path class="cls-4" d="M35.81,29.49l0,0S35.82,29.51,35.81,29.49Z"/><path class="cls-4" d="M35.67,29.51l0,0,0,0Z"/><path class="cls-4" d="M35.68,29.51Z"/><path class="cls-4" d="M35.67,29.51Z"/><path class="cls-4" d="M35.57,29.51a.12.12,0,0,0-.07-.09S35.55,29.47,35.57,29.51Z"/><path class="cls-4" d="M35.62,29.47h0l0,0Z"/><polygon class="cls-4" points="35.61 29.45 35.62 29.47 35.62 29.47 35.61 29.45"/><path class="cls-4" d="M35.75,29.47s0,0,0,0h0S35.74,29.48,35.75,29.47Z"/><path class="cls-4" d="M35.71,29.49h0S35.7,29.48,35.71,29.49Z"/><polygon class="cls-4" points="35.82 29.36 35.81 29.36 35.82 29.36 35.82 29.36"/><path class="cls-4" d="M35.71,29.43s0,0,0,0v0Z"/><path class="cls-4" d="M35.81,29.45h0Z"/><path class="cls-4" d="M35.72,29.49Z"/><path class="cls-4" d="M35.72,29.49v0Z"/><path class="cls-4" d="M35.58,29.08s.06.08,0,.06a.9.9,0,0,0,.22.22.16.16,0,0,1,0-.07s-.07,0-.1-.07,0,0,.06,0,0-.09-.12-.15v0S35.6,29.08,35.58,29.08Z"/><path class="cls-4" d="M35.78,29.38h0l.07,0a.33.33,0,0,0,0-.06l0,0Z"/><path class="cls-4" d="M35.76,29.41c0-.05,0-.08-.09-.11s0,0,0,.07,0,0,0,0v0h0v0s0,0,0,0h0v0S35.76,29.39,35.76,29.41Z"/><path class="cls-4" d="M35.43,29.32h0Z"/><path class="cls-4" d="M35.46,29.33s0,0,0,0l0,0s0,0,0,.05h0l.09.05Z"/><path class="cls-4" d="M35.6,29.36v0l0,0,0,0S35.59,29.34,35.6,29.36Z"/><polygon class="cls-4" points="35.84 29.38 35.88 29.43 35.83 29.35 35.84 29.38"/><polygon class="cls-4" points="35.86 29.35 35.9 29.39 35.88 29.36 35.86 29.35"/><path class="cls-4" d="M36.86,27.35v0Z"/><path class="cls-4" d="M36.81,27.39l0,0Z"/><path class="cls-4" d="M36.53,28.68s.11.07.06,0l0,0S36.54,28.69,36.53,28.68Z"/><polygon class="cls-4" points="36.71 27.98 36.7 27.97 36.73 28.01 36.71 27.98"/><path class="cls-4" d="M36.54,27.81h0Z"/><path class="cls-4" d="M37,27.06l0,0S37,27,37,27.06Z"/><path class="cls-4" d="M36.13,29.06h0S36.1,29,36.13,29.06Z"/><path class="cls-4" d="M37.31,27.78s0,0,0,0S37.3,27.77,37.31,27.78Z"/><path class="cls-4" d="M36.2,29h0a0,0,0,0,1,0,0S36.22,29.08,36.2,29Z"/><path class="cls-4" d="M37.82,26.15Z"/><path class="cls-4" d="M38.5,26.21v0A0,0,0,0,0,38.5,26.21Z"/><path class="cls-4" d="M36,29.26Z"/><path class="cls-4" d="M35.8,29.12a0,0,0,0,0,0,0Z"/><path class="cls-4" d="M36,28.73Z"/><path class="cls-4" d="M36,29.25h0Z"/><path class="cls-4" d="M36,29.27h0S36,29.28,36,29.27Z"/><path class="cls-4" d="M36,29.25h0Z"/><path class="cls-4" d="M37.54,26.75h0Z"/><polygon class="cls-4" points="36.23 28.11 36.23 28.11 36.24 28.11 36.23 28.11"/><path class="cls-4" d="M36.22,28.06c.05.06,0,.06,0,.05l.13.11Z"/><path class="cls-4" d="M36.94,27.23l0,0c0-.07,0-.07-.09-.1.14.12,0,.07.1.19l0,0h0c-.09,0,.08.1,0,.11a.05.05,0,0,1,0,0v0s0,0,0,0v0h0l.06.08s0,0,0,0l0,.05c-.05,0-.07-.07-.05-.08-.15-.1,0,.05-.09,0v0c-.09-.06-.07,0-.14-.05s.16.07.17.12,0,0,0,0-.05,0-.05,0l-.07-.05.07.09a.4.4,0,0,1-.12-.07s.09.05.08.09,0,0,0,.09,0,0-.06,0l0,.06,0,0s.06.06.07.09-.13-.06-.07,0l-.06-.06a.39.39,0,0,0,.06.14l-.05,0a.34.34,0,0,1,.13.16l.06,0,0,.06L36.73,28v0s-.06-.05-.09-.09l.05,0-.11-.12v0l0,0,0,0-.08-.06,0,0h-.07c.05.09.14.21.13.27a.92.92,0,0,0-.14-.14c.07.05,0-.05,0-.06a.08.08,0,0,1-.06,0l0,.09c-.05-.05,0,0-.07,0s0,.09.06.13-.06-.07,0-.08.1.14,0,.09,0,0,0,0,0,0-.05,0h0s-.08.08,0,.17l-.11-.12.24.31c-.07-.07-.26-.22-.28-.28s0,0,0,0l.12.1a.9.9,0,0,0-.14-.07s.12.12.11.13a1.36,1.36,0,0,0-.12-.12l.09.13a.77.77,0,0,0-.13-.12s0,0,0,0h0s.13.18.09.2-.13-.14-.16-.14a2.74,2.74,0,0,1,.27.35l0,0,0,.05a3.88,3.88,0,0,1-.27-.38s0,0,0,0a.06.06,0,0,1,0-.06l0,0c.06.06,0,.09.09.14l0-.1c.07.06.17.2.13.21s-.11-.11-.13-.13,0,.06,0,.05l0-.05s.07.11,0,.07-.1-.07-.07,0a3.15,3.15,0,0,1,.37.35l-.15-.07c-.06-.05-.12-.15-.18-.19l0,.05s-.05-.05-.06,0,0,0,.05.06,0,0,0,0a.55.55,0,0,1,.14.18l0,0s-.08,0-.1,0a.25.25,0,0,1-.08-.05s0,0,0,0,0,0-.07-.08a.18.18,0,0,1,0,.11c.06,0,0,0,0-.05A.55.55,0,0,1,36,29s-.06-.05-.06,0,.11.17,0,.15a.92.92,0,0,1-.14-.14s.06,0,.07,0l0,0s0,0,0,0-.08.05-.15,0a.25.25,0,0,0,0,.07v0c.05,0,0,.07.07.08s0,.1,0,.1l-.06-.06s0,0,0,0-.1-.05,0,0l0,0c0,.05.06.13,0,.12s0,0,.08.05c-.09-.08,0,0-.06-.11.09.07,0,0,.14.07s0,0,0,0l0,0h0l0,0c0-.06,0-.08,0-.11l0,.05,0-.05s.09.05.09.1l0,0s.06,0,0,0,0-.07,0,0v-.05h0s0-.13.09-.08,0,0,0-.05l0,0s.08,0,0,0,.08,0,.12,0l0-.05s0,0,0-.07l0,0c0-.05.06,0,.08,0s0,0,0,0,0-.13.09-.09,0,0,0,0h0v0l0,0h0s0,0-.06-.06l0,0c.09.06,0,0,.09,0s0-.06-.08-.15l0,0s0,0,0,0l.07.06-.07-.1c.05,0,.08,0,.11.1,0-.1,0-.05,0-.14l0,0s0-.07,0,0,.09-.08.2-.06c-.12-.09.07,0,0-.06s.06,0,.07.06.08,0,0-.08l0,.06s0,0,0,0,0,0,0,0-.06-.11-.14-.18,0,0,0-.05.07,0,.06.06.09,0,0-.07,0,0,0,0l0,0h0c-.07-.08,0,0,0,0h0c.08,0,0,0,.08,0l-.05,0c-.1-.1.09,0,.06,0l0,0s.17.09.19.09l0,0c.08,0-.06-.06-.06-.09s.08.08.1.07-.07-.14,0-.1a.16.16,0,0,1-.07-.07s.14.05.06,0l0,0a.41.41,0,0,0,0-.12c.17.14,0-.14.13,0l0,0h0s0-.05,0-.09a0,0,0,0,1,0,0c.06,0,.06,0,0-.11l0,0s.12,0,.09-.07l0,0c0-.08.22,0,0-.14l0-.06s-.08-.07-.12-.09.08,0,.08,0h0c.1.08.07,0,.14,0s.15-.08.2-.14L37.81,27h0s.07,0,.05.05,0-.06,0-.07.08.08.09.08v0h0s0-.07,0-.08S38,27,38,27s0,0,0,0l0,0-.07,0s0,0-.06-.06c.13.07.12-.07.16-.06s0-.06,0-.08-.09-.05-.07-.07.09,0,.2.09c-.08,0,0-.07-.09-.12s0,0,.1.05.09-.05.11-.1-.06,0-.08-.06l.11,0s-.1-.09,0-.05,0,0,0,0c.16,0,.06-.23.3-.19,0,0,0,0,0,0l-.08-.06.1,0c-.06-.06,0,0,0-.1v0a2.64,2.64,0,0,0-.3-.18c.08.08-.17-.06-.06.06s0,0-.06,0,0,.06,0,.06h0c0,.05-.08,0-.14.06l0,0h0c.07.07,0,0,.11.05-.12-.07-.06.07-.19,0s.07,0,0,.06l0,0,0,0s-.06,0-.09,0h0s0,0,0,0h0c0,.07-.09.09-.06.18h0c0,.07,0,0-.06.06h0s0,0,0,0-.07,0-.09-.06,0,0,.1.14l0,0s0,.05,0,.08-.07,0-.1-.09,0,.12-.1,0c.1.1.09,0,.1.05s.07.07.05.08-.15-.09-.17-.06h0s0,.05,0,0,0,0,.06.08v0s.1.12,0,.11l0-.06s0,0,0,0,0-.05-.05-.12,0,.08,0,0c.1.11,0,0,0,.11l-.05,0a.08.08,0,0,1,0,0l-.06-.06c0,.06-.07,0,0,0s.06,0,.11.05-.15-.08-.16,0,0,0,.06,0l-.07,0s.05,0,.07.07,0,0,0,.06l-.05,0c-.06,0,.1.1,0,.1l-.06-.07v0l-.05-.05c0,.05,0,0,0,.05s.09.08.08.09,0,0,0,0-.07-.07,0,0l0,0s0,0,0,0h0l0,.09s0,0-.05-.05,0,0,0,.05-.08-.07-.09-.1l0,.07L37,27s0,.1,0,.1a0,0,0,0,1,0,0s-.09,0-.06.06l-.08,0s.11.06.11.11-.07,0-.1-.05.09.12,0,.09S36.94,27.24,36.94,27.23Zm-.16.25s0-.05,0,0S36.8,27.49,36.78,27.48Zm-.19.44s0,0,0,0ZM36,29.16h0S36,29.16,36,29.16Zm0,0,0,0s0,0,0,0S36,29.14,36,29.16Zm2-2.2h0S37.92,27,37.94,27Z"/><path class="cls-4" d="M36.56,27.83l0,0Z"/><polygon class="cls-4" points="37.03 27.07 37.03 27.07 37.03 27.06 37.03 27.07"/><path class="cls-4" d="M35.89,28.47l0,0Z"/><path class="cls-4" d="M36,29.34v0h0S36,29.34,36,29.34Z"/><path class="cls-4" d="M35.56,29.15s0,0,0,0l0,0A.05.05,0,0,0,35.56,29.15Z"/><path class="cls-4" d="M35.79,29.2s0,0,0,0h0C35.81,29.25,35.8,29.22,35.79,29.2Z"/><path class="cls-4" d="M35.75,29.2h0S35.75,29.21,35.75,29.2Z"/><path class="cls-4" d="M36,29.21s.05.05,0,0S36,29.16,36,29.21Z"/><polygon class="cls-4" points="35.66 29.07 35.71 29.12 35.68 29.07 35.66 29.07"/><path class="cls-4" d="M35.76,29h0a0,0,0,0,0,0,0S35.78,29.06,35.76,29Z"/><path class="cls-4" d="M35.75,29.06v0A0,0,0,0,0,35.75,29.06Z"/><polygon class="cls-4" points="35.66 29.04 35.68 29.05 35.69 29.04 35.66 29.04"/><path class="cls-4" d="M35.92,28.9v0l0,0S35.9,28.89,35.92,28.9Z"/><path class="cls-4" d="M35.75,28.82l0,0-.06-.06Z"/><path class="cls-4" d="M35.78,28.76s0-.07,0-.05S35.75,28.76,35.78,28.76Z"/><polygon class="cls-4" points="36.08 28.61 36.07 28.61 36.17 28.71 36.08 28.61"/><path class="cls-4" d="M36,28.18s.05.06,0,.05,0,0,.05,0S36.11,28.24,36,28.18Z"/><path class="cls-4" d="M36.1,28.27v0Z"/><polygon class="cls-4" points="38.6 26.21 38.63 26.21 38.59 26.19 38.6 26.21"/><path class="cls-4" d="M38.54,26.12l.07.05-.06-.05Z"/><path class="cls-4" d="M36.61,27.4h0s0,0,0,0Z"/><polygon class="cls-4" points="36.81 27.28 36.8 27.28 36.87 27.33 36.81 27.28"/><path class="cls-4" d="M36.85,27.08s0,0,0,0S36.92,27.14,36.85,27.08Z"/></g></g></svg>