<svg xmlns="http://www.w3.org/2000/svg" viewBox="0 0 86.2 84.87"><defs><style>.cls-1{font-size:9.83px;font-family:jf-openhuninn-1.1;}.cls-1,.cls-4{fill:#040000;}.cls-2{fill:#eaa092;stroke:#fef5e9;stroke-miterlimit:10;stroke-width:6.2px;}.cls-3{fill:#fef5e9;}.cls-5{fill:#065b8f;}.cls-6{fill:#f2cf20;}</style></defs><g id="圖層_2" data-name="圖層 2"><g id="圖層_1-2" data-name="圖層 1"><text class="cls-1" transform="translate(31.2 65.17) scale(1.02 1)">收藏</text><ellipse class="cls-2" cx="43.1" cy="42.44" rx="40" ry="39.34"/><text class="cls-1" transform="translate(33.75 68.04) scale(1.02 1)">收藏</text><path class="cls-3" d="M58.7,48.18,44.3,55.53l-14.58-4,.36-11.11c4.1-.67,8.55-1.23,13.31-1.61s9.44-.55,13.67-.54C57.61,41.6,58.15,44.89,58.7,48.18Z"/><path class="cls-4" d="M37.26,54.41Z"/><path class="cls-4" d="M36.84,38.6h0l0-.05Z"/><path class="cls-4" d="M41.05,38.28h0S41.07,38.26,41.05,38.28Z"/><path class="cls-4" d="M29.28,43.17s0,.06,0,.07A.15.15,0,0,1,29.28,43.17Z"/><path class="cls-4" d="M45.13,55.83h0Z"/><path class="cls-4" d="M45.07,55.9c-.09,0,0,0,0-.06a.85.85,0,0,0-.35.16s.08,0,.17-.06Z"/><path class="cls-4" d="M57.51,49.41l0,0Z"/><path class="cls-4" d="M30.86,42.81v0Z"/><path class="cls-4" d="M55.53,50.38v.06A.06.06,0,0,0,55.53,50.38Z"/><path class="cls-4" d="M36.91,38.54l0,0Z"/><path class="cls-4" d="M44.93,38a.08.08,0,0,0,0,0h0Z"/><path class="cls-4" d="M58.23,45.67a0,0,0,0,0,0,0l0-.07A.22.22,0,0,0,58.23,45.67Z"/><path class="cls-4" d="M50.27,37.92s0,0,0,0a4.26,4.26,0,0,0-.64,0l0,.07Z"/><path class="cls-4" d="M56.11,39.24l-.57-.12.79,0c.1,0,.06.1.08.15l.13.82c.05.32.12.66.21,1l0-.09a7.25,7.25,0,0,1,.38,2.84h0a.72.72,0,0,1,0,.26v-.44a6.67,6.67,0,0,1,.23.8c0,.08,0,.11,0,.12l.16.83,0,.27c.09.25.24.1.26.8.07-.27.13.33.17.24l0,.18a9.68,9.68,0,0,0,.34,1.35s0-1.64,0-2.09c.06.58,0,.15.06,0l0,0a2.92,2.92,0,0,1,0-.53h0l0,0s0,0,0,0,0,0,0-.1l0,0a3.43,3.43,0,0,1-.08-.5h.06A12.37,12.37,0,0,1,58,43c0-.36-.15-.77-.18-1.2-.09-.69,0-.36,0-.71s-.06.1-.09-.07v-.53c.06.3.07.13.08.07-.06-.44-.06-1.16-.21-1.28,0-.33,0-.56,0-.74a4.52,4.52,0,0,0,0-.49,2.28,2.28,0,0,1,0,.44c0-.39,0-.16,0,0a3.85,3.85,0,0,0-.14-.62l-.94-.06-.68,0c-.17,0-.28,0-.3,0v0c-.08.1.06.2-.2.26l-.18,0-.26,0c-.17,0-.09-.06-.09-.07a13,13,0,0,1-1.53,0l.55.27a4.24,4.24,0,0,0-1.3-.08l-.26-.08c-.88-.15-.61.09-1,0L50.82,38h.43c-.43,0-.61-.06-1-.12h0a1.3,1.3,0,0,1-.58.1,8.49,8.49,0,0,1-1.47,0l-.17.12-.52,0V38l2.13-.14v0l-1.09.07c-.13,0-.45-.07-.22-.14l-.24.09c-1.3.08-1.3.08-2.66.08l.12,0A1.23,1.23,0,0,1,45,38a15.86,15.86,0,0,1-2.19,0l-.11.1c-.17,0-.44-.11-.51,0l-.37.08a3.2,3.2,0,0,1-.64,0h-.05c-.54,0,0,.08-.6.09-.2-.05-.2.14-.5.15l-.31-.11a8.81,8.81,0,0,0-1.4.21c-.38,0-.57-.1-.34-.24a1.31,1.31,0,0,1-.58.21c-.08,0,0-.06.06-.11-.41,0-.24.07-.54.1-.08.11-.16.28-.26.3l.12,0a3.33,3.33,0,0,1-1,.15V39l-.39.08,0-.06-.56.09h.08a6.8,6.8,0,0,1-.82.1v0a12.24,12.24,0,0,0-2.09.34l.1-.08c-.29,0-.06.12-.4.13l0-.08c-.27.16-.38,0-.59,0l.12.1-.43,0c-.72.08-.51-.07-.41-.14l-.48.16-.18-.07a1.31,1.31,0,0,1-.37.12,2.76,2.76,0,0,0,0,.65s-.06-.15-.08.08a7.75,7.75,0,0,0,.11,1l0-.18,0-.32.15.1c0,.19,0,.27,0,.33a.59.59,0,0,1,0,.19,1.35,1.35,0,0,0,0,.35l0-.19a1.81,1.81,0,0,1-.09.72c0-.08.08-.2.09,0s0,.07-.07.2.14.35.08.63a0,0,0,0,1,0,0,.61.61,0,0,1,0,.24l-.11-.08.1.25c0,.17,0,.41,0,.38l0-.09-.07,1.24-.09,0c.12.12-.07.67.09.63-.09.24,0,.93-.14.78a21.24,21.24,0,0,1,0,2.25,8.8,8.8,0,0,0-.18,2v1.38l1.17.28.72.17L32,53c.68.39,1.86.43,2.62.75l.24,0c.5.27,1.34.34,2,.66a1.81,1.81,0,0,1,.33,0s-.08,0-.08-.1c.2.09.64.17.59.26h-.06c-.06.09.65.13.87.28l-.1-.14.39.13h-.11c1.8.23,2.5.78,4.19,1-.25.06.34,0,.33.16a.93.93,0,0,0,.42.17c.2,0,.47.08.68.1a3.77,3.77,0,0,1,.39-.26s0,0,0,0l.6-.28c-.25.31.33-.33.09-.05C47,55,48.77,54,50.44,53.16h-.09a9.67,9.67,0,0,1,1.26-.62,2.63,2.63,0,0,0,.76-.52c.32-.24.7-.27.55-.2a6.75,6.75,0,0,1,1.18-.73c.24,0,1.35-.84,1.43-.71h0c.71-.24,1.25-.72,2-1l0,0,1.23-1.16L58.08,48l-1.45.26-3.35,1.82-2.79,1.23L44.2,54.56h0a.05.05,0,0,1,0,0l0,0H44c-1.35-.58-3.22-.83-4.69-1.39l-.06.09a1.13,1.13,0,0,1-.48-.2L30.53,51l.12-2.24c.08-.36.08-1.44.16-1.72a32.27,32.27,0,0,1,0-3.68v-.52s0,0,0,0a6.48,6.48,0,0,1,0-1.16l0-.32a.2.2,0,0,1,0-.06s0-.05.05,0h0l2.65-.42,3.25-.47c2.17-.29,4.34-.52,6.59-.63,2.1,0,4.52-.38,6.93-.34C50.82,39.45,55.68,39.27,56.11,39.24Z"/><path class="cls-4" d="M57.31,44.6v0S57.29,44.61,57.31,44.6Z"/><polygon class="cls-4" points="53.19 37.95 53.22 37.95 53.1 37.9 53.19 37.95"/><path class="cls-4" d="M57.92,40.82c0-.29-.05-.3-.06-.26S57.9,40.75,57.92,40.82Z"/><path class="cls-4" d="M57.78,46.92c0,.16,0,.09,0,0l0-.26Z"/><path class="cls-4" d="M58.26,46.21l0,0C58.28,46.17,58.27,46.17,58.26,46.21Z"/><path class="cls-4" d="M44.28,43.88Z"/><path class="cls-4" d="M44.58,48.74h0Z"/><path class="cls-4" d="M44.48,49.53h0Z"/><path class="cls-4" d="M44.33,47s0,0,0,0S44.33,46.94,44.33,47Z"/><path class="cls-4" d="M44.13,42.45h0Z"/><path class="cls-4" d="M44.16,42.47s0,0,0,0,0,0,0,.06S44.14,42.48,44.16,42.47Z"/><path class="cls-4" d="M44,39.86h0Z"/><path class="cls-4" d="M42.77,47.07h0Z"/><path class="cls-4" d="M43.94,40.27h0Z"/><path class="cls-4" d="M44.63,48.75h0Z"/><path class="cls-4" d="M44.47,50.25h0Z"/><path class="cls-4" d="M43.77,53.92h0l0,0Z"/><path class="cls-4" d="M44.28,51.25h0a.35.35,0,0,0,0-.12h-.06Z"/><path class="cls-4" d="M42.86,52.38l.12-.11c.07.34,0,.5.06.78h0s.26.06-.07.54h0s0,0,0,0l.08-.08c0,.05.09.09.1.15s0,0-.06,0l0,.16-.08.05s.21,0,.12.16c.12-.06.08.06.13,0l-.05,0c0,.08.05.22.11.26a2.36,2.36,0,0,1,.37-.39c0,.1,0,0,0,0h0c0-.06.1-.06.12-.1h0s0,0,0,0h0a.27.27,0,0,1,0-.09h.06c-.12-.05.17-.33.18-.4s0-.14,0-.22.09-.07.14-.14-.07,0-.08,0l.09-.1c0,.05,0,0,.07,0s.11-.22,0-.24c.05-.11.1-.12.11-.16s0,.05-.07.05,0,0,0,0,.21-.36.07-.37h0c-.1,0-.2,0-.26,0l.05,0-.05,0a.06.06,0,0,1,.07,0c0-.08,0-.19,0-.29l-.28.11c.06-.08.19-.23.1-.24l.09-.05c.17-.17-.08-.12,0-.18l.1-.09v.09a.7.7,0,0,1,.15-.19h0a.11.11,0,0,1-.09-.11c0-.08-.06-.14,0-.27l-.1,0,0-.1h.09c0,.09,0,.27,0,.39h0c0-.07,0-.15,0-.2s.1-.08.16,0l-.08,0a.87.87,0,0,1,.06-.5l0,0s0-.1,0-.11a.63.63,0,0,1,.16-.42h-.1s.15-.09,0-.1l0-.07s-.05-.07,0-.12h0c0-.1-.08,0,0-.11s-.13,0-.11-.09l.14-.06c.08-.1-.06-.11-.07-.26a.25.25,0,0,1,.28-.07c-.13,0-.09,0-.15-.1s.06,0,.11,0-.05-.05-.05-.1-.26,0-.26,0l0,0a.14.14,0,0,1,0-.19h0l0-.07h.06l0-.1h0a.19.19,0,0,1,0-.15h0c.11-.13,0-.24-.06-.39l.08,0c.07-.06-.11,0-.08-.08h.09c-.12,0,0-.07.06-.11l-.11,0,0-.07c0-.08.15-.06.21-.05l-.1,0h.11c-.12,0,0,0,0-.11s.06,0,.08,0l-.15-.11.06.07h-.15c-.11-.06,0-.09,0-.14l0,0c0-.08,0-.09.06-.13s-.07,0-.09,0,.05,0,.07,0-.16-.06-.11-.11h0s0,0,0,0h.12l-.11,0s-.05-.08,0-.08l0,0,0-.23h.09c-.12,0,0-.12-.11-.11.08-.05-.06-.17.11-.15,0-.15-.16-.23-.08-.42s.09-.25.1-.37-.13-.38-.18-.61c.2-.15-.08-.36,0-.51l-.08,0c.12-.11,0-.26.08-.41l0-.06s0,0-.07,0,0-.13.09-.12h0c.1,0-.05-.13,0-.18l-.11,0v-.07l0,0c-.26-.33.09-.5-.15-.81.12,0-.06-.06.07-.06s0-.15-.09-.21h0V42.4c.17.06-.14-.08,0,0,.12-.3,0-.69,0-1h-.05c0-.09,0-.19,0-.26S44,41,44,40.93s.07-.14.06-.11-.17-.14-.11-.25-.15-.29,0-.3h0c.1-.14-.09-.27,0-.42h0l-.49-.29-.53.1-.42.28.11.71-.15.57.1,1.38.13.09c-.21.28,0,.62-.09.92h.1c0,.08-.06.08-.07.1a12.31,12.31,0,0,1,.1,2.24c-.07.07,0,.27-.1.33a1.2,1.2,0,0,1,.14.68h0l0,.11h0c.1.12,0,.31,0,.45h0a17.15,17.15,0,0,1,.1,2.48c-.15.4.09.85,0,1.3A2.62,2.62,0,0,0,42.86,52.38Z"/><path class="cls-4" d="M43,53.71h0S43,53.72,43,53.71Z"/><polygon class="cls-4" points="44.17 51.8 44.17 51.8 44.23 51.78 44.17 51.8"/><path class="cls-4" d="M44.24,53s0-.06,0,0A0,0,0,0,0,44.24,53Z"/><path class="cls-4" d="M43.14,54.15s0,0,0,0a.1.1,0,0,1,0,0Z"/><path class="cls-4" d="M43.72,54h0S43.74,54,43.72,54Z"/><path class="cls-3" d="M54.51,29.36l8.75,2.86-13.13,10L42.48,37.6,31.54,30.43l-8.38,5L35.92,43c2-1.77,4.21-3.58,6.56-5.38A133.29,133.29,0,0,1,54.51,29.36Z"/><path class="cls-4" d="M47.87,41.77Z"/><path class="cls-4" d="M25.07,35.52l0,0h0Z"/><path class="cls-4" d="M29.35,38.19l0,0S29.38,38.2,29.35,38.19Z"/><path class="cls-4" d="M31.56,31.3h0Z"/><path class="cls-4" d="M56.12,38.5h0l0,0Z"/><path class="cls-4" d="M56.06,38.59c-.1,0,0,0,0-.08a1.61,1.61,0,0,0-.3.21S56,38.6,56.06,38.59Z"/><path class="cls-4" d="M56.53,29.43h0Z"/><path class="cls-4" d="M31,29.76l.12-.08Z"/><path class="cls-4" d="M59,30.28l0,0S59,30.27,59,30.28Z"/><path class="cls-4" d="M25.18,35.53h0Z"/><path class="cls-4" d="M33.34,40.59a0,0,0,0,0,0,0h0Z"/><path class="cls-4" d="M51.94,31h0l-.06.09A.29.29,0,0,0,51.94,31Z"/><path class="cls-4" d="M37.86,40.71v0l-.61.47,0,.06Z"/><path class="cls-4" d="M44.18,37.47l-.62.3c1.7-1.35,2.6-1.84,4.06-3l-.07.08A9.75,9.75,0,0,1,50.41,33h0a1,1,0,0,1,.26-.17l-.47.22a8.19,8.19,0,0,1,.77-.63c.08,0,.12,0,.14,0l.84-.57.3-.1c.24-.2,0-.27.78-.63-.33.06.31-.28.19-.28l.21-.06c.41-.28,1.18-.79,1.35-1,0,0-1.77.8-2.28,1,.61-.34.15-.11,0-.07l0,.05a3.39,3.39,0,0,1-.6.23h0l0,0s0,0,0,0,0,0-.09.09h0c-.14.1-.4.25-.51.32l0-.05a21.11,21.11,0,0,1-2.19,1.22c-.39.17-.76.54-1.22.81-.69.45-.39.16-.76.35s.12,0,0,.12l-.57.29c.3-.21.11-.13.05-.11-.45.3-1.21.71-1.27.91-.63.38-.66.34-.92.52.1,0,.28-.15.3-.13-.27.13-.11.09,0,0a22.44,22.44,0,0,0-2,1.37v0c0,.14.17.12-.05.35l-.19.09-.22.23c-.18.11-.12,0-.13,0-.36.36-1,.77-1.43,1.15l.68-.2a6.13,6.13,0,0,0-1.28.91l-.3.12c-.92.53-.51.53-.87.75l-.47.25.41-.33c-.44.29-.62.4-1,.61h0l0,0,0,.05a1.91,1.91,0,0,1-.5.51l-.58.49-.35.28a2.17,2.17,0,0,1-.37.24c0,.05,0,.1-.05.17l-.13.07-.17-.14,0-.08.14.08,1.38-1.18v0c-.36.3-.75.67-1,.86,0,0-.22.13-.23.1A.06.06,0,0,1,36,42a.74.74,0,0,1,0,.12l-.09.08-.74-.44-1.26-.84L34,41c-.29-.14-.58-.28-.62-.39a18.65,18.65,0,0,1-2.17-1.47H31c-.17-.11-.36-.39-.52-.33l-.4-.18a3.88,3.88,0,0,1-.66-.4h0l0,0h0c-.53-.36,0,.08-.64-.34-.17-.18-.29,0-.58-.22l-.24-.3a13.52,13.52,0,0,0-1.48-.81c-.36-.27-.49-.48-.18-.42a2,2,0,0,1-.7-.25c0-.08,0-.06.14,0-.38-.3-.28-.11-.59-.3-.13,0-.2.18-.27.15l0,.05a.92.92,0,0,1-.46-.24h.09l-.11,0,0,0h.12l.16-.12h-.05l.13-.09.09-.05.15-.08v0a17.59,17.59,0,0,0,2.14-1.34l-.07.13c.33-.11,0-.14.38-.32l.07.07c.24-.28.4-.22.63-.3l-.15,0,.4-.22c.45-.22.34,0,.31.06L29,32.9l.11.06c.15-.23.22-.11.57-.4,0,0,0,.1.1,0l.55-.49-.34.28,0-.16c.33-.33.53-.3.79-.51l-.17.16a2.58,2.58,0,0,1,.77-.39c-.09,0-.24.06-.06-.07s.11,0,.15,0,0-.15.1-.2l.07.07,0,0s.05,0,.08,0l-.07.09s.05-.05.18,0,.43.22.37.27l-.11,0,1.23.84,0,.08c.19,0,.66.49.7.33.19.23,1,.56.73.62.81.54,1.34.7,2.29,1.42a13.83,13.83,0,0,0,1.91,1.39l3.43,2c.68.65,2,1.13,2.78,1.75l.27.07c.5.45,1.44.84,2.16,1.42l.37.17a.14.14,0,0,1-.07-.13c.2.17.68.41.6.48l-.07,0s.14.13.35.24l.33.18.14.1a1.15,1.15,0,0,1,.2.15,3,3,0,0,1-.18-.24l.72.46-.2-.1.49.26.91-.75.49-.39c.31-.24.61-.45.91-.66a15.34,15.34,0,0,0,1.89-1.51c-.14.26.28-.3.38-.21.51-.18.73-.6,1-.9,0,0,0,0,0,0l.59-.44c-.25.4.34-.43.1-.07,1.6-1.07,3.51-2.69,5.31-4l-.11,0,.87-.68c.39-.3.75-.57,1.09-.79a4.31,4.31,0,0,0,.89-.75l-.64-.14c-.78-.18-1.23-.48-.95-.38-.4-.12-.8-.21-1.2-.3a4.34,4.34,0,0,1-.91-.28c-.18-.21-1.84-.46-1.81-.62h0c-.81-.38-1.66-.46-2.54-.85h.05l-2-.15.36.68,1.48.93,4.38,1.34.27.11.21.08.07,0s.06.06.06.08l-.16,0-6.56,5.09-.43.48a21.82,21.82,0,0,0-2.28,1.64l-1.17.92-.58.43a.18.18,0,0,1-.1,0l0,0v.11a.1.1,0,0,1-.06-.07.29.29,0,0,0-.09-.11l-6.37-3.79c-2.07-1.28-4.05-2.61-5.87-3.88-.32-.29-1.43-1-1.67-1.21-.64-.34-1.28-.72-1.91-1.12L32,29.74l.09,0-.53-.33-.53.33c-.05,0-.06,0,0,0l-.74.49-.64.37-1.34.73,0,0-6.84,4.14c1.77,1,3.53,2.06,5.3,3.08,1.35.8,2.7,1.61,4.07,2.47.68.47,1.42.92,2.2,1.37L36,44.07l1.66-1.36c.39-.31.78-.62,1.19-.91S43.75,37.76,44.18,37.47Z"/><path class="cls-4" d="M51.12,32.42h0S51.15,32.44,51.12,32.42Z"/><polygon class="cls-4" points="40.65 38.58 40.68 38.56 40.53 38.6 40.65 38.58"/><path class="cls-4" d="M46.84,33.85c-.3.2-.3.21-.25.2A2,2,0,0,0,46.84,33.85Z"/><path class="cls-4" d="M53.46,30.82c.16-.09.09-.08,0,0l-.26.17Z"/><path class="cls-4" d="M52.52,30.72l0-.06C52.46,30.73,52.47,30.73,52.52,30.72Z"/><path class="cls-5" d="M43.37,31c-1.28-.59-12-5.62-11.72-11.84a3.78,3.78,0,0,1,1.27-2.95c1.7-1.14,5.13.15,8.62,3.41,1.33-3.67,3.69-5.92,5.84-5.75A4,4,0,0,1,50,15.54C53,19.89,44.08,30.24,43.37,31Z"/><path class="cls-6" d="M43.4,31.4a33.73,33.73,0,0,1-4.94-2.92,33.11,33.11,0,0,1-4.64-4c2.18-.19,4.48-.44,6.88-.79,3.1-.46,6-1,8.67-1.62a27.5,27.5,0,0,1-1.93,4.07A26.85,26.85,0,0,1,43.4,31.4Z"/></g></g></svg>