<svg xmlns="http://www.w3.org/2000/svg" viewBox="0 0 70 70"><defs><style>.cls-1{fill:none;}.cls-2,.cls-3{fill:#fcf5ea;stroke:#898989;stroke-miterlimit:10;}.cls-2{stroke-width:1.17px;}</style></defs><g id="圖層_2" data-name="圖層 2"><g id="圖層_1-2" data-name="圖層 1"><circle class="cls-1" cx="35" cy="35" r="35"/><path class="cls-2" d="M29.39,48.42c0-6.2-1.52-8.72-3-9.86-.4-.32-1.41-1-3.08-2.34-1.34-1.07-2.4-2-3.08-2.59a7.45,7.45,0,0,1-1.36-6.29,1,1,0,1,1,2,.25A9.45,9.45,0,0,0,21.26,29a10.74,10.74,0,0,0,.86,1.76A10.87,10.87,0,0,0,26,34.08a.4.4,0,1,0,.42-.64,10.76,10.76,0,0,1-3.64-9.18,4.06,4.06,0,0,1,1.61-2.34,3.85,3.85,0,0,1,1.6-.62,1.91,1.91,0,0,1,2.34,1.11,1.8,1.8,0,0,1-.49,1.73,2.44,2.44,0,0,0-1.24.74,2.41,2.41,0,0,0-.61,1.35,8.46,8.46,0,0,0,.61,2.34c.24.56.18.24,1,1.73.36.65.54,1,1,1.22.1,0,.6.26.86,0a.73.73,0,0,0,0-.86,8.29,8.29,0,0,1-.6-4.55A6.61,6.61,0,0,1,30.87,22a4,4,0,0,1,3.33-.86,3.73,3.73,0,0,1,2,1.23,1.35,1.35,0,0,1-.25,1.48,1.38,1.38,0,0,1-1.11.37A2.68,2.68,0,0,0,32,25.37c-.09.86-.18,1.53-.25,2a2.62,2.62,0,0,0,0,1.18c0,.11.26.87.66.94.7.13,1.1-2,2.8-3.35A5.62,5.62,0,0,1,38,25a2.29,2.29,0,0,1,2.34.37A2.06,2.06,0,0,1,41,26.48a3.53,3.53,0,0,1,.37,1.85,3.3,3.3,0,0,1-.5,1.48c-.69.71-1.17.8-1.48.74s-.4-.24-1.23-1c-.61-.55-.92-.83-1.11-.86-.81-.15-1.67,1-2.09,1.6a8.47,8.47,0,0,0-1.48,3.45,5.71,5.71,0,0,0,.74,4.44,5.82,5.82,0,0,0,4.43,2.46c.42-.49.83-1,1.24-1.48L41.1,37.7a1.41,1.41,0,0,1,1.73,0,1.27,1.27,0,0,1,.37.86,6.79,6.79,0,0,1-.62,2.59,7.54,7.54,0,0,1-1.73,2.22c-.88.9-1.85,2.5-2.09,5.54"/><path class="cls-2" d="M43,26v-4.2"/><path class="cls-3" d="M46.34,28.6,48.84,26"/><path class="cls-3" d="M48.75,32.44h2.54"/><path class="cls-2" d="M41.72,32.15,37.77,35.6l4.93-.25-.24,3.46,3.45-3,4.93.74-3-3.46,2.71-4.43-3.94,1.72-1-5.42-2.22,5.42-3-1.23Z"/><path class="cls-3" d="M45.5,42.43l-.19-3"/><path class="cls-3" d="M51,39.66l-1.82-2"/></g></g></svg>