<svg xmlns="http://www.w3.org/2000/svg" viewBox="0 0 234.27 155.5"><defs><style>.cls-1{fill:#ffebb3;}.cls-2{fill:#ffd960;}.cls-3{fill:#eb8937;}.cls-4{fill:#ed954c;}.cls-5{fill:#294b24;}.cls-6{fill:#405e3b;}.cls-7{font-size:24px;fill:#fff4e7;stroke:#fff4e7;stroke-miterlimit:10;stroke-width:0.44px;font-family:jf-openhuninn-1.1;}</style></defs><g id="圖層_2" data-name="圖層 2"><g id="圖層_1-2" data-name="圖層 1"><ellipse class="cls-1" cx="95.78" cy="70.22" rx="65.22" ry="61.73" transform="translate(-19.03 39.84) rotate(-21.42)"/><ellipse class="cls-2" cx="64.78" cy="62.22" rx="65.22" ry="61.73" transform="translate(-18.25 27.96) rotate(-21.42)"/><path class="cls-3" d="M166.2,141.24c4.3-9.08-1.77-23.91-9.64-32.44A38.38,38.38,0,0,0,144.28,100c-38-17.55-112.71,8.48-123.62,22.8-.9,1.17-3.37,4.42-2.63,7.89.92,4.34,6.38,6.69,9.64,7.89,35.07,12.93,70.14,12.28,70.14,12.28C159.83,149.73,164.38,145.09,166.2,141.24Z"/><path class="cls-4" d="M166,141.16c-.06-.59-.16.11-.42.66Z"/><path class="cls-4" d="M165.6,141.82l-.35.41A1.45,1.45,0,0,0,165.6,141.82Z"/><path class="cls-4" d="M161.49,144.64a16.55,16.55,0,0,1,1.59-.87,2.42,2.42,0,0,0,1-1C163.17,143.33,161.64,144.17,161.49,144.64Z"/><polygon class="cls-4" points="163.2 144.08 163.23 143.84 162.46 144.59 163.2 144.08"/><path class="cls-4" d="M163.93,143.83l-.17,0a9.53,9.53,0,0,1-1.34,1A10.51,10.51,0,0,0,163.93,143.83Z"/><path class="cls-4" d="M157.62,145.75l1.13-.39c1.16,0-.61.57.17.54,1.45-.44.35-.65,2.11-1.22-.13-.11-.79.19-1.46.37s-1.28.31-1.2.07C156.85,145.43,158.37,145.38,157.62,145.75Z"/><path class="cls-4" d="M84.53,152l-.17-.05C84.43,152,84.49,152,84.53,152Z"/><path class="cls-4" d="M64.38,150a7.27,7.27,0,0,0-.8-.22,1.46,1.46,0,0,0,.31.16Z"/><path class="cls-4" d="M97.23,151.72c.28.05.57.08.8.1A2.47,2.47,0,0,0,97.23,151.72Z"/><path class="cls-4" d="M51.69,106.41a.23.23,0,0,0,0,.15h0l.17-.18Z"/><path class="cls-4" d="M42,145.82a8.56,8.56,0,0,0-.9-.19A4.32,4.32,0,0,0,42,145.82Z"/><path class="cls-4" d="M104.49,151.53h-.3l.37,0,0,0Z"/><path class="cls-4" d="M70.86,151.47c-.27-.06-.51-.12-.72-.15A4.61,4.61,0,0,0,70.86,151.47Z"/><path class="cls-4" d="M139.25,148a2.88,2.88,0,0,0-.88.1A1.53,1.53,0,0,0,139.25,148Z"/><path class="cls-4" d="M132.1,148.53h0S132.08,148.49,132.1,148.53Z"/><path class="cls-4" d="M127.52,148.78l.08,0S127.52,148.72,127.52,148.78Z"/><path class="cls-4" d="M138.37,148.05c-.61-.11-.83-.62-1.54,0l.16.06a6.76,6.76,0,0,0-1.66.25.67.67,0,0,0,.2.12l1.17,0A3.93,3.93,0,0,0,138.37,148.05Z"/><path class="cls-4" d="M84.62,151.9c.06.12.55.09,0,0Z"/><path class="cls-4" d="M90.87,151.82l-.62,0A3.05,3.05,0,0,0,90.87,151.82Z"/><path class="cls-4" d="M114.3,151.66l-.11,0C114.16,151.71,114.25,151.69,114.3,151.66Z"/><path class="cls-4" d="M89.69,151.74l.56,0A2.49,2.49,0,0,0,89.69,151.74Z"/><path class="cls-4" d="M107.27,151.58l-.09,0Z"/><path class="cls-4" d="M144.11,102.73a5.63,5.63,0,0,1-1-.62c-1,0,1.76.82.38.56a6.44,6.44,0,0,0,1,.36l-.38-.58C143.34,102.21,144.59,102.8,144.11,102.73Z"/><path class="cls-4" d="M57.42,105.23l-.19,0c.18.12.08.2.83,0,.54-.45-.54-.48.46-1.11a4.08,4.08,0,0,1-.83.26C58.21,104.52,57.84,104.89,57.42,105.23Z"/><path class="cls-4" d="M57.69,104.46h0a.58.58,0,0,0-.19,0,2.84,2.84,0,0,1-.45.1A2.18,2.18,0,0,0,57.69,104.46Z"/><path class="cls-4" d="M130,98.06l-.49-.13A1,1,0,0,0,130,98.06Z"/><path class="cls-4" d="M44.6,141.76c.23,0,.45,0,.63.05A1.72,1.72,0,0,0,44.6,141.76Z"/><path class="cls-4" d="M46.93,108.63a4.45,4.45,0,0,0-.53.16l-.31.15Z"/><path class="cls-4" d="M81.55,95c-.32.47.29-.09,1.12,0l.69-.35A14.22,14.22,0,0,0,81.55,95Z"/><path class="cls-4" d="M144.55,103.08s0,0,0,0l0,0Z"/><path class="cls-4" d="M103.37,92l.36,0A1.48,1.48,0,0,0,103.37,92Z"/><path class="cls-4" d="M53.53,105.68l-2.64.91.8-.18C52,106.09,53.24,106,53.53,105.68Z"/><path class="cls-4" d="M69.72,97.41l-.31-.18c-2.6,1.2-5.91,1.37-7.85,2.72-3.53.18-1.92,1.37-5.14,1.61l.14.09c-9.85,3.08-20.3,6.77-28.58,12.23l-.08-.16a48.42,48.42,0,0,0-5.06,3.33c-.41.32-.82.62-1.23,1l-1.18,1.08a10.11,10.11,0,0,0-1.16,1.19c-.36.42-.78.86-1.06,1.26a14.59,14.59,0,0,0-2.92,6.3,9.17,9.17,0,0,0,.21,4,9.61,9.61,0,0,0,1.83,3.47,16.81,16.81,0,0,0,5.38,4.09,38.83,38.83,0,0,0,5.59,2.27l5.47,1.87,5.54,1.7c1.43.26.7-.36,1.95-.22.51.15,1.7.44,1.65.65-1-.15-.53.18-.89.17a36.27,36.27,0,0,0,5.36,1.35c-.4-.19-.8-.37-1.19-.57a13.85,13.85,0,0,1,2,.46c-.26.08.44.56,0,.52,3.34,0,2.42.87,5.17,1.19.66-.47,4.13-.25,6.42-.26l1.14.35c-1.55-.27,0,.44-2,.07,1.58.45,3.12.45,4.62.81-.27-.2-.16-.38.46-.34.92.24.95.55,2,.73l-1.09,0a5.31,5.31,0,0,0,2,.18c.18.28,1.78.55,1.45.78,1.5-.12,2,.15,3.57.12-1.59-.45.46-.27.3-.49l-1.84-.13c2.56.48-.84-.06-.7.37-1.18-.37,1.75-.45-.28-.68,2.44.13,2.94.35,5.45.31-1.5-.1.31-.23-.47-.46,1.89.22.45.2,1,.54a6,6,0,0,0,2.37.16c1.66.3-.28.29.55.55a12.63,12.63,0,0,1-2.51-.21c-1-.13-1.94-.17-1.76.32-.88-.1-2,.12-3.25-.05a16,16,0,0,0,4,.7l.12-.51c1,.12,1.29-.23,2-.1-.41.11.28.4,1.12.44-.23-.1-.56-.11-.46-.2,1.55.11,1.79-.2,3.63-.14a31.38,31.38,0,0,1-3.18-.82c.41-.33,1,0,1.83.08-.13,0-.3,0-.07.13l.9-.09c1.88.3-.28.5,1.26.8,1,.39,1.49,0,2.3.19l-.15-.11.41.06,0,0a6.06,6.06,0,0,0,2.39-.15c.1.13.88,0,1.21,0a4.72,4.72,0,0,1,2.73.14h-.06c1.24.12,2.22.26,1.94.41l2,.16-.22.35a7.29,7.29,0,0,0,3-.65,18.62,18.62,0,0,0,4.48-.19,4.84,4.84,0,0,0,.72,0l-.76-.12c1.43,0,1.25-.2,2.19-.23-.2,0-.23,0,.3,0H105a1.12,1.12,0,0,1-.47,0l.18.11c1.15.35,1.75-.25,3-.15a3.12,3.12,0,0,1-.44.05c.69.07,1.69.56,2,.24a1.45,1.45,0,0,0,.63-.12l.51,0-.5,0c.31-.11.6-.24.64-.17h1.76a4.47,4.47,0,0,0,1.14-.08l.31.14c.64-.05.64,0,.57.08,2.24.43,3.42-.35,5.84,0,.44-.27-.55-.34-.63-.46a17.26,17.26,0,0,1,2.4-.61c1.08.29,4.37.43,3.87.95,2-.06-.63-.28.35-.49h.23a4.62,4.62,0,0,1-1.62-.34c-.16-.26,1.58-.42,2.11-.36l-.35.39c1.81-.23,1.4-.78,2.51-1.23,1.46.06.64.45,1,.77l1.52-.19v.28a10.46,10.46,0,0,1,2.58-.38c-1,.33,2.07.11.73.57.76,0,.94-.53,1.36-.19.51-.34-.69-.09-1.08-.16-.35-.4,1.65-.34,2.55-.53.1.22-.59.31.5.38a1.93,1.93,0,0,1,1.51-.22c0-.29,1.21-.15,1.82-.2-.69,0-1.7-.12-1.27-.39a8.67,8.67,0,0,1,2.18-.35l-.84,0c1-.52,1.77.12,3.2-.16a14.92,14.92,0,0,0-1.48.53c.67-.2,1.94-.54,3-.79l1.26.25c.13-.23,1.37-.17,1.33-.45,1.53,0-1.16.5-1.29.73,1.92-.07,1.45-.67,3.33-.49l-.56.34a15,15,0,0,1,1.89-.3c0-.09-.31,0-.69.06.28-.62,2.72-.87,2.39-1.4l-.83.1c1.25-.31,2.06-.9,3.06-.91.78,0-.43.5-.85.74,1.2-.22.83-.84,2.24-1.09-.76.07-.67-.16-.26-.41-.82.15-2.52.41-2.17.58h.3c0,.17-.47.32-.68.44-1.11.22-.57-.16-.81-.23-1.88.23,0,.6-1.76.88l-.24-.07c-.8.3-2.08.5-2.25.88-.81-.27-1.94.41-2.8.3-.26-.8,2.94-.34,3.86-.92-.93,0,.46-.46.8-.73-.92.3-1.86.52-2.79.77-.24-.08-1.13-.38-1.61,0h.23c-1.12.24-.77.55-1.77.54-.16-.06.13-.22.2-.28-.91,0-.73.26-1.33.4-.91,0,.42-.38-.35-.4-1,.43-1.67.1-2.57.22.44.45-3.57,1-1.56,1.2l-2.17.5c-.7-.19,1.46-.78.82-1.12l1.74-.13c-.34-.56-3.62.68-4.83.12a9,9,0,0,1-2.48-.05l.34.5c-.92-.06-1.24-.33-1.29-.42a13.3,13.3,0,0,1-1.52.09,1.47,1.47,0,0,1,.64-.21c-.71-.25-.9-.13-1.14,0a4.86,4.86,0,0,1-1.5.2l.51-.22c-.35.06-.78.15-.81.24-.24,0-.46.05-.68.09a3.27,3.27,0,0,0,1.39.45,36.38,36.38,0,0,1-5.64-.23c.06-.15.81-.38.58-.39-.91,0-1.89.28-1.8.5-.2,0-.36,0-.5,0a1.33,1.33,0,0,0-.83-.25,1.38,1.38,0,0,0-.58-.08c-.28.43-2,.31-2.41.5a10,10,0,0,0,1.43,0c-.72.31-1.37.65-1.94.44,1.35-.31-1.47-.38.58-.56-1.47-.48-.74.4-2.28.27l-1-.18c.14-.3,1.59-.2,1.36-.31l-.69.06c.68-.25,3.27-.18,4.84-.6-1.06,0-2.13,0-3.19,0-4,.5-9,.27-12.43,1h.15c-.06,0-.09.09-.14.2l-.15-.07-.67.24a33.18,33.18,0,0,0-3.44-.48c.77.17.77.17.85.39-.15.31-.26.44-1.41.35,0-.21.69-.22-.15-.37.43.09,0,.25-.45.29-.65-.12-1.71-.13-1.72-.35a1.9,1.9,0,0,1,.73,0c.28-.06-1.18-.17-.34-.36l-1.12.06c-.67-.18.44-.28.17-.39-1.89.13-2.89.6-4.63.69a1.09,1.09,0,0,0,.1-.45c-1.32-.2-2.88.41-4.41.35a5.59,5.59,0,0,1,1.26-.08,105.69,105.69,0,0,1-12.73-1.68l-1.18.36-1.09-.46c-1.13-.22-2.2-.38-3.23-.53s-2-.29-3-.4c-2-.21-3.94-.44-6.11-.73-1.35-.2-.74-.48-1.35-.72-2.91-.61-3.73-.23-6.54-.67.41-.07,1.15-.35,0-.61a1.27,1.27,0,0,1-1.18,0l.42-.06a17.45,17.45,0,0,0-2.75-.74,37.4,37.4,0,0,0-7.18-.87c-2.19-.63.37-.45,0-.66,1.51.58,1.1.2,1.48.12-.85-.08-1.87-.26-2.2-.71a17.21,17.21,0,0,0-2.84-.57c.59.06,1,.39.45.38-.89-.4-3.29-1-3-1.36l-2-.6-2.06-.7-4.23-1.46a19.68,19.68,0,0,1-7.14-4c-.34-.22-.26-.09-.14.06s.32.34.09.23c-.52-.33-.65-.54-.73-.73a1.93,1.93,0,0,0-.46-.68l.38.19a11.78,11.78,0,0,1-.89-1.69,4.87,4.87,0,0,1-.31-2c.2.27.52-1.05.38.1.05-.33.45-.61.81-.83s.73-.4.73-.68a13.07,13.07,0,0,0-1.35.22c-.1-.08.4-1,.31-.92a16.06,16.06,0,0,0,1.42-1.36c.36,0-.35.87-.64,1.39.19.15.5-.23.78-.53s.52-.51.46,0c.68-1.09-.32,0,0-.73a7.54,7.54,0,0,1,.8-.8,6.38,6.38,0,0,0-.69.55c.26-.44.36-.71.53-1a2.36,2.36,0,0,1,.34-.48,3.87,3.87,0,0,1,.68-.5c.23-.41.44-.86.72-1.27.36.2.87-.59,1.5-1l-.21.47a5.2,5.2,0,0,1,1.71-1c-.27.58-.78.43-.8.82l.95-.51c-.12-.17.35-.7-.36-.37a8.67,8.67,0,0,1,.93-1.26,12.17,12.17,0,0,1,2.17-1.55c1.18-.29-.9.92-.3,1A7.21,7.21,0,0,0,32.55,116a4.49,4.49,0,0,1,1.54-1.39c1.87-.78,1.59-1.07,3.44-2-.48.5,1.41-.38,1.85-.32l-.62.58c.53-.34,1.1-.51,1-.26-.25-.28,2.3-1.36,3.52-2.08l-.34-.17a26.72,26.72,0,0,1,3.45-1.64c1.59-.74,1.13-.82,2.28-1.6.79,0,.82.3.7.68a17.85,17.85,0,0,0-2,.58c-2,1.07-3.32,2.24-5.37,3-.58,1,1.31-.69,2.4-.85,0,0-.07.09-.15.13a1.29,1.29,0,0,1,.26-.08c-.7.36-1.82,1-1.87,1.4,1.16-.6.59-1,2.21-1.38a9.29,9.29,0,0,1,2.86-.73c.65-.53.48-1.06,2.38-1.67l-.68.68c2.1-.79.78-.93,2.75-1.62-.71.21.54-.59-.78-.14a10.89,10.89,0,0,1,3.1-1.24c.26-.16,0-.15,0-.3-1.27.17-1.78.92-2.89.9l-.68.69c-1.14.27-1.37,0-.76-.42a2.38,2.38,0,0,1-.8.31c-.41-.51,1.39-.3,1.59-.93l-.77.33c-.48-.27,1.7-1,2.72-1.33,1.21-.23,2.28-.52,2.45-.26l-1.49.65a15.55,15.55,0,0,0,2.81-1.08.66.66,0,0,0,.28,0,.13.13,0,0,1-.09,0,1.46,1.46,0,0,1,.54,0,24.83,24.83,0,0,1,2.66-.93l-.17-.23-.06.18c-.73.2-1.76.37-1.27,0a2.82,2.82,0,0,1,2.52-.19c-.25.51-1.6.48-2.38.88.62.22,1.67-.47,3.43-.74-.54.63-2,.59-2.2,1.1,1.38-.34,1.64-.75,3.1-1.08-.12.25-1.51.69-1.34.92l1-.16c-2.23.71.55.41-1.16,1,.87-.07,1-.69,2.29-.78-.38-.09-1.42-.14-.34-.65l1.31-.24c.6.06-1.2.83-.32.77l1.3-.52c-.08-.12-.74,0-.39-.29.81-.08,1.13-.85,2-1.29A3.86,3.86,0,0,1,69,102c1.74-.86,4.08-1.45,5.71-2.19-1.1.53.15.42.89.46-1.32.36-1.24.77-1.08,1,.8-.24,1.24-.78.79-.82,1.4-.15.88-.5,2.14-.5.81,0-.3.48,0,.57,1.48-.29.29-.57,1.92-.81-.08.07-.22.12-.08.17a3.42,3.42,0,0,0,1.93-.73c1,.33,2.6-.54,2.51,0,2.08-.53-.36-.23,0-.48a9.33,9.33,0,0,1,3-.51,8.13,8.13,0,0,1-1.48.35l.5.28c2.66-.22,1.53-1.09,4.12-1.19-1.28.39-.39.34-1,.69.38-.15,2.38-.36,1.14-.45a22.43,22.43,0,0,1,2.3-.17,10.6,10.6,0,0,0,2.2-.77,11.39,11.39,0,0,1,3,.1,29.37,29.37,0,0,1,4.14-.43,35.52,35.52,0,0,0,4.26-.34h-.22c2.32,0-1-.45,1.36-.52-.3.45,1.46.25,2.24.46,1.48,0,2.74,0,4-.07.62,0,1.24-.07,1.87-.07a15.06,15.06,0,0,1,1.94.18c0,.09-.21.19-.73.18,1,.12,2,.17,2.86.21s1.78.13,2.7.22l-.09,0a21.19,21.19,0,0,0,2.17.34c.7.11,1.41.18,2.12.24l2.15.16,2.22.3c-.26,0-.35.17-.55.19.74.21,1.72.4,2.63.6A7.91,7.91,0,0,0,135,99c1.65.87,1.21.19,3.29,1.31.11.11-.24,0-.39,0,1,.51,1.83.67,2.85,1.19,2.43.7,3.31.37,5.81,2-.16.59-1.66-.73-1.94-.32a4.16,4.16,0,0,1,1.7.81c-.53,0-.17.08-.56.11.45.42,2.43.69,2.39.75s0-.25-.55-.53c.79,0,2.44,1.52,3.62,2.29-.34-.3-1.45-1.25-.84-1.16,1.46,1.25,2.31,1.21,3.5,2,1.13,1.42-1.33-.52-1.36,0,.12.31.42,1-.24.67,1.1,1.09,2.14,1.61,3.14,2.61l-.11.05c1.35,1.39,3,2.8,3.76,4.32l-.39-.81a12.55,12.55,0,0,0,1.29,1.42c-.2.06.33,1.25-.09.89a6.09,6.09,0,0,1,1.8,2.1,9.48,9.48,0,0,0,1.7,2.32c.07.57-.34.28-.53.19-.51-1.16-.59-1.6-1.11-2.08.48.94.66,1.7.46,1.62.84.75,1.93,3,2.46,3.39.09.8.22,1.52-.18,1.37,1.12,3,.51-1.86,1.57,1.68.1,1.7-.83-1.47-.37.79l-.15-.4c-.23.91,0,1.14.3,1.4a1.84,1.84,0,0,1,.89,1.46c-.43.32-.53-1.23-.66.1a6.55,6.55,0,0,0,.34,1.08c.12.33.23.63.33.92a4,4,0,0,1,.3,2.09l-.19-.27a11.18,11.18,0,0,1-.13,2.13c-.06.4-.1.79-.16,1.15s-.17.67-.22.93c-.1,0-.05-.12,0-.32a5.82,5.82,0,0,0-.33,1.3c0,.16,0,.28-.48,1l0,.52a14,14,0,0,0,.8-1.44,5.15,5.15,0,0,0,.35-1.78c0,.53.26.18.5-.28s.47-1,.64-.7l-.14-.23c1-2.8.76-6.71,0-10.31a7.81,7.81,0,0,1-.64-1.53c-.18-.49-.33-1-.47-1.45a11.57,11.57,0,0,0-1.26-3c-.64-.13-.29-.37-1.33-2.24.55,1,.45-.08.15-.74a6.69,6.69,0,0,1-.91-1.14c0-.46-1.1-3-2-3.61-.61-1.18.32.15.57.32-.07-.6-.79-.75-.89-1.22,0,0,.06,0,.17.08-.6-.81-1.1-1.45-1.56-2.13s-1-1.32-1.7-2.13c-.5.23-1.59-1.36-2.43-1.85.35.08-.75-.94-1.16-1.4-.37-.14-.76-.26-1.13-.39-1.09-.4-1.09-1.14-2.4-1.79l.23.27a29.36,29.36,0,0,1-4-2.85c-1.14-.45-2.22-.84-3.25-1.19s-2-.77-2.93-1.09c-1.9-.63-3.64-1.35-5.46-1.89a47.72,47.72,0,0,0-12.4-2.57c-.67.11.45.31-.08.51-1,0-1.25-.07-2.18-.15.81.22.69,0,.57.17l1.43,0c.07,0-.09,0,0,.14a10.28,10.28,0,0,1,1.66,0c-.9.06-1.18.44-2.36.18a1.47,1.47,0,0,1,.57,0,16.07,16.07,0,0,1-1.78-.11c-.9-.17-.69,0-.79-.21l-2.82-.34a9.15,9.15,0,0,1-3.6-.11c.31-.35,1.87-.12,2.58-.41l-1-.3-.06.28-1.46-.08.08,0a.77.77,0,0,1-.72.12c-.07,0-.21-.12,0-.13l-1,.15c.61-.29-.91-.09-.76-.43a22.93,22.93,0,0,0-3.8.21,17.68,17.68,0,0,1-3.5.07c.49.13-.91.6-1.82.6-.54-.05-.68-.12-.35-.27-.4.09-.79.17-1.18.27-1.55-.37-3,.09-5.19.17l.1-.17a11,11,0,0,1-2.87.64l.19-.33c-1.52,0-1.06.75-2.72.82.06.32,1.11.32,1.31.6-.43-.27-2.18,0-1.74.12-1.6.39-1.13.17-1.28.12l-.92.34c-1.14.16-.43-.36,0-.6A11.17,11.17,0,0,1,83.8,95l.47-.23-1.6.24a14.5,14.5,0,0,1-3.77.89l.83-.6c-1,0-.45.24-.68.36a4.41,4.41,0,0,1-2.64.23C74.17,96.84,71.56,96.26,69.72,97.41Zm44,54.07-.22,0C114,151.34,114.28,151.26,113.72,151.48Zm-13.09.24c1.57-.2,1.07,0,1.2.13-1.56-.08-2.42.07-3.8,0a.67.67,0,0,1,.34.26,2.13,2.13,0,0,1-1.3-.31C97.77,151.35,101.31,152,100.63,151.72ZM130,148.53l-.18.1h0Zm-7.76.79a1.05,1.05,0,0,0-.54-.15A.67.67,0,0,0,122.22,149.32Zm-15.51,0a4.86,4.86,0,0,0-1.77,0C105.21,149.32,105.71,149.37,106.71,149.35Zm-87.1-22.6c-.11.42-.16,1.19.18.58-.05-.37.46-.86.39-1.22,0,0,0,0,.05,0A3.64,3.64,0,0,0,19.61,126.75Zm37.85-23.33c0,.19-.29.48,0,.53l-.13,0c.13,0,.24,0,.16.1a4.68,4.68,0,0,0,1-.3C58.39,103.2,59.11,102.87,57.46,103.42Z"/><path class="cls-4" d="M43.93,110.91l.38-.17Z"/><path class="cls-4" d="M58.37,103.8a4,4,0,0,0-.95.15A2.48,2.48,0,0,0,58.37,103.8Z"/><path class="cls-4" d="M155.41,147.64l-.44.15.94,0c1.47-.52,1.48-.78,1.78-1.13a20.34,20.34,0,0,1-3.84,1C154.37,147.66,154.89,147.66,155.41,147.64Z"/><path class="cls-4" d="M154.28,146a3.08,3.08,0,0,0-.79-.15l-.19.21Z"/><path class="cls-4" d="M136.45,147.28l1.44,0C138.33,147.13,136.65,147,136.45,147.28Z"/><path class="cls-4" d="M143.1,149.67l.74-.26c-.7-.08-1.61,0-1.74.25C143,149.46,142.34,149.75,143.1,149.67Z"/><path class="cls-4" d="M132.6,147.53c-.43.36-1.45-.06-1.73.28C131.24,147.69,132.55,147.87,132.6,147.53Z"/><path class="cls-4" d="M133.83,150.68c.48.3,1.22-.05,2.14-.05C135.21,150.7,134.12,150.44,133.83,150.68Z"/><path class="cls-4" d="M124.94,148.94c.06-.25.67-.26,1.36-.23a3.73,3.73,0,0,1-.68.26c1.13-.25,1.21-.21,2.11-.38-.91-.1-2.29-.17-2.16-.47C124.91,148.38,124.09,148.76,124.94,148.94Z"/><path class="cls-4" d="M131.63,150.86a11.91,11.91,0,0,0,2.15.16c-.17-.16-.49-.38-1.55-.28l.36-.3C131.59,150.29,133,150.79,131.63,150.86Z"/><path class="cls-4" d="M120.73,148.48l.46.11c1.06-.27,2.43-.23,3-.61A18.66,18.66,0,0,0,120.73,148.48Z"/><path class="cls-4" d="M127.86,150.57l-.12.4c1.07,0-.09-.13.29-.24a2.61,2.61,0,0,0,1,0C127.81,150.82,128.92,150.37,127.86,150.57Z"/><path class="cls-4" d="M124.39,151.18l-1.36.23,1.09.38C125.71,151.57,124.18,151.54,124.39,151.18Z"/><path class="cls-4" d="M122.69,151l-.15-.06-2,.68A13.33,13.33,0,0,0,122.69,151Z"/><path class="cls-4" d="M97.82,149.21c-.23.18,1,.36.46.18C98.49,149.25,96.93,149.06,97.82,149.21Z"/><path class="cls-4" d="M102.78,152.26a16.5,16.5,0,0,0-3.33.31C100.45,152.47,102.92,152.49,102.78,152.26Z"/><path class="cls-4" d="M99.11,152.62l.34-.05Z"/><path class="cls-4" d="M63.64,150.58a.76.76,0,0,0-.26,0Z"/><path class="cls-4" d="M64.49,150.62a4.09,4.09,0,0,0,1.92.06c-.9,0-1.7-.1-2.77-.1C64,150.62,64.49,150.83,64.49,150.62Z"/><path class="cls-4" d="M56.47,149.09c.44,0,1,.15.88,0S56.21,148.92,56.47,149.09Z"/><path class="cls-4" d="M24,122.83c.58-.4.83-.73.53-.79C24,122.58,24.41,122.4,24,122.83Z"/><polygon class="cls-4" points="25.23 121.41 25.39 121.45 25.88 121.3 25.23 121.41"/><path class="cls-4" d="M29.58,118.78a.69.69,0,0,1-.21.26C29.6,118.86,29.8,118.7,29.58,118.78Z"/><path class="cls-4" d="M29.26,119.13l.11-.09Z"/><path class="cls-4" d="M28.93,119.24l0,.14a3.64,3.64,0,0,1,.31-.25C29.14,119.21,29,119.27,28.93,119.24Z"/><path class="cls-4" d="M30.92,118l-1,.2c-.78.69,1.09-.45.44.42Z"/><path class="cls-4" d="M33.86,116.22c.89-.34,1.85-1.48,2.53-1.34,2.33-1.41-.9-.4,1.83-1.9-2.76,1.06-1,1.42-3.39,2.37C36.07,115,34.17,115.92,33.86,116.22Z"/><path class="cls-4" d="M33.11,115.79c0,.26,1-.3,1.31-.6C34.09,115.33,33.4,115.34,33.11,115.79Z"/><polygon class="cls-4" points="38.49 113.67 39.31 113.47 39.45 113.25 38.49 113.67"/><path class="cls-4" d="M41.38,112.43l-.63.57C41,112.8,42.07,112.33,41.38,112.43Z"/><path class="cls-4" d="M45.54,111c.73-.2,1.15-1-.29-.29l.35-.12C45.55,110.72,46.43,110.58,45.54,111Z"/><path class="cls-4" d="M54.74,106.52c-.5.17-1.07.45-.92.53l1.32-.6Z"/><path class="cls-4" d="M54.06,105.22c-.58-.17-1.28.49-2.23.7A15.69,15.69,0,0,0,54.06,105.22Z"/><path class="cls-4" d="M56.47,106.48a3.66,3.66,0,0,1-1.28.46A1.66,1.66,0,0,0,56.47,106.48Z"/><path class="cls-4" d="M58.61,105.64c.5,0,0,.23.34.21a6.8,6.8,0,0,0,2.51-.84c-.3-.07-.78-.37-.43-.66-1.52.59-2.09,1.49-3,1.24l-1.08,1C58.2,106.31,57.75,105.89,58.61,105.64Z"/><path class="cls-4" d="M55.12,105.53l.9-.07c-.23-.14.38-.38.8-.59C56.46,104.5,55.58,105.35,55.12,105.53Z"/><path class="cls-4" d="M67.13,102.8c.58-.2,1.16-.4,1.74-.58l-.58.12Z"/><polygon class="cls-4" points="68.3 102.63 68.38 102.74 69.68 102.16 68.3 102.63"/><polygon class="cls-4" points="70.21 102.3 69.99 102.33 68.97 102.72 70.21 102.3"/><path class="cls-4" d="M73.94,101.45l-.37-.11c-.45.15-1.4.17-1.25.4A3.6,3.6,0,0,1,73.94,101.45Z"/><path class="cls-4" d="M85.5,94c-.31.19-.09.26.13.34l.48-.42A1.47,1.47,0,0,1,85.5,94Z"/><path class="cls-4" d="M87.83,94.16l1.32-.59a26,26,0,0,0-3.14.8c.6,0,1.38-.37,2.13-.39Z"/><path class="cls-4" d="M115.7,92.38c-.14.25.18.21-.86.35a41.24,41.24,0,0,1,4.28,0c-.27-.17,1-.38.33-.34l-1.83.06.28-.15C116.63,92.1,117.06,92.58,115.7,92.38Z"/><path class="cls-4" d="M166.86,133.45c-.14-.16-.21.06-.33.27C166.64,134.73,166.85,133.25,166.86,133.45Z"/><path class="cls-5" d="M171.6,124c.35-18.18,21.84-30.66,33.32-29.81,1.3.09,5.05.37,6.14,2.63,1.37,2.87-2.33,7.34-3.51,8.76-4,4.88-8.19,5.88-7.89,7,.39,1.49,7.59-.06,17.53.88,4.9.46,14.86,1.4,15.79,5.26.72,3-4.37,6.63-6.14,7.89-13.44,9.55-30.28,6.53-30.69,9.64-.29,2.22,8.29,3.49,9.65,9.65a6.94,6.94,0,0,1-.88,5.26c-1.82,2.52-5.47,2.6-7,2.63-10.12.2-18.16-9.94-19.28-11.4C176.62,139.79,171.43,133.07,171.6,124Z"/><path class="cls-6" d="M171.16,123.41c0,.84.25-.45.07.55A.5.5,0,0,1,171.16,123.41Z"/><path class="cls-6" d="M171.39,126.74c.46,1.31.72,2.81,1.14,4.34a14.08,14.08,0,0,0,1.75,4.29c.17.29-.38.08.05.73,1.7,2.32,3.94,6.1,6,8.92l-.22-.08c.4.54,1.2.89,1.67,1.4,0,.06-.23-.08-.18.1.27,0,1,.81,1.32.89.15.24,0,.35.23.66l.46.08c1.2.28,2.06,1.75,3.52,2.32-.09,0-.24,0-.17.07,2.21,1,4.93,2.46,7.62,2.81-.12.06-.25.2-.11.31.18-.23,1-.13,1.72-.1.31.25,1.23-.16,2.06,0l-.07.05c.61-.28.94.12,1.41-.25l.41.15c.21-.38.91,0,1.37-.27l0-.07c.43-.21.73-.11,1.11-.35l.05,0c.9-.5,1.44-.78,1.25-1,.21,0,0,.15-.12.32s-.3.31,0,.29a5.73,5.73,0,0,0,1.56-2.07,6.68,6.68,0,0,0,.51-2.53,7.4,7.4,0,0,0-1.62-4.82,3.37,3.37,0,0,1-.29-.72,5.44,5.44,0,0,0-1.33-1c.09.07-.08-.25-.23-.38-.45-.47-.74-.16-1.25-.65.28.09.41.07.39-.07a12.7,12.7,0,0,1-1.94-.88c.12,0,.28.07.3,0-.8-.17-1.2-.73-1.89-1h.32c-.76-.7-.53.1-1.27-.56.25.12.24,0,.34,0a2.17,2.17,0,0,1-1.32-1.14,1,1,0,0,1,.13-.87,2,2,0,0,1,.55-.53s0,.06,0,.06a12.59,12.59,0,0,1,3.08-.9c.39,0-.07.41.93.21-.08-.32,1.7-.34,1.06-.63a16.73,16.73,0,0,0,2.81-.26c-.37.17.47.34-.25.45l.57.13c-.07.14-.57,0-.37.17.36-.05,1.39-.31,1.72-.31a8.33,8.33,0,0,1,2.25-1c-.48.2.35.3,0,.41l1.38-.87c.35-.08.13.24.62.06,0-.08.17-.18.31-.28s1.43-.39,1.66-.11c.18.09-.56.19-.14.22.65-.15.65-.27,1.29-.43l0,0c.44-.07,1.21-.47.71-.52-.3.07.16.16-.3.19a4.73,4.73,0,0,1,1.6-.71c-.2.11-.15.19-.21.3a27,27,0,0,1,2.52-1.3c0-.15-.24.39-.41.36,1.27-.23,2.32-1.2,3.39-1.37-.15.1-.18-.16-.15-.12.56-.24.63,0,.94-.28.1.1.43-.26.77-.48.15-.17.13,0-.18.18a35.75,35.75,0,0,1,3.48-2.21c-.07-.06.48-.7.73-.88l0,.23c.3-.06.81-.6.95-.5.39-.56-1.89,1.62-1.3,1,.29,0,.81-1,.82-.63.48-.37.81-.89,1.37-1.11-.15.08-.21.53.16.21.64-.57.13-.23.61-.73l.27-.34c-.1-.16.57-.49.19-.44.2,0,.78-.91.94-.64l.11.26c.24-.28.2-.62.28-.9.05,0,.15-.06.17,0-.27-.28.52-.65.43-1.14a2.59,2.59,0,0,0,.45-.93,2.29,2.29,0,0,1,.08-.41.43.43,0,0,1,.09-.28,7.2,7.2,0,0,0-.8-1c.11,0,.21.14.29.11-.14-.33-.29-.32-.58-.47.11,0-.48-.63-.85-1-.57-.15-.48.13-.58.22-.32-.58-1.57-.36-2.1-.87.21,0,.87.07.44-.16-.41-.53-1.12,0-1.92-.41l.13.36c-.33-.29-1.29-.09-1.13-.39-.31,0-1-.3-1,0-1.37-.52-3.49-.36-4.32-1-.21,0-.72-.08-.63.09.32.21.49-.07.61.06-.19,0-.24.07-.26.11-.45-.12-.8-.17-.35-.39-1-.29-1.09.42-2.35.18.06-.12,0-.18-.4-.19l-.72.17c-.82-.12-.45-.33-.46-.55A2.91,2.91,0,0,0,214,114l-.53-.3c.39.22-.37.12-.58.16l.21,0c-.07-.1-.59-.06-.85,0,.06.14.58.21.86.26-.23.09-.58.05-.88.16.11-.21-.72-.17-1.07-.2s-.45.19-.57.18-.66,0-.34-.18c.13,0,.31.11.54,0-.27-.09-.24-.28-.79-.14s.11.42-.68.29c.21-.06.24-.14.4-.22l-.74-.11,0,.2c-.1,0,0-.07-.08-.1-.21.21-1.12.08-1.29.32-.37,0-.79-.12-1.15-.13l.07,0a2.5,2.5,0,0,0-1.39.13l0,0a4,4,0,0,0-1.15.16c-1-.13-.18-.73-1.17-.47-.79,0-1.58.29-1.33.44a9.21,9.21,0,0,1-1.87-.43,1.5,1.5,0,0,1-1.06-1.08,1.13,1.13,0,0,1,.1-.43c-.05-.15-.12,0-.09-.33a3.82,3.82,0,0,1,.64-1l.59-.58.77-.58,1.63-1.08a4.78,4.78,0,0,1,.93-.47c-.31.34.1.17.17.25.19-.36.47-.14.39-.46-.14-.11-.17-.2-.55,0a16.47,16.47,0,0,1,2.17-1.83c-.24.13-.14,0,0-.23.15.24.67-.21.93-.67l-.08-.17.35-.14c.09-.18-.13-.38.33-.69a.33.33,0,0,0,.24,0,4.69,4.69,0,0,1,1-1.63l.47-.24c.12-.22.21-.65-.08-.33.66-.73.94-1.27,1.27-1.44a11.18,11.18,0,0,0,.26-2.56,1.91,1.91,0,0,0-.92-1.58l.11-.08c-.3-.31-.29.08-.5-.13.18,0-.19-.38.19-.37-.55-.41-.88-.12-1.32-.18-.11.14.38,0,.23.17s-.89-.37-1-.13c-.16-.13,0-.29.12-.37l-.45,0c-.51-.4,1.33-.3.83-.76-.14,0-.29,0-.43,0-.38-.34,1.2-.07.12-.37-.5,0-1,.35-.55.52-1,0-.5.54-1.55.44-.27-.18.85,0,.66-.2-.48-.26-1,.06-1.41,0,.47.11.06.35-.24.39-.51-.1.34-.25-.4-.25-.12.15-.78.28-.2.36-.24.33-.76-.05-1.13.25-.27-.21.71-.61-.12-.65.15.2-1,.42-.49.7-.32,0-.38-.19-.17-.36-.48-.08-1,.57-1.26.17l-.11.26c-.15,0-.37-.06-.63-.14-.4.09-1.19.62-1.25.28-.12.06-1,.32-.6.45.59,0,.59-.37,1-.12-.46-.17-.79.25-1.08.43l-.09-.11c-.18.1-.62.21-.69.39.12-.12,0-.18-.15-.16l-.13.26c-.72.36-.3-.29-1,0l.51-.35c-.11.07-.43,0-.77.18-.07.23-.25.54-.31.72-.38.24-.27-.13-.59.22.14-.15.29-.28.44-.42s-.48-.16-1,.1c-.33.21-.76.69-.16.55-.28.12-.71.18-.55,0-.58.35.17.15-.31.5-.27,0-1,.15-1.5.21.13-.19.26-.38.4-.56l-.37.18c.37-.47-.32,0-.18-.42a2.57,2.57,0,0,0-.74.53c.93,0-.54.94-.13,1.17-.91.66-1.1-.48-1.78.67.22,0-.09.52.44,0-.61.34-.19.58-1,.88.43-.46-.76,0-.14-.64,0,.14.46-.18.56-.28-.32,0-.16-.37-.77,0-.35.27-.84.62-.65.74s.54-.4.43-.06c-.67.56-1,.36-1,.89.42-.34.67-.22.75-.1l-.47.44,0-.19c-.88.51-.09.39-.89.94l-.55,0c0-.35,1.22-.77.83-1-.52.37-.58.65-1.11,1,.08-.11.22-.24.3-.35-.19.13-.7-.14-1.22.68-.3.39,0,.19.08.32-.75.71-.88,1-1.35,1.48-.1-.31-.86.79-.54.06a4,4,0,0,0,1.55-1.56c-.52,0,.66-.49.61-.9-.66.52-.85.23-1.1.14a1.71,1.71,0,0,0-.38.49c.07.22.29,0,.45.18a5.13,5.13,0,0,0-1.55,1.77c-.3.14-.38-.08-.12-.35L179,107.66c.71-.29-.7.94-.17.78.41-.39.93-.57.84-.24-.24.24-.11-.11-.26,0-.15.45-.67.33-.71.86.53-.85-.21-.42-.31-.74-.34.67-.13-.14-.59.43s-.76,1.47-1.16,2.17a9.66,9.66,0,0,0-1.73,3c-.34.36-.47-.06-.75.38s.49-.27,0,.49l0-.1c0,.28-.85,1.45-.49,1.86l-.23-.38a1.12,1.12,0,0,0-.07.47c-.11,0-.27.13-.24-.16-.41.46-.36,1.13-.5,1.73l.29-.33a7.49,7.49,0,0,1-.31,1.35,10.49,10.49,0,0,0-.28,1.32l-.19-.06a4.16,4.16,0,0,0,0,.61c-.17-.17-.36.36-.25.7-.08-.54-.2-1.09-.24-1.64.2-.41.14.52.38.28a1.65,1.65,0,0,0,.19-1.32,1.57,1.57,0,0,0,0,.67c-.28.06-.17-.48-.29-.79,0,.19-.16.44-.08.5a3.15,3.15,0,0,1,.17-1.38c0,.43.22-.18.26,0-.21-.1-.15-.72.18-1.43a1.91,1.91,0,0,0,.37-1,5.69,5.69,0,0,1,.39-1.26,3.86,3.86,0,0,1,0,1.47c.32-.46.23-.57.56-1a1.83,1.83,0,0,1,0-1.32l.17,0c.22-.63,0-.77.44-1.49.77-1.24,1.64-2.47,2.31-3.36l.17.08c.06-.73,1.15-1.71,1.59-2.43,1-1,2-2.35,2.76-2.62a28.06,28.06,0,0,1,5.65-4.57l-.23.45c.29-.41.33,0,.69-.31-.54.11.39-.57.59-.86A15.76,15.76,0,0,0,191,96.51l.11.14a8.52,8.52,0,0,1,3.29-1.39,1.52,1.52,0,0,0,.79-.06A7.16,7.16,0,0,1,197,94.13a13.78,13.78,0,0,1,2.73-.46A13.64,13.64,0,0,1,204.1,93a21.77,21.77,0,0,1,4.58.53l.16.28A4.93,4.93,0,0,1,211.22,95a4.25,4.25,0,0,1,1,1.24c.1.25.19.51.28.76a7.21,7.21,0,0,1,.12.77,6.78,6.78,0,0,1-.41,2.65c-.25.77-.57,1.42-.82,2l-.2-.39c-.46.65-.84,1.59-.52,1.56-.52.61-1,1.72-1.54,1.92-.55.58-.47.84-.89,1.39l-2.69,2.6.3-.23c.07-.17,0-.29-.31-.06-.36.46-1.68,1.21-1,1.21q-.27.15-.54.33l-.31.2a1.86,1.86,0,0,0-.25.22c-.14.16-.24.18-.72.47a.65.65,0,0,1,.34,0,.6.6,0,0,0,.19,0,.93.93,0,0,0,.26.18.55.55,0,0,0,.46-.05c.05.06-.16.2,0,.21s0-.15.13-.22c2.16-.28,4.45.1,6.47.06a43.49,43.49,0,0,1,5.47.07c1.83.15,3.57.34,5.3.53l-.05.08c1.2-.18,2.65.7,3.65.39.26.13,1,.25.8.37,1,0,2.51.78,3.93,1a.78.78,0,0,0-.35-.08c.64.32,1.27.57,1.91.88a5.47,5.47,0,0,1,1.9,1.43c-.15-.1-.41-.32-.51-.27a7.92,7.92,0,0,0,.83.77c.28.28.49.61.38.89.16.4.31.23.2,0a4.43,4.43,0,0,1-.11,3.2,9.44,9.44,0,0,1-1.42,2.38,23,23,0,0,1-3.64,3.56c-2,1.18-.51-.47-1.85.84-.17,0,0,.19-.07.13-.53.51-1.18.24-1.49.68.31.1-.21.29-.14.43a10.75,10.75,0,0,0-2.6,1.2l0-.16c-1,.95-2.51,1.36-3.4,2.17a55.77,55.77,0,0,1-10.38,2.93c-1.74.32-3.48.58-5.19.81l-2.55.34-1.24.19c-.36,0-1,.17-.81.14,0,0-.07,0-.09,0s0,.05.05.07l1.59.89c.76.44,1.54.91,2.31,1.46a11.57,11.57,0,0,1,4,4.51,8.91,8.91,0,0,1,.78,3.1,9.07,9.07,0,0,1-.34,3.2,10.1,10.1,0,0,1-1.18,1.88,8.37,8.37,0,0,1-1.57,1.75c0-.1.15-.2,0-.15.05.16-.28.39-.63.6s-.72.38-.76.54a13.15,13.15,0,0,1-4.25.91l-1,.05-1,0-1.07,0-1.07-.16c.46,0,.71-.16.18-.22l-.6.09-.07-.1c-.38,0-.81,0-.45.21a21.88,21.88,0,0,1-9.53-4.68,45.32,45.32,0,0,1-7.12-7.34c-.87-1.3-2.29-3.12-3.22-4.61a36.06,36.06,0,0,1-3.65-14.68,2.24,2.24,0,0,1,.4.62A8.51,8.51,0,0,1,171.39,126.74Z"/><path class="cls-6" d="M171.19,122.39c.14-.17.31-.74.43-.26C171.48,122.17,171.31,122.46,171.19,122.39Z"/><path class="cls-6" d="M178.3,109s.18-.14.23-.16c-.11.15-.12.36-.27.43C178.37,109.1,178.3,109.08,178.3,109Z"/><path class="cls-6" d="M180.9,106.16c.06.13-.44.79-.76,1.15Z"/><path class="cls-6" d="M183.87,104.14c.31-.11.28,0,0,.25C183.77,104.36,183.85,104.24,183.87,104.14Z"/><path class="cls-6" d="M183.88,103.76a1.2,1.2,0,0,1,.55-.26C184.36,103.42,183.94,104,183.88,103.76Z"/><path class="cls-6" d="M190.47,99.76c.16-.09.46-.38.68-.33C190.93,99.43,190.44,100,190.47,99.76Z"/><path class="cls-6" d="M193.6,98a.67.67,0,0,0,.27-.13c.21,0,0,.15-.11.23Z"/><polygon class="cls-6" points="226.84 115.86 226.45 115.83 226.53 115.72 226.84 115.86"/><path class="cls-6" d="M215.93,130.85c-.35.19-.29,0-.36,0C215.9,130.7,215.49,131,215.93,130.85Z"/><polygon class="cls-6" points="200.48 134.26 200.6 134.24 200.59 134.51 200.48 134.26"/><text class="cls-7" transform="translate(49.68 131.83)">好友列表</text></g></g></svg>