<svg xmlns="http://www.w3.org/2000/svg" viewBox="0 0 86.2 84.87"><defs><style>.cls-1{font-size:9.83px;font-family:jf-openhuninn-1.1;}.cls-1,.cls-5{fill:#040000;}.cls-2{fill:#eaa092;stroke:#fef5e9;stroke-miterlimit:10;stroke-width:6.2px;}.cls-3{fill:#e14848;}.cls-4{fill:#fef5e9;}.cls-6{fill:#f2e634;}.cls-7{fill:#f5d021;opacity:0.11;}.cls-8{fill:#efea3c;}</style></defs><g id="圖層_2" data-name="圖層 2"><g id="圖層_1-2" data-name="圖層 1"><text class="cls-1" transform="translate(28.85 65.17) scale(1.02 1)">探索</text><ellipse class="cls-2" cx="43.1" cy="42.44" rx="40" ry="39.34"/><text class="cls-1" transform="translate(33.85 65.17) scale(1.02 1)">探索</text><path class="cls-3" d="M52.91,31.77,48.4,35.65,54,35.37l-.29,3.88,4-3.33,5.63.83L60,32.87l3.1-5-4.51,1.94-1.12-6.1c-.85,2-1.69,4.06-2.54,6.1L51.5,28.44Z"/><path class="cls-4" d="M38.82,50.05c0-7-1.73-9.8-3.38-11.08-.46-.36-1.61-1.13-3.52-2.63-1.53-1.2-2.74-2.23-3.52-2.91a8.3,8.3,0,0,1-1.55-3.19,8.19,8.19,0,0,1,0-3.88,1.14,1.14,0,1,1,2.25.28,9.09,9.09,0,0,0,.44,1.62,10.78,10.78,0,0,0,1,2,12.48,12.48,0,0,0,4.38,3.7.52.52,0,0,0,.73,0,.51.51,0,0,0-.24-.72A12,12,0,0,1,31.21,22.9a4.42,4.42,0,0,1,3.67-3.33,2.18,2.18,0,0,1,2.67,1.25A2,2,0,0,1,37,22.76a2.9,2.9,0,0,0-1.41.83,2.77,2.77,0,0,0-.7,1.53,9.48,9.48,0,0,0,.7,2.63c.27.63.2.27,1.13,1.94.41.73.61,1.15,1.11,1.36.11.05.68.3,1,0a.82.82,0,0,0,0-1A9.13,9.13,0,0,1,38.12,25a7.25,7.25,0,0,1,2.39-4.57,4.6,4.6,0,0,1,3.81-1,4.28,4.28,0,0,1,2.25,1.38,1.5,1.5,0,0,1-.28,1.66A1.61,1.61,0,0,1,45,22.9a3.13,3.13,0,0,0-1.83.14,3,3,0,0,0-1.41,1.11c-.1,1-.21,1.71-.28,2.21a2.85,2.85,0,0,0,0,1.33c0,.12.29,1,.74,1.06.8.14,1.26-2.26,3.21-3.77a6.39,6.39,0,0,1,3.24-1.25,2.68,2.68,0,0,1,2.68.42,2.23,2.23,0,0,1,.7,1.24,3.73,3.73,0,0,1,.43,2.08,3.65,3.65,0,0,1-.57,1.66c-.79.8-1.33.9-1.69.83s-.46-.26-1.41-1.1a4.49,4.49,0,0,0-1.26-1c-.93-.17-1.91,1.14-2.4,1.8a9.6,9.6,0,0,0-1.69,3.88,6.31,6.31,0,0,0,.85,5,6.73,6.73,0,0,0,5.07,2.78l1.41-1.67L52.2,38a1.64,1.64,0,0,1,2,0,1.46,1.46,0,0,1,.42,1,7.34,7.34,0,0,1-.7,2.91,8.36,8.36,0,0,1-2,2.49c-1,1-2.11,2.82-2.39,6.24"/><path class="cls-5" d="M31.35,28.91c0,.07,0,.1,0,0Z"/><path class="cls-5" d="M42.37,26.69v0l0,.1Z"/><path class="cls-5" d="M46.27,23.58l0,0S46.32,23.54,46.27,23.58Z"/><path class="cls-5" d="M37.59,24a.69.69,0,0,0,0,.16Z"/><path class="cls-5" d="M29.94,27.25v0Z"/><path class="cls-5" d="M30,27.4c0,.18,0,0-.06-.11a2.41,2.41,0,0,0,.14.59S30,27.5,30,27.4Z"/><path class="cls-5" d="M38.1,46.68l0-.08Z"/><path class="cls-5" d="M39.34,23.6l0,.11Z"/><path class="cls-5" d="M37.14,42.29l-.06,0S37.13,42.3,37.14,42.29Z"/><path class="cls-5" d="M42.4,26.84v.06S42.4,26.86,42.4,26.84Z"/><path class="cls-5" d="M53.25,27s0,0,0,0v0Z"/><path class="cls-5" d="M51,45.46h0l.06-.16Z"/><path class="cls-5" d="M45.29,30.43a.23.23,0,0,1,0,0c.11-.14.39-.54.78-1l0-.07A12.45,12.45,0,0,0,45.29,30.43Z"/><path class="cls-5" d="M46.5,41.53a7.59,7.59,0,0,1-1.11-.77A8.35,8.35,0,0,0,48,41.9l.61.12.4.06.47,0h.23c.07,0,.11-.1.17-.15l.3-.34.41-.48,1.31-1.53.68-.83.15-.18,0,0a1.34,1.34,0,0,1,.32-.13l-.1,0a1,1,0,0,1,.63,0c.13.07.35.19.26.78a5.63,5.63,0,0,1-.94,2.58h0a1.48,1.48,0,0,1-.25.4,7.68,7.68,0,0,0,.47-.65,4.81,4.81,0,0,1-.79,1.34c-.11.1-.16.12-.18.12l-.6.61a7.76,7.76,0,0,0-.66.73,6.14,6.14,0,0,0-.43.45,3.17,3.17,0,0,0-.23.56c-.07.2-.22.49-.57,1.21.32-.51-.21.75-.08.59,0,.07-.11.23-.17.36a11.7,11.7,0,0,0-.43,3,15.36,15.36,0,0,1,.39-1.83,10.1,10.1,0,0,1,1-2.38c-.51,1.14-.12.3,0,.1v-.09a4.35,4.35,0,0,1,.64-.92h0l0,0s0,0,0,0,0,0,.11-.21l0,0a5.06,5.06,0,0,1,.68-.84l.05,0c.13-.26.87-.81,1.48-1.53a6.42,6.42,0,0,0,1.16-2,4.37,4.37,0,0,0,.29-1.22c0-.22,0-.45,0-.68a1.83,1.83,0,0,0-.14-.76,1.57,1.57,0,0,0-.56-.65l-.27-.16a.83.83,0,0,0-.53-.17c-1.1.06.22,0-.21.08a1.84,1.84,0,0,0-1.23.46c.29-.32.43-.31.38-.33a1.49,1.49,0,0,0-.26.11c-.28.27-.38.41-.59.64l-.56.61a4.73,4.73,0,0,0-.69.89c-.43.46-.68.72-.81.84l-.11.09-.05,0h-.08c.11.09.2-.1.23-.07-.2.16-.08.12,0,0s-.07.14-.16.14l-.33,0a6.67,6.67,0,0,1-1.23-.38c-.81-.34-1.43-.83-1.53-.82l0,0c-.19,0,0,.23-.48-.05l-.22-.26a3.25,3.25,0,0,1-.39-.35c-.21-.28-.07-.17-.07-.18A5.24,5.24,0,0,1,43.75,36a6.09,6.09,0,0,0,0,1.13,6,6,0,0,1-.21-1.58c0-.54,0-1,0-1.06s.11-.35.17-.51c.56-1.71.22-1.23.49-1.9a7.44,7.44,0,0,1,.44-.78c-.13.27-.24.54-.35.81a7.11,7.11,0,0,1,1-1.64h0s-.05.06-.06.06l.07-.1a3.51,3.51,0,0,1,.63-1,5.06,5.06,0,0,1,.86-.87c.37-.23.62-.41,1,.05l.34.15.77.77-.06.06L48.13,29a2.9,2.9,0,0,0-.71-.53.54.54,0,0,0-.27.05,1.87,1.87,0,0,0-.39.24,4.82,4.82,0,0,0-.7.73v0a5.28,5.28,0,0,1,.77-.79,1.39,1.39,0,0,1,.35-.21.33.33,0,0,1,.19,0,.2.2,0,0,1,.15.13c.09.11.06.12-.06.07a2,2,0,0,1,.37.2c.51.43.89.78,1.2,1.07a5.54,5.54,0,0,0,.56.46,1.47,1.47,0,0,0,.84.24,2.44,2.44,0,0,0,1.46-.57l.32-.25a1.72,1.72,0,0,0,.39-.46,4.49,4.49,0,0,0,.46-1l-.12.27a12.36,12.36,0,0,0,.26-1.51,4.64,4.64,0,0,0-.13-1c0-.18-.1-.34-.16-.51l-.1-.24-.06-.14a1.45,1.45,0,0,0,0-.16l-.08-.25a2.62,2.62,0,0,0-.22-.48,3.08,3.08,0,0,0-.64-.79,3.48,3.48,0,0,0-1.54-.75l-.33.06c-.45-.05-1.18-.05-1.35.16-.08,0,0,0-.06,0l-.2,0-.41.1a14.11,14.11,0,0,0-1.45.43h0l-.12,0h0c-.58.24-.56.28-.57.31s0,0-.66.43c-.41.24-.33.41-.83.88a5.89,5.89,0,0,0-.55.44,5.5,5.5,0,0,0-.79,1.14l-.31.6a.59.59,0,0,1-.14.23.08.08,0,0,1-.12,0c-.07-.14,0-.23,0-.34-.08.15-.06.12-.14.05s.06,0,.1,0l0,0s0-.08,0-.11,0-.1,0-.38a1.62,1.62,0,0,1-.18-.64l-.06.24c0-.34,0-.7.08-1.07,0-.18,0-.37.08-.56l0-.25s0-.08,0-.11l0,0a1.67,1.67,0,0,1,.37-.4l.07,0a2.48,2.48,0,0,1,.82-.43l-.12,0A2.29,2.29,0,0,1,45,23.54l0,0a2.32,2.32,0,0,0,1.15-.11,2,2,0,0,0,.92-.7,2.11,2.11,0,0,0,.39-1.08,2.32,2.32,0,0,0-.24-1.21,5,5,0,0,0-.58-.57,5.65,5.65,0,0,0-.61-.45l.26.09c-.55-.43-.21,0-.91-.44V19c-.71-.17-.88-.32-1.39-.43a1.64,1.64,0,0,1,.22.14,4.21,4.21,0,0,0-.94-.07c-1,.07-.66-.06-.51-.16a5.13,5.13,0,0,0-.69.25l-.16-.06a11.3,11.3,0,0,0-1.28.64c-.08,0,.1-.13-.17,0a5.9,5.9,0,0,0-1,1.09c.19-.23.38-.45.59-.66l0,.19a11.5,11.5,0,0,0-1.2,1.4c.07-.13.14-.26.22-.38-.57.86-.61.9-.91,1.41.1-.15.26-.38.1,0s-.12.13-.24.39a5.66,5.66,0,0,1-.33,1.43.1.1,0,0,1,0-.07,2.39,2.39,0,0,1-.09.53l-.08-.19c0,.19,0,.37,0,.57-.1.36,0,.92-.11.86V25.7a9.58,9.58,0,0,0,.19,2.83l-.08.06c.17.2,0,.22.22.35,0,0,0,.11,0,.21s-.1.09-.19-.13c-.11,0-.17,0-.24-.06l-.06-.07,0-.07L37,28.66c-.12-.18-.23-.37-.36-.58l-.19-.31a1,1,0,0,1-.11-.23c-.07-.33-.29-.94-.43-1.62l-.1-.53,0-.25v0a1.82,1.82,0,0,1,.29-.68,1.85,1.85,0,0,1,.5-.54,2.38,2.38,0,0,1,.3-.18l.16-.07.41-.11a3.23,3.23,0,0,0,.92-1.59,2.44,2.44,0,0,0-.2-1.71,3,3,0,0,0-3-1.47,4.69,4.69,0,0,0-3,1.16,5.16,5.16,0,0,0-1.12,1.4,4.84,4.84,0,0,0-.37.76,3,3,0,0,0-.26.86l0,.51A12.46,12.46,0,0,0,31,28.23l.31.68c0-.08-.06-.19,0-.24.13.47.63,1.34.5,1.32l-.06-.1c-.15,0,.76,1.29,1,1.77l-.08-.31c.17.25.35.51.54.75l-.17-.18a18.2,18.2,0,0,0,1.85,1.81l.11.1,0,0c0-.07,0-.06.07-.07a.29.29,0,0,1,.26,0,.39.39,0,0,1-.12-.26s0,0,0-.07l0,0-.13-.08a16.1,16.1,0,0,1-3.73-2.87c.35.27-.45-.47-.35-.59-.28-.76-.79-1.36-1-2,0,0,0,0,0,0l-.3-1.17c.18.33.08.1,0-.06s0-.05,0-.08l0-.15h0s0,.16,0,.18v-.17a2.29,2.29,0,0,0,0-.25,2,2,0,0,0-.14-.47,1.92,1.92,0,0,0-.65-.77,1.67,1.67,0,0,0-1.06-.3,1.73,1.73,0,0,0-1,.42,1.88,1.88,0,0,0-.59.92l-.17.79a8.67,8.67,0,0,0-.13,1.61,8.9,8.9,0,0,0,.62,3.22A9.47,9.47,0,0,0,27.29,33c.14.23.29.45.45.67l.16.21.19.16.28.24-.1-.14c.76.65,1.75,1.4,2.3,1.93a7.66,7.66,0,0,0,1.59,1.12c.71.44,1.22,1,.94.79a19.9,19.9,0,0,1,2.36,1.67c.1.17.65.69,1.06,1.31a3.23,3.23,0,0,1,.62,1.32h0a17.29,17.29,0,0,1,1,4.47l0-.09c.27,1.1.47,2.23.64,3.37l.52-1A30.61,30.61,0,0,0,39.47,46a17.66,17.66,0,0,0-1-4.11,8.22,8.22,0,0,0-2.58-3.59c-1.68-1.33-3.41-2.62-5-4L29.39,33l-.31-.25-.2-.28a6.81,6.81,0,0,1-.45-.73,7.19,7.19,0,0,1-.88-3.33,6.69,6.69,0,0,1,.17-1.73l0-.13,0-.15v-.07a.36.36,0,0,1,.07-.1.2.2,0,0,1,.14-.08.26.26,0,0,1,.15.11.16.16,0,0,1,.05.11.2.2,0,0,1,0,.07h0v.11a.31.31,0,0,0,0,.21c.22.79.34,1.41.61,2.11.19.36.39.7.61,1a8,8,0,0,0,2.08,2.74,15.09,15.09,0,0,0,3,2l-.16-.11a1.45,1.45,0,0,0,.93.34,1.25,1.25,0,0,0,1.08-.56,1.27,1.27,0,0,0,.08-1.17,1.39,1.39,0,0,0-.66-.73l.16.1a9.12,9.12,0,0,1-1.35-1.44l-.11,0a3.24,3.24,0,0,1-.56-.87,11.29,11.29,0,0,1-1.7-4.06A11,11,0,0,1,32,24v-.56c0-.15,0-.46,0-.42a4.19,4.19,0,0,1,.38-.9,3.41,3.41,0,0,1,1.34-1.35,3.65,3.65,0,0,1,.9-.35l.24-.05.3-.06a1.35,1.35,0,0,1,.4,0,1.33,1.33,0,0,1,1.18.69.9.9,0,0,1,0,.61,1.15,1.15,0,0,1-.26.48l0,0-.23.09a3.51,3.51,0,0,0-1.3.92,3.78,3.78,0,0,0-.59.9,4.24,4.24,0,0,0-.18.5l-.07.26a3.27,3.27,0,0,0,0,.35,9.36,9.36,0,0,0,1,3.55l1.21,2.15a2.72,2.72,0,0,0,1,1,3.13,3.13,0,0,0,.82.29,1.53,1.53,0,0,0,1.13-.33,1.24,1.24,0,0,0,.43-.81,2.41,2.41,0,0,0-.2-1.32,8,8,0,0,1-.35-.91,4,4,0,0,1-.12-.43L39,28.08a7.7,7.7,0,0,1,0-3.51v.09a9.13,9.13,0,0,1,.27-1.06s0,0,0,0a4.72,4.72,0,0,1,2.86-3.15l-.07,0a3.35,3.35,0,0,1,2-.17,3.7,3.7,0,0,1,.94.4,4,4,0,0,1,.41.31,2.8,2.8,0,0,1,.27.25s0,0,0,0a.44.44,0,0,1,0,.16.77.77,0,0,1-.08.28.59.59,0,0,1-.52.26h-.07L45,22,44.56,22a4.79,4.79,0,0,0-.93.06,4,4,0,0,0-1.7.75,4.11,4.11,0,0,0-.7.69,1,1,0,0,0-.29.59l-.06.49L40.71,26a4.91,4.91,0,0,0-.05,1.83,2.17,2.17,0,0,0,1.42,1.75c.74.13,1.27-.42,1.72-1.15l.43-.7c.11-.19.23-.38.35-.56a5.8,5.8,0,0,1,1.7-1.75,5.63,5.63,0,0,1,2.31-.8l.21,0a2.06,2.06,0,0,0,.26-.07,1.14,1.14,0,0,1,.25-.06,2.19,2.19,0,0,1,.51,0,1.54,1.54,0,0,1,.86.31,1.26,1.26,0,0,1,.31.38,1.63,1.63,0,0,1,.11.23l0,.13.06.26.12.24,0,.13a1.52,1.52,0,0,1,.09.28,2.27,2.27,0,0,1,.1.58,2.75,2.75,0,0,1-.16,1.16,1.69,1.69,0,0,1-.12.28l-.09.17s-.1.11-.17.16l-.23.19a.89.89,0,0,1-.34.16s0,0-.08,0L49.15,28c-.22-.19-.42-.38-.7-.59a1.92,1.92,0,0,0-.7-.35A2.33,2.33,0,0,0,47,27a2.79,2.79,0,0,0-1.12.57,5.28,5.28,0,0,0-.72.69A12.14,12.14,0,0,0,44,29.73a8.22,8.22,0,0,0-1.08,2.13c-.1.29-.2.6-.28.93s-.15.61-.23,1a7.65,7.65,0,0,0,0,2.39,6.93,6.93,0,0,0,2.06,4A6.69,6.69,0,0,0,46.5,41.53Z"/><path class="cls-5" d="M52.16,43l0,0S52.12,43,52.16,43Z"/><polygon class="cls-5" points="43.75 35.95 43.75 36.01 43.78 35.77 43.75 35.95"/><path class="cls-5" d="M52.61,37.33a2.2,2.2,0,0,0-.63.29c-.09.06-.07.05,0,0A4.12,4.12,0,0,1,52.61,37.33Z"/><path class="cls-5" d="M49.37,47.53c-.1.33,0,.21.05,0s.18-.56.18-.56C49.52,47.16,49.44,47.34,49.37,47.53Z"/><path class="cls-5" d="M50.4,46.45v.1C50.46,46.37,50.45,46.38,50.4,46.45Z"/><path class="cls-6" d="M54.32,24.84V20.13"/><path class="cls-7" d="M55,24.4V19.72c0-.59-.8,0-.8.32l0,4.64C54.16,25.26,55,24.68,55,24.4Z"/><path class="cls-7" d="M55.14,23.68V19c0-.43-1.07.49-1.07.83l0,4.64C54,24.9,55.14,24,55.14,23.68Z"/><path class="cls-7" d="M55.32,24.19V19.5c0-.43-.95.39-.95.71l0,4.64C54.35,25.28,55.32,24.5,55.32,24.19Z"/><path class="cls-7" d="M55.75,24.69V20c0-.42-.9.35-.9.66l0,4.64C54.83,25.73,55.75,25,55.75,24.69Z"/><path class="cls-7" d="M55.79,24.19l0-4.69c0-.42-1.13.54-1.13.89l0,4.64C54.64,25.46,55.79,24.54,55.79,24.19Z"/><path class="cls-7" d="M54.64,23.51l0-4.69c0-.42-.91.35-.91.67l0,4.64C53.72,24.56,54.64,23.82,54.64,23.51Z"/><path class="cls-7" d="M54.62,24.25l0-4.69c0-.56-.75,0-.75.26l0,4.66C53.86,25,54.61,24.54,54.62,24.25Z"/><path class="cls-7" d="M55.12,24.92l0-4.68c0-.51-.7-.1-.7.2l0,4.66C54.42,25.6,55.12,25.22,55.12,24.92Z"/><path class="cls-7" d="M55.72,23.5V18.81c0-.41-1.36.73-1.36,1.14l0,4.64C54.33,25,55.72,23.9,55.72,23.5Z"/><path class="cls-7" d="M54.77,24.67V20c0-.48-.67-.13-.67.18l0,4.67C54.09,25.31,54.77,25,54.77,24.67Z"/><path class="cls-7" d="M55.45,23.24V18.55c0-.41-1.32.7-1.33,1.09l0,4.64C54.1,24.7,55.45,23.63,55.45,23.24Z"/><path class="cls-7" d="M54.44,23.91l0-4.69c0-.56-.76,0-.76.27l0,4.65C53.68,24.69,54.43,24.2,54.44,23.91Z"/><path class="cls-8" d="M60.12,25.56l3.33-3.38"/><path class="cls-7" d="M61,25.81l3.25-3.27c.42-.42-.61-.54-.81-.34l-3.37,3.4C59.77,25.9,60.79,26,61,25.81Z"/><path class="cls-7" d="M61.17,25.2l3.33-3.36c.29-.3-.87-.39-1.08-.17L60.11,25C59.8,25.29,61,25.41,61.17,25.2Z"/><path class="cls-7" d="M61.35,25.7l3.33-3.35c.31-.31-1-.4-1.21-.17l-3.31,3.31C59.85,25.79,61.13,25.93,61.35,25.7Z"/><path class="cls-7" d="M61.83,26.21l3.34-3.36c.29-.3-1.29-.42-1.55-.16L60.31,26C60,26.3,61.58,26.47,61.83,26.21Z"/><path class="cls-7" d="M61.87,25.72l3.33-3.36c.29-.29-1.34-.42-1.61-.16l-3.31,3.31C60,25.81,61.61,26,61.87,25.72Z"/><path class="cls-7" d="M60.67,25.11,64,21.76c.34-.35-.41-.56-.62-.35l-3.32,3.34C59.73,25.09,60.46,25.32,60.67,25.11Z"/><path class="cls-7" d="M60.62,25.74,64,22.39c.36-.36-.43-.55-.64-.34L60,25.37C59.65,25.73,60.41,26,60.62,25.74Z"/><path class="cls-7" d="M61.12,26.37,64.44,23c.3-.3-.81-.39-1-.18l-3.31,3.31C59.81,26.46,60.9,26.58,61.12,26.37Z"/><path class="cls-7" d="M61.71,25.08l3.34-3.35c.29-.3-1.24-.41-1.5-.16l-3.31,3.31C59.94,25.18,61.46,25.34,61.71,25.08Z"/><path class="cls-7" d="M60.67,26.21l3.38-3.35c.37-.37-.48-.55-.69-.34L60,25.84C59.65,26.21,60.46,26.41,60.67,26.21Z"/><path class="cls-7" d="M61.42,24.83l3.33-3.36c.3-.3-1-.39-1.22-.16l-3.31,3.31C59.92,24.93,61.2,25.06,61.42,24.83Z"/><path class="cls-7" d="M60.49,25.41,63.81,22c.3-.3-.29-.58-.5-.36L60,25C59.68,25.35,60.28,25.63,60.49,25.41Z"/><path class="cls-8" d="M63.33,31.9h3.39"/><path class="cls-7" d="M63.81,32.89h3.34c.42,0-.32-.86-.62-.86l-3.29,0C62.81,32,63.5,32.89,63.81,32.89Z"/><path class="cls-7" d="M63.88,32.28l3.36,0c.55,0,0-.75-.28-.75l-3.3,0C63.12,31.53,63.59,32.28,63.88,32.28Z"/><path class="cls-7" d="M64.17,32.77l3.35,0c.42,0-.4-.94-.72-.95l-3.29,0C63.08,31.8,63.85,32.77,64.17,32.77Z"/><path class="cls-7" d="M64.67,33.36H68c.4,0-.73-1.32-1.13-1.33l-3.29,0C63.2,32,64.28,33.36,64.67,33.36Z"/><path class="cls-7" d="M64.65,32.81l3.35,0c.42,0-.57-1.13-.92-1.14l-3.29,0C63.36,31.64,64.3,32.81,64.65,32.81Z"/><path class="cls-7" d="M63.46,32.2l3.36,0c.4,0,.25-.59-.06-.59H63.39C63,31.61,63.14,32.2,63.46,32.2Z"/><path class="cls-7" d="M63.35,32.74l3.37,0c.53,0,0-.73-.26-.74l-3.32,0C62.62,32,63.06,32.73,63.35,32.74Z"/><path class="cls-7" d="M63.94,33.46l3.36,0c.41,0-.54-1.11-.89-1.11l-3.29,0C62.69,32.32,63.6,33.46,63.94,33.46Z"/><path class="cls-7" d="M64.5,32.17h3.35c.4,0-.27-.85-.51-.85l-3.4,0C63.52,31.3,64.2,32.16,64.5,32.17Z"/><path class="cls-7" d="M63.57,33.2l3.35,0c.42,0-.35-.88-.66-.89L63,32.3C62.54,32.29,63.26,33.2,63.57,33.2Z"/><path class="cls-7" d="M64.16,32l3.35,0c.51,0,.08-.7-.22-.7l-3.32,0C63.46,31.24,63.86,32,64.16,32Z"/><path class="cls-7" d="M63.24,32.5l3.37,0c.41,0,.23-.6-.08-.6H63.16C62.74,31.89,62.93,32.5,63.24,32.5Z"/><path class="cls-8" d="M59,43.69l-.25-3.89"/><path class="cls-7" d="M59.6,43.19l-.23-3.85c0-.58-.8.1-.78.38l.23,3.81C58.85,44.11,59.62,43.48,59.6,43.19Z"/><path class="cls-7" d="M59.77,42.47l-.23-3.86c0-.42-1,.58-1,.93l.21,3.8C58.74,43.77,59.79,42.81,59.77,42.47Z"/><path class="cls-7" d="M60,43l-.23-3.85c0-.43-.92.45-.9.77L59,43.7C59.05,44.13,60,43.3,60,43Z"/><path class="cls-7" d="M60.38,43.49l-.23-3.86c0-.42-.86.38-.84.69l.22,3.81C59.55,44.56,60.4,43.79,60.38,43.49Z"/><path class="cls-7" d="M60.42,43l-.23-3.86c0-.42-1.07.6-1,.95l.2,3.8C59.37,44.31,60.44,43.33,60.42,43Z"/><path class="cls-7" d="M59.27,42.31,59,38.45c0-.42-.9.44-.89.75L58.37,43C58.39,43.44,59.29,42.62,59.27,42.31Z"/><path class="cls-7" d="M59.26,43,59,39.18c0-.55-.75,0-.74.34l.22,3.81C58.54,43.88,59.27,43.33,59.26,43Z"/><path class="cls-7" d="M59.76,43.71l-.23-3.86c0-.5-.7-.06-.68.24l.23,3.83C59.11,44.42,59.77,44,59.76,43.71Z"/><path class="cls-7" d="M60.35,42.29l-.24-3.86c0-.4-1.31.83-1.28,1.23l.2,3.81C59.05,43.88,60.37,42.69,60.35,42.29Z"/><path class="cls-7" d="M59.4,43.47l-.23-3.87c0-.48-.68-.08-.67.22l.24,3.85C58.77,44.15,59.42,43.77,59.4,43.47Z"/><path class="cls-7" d="M60.08,42l-.24-3.87c0-.4-1.28.81-1.26,1.21l.2,3.81C58.8,43.59,60.1,42.42,60.08,42Z"/><path class="cls-7" d="M59.08,42.69l-.24-3.84c0-.57-.77.06-.75.35l.23,3.8C58.35,43.56,59.09,43,59.08,42.69Z"/><path class="cls-8" d="M66.26,41.37l-2.43-2.61"/><path class="cls-7" d="M66.2,40.44l-2.31-2.52c-.41-.44-.56.62-.36.83L66,41.39C66.24,41.71,66.41,40.66,66.2,40.44Z"/><path class="cls-7" d="M66.38,39.8,64,37.2c-.28-.31-.45,1.2-.21,1.46l2.34,2.58C66.4,41.56,66.62,40.06,66.38,39.8Z"/><path class="cls-7" d="M66.57,40.33l-2.4-2.6c-.28-.3-.41.85-.2,1.08l2.34,2.56C66.6,41.69,66.78,40.56,66.57,40.33Z"/><path class="cls-7" d="M67.07,40.85l-2.4-2.6c-.34-.37-.57.4-.37.62l2.37,2.58C67,41.82,67.27,41.07,67.07,40.85Z"/><path class="cls-7" d="M67,40.35l-2.39-2.59c-.28-.31-.42.84-.21,1.06l2.35,2.57C67.06,41.71,67.23,40.58,67,40.35Z"/><path class="cls-7" d="M65.88,39.6,63.48,37c-.28-.3-.46,1.26-.21,1.54l2.34,2.57C65.89,41.43,66.13,39.87,65.88,39.6Z"/><path class="cls-7" d="M65.85,40.29,63.46,37.7c-.29-.31-.41.85-.21,1.08l2.35,2.56C65.89,41.66,66.06,40.52,65.85,40.29Z"/><path class="cls-7" d="M66.4,41,64,38.37c-.31-.34-.6.3-.39.53L66,41.52C66.32,41.85,66.61,41.21,66.4,41Z"/><path class="cls-7" d="M66.9,39.67l-2.41-2.61c-.27-.3-.46,1.31-.2,1.59l2.33,2.57C66.91,41.54,67.15,39.94,66.9,39.67Z"/><path class="cls-7" d="M66,40.86l-2.39-2.67c-.34-.38-.56.44-.36.66l2.36,2.63C66,41.85,66.24,41.08,66,40.86Z"/><path class="cls-7" d="M66.62,39.33l-2.4-2.6c-.27-.29-.48,1.49-.21,1.79l2.33,2.58C66.62,41.4,66.9,39.63,66.62,39.33Z"/><path class="cls-7" d="M65.66,40l-2.4-2.61c-.29-.31-.43,1-.21,1.27l2.35,2.57C65.69,41.5,65.88,40.19,65.66,40Z"/></g></g></svg>