<svg xmlns="http://www.w3.org/2000/svg" viewBox="0 0 86.3 86.3"><defs><style>.cls-1{font-size:10.14px;font-family:jf-openhuninn-1.1;}.cls-1,.cls-4{fill:#040000;}.cls-2{fill:#eaa092;stroke:#fef5e9;stroke-miterlimit:10;stroke-width:6.3px;}.cls-3{fill:#fef5e9;}.cls-5{fill:#231815;}.cls-6{fill:#f29200;}</style></defs><g id="圖層_2" data-name="圖層 2"><g id="圖層_1-2" data-name="圖層 1"><text class="cls-1" transform="translate(28.35 66.6) scale(0.99 1)">行程</text><path class="cls-2" d="M83.15,43.15c-.89,53.34-79.12,53.33-80,0C4-10.19,82.27-10.18,83.15,43.15Z"/><text class="cls-1" transform="translate(33.51 68.71) scale(0.99 1)">相機</text><path class="cls-3" d="M20.85,24.19a4.09,4.09,0,0,1,1.6-1.5l12,.12c.49-1.44,1-2.89,1.49-4.34l15.35.23,1.23,3.5,11-.2a3.28,3.28,0,0,1,1.72,1,3.57,3.57,0,0,1,.56,3.59l-.13,23a2.48,2.48,0,0,1-.95,3,2,2,0,0,1-1.29.12l-11.14.09a15.7,15.7,0,0,1-18.85-.19c-5.34-.06-9.31-.14-10.93-.14A1.6,1.6,0,0,1,21.35,52c-.75-.7-.34-2.27-.12-2.95q-.42-9.93-.82-19.86l-.06-2.29A4,4,0,0,1,20.85,24.19Z"/><path class="cls-4" d="M20.64,44.87l0,0S20.63,44.88,20.64,44.87Z"/><path class="cls-4" d="M26.08,53.06l-.14,0C26,53.08,26.07,53.07,26.08,53.06Z"/><path class="cls-4" d="M20.43,37.61s0,0,0,0,0-.27,0-.52Z"/><path class="cls-4" d="M51.32,54.39l-.15.09Z"/><path class="cls-4" d="M35.83,54.85l.21.07A.41.41,0,0,0,35.83,54.85Z"/><path class="cls-4" d="M21,33.75l0,.2S21,33.88,21,33.75Z"/><path class="cls-4" d="M20.53,26.39a0,0,0,0,0,0,0S20.53,26.41,20.53,26.39Z"/><path class="cls-4" d="M20.44,29.27l0,.21A.45.45,0,0,0,20.44,29.27Z"/><path class="cls-4" d="M20.49,29.58l0-.1C20.48,29.53,20.48,29.58,20.49,29.58Z"/><path class="cls-4" d="M21.15,22.82a1.89,1.89,0,0,0-.42.53A4.06,4.06,0,0,1,21.15,22.82Z"/><path class="cls-4" d="M66.59,43.6l0,0S66.6,43.59,66.59,43.6Z"/><path class="cls-4" d="M21.25,23.34l-.12.11Z"/><path class="cls-4" d="M21.34,37.64c.05.21,0,.65.06.64A2.23,2.23,0,0,0,21.34,37.64Z"/><path class="cls-4" d="M64.72,38.64v0Z"/><path class="cls-4" d="M21.25,23.34l.13-.12-.05,0Z"/><path class="cls-4" d="M61.93,21.07h0Z"/><path class="cls-4" d="M60.63,21l.28,0A.85.85,0,0,0,60.63,21Z"/><path class="cls-4" d="M20.73,23.35c-.07.11-.14.22-.2.33Z"/><path class="cls-4" d="M49.21,17.71h0Z"/><path class="cls-4" d="M34.93,54.35l-.1-.07S34.82,54.3,34.93,54.35Z"/><polygon class="cls-4" points="44.5 55.02 44.5 55.02 44.5 55.02 44.5 55.02"/><path class="cls-4" d="M44,55.13A1.53,1.53,0,0,0,44.5,55,2,2,0,0,0,44,55.13Z"/><path class="cls-4" d="M45.55,54.9h0Z"/><polygon class="cls-4" points="35.95 53.29 35.94 53.3 35.95 53.3 35.95 53.29"/><path class="cls-4" d="M37.74,54.08l.12.07Z"/><polygon class="cls-4" points="50.09 53.17 50.09 53.18 50.1 53.17 50.09 53.17"/><path class="cls-4" d="M64.51,48.15c0,.25,0,.5,0,.76v.72l.08.3a2,2,0,0,1,0,1.07.88.88,0,0,1-.42.59.74.74,0,0,1-.35,0l-.27,0a1,1,0,0,0-.34,0h-.18a10.46,10.46,0,0,1-1.64.14l-.06-.14-.51,0c-.21,0,.39,0,0-.08l-.19.09s-1.32,0-.46-.13l-2,0c-.44,0-.26.12-.75.09-.1,0,.18,0,.14-.08-1.46-.09-1.68.28-3,.23l.11,0c-.23,0-.67,0-.67.06.17.13.24-.08.65,0,0,.12-.51.07-.48.15a4,4,0,0,0-.79,0,6.52,6.52,0,0,0-.79,0c-.21,0-.45,0-.64,0a4.89,4.89,0,0,1-.46.27,3.27,3.27,0,0,1-.7.65c-.34.09,0-.12-.4.09l0,.09c-.33.18-.29.13-.3.1-.35.19-.25.24-.73.42l.23-.18a6.39,6.39,0,0,1-1,.44s.19-.12.34-.17c-.3,0-.44.22-.58.27,0,0,.39-.11.25,0s-.49.29-.69.28l.25-.16a3,3,0,0,1-.85.35s0,0,0-.05a4.84,4.84,0,0,1-1.45.37l.11,0c-.23.07-.34.15-.47.17.34,0,.25,0,.29.07-.45,0-.65.25-1.39.27,0,0,.18-.09.39-.09a1.58,1.58,0,0,1,.67-.36c-.27.07-.58.12-.52.07l-.07.12a3.88,3.88,0,0,1-.42,0c-.07.08.35.09,0,.16s-.24-.09-.31,0c-.59.09-.24.13-.82.12l.22,0c-.41,0-1,0-1.14-.1a.28.28,0,0,1,.23,0v0c.45-.08-.38,0-.24-.1,0,.07-.54,0-.8,0l.08.09c-.89.14.05-.14-.79-.22-.55,0,.2.05-.14.06s-.48-.16-1-.24c-.15,0-.43-.17-.43-.26-.33,0-.93-.31-1.13-.28.51.23.55.08,1.14.35l-.19,0a9,9,0,0,1-1.28-.39s.07.07,0,.07a6.32,6.32,0,0,1-1.39-.47c0-.11.28.07.53.16-.34-.22-.38-.17-.93-.47,0-.08.37.19.47.16-.22-.09-.42-.19-.63-.29h0c-.14.05-.46-.26-.83-.45a8.32,8.32,0,0,0-.91-.49,3.33,3.33,0,0,1-.37-.17.62.62,0,0,0-.5-.12c-.21,0-.28-.06-.18-.09a.84.84,0,0,0,.45,0c-.59,0-1-.13-.76-.18-.56,0,.21.06-.14.09h-.77c.09.06.36.07,0,.11s-.5,0-.94,0c.07,0-.13-.09.2-.08a1.88,1.88,0,0,0-.68,0c.48.06-.78,0-.43.14L29.56,52a1.85,1.85,0,0,1,.29,0c-.14-.09-.4,0-.56,0a4.13,4.13,0,0,1-.65-.07,1.36,1.36,0,0,1-.59,0c-.23,0,0,.06-.09.09l-.76,0c-.05-.05-.11-.19,0-.2-.29,0-.11.14-.55.13.26-.09-.58-.08-.21-.19a6.47,6.47,0,0,0-1.37-.06c-.24.07.43,0,.4.13-1.11,0-1.18.22-2,.17l.21,0a4.07,4.07,0,0,0-.75.09c.07,0-.07-.11-.34-.17a2.63,2.63,0,0,1-.76-.2c-.08,0,.23.2.13.24a.89.89,0,0,1-.34-.16s0,0,.07,0c-.29-.17-.21-.55-.33-.64a2.17,2.17,0,0,1,.11-.42l-.06.17a2,2,0,0,1,0-.66,2.21,2.21,0,0,1,.11-.58,3,3,0,0,1,.2-.46c-.1.13-.23.41-.14-.16.16-.07,0-1,.1-1,0-.18,0-.51,0-.52l.1,0c-.14,0-.16-.69-.2-1.2.19.11,0-.55.12-.78-.13-.09-.09-.9-.2-1,0-.39.1-.35.14-.46L21.52,44c.05-.2,0-.93.05-1.37l-.12-.4,0-.15c0-.06-.06-.4-.09-.19v-.22c-.13,0,0-.3-.12-.74,0-.1,0-.07.07,0,0-.22,0-.12.09-.24,0,.15-.25-.78-.28-.19-.05,0-.1-.3-.09-.52l.11-.13-.13-.25a5.56,5.56,0,0,1,0-.75c0,.27.23.61.2-.11a6.1,6.1,0,0,0,.13.75c0-.15,0-.22.06,0-.06-.56-.07-.19-.11-.74.1,0,.12-.13.14-.62l-.06.37,0-.07c0,.14,0,.18-.05.21a3.2,3.2,0,0,1-.1-.73c-.12.56-.15-1-.23-.61a1.06,1.06,0,0,1,0-.5c.09.47.09-.35.16-.28,0-.17-.05.37-.1.14a2.23,2.23,0,0,1,.06-.64l0,.12,0-.43c-.05-.07-.07.42-.11,0,0-.1,0-.49,0-.48.08.18.16,0,.19.38,0-.28-.06-1.17-.14-.81v-.33c0,.21-.08.8-.12.13h0l-.1-.46L21,34s-.05-.06-.06-.23,0-.21.07-.2c0-.5-.07-.46-.1-.52,0-.28,0-.38.06-.25,0-.39,0-1.05,0-1.31-.07-.51,0,.1-.1-.19a10.9,10.9,0,0,0-.05-2.52c-.14.23,0-.23-.16-.38.05.18.09-.79.15-.06l0-.45c.07-.3.08.73.18.27s-.17-.78-.18-1.45c.12.16-.07-.39.06-.27s0,.23.08.4a.4.4,0,0,1,0-.11c0-.93-.15-.26-.21-.77s.16-.45.21-.47a3.93,3.93,0,0,0,.13-.52c-.07.35-.24.61-.27.44a5.27,5.27,0,0,0,.36-1,2,2,0,0,0-.37.63l-.24.67c0,.12.12.11.06.61-.05-.32-.06,0-.07.11,0-.09,0,.32.1.52s-.15-.33-.16.24l.15.1c0,.21-.11-.09-.06.36-.08-.24-.12.08-.16-.53a5.11,5.11,0,0,0,.17,1.68c0-.06,0-.06,0-.12a2.51,2.51,0,0,1,0,.51c0,.38-.07-.29-.11-.2l0,.61v0a.88.88,0,0,1,0,.36c-.05-.17-.11-.24-.15-.36l.13.63c-.05-.07-.06.53-.12.08l.06.94-.09.08c0,.23,0,.23,0,0,0,.33.24,1.43,0,1.26.12.74.09,1,.18,1.9-.12-.68-.08.8-.15.07a3.44,3.44,0,0,0,.11.85c0,.32-.13.18-.18-.16l.06.4h0l.07.35c0,.37-.09.08-.09.46l.09.08,0,.26c0-.09.06.13.08.41h0l0,.34c-.07-.33,0,.31-.08.16,0,.28,0,.29,0,.81l.06-.09c.07.67-.09,0-.07.58l.06,0c-.08.8.12,1.34.07,1.93,0-.34-.1-.25-.08-.24,0,.5.06,1.32.16,1.84a1.47,1.47,0,0,0-.14.78c0,.39,0,.44.1.57a8.77,8.77,0,0,1,0,1.1c.06.09,0,.34.06.55l0,0,.07,0c-.13.67.13,1.12,0,1.81l0-.12,0,.28c0,.05-.05-.07-.09-.08l0,1.32,0-.26c0,.26.11.52,0,.68,0-.17,0-.09-.06,0a1.94,1.94,0,0,1-.16.47l.05-.3c-.1.4-.09.4,0,.38-.08.53-.2.34-.18.86,0-.12,0-.24,0-.36s.07.16.05.4c0,.06-.05.23-.05,0a2.65,2.65,0,0,0,.27,1.36c.14.26.05.21-.06.08a1.82,1.82,0,0,0,.63.6,1.62,1.62,0,0,0,.77.22l0,0,.35,0,.42.09-.15-.05a6.61,6.61,0,0,1,.78,0l-.14.06c.79,0,.91.11,1.66,0,.05,0-.07,0-.13,0,.69-.08.52.11,1.22,0,0,0,0,0,0,.06l.32,0,0,.08.26-.11.2.08L27,53c.34.16.81.05,1.27.17l-.07-.1c1.16-.19,2.66.15,4.07.07l0,.08.58-.08c.31.06-.19.06-.09.1.32,0,.38,0,.39-.07s.08-.09.21,0,.06.07,0,.08,0,0-.06,0-.09-.05-.12,0,.45.28.8.49l.88.55s.05,0,0,0c.43.2,1,.51,1.44.72,0,0-.14,0-.26-.07a2.15,2.15,0,0,0,.55.23h-.21a12.33,12.33,0,0,1,1.17.49c0-.05,0-.09.33,0,.14.18.91.23,1.43.41A2.56,2.56,0,0,1,39,56a2.11,2.11,0,0,0,.77.11l-.08,0c.42.08.85.11,1.28.15.18.14,1.21.1,1.12.17.46,0-.38-.06.2-.06.15.06.53,0,.5.07h.35l-.26.07c.35,0,.61-.1.62-.16.34,0,.8,0,1,0l-.12,0a8.62,8.62,0,0,0,2.28-.26s0,0-.06,0l.56-.13-.12.09c.31-.1.61-.22.91-.34v0A14.12,14.12,0,0,0,50.13,55l-.1.07c.77-.45.79-.35,1.34-.71l0,0,.5-.31-.09.1a4.08,4.08,0,0,1,.64-.4c.11-.05.19-.09.17-.07h0a.21.21,0,0,1,.13-.15c.61,0,.15.05.53.08s.52-.07,1.11,0v0c.28,0,.45,0,.84-.05l-.12,0c.64-.09.79.11,1.29-.07.26,0,.77,0,.74.08l2.19-.12c.12.12.17,0,.64.06l0-.07c.55,0,1.14,0,1.75.06l.92,0h.79v.07l.32,0a2.7,2.7,0,0,0,1.55-.27,2.81,2.81,0,0,0,1.18-1.16,3.9,3.9,0,0,0,.37-2.54,1.11,1.11,0,0,0-.09-.26,0,0,0,0,1,0,0,.54.54,0,0,1,0-.15,6.77,6.77,0,0,1,0-.79v.06c0-1-.06-2,0-3,0,.07.05,0,.06.08a2.88,2.88,0,0,1,0-.83l-.06.26a1.91,1.91,0,0,1,.06-.86l-.08-.47s0-.08,0-.08l0-.09.09-.24a5.93,5.93,0,0,0-.12-.93s0-.48.07-.14l0-1.7,0,.26c-.07,0-.11-.47-.08-.74.06.35.1,0,.15-.12s-.06.2-.1.08a5.62,5.62,0,0,1,0-1.06l0,.18c0-.4.09-.58.09-1s0-.61-.12-.53c0-.51.08-.2.1-.36a2.8,2.8,0,0,1,0-1c-.17-.28.07-1.36-.07-1.47l.08-.41s-.13-.1-.14-.43.11-.24.15-.34l-.14-.21c.16-1.83.07-4.23.21-6.23,0-.11,0-.23,0-.35s0,0,0-.09a4.27,4.27,0,0,0,.17-.89,5.12,5.12,0,0,0-.18-2l.06.14a4.14,4.14,0,0,0-.54-1.24,4,4,0,0,1,.4.9,7.87,7.87,0,0,0-.39-.7,3.89,3.89,0,0,0-1.85-1.64l-.32-.12L63.72,21a1.82,1.82,0,0,0-.45,0H63l-1.06.05c-.91.19-.61-.13-1.47,0a1.66,1.66,0,0,1,.16-.06c-.93.07-1.44.11-2.37.22.1-.16-.61,0-.53-.07l-.07.07c-.21,0-.7,0-.63-.09l-.42.09,0-.07a9.94,9.94,0,0,1-2-.05l-1,.07h-.27c-.06,0,0,0-.06,0H53.2c-.27-.8-.57-1.69-.84-2.46-.11-.23-.25-.59-.4-1H51l-.37-.05a1.94,1.94,0,0,1-.24,0,6,6,0,0,1-1.19.06.06.06,0,0,1,.05,0,7.4,7.4,0,0,0-1.16,0c-.44,0-.87-.06-.73-.14,0,.14-.93,0-.93,0l-3.09-.08-8.16-.16-1.49,4.36H30.46l-3.69.05c-1.15,0-2.2.06-3.12.11l-.65,0-.36,0c-.16,0-.34,0-.47.07s-.27.16-.38.24l-.25.2a3.59,3.59,0,0,0-.39.39c-.13.19-.47.66-.27.54-.26.35-.45.47-.45.58.37-.48.05.24.44-.19-.07.1-.13.21-.19.31s.22-.43.25-.31l0-.16a1.41,1.41,0,0,1,.44-.35,1.46,1.46,0,0,1,.83-.79l-.19.11c.57-.33.38-.1.5-.11a.2.2,0,0,0-.13,0,1.91,1.91,0,0,1,.49,0c-.15,0-.44-.06-.55.08s-.18.15-.05.07c.62-.2-.19,0,.29-.14s.23.06.22.1h.5c0,.06-.33,0-.13.05l.63-.05c.12.15.68-.07,1,.08-.45,0,0,.05,0,.09h1.1c.11,0-.29,0-.12,0a1.18,1.18,0,0,0,.45,0c.1,0,.83,0,.8.11.75.07.32-.13,1-.06.1.06-.55,0-.24.07h.72A.74.74,0,0,1,28,23c2,.09,3,.42,4.81.36.25.07-.19,0-.37.09a6.66,6.66,0,0,1,1.11,0l1.43.11.27-.66.25-.7-.05,0a16.28,16.28,0,0,0,.68-1.63l.42-1.2.87,0-.2,0c.24,0,.62,0,.91-.08,0,0-.21.13.3.11-.11,0-.32-.05-.26-.08,1.5.18,4.65.19,7.11.3l3,0,1.51,0,.73,0h.09v.06l.06.18.31.88.85,2.42.9,0c-.94,0-.45-.13.19-.11s.68.08.93.08a5.15,5.15,0,0,0,.68,0,7.52,7.52,0,0,1,1.42,0c1.9-.11,3.6.07,5.37-.15l0,.06a3.12,3.12,0,0,0,.61,0v0c.33,0,.69,0,1,0l.41,0s0,0,.08,0l0-.07c.27.09.12.1.4.18l0,0,.32.1s.1.15.25.3a1.24,1.24,0,0,1,.32.46A2.29,2.29,0,0,1,65,25.6a3.61,3.61,0,0,0-.19.5,1.92,1.92,0,0,0-.11.79c0,.17,0,.34,0,.49,0,1.17,0,2.83,0,4.31l.08,0v.38s0,.05,0,0c-.1.3,0,.89,0,1.2.08-.19,0-.27,0-.49s.13,0,.08.42h0l0,.29c-.07,0-.11.3-.18.33,0,1.27.13,2.14.09,3.45-.08-.13,0,1-.12.68.05.79.11-.13.2.23s0,.46,0,.5-.08.17-.09,0v.52c0,.05,0-.06,0-.12.07,1.07-.1,1.9,0,2.86,0,.08,0-.38.06-.31.09,1-.09.86,0,1.76l-.06-.19a2.48,2.48,0,0,1,0,.9c-.08.09-.06-.4-.1-.64,0,.33,0,1.17.09.91a3.35,3.35,0,0,1-.07.76s.05-.37.09-.14c0,.54,0,1.37-.06,2,0,0,0,0-.06,0C64.67,47.48,64.49,47.43,64.51,48.15Z"/><path class="cls-4" d="M35.73,53.16l.22.13s0,0,.14,0Z"/><path class="cls-4" d="M47.36,54.4l.09,0Z"/><path class="cls-4" d="M50,53.16c-.18.11,0,0,.1,0S50.08,53.14,50,53.16Z"/><path class="cls-4" d="M28.64,51.93c.05,0,.08,0,.07,0S28.63,51.92,28.64,51.93Z"/><path class="cls-4" d="M21.42,39.82v0Z"/><path class="cls-4" d="M21.35,40.91a.94.94,0,0,0,0,.22A1.27,1.27,0,0,0,21.35,40.91Z"/><path class="cls-4" d="M33.6,52a1.83,1.83,0,0,0,.26.16A1.36,1.36,0,0,0,33.6,52Z"/><path class="cls-4" d="M21.39,41.36v.27h0Z"/><path class="cls-4" d="M21.42,39.47v.35A1,1,0,0,0,21.42,39.47Z"/><path class="cls-4" d="M21.71,51.76h0C21.86,51.82,21.77,51.79,21.71,51.76Z"/><polygon class="cls-4" points="21.58 42.56 21.57 42.59 21.6 42.67 21.58 42.56"/><path class="cls-4" d="M21.4,38.28c0,.06,0,.1,0,.14v-.16S21.41,38.28,21.4,38.28Z"/><path class="cls-4" d="M21.73,48.15c0-.07-.05-.1-.07-.1S21.68,48.2,21.73,48.15Z"/><path class="cls-5" d="M26.61,40.74h0Z"/><path class="cls-5" d="M26.84,38.49l0,0S26.86,38.49,26.84,38.49Z"/><path class="cls-5" d="M26.69,42.11h0v0Z"/><path class="cls-5" d="M28.1,34.05v0S28.1,34.06,28.1,34.05Z"/><path class="cls-5" d="M27.14,36.6a.05.05,0,0,1,0,0S27.1,36.59,27.14,36.6Z"/><path class="cls-5" d="M25.77,43.09l.06-.06S25.77,43.06,25.77,43.09Z"/><path class="cls-5" d="M26.48,44.41h0Z"/><path class="cls-5" d="M26.59,43.78l-.05,0S26.56,43.79,26.59,43.78Z"/><path class="cls-5" d="M26.52,43.74h0Z"/><path class="cls-5" d="M41.13,24.75s.06-.05.1-.1Z"/><path class="cls-5" d="M30.2,30.53l0,0A0,0,0,0,0,30.2,30.53Z"/><path class="cls-5" d="M41.15,24.1h0Z"/><path class="cls-5" d="M25.4,42.36c-.08,0,0-.13-.09-.12S25.29,42.36,25.4,42.36Z"/><path class="cls-5" d="M28.73,28l0,0Z"/><path class="cls-5" d="M41.15,24.1l0,0v0Z"/><polygon class="cls-5" points="33.41 27.7 33.41 27.7 33.41 27.72 33.41 27.7"/><path class="cls-5" d="M33.67,27.68l0,.05S33.67,27.7,33.67,27.68Z"/><path class="cls-5" d="M41.23,24.65l.05-.06A.1.1,0,0,0,41.23,24.65Z"/><path class="cls-5" d="M35.81,26.46l0,0Z"/><path class="cls-5" d="M27.07,36.77l0,0S27.08,36.79,27.07,36.77Z"/><polygon class="cls-5" points="25.55 34.54 25.55 34.54 25.55 34.54 25.55 34.54"/><path class="cls-5" d="M25.61,34.67s0-.09-.06-.13S25.55,34.61,25.61,34.67Z"/><path class="cls-5" d="M25.65,34.33h0Z"/><polygon class="cls-5" points="25.02 36.39 25.03 36.39 25.02 36.38 25.02 36.39"/><path class="cls-5" d="M25.09,36l0,0Z"/><polygon class="cls-5" points="25.79 33.26 25.8 33.26 25.8 33.26 25.79 33.26"/><path class="cls-5" d="M27.25,29.39a7.86,7.86,0,0,1-.62,1.23c.08.16,0,.26,0,.4l-.18-.09v.13c-.08,0,0-.1-.1-.06l.09.1c-.07,0-.17.22-.21,0l-.2.38c-.05.08.12.13,0,.2s0-.05-.09-.08c-.28.22.19.49,0,.71l0,0c0,.06,0,.15,0,.16.2,0-.09-.09.06-.12s0,.13.16.18c-.08,0,0,.11,0,.17s-.12.21-.27.23c0,.07.17.18.13.28s-.11-.07-.19,0l.08,0c0,.07-.06.05-.1,0s.1.12,0,.2l-.07-.09c0,.09,0,.11-.08.22s0-.07,0-.09c-.16,0,0,.12,0,.15s.1-.07.17,0,.09.16,0,.16l-.07-.09c0,.14.1.1,0,.22l0,0c.09.12-.05.2-.09.32l0,0c0,.06.09.12.08.14s.1,0,.19,0c-.18,0,.14.19,0,.31s-.11-.07,0-.1c-.15-.1-.29-.14-.34-.26,0,.07,0,.14,0,.11l.15.06a.94.94,0,0,1,0,.09c.09,0,.17,0,.21.07s-.16,0-.1,0,.15.09.06.2,0-.05,0-.06,0,.22-.22.2c0,0-.09,0-.07-.07h0c-.11-.13,0,.08-.14,0,.1,0,0,.13,0,.19h.12c.3.26-.22-.07-.22.12s0,0,.11.06-.14.08-.12.2a.38.38,0,0,1-.25.06c0,.08-.1.2,0,.26.14-.1-.1-.14.09-.25l.11.06c0,.1,0,.23,0,.29a.08.08,0,0,1,.08,0c0,.14.14.2.08.33s-.09-.08-.09-.14,0,.09-.08.22,0-.09-.07-.12a.75.75,0,0,0,0,.15h0c.17,0,0,.11,0,.21s.2.27.32.41a.17.17,0,0,1-.14,0c.08,0,0,0,0-.07s-.18.14-.24.1c0,.12.09,0,.13,0l0,.16c.09,0,.12-.07.17,0s0,.1,0,.19-.13,0-.12-.05a.08.08,0,0,0,0,.14c.09-.09.06.17.2.1l-.08.1s0,0,0-.06c-.14,0,0,.08,0,.11s0,.12-.09.13,0,.1-.07.11.09,0,.13,0l0,.15a1,1,0,0,1-.3,0c.06.06.21,0,.2.12s-.11.11-.28,0-.1.2-.07.29.07-.09.18-.08c0,.23.35.24.3.4l0,0c.07.1,0,.09.15.15-.14,0-.38.12-.34.29.07,0,.13-.1.25-.07l0,.11s0,0-.05,0-.18.2,0,.22l-.2.11.09,0c.07,0,.09.12.12.14s0,.15-.06.22c.06,0,.19-.08.22,0-.23,0-.07.19-.19.2s-.06.11,0,.1h-.14c.2,0,.2.12.25.22-.28,0,0,.11-.21.18.18,0,.08.17.25.17s-.16.09-.21.12l.07,0c-.08.05-.07.2-.12.29l.18.06-.07,0s.07.07.13,0v0c.18,0,.06.05.15.12a.1.1,0,0,1-.1,0s-.08,0-.14.07.34.1.4,0,.13,0,.11.09l-.15,0,.17,0c0,.06-.06.11-.06.16s-.33-.06-.3.08c0-.07-.13-.09-.17-.12s0,0-.09,0c.07.1.11,0,.15.13-.14,0-.18.06-.21.17l.09-.1h0s0,0,.08-.06.2.09.12.13c.2-.15.21.16.32.06s.07.08,0,.1-.15.1-.25.11c.05,0,.09-.1.16-.06s-.06.11-.1.15l0,0,0,.1c.07,0,.1-.11.15,0s0,.1,0,.11-.22,0-.26,0,.08.23.19.12l0,.07c0-.06.12-.19.17-.07h0l.13.06-.06.06s.07,0,.08,0-.05,0-.11.07.1.06.14.07,0,.08-.09.07.06.21,0,.28,0,0,.13,0c-.21.15,0,.36.09.51.19-.11,0,0,.23,0-.07,0-.11.21-.21.08l.05.08c-.1.1-.14-.11-.26,0,0,.1.28.08.25.22s.08.07-.09.1-.06,0-.08-.07l0,0c0,.23.2,0,.34.08s-.08.14-.14.17,0,.09.08.11c-.13,0,0-.18.13-.18-.14.12.07.2.15.21.1-.26,0-.13.07-.38-.06,0-.2.06-.18-.06.1,0,.08,0,.1-.07s-.06,0-.11-.07.22,0,.22-.12l-.21.05c0-.05.16,0,.08-.11.12,0,.16-.06.23,0,.13-.2-.16-.18-.27-.26h.06c-.06,0-.07,0-.09-.07s.11,0,.16,0l0-.11h0s-.06-.05,0-.07h.2l-.17-.07c.07,0,.09-.14.16-.07l-.08-.16.14-.06s-.07,0-.07,0-.32-.2,0-.24c-.14-.11-.11-.17-.22-.32.16.09.13-.19.22-.07,0-.09-.11-.07-.15-.13a.2.2,0,0,1,.25,0l-.08-.06h0l-.09,0c.05-.08.13,0,.14-.12h-.13l.06-.06c-.05,0-.08,0-.1-.06h0l0-.06c.09.05,0-.06.11,0s0-.06-.05-.15l-.08,0c-.1-.11.13,0,.11-.13l-.09,0c.14-.18-.15-.24-.06-.36,0,0,.15,0,.12,0s0-.24-.18-.32c.14-.06.18-.07.23-.18s0-.08-.12-.09,0-.2.05-.22c-.09,0,0-.06-.06-.09l0,0-.1,0c.21-.15-.15-.2,0-.35l0,0,0,0s.08,0,.13,0V40l-.07.06c0-.05-.12-.08-.06-.15.16.09,0-.08.11-.1l.05,0c0-.07,0-.07-.12-.06s.19-.08.08-.16v.07c-.06,0-.15,0-.14-.06s.06,0,.07,0,0-.19,0-.22a.11.11,0,0,1,.13,0c-.1-.15,0-.07-.08-.23h.06l-.07-.06.12-.08-.07,0s-.06-.08,0-.14l.08,0c-.05-.14.13-.16,0-.3s0,0,.06,0c-.13-.13.15-.09,0-.22,0,0,.06,0,.08,0l-.05-.06h.12l-.17,0,.12,0-.06,0c.23,0,.06-.15.23-.22h-.14c-.3-.24.19-.48.09-.74l.11,0L27,37.28c.09-.05.09,0,.15,0s-.16-.06-.18-.2.08,0,.12.07c0-.13-.08-.31,0-.39h0c-.05-.09,0-.19,0-.28s.05,0,.06.06.06-.07,0-.1l.09,0c0-.07,0-.21.09-.21-.05,0-.13,0-.11-.07s0-.18.07-.25,0,.09,0,.07,0-.1-.07-.15l.07,0-.05-.24c.17,0,0-.21.14-.17s-.09,0-.08-.05,0-.1.1-.07v0l.09.07c0-.06-.1-.13-.18-.16.08,0,.05-.13.15-.13l0,0c0-.17.38-.16.23-.34,0,0,0,0,0,0l0-.1.07,0-.08-.19.06,0c0-.1.08-.26.12-.39v0c0-.17.11-.11.09-.23l0,0,0-.1.05,0c-.09-.11.22-.13.11-.12s-.07-.15-.13-.19.07,0,.14,0-.05-.12,0-.2l.05,0a.3.3,0,0,1,0-.16v0c-.06-.15.22-.05,0-.24.07,0,.07-.11.18-.06a1.84,1.84,0,0,1,0-.41c.18.07,0,0,.14-.06l-.09,0c.07-.18.39-.26.48-.45l.09.05L29.2,32a3.62,3.62,0,0,0,.46-.55c0-.08-.06-.22,0-.28h0a.85.85,0,0,1,.29-.44s.07,0,.07.08c-.06-.11.07-.09.09-.12h-.08c-.05-.1.07-.1.14-.08l0-.13,0,0,0-.05.13.05a.44.44,0,0,0,0-.25s.11,0,.09,0,.14-.14.22-.2h-.06c-.08-.06-.07-.17,0-.17s.1.09.17.13-.09,0-.11-.09,0-.19.08-.17v0c0-.07.18,0,.22,0s.07-.08-.07-.19c0-.09.11.06.14.05s.1-.14.17-.09c-.15-.22.23-.11.09-.28l.13,0c0-.05-.11-.15-.09-.21s.15.09.2.12l-.12-.18c.4,0,.62-.44,1-.52.09-.12.19-.32.36-.4v0l.18-.06h-.16s0-.1.05-.12a1.08,1.08,0,0,0,.64-.33c0-.29.21.13.24-.1,0,0,0,.06,0,.08a1.57,1.57,0,0,0,.22-.45c.1.22.09-.06.14.06l0-.1c.06,0,.15,0,.18.08v-.14l.06.09c.08,0,.23-.21.37,0a1.3,1.3,0,0,1,.8-.47c0-.09.08-.13.14-.17l.12.08c0-.06.05-.23.14-.18a0,0,0,0,1,0,0c0-.06.14,0,.16-.15a.15.15,0,0,1,.19.13c-.06-.19.17,0,.17,0l2.05-.53c1.09-.29,2.29-.56,2.75-1.13,0-.1.11-.16.08-.28s.1.13.11,0,0-.26-.07-.38l.06,0c0-.07-.08.09-.07,0v.18c-.06,0-.08-.06-.11-.12s-.06.32-.18.22h0c-.09,0-.06-.12-.08-.15h0l-.09-.08c.07.06.16-.1.11-.09s0,0-.06.07,0-.08,0-.14h-.1c0-.08.07,0,0-.08l-.11.1c0-.22-.12.12-.2-.08.09-.06,0-.08,0-.15l-.22,0s.05-.08,0-.06-.06.06-.08.06-.16,0-.17-.12c-.16-.08,0,.19-.19.12s.11,0,0-.11l-.13,0s0-.15.06-.13c-.4-.07-.68-.48-1-.3-.07-.09,0-.08,0-.15-.23.18-.4-.15-.63-.09l0,.08c-.37-.2-.71.06-1.08,0l0,0c0,.09-.1.12-.14.17s0-.19-.1-.13.08,0,.08.09a4,4,0,0,0-1.49.2,20.15,20.15,0,0,0-2,.8c.09-.06.15.15.06.15-.36-.22-.31.22-.62.11-.3.28-.76.22-.94.65l-.06-.09c-.07,0,0,.06-.09.1v0c-.14,0-.23.21-.32.22l.06.09c-.06.06-.09,0-.12.06l0-.05,0,.15c-.1-.17-.19.12-.3.09s-.18.28-.33.34-.25.06-.38.09a4.18,4.18,0,0,1-.68.63l.09.09-.06.06,0,0c-.15-.07-.11.15-.23.13.11.06.06,0,.1-.05s.13.13,0,.15v.06c-.08-.07-.15-.06-.23-.13-.18.21-.18.47-.41.63-.06-.1-.11.17-.22,0-.06.18.14.09.19.24s0,.11-.09.06-.12,0-.1-.09l-.07.09s0,0,0-.06c-.07.25-.38.21-.42.45,0,.06.07-.05.11,0,0,.25-.21.06-.25.27l0-.09c0,.09.06.16-.07.19s0-.12,0-.2-.13.22,0,.24-.12.05-.17.06.11,0,.12.06a1.15,1.15,0,0,0-.33.3s-.06,0-.06-.06C27.52,29.41,27.32,29.25,27.25,29.39Z"/><path class="cls-5" d="M25,36.44l0,0-.08,0Z"/><path class="cls-5" d="M25.68,33.91l0,0A0,0,0,0,0,25.68,33.91Z"/><path class="cls-5" d="M25.71,33.25s.05,0,.08,0A.11.11,0,0,0,25.71,33.25Z"/><path class="cls-5" d="M25.16,37.93l-.05,0Z"/><path class="cls-5" d="M25.31,41.92h0Z"/><path class="cls-5" d="M25.45,41.68a.06.06,0,0,0,0,0A.08.08,0,0,0,25.45,41.68Z"/><path class="cls-5" d="M25.2,37a.05.05,0,0,0,0,0S25.19,36.94,25.2,37Z"/><path class="cls-5" d="M25.4,41.59v-.05h0Z"/><path class="cls-5" d="M25.31,42v-.08S25.29,42,25.31,42Z"/><path class="cls-5" d="M25.29,39.39h0C25.23,39.34,25.25,39.37,25.29,39.39Z"/><polygon class="cls-5" points="25.17 41.38 25.17 41.37 25.14 41.36 25.17 41.38"/><path class="cls-5" d="M25.31,42.24a0,0,0,0,0,0,0v0Z"/><path class="cls-5" d="M25.15,40.23a.24.24,0,0,0,.1,0S25.22,40.22,25.15,40.23Z"/><path class="cls-5" d="M44.52,51.49v0A0,0,0,0,0,44.52,51.49Z"/><path class="cls-5" d="M46.8,51.45l0,0A.05.05,0,0,0,46.8,51.45Z"/><path class="cls-5" d="M43.2,51.37h-.09Z"/><path class="cls-5" d="M51.41,49.71l0,0Z"/><path class="cls-5" d="M48.72,50.94a.05.05,0,0,1,0,0S48.71,50.91,48.72,50.94Z"/><path class="cls-5" d="M42.6,50.22l0,.08A.07.07,0,0,0,42.6,50.22Z"/><path class="cls-5" d="M41.33,50.35v0S41.33,50.36,41.33,50.35Z"/><path class="cls-5" d="M41.77,50.74l0,0S41.77,50.71,41.77,50.74Z"/><path class="cls-5" d="M41.83,50.7l0,0Z"/><path class="cls-5" d="M54.13,33.53s-.09,0-.15,0Z"/><path class="cls-5" d="M54.58,46.43l0,0S54.59,46.44,54.58,46.43Z"/><path class="cls-5" d="M53.55,33.85v0A0,0,0,0,0,53.55,33.85Z"/><path class="cls-5" d="M43.25,50.05c0-.07.1,0,.1,0S43.27,50,43.25,50.05Z"/><path class="cls-5" d="M52.61,44.28v0Z"/><path class="cls-5" d="M53.55,33.85v0l0,0Z"/><polygon class="cls-5" points="56.33 41.98 56.33 41.98 56.34 42 56.33 41.98"/><path class="cls-5" d="M56.49,41.75v.06S56.51,41.76,56.49,41.75Z"/><path class="cls-5" d="M54,33.5l-.08,0S54,33.49,54,33.5Z"/><path class="cls-5" d="M56.47,39v0A0,0,0,0,0,56.47,39Z"/><path class="cls-5" d="M48.53,51h0S48.52,51,48.53,51Z"/><polygon class="cls-5" points="49.19 48.47 49.19 48.47 49.19 48.47 49.19 48.47"/><path class="cls-5" d="M49.16,48.59s0-.06,0-.12S49.15,48.51,49.16,48.59Z"/><path class="cls-5" d="M49.36,48.41h0Z"/><polygon class="cls-5" points="47.81 49.02 47.81 49.03 47.81 49.02 47.81 49.02"/><path class="cls-5" d="M48.11,48.88l0,0Z"/><polygon class="cls-5" points="49.92 47.79 49.92 47.79 49.92 47.79 49.92 47.79"/><path class="cls-5" d="M51.65,45.35a2.76,2.76,0,0,1-.49.83c.07.15,0,.22,0,.31L51,46.36v.1c-.06,0,0-.07-.08-.09l.07.11c-.05,0-.17.11-.18-.09l-.21.21c-.05,0,.08.15,0,.16s0,0-.06-.09c-.26,0,.07.45-.15.52v0c0,.06,0,.1,0,.13s0-.11.09-.06,0,.12.08.22c-.08,0,0,.08-.06.12s-.17.08-.3,0,.07.22,0,.27-.06-.11-.15-.1l.05.08c-.06,0-.07,0-.1,0s0,.15-.07.14l0-.1c0,.06-.06.07-.13.11s0-.07,0-.07,0,.1-.06.1.09,0,.12.12,0,.16-.09.08l0-.11c0,.11,0,.13-.08.15l0,0c0,.14-.13.09-.22.13v0s0,.13,0,.14.08.05.13.13c-.15-.1,0,.23-.16.21s0-.13,0-.09a1.1,1.1,0,0,1-.1-.4c0,.05,0,.1-.08,0l.07.14-.06,0c0,.09.13.11.1.2s-.11-.12-.08-.05,0,.17-.07.17,0,0,0,0-.14.1-.25,0,0-.1,0-.09v0c0-.15,0,.06-.1-.1.06.09,0,.11-.09.12l.07.09c0,.38-.1-.2-.21-.1s0,0,0,.11-.13-.07-.19,0a.42.42,0,0,1-.17-.18c0,.08-.18,0-.15.14s0-.15.19,0l0,.13c-.07,0-.13.12-.2.1a.08.08,0,0,1,0,.07c-.08.08,0,.21-.17.22s0-.11.05-.13-.07,0-.18,0,.06,0,0-.11l-.1.07v0c0,.16-.09,0-.14.1s-.1.27-.14.44a.25.25,0,0,1-.07-.12c.07.06,0,0,0,0s-.18-.12-.17-.19.06.07,0,.14l-.12,0c0,.07.09.08,0,.16s-.08,0-.15.05-.06-.12,0-.13-.09,0-.09.08-.1.11,0,.22l-.1-.05s0,0,0,0,0,.06-.07.08-.11,0-.13-.06-.08,0-.11,0,0,.08,0,.13l-.12,0a1,1,0,0,1-.08-.3c0,.08,0,.22,0,.23,0-.15-.12-.08-.1-.26a.15.15,0,0,0-.23,0c0,.12.08.05.11.16-.17.09-.11.4-.25.37l0,0c-.07.08-.07.07-.09.17,0-.14-.17-.36-.3-.3s.1.12.1.23l-.09,0s0,0,0-.06-.19-.15-.18,0l-.12-.19,0,.08c0,.07-.09.11-.1.14s-.13,0-.19,0,.08.18,0,.21c0-.23-.17-.07-.18-.19s-.09,0-.08,0V50c0,.2-.1.2-.17.24,0-.27-.09,0-.15-.21,0,.19-.14.09-.15.25s-.07-.16-.09-.22l0,.07c0-.09-.16-.1-.23-.15l-.06.16,0-.07s-.06.07,0,.13h0c0,.18,0,0-.12.13a.12.12,0,0,1,0-.1s0-.09,0-.15-.13.32,0,.4-.05.13-.09.1l0-.16,0,.17c-.06,0-.08-.09-.13-.11s.11-.3,0-.3c.06,0,.09-.11.12-.14s0,0,0-.09,0,.1-.13.12c0-.15,0-.19-.09-.25l.06.11s0,0,0,0,0,0,0,.09-.11.18-.13.09c.09.23-.16.17-.11.3s-.08,0-.08,0-.05-.17,0-.27,0,.11,0,.17-.07-.09-.1-.13l0,0-.06-.06c0,.07.06.12,0,.15s-.08,0-.08-.05,0-.23.08-.25-.19,0-.14.16h-.05c0,.06.12.17,0,.19v0l-.09.1,0-.08s0,.07,0,.06a.22.22,0,0,1,0-.12c-.09,0-.09.07-.1.12s-.06,0,0-.11-.18,0-.21-.1,0,0,0,.12c0-.26-.26-.12-.4-.12,0,.22,0,0-.1.21,0-.06-.1-.19,0-.23h-.08c0-.13.13-.07.09-.24-.08,0-.18.21-.26.12s-.08,0,0-.13.06,0,.08,0v0c-.16-.07-.08.17-.19.26s-.07-.14-.06-.21-.07,0-.1,0,.1.11,0,.2c0-.18-.16,0-.21,0,.12.21.11,0,.22.25,0,0,.06-.2.13-.12s0,.09,0,.11.07,0,.11-.05-.1.19,0,.25l0-.21s0,.15.05.11c-.06.11,0,.18-.13.19.09.21.21-.06.31-.12s0,0,0,0,.07,0,.1,0-.06.09-.06.15h.11v0s.06,0,.06,0-.06.13-.09.19l.13-.14c0,.07.08.13,0,.18l.17,0v.15s0,0,0-.07.28-.23.22,0c.14-.1.18,0,.34-.1-.13.12.13.18,0,.23.07.07.1-.09.16-.11a.2.2,0,0,1-.05.25l.08-.06v0l.07-.08c.06.08,0,.14.08.17l0-.13,0,.08c0-.06,0-.09.08-.1v0l.06,0c-.07.08,0,0,0,.12s0,0,.15,0l0-.09c.13-.07,0,.13.11.14v-.1c.14.18.24-.09.35,0-.06,0-.05.14,0,.12s.24,0,.33-.15c0,.15,0,.19.15.25s.08,0,.1-.11.19,0,.2.07c0-.08.07,0,.1-.06v-.06c.14.21.19-.15.33,0l0,0,0,0s0,.07,0,.13h.24l0-.07s.07-.12.13-.06.08,0,.11.11l0,0c.07,0,.07,0,.05-.11s.09.18.16.06h-.06s0-.14,0-.15,0,.06,0,.08.18,0,.21-.07,0,.1,0,.13c.14-.12.08,0,.21-.11v.06l0-.08.1.1,0-.06s.07-.07.14-.05v.09c.13-.07.2.11.31,0,0,0,0,0,0,.06.09-.16.13.12.21-.07a.19.19,0,0,0,0,.08l0-.06,0,.11v-.18l.06.11v-.06c.12.19.16,0,.29.15l0-.14c.13-.33.53,0,.74-.2l0,.11.06-.16c.09.06,0,.1,0,.15.09-.1,0-.18.11-.25s0,.09,0,.14c.1-.1.25-.22.36-.2a.1.1,0,0,0,0,0c.06-.08.18-.08.26-.12a.07.07,0,0,1,0,.08s.09,0,.09,0v.1c.07,0,.17-.14.23,0s-.06-.12,0-.14c.11.15.13-.13.25-.1s0,.09,0,.08.07-.08.09-.15v.07l.17-.19c.11.14.18-.12.23,0,.08,0-.1,0,0-.11s.07-.07.12,0v0l.06,0v.12a.25.25,0,0,0,0-.25c.08,0,.13-.06.2,0v0c.12-.13.4.11.42-.12,0,0,0,0,0,0l.09-.05,0,.09L50.8,50l0,.05a1.21,1.21,0,0,0,.36-.27v0c.09-.17.16,0,.23-.17v0l.09-.06v.06c0-.15.28,0,.18-.06a.65.65,0,0,0,0-.24c.09-.07.06.05.15,0s0-.14.14-.17l0,0s0-.1.08-.15v0c0-.17.23,0,.14-.22.07,0,.12-.09.2,0l.2-.4c.15.12,0,0,.16,0l-.08-.07c.14-.16.51-.16.64-.37l.08.07,0-.11a6.47,6.47,0,0,0,.59-.56c0-.08,0-.24.06-.31v0a1.14,1.14,0,0,1,.31-.5s.07,0,.07.07.07-.1.1-.13h-.09c0-.09.07-.11.15-.1l0-.14h0l0,0,.14,0s0-.16-.06-.25.11,0,.1,0l.21-.27-.07,0c-.09-.05-.1-.16,0-.18s.12.07.2.08-.09,0-.13-.05,0-.21.05-.22l0,.05c0-.08.17,0,.2-.1s0-.11-.12-.18c0-.1.13,0,.16,0s0-.18.14-.16c-.2-.15.2-.2,0-.31l.15,0c-.06,0-.17-.09-.16-.16s.16,0,.23,0l-.18-.13c.36-.24.37-.74.67-1.06a2.13,2.13,0,0,1,0-.61l0,0,.11-.19-.14.12c0-.05,0-.09,0-.13a1,1,0,0,0,.25-.77c-.21-.21.23-.08.09-.28l.07,0a1.53,1.53,0,0,0-.21-.5c.24,0,0-.12.13-.09l-.09,0c.06,0,.09-.13.16-.11l-.12-.09h.11c0-.1,0-.34.15-.39a2.19,2.19,0,0,1-.07-1c-.08,0-.09-.14-.1-.22l.11-.09c0-.07-.19-.14-.12-.22h0c0-.07,0-.15-.1-.22a.15.15,0,0,1,.17-.16c-.2,0,0-.19,0-.19a7.9,7.9,0,0,0-.43-2.36c-.4-1.21-1.24-2.39-2-2.52-.11,0-.21,0-.29.08s.06-.17,0-.13-.23.12-.28.27l-.05,0c-.07,0,.11,0,0,.08l.17-.08a.24.24,0,0,1-.06.15c.08,0,.31-.11.28,0l0,0c.05.08-.07.11-.09.14h0l0,.11c0-.08-.15-.08-.11,0s0,0,.08,0-.06.08-.11.11l.06.07c-.08,0,0,0-.09,0l.14,0c-.18.13.15.05,0,.2-.09-.05-.06,0-.13.06l.11.16s-.09,0-.06,0,.07,0,.08.05.07.12-.06.19.18,0,.17.1-.07-.07-.12,0l.09.09c-.05,0-.14,0-.15,0,.06.34-.3.7-.08.91-.08.08-.07,0-.15,0,.21.14-.09.35,0,.51l.08,0c-.17.32.09.54,0,.83l0,0c.09,0,.11.07.16.11s-.18,0-.13.08,0-.06.09-.07c-.14.28,0,.74,0,1.13a8,8,0,0,1,0,1.54c0-.08.21,0,.16,0-.37.15,0,.28-.2.42.08.3-.23.52,0,.82h-.1c-.05,0,0,.05,0,.09h0c-.05.09,0,.22,0,.27l.11,0c0,.06-.09,0,0,.09h-.06l.09.09c-.19-.05-.06.15-.16.18a.47.47,0,0,1,0,.35c-.1,0-.14.12-.22.19a1.76,1.76,0,0,1-.19.62l.12,0v.06s0,0,0,0c-.16,0,0,.15-.12.15.12,0,0,0,.05-.06s.18.07.09.11h0l.05.06c-.09,0-.15,0-.25,0,0,.19.06.38-.08.54-.09-.07,0,.14-.2,0,0,.14.15.06.25.17s0,.08-.05.06-.12,0-.12-.07l0,.08,0,0c0,.2-.25.18-.22.36s0,0,.1,0c0,.2-.18,0-.16.21l-.07-.07c0,.07.09.13,0,.15s0-.1-.07-.16-.07.16,0,.19-.1,0-.14,0,.1,0,.12.05a.6.6,0,0,0-.24.21s-.06,0-.07-.06C51.89,45.41,51.68,45.25,51.65,45.35Z"/><path class="cls-5" d="M47.77,49h0a.11.11,0,0,1,0-.08Z"/><path class="cls-5" d="M49.58,48.17a.08.08,0,0,0,0,0A.06.06,0,0,0,49.58,48.17Z"/><path class="cls-5" d="M49.86,47.73s0,0,.06.06Z"/><path class="cls-5" d="M46.78,49.69a0,0,0,0,0,0,0S46.78,49.68,46.78,49.69Z"/><path class="cls-5" d="M43.6,50.07v0S43.61,50.07,43.6,50.07Z"/><path class="cls-5" d="M43.78,50.24l0,0A.05.05,0,0,0,43.78,50.24Z"/><path class="cls-5" d="M47.51,49.41a.06.06,0,0,0,0,0S47.51,49.39,47.51,49.41Z"/><path class="cls-5" d="M43.85,50.2h0v0Z"/><path class="cls-5" d="M43.54,50.05l.06,0S43.56,50,43.54,50.05Z"/><path class="cls-5" d="M45.66,50.1h0C45.69,50,45.67,50.07,45.66,50.1Z"/><polygon class="cls-5" points="44.04 49.99 44.05 50 44.06 49.96 44.04 49.99"/><path class="cls-5" d="M43.35,50a0,0,0,0,0,0,0h0Z"/><path class="cls-5" d="M45,50a.34.34,0,0,0,0,.09S45,50.1,45,50Z"/><path class="cls-6" d="M38.77,48.24c-5.66-1.6-9.09-8.07-7.84-14.13C32.1,28.4,38,25.72,42.05,25.17a12.72,12.72,0,0,1,9.63,2.42,12.65,12.65,0,0,1,4.57,9.62,12.88,12.88,0,0,1-4.88,9.59C45.76,51,39.07,48.37,38.77,48.24Z"/><path class="cls-5" d="M58.32,36.27h0Z"/><path class="cls-5" d="M58.4,38l0,0Z"/><path class="cls-5" d="M58.13,35.28h0l0-.07Z"/><path class="cls-5" d="M58.21,41.35v0Z"/><path class="cls-5" d="M58.46,39.35l0,0S58.5,39.35,58.46,39.35Z"/><path class="cls-5" d="M59,34.34l-.06.06S59,34.37,59,34.34Z"/><path class="cls-5" d="M58.2,33.49h0Z"/><path class="cls-5" d="M58.12,34h.05A0,0,0,0,0,58.12,34Z"/><path class="cls-5" d="M58.19,34h0S58.18,34,58.19,34Z"/><path class="cls-5" d="M52.25,51.72s0,.08,0,.13Z"/><path class="cls-5" d="M57.57,44.3l0,0Z"/><path class="cls-5" d="M52.58,52.29h0Z"/><path class="cls-5" d="M59.36,34.81c.08,0,0,.1.09.07S59.46,34.79,59.36,34.81Z"/><path class="cls-5" d="M60,45.91v0Z"/><path class="cls-5" d="M52.58,52.29h0l0,0Z"/><polygon class="cls-5" points="56.2 47.12 56.2 47.12 56.19 47.1 56.2 47.12"/><path class="cls-5" d="M56,47.19v0S56,47.17,56,47.19Z"/><path class="cls-5" d="M52.24,51.85v0Z"/><path class="cls-5" d="M55,48.69v0Z"/><path class="cls-5" d="M58.5,39.22v0S58.48,39.2,58.5,39.22Z"/><polygon class="cls-5" points="60.51 40.51 60.51 40.51 60.51 40.51 60.51 40.51"/><path class="cls-5" d="M60.42,40.43s0,.06.09.08S60.5,40.46,60.42,40.43Z"/><path class="cls-5" d="M60.48,40.67Z"/><polygon class="cls-5" points="60.57 39.09 60.56 39.09 60.57 39.09 60.57 39.09"/><path class="cls-5" d="M60.6,39.4l0,0Z"/><polygon class="cls-5" points="60.65 41.47 60.64 41.47 60.64 41.47 60.65 41.47"/><path class="cls-5" d="M60.65,44.55a6.65,6.65,0,0,1,.1-1,.37.37,0,0,1-.14-.3l.2,0-.05-.09c.07,0,0,.07.12,0l-.12-.06c.07,0,.08-.19.2,0l.06-.32c0-.06-.16-.06-.1-.13s0,0,.11,0c.18-.21-.35-.32-.24-.52l0,0s0-.11-.07-.11c-.2,0,.11,0,0,.1s-.08-.09-.21-.1c.07-.05,0-.09,0-.13s0-.17.19-.21c0,0-.21-.1-.21-.17s.12,0,.18,0l-.1,0c0-.06,0,0,.09,0s-.13-.07-.06-.15l.09.06c0-.07,0-.09,0-.18s0,0,0,.07c.15,0-.06-.09,0-.11s-.07.06-.16,0-.13-.1,0-.12l.09,0c-.07-.09-.12,0-.08-.15h0c-.12-.07,0-.15,0-.24l0,0s-.12-.07-.11-.09-.09,0-.19,0c.17-.06-.19-.11-.09-.22s.13,0,.07.06c.16.05.31.05.39.12s-.07-.09,0-.08l-.15,0s0,0,0-.06-.16.05-.22,0,.16,0,.09,0-.17,0-.12-.13,0,0,0,0,0-.16.16-.18.1,0,.09,0h0c.13.07,0-.06.13,0-.1,0-.08-.08-.06-.13l-.12,0c-.34-.13.23,0,.19-.13s0,0-.12,0,.13-.09.07-.17a.42.42,0,0,1,.23-.09s0-.16-.08-.18.14.08,0,.19l-.13,0c0-.07-.06-.16,0-.21h-.08c-.06-.1-.19-.12-.15-.22s.09,0,.11.08,0-.07,0-.17,0,.06.1.07l0-.11h0c-.17,0,0-.09-.05-.15s-.24-.16-.39-.23a.22.22,0,0,1,.13,0c-.07,0,0,0,0,0s.15-.14.22-.12-.08,0-.14,0v-.12c-.09,0-.1.07-.17,0s0-.08,0-.14.13,0,.13,0,0-.09-.06-.1-.09-.1-.22,0l.07-.08s.06,0,0,0,0,0-.07-.07,0-.1.07-.11,0-.08,0-.1-.09,0-.13,0V37.8a2.32,2.32,0,0,1,.3,0c-.08,0-.22,0-.22,0s.09-.11.27-.08a.14.14,0,0,0,0-.22c-.12,0-.05.07-.16.09-.07-.16-.39-.1-.36-.23l0,0a.27.27,0,0,0-.17-.08c.14,0,.35-.17.29-.29s-.11.1-.23.11l0-.08h.06c-.07-.07.15-.18,0-.16l.19-.13-.08.05c-.07,0-.11-.07-.15-.08s0-.1,0-.17-.17.1-.21,0c.22-.06.05-.16.16-.19s0-.09,0-.07l.14,0c-.2,0-.22-.05-.27-.11.27-.06,0-.08.18-.18-.18,0-.11-.11-.26-.07s.14-.1.19-.13h-.07c.07-.05.05-.16.08-.24h-.17l.06,0s-.08,0-.12,0v0c-.16,0-.06,0-.15-.07a.14.14,0,0,1,.09,0s.08,0,.13-.08-.34,0-.39.11-.13,0-.11,0l.14-.08-.17,0s0-.1.06-.14.32,0,.28-.12.13,0,.17.05,0,0,.08,0-.1,0-.15-.06c.14,0,.17-.08.19-.17l-.07.09h0s0,0-.08.06-.2,0-.12-.07c-.18.16-.22-.07-.32,0s-.07,0,0-.08.13-.1.23-.13-.08.09-.14.08,0-.1.08-.14h0l0-.09c-.07,0-.09.11-.14.07s0-.07,0-.09.21-.08.25,0-.09-.16-.19,0l0-.05c0,.05-.11.17-.16.09h0l-.12,0,0-.06s-.06,0-.07,0,0-.06.09-.08-.1,0-.14,0,0-.06.08-.08-.06-.14,0-.21,0,0-.13,0c.2-.16,0-.27-.1-.36-.18.12,0,0-.22,0,.07,0,.09-.18.2-.11l-.05,0c.08-.09.13.06.24-.07s-.27,0-.24-.12-.08,0,.08-.09.06,0,.08,0l0,0c0-.16-.19,0-.32,0s.07-.13.13-.17,0-.06-.07-.06c.11,0,0,.14-.13.17.13-.13-.06-.14-.13-.13-.1.21,0,.09-.08.3.06,0,.2-.09.18,0s-.08,0-.1.07.06,0,.11,0-.21,0-.21.14l.2-.08s-.15.06-.07.09c-.12,0-.15.09-.22,0-.12.17.16.09.27.13h-.06c.06,0,.07,0,.09,0s-.11,0-.15,0l0,.08h0s.06,0,0,0l-.2,0h.17c-.07,0-.08.12-.15.09l.08.11-.12.07s.06,0,.06,0,.31.08,0,.18c.15,0,.13.1.24.19-.16,0-.11.17-.2.09,0,.08.11,0,.15.07A.26.26,0,0,1,58,35l.08,0h0l.09,0c0,.08-.13.06-.13.12l.13,0-.06.06a.08.08,0,0,1,.11,0h0l0,0c-.09,0,0,.05-.1.06s0,0,.06.1l.07-.05c.11.07-.12.05-.1.13l.1,0c-.13.16.15.14.07.26,0,0-.14,0-.11,0s.07.17.21.2c-.13.07-.17.09-.21.18s0,0,.12,0,.07.14,0,.17c.09,0,0,0,.08.06l0,0,.09,0c-.18.16.17.12,0,.26h0l0,0a.51.51,0,0,1-.13,0l0,.18.06,0s.12,0,.07.09,0,.06-.09.1l-.05,0c0,.05,0,.05.12,0s-.18.1-.06.13v0s.14,0,.14,0,0,0-.06,0,0,.14.06.15a.13.13,0,0,1-.13,0c.11.1,0,.06.1.15h0l.07,0-.1.08.07,0s.06,0,0,.1h-.09c.07.1-.11.15,0,.23h0c.14.07-.14.1,0,.16l-.08,0,.06,0h.06l-.11,0h.05c-.21.08,0,.12-.18.21l.14,0c.32.11-.11.38,0,.54h-.11l.14.06c-.08.06-.1,0-.15,0s.17,0,.21.11-.08,0-.13,0,.15.21.09.28h0c.06,0,0,.14,0,.2s-.06,0-.07,0,0,.06,0,.08l-.1,0s.08.14,0,.16.13,0,.12,0c-.17,0,.09.12,0,.19s-.06-.05-.06,0,0,.07.1.09h-.07l.1.16c-.18,0,0,.15-.1.14s.07,0,.09,0,0,.06-.08.06h0v0l-.11,0c0,.05.13.08.22.08-.06,0,0,.1-.11.12l0,0c0,.12-.3.19-.12.29h0v.07l-.09,0,.13.12h-.06a.62.62,0,0,0,0,.3l0,0c.08.12-.06.11,0,.19h0v.07l-.05,0c.12.07-.18.14-.07.11a.42.42,0,0,0,.18.11c0,.08-.08,0-.13.06s.08.07,0,.14h0s0,.06,0,.11l0,0c.11.1-.18.08.06.18,0,0,0,.1-.14.08a.91.91,0,0,1,.11.3c-.19,0,0,0-.11.06l.1,0c0,.14-.29.26-.28.42l-.1,0,.1,0a3.79,3.79,0,0,0-.21.49s.14.15.09.21h0a.46.46,0,0,1-.06.38l-.1,0c.1.07,0,.08,0,.1h.09c.07.07,0,.09-.11.09l.08.09h0l0,0h-.14a.34.34,0,0,0,.14.17s-.09,0-.1,0l-.11.19.05,0c.1,0,.14.12.08.14s-.13-.06-.21-.06.1,0,.14,0,.06.14,0,.15l0,0c0,.06-.15,0-.16.07s0,.07.13.13c0,.07-.11,0-.14,0s0,.12-.11.1c.22.13-.15.13,0,.22h-.13c.05,0,.16.09.17.14a.79.79,0,0,1-.22-.05l.18.11c-.29.13-.31.46-.59.61,0,.12,0,.3-.09.4v0l-.12.09.13,0s0,.08,0,.1-.35.19-.35.41-.22-.06-.14.13L56,47.19a1.5,1.5,0,0,0,0,.4c-.19-.15,0,.07-.14,0l.08.07c-.06,0-.12,0-.17,0l.07.12-.09-.05c0,.05-.06.22-.25.13,0,.23-.19.42-.36.57a.13.13,0,0,1,0,.17l-.13,0c0,.06.08.2,0,.19s0,0,0,0-.1.05,0,.16-.12,0-.2-.05c.15.14-.1.08-.1.08s-.57.45-1.17,1-1.22,1.19-1.24,1.84c0,.1,0,.19.1.27s-.14-.07-.1,0,.12.23.25.29l0,.05c0,.06,0-.1.07,0l-.09-.16a.16.16,0,0,1,.13.07c0-.08-.12-.3,0-.26l0,0c.06,0,.1.08.13.1h0l.1,0c-.07,0,0,.14,0,.11s-.05,0,0-.08.07.06.11.1l.05,0c0,.07,0,0,0,.08l0-.13c.14.17,0-.14.18,0,0,.08,0,.06.07.12l.13-.1s0,.08,0,0,0-.07,0-.08.09-.07.17.05-.07-.17.06-.17,0,.07,0,.11l.06-.09s.07.13,0,.14c.3-.08.71.18.84-.08.1,0,0,.07,0,.14.06-.23.36,0,.48-.12l0-.07c.35,0,.46-.25.73-.36l-.07,0a.28.28,0,0,1,0-.19s.1.15.13.07-.08,0-.1-.05c.33,0,.63-.38,1-.58.3-.43.79-.75,1.06-1.19,0,.06-.19-.09-.11-.11.38.09.12-.25.41-.24.07-.31.49-.36.41-.74l.09.05c.06,0,0-.06,0-.1l0,0c.08-.07.06-.23.13-.26l-.09-.06c0-.06.09,0,.06-.07l.05,0-.05-.12c.17.11.1-.14.2-.13a.67.67,0,0,1,.1-.35c.1,0,.17-.1.26-.16a2.85,2.85,0,0,1,.29-.62l-.12-.05,0-.06s0,0,.05,0,0-.15.12-.16c-.12,0,0,0,0,.07s-.17-.08-.09-.11h0l0-.07c.1,0,.16,0,.25,0,.06-.19-.05-.39.08-.56.1.06,0-.14.2,0,0-.15-.16,0-.26-.15s0-.08.05-.06.12,0,.12,0l0-.08s0,0,0,0c-.05-.2.22-.24.17-.42s0,.05-.11,0c-.08-.19.17-.09.12-.26l.08.06c-.05-.06-.12-.11,0-.15s.07.09.11.14,0-.18-.08-.18.09-.06.13-.08-.09,0-.13,0,.12-.19.16-.29l.08,0C60.41,44.59,60.65,44.67,60.65,44.55Z"/><path class="cls-5" d="M60.58,39.05v0a.12.12,0,0,1,.08,0Z"/><path class="cls-5" d="M60.55,41h0S60.57,41,60.55,41Z"/><path class="cls-5" d="M60.73,41.46s-.06,0-.09,0Z"/><path class="cls-5" d="M60.14,38h0Z"/><path class="cls-5" d="M59.47,35.12v0S59.47,35.13,59.47,35.12Z"/><path class="cls-5" d="M59.36,35.33s0,0,0,0S59.38,35.34,59.36,35.33Z"/><path class="cls-5" d="M60.28,38.72a.05.05,0,0,0,0,0S60.3,38.72,60.28,38.72Z"/><path class="cls-5" d="M59.42,35.38v0h0Z"/><path class="cls-5" d="M59.47,35.06s0,0,0,.06S59.49,35.07,59.47,35.06Z"/><path class="cls-5" d="M59.79,37h0C59.85,37,59.82,37,59.79,37Z"/><polygon class="cls-5" points="59.67 35.49 59.66 35.5 59.7 35.5 59.67 35.49"/><path class="cls-5" d="M59.45,34.88h0v0Z"/><path class="cls-5" d="M59.81,36.33h-.1S59.74,36.36,59.81,36.33Z"/><path class="cls-5" d="M51.37,31h0Z"/><path class="cls-5" d="M54.26,35.81l0-.06A.1.1,0,0,0,54.26,35.81Z"/><path class="cls-5" d="M48.67,29h0l-.21-.12Z"/><path class="cls-5" d="M51.46,46.78l0-.06Z"/><path class="cls-5" d="M54.61,40.59v.1A.16.16,0,0,0,54.61,40.59Z"/><path class="cls-5" d="M47.15,27.9l.09.06S47.21,27.92,47.15,27.9Z"/><path class="cls-5" d="M43.65,27.37h0Z"/><path class="cls-5" d="M45,27.59h.1S45,27.58,45,27.59Z"/><path class="cls-5" d="M45.16,27.6h0Z"/><path class="cls-5" d="M42.05,27.89l.26-.07Z"/><path class="cls-5" d="M41.84,50.38h0Z"/><path class="cls-5" d="M42.14,27.65h0Z"/><path class="cls-5" d="M48.91,28.61c.1,0,.27.16.28.14A1.43,1.43,0,0,0,48.91,28.61Z"/><path class="cls-5" d="M39.33,50.7l-.06,0Z"/><polygon class="cls-5" points="42.15 27.65 42.06 27.66 42.09 27.67 42.15 27.65"/><polygon class="cls-5" points="33.36 43.88 33.36 43.89 33.37 43.9 33.36 43.88"/><path class="cls-5" d="M33.16,43.33l.05.11A.61.61,0,0,0,33.16,43.33Z"/><path class="cls-5" d="M42.31,27.82l.15,0Z"/><path class="cls-5" d="M32.51,37.12v.06A.18.18,0,0,0,32.51,37.12Z"/><path class="cls-5" d="M54.69,40.15v0S54.69,40.1,54.69,40.15Z"/><polygon class="cls-5" points="53.91 44.66 53.91 44.66 53.91 44.66 53.91 44.66"/><path class="cls-5" d="M54,44.43a.73.73,0,0,0-.09.23C53.94,44.59,54,44.52,54,44.43Z"/><path class="cls-5" d="M53.64,45.13v0Z"/><polygon class="cls-5" points="55.36 40.41 55.36 40.41 55.36 40.42 55.36 40.41"/><path class="cls-5" d="M55.19,41.4l0,.07Z"/><polygon class="cls-5" points="52.21 47.16 52.21 47.16 52.2 47.16 52.21 47.16"/><path class="cls-5" d="M44,51.48c.48-.06,1-.13,1.57-.25a15.41,15.41,0,0,0,1.52-.45,4.62,4.62,0,0,1,.73-.34l.06.05a1.59,1.59,0,0,0,.22-.13c.1,0-.17.1,0,0l.07-.08s.59-.28.23,0c.29-.16.6-.28.87-.46s.08-.12.29-.23c0,0-.07,0,0,.06.64-.35.64-.55,1.17-.95l0,0c.08-.09.25-.22.25-.23s-.07.1-.26.2c0-.06.18-.18.14-.21a1.45,1.45,0,0,0,.29-.25c.2-.12.41-.38.57-.46a2.32,2.32,0,0,1,.29-.4c.16-.09,0,.06.18-.09v-.05c.13-.15.12-.12.13-.1.13-.16.07-.17.26-.35l-.07.13c.11-.16.17-.21.34-.42,0,0-.06.1-.11.16.13-.08.14-.2.2-.26s-.15.14-.12.06.15-.25.23-.31l-.06.14a2.22,2.22,0,0,1,.24-.4s0,0,0,0a4.18,4.18,0,0,1,.43-.63l0,0c.06-.11.08-.18.11-.23-.1.13-.09.08-.13.08.17-.16.12-.33.32-.63a.25.25,0,0,1-.07.18.91.91,0,0,1-.07.39c.06-.13.13-.28.13-.24l0-.06.1-.19s-.12.12,0-.06.1-.07.1-.11c.12-.28,0-.14.16-.38l0,.1c.13-.17.2-.47.29-.5a.2.2,0,0,1,0,.12h0c0,.23.06-.18.09-.09s.08-.27.14-.39l-.06,0c.07-.45.07.05.22-.36.08-.26,0,.09,0-.07a2.15,2.15,0,0,0,.18-.5c0-.07.1-.21.15-.21a3.93,3.93,0,0,0,.15-.59c-.12.27,0,.29-.19.59v-.1c.06-.22.14-.5.17-.66,0,0,0,0,0,0a5.76,5.76,0,0,1,.09-.74s0,.15,0,.28a3.69,3.69,0,0,0,.11-.52s0,.21,0,.25l.05-.35h0s0-.26,0-.48a2.91,2.91,0,0,0-.06-.88c0-.07,0-.1,0-.06s0,.1,0,.14c0-.17,0-.37.07-.28,0-.27,0,.1,0-.07l0-.37s0,.18-.06,0,0-.24,0-.45c0,0,0-.07,0,.09a.81.81,0,0,0,0-.33c0,.24-.09-.37-.11-.19v-.24a.84.84,0,0,1,0,.14c0-.08-.05-.19-.07-.27s0-.29,0-.31a1.17,1.17,0,0,1,0-.29c0-.1,0,0-.06,0l-.09-.36s.07-.07.1,0c-.06-.13-.09,0-.14-.24.08.11,0-.28.06-.13a2.11,2.11,0,0,0-.21-.63c-.07-.1.06.2,0,.2-.22-.5-.3-.5-.46-.86l0,.1a1.77,1.77,0,0,0-.21-.31c.08.05,0-.3-.2-.66,0,0,.07.22,0,.18a1.76,1.76,0,0,0-.14-.23s0,0,0,0c-.14-.2-.18-.41-.26-.44l-.07-.25,0,.1s-.18-.25-.22-.29a1.33,1.33,0,0,1-.29-.43s0,.17-.09,0c.07-.05-.24-.38-.21-.4s-.14-.2-.17-.19l.05,0c-.07,0-.27-.21-.44-.39.1,0-.19-.2-.2-.33s-.33-.28-.4-.28-.08-.15-.11-.2l-.07,0a3.4,3.4,0,0,0-.47-.48l-.19-.08,0-.06s-.16-.1-.1,0l-.08-.06s-.12-.09-.31-.19c0,0,0,0,0,0s0-.06-.07-.11-.38-.12-.15.06c0,0-.15-.05-.23-.11l0-.08-.14,0a3.45,3.45,0,0,1-.28-.23c.11.07.3.08,0-.11a1.87,1.87,0,0,0,.34.16c-.06,0-.09-.06,0,0-.24-.14-.1,0-.33-.17,0,0,0-.09-.22-.21l.14.12h0c.06,0,.07.05.08.08s-.31-.1-.33-.15c.2.19-.45-.17-.32-.05a.49.49,0,0,1-.2-.11c.21.07-.13-.13-.08-.14s.14.11,0,.07a2.59,2.59,0,0,1-.25-.17l0,0-.18-.1s.17.11,0,.05-.23-.09-.21-.1.05-.07.2,0c-.12-.05-.53-.21-.38-.1L47.5,28c.09.05.33.19,0,.08h0L47.32,28,47.24,28s0,0-.12,0-.09,0-.08-.06c-.23-.07-.22,0-.25,0s-.17-.06-.11-.07c-.17-.06-.48-.15-.6-.21s.05,0-.1,0a3.76,3.76,0,0,0-1.19-.24c.1.08-.11,0-.19.06.09,0-.38-.09,0-.08h-.21c-.14,0,.36,0,.14-.07a5.39,5.39,0,0,1-.69,0c.1-.05-.22,0-.14,0a.75.75,0,0,1,.22,0h0c-.54,0-.16.06-.44.1s-.25,0-.27-.06a1.58,1.58,0,0,0-.3,0c.2,0,.37,0,.28.06a1.49,1.49,0,0,0-.57,0c.46.05.32,0,.75.06.06,0,.05-.08.31-.06-.16,0,0,0,0,0s.18,0,.26,0-.15.06.1.1l.06-.07c.1,0,0,.05.17.05-.12,0,0,.06-.26.05a2.46,2.46,0,0,0,.81,0h-.07a1,1,0,0,1,.25,0c.17.05-.14,0-.1,0l.28.05h0a.32.32,0,0,1,.17,0l-.18,0h.3s.24.09,0,.06l.44.08,0,.05c.11,0,.11,0,0,0,.15,0,.67.1.57.17a5.15,5.15,0,0,1,.87.23c-.32-.08.33.2,0,.09a1.8,1.8,0,0,0,.39.11c.13.08.05.1-.11,0l.18.05h0l.16,0c.15.09,0,.05.17.13l.06,0,.09.08s.07,0,.19.06h0l.14.07c-.15-.05.13.07,0,.07l.34.17,0,0c.29.13,0,0,.21.17v0c.28.25.55.32.75.5-.13-.08-.12,0-.11,0,.21.11.49.38.71.49,0,.1,0,.12.23.29s.16.14.22.16.38.34.36.37.11.12.2.17v0c.17.27.39.36.55.64l0,0,.1.09s0,0-.06,0a5.85,5.85,0,0,1,.38.49l0-.11a2.3,2.3,0,0,1,.23.28c-.19-.17.12.17.11.22l-.09-.1c.11.15.11.15.13.11.15.19,0,.17.19.33L53,33s.07,0,.12.12,0,.09,0,0c.11.15.24.39.29.46s0,.07,0,0a3.06,3.06,0,0,1,.3.49h0l.08.11,0,.19v-.07a3.1,3.1,0,0,1,.17.32l-.06,0c.18.32.12.4.29.71,0,0,0,0,0,0,.16.28,0,.24.21.53,0,0,0,0,0,0l.06.13h0l.08.1v.1l0,0c0,.17.09.37.09.58l0,0a7,7,0,0,1,.23,1.85h0l.06.27c0,.14,0-.09,0,0,0,.28.08.12.07.45,0,.17,0-.06,0-.14a9.7,9.7,0,0,1,0,1h0a3.58,3.58,0,0,1-.1.7s0-.06,0-.12a1.32,1.32,0,0,0,0,.26l0-.09a2.07,2.07,0,0,1-.11.54s0,0,0,.15-.1.4-.2.62c0,0,0-.2,0-.15a1.3,1.3,0,0,0-.07.33v0a3.44,3.44,0,0,1-.15.55c-.09.06-.21.5-.23.45-.08.18.09-.15,0,.09-.05.05-.08.22-.11.19v0l-.06.16v-.12c0,.15-.08.26,0,.28s-.18.31-.24.36l0-.06c-.2.37-.4.56-.54.85t0,0l-.14.21v-.07l-.2.37h0c-.15.23-.42.56-.65.84l0-.05c-.22.32-.25.28-.42.51v0l-.18.18,0-.05c-.11.16-.43.33-.32.28a2,2,0,0,0-.19.27c-.19.2-.06,0-.19.14s-.17.17-.39.33v0l-.29.25,0,0c-.21.21-.31.19-.46.38s-.3.19-.31.15a5.75,5.75,0,0,1-.83.56c-.08,0-.06,0-.27.1l0,0a11.89,11.89,0,0,1-1.53.58l0,0-.09.08a13.13,13.13,0,0,1-1.8.37,4.75,4.75,0,0,1-.63.12h0a12.13,12.13,0,0,1-1.36,0s0,0,0,0a1.17,1.17,0,0,1-.38,0l.12,0a1,1,0,0,1-.39-.07h-.22l0,0,0,0-.11-.06a2.62,2.62,0,0,0-.42,0s-.21-.07-.06,0c-.24-.07-.5-.1-.74-.19l.11.05s-.23,0-.34-.07c.16,0,0,0,0-.08s.08.05,0,.05a2,2,0,0,1-.46-.13h.08a2.09,2.09,0,0,1-.4-.19c-.15,0-.25-.11-.24,0-.22-.08-.07-.07-.14-.1s-.4-.16-.41-.22-.53-.32-.61-.28l-.14-.13s-.08,0-.21,0-.06-.11-.08-.15H37.5a12.09,12.09,0,0,1-2.11-1.9,8.11,8.11,0,0,1-.91-1.06l0,0-.26-.4.17.3-.18-.22c-.26-.45-.6-1.06-.89-1.62-.25-.34-.06-.28-.26-.62,0,0,0,0,.06.06-.17-.39-.3-.59-.45-1,.09,0-.08-.27,0-.25l0,0c0-.1-.06-.32,0-.29l-.09-.17,0,0a3.23,3.23,0,0,1-.12-.9,9.46,9.46,0,0,1-.14-1.12,12.21,12.21,0,0,1,.06-1.23,3.12,3.12,0,0,1,0-.51l.06-.19a1.55,1.55,0,0,1,.07-.53v0a3.34,3.34,0,0,0,.09-.52c0-.2.13-.38.15-.31s.13-.4.13-.4l.14-.42c.12-.26.26-.65.48-1.1a12.21,12.21,0,0,1,2.19-3.08,11.51,11.51,0,0,1,3.45-2.44,15.18,15.18,0,0,1,2.91-1c.08-.05.31-.1.22-.13.18,0,.27,0,.3,0-.25,0,.07-.1-.18-.11l.16,0s-.21.05-.18,0l0,.07a.85.85,0,0,1-.25,0,.91.91,0,0,1-.47.13l.08,0c-.24,0-.15,0-.2,0h0a1.33,1.33,0,0,0-.2,0c.15,0,.39-.08.26-.06s.07,0-.13,0-.1,0-.1,0l-.23.06s.15,0,.05-.05l-.28.1c-.07-.06-.31.11-.46.07.21-.06,0,0,0-.05A3,3,0,0,0,40,28c-.05,0,.13-.07,0,0a.54.54,0,0,0-.2.09c-.05,0-.37.13-.37.08-.35.09-.13.09-.44.2,0,0,.24-.12.09-.08l-.31.15a.33.33,0,0,1,.16-.12,8.13,8.13,0,0,0-2.1,1c-.12,0,.06-.07.12-.14-.48.42-.78.44-1.18.81v0A9.09,9.09,0,0,0,34,31.73l.08-.07a3.36,3.36,0,0,1-.24.38s0-.12-.13.09c0,0,.11-.11.11-.08a11.43,11.43,0,0,0-1.73,3,12,12,0,0,0-.73,5c0-.25.06-.15.06,0a5.45,5.45,0,0,0,.12,1.39A9.73,9.73,0,0,0,32.36,44l0,0a1.65,1.65,0,0,0,.14.26h0c.14.3.32.65.42.81h0c.11.16,0,.1.15.26h0l.15.18c-.07,0,.27.47.35.6s.44.57.68.86c0,.07.32.42.5.66l.73.69c.28.25.59.48.86.72l0,0,.15.11s0,0,0,0,.37.23.48.34c-.06-.08-.11-.08-.2-.14s0-.05.2.08h0l.13.06s.09.12.09.16a15.56,15.56,0,0,0,1.53.76c-.08,0,.43.18.29.19.36.13,0-.08.14-.05s.21.07.22.1.07.07,0,.05l.25.07s0,0-.06,0a9.82,9.82,0,0,0,1.36.4s-.18-.05-.14-.07c.48.06.4.14.85.19l-.1,0a1.23,1.23,0,0,1,.45,0s-.21,0-.32,0c.16,0,.57.06.45,0a1.61,1.61,0,0,1,.37.07s-.18,0-.06,0a5.27,5.27,0,0,0,1,0s0,0,0,0C43.63,51.41,43.61,51.49,44,51.48Z"/><path class="cls-5" d="M55.38,40.29a.5.5,0,0,1,0,.12s0,0,0,.07A1.21,1.21,0,0,0,55.38,40.29Z"/><path class="cls-5" d="M53.13,45.94l0,0S53.13,45.94,53.13,45.94Z"/><path class="cls-5" d="M52.25,47.15c.07-.09,0,0,0,0S52.22,47.17,52.25,47.15Z"/><path class="cls-5" d="M55.12,36.83s0,0,0,0S55.12,36.82,55.12,36.83Z"/><path class="cls-5" d="M49.81,29.16l0,0Z"/><path class="cls-5" d="M50.22,29.5l.09.06Z"/><path class="cls-5" d="M55.37,39.13v0Z"/><polygon class="cls-5" points="50.4 29.62 50.5 29.71 50.51 29.7 50.4 29.62"/><path class="cls-5" d="M49.68,29.06l.13.1A.5.5,0,0,0,49.68,29.06Z"/><path class="cls-5" d="M53.84,33.58h0C53.91,33.67,53.88,33.62,53.84,33.58Z"/><polygon class="cls-5" points="50.9 29.93 50.91 29.94 50.95 29.96 50.9 29.93"/><path class="cls-5" d="M49.19,28.75l.06,0-.06,0Z"/><path class="cls-5" d="M52.78,31.89s-.05,0-.06,0S52.77,31.92,52.78,31.89Z"/><path class="cls-5" d="M54.05,27.84h0S54.05,27.85,54.05,27.84Z"/><path class="cls-5" d="M58.09,34.46,58,34.38C58.07,34.44,58.08,34.46,58.09,34.46Z"/><path class="cls-5" d="M50.29,25h0l-.3-.16Z"/><path class="cls-5" d="M54.19,49.69a.27.27,0,0,0,.07-.08Z"/><path class="cls-5" d="M58.58,41.11a.66.66,0,0,1,0,.13A.2.2,0,0,0,58.58,41.11Z"/><path class="cls-5" d="M48.18,23.51l.12.07S48.27,23.54,48.18,23.51Z"/><path class="cls-5" d="M43.32,22.77h0S43.33,22.77,43.32,22.77Z"/><path class="cls-5" d="M45.21,23.07h.14A.37.37,0,0,0,45.21,23.07Z"/><path class="cls-5" d="M45.41,23.09h0Z"/><path class="cls-5" d="M41.09,23.49c.13,0,.25-.06.37-.09Z"/><path class="cls-5" d="M40.8,54.68h0Z"/><path class="cls-5" d="M41.22,23.17h0Z"/><path class="cls-5" d="M50.62,24.49c.14,0,.39.21.4.18C50.88,24.61,50.7,24.48,50.62,24.49Z"/><path class="cls-5" d="M37.32,55.12l-.09,0Z"/><path class="cls-5" d="M41.22,23.17h-.11l0,0Z"/><polygon class="cls-5" points="29 45.68 29 45.69 29.02 45.71 29 45.68"/><path class="cls-5" d="M28.71,44.91l.07.16A.64.64,0,0,0,28.71,44.91Z"/><path class="cls-5" d="M41.46,23.4l.21-.06Z"/><path class="cls-5" d="M27.81,36.29v.08A.25.25,0,0,0,27.81,36.29Z"/><path class="cls-5" d="M58.69,40.49v-.07S58.69,40.42,58.69,40.49Z"/><polygon class="cls-5" points="57.59 46.76 57.59 46.76 57.59 46.76 57.59 46.76"/><path class="cls-5" d="M57.72,46.43a1.25,1.25,0,0,0-.13.33A1.26,1.26,0,0,0,57.72,46.43Z"/><path class="cls-5" d="M57.22,47.4l0,0Z"/><polygon class="cls-5" points="59.62 40.86 59.62 40.86 59.62 40.87 59.62 40.86"/><path class="cls-5" d="M59.38,42.24a.46.46,0,0,0,0,.09Z"/><polygon class="cls-5" points="55.22 50.22 55.22 50.22 55.22 50.23 55.22 50.22"/><path class="cls-5" d="M43.77,56.21c.66-.09,1.43-.18,2.18-.35a21.24,21.24,0,0,0,2.1-.62,7.24,7.24,0,0,1,1-.48l.08.07a2.28,2.28,0,0,0,.3-.17c.14,0-.23.13,0,.05l.09-.11s.82-.38.32-.06c.4-.21.83-.39,1.21-.63s.11-.17.4-.33c.08,0-.09.08-.05.1.89-.49.89-.76,1.63-1.32l-.06.06c.11-.12.35-.3.34-.31s-.09.14-.35.27c0-.07.25-.25.2-.28a4.77,4.77,0,0,0,.4-.35c.28-.17.57-.53.79-.65a3.79,3.79,0,0,1,.41-.54c.21-.12,0,.08.25-.13v-.07c.18-.2.16-.16.17-.14.19-.22.11-.23.37-.48l-.1.18c.16-.22.24-.29.48-.58,0,0-.08.14-.16.22.18-.11.2-.29.28-.36s-.21.2-.17.07.21-.33.32-.41a1.54,1.54,0,0,1-.08.19,2.89,2.89,0,0,1,.34-.56s0,0,0,0a5.53,5.53,0,0,1,.6-.88l0,.07c.09-.14.1-.24.15-.32-.14.2-.13.13-.18.12.23-.22.16-.45.45-.87a.41.41,0,0,1-.11.25,1.13,1.13,0,0,1-.08.53c.07-.18.17-.38.18-.32l0-.09c.06-.1.11-.18.15-.26s-.18.17-.08-.08.15-.11.14-.16c.18-.38,0-.19.23-.53a.59.59,0,0,1-.06.14c.18-.24.28-.65.4-.69a.21.21,0,0,1,0,.16h0c-.07.32.09-.25.12-.12s.12-.37.2-.54l-.07,0c.09-.62.08.07.3-.49.11-.37-.07.13,0-.1a2.88,2.88,0,0,0,.26-.7c.05-.09.14-.29.2-.29a5.13,5.13,0,0,0,.21-.81c-.16.36-.05.39-.26.82l0-.14c.09-.31.2-.71.25-.92,0,0,0,.05-.05,0,.06-.45,0-.59.12-1,.07,0,0,.21,0,.39a5.1,5.1,0,0,0,.16-.72s-.06.29,0,.35l.07-.49h0c-.06-.08,0-.37,0-.68A4.19,4.19,0,0,0,59.56,39q0-.16.06-.09c0,.17,0,.14,0,.2,0-.24,0-.52.1-.39,0-.38,0,.14-.07-.1l0-.52c0,.07,0,.25-.08,0s0-.33,0-.63c0,0,.06-.1.07.12a1,1,0,0,0-.06-.45c0,.33-.12-.52-.14-.27l0-.32c0,.07,0,.07,0,.18,0-.1-.06-.26-.09-.37a2.6,2.6,0,0,1,0-.44,1.61,1.61,0,0,1-.07-.39c0-.15,0,0-.07,0l-.13-.5s.1-.11.13,0c-.08-.18-.11,0-.19-.33.11.15-.06-.4.08-.18a2.69,2.69,0,0,0-.28-.88c-.11-.14.07.28,0,.28-.3-.69-.42-.69-.64-1.19l0,.13a2.68,2.68,0,0,0-.28-.42c.1.06,0-.43-.28-.92-.05,0,.09.3,0,.25a2.07,2.07,0,0,0-.19-.32s0,0,.05,0c-.19-.27-.25-.58-.36-.62l-.1-.34,0,.14a2.64,2.64,0,0,1-.31-.4,1.92,1.92,0,0,1-.41-.6c0,.07.07.24-.12,0,.09-.06-.34-.53-.29-.56s-.2-.27-.24-.26l.06,0c-.09,0-.38-.3-.61-.54.14,0-.25-.28-.28-.46-.1,0-.46-.4-.55-.38-.19-.18-.12-.22-.15-.29L54.06,27a4.36,4.36,0,0,0-.65-.65l-.26-.11-.06-.09s-.23-.14-.13,0L52.84,26c-.06.06-.17-.11-.42-.26-.05,0,0,0,0,0-.12-.08,0-.08-.09-.14s-.53-.17-.22.08c0,0-.2-.07-.31-.16l0-.11-.18,0a5.08,5.08,0,0,1-.4-.32c.16.1.43.11,0-.15a4.2,4.2,0,0,0,.46.22c-.08-.06-.12-.09,0,0-.33-.19-.13,0-.45-.23,0-.05,0-.12-.31-.29l.2.15h0c.08.05.09.07.1.1s-.43-.13-.46-.2c.28.27-.62-.23-.44-.06,0,0-.27-.12-.28-.17.3.1-.18-.17-.11-.19-.11,0,.19.16,0,.11a2.87,2.87,0,0,1-.35-.24l.07,0-.25-.14c-.06,0,.23.16,0,.08-.06,0-.31-.13-.29-.15s.07-.08.29,0c-.18-.07-.74-.29-.54-.14l-.2-.08c.12.08.46.27,0,.11h0l-.3-.07-.12-.09s0,0-.16,0S48,23.5,48,23.48c-.32-.1-.3-.06-.35-.05s-.24-.08-.15-.1c-.24-.08-.67-.2-.83-.28-.35,0,.06,0-.14,0a5.51,5.51,0,0,0-1.66-.33c.13.12-.16,0-.27.08.12,0-.52-.12,0-.11h-.3c-.2-.08.5,0,.2-.1a7.78,7.78,0,0,1-1,0c.14-.07-.3,0-.2-.06a.74.74,0,0,1,.3,0l-.07,0c-.74,0-.21.08-.6.14s-.35-.05-.38-.09a2.08,2.08,0,0,0-.41,0c.27-.05.5,0,.38.08a1.79,1.79,0,0,0-.78,0c.64.07.44,0,1,.08.08,0,.07-.1.42-.08-.22,0,0,0,.08.05s.25,0,.36,0-.22.08.14.13l.07-.09c.15,0-.06.06.24.07-.16,0,0,.08-.36.06a3.27,3.27,0,0,0,1.12,0h-.08a2,2,0,0,1,.34,0c.24.06-.2,0-.14.05s.26,0,.4.07h0a.45.45,0,0,1,.24,0c-.12,0-.17,0-.25.05h.42s.33.12,0,.09l.62.1,0,.08c.15,0,.16,0,0,0,.21,0,.94.15.8.23a7.18,7.18,0,0,1,1.21.33c-.44-.12.45.27,0,.11.24.14.32.09.53.17s.07.13-.14.06l.25.08h0l.23.05c.2.12,0,.07.24.19l.07,0,.14.11c0-.06.09,0,.25.08h0l.2.1c-.21-.07.18.1.07.09l.47.24,0-.06c.41.18,0,0,.29.24v-.05c.39.35.75.44,1.05.69-.19-.11-.18,0-.17,0,.3.15.69.52,1,.68,0,.13.06.16.32.4s.22.19.31.21c.16.19.52.48.49.52s.16.16.28.23v0c.23.38.54.51.77.9l-.06-.05.13.12s0,0-.08,0a5.56,5.56,0,0,1,.53.67l-.07-.16a3.3,3.3,0,0,1,.32.4c-.26-.23.17.23.16.31l-.13-.14c.15.2.15.2.18.15.21.26.07.23.27.46l-.12-.19c0-.06.11,0,.18.17s0,.13,0,0c.14.21.33.55.4.63s0,.11,0,.05a5.84,5.84,0,0,1,.41.68h0l.11.16.07.26,0-.1a3.14,3.14,0,0,1,.23.45l-.07-.06c.25.44.17.56.4,1,0,0,0,0,0-.06.22.39,0,.33.28.73,0,0,0,0,0,0s0,.13.08.19h-.06l.12.14,0,.13,0,.07c0,.24.12.51.12.81l0-.06a9.33,9.33,0,0,1,.33,2.58l-.06,0,.09.37c0,.2,0-.12-.08-.06,0,.4.12.17.1.63-.05.24,0-.08,0-.19a13.41,13.41,0,0,1-.07,1.37s0,0,0,0a4.82,4.82,0,0,1-.14,1s0-.09,0-.17a1.59,1.59,0,0,0-.06.37l0-.13a3.68,3.68,0,0,1-.16.75s.07,0,0,.2-.13.56-.27.87a1.21,1.21,0,0,1,0-.21,1.52,1.52,0,0,0-.1.46l0,0a5.38,5.38,0,0,1-.21.76c-.12.08-.28.69-.32.62-.11.26.13-.21,0,.13-.07.07-.11.3-.15.26v0l-.09.23,0-.17c-.07.21-.11.36-.08.39a3.13,3.13,0,0,1-.33.49l0-.07c-.27.5-.55.77-.75,1.17,0,0,0,0,0,0l-.21.29,0-.1-.28.52,0,0c-.21.32-.59.78-.9,1.17l0-.07c-.32.44-.35.39-.59.7l0,0-.25.25,0-.07a2.35,2.35,0,0,1-.45.39,3.9,3.9,0,0,0-.26.37c-.27.28-.09,0-.27.2a6.75,6.75,0,0,1-.55.45v0l-.4.35.05-.06c-.28.3-.43.27-.63.52-.16.08-.42.26-.43.21a9,9,0,0,1-1.16.78c-.11,0-.09,0-.38.14l0,0a15.85,15.85,0,0,1-2.14.81l0,0-.13.1a17.06,17.06,0,0,1-2.51.52,4.78,4.78,0,0,1-.87.17h0a14.67,14.67,0,0,1-1.89,0s0,0,0,0a1.49,1.49,0,0,1-.52-.05l.16.05a1.17,1.17,0,0,1-.54-.09l-.3,0-.05,0,0,0-.15-.08a4.85,4.85,0,0,0-.58,0s-.29-.1-.08-.06c-.35-.1-.71-.14-1-.27l.15.07c0,.05-.31,0-.46-.09.22,0,0-.06,0-.12s.1.08,0,.08a3.16,3.16,0,0,1-.64-.18H38c-.25-.05-.33-.17-.55-.27s-.36-.15-.35-.06c-.3-.11-.09-.1-.18-.15a1.26,1.26,0,0,1-.58-.29c-.21,0-.74-.45-.84-.4l-.2-.17s-.11.05-.29-.06-.08-.15-.12-.21h-.16a17.25,17.25,0,0,1-2.94-2.64,10.51,10.51,0,0,1-1.27-1.47l.06.06-.37-.55.24.41c-.09-.11-.17-.19-.25-.3-.37-.63-.83-1.47-1.24-2.25-.36-.48-.09-.38-.36-.86l.07.08c-.23-.54-.41-.82-.62-1.38.13,0-.11-.37,0-.33l-.06,0c0-.13-.09-.43,0-.4l-.13-.24,0,0a5.92,5.92,0,0,1-.16-1.26,13.77,13.77,0,0,1-.19-1.54A15.88,15.88,0,0,1,27.6,38a3.6,3.6,0,0,1,0-.71l.09-.26a2.25,2.25,0,0,1,.09-.74v0a3.71,3.71,0,0,0,.12-.73c.06-.27.19-.51.21-.42s.18-.56.18-.56.08-.21.2-.59.36-.9.67-1.51a16.64,16.64,0,0,1,3.05-4.28,16.19,16.19,0,0,1,4.81-3.38A17.31,17.31,0,0,1,39.37,24c.35-.1.67-.22,1-.29l.76-.18c.11-.06.44-.13.31-.17.25-.05.37,0,.42,0-.35,0,.1-.14-.25-.15l.22,0s-.3.08-.25,0l0,.09a1.08,1.08,0,0,1-.34,0,1.38,1.38,0,0,1-.66.18l.11,0c-.32,0-.21,0-.28,0h.08a2.61,2.61,0,0,0-.28,0c.21,0,.54-.11.36-.09-.39,0,.1,0-.19.06s-.13,0-.13-.05l-.32.07s.21,0,.08-.05l-.4.13c-.09-.08-.42.15-.63.1.28-.09,0,0,0-.07a4.33,4.33,0,0,0-.7.21c-.07,0,.18-.09.07-.05s-.2.1-.27.12-.52.18-.52.11c-.49.13-.18.13-.62.28-.07,0,.34-.15.13-.11l-.43.21a.43.43,0,0,1,.23-.16,11.11,11.11,0,0,0-2.93,1.36c-.16.06.08-.1.16-.2-.66.59-1.08.62-1.64,1.13l0,0a12.33,12.33,0,0,0-2.48,2.47l.11-.1c-.07.15-.23.36-.33.53,0,0,0-.16-.18.12,0-.05.15-.16.14-.11a15.73,15.73,0,0,0-2.4,4.2,16.55,16.55,0,0,0-1,6.88c0-.34.08-.2.08.06a2.83,2.83,0,0,0,0,1,5.37,5.37,0,0,1,.15,1c.11.65.32,1.24.45,1.83a10.19,10.19,0,0,0,.68,1.68l0,0a2.24,2.24,0,0,0,.2.37h0c.19.41.44.89.57,1.11h.06c.14.23,0,.14.2.36h0l.21.24c-.1,0,.38.65.49.84s.61.8.95,1.19a10.48,10.48,0,0,0,.7.91l1,1c.38.34.81.67,1.2,1l0-.06.21.16s0,0,0,0c.13.17.52.32.67.47-.08-.12-.15-.11-.27-.19s0-.08.27.11h0l.19.08s.13.17.12.23a10.56,10.56,0,0,0,1,.54c.33.17.67.33,1.08.51-.1,0,.6.24.4.26.51.18-.05-.11.2-.07s.29.1.3.14.1.09,0,.06l.35.11s-.05,0-.09,0a14.12,14.12,0,0,0,1.9.54c.05,0-.26-.06-.2-.08.66.07.56.19,1.18.25l-.14,0A1.6,1.6,0,0,1,41,56c0,.06-.29,0-.45,0,.22,0,.8.08.63,0a1.88,1.88,0,0,1,.51.11s-.25-.07-.09-.08a7.71,7.71,0,0,0,1.4.08s0,0,0,0C43.3,56.1,43.26,56.22,43.77,56.21Z"/><path class="cls-5" d="M59.65,40.68a1.13,1.13,0,0,1,0,.18s0,0,0,.1A1.29,1.29,0,0,0,59.65,40.68Z"/><path class="cls-5" d="M56.51,48.53l0,.06S56.51,48.54,56.51,48.53Z"/><path class="cls-5" d="M55.29,50.2c.09-.12,0,0-.07,0S55.24,50.24,55.29,50.2Z"/><path class="cls-5" d="M59.29,35.87s0,.05,0,0Z"/><path class="cls-5" d="M51.88,25.24l0,0S51.9,25.26,51.88,25.24Z"/><path class="cls-5" d="M52.45,25.71l.13.09A.44.44,0,0,0,52.45,25.71Z"/><path class="cls-5" d="M59.63,39.08a.61.61,0,0,0,0,.14A.45.45,0,0,0,59.63,39.08Z"/><polygon class="cls-5" points="52.7 25.88 52.84 26 52.85 25.99 52.7 25.88"/><path class="cls-5" d="M51.69,25.11l.19.13A.92.92,0,0,0,51.69,25.11Z"/><path class="cls-5" d="M57.49,31.37h0C57.6,31.5,57.55,31.42,57.49,31.37Z"/><polygon class="cls-5" points="53.4 26.31 53.41 26.33 53.47 26.35 53.4 26.31"/><path class="cls-5" d="M51,24.67l.09,0L51,24.65Z"/><path class="cls-5" d="M56,29l-.07,0C56,29,56,29.07,56,29Z"/><path class="cls-5" d="M48.39,43.49s0,0,.06,0Z"/><polygon class="cls-5" points="48.26 43.47 48.28 43.48 48.22 43.47 48.26 43.47"/><path class="cls-5" d="M48.26,43.46c-.1,0,0,0,0,0h0Z"/><path class="cls-5" d="M48.47,43.45s0,0,0,0h0Z"/><path class="cls-5" d="M48.46,43.45Z"/><path class="cls-5" d="M48.44,43.44h0Z"/><path class="cls-5" d="M48.37,43.44h0Z"/><path class="cls-5" d="M48.42,43.44h0Z"/><path class="cls-5" d="M48.4,43.44h-.07S48.42,43.45,48.4,43.44Z"/><path class="cls-5" d="M48.16,43.45h0S48.19,43.45,48.16,43.45Z"/><path class="cls-5" d="M48.49,43.42h0Z"/><path class="cls-5" d="M48.41,43.42h0Z"/><polygon class="cls-5" points="48.27 43.44 48.34 43.44 48.26 43.43 48.27 43.44"/><polygon class="cls-5" points="48.49 43.41 48.54 43.41 48.47 43.41 48.49 43.41"/><path class="cls-5" d="M48.49,43.4h0Z"/><path class="cls-5" d="M48.46,43.4h0Z"/><path class="cls-5" d="M48.39,43.42h0Z"/><polygon class="cls-5" points="48.38 43.41 48.39 43.41 48.39 43.41 48.38 43.41"/><path class="cls-5" d="M48.39,43.42Z"/><path class="cls-5" d="M48.32,43.43h0Z"/><path class="cls-5" d="M48.31,43.42h0Z"/><polygon class="cls-5" points="48.3 43.41 48.31 43.42 48.32 43.42 48.3 43.41"/><path class="cls-5" d="M48.41,43.4h0Z"/><path class="cls-5" d="M48.39,43.41Z"/><polygon class="cls-5" points="48.38 43.38 48.37 43.38 48.38 43.38 48.38 43.38"/><path class="cls-5" d="M48.35,43.4h0Z"/><path class="cls-5" d="M48.43,43.39h0Z"/><path class="cls-5" d="M48.4,43.41h0Z"/><path class="cls-5" d="M48.4,43.41h0Z"/><path class="cls-5" d="M48,43.37c.05,0,.1,0,0,0h0Z"/><path class="cls-5" d="M48.36,43.39h0Z"/><path class="cls-5" d="M48.37,43.39H48.3s0,0,.06,0h0Z"/><path class="cls-5" d="M48.08,43.42h0Z"/><path class="cls-5" d="M48.11,43.42h0Z"/><path class="cls-5" d="M48.22,43.41h0S48.2,43.41,48.22,43.41Z"/><polygon class="cls-5" points="48.41 43.38 48.47 43.38 48.38 43.38 48.41 43.38"/><polygon class="cls-5" points="48.4 43.37 48.45 43.37 48.42 43.37 48.4 43.37"/><path class="cls-5" d="M47.74,43h0Z"/><path class="cls-5" d="M47.73,43h0Z"/><path class="cls-5" d="M48.39,43.21h0Z"/><path class="cls-5" d="M48,43.11h0Z"/><path class="cls-5" d="M47.8,43.11h0Z"/><path class="cls-5" d="M47.67,43h0Z"/><path class="cls-5" d="M48.38,43.31h0S48.33,43.31,48.38,43.31Z"/><path class="cls-5" d="M48.36,43h0Z"/><path class="cls-5" d="M48.41,43.3h0Z"/><path class="cls-5" d="M47.72,42.74h0Z"/><path class="cls-5" d="M48.31,42.68h0Z"/><path class="cls-5" d="M48.42,43.35Z"/><path class="cls-5" d="M48.19,43.35h0Z"/><path class="cls-5" d="M48.05,43.28Z"/><path class="cls-5" d="M48.4,43.35h0Z"/><path class="cls-5" d="M48.43,43.35h0Z"/><path class="cls-5" d="M48.42,43.35Z"/><path class="cls-5" d="M47.88,42.86h0Z"/><polygon class="cls-5" points="47.78 43.18 47.79 43.18 47.79 43.18 47.78 43.18"/><path class="cls-5" d="M47.74,43.17h0Z"/><path class="cls-5" d="M47.72,43h-.18c.18,0,0,0,.2,0h-.05c-.09,0,.13,0,.11,0h.05s-.09,0-.08,0c-.19,0,0,0-.06,0h.07c-.07,0-.05,0-.05,0h-.11s.11,0,.12,0h.13c.09,0-.14,0,0,0h0c.08,0,0,0,0,0a.08.08,0,0,1-.07,0h.06c-.11,0,.15,0,.07,0h0s0,0,.11,0h-.16s0,0,0,0h0s0,0,0,0h0s.21,0,.21,0h.22l-.45,0s-.06,0,0,0h0a1.23,1.23,0,0,1,.24,0h-.2s.12,0,0,0h.29a2.43,2.43,0,0,1-.27,0h.07s-.08,0-.07,0h.08s0,0,0,0h.16l0,0h0c-.08,0,0,0-.11,0H48c.08,0,0,0,0,0h.29s-.08,0-.06,0,.2,0,.11,0H48.1s-.05,0,0,0,0,0-.08,0h.18s.11,0,.07,0h-.08s0,0,0,0-.11,0,0,0h.08a.65.65,0,0,1,.14,0h0s.05,0,0,0-.07,0,0,0h0s-.1,0,0,0h0s.06,0,0,0c.14,0,0,0,.06,0h-.17s0,0,0,0h0c.13,0-.1,0,0,0h-.08c.11,0,0,0,.08,0h-.14c.1,0,0,0,.11,0h0s.06,0,0,0h-.12s0,0,0,0h.08s0,0,0,0h0s0,0,0,0h0c.07,0,0,0,0,0h-.07c-.14,0,.08,0,0,0h0a1.1,1.1,0,0,1,.21,0h0c.08,0-.09,0-.11,0h.13s-.15,0-.06,0h-.1s.14,0,0,0h-.08c.23,0-.1,0,.1,0h0s0,0-.08,0h0s0,0-.07,0h.07s.1,0,0,0h0c-.07,0,.19,0,0,0h-.06a.74.74,0,0,1-.15,0h.21s.06,0,.06,0h0s-.08,0-.07,0h0s0,0-.08,0c.14,0,.05,0,.09,0s-.05,0-.05,0h.08c-.07,0,0,0,0,0h0s-.14,0,0,0h-.06c.11,0-.1,0,.12-.05h-.48c.11,0-.17,0,0,0h-.07c.06,0,.07,0,0,0h0s0,0-.08,0h.13c-.13,0,0,0-.15,0h0s0,0,0,0h0s0,0,.06,0h0c.06,0,0,0,0,0h0c-.11,0,.11,0,0,0h0s0,0,0,0h.07s.16,0,.1,0h-.23c.15,0,0,0,.1,0h-.11c.07,0-.06,0,0,0s.07,0,.12,0-.17,0-.14,0h.11c-.08,0,0,0,0,0h-.06s.13,0,.08,0h-.14s-.07,0,0,0h.06s-.08,0-.11,0,.15,0,.07,0S47.73,43,47.72,43Zm0,.06s0,0,0,0S47.78,43,47.76,43Zm.16.07h0Zm.45.22Zm0,0h0s0,0,0,0S48.33,43.34,48.34,43.34Zm0-.5h0Z"/><path class="cls-5" d="M47.83,43.11h0Z"/><polygon class="cls-5" points="47.69 42.95 47.69 42.95 47.67 42.95 47.69 42.95"/><path class="cls-5" d="M47.79,43.27h0Z"/><path class="cls-5" d="M48.45,43.36h0Z"/><path class="cls-5" d="M48.05,43.39h0Z"/><path class="cls-5" d="M48.24,43.36c-.06,0,0,0,0,0h0C48.29,43.37,48.26,43.37,48.24,43.36Z"/><path class="cls-5" d="M48.21,43.37Z"/><path class="cls-5" d="M48.38,43.34h0Z"/><polygon class="cls-5" points="48.06 43.37 48.13 43.37 48.07 43.36 48.06 43.37"/><path class="cls-5" d="M48.11,43.35h0Z"/><path class="cls-5" d="M48.11,43.35h0Z"/><polygon class="cls-5" points="48.04 43.36 48.05 43.36 48.06 43.36 48.04 43.36"/><path class="cls-5" d="M48.12,43.31h0Z"/><path class="cls-5" d="M47.93,43.32h0Z"/><path class="cls-5" d="M47.92,43.31h0Z"/><polygon class="cls-5" points="48.02 43.26 48.02 43.26 48.16 43.26 48.02 43.26"/><path class="cls-5" d="M47.69,43.21s.09,0,.05,0h-.05Z"/><path class="cls-5" d="M47.8,43.21h0Z"/><polygon class="cls-5" points="48.39 42.67 48.42 42.67 48.37 42.67 48.39 42.67"/><path class="cls-5" d="M48.29,42.67h0Z"/><path class="cls-5" d="M47.59,43h0Z"/><polygon class="cls-5" points="47.65 43.01 47.65 43.01 47.73 43.01 47.65 43.01"/><path class="cls-5" d="M47.55,43h0Z"/><path class="cls-5" d="M47.79,45.16h0Z"/><polygon class="cls-5" points="47.66 45.14 47.69 45.14 47.63 45.14 47.66 45.14"/><path class="cls-5" d="M47.66,45.13c-.09,0,0,0,0,0h0Z"/><path class="cls-5" d="M47.87,45.13h0Z"/><path class="cls-5" d="M47.87,45.13Z"/><path class="cls-5" d="M47.85,45.12h0Z"/><path class="cls-5" d="M47.78,45.12h0Z"/><path class="cls-5" d="M47.82,45.12h0Z"/><path class="cls-5" d="M47.81,45.13h0Z"/><path class="cls-5" d="M47.57,45.13h0Z"/><path class="cls-5" d="M47.9,45.11h0Z"/><path class="cls-5" d="M47.82,45.11h0Z"/><polygon class="cls-5" points="47.67 45.12 47.75 45.12 47.67 45.12 47.67 45.12"/><polygon class="cls-5" points="47.9 45.11 47.95 45.11 47.88 45.11 47.9 45.11"/><path class="cls-5" d="M47.89,45.1h0Z"/><path class="cls-5" d="M47.87,45.1h0Z"/><path class="cls-5" d="M47.79,45.11h0Z"/><polygon class="cls-5" points="47.79 45.11 47.79 45.11 47.8 45.11 47.79 45.11"/><path class="cls-5" d="M47.79,45.11Z"/><path class="cls-5" d="M47.72,45.12h0Z"/><path class="cls-5" d="M47.72,45.11h0Z"/><polygon class="cls-5" points="47.7 45.11 47.72 45.11 47.73 45.11 47.7 45.11"/><path class="cls-5" d="M47.81,45.1h0Z"/><path class="cls-5" d="M47.8,45.11Z"/><polygon class="cls-5" points="47.78 45.09 47.77 45.09 47.78 45.09 47.78 45.09"/><path class="cls-5" d="M47.76,45.1h0Z"/><path class="cls-5" d="M47.84,45.1h0Z"/><path class="cls-5" d="M47.81,45.11Z"/><path class="cls-5" d="M47.81,45.11h0Z"/><path class="cls-5" d="M47.41,45.09h.22a1.32,1.32,0,0,0-.2,0h0Z"/><path class="cls-5" d="M47.77,45.09Z"/><path class="cls-5" d="M47.77,45.1h0Z"/><path class="cls-5" d="M47.48,45.11h0Z"/><path class="cls-5" d="M47.52,45.11h0Z"/><path class="cls-5" d="M47.63,45.11h-.05S47.61,45.1,47.63,45.11Z"/><polygon class="cls-5" points="47.81 45.09 47.87 45.09 47.79 45.09 47.81 45.09"/><polygon class="cls-5" points="47.81 45.09 47.86 45.09 47.83 45.09 47.81 45.09"/><path class="cls-5" d="M47.14,44.88h0Z"/><path class="cls-5" d="M47.14,44.88h0Z"/><path class="cls-5" d="M47.8,45h0Z"/><path class="cls-5" d="M47.45,44.93h0Z"/><path class="cls-5" d="M47.21,44.93h0Z"/><path class="cls-5" d="M47.08,44.85h0Z"/><path class="cls-5" d="M47.78,45.05h0Z"/><path class="cls-5" d="M47.76,44.88h0Z"/><path class="cls-5" d="M47.82,45h0S47.86,45,47.82,45Z"/><path class="cls-5" d="M47.13,44.73h0Z"/><path class="cls-5" d="M47.72,44.69Z"/><path class="cls-5" d="M47.83,45.07Z"/><path class="cls-5" d="M47.6,45.08h0Z"/><path class="cls-5" d="M47.46,45h0S47.45,45,47.46,45Z"/><path class="cls-5" d="M47.8,45.07h0Z"/><path class="cls-5" d="M47.83,45.07Z"/><path class="cls-5" d="M47.83,45.07h0Z"/><path class="cls-5" d="M47.29,44.79Z"/><polygon class="cls-5" points="47.19 44.98 47.2 44.98 47.2 44.98 47.19 44.98"/><path class="cls-5" d="M47.15,45c.07,0,.06,0,.05,0h-.05Z"/><path class="cls-5" d="M47.13,44.86h0c-.09,0,.13,0,.11,0h0s0,0,0,0H47s.11,0,.12,0h.1c.09,0,0,0,0,0h-.06c.14,0,.09,0,.13,0s-.09,0-.08,0,.16,0,.07,0h0s0,0,.11,0h-.13a1.41,1.41,0,0,1,.2,0h-.26s.12,0,0,0h.09s-.08,0-.07,0h.34s.2,0,.12,0h-.1s.1,0,.07,0h.14s-.1,0,0,0h0s0,0,0,0c.14,0,0,0,0,0h-.17s.05,0,0,0h0c.14,0-.1,0,0,0h-.13c.1,0,0,0,.11,0h0s.06,0-.05,0h-.11c.05,0,0,0,0,0h0s0,0,0,0h0c.08,0,0,0,0,0h-.06c-.14,0,.08,0,0,0h.22s-.15,0-.06,0h-.1s.13,0,0,0h0s0,0-.07,0h.06s.11,0,0,0h0c-.08,0,.19,0-.06,0h0l.07,0H47.6c.13,0,0,0,.09,0h0c-.07,0,.05,0,0,0h-.09c.12,0-.09,0,.13,0a.09.09,0,0,1-.06,0h-.43c.12,0-.17,0,0,0h0s0,0-.08,0h0s0,0,.06,0h0c-.11,0,.11,0,0,0,.14,0,.08,0,.11,0s.1,0,.09,0h-.19s.05,0,0,0h0c.15,0,0,0,.1,0h0c.08,0-.17,0-.14,0h.09s.14,0,.09,0H47s.1,0,.06,0h0s.14,0,.07,0S47.13,44.86,47.13,44.86Zm0,0h0Zm.16,0h0Zm.45.12h0Zm0,0h0S47.74,45.06,47.75,45.07Zm0-.29h0Z"/><path class="cls-5" d="M47.24,44.93h0Z"/><polygon class="cls-5" points="47.09 44.85 47.09 44.85 47.08 44.85 47.09 44.85"/><path class="cls-5" d="M47.2,45h0Z"/><path class="cls-5" d="M47.86,45.08h0Z"/><path class="cls-5" d="M47.46,45.09h0Z"/><path class="cls-5" d="M47.64,45.08h0Z"/><path class="cls-5" d="M47.62,45.08Z"/><path class="cls-5" d="M47.79,45.07h0Z"/><polygon class="cls-5" points="47.46 45.08 47.53 45.08 47.48 45.08 47.46 45.08"/><path class="cls-5" d="M47.51,45.07h0Z"/><path class="cls-5" d="M47.52,45.07h0Z"/><polygon class="cls-5" points="47.44 45.08 47.46 45.08 47.46 45.08 47.44 45.08"/><path class="cls-5" d="M47.53,45.05h0Z"/><path class="cls-5" d="M47.34,45.06h0Z"/><path class="cls-5" d="M47.32,45.05h0Z"/><polygon class="cls-5" points="47.43 45.02 47.43 45.02 47.57 45.02 47.43 45.02"/><path class="cls-5" d="M47.1,45s.08,0,0,0h0Z"/><path class="cls-5" d="M47.2,45h0Z"/><polygon class="cls-5" points="47.79 44.69 47.82 44.69 47.78 44.69 47.79 44.69"/><path class="cls-5" d="M47.69,44.68h0Z"/><path class="cls-5" d="M47,44.9h0Z"/><polygon class="cls-5" points="47.06 44.88 47.06 44.88 47.13 44.88 47.06 44.88"/><path class="cls-5" d="M47,44.86h0Z"/><path class="cls-5" d="M49.45,44.92h0Z"/><polygon class="cls-5" points="49.32 44.9 49.35 44.9 49.29 44.9 49.32 44.9"/><path class="cls-5" d="M49.33,44.88c-.1,0,0,0,0,0h0S49.3,44.89,49.33,44.88Z"/><path class="cls-5" d="M49.53,44.88s0,0,0,0Z"/><path class="cls-5" d="M49.53,44.88Z"/><path class="cls-5" d="M49.51,44.87h0Z"/><path class="cls-5" d="M49.44,44.87h0Z"/><path class="cls-5" d="M49.48,44.87h0Z"/><path class="cls-5" d="M49.47,44.87a.16.16,0,0,1-.07,0S49.48,44.88,49.47,44.87Z"/><path class="cls-5" d="M49.23,44.88h0S49.26,44.88,49.23,44.88Z"/><path class="cls-5" d="M49.56,44.86h0Z"/><path class="cls-5" d="M49.48,44.86h0Z"/><polygon class="cls-5" points="49.33 44.87 49.41 44.87 49.33 44.87 49.33 44.87"/><polygon class="cls-5" points="49.56 44.85 49.61 44.85 49.54 44.84 49.56 44.85"/><path class="cls-5" d="M49.55,44.84h0Z"/><path class="cls-5" d="M49.53,44.83h0Z"/><path class="cls-5" d="M49.45,44.85h0Z"/><polygon class="cls-5" points="49.45 44.85 49.45 44.85 49.46 44.85 49.45 44.85"/><path class="cls-5" d="M49.45,44.85Z"/><path class="cls-5" d="M49.38,44.86h0Z"/><path class="cls-5" d="M49.38,44.85h0Z"/><polygon class="cls-5" points="49.36 44.85 49.38 44.85 49.39 44.85 49.36 44.85"/><path class="cls-5" d="M49.48,44.84h0Z"/><path class="cls-5" d="M49.46,44.84Z"/><polygon class="cls-5" points="49.45 44.82 49.43 44.82 49.44 44.82 49.45 44.82"/><path class="cls-5" d="M49.42,44.84h0Z"/><path class="cls-5" d="M49.5,44.83h0Z"/><path class="cls-5" d="M49.47,44.84Z"/><path class="cls-5" d="M49.47,44.84h0Z"/><path class="cls-5" d="M49.07,44.82h0Z"/><path class="cls-5" d="M49.43,44.82h0Z"/><path class="cls-5" d="M49.44,44.83h0Z"/><path class="cls-5" d="M49.14,44.86h0Z"/><path class="cls-5" d="M49.18,44.85s0,0,0,0h0Z"/><path class="cls-5" d="M49.29,44.84h0Z"/><polygon class="cls-5" points="49.47 44.82 49.53 44.82 49.45 44.82 49.47 44.82"/><polygon class="cls-5" points="49.47 44.81 49.52 44.81 49.49 44.81 49.47 44.81"/><path class="cls-5" d="M48.8,44.5h0Z"/><path class="cls-5" d="M48.8,44.51h0Z"/><path class="cls-5" d="M49.46,44.68h0Z"/><path class="cls-5" d="M49.11,44.59h0Z"/><path class="cls-5" d="M48.87,44.58h0Z"/><path class="cls-5" d="M48.74,44.45h0Z"/><path class="cls-5" d="M49.44,44.76h0Z"/><path class="cls-5" d="M49.42,44.51h0Z"/><path class="cls-5" d="M49.48,44.75h0Z"/><path class="cls-5" d="M48.79,44.27h0Z"/><path class="cls-5" d="M49.38,44.22h0Z"/><path class="cls-5" d="M49.49,44.79Z"/><path class="cls-5" d="M49.26,44.8h0Z"/><path class="cls-5" d="M49.12,44.74Z"/><path class="cls-5" d="M49.47,44.79h0Z"/><path class="cls-5" d="M49.49,44.79Z"/><path class="cls-5" d="M49.49,44.79h0Z"/><path class="cls-5" d="M49,44.37Z"/><polygon class="cls-5" points="48.85 44.65 48.85 44.65 48.86 44.65 48.85 44.65"/><path class="cls-5" d="M48.81,44.64h0Z"/><path class="cls-5" d="M48.79,44.48h0c-.09,0,.13,0,.11,0h.05s0,0,0,0h0c-.05,0-.09,0-.09,0-.18,0,.05,0-.06,0h0s0,0,.06,0a.21.21,0,0,1-.08,0h.14c.1,0-.14,0,0,0h-.07l.28,0h-.2c.09,0,0,0,0,0h-.06a.5.5,0,0,1,.13,0s-.09,0-.08,0,.16,0,.08,0h0s0,0,0,0h0s0,0,.11,0h-.13s.21,0,.2,0h.23l-.46,0h-.07a1.3,1.3,0,0,1,.25,0h-.21s.12,0,0,0H49s0,0,0,0H49c.09,0,0,0,0,0h.28s-.07,0,0,0,.19,0,.11,0h-.21c-.06,0,0,0-.07,0h.43c-.11,0,0,0-.12,0h.15s-.06,0,0,0h0s0,0,0,0h0s-.1,0,0,0,0,0,0,0h0s0,0,0,0c.14,0,0,0,.06,0h-.18c-.05,0,0,0,0,0h0c.14,0-.1,0,0,0h-.13s0,0,0,0h0c.1,0,0,0,.11,0-.16,0,.07,0,0,0h.09s.06,0,0,0h.08s0,0,0,0h-.18s0,0,0,0h.09s0,0,0,0h0s0,0,0,0h0c-.14,0,.08,0,0,0h.22s-.15,0-.06,0h-.1s.13,0,0,0h-.08c.22,0-.11,0,.1,0h0s0,0-.09,0h.05s0,0-.07,0h.06s.11,0,0,0h0c-.08,0,.19,0-.06,0h-.13a.52.52,0,0,0,.13,0s.07,0,.07,0h-.15c.13,0,.05,0,.09,0s-.06,0-.05,0h.12a.74.74,0,0,0-.15,0h.11c-.07,0,0,0,0,0h0s-.14,0-.06,0h-.06c.12,0-.09,0,.13,0H49c.12,0-.16,0,0,0h0s0,0-.08,0H49c-.13,0,0,0-.15,0h0s0,0,0,0h0s0,0,.06,0h0c.06,0,0,0,0,0H49a.56.56,0,0,0-.13,0c-.11,0,.11,0,0,0,.14,0,.08,0,.11,0h-.16c.15,0,0,0,.1,0h-.11c.07,0-.06,0,0,0h.13c.08,0-.17,0-.14,0h.1c-.07,0,0,0,.06,0h-.12s0,0,0,0h.12s-.06,0-.05,0-.09,0,0,0h-.06s0,0,0,0h0s-.08,0,0,0h-.05c.05,0,.15,0,.07,0Zm0,0h0Zm.16.07h0Zm.45.19Zm0,0h0Zm0-.42h0Z"/><path class="cls-5" d="M48.9,44.58h0Z"/><polygon class="cls-5" points="48.75 44.45 48.75 44.45 48.74 44.45 48.75 44.45"/><path class="cls-5" d="M48.86,44.72h0Z"/><path class="cls-5" d="M49.52,44.8h0Z"/><path class="cls-5" d="M49.12,44.83h0Z"/><path class="cls-5" d="M49.3,44.81h0Z"/><path class="cls-5" d="M49.28,44.81Z"/><path class="cls-5" d="M49.45,44.79h0Z"/><polygon class="cls-5" points="49.13 44.81 49.19 44.81 49.14 44.81 49.13 44.81"/><path class="cls-5" d="M49.17,44.79h0S49.19,44.79,49.17,44.79Z"/><path class="cls-5" d="M49.18,44.8h0Z"/><polygon class="cls-5" points="49.1 44.8 49.12 44.8 49.12 44.8 49.1 44.8"/><path class="cls-5" d="M49.19,44.76h0Z"/><path class="cls-5" d="M49,44.77h0Z"/><path class="cls-5" d="M49,44.76h-.06S49,44.77,49,44.76Z"/><polygon class="cls-5" points="49.09 44.72 49.09 44.72 49.23 44.72 49.09 44.72"/><path class="cls-5" d="M48.76,44.68h0Z"/><path class="cls-5" d="M48.87,44.68h0Z"/><polygon class="cls-5" points="49.45 44.21 49.48 44.21 49.44 44.21 49.45 44.21"/><path class="cls-5" d="M49.35,44.21h0Z"/><path class="cls-5" d="M48.65,44.53h0Z"/><polygon class="cls-5" points="48.72 44.5 48.72 44.5 48.8 44.5 48.72 44.5"/><path class="cls-5" d="M48.62,44.47h0S48.72,44.47,48.62,44.47Z"/><path class="cls-5" d="M42.71,30.92l0-.05S42.7,30.94,42.71,30.92Z"/><polygon class="cls-5" points="42.59 31.02 42.6 31 42.57 31.04 42.59 31.02"/><path class="cls-5" d="M42.52,31c0,.09,0,0,0,0v0l0-.07S42.52,31,42.52,31Z"/><path class="cls-5" d="M42.57,30.78s0,0,0,0h0Z"/><path class="cls-5" d="M42.57,30.79s0,0,0,0Z"/><path class="cls-5" d="M42.53,30.79l0,0s0,0,0-.05Z"/><path class="cls-5" d="M42.49,30.85h0Z"/><path class="cls-5" d="M42.53,30.82l0,0s0,.05,0,0S42.51,30.84,42.53,30.82Z"/><path class="cls-5" d="M42.53,30.84a.33.33,0,0,1,0,.06S42.55,30.83,42.53,30.84Z"/><path class="cls-5" d="M42.48,31.08v0S42.49,31.05,42.48,31.08Z"/><path class="cls-5" d="M42.49,30.72l0,.08v0A.15.15,0,0,1,42.49,30.72Z"/><path class="cls-5" d="M42.47,30.8l0,0S42.46,30.82,42.47,30.8Z"/><polygon class="cls-5" points="42.45 30.95 42.5 30.89 42.45 30.95 42.45 30.95"/><polygon class="cls-5" points="42.46 30.7 42.48 30.66 42.44 30.72 42.46 30.7"/><path class="cls-5" d="M42.43,30.7s0-.06,0-.08l0,.05S42.44,30.67,42.43,30.7Z"/><path class="cls-5" d="M42.39,30.71l0,0Z"/><path class="cls-5" d="M42.43,30.81s0,0,0-.06l0,.06Z"/><path class="cls-5" d="M42.42,30.81Z"/><path class="cls-5" d="M42.43,30.81Z"/><path class="cls-5" d="M42.44,30.89a.23.23,0,0,0,0,.1A.93.93,0,0,1,42.44,30.89Z"/><path class="cls-5" d="M42.4,30.88h0s0,0,0,0Z"/><polygon class="cls-5" points="42.39 30.89 42.4 30.88 42.4 30.87 42.39 30.89"/><path class="cls-5" d="M42.39,30.76l0,0s0,0,0,0Z"/><path class="cls-5" d="M42.4,30.79Z"/><polygon class="cls-5" points="42.3 30.76 42.3 30.77 42.3 30.76 42.3 30.76"/><path class="cls-5" d="M42.36,30.82h0Z"/><path class="cls-5" d="M42.36,30.72v0S42.37,30.71,42.36,30.72Z"/><path class="cls-5" d="M42.4,30.78h0Z"/><path class="cls-5" d="M42.4,30.78l0,0,0,0Z"/><path class="cls-5" d="M42.12,31.08s.06-.09,0,0a1.79,1.79,0,0,0,.14-.28.13.13,0,0,1,0,.06s0,.07,0,.11,0,0,0-.05a1.71,1.71,0,0,0-.11.17l0,0S42.12,31.07,42.12,31.08Z"/><path class="cls-5" d="M42.31,30.78h0s0,0,0-.07l0,.05,0,0Z"/><path class="cls-5" d="M42.34,30.79a.54.54,0,0,0-.07.13s0,0,0-.06,0,0,0-.07h0v0h0v0s0,0,0,0h0l0,0Z"/><path class="cls-5" d="M42.33,31.1h0Z"/><path class="cls-5" d="M42.33,31.07s0,0,0,0l0,0a.09.09,0,0,0,0-.06h0a.3.3,0,0,1,0-.1Z"/><path class="cls-5" d="M42.33,30.94l0,0v0Z"/><polygon class="cls-5" points="42.31 30.73 42.34 30.68 42.29 30.75 42.31 30.73"/><polygon class="cls-5" points="42.28 30.73 42.31 30.68 42.29 30.7 42.28 30.73"/><path class="cls-5" d="M40.68,30.65h0Z"/><path class="cls-5" d="M40.71,30.67v0A0,0,0,0,1,40.71,30.67Z"/><path class="cls-5" d="M41.72,30.43c0-.05,0-.12,0-.07l0,.05S41.72,30.41,41.72,30.43Z"/><polygon class="cls-5" points="41.15 30.52 41.15 30.54 41.18 30.49 41.15 30.52"/><path class="cls-5" d="M41,30.74v0Z"/><path class="cls-5" d="M40.46,30.64l0,.06S40.45,30.67,40.46,30.64Z"/><path class="cls-5" d="M42,30.62s0,0,0,0S42,30.66,42,30.62Z"/><path class="cls-5" d="M40.92,30.08s0,0,0,0Z"/><path class="cls-5" d="M42,30.57v0h0S42.05,30.54,42,30.57Z"/><path class="cls-5" d="M39.75,30.52h0Z"/><path class="cls-5" d="M39.39,30h0Z"/><path class="cls-5" d="M42.21,30.66Z"/><path class="cls-5" d="M42.12,30.87v0Z"/><path class="cls-5" d="M41.8,30.87Z"/><path class="cls-5" d="M42.2,30.68h0Z"/><path class="cls-5" d="M42.21,30.66h0S42.22,30.65,42.21,30.66Z"/><path class="cls-5" d="M42.2,30.66h0Z"/><path class="cls-5" d="M40.15,30.37h0S40.15,30.38,40.15,30.37Z"/><polygon class="cls-5" points="41.3 30.89 41.3 30.89 41.3 30.89 41.3 30.89"/><path class="cls-5" d="M41.26,30.92c0-.06,0-.05,0,0l.07-.16Z"/><path class="cls-5" d="M40.58,30.63v.06c0,.07,0,0-.06.12.06-.18,0,0,.12-.18v0h0c0,.08.06-.12.07-.09s0,0,0,.06l0,0s0,0,0,0h0l.05-.08s0,0,0,0l0,0s0,.08,0,.07c-.06.18,0,0,0,.07l0,0a.4.4,0,0,0,0,.13,1,1,0,0,1,.07-.2s0,0,0,0,0,0,0,0l0,.08s0-.06.06-.09a.79.79,0,0,1,0,.13s0-.1.06-.11,0,0,.06,0a.15.15,0,0,1,0,.07l0-.06v0s0-.07.06-.09,0,.14,0,.05a.59.59,0,0,0,0,.08l.1-.12v.06a.46.46,0,0,1,.1-.18l0-.07,0,0,0,.07h0a.41.41,0,0,1-.06.11l0-.05a.64.64,0,0,0-.08.14s0,0,0,0v0l0,0,0,.09,0,0v.07c.06-.08.14-.2.19-.22s-.06.11-.1.18,0,0,0,0a.33.33,0,0,1,0,.06l.07-.06c0,.06,0,.05,0,.08.06-.13.06-.07.09-.11s0,.08,0,.07.09-.13.07-.05h0s0,0,0,0h0s.06,0,.12-.06l-.08.14.22-.32c-.05.08-.15.3-.19.34s0,0,0,0l.07-.14a1.31,1.31,0,0,0,0,.15s.09-.16.1-.15l-.09.15.1-.12a.53.53,0,0,0-.08.15s0,0,0,0v0s.13-.18.15-.16a1.18,1.18,0,0,0-.1.19c0-.06.21-.31.26-.35l0,0,0,0-.27.37s0,.05,0,.06l0,.05v0c0-.08.07-.07.11-.14l-.08.07c0-.08.14-.22.16-.19l-.1.16s.05,0,0,0l0,0s.08-.09,0,0,0,.11,0,.07l.24-.45a.68.68,0,0,1,0,.15,2.36,2.36,0,0,1-.13.23l0-.05s0,.06,0,.06,0,0,0-.06,0,0,0,0a.7.7,0,0,1,.13-.18l0,.06s0,.06,0,.07a.16.16,0,0,1,0,.08l0,0c0,.08,0,0-.06.09a.2.2,0,0,1,.08-.08c0-.07,0,0,0,0a.8.8,0,0,1,.17-.23s0,.07,0,.06.12-.17.11-.08-.07.13-.09.18,0-.06,0-.06v0s0,0,0,0,0,0,0,.11a.18.18,0,0,0,0-.07h0c0-.06.06-.07.06-.1s.07-.08.07,0l0,.07s0,0,0,0,0,.12,0,0l0-.05s.08-.11.08-.08a.34.34,0,0,0,0-.08c-.05.11,0,0-.08.1,0-.11,0-.05,0-.14s0,0,0,0v0h0v0c0,.05-.06,0-.08.07s0,0,0-.06l0,0c0-.05,0-.1.06-.12h0s0,0,0,0l0,0,0,0v0s-.1.07-.07,0,0,0,0,0l0-.05s0-.06,0,0c.06-.13,0-.05,0-.08l0,.06s0,0,0,0l0,.05s0-.06,0-.06,0,0,0,0-.09.06-.07,0,0,0,0,0h0v0h0l0-.06h0s0,0,0,.07l0,0c0-.09,0,0,0-.08,0,.05,0,0-.11.12l0,0s0,0,0,0l0-.07-.07.09a.25.25,0,0,1,.06-.13c-.06.08,0,0-.1.1l0-.05s-.05.06,0,0-.06-.06-.06-.16c-.07.14,0-.07,0,0s0-.05,0-.08,0-.06-.06,0l0-.07s0,0,0,0l0,0s-.08.09-.13.19,0-.05,0,0,0-.07,0-.07,0-.07-.06,0,0,0,0,0,0,0,0,0v0c0,.09,0,0,0,0h0c0-.08,0,0,0-.07l0,.06c-.06.13,0-.08,0,0v0s.05-.18.05-.2l0,0c0-.08,0,.08-.07.09s.05-.1,0-.12-.09.12-.08,0a.19.19,0,0,1,0,.09s0-.14,0,0v0a.29.29,0,0,0-.08.08c.06-.21-.1.08,0-.11h0v0s0,0-.06.06,0,0,0,0,0,0-.08.05l0-.07s0-.11-.07,0v0c-.06.06,0-.2-.12,0l0,.05s0,.1,0,.15,0-.08,0-.09h0c0-.12,0-.05,0-.13s-.12-.09-.18-.1V30h0s0-.08,0-.08,0,0,0,.07,0-.11,0-.12h0s0,.08,0,.07,0-.06,0-.06,0,0,0,0h0V30s0,0,0,.09c0-.14-.1-.06-.11-.1s0,.05-.05.05,0,.1,0,.09c0-.18,0-.08,0-.21,0,.09-.05,0,0,.15,0,0,0-.07,0-.11s-.08,0-.12,0a.33.33,0,0,1,0,.1l0-.12s0,.14,0,.06a.15.15,0,0,1,0,.06c-.11-.1-.15.12-.29-.07,0,0,0,.05,0,.05a.46.46,0,0,1,0,.09L39.37,30c0,.08,0,0,0,.1v0c0,.1.09.2.13.33,0-.12.08.15,0,0a.64.64,0,0,1,0,.07c0-.06,0-.07,0,0h0s.06,0,.1.06v-.06s0,0,0,0,0,0,0-.11c0,.13.06,0,.09.14s0-.07,0-.07v0a.46.46,0,0,1,0,.09v0s0,0,0,0v0s.07,0,.1-.07v0c0-.06,0,0,.05,0h0s0,0,0,0,0,.07,0,.11,0,0,0-.16v.05c0-.05,0-.07,0-.08s0,.07,0,.13,0-.11.06.05c0-.14,0-.08,0-.11s0-.1,0-.08,0,.17,0,.17h0s0,0,0,0,0,0,0-.09l0,0s0-.15.06-.09a.19.19,0,0,1,0,.07s0,0,0,0,0,0-.06.1,0-.08,0,0c0-.15,0,0,0-.09v.06l0,0,0,.08c0-.07,0,.06,0,0s0-.08,0-.13,0,.17,0,.15a.16.16,0,0,1,0-.07s0,0,0,.07,0-.06,0-.1,0,0,0,0v.06c0,.05,0-.13.05-.08l0,.09v0s0,0,0,0,0-.11,0-.11,0,.06,0,0,0,.09,0,0l0,.06s0,0,0,0a0,0,0,0,1,0,0l0-.08a.14.14,0,0,1,0,.06s0,0,0,0a.48.48,0,0,1-.05.12l0-.05a.25.25,0,0,1,0,.09s.06-.1.06-.05l0,0s0,.09,0,0l0,.1s0-.12.06-.15,0,.08,0,.11.07-.13.06-.05S40.59,30.63,40.58,30.63Zm.2,0s0,.05,0,0S40.78,30.64,40.78,30.66Zm.35,0s0,0,0,0S41.13,30.63,41.13,30.65Zm1,0Zm0,0,0,0h0S42.12,30.72,42.13,30.71Zm-2-.79v0S40.14,29.94,40.14,29.92Z"/><path class="cls-5" d="M41.05,30.71l0,0Z"/><polygon class="cls-5" points="40.46 30.63 40.46 30.63 40.46 30.64 40.46 30.63"/><path class="cls-5" d="M41.61,31.05a0,0,0,0,1,0,0A0,0,0,0,0,41.61,31.05Z"/><path class="cls-5" d="M42.27,30.66h0s0,0,0,0Z"/><path class="cls-5" d="M42.18,31.06h0v0Z"/><path class="cls-5" d="M42.18,30.85s0,0,0,0h0C42.22,30.82,42.2,30.84,42.18,30.85Z"/><path class="cls-5" d="M42.19,30.88h0S42.19,30.88,42.19,30.88Z"/><path class="cls-5" d="M42.17,30.69s0-.06,0,0S42.13,30.71,42.17,30.69Z"/><polygon class="cls-5" points="42.1 31.02 42.13 30.96 42.1 31 42.1 31.02"/><path class="cls-5" d="M42.07,30.94v0a0,0,0,0,0,0,0S42.08,30.92,42.07,30.94Z"/><path class="cls-5" d="M42.08,31h0Z"/><polygon class="cls-5" points="42.08 31.03 42.08 31.01 42.08 31 42.08 31.03"/><path class="cls-5" d="M41.94,30.86h0s0,0,0,0A.05.05,0,0,0,41.94,30.86Z"/><path class="cls-5" d="M41.9,31.05s0,0,0-.05l0,.07Z"/><path class="cls-5" d="M41.85,31s-.05.05,0,.06S41.85,31.07,41.85,31Z"/><polygon class="cls-5" points="41.7 30.84 41.7 30.84 41.77 30.72 41.7 30.84"/><path class="cls-5" d="M41.37,31s0-.07,0,0,0,0,0-.06S41.41,31,41.37,31Z"/><path class="cls-5" d="M41.43,31v0Z"/><polygon class="cls-5" points="39.32 29.94 39.3 29.91 39.32 29.95 39.32 29.94"/><path class="cls-5" d="M39.33,30l0-.08,0,.08S39.32,30,39.33,30Z"/><path class="cls-5" d="M40.74,30.84v0Z"/><polygon class="cls-5" points="40.64 30.73 40.64 30.73 40.66 30.65 40.64 30.73"/><path class="cls-5" d="M40.5,30.78s0,0,0,0S40.53,30.69,40.5,30.78Z"/><path class="cls-5" d="M38.47,33s0,0,0,.05S38.46,33,38.47,33Z"/><polygon class="cls-5" points="38.47 32.8 38.49 32.82 38.46 32.77 38.47 32.8"/><path class="cls-5" d="M38.56,32.73c-.08-.06,0,0-.06,0l0,0,.05.07S38.53,32.72,38.56,32.73Z"/><path class="cls-5" d="M38.74,32.84s0,0,0,0h0Z"/><path class="cls-5" d="M38.73,32.85Z"/><path class="cls-5" d="M38.76,32.8v0s0,0,0,0S38.79,32.82,38.76,32.8Z"/><path class="cls-5" d="M38.72,32.73v0S38.74,32.76,38.72,32.73Z"/><path class="cls-5" d="M38.73,32.78v0h0S38.72,32.76,38.73,32.78Z"/><path class="cls-5" d="M38.72,32.78s0,0,0-.05S38.7,32.81,38.72,32.78Z"/><path class="cls-5" d="M38.49,32.65h0v0S38.51,32.67,38.49,32.65Z"/><path class="cls-5" d="M38.86,32.77l-.06-.06v0A.05.05,0,0,1,38.86,32.77Z"/><path class="cls-5" d="M38.8,32.71v0S38.79,32.7,38.8,32.71Z"/><polygon class="cls-5" points="38.65 32.65 38.68 32.73 38.65 32.65 38.65 32.65"/><polygon class="cls-5" points="38.91 32.72 38.94 32.76 38.9 32.7 38.91 32.72"/><path class="cls-5" d="M38.94,32.69s.05,0,.06.06,0,0,0-.07S39,32.7,38.94,32.69Z"/><path class="cls-5" d="M39,32.64l0,0Z"/><path class="cls-5" d="M38.82,32.66a.09.09,0,0,0,0,0l0,0Z"/><path class="cls-5" d="M38.82,32.66h0Z"/><path class="cls-5" d="M38.82,32.66Z"/><path class="cls-5" d="M38.72,32.66s0-.07-.07-.09A.71.71,0,0,1,38.72,32.66Z"/><path class="cls-5" d="M38.76,32.62h0l0,0Z"/><polygon class="cls-5" points="38.76 32.6 38.76 32.62 38.77 32.61 38.76 32.6"/><path class="cls-5" d="M38.9,32.62s0,0,0,0h0S38.89,32.63,38.9,32.62Z"/><path class="cls-5" d="M38.86,32.63Z"/><polygon class="cls-5" points="38.97 32.51 38.96 32.5 38.97 32.51 38.97 32.51"/><path class="cls-5" d="M38.85,32.58s0,0,0,0v0A0,0,0,0,0,38.85,32.58Z"/><path class="cls-5" d="M39,32.6l0,0Z"/><path class="cls-5" d="M38.87,32.64Z"/><path class="cls-5" d="M38.87,32.64l0,0a0,0,0,0,1,0,0Z"/><path class="cls-5" d="M38.73,32.22s.06.09,0,.06a.9.9,0,0,0,.22.22.09.09,0,0,1,0-.06s-.08,0-.1-.07,0,0,.06,0-.05-.09-.12-.16v0Z"/><path class="cls-5" d="M38.93,32.52h0l.07,0a.33.33,0,0,0,0-.06l0,0Z"/><path class="cls-5" d="M38.91,32.56c0-.05,0-.08-.1-.12s0,.05,0,.08,0,0,.06,0v0h0v0S38.91,32.54,38.91,32.56Z"/><path class="cls-5" d="M38.58,32.47h0Z"/><path class="cls-5" d="M38.61,32.48s0,0,0,0,0,0,0,0a.06.06,0,0,0,0,.06h0a.19.19,0,0,1,.09,0Z"/><path class="cls-5" d="M38.75,32.51v0l0,0,0,0S38.73,32.49,38.75,32.51Z"/><polygon class="cls-5" points="38.99 32.53 39.03 32.58 38.98 32.5 38.99 32.53"/><polygon class="cls-5" points="39.01 32.5 39.05 32.54 39.03 32.51 39.01 32.5"/><path class="cls-5" d="M40,30.5v0Z"/><path class="cls-5" d="M40,30.54l0,0Z"/><path class="cls-5" d="M39.68,31.83s.11.07.06,0l0,0Z"/><polygon class="cls-5" points="39.86 31.12 39.84 31.11 39.88 31.16 39.86 31.12"/><path class="cls-5" d="M39.69,31l0,0Z"/><path class="cls-5" d="M40.17,30.2l0,0S40.15,30.18,40.17,30.2Z"/><path class="cls-5" d="M39.28,32.21h0S39.25,32.17,39.28,32.21Z"/><path class="cls-5" d="M40.46,30.92l0,0S40.45,30.92,40.46,30.92Z"/><path class="cls-5" d="M39.34,32.19h0s0,0,0,0S39.37,32.23,39.34,32.19Z"/><path class="cls-5" d="M41,29.29h0Z"/><path class="cls-5" d="M41.65,29.36h0Z"/><path class="cls-5" d="M39.14,32.41Z"/><path class="cls-5" d="M39,32.27s0,0,0,0Z"/><path class="cls-5" d="M39.14,31.88h0Z"/><path class="cls-5" d="M39.11,32.4h0Z"/><path class="cls-5" d="M39.13,32.42Z"/><path class="cls-5" d="M39.15,32.4h0Z"/><path class="cls-5" d="M40.69,29.9h0S40.68,29.89,40.69,29.9Z"/><polygon class="cls-5" points="39.38 31.26 39.38 31.26 39.38 31.26 39.38 31.26"/><path class="cls-5" d="M39.37,31.21c0,.06,0,.06,0,.05l.13.11Z"/><path class="cls-5" d="M40.09,30.38l-.05,0c0-.08,0-.07-.09-.11.14.13,0,.08.1.2l0,0h0c-.08,0,.09.1.05.11a.05.05,0,0,1-.05,0v.05s0,0,0,0v0h0l.05.08s0,0,0,0l0,0s-.06-.06-.05-.07c-.15-.11,0,0-.08,0v0c-.08-.06-.06,0-.13,0s.15.07.17.12,0,0,0,0-.05,0-.06,0l-.06-.06a.47.47,0,0,0,.06.09s-.07,0-.11-.06.09.05.08.09,0,0,0,.09,0,0-.06-.05l0,.06,0,0s.06.05.06.09-.13-.07-.06,0,0,0-.07,0a.9.9,0,0,0,.07.14l-.06,0a.4.4,0,0,1,.14.15l.06,0v.06l0-.06v0a.38.38,0,0,1-.09-.09l0,0a.57.57,0,0,0-.11-.11s0,0,0,0l0,0s0,0,0,0L39.66,31l0,0h-.08a.75.75,0,0,1,.14.26.89.89,0,0,0-.14-.13c.07.05,0-.06,0-.06l-.05,0,0,.09c0-.05,0,0-.07,0s0,.08.06.13-.06-.07,0-.08.09.13,0,.09,0,0,0,0,0,0,0,0h0s-.07.08,0,.16l-.11-.11.23.31c-.06-.07-.25-.22-.27-.28s0,0,0,0a1.09,1.09,0,0,1,.11.1l-.13-.08a.58.58,0,0,1,.11.13.68.68,0,0,1-.12-.12l.09.13-.13-.11s0,0,0,0l0,0c-.05,0,.12.17.09.2s-.13-.15-.16-.15a2.18,2.18,0,0,1,.26.36l0,0,0,.06c-.08-.1-.22-.3-.27-.38s0,0-.06,0a.07.07,0,0,1,0-.06l-.05,0c.06.06,0,.09.09.14l0-.1c.07.06.16.2.13.21s-.11-.12-.14-.14,0,.07,0,.06l0,0s.06.11,0,.06-.1-.06-.07,0a2,2,0,0,1,.36.35s-.1,0-.14-.07-.12-.15-.18-.19,0,0,0,.05,0-.06-.06,0,0,0,.05.07,0,0,0,0a.7.7,0,0,1,.14.19l-.06,0s-.07,0-.1,0,0,0-.07-.06,0,0,0,0,0,0-.07-.08,0,.07,0,.11,0,0,0-.05a.55.55,0,0,1,.16.25s-.07-.05-.06,0,.11.17,0,.15-.1-.11-.14-.14.06,0,.07,0h0s0,0,0,0-.08.06-.15.05,0,0,0,.06h0s0,.07.06.08.05.1,0,.1l-.06-.06s0,0,0,0-.1-.05,0,0l.06,0s.06.12,0,.12,0,0,.08,0c-.1-.08,0,0-.06-.11.09.06.05,0,.13.06s0,0,0,0l0,0h0l0,0s0-.07,0-.1,0,0,.05,0l0,0s.09,0,.09.09h0s.06,0,0,0,0-.07,0,0v-.06h0s0-.12.09-.07,0,0,0,0l0,0s.07,0,0,0,.08,0,.11,0l0-.05s0,0,0-.07l0-.05s.07,0,.09,0,0,0,0,0c.13.07,0-.13.08-.08s0,0,0,0h0l0,0s0,0,0,0l.05,0h0l-.06-.06s0,0,0,0,0,0,.08,0,0-.07-.07-.15,0,0,0,0,0,0,0,0l.07.05-.07-.09a.23.23,0,0,1,.11.09c-.05-.09,0,0-.06-.13l0,0s0-.08,0-.05.1-.08.21-.06c-.12-.1.07,0,0-.06a.2.2,0,0,1,.07.06c0-.05.08,0,0-.08s0,0,0,.06,0,0,0,0,0,0,0,0-.06-.11-.14-.19.05,0,0,0,.07,0,.06.06.09,0,0-.08,0,0,0,0,0,0,0,0h0c-.07-.08,0,0,0-.06h0c.08,0,0,0,.08,0l0,0c-.1-.09.08,0,.06,0h0s.17.09.19.09l0,0c.08,0-.07-.06-.06-.1s.08.09.1.08-.07-.14,0-.1a.16.16,0,0,1-.07-.07s.13,0,.06,0h0s0-.06,0-.11c.18.13,0-.14.14,0l0,0h0s0,0,0-.09l0,0c.06,0,.06,0,0-.11l.06,0s.12,0,.09-.06l0,0c0-.09.22,0,0-.14l0-.06s-.07-.08-.12-.09.09,0,.08,0h0c.1.09.07,0,.14.05s.15-.09.2-.14L41,30.15l0,0s.07,0,.05.06,0-.06,0-.07.08.08.09.07h0s0-.06,0-.07a.1.1,0,0,1,.06,0h0l0,0-.07,0s0,0-.06-.06c.12.06.12-.07.16-.06s0-.07,0-.08-.08-.06-.06-.07.08,0,.2.08c-.08,0,0-.06-.09-.11s.05,0,.09,0,.1,0,.11-.11a.32.32,0,0,1-.07-.06l.11.05s-.1-.09,0-.06,0,0,0,0c.16,0,.06-.23.3-.19,0,0,0,0,0,0s0,0-.08-.05l.1,0c-.07-.06,0,0,0-.1v0a3.23,3.23,0,0,0-.3-.19c.08.09-.17-.05,0,.07,0,0,0,0-.06,0s0,0,0,0h0c0,.06-.08,0-.14.07l.05,0h-.05c.07.07,0,0,.1,0-.11-.06,0,.08-.18,0s.06,0,0,0l0,0,0,0s-.06,0-.08,0v0s0,.05,0,.05h0c0,.06-.08.09-.05.18h0c0,.07,0,0-.06.06h0s0,.05,0,.06-.07,0-.09-.06,0,0,.09.13l0,0s0,0,0,.08-.07,0-.11-.09.05.12-.09,0c.09.1.08,0,.1,0s.07.08.05.08-.15-.09-.18-.05v0s0,.06,0,0,0,0,.06.09v-.05s.1.13,0,.12l0-.06s0,0,0,0,0-.05,0-.12,0,.08,0,0c.11.1,0,0,0,.11l0,0s0,0,0,0l-.06-.07c0,.06-.07,0-.06,0s.07,0,.12.05-.15-.08-.16,0,0,0,.06,0a.13.13,0,0,1-.08,0s.06,0,.08.08,0,0,0,.06l0,0c-.06,0,.1.1,0,.09L40.42,30v0L40.37,30c0,.06,0,.05,0,.06s.09.07.08.09,0-.05-.06,0-.06-.07,0,0l0,0s0,0,0,0,0,0,0,0l0,.08a.07.07,0,0,1,0,0s0,0,0,.05-.08-.07-.09-.1l0,.07s-.06,0-.07-.05,0,.11,0,.1l0,0s-.09,0-.06.06l-.08-.05s.11.06.11.11-.07,0-.1-.05.09.12,0,.09S40.09,30.39,40.09,30.38Zm-.17.25s0-.05,0,0S40,30.64,39.92,30.63Zm-.18.44s0,0,0,0Zm-.57,1.24Zm0,0,0,0s0,0,0,0S39.12,32.29,39.13,32.31Zm2-2.2h0S41.07,30.09,41.09,30.11Z"/><path class="cls-5" d="M39.71,31l0,0S39.72,31,39.71,31Z"/><polygon class="cls-5" points="40.18 30.21 40.18 30.21 40.17 30.2 40.18 30.21"/><path class="cls-5" d="M39,31.62l0,0S39.05,31.62,39,31.62Z"/><path class="cls-5" d="M39.1,32.49v0h0S39.1,32.48,39.1,32.49Z"/><path class="cls-5" d="M38.71,32.3s0,0,0,0l0,0A0,0,0,0,0,38.71,32.3Z"/><path class="cls-5" d="M38.94,32.34s0,0,0,0h0C39,32.4,39,32.37,38.94,32.34Z"/><path class="cls-5" d="M38.9,32.35h0S38.9,32.36,38.9,32.35Z"/><path class="cls-5" d="M39.13,32.36s0,0,0,0S39.13,32.31,39.13,32.36Z"/><polygon class="cls-5" points="38.81 32.22 38.86 32.27 38.82 32.22 38.81 32.22"/><path class="cls-5" d="M38.91,32.19h0l0,0S38.93,32.2,38.91,32.19Z"/><path class="cls-5" d="M38.9,32.21s0,0,0,0Z"/><polygon class="cls-5" points="38.81 32.19 38.83 32.19 38.84 32.19 38.81 32.19"/><path class="cls-5" d="M39.07,32.05v0h0S39.05,32,39.07,32.05Z"/><path class="cls-5" d="M38.89,32s0,0,0,0l-.06-.06Z"/><path class="cls-5" d="M38.92,31.91s0-.07,0-.05S38.9,31.91,38.92,31.91Z"/><polygon class="cls-5" points="39.23 31.76 39.22 31.76 39.32 31.86 39.23 31.76"/><path class="cls-5" d="M39.18,31.33s.06.06,0,.05,0,0,0,0S39.25,31.39,39.18,31.33Z"/><path class="cls-5" d="M39.25,31.41v0Z"/><polygon class="cls-5" points="41.75 29.36 41.78 29.36 41.74 29.34 41.75 29.36"/><path class="cls-5" d="M41.68,29.27l.08.05-.06-.06S41.7,29.28,41.68,29.27Z"/><path class="cls-5" d="M39.76,30.55h.05Z"/><polygon class="cls-5" points="39.95 30.43 39.95 30.43 40.01 30.48 39.95 30.43"/><path class="cls-5" d="M40,30.22s0,0,0,0S40.07,30.29,40,30.22Z"/></g></g></svg>